<svg width="25" height="24" viewBox="0 0 25 24" fill="none" xmlns="http://www.w3.org/2000/svg">
<path d="M20.7903 14.06L19.6603 12.18C19.4103 11.77 19.1903 10.98 19.1903 10.5V8.63005C19.1903 5.00005 16.2403 2.05005 12.6203 2.05005C8.9903 2.06005 6.0403 5.00005 6.0403 8.63005V10.49C6.0403 10.97 5.8203 11.76 5.5803 12.17L4.4503 14.05C4.0203 14.78 3.9203 15.61 4.1903 16.33C4.4603 17.06 5.0703 17.64 5.8703 17.9C6.9503 18.26 8.0403 18.52 9.1503 18.71C9.2603 18.73 9.3703 18.74 9.4803 18.76C9.6203 18.7801 9.7703 18.8 9.9203 18.82C10.1803 18.8601 10.4403 18.89 10.7103 18.91C11.3403 18.97 11.9803 19 12.6203 19C13.2503 19 13.8803 18.97 14.5003 18.91C14.7303 18.89 14.9603 18.8701 15.1803 18.84C15.3603 18.82 15.5403 18.8001 15.7203 18.7701C15.8303 18.76 15.9403 18.74 16.0503 18.72C17.1703 18.54 18.2803 18.26 19.3603 17.9C20.1303 17.64 20.7203 17.06 21.0003 16.32C21.2803 15.57 21.2003 14.75 20.7903 14.06ZM13.3503 10C13.3503 10.42 13.0103 10.76 12.5903 10.76C12.1703 10.76 11.8303 10.42 11.8303 10V6.90005C11.8303 6.48005 12.1703 6.14005 12.5903 6.14005C13.0103 6.14005 13.3503 6.48005 13.3503 6.90005V10Z" fill="#181C25"/>
<path d="M15.4303 20.01C15.0103 21.17 13.9003 22 12.6003 22C11.8103 22 11.0303 21.68 10.4803 21.11C10.1603 20.81 9.92027 20.41 9.78027 20C9.91027 20.02 10.0403 20.03 10.1803 20.05C10.4103 20.08 10.6503 20.11 10.8903 20.13C11.4603 20.18 12.0403 20.21 12.6203 20.21C13.1903 20.21 13.7603 20.18 14.3203 20.13C14.5303 20.11 14.7403 20.1 14.9403 20.07C15.1003 20.05 15.2603 20.03 15.4303 20.01Z" fill="#181C25"/>
</svg>
