<svg width="25" height="24" viewBox="0 0 25 24" fill="none" xmlns="http://www.w3.org/2000/svg">
<path d="M12.62 20.35C10.04 20.35 7.46996 19.94 5.01996 19.12C4.10996 18.82 3.41996 18.17 3.11996 17.35C2.81996 16.53 2.91996 15.59 3.40996 14.77L4.67996 12.65C4.95996 12.18 5.20996 11.3 5.20996 10.75V8.64999C5.20996 4.55999 8.52997 1.23999 12.62 1.23999C16.71 1.23999 20.03 4.55999 20.03 8.64999V10.75C20.03 11.29 20.28 12.18 20.56 12.65L21.83 14.77C22.3 15.55 22.38 16.48 22.07 17.33C21.76 18.18 21.08 18.83 20.22 19.12C17.77 19.95 15.2 20.35 12.62 20.35ZM12.62 2.74999C9.35997 2.74999 6.70996 5.39999 6.70996 8.65999V10.76C6.70996 11.57 6.38996 12.74 5.96996 13.43L4.69996 15.56C4.43996 15.99 4.37996 16.45 4.52996 16.85C4.67996 17.25 5.01996 17.55 5.49996 17.71C10.1 19.24 15.16 19.24 19.76 17.71C20.19 17.57 20.52 17.25 20.67 16.83C20.83 16.41 20.78 15.95 20.55 15.56L19.28 13.44C18.86 12.75 18.54 11.58 18.54 10.77V8.66999C18.53 5.39999 15.88 2.74999 12.62 2.74999Z" fill="#49536E"/>
<path d="M12.6 22.9C11.53 22.9 10.48 22.46 9.72002 21.7C8.96002 20.94 8.52002 19.89 8.52002 18.82H10.02C10.02 19.5 10.3 20.16 10.78 20.64C11.26 21.12 11.92 21.4 12.6 21.4C14.02 21.4 15.18 20.24 15.18 18.82H16.68C16.68 21.07 14.85 22.9 12.6 22.9Z" fill="#49536E"/>
</svg>
