<svg width="25" height="24" viewBox="0 0 25 24" fill="none" xmlns="http://www.w3.org/2000/svg">
<path d="M20.7901 14.06L19.6601 12.18C19.4101 11.77 19.1901 10.98 19.1901 10.5V8.63005C19.1901 5.00005 16.2401 2.05005 12.6201 2.05005C8.99006 2.06005 6.04006 5.00005 6.04006 8.63005V10.49C6.04006 10.97 5.82006 11.76 5.58006 12.17L4.45006 14.05C4.02006 14.78 3.92006 15.61 4.19006 16.33C4.46006 17.06 5.07006 17.64 5.87006 17.9C6.95006 18.26 8.04006 18.52 9.15006 18.71C9.26006 18.73 9.37006 18.74 9.48006 18.76C9.62006 18.7801 9.77006 18.8 9.92006 18.82C10.1801 18.8601 10.4401 18.89 10.7101 18.91C11.3401 18.97 11.9801 19 12.6201 19C13.2501 19 13.8801 18.97 14.5001 18.91C14.7301 18.89 14.9601 18.8701 15.1801 18.84C15.3601 18.82 15.5401 18.8001 15.7201 18.7701C15.8301 18.76 15.9401 18.74 16.0501 18.72C17.1701 18.54 18.2801 18.26 19.3601 17.9C20.1301 17.64 20.7201 17.06 21.0001 16.32C21.2801 15.57 21.2001 14.75 20.7901 14.06ZM13.3501 10C13.3501 10.42 13.0101 10.76 12.5901 10.76C12.1701 10.76 11.8301 10.42 11.8301 10V6.90005C11.8301 6.48005 12.1701 6.14005 12.5901 6.14005C13.0101 6.14005 13.3501 6.48005 13.3501 6.90005V10Z" fill="#DADEE7"/>
<path d="M15.43 20.01C15.01 21.17 13.9 22 12.6 22C11.81 22 11.03 21.68 10.48 21.11C10.16 20.81 9.92003 20.41 9.78003 20C9.91003 20.02 10.04 20.03 10.18 20.05C10.41 20.08 10.65 20.11 10.89 20.13C11.46 20.18 12.04 20.21 12.62 20.21C13.19 20.21 13.76 20.18 14.32 20.13C14.53 20.11 14.74 20.1 14.94 20.07C15.1 20.05 15.26 20.03 15.43 20.01Z" fill="#DADEE7"/>
</svg>
