<svg width="375" height="812" viewBox="0 0 375 812" fill="none" xmlns="http://www.w3.org/2000/svg">
<g opacity="0.06">
<path d="M185.091 0V811.041H186.055V0H185.091Z" fill="#181C25"/>
<path d="M87.2913 630.699V2.49091H88.2548V630.699C88.2548 632.308 88.2771 634.236 88.3026 636.447L88.3026 636.448V636.45C88.5056 654.056 88.9152 689.561 79.9518 724.063C69.86 762.909 47.8475 800.619 0.180821 810.036L0 809.057C47.1462 799.743 68.975 762.476 79.0213 723.805C87.9469 689.447 87.5411 654.087 87.3389 636.469C87.3135 634.253 87.2913 632.317 87.2913 630.699Z" fill="#181C25"/>
<path d="M136.432 630.699V2.49091H137.396V630.705C137.396 645.158 137.396 682.943 128.59 720.862C119.789 758.762 102.152 796.959 66.7582 812L66.3919 811.078C101.337 796.228 118.87 758.453 127.653 720.629C136.431 682.83 136.432 645.145 136.432 630.699Z" fill="#181C25"/>
<path d="M238.568 2.49091V630.699C238.568 645.145 238.569 682.83 247.347 720.629C256.13 758.453 273.663 796.228 308.608 811.078L308.242 812C272.848 796.959 255.211 758.762 246.41 720.862C237.604 682.943 237.604 645.158 237.604 630.705V2.49091H238.568Z" fill="#181C25"/>
<path d="M287.709 630.699V2.49091H286.745V630.699C286.745 632.307 286.723 634.233 286.698 636.442L286.697 636.45C286.494 654.056 286.085 689.561 295.048 724.063C305.14 762.909 327.152 800.619 374.819 810.036L375 809.057C327.854 799.743 306.025 762.476 295.979 723.805C287.053 689.447 287.459 654.087 287.661 636.469C287.687 634.253 287.709 632.317 287.709 630.699Z" fill="#181C25"/>
</g>
</svg>
