<svg width="28" height="28" viewBox="0 0 28 28" fill="none" xmlns="http://www.w3.org/2000/svg">
<path d="M9.625 6.70831C9.14667 6.70831 8.75 6.31165 8.75 5.83331V2.33331C8.75 1.85498 9.14667 1.45831 9.625 1.45831C10.1033 1.45831 10.5 1.85498 10.5 2.33331V5.83331C10.5 6.31165 10.1033 6.70831 9.625 6.70831Z" fill="#181C25"/>
<path d="M18.375 6.70831C17.8967 6.70831 17.5 6.31165 17.5 5.83331V2.33331C17.5 1.85498 17.8967 1.45831 18.375 1.45831C18.8533 1.45831 19.25 1.85498 19.25 2.33331V5.83331C19.25 6.31165 18.8533 6.70831 18.375 6.70831Z" fill="#181C25"/>
<path fill-rule="evenodd" clip-rule="evenodd" d="M20.9532 6.19498C20.9532 5.22665 22.0615 4.67831 22.8315 5.24998C24.1965 6.28831 25.0832 7.90998 25.0832 9.76498V19.985C25.0832 23.1233 22.5398 25.6666 19.4015 25.6666H8.59817C5.45984 25.6666 2.9165 23.1233 2.9165 19.985V9.76498C2.9165 9.60165 2.92817 9.43831 2.93984 9.27498C2.9515 9.13498 2.96317 9.00665 2.9865 8.87831C3.00984 8.70331 3.04484 8.52831 3.0915 8.36498L3.09151 8.36498C3.13817 8.18998 3.18484 8.01498 3.25484 7.83998C3.26137 7.82365 3.26698 7.80824 3.27245 7.79324C3.28653 7.75461 3.29963 7.71865 3.32484 7.67665C3.3715 7.52498 3.4415 7.38498 3.5115 7.24498C3.5115 7.22165 3.52317 7.20998 3.5465 7.18665C3.62817 7.02331 3.7215 6.84831 3.8265 6.69665C3.83817 6.67331 3.84984 6.66165 3.8615 6.64998C3.95484 6.49831 4.05984 6.34665 4.18817 6.20665C4.43317 5.89165 4.72484 5.59998 5.0515 5.34331C5.069 5.32581 5.08942 5.31123 5.10984 5.29665C5.13025 5.28206 5.15067 5.26748 5.16817 5.24998C5.21484 5.21498 5.24984 5.19165 5.2965 5.16831C5.30234 5.16248 5.30817 5.15956 5.314 5.15665C5.31984 5.15373 5.32567 5.15081 5.3315 5.14498C6.08984 4.75998 7.0465 5.29665 7.0465 6.19498V6.31165C7.0465 7.25665 7.51317 8.14331 8.24817 8.65665C8.35317 8.72665 8.46983 8.78498 8.5865 8.84331L8.5865 8.84331C8.70317 8.90165 8.81984 8.94831 8.9365 8.98331C9.0765 9.02998 9.22817 9.06498 9.3915 9.07665C9.57817 9.09998 9.76484 9.09998 9.9515 9.07665C10.1148 9.06498 10.2665 9.02998 10.4065 8.98331C10.5348 8.94831 10.6515 8.90165 10.7565 8.84331L10.7565 8.84331C10.8732 8.78498 10.9898 8.72665 11.0948 8.65665C11.8182 8.20165 12.2965 7.38498 12.2965 6.46331V5.24998C12.2965 4.60831 12.8215 4.08331 13.4632 4.08331H14.5365C15.1782 4.08331 15.7032 4.60831 15.7032 5.24998V6.46331C15.7032 8.00331 17.0332 9.23998 18.6082 9.07665C19.9732 8.93665 20.9532 7.67665 20.9532 6.31165V6.19498ZM12.2628 20.7486H14.1974C14.1974 20.0802 14.2524 19.4628 14.3625 18.8966C14.4805 18.3225 14.6574 17.7799 14.8934 17.2687C15.1372 16.7575 15.4517 16.2621 15.8371 15.7824C16.2303 15.2948 16.6982 14.7994 17.2408 14.2961V12.8333H11.0832V14.4258H15.1647V14.4848C14.8737 14.7364 14.5591 15.0471 14.221 15.4167C13.8828 15.7863 13.5643 16.2228 13.2655 16.7261C12.9745 17.2215 12.7347 17.8035 12.5459 18.4719C12.3572 19.1325 12.2628 19.8914 12.2628 20.7486Z" fill="#181C25"/>
</svg>
