<svg width="25" height="24" viewBox="0 0 25 24" fill="none" xmlns="http://www.w3.org/2000/svg">
<path d="M8.3999 2V5" stroke="#49536E" stroke-width="1.5" stroke-miterlimit="10" stroke-linecap="round" stroke-linejoin="round"/>
<path d="M16.3994 2V5" stroke="#49536E" stroke-width="1.5" stroke-miterlimit="10" stroke-linecap="round" stroke-linejoin="round"/>
<path d="M16.3999 3.5C19.7299 3.68 21.3999 4.95 21.3999 9.65V15.83C21.3999 19.95 20.3999 22.01 15.3999 22.01H9.3999C4.3999 22.01 3.3999 19.95 3.3999 15.83V9.65C3.3999 4.95 5.0699 3.69 8.3999 3.5H16.3999Z" stroke="#49536E" stroke-width="1.5" stroke-miterlimit="10" stroke-linecap="round" stroke-linejoin="round"/>
<path d="M21.1494 17.6H3.64941" stroke="#49536E" stroke-width="1.5" stroke-miterlimit="10" stroke-linecap="round" stroke-linejoin="round"/>
<path d="M12.4291 14.7846H10.7709C10.7709 14.0498 10.8518 13.3993 11.0135 12.8331C11.1753 12.2601 11.3809 11.7613 11.6303 11.3367C11.8865 10.9053 12.1595 10.5311 12.4493 10.2143C12.7392 9.89752 13.0088 9.63126 13.2582 9.41556V9.365H9.75977V8H15.0378V9.25378C14.5727 9.68519 14.1716 10.1099 13.8345 10.5278C13.5042 10.939 13.2346 11.3636 13.0257 11.8018C12.8234 12.2399 12.6718 12.705 12.5707 13.1971C12.4763 13.6824 12.4291 14.2116 12.4291 14.7846Z" fill="#49536E"/>
</svg>
