<svg width="28" height="28" viewBox="0 0 28 28" fill="none" xmlns="http://www.w3.org/2000/svg">
<path d="M9.625 6.70831C9.14667 6.70831 8.75 6.31165 8.75 5.83331V2.33331C8.75 1.85498 9.14667 1.45831 9.625 1.45831C10.1033 1.45831 10.5 1.85498 10.5 2.33331V5.83331C10.5 6.31165 10.1033 6.70831 9.625 6.70831Z" fill="#DADEE7"/>
<path d="M18.375 6.70831C17.8967 6.70831 17.5 6.31165 17.5 5.83331V2.33331C17.5 1.85498 17.8967 1.45831 18.375 1.45831C18.8533 1.45831 19.25 1.85498 19.25 2.33331V5.83331C19.25 6.31165 18.8533 6.70831 18.375 6.70831Z" fill="#DADEE7"/>
<path fill-rule="evenodd" clip-rule="evenodd" d="M20.9534 6.19498C20.9534 5.22665 22.0617 4.67831 22.8317 5.24998C24.1967 6.28831 25.0834 7.90998 25.0834 9.76498V19.985C25.0834 23.1233 22.5401 25.6666 19.4017 25.6666H8.59841C5.46008 25.6666 2.91675 23.1233 2.91675 19.985V9.76498C2.91675 9.60165 2.92841 9.43831 2.94008 9.27498C2.95175 9.13498 2.96341 9.00665 2.98675 8.87831C3.01008 8.70331 3.04508 8.52831 3.09175 8.36498L3.09175 8.36498C3.13842 8.18998 3.18508 8.01498 3.25508 7.83998C3.26161 7.82365 3.26723 7.80824 3.2727 7.79324C3.28677 7.75461 3.29988 7.71865 3.32508 7.67665C3.37175 7.52498 3.44175 7.38498 3.51175 7.24498C3.51175 7.22165 3.52341 7.20998 3.54675 7.18665C3.62841 7.02331 3.72175 6.84831 3.82675 6.69665C3.83841 6.67331 3.85008 6.66165 3.86175 6.64998C3.95508 6.49831 4.06008 6.34665 4.18841 6.20665C4.43341 5.89165 4.72508 5.59998 5.05175 5.34331C5.06925 5.32581 5.08966 5.31123 5.11008 5.29665C5.1305 5.28206 5.15091 5.26748 5.16841 5.24998C5.21508 5.21498 5.25008 5.19165 5.29675 5.16831C5.30258 5.16248 5.30841 5.15956 5.31425 5.15665C5.32008 5.15373 5.32592 5.15081 5.33175 5.14498C6.09008 4.75998 7.04675 5.29665 7.04675 6.19498V6.31165C7.04675 7.25665 7.51342 8.14331 8.24842 8.65665C8.35341 8.72665 8.47008 8.78498 8.58674 8.84331L8.58675 8.84331C8.70342 8.90165 8.82008 8.94831 8.93675 8.98331C9.07675 9.02998 9.22842 9.06498 9.39175 9.07665C9.57842 9.09998 9.76508 9.09998 9.95175 9.07665C10.1151 9.06498 10.2667 9.02998 10.4067 8.98331C10.5351 8.94831 10.6517 8.90165 10.7567 8.84331L10.7568 8.84331C10.8734 8.78498 10.9901 8.72665 11.0951 8.65665C11.8184 8.20165 12.2967 7.38498 12.2967 6.46331V5.24998C12.2967 4.60831 12.8217 4.08331 13.4634 4.08331H14.5367C15.1784 4.08331 15.7034 4.60831 15.7034 5.24998V6.46331C15.7034 8.00331 17.0334 9.23998 18.6084 9.07665C19.9734 8.93665 20.9534 7.67665 20.9534 6.31165V6.19498ZM12.263 20.7486H14.1976C14.1976 20.0802 14.2527 19.4628 14.3628 18.8966C14.4807 18.3225 14.6577 17.7799 14.8936 17.2687C15.1374 16.7575 15.452 16.2621 15.8373 15.7824C16.2305 15.2948 16.6985 14.7994 17.2411 14.2961V12.8333H11.0834V14.4258H15.1649V14.4848C14.874 14.7364 14.5594 15.0471 14.2212 15.4167C13.8831 15.7863 13.5646 16.2228 13.2657 16.7261C12.9748 17.2215 12.7349 17.8035 12.5462 18.4719C12.3574 19.1325 12.263 19.8914 12.263 20.7486Z" fill="#DADEE7"/>
</svg>
