<svg width="20" height="20" viewBox="0 0 20 20" fill="none" xmlns="http://www.w3.org/2000/svg">
<path d="M10.8333 18.9584H9.16667C6.41667 18.9584 4.75833 18.4084 4.45 15.6167C4.4 15.2417 4.375 14.7917 4.375 14.1667V5.83341C4.375 5.20841 4.4 4.75841 4.45833 4.35841C4.75833 1.59175 6.41667 1.04175 9.16667 1.04175H10.8333C13.5833 1.04175 15.2417 1.59175 15.55 4.38341C15.6 4.75841 15.625 5.20841 15.625 5.83341V14.1667C15.625 14.7917 15.6 15.2417 15.5417 15.6417C15.2417 18.4084 13.5833 18.9584 10.8333 18.9584ZM9.16667 2.29175C6.40833 2.29175 5.88333 2.85008 5.7 4.51675C5.65 4.87508 5.625 5.26675 5.625 5.83341V14.1667C5.625 14.7334 5.65 15.1251 5.69167 15.4584C5.875 17.1501 6.40833 17.7084 9.16667 17.7084H10.8333C13.5917 17.7084 14.1167 17.1501 14.3 15.4834C14.35 15.1334 14.375 14.7334 14.375 14.1667V5.83341C14.375 5.27508 14.35 4.87508 14.3083 4.54175C14.125 2.85008 13.5917 2.29175 10.8333 2.29175H9.16667Z" fill="#919AB6"/>
<path d="M4.72496 16.1833H4.44163C1.86663 16.1833 1.04163 15.3583 1.04163 12.775V7.22498C1.04163 4.64165 1.86663 3.81665 4.44163 3.81665H4.72496C4.86663 3.81665 4.98329 3.81665 5.11663 3.82498C5.29163 3.83332 5.44996 3.91665 5.55829 4.05832C5.66663 4.19998 5.71663 4.36665 5.69163 4.54165C5.64996 4.87498 5.62496 5.26665 5.62496 5.83332V14.1667C5.62496 14.7333 5.64996 15.125 5.69163 15.4583C5.71663 15.6333 5.66663 15.8083 5.55829 15.9416C5.44996 16.075 5.29163 16.1583 5.11663 16.175C4.98329 16.1833 4.86663 16.1833 4.72496 16.1833ZM4.39163 5.06665C2.56663 5.07498 2.29163 5.36665 2.29163 7.22498V12.775C2.29163 14.6333 2.56663 14.925 4.39163 14.9333C4.38329 14.7083 4.37496 14.4583 4.37496 14.1667V5.83332C4.37496 5.54165 4.38329 5.29165 4.39163 5.06665Z" fill="#919AB6"/>
<path d="M15.5583 16.1833H15.275C15.1333 16.1833 15.0167 16.1833 14.8833 16.175C14.7083 16.1667 14.55 16.0833 14.4417 15.9416C14.3333 15.8083 14.2833 15.6333 14.3083 15.4583C14.3583 15.125 14.375 14.725 14.375 14.1667V5.83332C14.375 5.27498 14.35 4.87498 14.3083 4.54165C14.2833 4.36665 14.3333 4.19165 14.4417 4.05832C14.55 3.92498 14.7083 3.84165 14.8833 3.82498C15.0167 3.81665 15.1333 3.81665 15.275 3.81665H15.5583C18.1333 3.81665 18.9583 4.64165 18.9583 7.22498V12.775C18.9583 15.3583 18.1333 16.1833 15.5583 16.1833ZM15.6083 5.06665C15.6167 5.29165 15.625 5.54165 15.625 5.83332V14.1667C15.625 14.4583 15.6167 14.7083 15.6083 14.9333C17.4333 14.925 17.7083 14.6333 17.7083 12.775V7.22498C17.7083 5.36665 17.4333 5.07498 15.6083 5.06665Z" fill="#919AB6"/>
</svg>
