<svg width="375" height="300" viewBox="0 0 375 300" fill="none" xmlns="http://www.w3.org/2000/svg">
<g clip-path="url(#clip0_712_17153)">
<path d="M50.4298 164.467C55.0045 170.507 62.2026 184.903 54.3969 194.167C46.5913 203.431 34.4897 204.817 29.4146 204.353" stroke="white" stroke-opacity="0.14" stroke-width="2" stroke-linecap="round" stroke-linejoin="round"/>
<path d="M29.5456 124.39C27.0279 130.459 26.8469 143.82 46.2644 148.702" stroke="white" stroke-opacity="0.14" stroke-width="2" stroke-linecap="round" stroke-linejoin="round"/>
<path d="M16.1212 241.134C18.5207 234.517 26.7328 221.507 40.3854 222.399" stroke="white" stroke-opacity="0.14" stroke-width="2" stroke-linecap="round" stroke-linejoin="round"/>
<path d="M41.9893 49.5293C37.9149 51.8881 30.0878 59.1791 35.1272 74.5117C39.3913 87.4853 53.5691 91.7027 60.4313 96.2774" stroke="white" stroke-opacity="0.14" stroke-width="2" stroke-linecap="round" stroke-linejoin="round"/>
<path d="M77.4486 126.088C80.8439 131.985 85.1685 145.516 75.3042 152.464" stroke="white" stroke-opacity="0.14" stroke-width="2" stroke-linecap="round" stroke-linejoin="round"/>
<path d="M16.1191 146.236C23.1242 153.706 35.0328 170.897 26.6267 179.904" stroke="white" stroke-opacity="0.14" stroke-width="2" stroke-linecap="round" stroke-linejoin="round"/>
<path d="M-37.672 57.5663C-22.2849 58.0094 4.97271 48.9124 -9.09315 8.97945" stroke="white" stroke-opacity="0.14" stroke-width="2" stroke-linecap="round" stroke-linejoin="round"/>
<path d="M-37.672 289.156C-22.2849 289.599 4.97271 280.502 -9.09315 240.569" stroke="white" stroke-opacity="0.14" stroke-width="2" stroke-linecap="round" stroke-linejoin="round"/>
<path d="M52.894 60.1426H69.1916" stroke="white" stroke-opacity="0.14" stroke-width="2" stroke-linecap="round" stroke-linejoin="round"/>
<path d="M51.0703 73.1178H81.5209V63.0391" stroke="white" stroke-opacity="0.14" stroke-width="2" stroke-linecap="round" stroke-linejoin="round"/>
<path d="M19.0705 67.0363L-3.07766 58.9695" stroke="white" stroke-opacity="0.14" stroke-width="2" stroke-linecap="round" stroke-linejoin="round"/>
<path d="M-36.5254 92.2121C-32.7369 85.0998 -17.6546 75.8074 -7.68309 86.315C5.62257 100.336 -9.50584 108.832 -16.6896 100.362C-23.8734 91.8914 -21.6217 81.9039 -8.75529 77.2011C4.21645 72.4599 12.2957 84.778 14.1899 88.6737" stroke="white" stroke-opacity="0.14" stroke-width="2" stroke-linecap="round" stroke-linejoin="round"/>
<path d="M-9.18359 120.293C-2.89333 126.297 10.0518 134.703 11.51 120.293C13.3327 102.28 15.6916 101.208 34.2407 109.142" stroke="white" stroke-opacity="0.14" stroke-width="2" stroke-linecap="round" stroke-linejoin="round"/>
<path d="M-37.0343 216.641C-35.3779 221.175 -29.4666 229.961 -19.0724 228.832C-6.07962 227.421 9.62464 198.928 -7.34689 192.005C-24.3184 185.082 -23.1765 225.17 2.16171 215.546C22.4323 207.847 17.8969 194.279 13.0954 188.457" stroke="white" stroke-opacity="0.14" stroke-width="2" stroke-linecap="round" stroke-linejoin="round"/>
<path d="M76.0777 191.389C74.9626 193.79 75.6131 204.47 76.0777 209.509C66.4279 205.935 49.0153 202.54 56.5636 217.55" stroke="white" stroke-opacity="0.14" stroke-width="2" stroke-linecap="round" stroke-linejoin="round"/>
<path d="M16.6005 39.3052C17.3511 34.8019 20.8291 34.3897 22.7121 35.2816C27.8226 37.7021 25.1671 47.2542 17.5655 47.7753C9.73846 48.3117 3.94319 40.2989 10.1673 32.1212C16.3917 23.9433 27.2154 22.9561 33.5414 34.9088" stroke="white" stroke-opacity="0.14" stroke-width="2" stroke-linecap="round" stroke-linejoin="round"/>
<rect x="50.3527" y="116.105" width="18.8008" height="18.8008" rx="1.14441" transform="rotate(10.6498 50.3527 116.105)" stroke="white" stroke-opacity="0.14" stroke-width="2"/>
<rect x="60.9471" y="1.32729" width="32.6406" height="32.6406" rx="1.14441" transform="rotate(24.8076 60.9471 1.32729)" stroke="white" stroke-opacity="0.14" stroke-width="2"/>
<rect x="60.9496" y="232.927" width="32.6406" height="32.6406" rx="1.14441" transform="rotate(24.8076 60.9496 232.927)" stroke="white" stroke-opacity="0.14" stroke-width="2"/>
<path d="M26.9327 92.9816C26.7889 91.4414 28.4249 90.3664 29.7816 91.1096L31.2002 91.8867C32.4768 92.5861 32.5492 94.3929 31.3328 95.1923L30.0646 96.0257C28.8482 96.825 27.2184 96.0414 27.0831 94.5922L26.9327 92.9816Z" fill="white" fill-opacity="0.14"/>
<path d="M38.5094 183.909C38.3656 182.369 40.0016 181.294 41.3583 182.037L42.7769 182.814C44.0534 183.514 44.1259 185.321 42.9095 186.12L41.6412 186.953C40.4248 187.753 38.7951 186.969 38.6598 185.52L38.5094 183.909Z" fill="white" fill-opacity="0.14"/>
<path d="M34.6495 237.732C34.5057 236.191 36.1417 235.116 37.4984 235.86L38.917 236.637C40.1935 237.336 40.266 239.143 39.0496 239.942L37.7814 240.776C36.565 241.575 34.9352 240.791 34.7999 239.342L34.6495 237.732Z" fill="white" fill-opacity="0.14"/>
<path d="M-21.2831 166.188C-21.8429 165.873 -22.0341 165.16 -21.7067 164.607L-7.42075 140.501C-6.90414 139.63 -5.59308 139.81 -5.33082 140.789L4.80814 178.628C5.0704 179.607 4.0251 180.418 3.14185 179.922L-21.2831 166.188Z" stroke="white" stroke-opacity="0.14" stroke-width="2" stroke-linejoin="round"/>
<path d="M284.389 164.467C288.964 170.507 296.162 184.903 288.356 194.167C280.551 203.431 268.449 204.817 263.374 204.353" stroke="white" stroke-opacity="0.14" stroke-width="2" stroke-linecap="round" stroke-linejoin="round"/>
<path d="M263.505 124.39C260.987 130.459 260.806 143.82 280.224 148.702" stroke="white" stroke-opacity="0.14" stroke-width="2" stroke-linecap="round" stroke-linejoin="round"/>
<path d="M250.083 241.134C252.483 234.517 260.695 221.507 274.347 222.399" stroke="white" stroke-opacity="0.14" stroke-width="2" stroke-linecap="round" stroke-linejoin="round"/>
<path d="M275.946 49.5293C271.871 51.8881 264.044 59.1791 269.084 74.5117C273.348 87.4853 287.526 91.7027 294.388 96.2774" stroke="white" stroke-opacity="0.14" stroke-width="2" stroke-linecap="round" stroke-linejoin="round"/>
<path d="M195.98 75.5728C191.92 73.0849 182.044 69.3039 175.026 74.083" stroke="white" stroke-opacity="0.14" stroke-width="2" stroke-linecap="round" stroke-linejoin="round"/>
<path d="M158.079 20.7862C167.231 26.0786 181.12 40.3986 163.468 55.3393" stroke="white" stroke-opacity="0.14" stroke-width="2" stroke-linecap="round" stroke-linejoin="round"/>
<path d="M311.411 126.088C314.806 131.985 319.13 145.516 309.266 152.464" stroke="white" stroke-opacity="0.14" stroke-width="2" stroke-linecap="round" stroke-linejoin="round"/>
<path d="M94.609 125.652C99.7914 135.052 104.516 156.468 81.957 166.932" stroke="white" stroke-opacity="0.14" stroke-width="2" stroke-linecap="round" stroke-linejoin="round"/>
<path d="M250.081 146.236C257.086 153.706 268.995 170.897 260.589 179.904" stroke="white" stroke-opacity="0.14" stroke-width="2" stroke-linecap="round" stroke-linejoin="round"/>
<path d="M180.386 86.0938C176.312 89.6678 170.608 100.719 180.386 116.33" stroke="white" stroke-opacity="0.14" stroke-width="2" stroke-linecap="round" stroke-linejoin="round"/>
<path d="M196.288 57.5663C211.675 58.0094 238.932 48.9124 224.866 8.97945" stroke="white" stroke-opacity="0.14" stroke-width="2" stroke-linecap="round" stroke-linejoin="round"/>
<path d="M196.288 289.156C211.675 289.599 238.932 280.502 224.866 240.569" stroke="white" stroke-opacity="0.14" stroke-width="2" stroke-linecap="round" stroke-linejoin="round"/>
<path d="M142.645 236.198C148.792 228.835 164.925 218.528 180.279 236.198" stroke="white" stroke-opacity="0.14" stroke-width="2" stroke-linecap="round" stroke-linejoin="round"/>
<path d="M167.731 213.558C164.264 211.806 156.665 210.169 154.006 217.632" stroke="white" stroke-opacity="0.14" stroke-width="2" stroke-linecap="round" stroke-linejoin="round"/>
<path d="M286.856 60.1465H303.153" stroke="white" stroke-opacity="0.14" stroke-width="2" stroke-linecap="round" stroke-linejoin="round"/>
<path d="M285.032 73.1178H315.483V63.0391" stroke="white" stroke-opacity="0.14" stroke-width="2" stroke-linecap="round" stroke-linejoin="round"/>
<path d="M253.032 67.0363L230.884 58.9695" stroke="white" stroke-opacity="0.14" stroke-width="2" stroke-linecap="round" stroke-linejoin="round"/>
<path d="M88.8673 229.239C93.7795 232.225 103.949 237.879 105.329 236.611C106.71 235.344 108.981 230.559 109.944 228.326" stroke="white" stroke-opacity="0.14" stroke-width="2" stroke-linecap="round" stroke-linejoin="round"/>
<path d="M197.431 92.2121C201.22 85.0998 216.302 75.8074 226.273 86.315C239.579 100.336 224.451 108.832 217.267 100.362C210.083 91.8914 212.335 81.9039 225.201 77.2011C238.173 72.4599 246.252 84.778 248.146 88.6737" stroke="white" stroke-opacity="0.14" stroke-width="2" stroke-linecap="round" stroke-linejoin="round"/>
<path d="M224.773 120.293C231.063 126.297 244.008 134.703 245.466 120.293C247.289 102.28 249.648 101.208 268.197 109.142" stroke="white" stroke-opacity="0.14" stroke-width="2" stroke-linecap="round" stroke-linejoin="round"/>
<path d="M122.931 8.36914C122.037 11.6476 118.442 18.6778 111.216 20.571C102.182 22.9376 103.83 29.0677 107.395 36.3985C110.96 43.7292 119.573 60.0155 102.756 68.1937" stroke="white" stroke-opacity="0.14" stroke-width="2" stroke-linecap="round" stroke-linejoin="round"/>
<path d="M122.931 239.961C122.037 243.239 118.442 250.27 111.216 252.163C102.182 254.529 103.83 260.66 107.395 267.99C110.96 275.321 119.573 291.607 102.756 299.786" stroke="white" stroke-opacity="0.14" stroke-width="2" stroke-linecap="round" stroke-linejoin="round"/>
<path d="M94.1792 208.866C94.0876 197.825 98.1582 175.356 115.174 173.811C136.444 171.879 145.429 196.904 132.044 211.442C118.658 225.979 99.1301 214.662 106.19 196.996C113.249 179.331 132.044 196.996 116.55 205.094" stroke="white" stroke-opacity="0.14" stroke-width="2" stroke-linecap="round" stroke-linejoin="round"/>
<path d="M97.394 81.9219C101.504 92.8226 111.783 113.209 128.595 105.832C149.61 96.6111 121.006 70.5565 113.37 90.1779C104.899 111.944 117.706 128.851 128.595 137.355C144.659 149.898 178.149 149.554 166.766 130.064C155.383 110.574 122.949 132.458 140.389 161.372C151.272 179.414 156.437 185.568 157.545 186.783" stroke="white" stroke-opacity="0.14" stroke-width="2" stroke-linecap="round" stroke-linejoin="round"/>
<path d="M196.922 216.641C198.579 221.175 204.49 229.961 214.884 228.832C227.877 227.421 243.581 198.928 226.61 192.005C209.638 185.082 210.78 225.17 236.118 215.546C256.389 207.847 251.853 194.279 247.052 188.457" stroke="white" stroke-opacity="0.14" stroke-width="2" stroke-linecap="round" stroke-linejoin="round"/>
<path d="M123.362 53.8549C129.82 52.6963 142.63 52.6165 142.216 61.5658C141.801 70.5151 147.849 70.5383 150.924 69.4312C155.667 68.657 162.67 69.9315 152.74 81.2235" stroke="white" stroke-opacity="0.14" stroke-width="2" stroke-linecap="round" stroke-linejoin="round"/>
<path d="M310.04 191.389C308.925 193.79 309.576 204.47 310.04 209.509C300.39 205.935 282.978 202.54 290.526 217.55" stroke="white" stroke-opacity="0.14" stroke-width="2" stroke-linecap="round" stroke-linejoin="round"/>
<path d="M198.181 114.832L210.512 141.315C204.436 139.314 192.005 135.912 190.89 138.313C189.775 140.715 190.426 151.394 190.89 156.434C181.24 152.86 163.828 149.464 171.376 164.475" stroke="white" stroke-opacity="0.14" stroke-width="2" stroke-linecap="round" stroke-linejoin="round"/>
<path d="M250.557 39.3052C251.308 34.8019 254.786 34.3897 256.669 35.2816C261.779 37.7021 259.124 47.2542 251.522 47.7753C243.695 48.3117 237.9 40.2989 244.124 32.1212C250.348 23.9433 261.172 22.9561 267.498 34.9088" stroke="white" stroke-opacity="0.14" stroke-width="2" stroke-linecap="round" stroke-linejoin="round"/>
<circle cx="153.9" cy="99.2867" r="9.61483" stroke="white" stroke-opacity="0.14" stroke-width="2"/>
<circle cx="17.7986" cy="17.7986" r="16.7986" transform="matrix(-0.285974 -0.958237 -0.958237 0.285974 221.669 36.9004)" stroke="white" stroke-opacity="0.14" stroke-width="2"/>
<path d="M194.72 240.432C185.83 243.085 180.774 252.443 183.427 261.333C186.08 270.223 195.438 275.279 204.328 272.626C213.218 269.973 218.274 260.615 215.621 251.725C212.968 242.835 203.61 237.779 194.72 240.432Z" stroke="white" stroke-opacity="0.14" stroke-width="2"/>
<rect x="176.76" y="175.926" width="24.1718" height="24.1718" rx="1.14441" transform="rotate(-5.74167 176.76 175.926)" stroke="white" stroke-opacity="0.14" stroke-width="2"/>
<rect x="284.312" y="116.107" width="18.8008" height="18.8008" rx="1.14441" transform="rotate(10.6498 284.312 116.107)" stroke="white" stroke-opacity="0.14" stroke-width="2"/>
<rect x="294.909" y="232.923" width="32.6406" height="32.6406" rx="1.14441" transform="rotate(24.8076 294.909 232.923)" stroke="white" stroke-opacity="0.14" stroke-width="2"/>
<path d="M115.432 151.767C116.501 150.649 118.385 151.179 118.714 152.691L119.581 156.68C119.89 158.103 118.573 159.342 117.172 158.948L113.485 157.911C112.084 157.516 111.606 155.772 112.612 154.72L115.432 151.767Z" fill="white" fill-opacity="0.14"/>
<path d="M83.6282 102.112C83.4844 100.571 85.1204 99.4964 86.4771 100.24L90.0577 102.201C91.3343 102.9 91.4067 104.707 90.1903 105.507L86.9893 107.61C85.7729 108.409 84.1431 107.626 84.0078 106.177L83.6282 102.112Z" fill="white" fill-opacity="0.14"/>
<path d="M179.192 55.2453C179.048 53.7051 180.684 52.63 182.04 53.3733L183.459 54.1504C184.736 54.8497 184.808 56.6566 183.592 57.4559L182.323 58.2893C181.107 59.0887 179.477 58.3051 179.342 56.8558L179.192 55.2453Z" fill="white" fill-opacity="0.14"/>
<path d="M260.892 92.9816C260.748 91.4414 262.384 90.3664 263.741 91.1096L265.159 91.8867C266.436 92.5861 266.508 94.3929 265.292 95.1923L264.024 96.0257C262.807 96.825 261.177 96.0414 261.042 94.5922L260.892 92.9816Z" fill="white" fill-opacity="0.14"/>
<path d="M272.474 183.909C272.33 182.369 273.966 181.294 275.323 182.037L276.741 182.814C278.018 183.514 278.09 185.321 276.874 186.12L275.606 186.953C274.389 187.753 272.759 186.969 272.624 185.52L272.474 183.909Z" fill="white" fill-opacity="0.14"/>
<path d="M268.614 237.732C268.47 236.191 270.106 235.116 271.463 235.86L272.881 236.637C274.158 237.336 274.23 239.143 273.014 239.942L271.746 240.776C270.529 241.575 268.9 240.791 268.764 239.342L268.614 237.732Z" fill="white" fill-opacity="0.14"/>
<path d="M90.2003 49.0227C90.0565 47.4824 91.6925 46.4074 93.0492 47.1506L94.4678 47.9278C95.7443 48.6271 95.8168 50.434 94.6004 51.2333L93.3322 52.0667C92.1158 52.866 90.486 52.0824 90.3507 50.6332L90.2003 49.0227Z" fill="white" fill-opacity="0.14"/>
<path d="M145.819 23.7619C145.613 23.2531 145.074 22.9626 144.536 23.0695L120.565 27.8273C119.513 28.0361 119.3 29.4476 120.244 29.957L153.4 47.8461C154.344 48.3554 155.407 47.4028 155.004 46.4088L145.819 23.7619Z" stroke="white" stroke-opacity="0.14" stroke-width="2" stroke-linejoin="round"/>
<path d="M212.681 166.188C212.121 165.873 211.93 165.16 212.258 164.607L226.544 140.501C227.06 139.63 228.371 139.81 228.634 140.789L238.772 178.628C239.035 179.607 237.989 180.418 237.106 179.922L212.681 166.188Z" stroke="white" stroke-opacity="0.14" stroke-width="2" stroke-linejoin="round"/>
<path d="M328.568 125.652C333.75 135.052 338.475 156.468 315.916 166.932" stroke="white" stroke-opacity="0.14" stroke-width="2" stroke-linecap="round" stroke-linejoin="round"/>
<path d="M322.826 229.239C327.738 232.225 337.908 237.879 339.288 236.611C340.669 235.344 342.94 230.559 343.903 228.326" stroke="white" stroke-opacity="0.14" stroke-width="2" stroke-linecap="round" stroke-linejoin="round"/>
<path d="M356.89 8.36914C355.996 11.6476 352.401 18.6778 345.175 20.571C336.141 22.9376 337.789 29.0677 341.354 36.3985C344.919 43.7292 353.532 60.0155 336.715 68.1937" stroke="white" stroke-opacity="0.14" stroke-width="2" stroke-linecap="round" stroke-linejoin="round"/>
<path d="M356.89 239.961C355.996 243.239 352.401 250.27 345.175 252.163C336.141 254.529 337.789 260.66 341.354 267.99C344.919 275.321 353.532 291.607 336.715 299.786" stroke="white" stroke-opacity="0.14" stroke-width="2" stroke-linecap="round" stroke-linejoin="round"/>
<path d="M328.138 208.866C328.047 197.825 332.117 175.356 349.133 173.811C370.403 171.879 379.388 196.904 366.003 211.442C352.617 225.979 333.089 214.662 340.149 196.996C347.208 179.331 366.003 196.996 350.509 205.094" stroke="white" stroke-opacity="0.14" stroke-width="2" stroke-linecap="round" stroke-linejoin="round"/>
<path d="M331.353 81.9219C335.463 92.8226 345.742 113.209 362.554 105.832C383.569 96.6111 354.965 70.5565 347.329 90.1779C338.858 111.944 351.665 128.851 362.554 137.355C378.618 149.898 412.108 149.554 400.725 130.064C389.342 110.574 356.908 132.458 374.348 161.372C385.231 179.414 390.396 185.568 391.504 186.783" stroke="white" stroke-opacity="0.14" stroke-width="2" stroke-linecap="round" stroke-linejoin="round"/>
<path d="M357.321 53.8549C363.779 52.6963 376.589 52.6165 376.175 61.5658C375.76 70.5151 381.808 70.5383 384.883 69.4312C389.626 68.657 396.629 69.9315 386.699 81.2235" stroke="white" stroke-opacity="0.14" stroke-width="2" stroke-linecap="round" stroke-linejoin="round"/>
<rect x="297.271" y="1.32729" width="32.6406" height="32.6406" rx="1.14441" transform="rotate(24.8076 297.271 1.32729)" stroke="white" stroke-opacity="0.14" stroke-width="2"/>
<path d="M349.391 151.767C350.46 150.649 352.344 151.179 352.673 152.691L353.54 156.68C353.849 158.103 352.532 159.342 351.131 158.948L347.444 157.911C346.043 157.516 345.565 155.772 346.571 154.72L349.391 151.767Z" fill="white" fill-opacity="0.14"/>
<path d="M317.587 102.112C317.443 100.571 319.079 99.4964 320.436 100.24L324.017 102.201C325.293 102.9 325.366 104.707 324.149 105.507L320.948 107.61C319.732 108.409 318.102 107.626 317.967 106.177L317.587 102.112Z" fill="white" fill-opacity="0.14"/>
<path d="M324.159 49.0227C324.015 47.4824 325.651 46.4074 327.008 47.1506L328.427 47.9278C329.703 48.6271 329.776 50.434 328.559 51.2333L327.291 52.0667C326.075 52.866 324.445 52.0824 324.31 50.6332L324.159 49.0227Z" fill="white" fill-opacity="0.14"/>
<path d="M379.778 23.7619C379.572 23.2531 379.033 22.9626 378.495 23.0695L354.524 27.8273C353.472 28.0361 353.259 29.4476 354.203 29.957L387.359 47.8461C388.303 48.3554 389.366 47.4028 388.963 46.4088L379.778 23.7619Z" stroke="white" stroke-opacity="0.14" stroke-width="2" stroke-linejoin="round"/>
</g>
<defs>
<clipPath id="clip0_712_17153">
<rect width="375" height="300" fill="white"/>
</clipPath>
</defs>
</svg>
