<svg width="25" height="25" viewBox="0 0 25 25" fill="none" xmlns="http://www.w3.org/2000/svg">
<path d="M12.1993 23.6166C8.19931 23.6166 4.94931 20.7466 4.94931 17.2166V13.5166C4.94931 13.1066 5.28931 12.7666 5.69931 12.7666C6.10931 12.7666 6.44931 13.1066 6.44931 13.5166C6.44931 16.1366 8.91931 18.1166 12.1993 18.1166C15.4793 18.1166 17.9493 16.1366 17.9493 13.5166C17.9493 13.1066 18.2893 12.7666 18.6993 12.7666C19.1093 12.7666 19.4493 13.1066 19.4493 13.5166V17.2166C19.4493 20.7466 16.1993 23.6166 12.1993 23.6166ZM6.44931 17.3266C6.51931 19.9766 9.06931 22.1166 12.1993 22.1166C15.3293 22.1166 17.8793 19.9766 17.9493 17.3266C16.6493 18.7366 14.5893 19.6166 12.1993 19.6166C9.80931 19.6166 7.75931 18.7366 6.44931 17.3266Z" fill="#A9B1C6"/>
<path d="M12.1993 14.6162C9.43931 14.6162 6.9593 13.3762 5.7493 11.3762C5.2293 10.5262 4.94931 9.53621 4.94931 8.51621C4.94931 6.79621 5.71931 5.17621 7.10931 3.95621C8.46931 2.76621 10.2793 2.11621 12.1993 2.11621C14.1193 2.11621 15.9193 2.76621 17.2893 3.94621C18.6793 5.17621 19.4493 6.79621 19.4493 8.51621C19.4493 9.53621 19.1693 10.5162 18.6493 11.3762C17.4393 13.3762 14.9593 14.6162 12.1993 14.6162ZM12.1993 3.61621C10.6393 3.61621 9.17933 4.13621 8.08932 5.09621C7.02933 6.01621 6.44931 7.23621 6.44931 8.51621C6.44931 9.26621 6.6493 9.96621 7.0293 10.5962C7.9793 12.1562 9.95931 13.1162 12.1993 13.1162C14.4393 13.1162 16.4193 12.1462 17.3693 10.5962C17.7593 9.96621 17.9493 9.26621 17.9493 8.51621C17.9493 7.23621 17.3693 6.01621 16.2993 5.07621C15.2093 4.13621 13.7593 3.61621 12.1993 3.61621Z" fill="#A9B1C6"/>
<path d="M12.1993 19.6162C8.06931 19.6162 4.94931 16.9962 4.94931 13.5162V8.51621C4.94931 4.98621 8.19931 2.11621 12.1993 2.11621C14.1193 2.11621 15.9193 2.76621 17.2893 3.94621C18.6793 5.17621 19.4493 6.79621 19.4493 8.51621V13.5162C19.4493 16.9962 16.3293 19.6162 12.1993 19.6162ZM12.1993 3.61621C9.02931 3.61621 6.44931 5.81621 6.44931 8.51621V13.5162C6.44931 16.1362 8.91931 18.1162 12.1993 18.1162C15.4793 18.1162 17.9493 16.1362 17.9493 13.5162V8.51621C17.9493 7.23621 17.3693 6.01621 16.2993 5.07621C15.2093 4.13621 13.7593 3.61621 12.1993 3.61621Z" fill="#A9B1C6"/>
</svg>
