<svg width="337" height="60" viewBox="0 0 337 60" fill="none" xmlns="http://www.w3.org/2000/svg">
<g opacity="0.1">
<path d="M1.91534 -69.0362L0.957671 -70L0 -69.0362L0.957671 -68.0725L1.91534 -69.0362Z" fill="black"/>
<path d="M13.9541 -69.0362L12.9964 -70L12.0387 -69.0362L12.9964 -68.0725L13.9541 -69.0362Z" fill="black"/>
<path d="M25.9927 -69.0362L25.035 -70L24.0773 -69.0362L25.035 -68.0725L25.9927 -69.0362Z" fill="black"/>
<path d="M38.0314 -69.0362L37.0737 -70L36.1161 -69.0362L37.0737 -68.0725L38.0314 -69.0362Z" fill="black"/>
<path d="M50.0701 -69.0362L49.1125 -70L48.1548 -69.0362L49.1125 -68.0725L50.0701 -69.0362Z" fill="black"/>
<path d="M62.1088 -69.0362L61.1511 -70L60.1934 -69.0362L61.1511 -68.0725L62.1088 -69.0362Z" fill="black"/>
<path d="M74.1475 -69.0362L73.1898 -70L72.2321 -69.0362L73.1898 -68.0725L74.1475 -69.0362Z" fill="black"/>
<path d="M86.1861 -69.0362L85.2284 -70L84.2707 -69.0362L85.2284 -68.0725L86.1861 -69.0362Z" fill="black"/>
<path d="M98.2248 -69.0362L97.2671 -70L96.3094 -69.0362L97.2671 -68.0725L98.2248 -69.0362Z" fill="black"/>
<path d="M110.264 -69.0362L109.306 -70L108.348 -69.0362L109.306 -68.0725L110.264 -69.0362Z" fill="black"/>
<path d="M122.302 -69.0362L121.344 -70L120.387 -69.0362L121.344 -68.0725L122.302 -69.0362Z" fill="black"/>
<path d="M134.341 -69.0362L133.383 -70L132.426 -69.0362L133.383 -68.0725L134.341 -69.0362Z" fill="black"/>
<path d="M146.38 -69.0362L145.422 -70L144.464 -69.0362L145.422 -68.0725L146.38 -69.0362Z" fill="black"/>
<path d="M158.418 -69.0362L157.461 -70L156.503 -69.0362L157.461 -68.0725L158.418 -69.0362Z" fill="black"/>
<path d="M170.457 -69.0362L169.499 -70L168.542 -69.0362L169.499 -68.0725L170.457 -69.0362Z" fill="black"/>
<path d="M182.496 -69.0362L181.538 -70L180.58 -69.0362L181.538 -68.0725L182.496 -69.0362Z" fill="black"/>
<path d="M194.534 -69.0362L193.577 -70L192.619 -69.0362L193.577 -68.0725L194.534 -69.0362Z" fill="black"/>
<path d="M206.573 -69.0362L205.615 -70L204.658 -69.0362L205.615 -68.0725L206.573 -69.0362Z" fill="black"/>
<path d="M218.612 -69.0362L217.654 -70L216.696 -69.0362L217.654 -68.0725L218.612 -69.0362Z" fill="black"/>
<path d="M1.91534 -56.9211L0.957671 -57.8848L0 -56.9211L0.957671 -55.9573L1.91534 -56.9211Z" fill="black"/>
<path d="M13.9541 -56.9211L12.9964 -57.8848L12.0387 -56.9211L12.9964 -55.9573L13.9541 -56.9211Z" fill="black"/>
<path d="M25.9927 -56.9211L25.035 -57.8848L24.0773 -56.9211L25.035 -55.9573L25.9927 -56.9211Z" fill="black"/>
<path d="M38.0314 -56.9211L37.0737 -57.8848L36.1161 -56.9211L37.0737 -55.9573L38.0314 -56.9211Z" fill="black"/>
<path d="M50.0701 -56.9211L49.1125 -57.8848L48.1548 -56.9211L49.1125 -55.9573L50.0701 -56.9211Z" fill="black"/>
<path d="M62.1088 -56.9211L61.1511 -57.8848L60.1934 -56.9211L61.1511 -55.9573L62.1088 -56.9211Z" fill="black"/>
<path d="M74.1475 -56.9211L73.1898 -57.8848L72.2321 -56.9211L73.1898 -55.9573L74.1475 -56.9211Z" fill="black"/>
<path d="M86.1861 -56.9211L85.2284 -57.8848L84.2707 -56.9211L85.2284 -55.9573L86.1861 -56.9211Z" fill="black"/>
<path d="M98.2248 -56.9211L97.2671 -57.8848L96.3094 -56.9211L97.2671 -55.9573L98.2248 -56.9211Z" fill="black"/>
<path d="M110.264 -56.9211L109.306 -57.8848L108.348 -56.9211L109.306 -55.9573L110.264 -56.9211Z" fill="black"/>
<path d="M122.302 -56.9211L121.344 -57.8848L120.387 -56.9211L121.344 -55.9573L122.302 -56.9211Z" fill="black"/>
<path d="M134.341 -56.9211L133.383 -57.8848L132.426 -56.9211L133.383 -55.9573L134.341 -56.9211Z" fill="black"/>
<path d="M146.38 -56.9211L145.422 -57.8848L144.464 -56.9211L145.422 -55.9573L146.38 -56.9211Z" fill="black"/>
<path d="M158.418 -56.9211L157.461 -57.8848L156.503 -56.9211L157.461 -55.9573L158.418 -56.9211Z" fill="black"/>
<path d="M170.457 -56.9211L169.499 -57.8848L168.542 -56.9211L169.499 -55.9573L170.457 -56.9211Z" fill="black"/>
<path d="M182.496 -56.9211L181.538 -57.8848L180.58 -56.9211L181.538 -55.9573L182.496 -56.9211Z" fill="black"/>
<path d="M194.534 -56.9211L193.577 -57.8848L192.619 -56.9211L193.577 -55.9573L194.534 -56.9211Z" fill="black"/>
<path d="M206.573 -56.9211L205.615 -57.8848L204.658 -56.9211L205.615 -55.9573L206.573 -56.9211Z" fill="black"/>
<path d="M218.612 -56.9211L217.654 -57.8848L216.696 -56.9211L217.654 -55.9573L218.612 -56.9211Z" fill="black"/>
<path d="M1.91534 -44.8059L0.957671 -45.7696L0 -44.8059L0.957671 -43.8421L1.91534 -44.8059Z" fill="black"/>
<path d="M13.9541 -44.8059L12.9964 -45.7696L12.0387 -44.8059L12.9964 -43.8421L13.9541 -44.8059Z" fill="black"/>
<path d="M25.9927 -44.8059L25.035 -45.7696L24.0773 -44.8059L25.035 -43.8421L25.9927 -44.8059Z" fill="black"/>
<path d="M38.0314 -44.8059L37.0737 -45.7696L36.1161 -44.8059L37.0737 -43.8421L38.0314 -44.8059Z" fill="black"/>
<path d="M50.0701 -44.8059L49.1125 -45.7696L48.1548 -44.8059L49.1125 -43.8421L50.0701 -44.8059Z" fill="black"/>
<path d="M62.1088 -44.8059L61.1511 -45.7696L60.1934 -44.8059L61.1511 -43.8421L62.1088 -44.8059Z" fill="black"/>
<path d="M74.1475 -44.8059L73.1898 -45.7696L72.2321 -44.8059L73.1898 -43.8421L74.1475 -44.8059Z" fill="black"/>
<path d="M86.1861 -44.8059L85.2284 -45.7696L84.2707 -44.8059L85.2284 -43.8421L86.1861 -44.8059Z" fill="black"/>
<path d="M98.2248 -44.8059L97.2671 -45.7696L96.3094 -44.8059L97.2671 -43.8421L98.2248 -44.8059Z" fill="black"/>
<path d="M110.264 -44.8059L109.306 -45.7696L108.348 -44.8059L109.306 -43.8421L110.264 -44.8059Z" fill="black"/>
<path d="M122.302 -44.8059L121.344 -45.7696L120.387 -44.8059L121.344 -43.8421L122.302 -44.8059Z" fill="black"/>
<path d="M134.341 -44.8059L133.383 -45.7696L132.426 -44.8059L133.383 -43.8421L134.341 -44.8059Z" fill="black"/>
<path d="M146.38 -44.8059L145.422 -45.7696L144.464 -44.8059L145.422 -43.8421L146.38 -44.8059Z" fill="black"/>
<path d="M158.418 -44.8059L157.461 -45.7696L156.503 -44.8059L157.461 -43.8421L158.418 -44.8059Z" fill="black"/>
<path d="M170.457 -44.8059L169.499 -45.7696L168.542 -44.8059L169.499 -43.8421L170.457 -44.8059Z" fill="black"/>
<path d="M182.496 -44.8059L181.538 -45.7696L180.58 -44.8059L181.538 -43.8421L182.496 -44.8059Z" fill="black"/>
<path d="M194.534 -44.8059L193.577 -45.7696L192.619 -44.8059L193.577 -43.8421L194.534 -44.8059Z" fill="black"/>
<path d="M206.573 -44.8059L205.615 -45.7696L204.658 -44.8059L205.615 -43.8421L206.573 -44.8059Z" fill="black"/>
<path d="M218.612 -44.8059L217.654 -45.7696L216.696 -44.8059L217.654 -43.8421L218.612 -44.8059Z" fill="black"/>
<path d="M1.91534 -32.6907L0.957671 -33.6545L0 -32.6907L0.957671 -31.727L1.91534 -32.6907Z" fill="black"/>
<path d="M13.9541 -32.6907L12.9964 -33.6545L12.0387 -32.6907L12.9964 -31.727L13.9541 -32.6907Z" fill="black"/>
<path d="M25.9927 -32.6907L25.035 -33.6545L24.0773 -32.6907L25.035 -31.727L25.9927 -32.6907Z" fill="black"/>
<path d="M38.0314 -32.6907L37.0737 -33.6545L36.1161 -32.6907L37.0737 -31.727L38.0314 -32.6907Z" fill="black"/>
<path d="M50.0701 -32.6907L49.1125 -33.6545L48.1548 -32.6907L49.1125 -31.727L50.0701 -32.6907Z" fill="black"/>
<path d="M62.1088 -32.6907L61.1511 -33.6545L60.1934 -32.6907L61.1511 -31.727L62.1088 -32.6907Z" fill="black"/>
<path d="M74.1475 -32.6907L73.1898 -33.6545L72.2321 -32.6907L73.1898 -31.727L74.1475 -32.6907Z" fill="black"/>
<path d="M86.1861 -32.6907L85.2284 -33.6545L84.2707 -32.6907L85.2284 -31.727L86.1861 -32.6907Z" fill="black"/>
<path d="M98.2248 -32.6907L97.2671 -33.6545L96.3094 -32.6907L97.2671 -31.727L98.2248 -32.6907Z" fill="black"/>
<path d="M110.264 -32.6907L109.306 -33.6545L108.348 -32.6907L109.306 -31.727L110.264 -32.6907Z" fill="black"/>
<path d="M122.302 -32.6907L121.344 -33.6545L120.387 -32.6907L121.344 -31.727L122.302 -32.6907Z" fill="black"/>
<path d="M134.341 -32.6907L133.383 -33.6545L132.426 -32.6907L133.383 -31.727L134.341 -32.6907Z" fill="black"/>
<path d="M146.38 -32.6907L145.422 -33.6545L144.464 -32.6907L145.422 -31.727L146.38 -32.6907Z" fill="black"/>
<path d="M158.418 -32.6907L157.461 -33.6545L156.503 -32.6907L157.461 -31.727L158.418 -32.6907Z" fill="black"/>
<path d="M170.457 -32.6907L169.499 -33.6545L168.542 -32.6907L169.499 -31.727L170.457 -32.6907Z" fill="black"/>
<path d="M182.496 -32.6907L181.538 -33.6545L180.58 -32.6907L181.538 -31.727L182.496 -32.6907Z" fill="black"/>
<path d="M194.534 -32.6907L193.577 -33.6545L192.619 -32.6907L193.577 -31.727L194.534 -32.6907Z" fill="black"/>
<path d="M206.573 -32.6907L205.615 -33.6545L204.658 -32.6907L205.615 -31.727L206.573 -32.6907Z" fill="black"/>
<path d="M218.612 -32.6907L217.654 -33.6545L216.696 -32.6907L217.654 -31.727L218.612 -32.6907Z" fill="black"/>
<path d="M1.91534 -20.5757L0.957671 -21.5394L0 -20.5757L0.957671 -19.6119L1.91534 -20.5757Z" fill="black"/>
<path d="M13.9541 -20.5757L12.9964 -21.5394L12.0387 -20.5757L12.9964 -19.6119L13.9541 -20.5757Z" fill="black"/>
<path d="M25.9927 -20.5757L25.035 -21.5394L24.0773 -20.5757L25.035 -19.6119L25.9927 -20.5757Z" fill="black"/>
<path d="M38.0314 -20.5757L37.0737 -21.5394L36.1161 -20.5757L37.0737 -19.6119L38.0314 -20.5757Z" fill="black"/>
<path d="M50.0701 -20.5757L49.1125 -21.5394L48.1548 -20.5757L49.1125 -19.6119L50.0701 -20.5757Z" fill="black"/>
<path d="M62.1088 -20.5757L61.1511 -21.5394L60.1934 -20.5757L61.1511 -19.6119L62.1088 -20.5757Z" fill="black"/>
<path d="M74.1475 -20.5757L73.1898 -21.5394L72.2321 -20.5757L73.1898 -19.6119L74.1475 -20.5757Z" fill="black"/>
<path d="M86.1861 -20.5757L85.2284 -21.5394L84.2707 -20.5757L85.2284 -19.6119L86.1861 -20.5757Z" fill="black"/>
<path d="M98.2248 -20.5757L97.2671 -21.5394L96.3094 -20.5757L97.2671 -19.6119L98.2248 -20.5757Z" fill="black"/>
<path d="M110.264 -20.5757L109.306 -21.5394L108.348 -20.5757L109.306 -19.6119L110.264 -20.5757Z" fill="black"/>
<path d="M122.302 -20.5757L121.344 -21.5394L120.387 -20.5757L121.344 -19.6119L122.302 -20.5757Z" fill="black"/>
<path d="M134.341 -20.5757L133.383 -21.5394L132.426 -20.5757L133.383 -19.6119L134.341 -20.5757Z" fill="black"/>
<path d="M146.38 -20.5757L145.422 -21.5394L144.464 -20.5757L145.422 -19.6119L146.38 -20.5757Z" fill="black"/>
<path d="M158.418 -20.5757L157.461 -21.5394L156.503 -20.5757L157.461 -19.6119L158.418 -20.5757Z" fill="black"/>
<path d="M170.457 -20.5757L169.499 -21.5394L168.542 -20.5757L169.499 -19.6119L170.457 -20.5757Z" fill="black"/>
<path d="M182.496 -20.5757L181.538 -21.5394L180.58 -20.5757L181.538 -19.6119L182.496 -20.5757Z" fill="black"/>
<path d="M194.534 -20.5757L193.577 -21.5394L192.619 -20.5757L193.577 -19.6119L194.534 -20.5757Z" fill="black"/>
<path d="M206.573 -20.5757L205.615 -21.5394L204.658 -20.5757L205.615 -19.6119L206.573 -20.5757Z" fill="black"/>
<path d="M218.612 -20.5757L217.654 -21.5394L216.696 -20.5757L217.654 -19.6119L218.612 -20.5757Z" fill="black"/>
<path d="M1.91534 -8.46049L0.957671 -9.42425L0 -8.46049L0.957671 -7.49674L1.91534 -8.46049Z" fill="black"/>
<path d="M13.9541 -8.46049L12.9964 -9.42425L12.0387 -8.46049L12.9964 -7.49674L13.9541 -8.46049Z" fill="black"/>
<path d="M25.9927 -8.46049L25.035 -9.42425L24.0773 -8.46049L25.035 -7.49674L25.9927 -8.46049Z" fill="black"/>
<path d="M38.0314 -8.46049L37.0737 -9.42425L36.1161 -8.46049L37.0737 -7.49674L38.0314 -8.46049Z" fill="black"/>
<path d="M50.0701 -8.46049L49.1125 -9.42425L48.1548 -8.46049L49.1125 -7.49674L50.0701 -8.46049Z" fill="black"/>
<path d="M62.1088 -8.46049L61.1511 -9.42425L60.1934 -8.46049L61.1511 -7.49674L62.1088 -8.46049Z" fill="black"/>
<path d="M74.1475 -8.46049L73.1898 -9.42425L72.2321 -8.46049L73.1898 -7.49674L74.1475 -8.46049Z" fill="black"/>
<path d="M86.1861 -8.46049L85.2284 -9.42425L84.2707 -8.46049L85.2284 -7.49674L86.1861 -8.46049Z" fill="black"/>
<path d="M98.2248 -8.46049L97.2671 -9.42425L96.3094 -8.46049L97.2671 -7.49674L98.2248 -8.46049Z" fill="black"/>
<path d="M110.264 -8.46049L109.306 -9.42425L108.348 -8.46049L109.306 -7.49674L110.264 -8.46049Z" fill="black"/>
<path d="M122.302 -8.46049L121.344 -9.42425L120.387 -8.46049L121.344 -7.49674L122.302 -8.46049Z" fill="black"/>
<path d="M134.341 -8.46049L133.383 -9.42425L132.426 -8.46049L133.383 -7.49674L134.341 -8.46049Z" fill="black"/>
<path d="M146.38 -8.46049L145.422 -9.42425L144.464 -8.46049L145.422 -7.49674L146.38 -8.46049Z" fill="black"/>
<path d="M158.418 -8.46049L157.461 -9.42425L156.503 -8.46049L157.461 -7.49674L158.418 -8.46049Z" fill="black"/>
<path d="M170.457 -8.46049L169.499 -9.42425L168.542 -8.46049L169.499 -7.49674L170.457 -8.46049Z" fill="black"/>
<path d="M182.496 -8.46049L181.538 -9.42425L180.58 -8.46049L181.538 -7.49674L182.496 -8.46049Z" fill="black"/>
<path d="M194.534 -8.46049L193.577 -9.42425L192.619 -8.46049L193.577 -7.49674L194.534 -8.46049Z" fill="black"/>
<path d="M206.573 -8.46049L205.615 -9.42425L204.658 -8.46049L205.615 -7.49674L206.573 -8.46049Z" fill="black"/>
<path d="M218.612 -8.46049L217.654 -9.42425L216.696 -8.46049L217.654 -7.49674L218.612 -8.46049Z" fill="black"/>
<path d="M1.91534 3.65469L0.957671 2.69093L0 3.65469L0.957671 4.61844L1.91534 3.65469Z" fill="black"/>
<path d="M13.9541 3.65469L12.9964 2.69093L12.0387 3.65469L12.9964 4.61844L13.9541 3.65469Z" fill="black"/>
<path d="M25.9927 3.65469L25.035 2.69093L24.0773 3.65469L25.035 4.61844L25.9927 3.65469Z" fill="black"/>
<path d="M38.0314 3.65469L37.0737 2.69093L36.1161 3.65469L37.0737 4.61844L38.0314 3.65469Z" fill="black"/>
<path d="M50.0701 3.65469L49.1125 2.69093L48.1548 3.65469L49.1125 4.61844L50.0701 3.65469Z" fill="black"/>
<path d="M62.1088 3.65469L61.1511 2.69093L60.1934 3.65469L61.1511 4.61844L62.1088 3.65469Z" fill="black"/>
<path d="M74.1475 3.65469L73.1898 2.69093L72.2321 3.65469L73.1898 4.61844L74.1475 3.65469Z" fill="black"/>
<path d="M86.1861 3.65469L85.2284 2.69093L84.2707 3.65469L85.2284 4.61844L86.1861 3.65469Z" fill="black"/>
<path d="M98.2248 3.65469L97.2671 2.69093L96.3094 3.65469L97.2671 4.61844L98.2248 3.65469Z" fill="black"/>
<path d="M110.264 3.65469L109.306 2.69093L108.348 3.65469L109.306 4.61844L110.264 3.65469Z" fill="black"/>
<path d="M122.302 3.65469L121.344 2.69093L120.387 3.65469L121.344 4.61844L122.302 3.65469Z" fill="black"/>
<path d="M134.341 3.65469L133.383 2.69093L132.426 3.65469L133.383 4.61844L134.341 3.65469Z" fill="black"/>
<path d="M146.38 3.65469L145.422 2.69093L144.464 3.65469L145.422 4.61844L146.38 3.65469Z" fill="black"/>
<path d="M158.418 3.65469L157.461 2.69093L156.503 3.65469L157.461 4.61844L158.418 3.65469Z" fill="black"/>
<path d="M170.457 3.65469L169.499 2.69093L168.542 3.65469L169.499 4.61844L170.457 3.65469Z" fill="black"/>
<path d="M182.496 3.65469L181.538 2.69093L180.58 3.65469L181.538 4.61844L182.496 3.65469Z" fill="black"/>
<path d="M194.534 3.65469L193.577 2.69093L192.619 3.65469L193.577 4.61844L194.534 3.65469Z" fill="black"/>
<path d="M206.573 3.65469L205.615 2.69093L204.658 3.65469L205.615 4.61844L206.573 3.65469Z" fill="black"/>
<path d="M218.612 3.65469L217.654 2.69093L216.696 3.65469L217.654 4.61844L218.612 3.65469Z" fill="black"/>
<path d="M1.91534 15.7696L0.957671 14.8058L0 15.7696L0.957671 16.7333L1.91534 15.7696Z" fill="black"/>
<path d="M13.9541 15.7696L12.9964 14.8058L12.0387 15.7696L12.9964 16.7333L13.9541 15.7696Z" fill="black"/>
<path d="M25.9927 15.7696L25.035 14.8058L24.0773 15.7696L25.035 16.7333L25.9927 15.7696Z" fill="black"/>
<path d="M38.0314 15.7696L37.0737 14.8058L36.1161 15.7696L37.0737 16.7333L38.0314 15.7696Z" fill="black"/>
<path d="M50.0701 15.7696L49.1125 14.8058L48.1548 15.7696L49.1125 16.7333L50.0701 15.7696Z" fill="black"/>
<path d="M62.1088 15.7696L61.1511 14.8058L60.1934 15.7696L61.1511 16.7333L62.1088 15.7696Z" fill="black"/>
<path d="M74.1475 15.7696L73.1898 14.8058L72.2321 15.7696L73.1898 16.7333L74.1475 15.7696Z" fill="black"/>
<path d="M86.1861 15.7696L85.2284 14.8058L84.2707 15.7696L85.2284 16.7333L86.1861 15.7696Z" fill="black"/>
<path d="M98.2248 15.7696L97.2671 14.8058L96.3094 15.7696L97.2671 16.7333L98.2248 15.7696Z" fill="black"/>
<path d="M110.264 15.7696L109.306 14.8058L108.348 15.7696L109.306 16.7333L110.264 15.7696Z" fill="black"/>
<path d="M122.302 15.7696L121.344 14.8058L120.387 15.7696L121.344 16.7333L122.302 15.7696Z" fill="black"/>
<path d="M134.341 15.7696L133.383 14.8058L132.426 15.7696L133.383 16.7333L134.341 15.7696Z" fill="black"/>
<path d="M146.38 15.7696L145.422 14.8058L144.464 15.7696L145.422 16.7333L146.38 15.7696Z" fill="black"/>
<path d="M158.418 15.7696L157.461 14.8058L156.503 15.7696L157.461 16.7333L158.418 15.7696Z" fill="black"/>
<path d="M170.457 15.7696L169.499 14.8058L168.542 15.7696L169.499 16.7333L170.457 15.7696Z" fill="black"/>
<path d="M182.496 15.7696L181.538 14.8058L180.58 15.7696L181.538 16.7333L182.496 15.7696Z" fill="black"/>
<path d="M194.534 15.7696L193.577 14.8058L192.619 15.7696L193.577 16.7333L194.534 15.7696Z" fill="black"/>
<path d="M206.573 15.7696L205.615 14.8058L204.658 15.7696L205.615 16.7333L206.573 15.7696Z" fill="black"/>
<path d="M218.612 15.7696L217.654 14.8058L216.696 15.7696L217.654 16.7333L218.612 15.7696Z" fill="black"/>
<path d="M1.91534 27.8849L0.957671 26.9212L0 27.8849L0.957671 28.8487L1.91534 27.8849Z" fill="black"/>
<path d="M13.9541 27.8849L12.9964 26.9212L12.0387 27.8849L12.9964 28.8487L13.9541 27.8849Z" fill="black"/>
<path d="M25.9927 27.8849L25.035 26.9212L24.0773 27.8849L25.035 28.8487L25.9927 27.8849Z" fill="black"/>
<path d="M38.0314 27.8849L37.0737 26.9212L36.1161 27.8849L37.0737 28.8487L38.0314 27.8849Z" fill="black"/>
<path d="M50.0701 27.8849L49.1125 26.9212L48.1548 27.8849L49.1125 28.8487L50.0701 27.8849Z" fill="black"/>
<path d="M62.1088 27.8849L61.1511 26.9212L60.1934 27.8849L61.1511 28.8487L62.1088 27.8849Z" fill="black"/>
<path d="M74.1475 27.8849L73.1898 26.9212L72.2321 27.8849L73.1898 28.8487L74.1475 27.8849Z" fill="black"/>
<path d="M86.1861 27.8849L85.2284 26.9212L84.2707 27.8849L85.2284 28.8487L86.1861 27.8849Z" fill="black"/>
<path d="M98.2248 27.8849L97.2671 26.9212L96.3094 27.8849L97.2671 28.8487L98.2248 27.8849Z" fill="black"/>
<path d="M110.264 27.8849L109.306 26.9212L108.348 27.8849L109.306 28.8487L110.264 27.8849Z" fill="black"/>
<path d="M122.302 27.8849L121.344 26.9212L120.387 27.8849L121.344 28.8487L122.302 27.8849Z" fill="black"/>
<path d="M134.341 27.8849L133.383 26.9212L132.426 27.8849L133.383 28.8487L134.341 27.8849Z" fill="black"/>
<path d="M146.38 27.8849L145.422 26.9212L144.464 27.8849L145.422 28.8487L146.38 27.8849Z" fill="black"/>
<path d="M158.418 27.8849L157.461 26.9212L156.503 27.8849L157.461 28.8487L158.418 27.8849Z" fill="black"/>
<path d="M170.457 27.8849L169.499 26.9212L168.542 27.8849L169.499 28.8487L170.457 27.8849Z" fill="black"/>
<path d="M182.496 27.8849L181.538 26.9212L180.58 27.8849L181.538 28.8487L182.496 27.8849Z" fill="black"/>
<path d="M194.534 27.8849L193.577 26.9212L192.619 27.8849L193.577 28.8487L194.534 27.8849Z" fill="black"/>
<path d="M206.573 27.8849L205.615 26.9212L204.658 27.8849L205.615 28.8487L206.573 27.8849Z" fill="black"/>
<path d="M218.612 27.8849L217.654 26.9212L216.696 27.8849L217.654 28.8487L218.612 27.8849Z" fill="black"/>
<path d="M1.91534 40.0001L0.957671 39.0363L0 40.0001L0.957671 40.9638L1.91534 40.0001Z" fill="black"/>
<path d="M13.9541 40.0001L12.9964 39.0363L12.0387 40.0001L12.9964 40.9638L13.9541 40.0001Z" fill="black"/>
<path d="M25.9927 40.0001L25.035 39.0363L24.0773 40.0001L25.035 40.9638L25.9927 40.0001Z" fill="black"/>
<path d="M38.0314 40.0001L37.0737 39.0363L36.1161 40.0001L37.0737 40.9638L38.0314 40.0001Z" fill="black"/>
<path d="M50.0701 40.0001L49.1125 39.0363L48.1548 40.0001L49.1125 40.9638L50.0701 40.0001Z" fill="black"/>
<path d="M62.1088 40.0001L61.1511 39.0363L60.1934 40.0001L61.1511 40.9638L62.1088 40.0001Z" fill="black"/>
<path d="M74.1475 40.0001L73.1898 39.0363L72.2321 40.0001L73.1898 40.9638L74.1475 40.0001Z" fill="black"/>
<path d="M86.1861 40.0001L85.2284 39.0363L84.2707 40.0001L85.2284 40.9638L86.1861 40.0001Z" fill="black"/>
<path d="M98.2248 40.0001L97.2671 39.0363L96.3094 40.0001L97.2671 40.9638L98.2248 40.0001Z" fill="black"/>
<path d="M110.264 40.0001L109.306 39.0363L108.348 40.0001L109.306 40.9638L110.264 40.0001Z" fill="black"/>
<path d="M122.302 40.0001L121.344 39.0363L120.387 40.0001L121.344 40.9638L122.302 40.0001Z" fill="black"/>
<path d="M134.341 40.0001L133.383 39.0363L132.426 40.0001L133.383 40.9638L134.341 40.0001Z" fill="black"/>
<path d="M146.38 40.0001L145.422 39.0363L144.464 40.0001L145.422 40.9638L146.38 40.0001Z" fill="black"/>
<path d="M158.418 40.0001L157.461 39.0363L156.503 40.0001L157.461 40.9638L158.418 40.0001Z" fill="black"/>
<path d="M170.457 40.0001L169.499 39.0363L168.542 40.0001L169.499 40.9638L170.457 40.0001Z" fill="black"/>
<path d="M182.496 40.0001L181.538 39.0363L180.58 40.0001L181.538 40.9638L182.496 40.0001Z" fill="black"/>
<path d="M194.534 40.0001L193.577 39.0363L192.619 40.0001L193.577 40.9638L194.534 40.0001Z" fill="black"/>
<path d="M206.573 40.0001L205.615 39.0363L204.658 40.0001L205.615 40.9638L206.573 40.0001Z" fill="black"/>
<path d="M218.612 40.0001L217.654 39.0363L216.696 40.0001L217.654 40.9638L218.612 40.0001Z" fill="black"/>
<path d="M1.91534 52.1151L0.957671 51.1514L0 52.1151L0.957671 53.0789L1.91534 52.1151Z" fill="black"/>
<path d="M13.9541 52.1151L12.9964 51.1514L12.0387 52.1151L12.9964 53.0789L13.9541 52.1151Z" fill="black"/>
<path d="M25.9927 52.1151L25.035 51.1514L24.0773 52.1151L25.035 53.0789L25.9927 52.1151Z" fill="black"/>
<path d="M38.0314 52.1151L37.0737 51.1514L36.1161 52.1151L37.0737 53.0789L38.0314 52.1151Z" fill="black"/>
<path d="M50.0701 52.1151L49.1125 51.1514L48.1548 52.1151L49.1125 53.0789L50.0701 52.1151Z" fill="black"/>
<path d="M62.1088 52.1151L61.1511 51.1514L60.1934 52.1151L61.1511 53.0789L62.1088 52.1151Z" fill="black"/>
<path d="M74.1475 52.1151L73.1898 51.1514L72.2321 52.1151L73.1898 53.0789L74.1475 52.1151Z" fill="black"/>
<path d="M86.1861 52.1151L85.2284 51.1514L84.2707 52.1151L85.2284 53.0789L86.1861 52.1151Z" fill="black"/>
<path d="M98.2248 52.1151L97.2671 51.1514L96.3094 52.1151L97.2671 53.0789L98.2248 52.1151Z" fill="black"/>
<path d="M110.264 52.1151L109.306 51.1514L108.348 52.1151L109.306 53.0789L110.264 52.1151Z" fill="black"/>
<path d="M122.302 52.1151L121.344 51.1514L120.387 52.1151L121.344 53.0789L122.302 52.1151Z" fill="black"/>
<path d="M134.341 52.1151L133.383 51.1514L132.426 52.1151L133.383 53.0789L134.341 52.1151Z" fill="black"/>
<path d="M146.38 52.1151L145.422 51.1514L144.464 52.1151L145.422 53.0789L146.38 52.1151Z" fill="black"/>
<path d="M158.418 52.1151L157.461 51.1514L156.503 52.1151L157.461 53.0789L158.418 52.1151Z" fill="black"/>
<path d="M170.457 52.1151L169.499 51.1514L168.542 52.1151L169.499 53.0789L170.457 52.1151Z" fill="black"/>
<path d="M182.496 52.1151L181.538 51.1514L180.58 52.1151L181.538 53.0789L182.496 52.1151Z" fill="black"/>
<path d="M194.534 52.1151L193.577 51.1514L192.619 52.1151L193.577 53.0789L194.534 52.1151Z" fill="black"/>
<path d="M206.573 52.1151L205.615 51.1514L204.658 52.1151L205.615 53.0789L206.573 52.1151Z" fill="black"/>
<path d="M218.612 52.1151L217.654 51.1514L216.696 52.1151L217.654 53.0789L218.612 52.1151Z" fill="black"/>
<path d="M1.91534 64.2301L0.957671 63.2664L0 64.2301L0.957671 65.1939L1.91534 64.2301Z" fill="black"/>
<path d="M13.9541 64.2301L12.9964 63.2664L12.0387 64.2301L12.9964 65.1939L13.9541 64.2301Z" fill="black"/>
<path d="M25.9927 64.2301L25.035 63.2664L24.0773 64.2301L25.035 65.1939L25.9927 64.2301Z" fill="black"/>
<path d="M38.0314 64.2301L37.0737 63.2664L36.1161 64.2301L37.0737 65.1939L38.0314 64.2301Z" fill="black"/>
<path d="M50.0701 64.2301L49.1125 63.2664L48.1548 64.2301L49.1125 65.1939L50.0701 64.2301Z" fill="black"/>
<path d="M62.1088 64.2301L61.1511 63.2664L60.1934 64.2301L61.1511 65.1939L62.1088 64.2301Z" fill="black"/>
<path d="M74.1475 64.2301L73.1898 63.2664L72.2321 64.2301L73.1898 65.1939L74.1475 64.2301Z" fill="black"/>
<path d="M86.1861 64.2301L85.2284 63.2664L84.2707 64.2301L85.2284 65.1939L86.1861 64.2301Z" fill="black"/>
<path d="M98.2248 64.2301L97.2671 63.2664L96.3094 64.2301L97.2671 65.1939L98.2248 64.2301Z" fill="black"/>
<path d="M110.264 64.2301L109.306 63.2664L108.348 64.2301L109.306 65.1939L110.264 64.2301Z" fill="black"/>
<path d="M122.302 64.2301L121.344 63.2664L120.387 64.2301L121.344 65.1939L122.302 64.2301Z" fill="black"/>
<path d="M134.341 64.2301L133.383 63.2664L132.426 64.2301L133.383 65.1939L134.341 64.2301Z" fill="black"/>
<path d="M146.38 64.2301L145.422 63.2664L144.464 64.2301L145.422 65.1939L146.38 64.2301Z" fill="black"/>
<path d="M158.418 64.2301L157.461 63.2664L156.503 64.2301L157.461 65.1939L158.418 64.2301Z" fill="black"/>
<path d="M170.457 64.2301L169.499 63.2664L168.542 64.2301L169.499 65.1939L170.457 64.2301Z" fill="black"/>
<path d="M182.496 64.2301L181.538 63.2664L180.58 64.2301L181.538 65.1939L182.496 64.2301Z" fill="black"/>
<path d="M194.534 64.2301L193.577 63.2664L192.619 64.2301L193.577 65.1939L194.534 64.2301Z" fill="black"/>
<path d="M206.573 64.2301L205.615 63.2664L204.658 64.2301L205.615 65.1939L206.573 64.2301Z" fill="black"/>
<path d="M218.612 64.2301L217.654 63.2664L216.696 64.2301L217.654 65.1939L218.612 64.2301Z" fill="black"/>
<path d="M1.91534 76.3455L0.957671 75.3817L0 76.3455L0.957671 77.3092L1.91534 76.3455Z" fill="black"/>
<path d="M13.9541 76.3455L12.9964 75.3817L12.0387 76.3455L12.9964 77.3092L13.9541 76.3455Z" fill="black"/>
<path d="M25.9927 76.3455L25.035 75.3817L24.0773 76.3455L25.035 77.3092L25.9927 76.3455Z" fill="black"/>
<path d="M38.0314 76.3455L37.0737 75.3817L36.1161 76.3455L37.0737 77.3092L38.0314 76.3455Z" fill="black"/>
<path d="M50.0701 76.3455L49.1125 75.3817L48.1548 76.3455L49.1125 77.3092L50.0701 76.3455Z" fill="black"/>
<path d="M62.1088 76.3455L61.1511 75.3817L60.1934 76.3455L61.1511 77.3092L62.1088 76.3455Z" fill="black"/>
<path d="M74.1475 76.3455L73.1898 75.3817L72.2321 76.3455L73.1898 77.3092L74.1475 76.3455Z" fill="black"/>
<path d="M86.1861 76.3455L85.2284 75.3817L84.2707 76.3455L85.2284 77.3092L86.1861 76.3455Z" fill="black"/>
<path d="M98.2248 76.3455L97.2671 75.3817L96.3094 76.3455L97.2671 77.3092L98.2248 76.3455Z" fill="black"/>
<path d="M110.264 76.3455L109.306 75.3817L108.348 76.3455L109.306 77.3092L110.264 76.3455Z" fill="black"/>
<path d="M122.302 76.3455L121.344 75.3817L120.387 76.3455L121.344 77.3092L122.302 76.3455Z" fill="black"/>
<path d="M134.341 76.3455L133.383 75.3817L132.426 76.3455L133.383 77.3092L134.341 76.3455Z" fill="black"/>
<path d="M146.38 76.3455L145.422 75.3817L144.464 76.3455L145.422 77.3092L146.38 76.3455Z" fill="black"/>
<path d="M158.418 76.3455L157.461 75.3817L156.503 76.3455L157.461 77.3092L158.418 76.3455Z" fill="black"/>
<path d="M170.457 76.3455L169.499 75.3817L168.542 76.3455L169.499 77.3092L170.457 76.3455Z" fill="black"/>
<path d="M182.496 76.3455L181.538 75.3817L180.58 76.3455L181.538 77.3092L182.496 76.3455Z" fill="black"/>
<path d="M194.534 76.3455L193.577 75.3817L192.619 76.3455L193.577 77.3092L194.534 76.3455Z" fill="black"/>
<path d="M206.573 76.3455L205.615 75.3817L204.658 76.3455L205.615 77.3092L206.573 76.3455Z" fill="black"/>
<path d="M218.612 76.3455L217.654 75.3817L216.696 76.3455L217.654 77.3092L218.612 76.3455Z" fill="black"/>
<path d="M1.91534 88.4605L0.957671 87.4967L0 88.4605L0.957671 89.4243L1.91534 88.4605Z" fill="black"/>
<path d="M13.9541 88.4605L12.9964 87.4967L12.0387 88.4605L12.9964 89.4243L13.9541 88.4605Z" fill="black"/>
<path d="M25.9927 88.4605L25.035 87.4967L24.0773 88.4605L25.035 89.4243L25.9927 88.4605Z" fill="black"/>
<path d="M38.0314 88.4605L37.0737 87.4967L36.1161 88.4605L37.0737 89.4243L38.0314 88.4605Z" fill="black"/>
<path d="M50.0701 88.4605L49.1125 87.4967L48.1548 88.4605L49.1125 89.4243L50.0701 88.4605Z" fill="black"/>
<path d="M62.1088 88.4605L61.1511 87.4967L60.1934 88.4605L61.1511 89.4243L62.1088 88.4605Z" fill="black"/>
<path d="M74.1475 88.4605L73.1898 87.4967L72.2321 88.4605L73.1898 89.4243L74.1475 88.4605Z" fill="black"/>
<path d="M86.1861 88.4605L85.2284 87.4967L84.2707 88.4605L85.2284 89.4243L86.1861 88.4605Z" fill="black"/>
<path d="M98.2248 88.4605L97.2671 87.4967L96.3094 88.4605L97.2671 89.4243L98.2248 88.4605Z" fill="black"/>
<path d="M110.264 88.4605L109.306 87.4967L108.348 88.4605L109.306 89.4243L110.264 88.4605Z" fill="black"/>
<path d="M122.302 88.4605L121.344 87.4967L120.387 88.4605L121.344 89.4243L122.302 88.4605Z" fill="black"/>
<path d="M134.341 88.4605L133.383 87.4967L132.426 88.4605L133.383 89.4243L134.341 88.4605Z" fill="black"/>
<path d="M146.38 88.4605L145.422 87.4967L144.464 88.4605L145.422 89.4243L146.38 88.4605Z" fill="black"/>
<path d="M158.418 88.4605L157.461 87.4967L156.503 88.4605L157.461 89.4243L158.418 88.4605Z" fill="black"/>
<path d="M170.457 88.4605L169.499 87.4967L168.542 88.4605L169.499 89.4243L170.457 88.4605Z" fill="black"/>
<path d="M182.496 88.4605L181.538 87.4967L180.58 88.4605L181.538 89.4243L182.496 88.4605Z" fill="black"/>
<path d="M194.534 88.4605L193.577 87.4967L192.619 88.4605L193.577 89.4243L194.534 88.4605Z" fill="black"/>
<path d="M206.573 88.4605L205.615 87.4967L204.658 88.4605L205.615 89.4243L206.573 88.4605Z" fill="black"/>
<path d="M218.612 88.4605L217.654 87.4967L216.696 88.4605L217.654 89.4243L218.612 88.4605Z" fill="black"/>
<path d="M1.91534 100.576L0.957671 99.6118L0 100.576L0.957671 101.539L1.91534 100.576Z" fill="black"/>
<path d="M13.9541 100.576L12.9964 99.6118L12.0387 100.576L12.9964 101.539L13.9541 100.576Z" fill="black"/>
<path d="M25.9927 100.576L25.035 99.6118L24.0773 100.576L25.035 101.539L25.9927 100.576Z" fill="black"/>
<path d="M38.0314 100.576L37.0737 99.6118L36.1161 100.576L37.0737 101.539L38.0314 100.576Z" fill="black"/>
<path d="M50.0701 100.576L49.1125 99.6118L48.1548 100.576L49.1125 101.539L50.0701 100.576Z" fill="black"/>
<path d="M62.1088 100.576L61.1511 99.6118L60.1934 100.576L61.1511 101.539L62.1088 100.576Z" fill="black"/>
<path d="M74.1475 100.576L73.1898 99.6118L72.2321 100.576L73.1898 101.539L74.1475 100.576Z" fill="black"/>
<path d="M86.1861 100.576L85.2284 99.6118L84.2707 100.576L85.2284 101.539L86.1861 100.576Z" fill="black"/>
<path d="M98.2248 100.576L97.2671 99.6118L96.3094 100.576L97.2671 101.539L98.2248 100.576Z" fill="black"/>
<path d="M110.264 100.576L109.306 99.6118L108.348 100.576L109.306 101.539L110.264 100.576Z" fill="black"/>
<path d="M122.302 100.576L121.344 99.6118L120.387 100.576L121.344 101.539L122.302 100.576Z" fill="black"/>
<path d="M134.341 100.576L133.383 99.6118L132.426 100.576L133.383 101.539L134.341 100.576Z" fill="black"/>
<path d="M146.38 100.576L145.422 99.6118L144.464 100.576L145.422 101.539L146.38 100.576Z" fill="black"/>
<path d="M158.418 100.576L157.461 99.6118L156.503 100.576L157.461 101.539L158.418 100.576Z" fill="black"/>
<path d="M170.457 100.576L169.499 99.6118L168.542 100.576L169.499 101.539L170.457 100.576Z" fill="black"/>
<path d="M182.496 100.576L181.538 99.6118L180.58 100.576L181.538 101.539L182.496 100.576Z" fill="black"/>
<path d="M194.534 100.576L193.577 99.6118L192.619 100.576L193.577 101.539L194.534 100.576Z" fill="black"/>
<path d="M206.573 100.576L205.615 99.6118L204.658 100.576L205.615 101.539L206.573 100.576Z" fill="black"/>
<path d="M218.612 100.576L217.654 99.6118L216.696 100.576L217.654 101.539L218.612 100.576Z" fill="black"/>
<path d="M1.91534 112.691L0.957671 111.727L0 112.691L0.957671 113.655L1.91534 112.691Z" fill="black"/>
<path d="M13.9541 112.691L12.9964 111.727L12.0387 112.691L12.9964 113.655L13.9541 112.691Z" fill="black"/>
<path d="M25.9927 112.691L25.035 111.727L24.0773 112.691L25.035 113.655L25.9927 112.691Z" fill="black"/>
<path d="M38.0314 112.691L37.0737 111.727L36.1161 112.691L37.0737 113.655L38.0314 112.691Z" fill="black"/>
<path d="M50.0701 112.691L49.1125 111.727L48.1548 112.691L49.1125 113.655L50.0701 112.691Z" fill="black"/>
<path d="M62.1088 112.691L61.1511 111.727L60.1934 112.691L61.1511 113.655L62.1088 112.691Z" fill="black"/>
<path d="M74.1475 112.691L73.1898 111.727L72.2321 112.691L73.1898 113.655L74.1475 112.691Z" fill="black"/>
<path d="M86.1861 112.691L85.2284 111.727L84.2707 112.691L85.2284 113.655L86.1861 112.691Z" fill="black"/>
<path d="M98.2248 112.691L97.2671 111.727L96.3094 112.691L97.2671 113.655L98.2248 112.691Z" fill="black"/>
<path d="M110.264 112.691L109.306 111.727L108.348 112.691L109.306 113.655L110.264 112.691Z" fill="black"/>
<path d="M122.302 112.691L121.344 111.727L120.387 112.691L121.344 113.655L122.302 112.691Z" fill="black"/>
<path d="M134.341 112.691L133.383 111.727L132.426 112.691L133.383 113.655L134.341 112.691Z" fill="black"/>
<path d="M146.38 112.691L145.422 111.727L144.464 112.691L145.422 113.655L146.38 112.691Z" fill="black"/>
<path d="M158.418 112.691L157.461 111.727L156.503 112.691L157.461 113.655L158.418 112.691Z" fill="black"/>
<path d="M170.457 112.691L169.499 111.727L168.542 112.691L169.499 113.655L170.457 112.691Z" fill="black"/>
<path d="M182.496 112.691L181.538 111.727L180.58 112.691L181.538 113.655L182.496 112.691Z" fill="black"/>
<path d="M194.534 112.691L193.577 111.727L192.619 112.691L193.577 113.655L194.534 112.691Z" fill="black"/>
<path d="M206.573 112.691L205.615 111.727L204.658 112.691L205.615 113.655L206.573 112.691Z" fill="black"/>
<path d="M218.612 112.691L217.654 111.727L216.696 112.691L217.654 113.655L218.612 112.691Z" fill="black"/>
<path d="M1.91534 124.806L0.957671 123.842L0 124.806L0.957671 125.77L1.91534 124.806Z" fill="black"/>
<path d="M13.9541 124.806L12.9964 123.842L12.0387 124.806L12.9964 125.77L13.9541 124.806Z" fill="black"/>
<path d="M25.9927 124.806L25.035 123.842L24.0773 124.806L25.035 125.77L25.9927 124.806Z" fill="black"/>
<path d="M38.0314 124.806L37.0737 123.842L36.1161 124.806L37.0737 125.77L38.0314 124.806Z" fill="black"/>
<path d="M50.0701 124.806L49.1125 123.842L48.1548 124.806L49.1125 125.77L50.0701 124.806Z" fill="black"/>
<path d="M62.1088 124.806L61.1511 123.842L60.1934 124.806L61.1511 125.77L62.1088 124.806Z" fill="black"/>
<path d="M74.1475 124.806L73.1898 123.842L72.2321 124.806L73.1898 125.77L74.1475 124.806Z" fill="black"/>
<path d="M86.1861 124.806L85.2284 123.842L84.2707 124.806L85.2284 125.77L86.1861 124.806Z" fill="black"/>
<path d="M98.2248 124.806L97.2671 123.842L96.3094 124.806L97.2671 125.77L98.2248 124.806Z" fill="black"/>
<path d="M110.264 124.806L109.306 123.842L108.348 124.806L109.306 125.77L110.264 124.806Z" fill="black"/>
<path d="M122.302 124.806L121.344 123.842L120.387 124.806L121.344 125.77L122.302 124.806Z" fill="black"/>
<path d="M134.341 124.806L133.383 123.842L132.426 124.806L133.383 125.77L134.341 124.806Z" fill="black"/>
<path d="M146.38 124.806L145.422 123.842L144.464 124.806L145.422 125.77L146.38 124.806Z" fill="black"/>
<path d="M158.418 124.806L157.461 123.842L156.503 124.806L157.461 125.77L158.418 124.806Z" fill="black"/>
<path d="M170.457 124.806L169.499 123.842L168.542 124.806L169.499 125.77L170.457 124.806Z" fill="black"/>
<path d="M182.496 124.806L181.538 123.842L180.58 124.806L181.538 125.77L182.496 124.806Z" fill="black"/>
<path d="M194.534 124.806L193.577 123.842L192.619 124.806L193.577 125.77L194.534 124.806Z" fill="black"/>
<path d="M206.573 124.806L205.615 123.842L204.658 124.806L205.615 125.77L206.573 124.806Z" fill="black"/>
<path d="M218.612 124.806L217.654 123.842L216.696 124.806L217.654 125.77L218.612 124.806Z" fill="black"/>
<path d="M1.91534 136.921L0.957671 135.957L0 136.921L0.957671 137.885L1.91534 136.921Z" fill="black"/>
<path d="M13.9541 136.921L12.9964 135.957L12.0387 136.921L12.9964 137.885L13.9541 136.921Z" fill="black"/>
<path d="M25.9927 136.921L25.035 135.957L24.0773 136.921L25.035 137.885L25.9927 136.921Z" fill="black"/>
<path d="M38.0314 136.921L37.0737 135.957L36.1161 136.921L37.0737 137.885L38.0314 136.921Z" fill="black"/>
<path d="M50.0701 136.921L49.1125 135.957L48.1548 136.921L49.1125 137.885L50.0701 136.921Z" fill="black"/>
<path d="M62.1088 136.921L61.1511 135.957L60.1934 136.921L61.1511 137.885L62.1088 136.921Z" fill="black"/>
<path d="M74.1475 136.921L73.1898 135.957L72.2321 136.921L73.1898 137.885L74.1475 136.921Z" fill="black"/>
<path d="M86.1861 136.921L85.2284 135.957L84.2707 136.921L85.2284 137.885L86.1861 136.921Z" fill="black"/>
<path d="M98.2248 136.921L97.2671 135.957L96.3094 136.921L97.2671 137.885L98.2248 136.921Z" fill="black"/>
<path d="M110.264 136.921L109.306 135.957L108.348 136.921L109.306 137.885L110.264 136.921Z" fill="black"/>
<path d="M122.302 136.921L121.344 135.957L120.387 136.921L121.344 137.885L122.302 136.921Z" fill="black"/>
<path d="M134.341 136.921L133.383 135.957L132.426 136.921L133.383 137.885L134.341 136.921Z" fill="black"/>
<path d="M146.38 136.921L145.422 135.957L144.464 136.921L145.422 137.885L146.38 136.921Z" fill="black"/>
<path d="M158.418 136.921L157.461 135.957L156.503 136.921L157.461 137.885L158.418 136.921Z" fill="black"/>
<path d="M170.457 136.921L169.499 135.957L168.542 136.921L169.499 137.885L170.457 136.921Z" fill="black"/>
<path d="M182.496 136.921L181.538 135.957L180.58 136.921L181.538 137.885L182.496 136.921Z" fill="black"/>
<path d="M194.534 136.921L193.577 135.957L192.619 136.921L193.577 137.885L194.534 136.921Z" fill="black"/>
<path d="M206.573 136.921L205.615 135.957L204.658 136.921L205.615 137.885L206.573 136.921Z" fill="black"/>
<path d="M218.612 136.921L217.654 135.957L216.696 136.921L217.654 137.885L218.612 136.921Z" fill="black"/>
<path d="M1.91534 149.036L0.957671 148.072L0 149.036L0.957671 150L1.91534 149.036Z" fill="black"/>
<path d="M13.9541 149.036L12.9964 148.072L12.0387 149.036L12.9964 150L13.9541 149.036Z" fill="black"/>
<path d="M25.9927 149.036L25.035 148.072L24.0773 149.036L25.035 150L25.9927 149.036Z" fill="black"/>
<path d="M38.0314 149.036L37.0737 148.072L36.1161 149.036L37.0737 150L38.0314 149.036Z" fill="black"/>
<path d="M50.0701 149.036L49.1125 148.072L48.1548 149.036L49.1125 150L50.0701 149.036Z" fill="black"/>
<path d="M62.1088 149.036L61.1511 148.072L60.1934 149.036L61.1511 150L62.1088 149.036Z" fill="black"/>
<path d="M74.1475 149.036L73.1898 148.072L72.2321 149.036L73.1898 150L74.1475 149.036Z" fill="black"/>
<path d="M86.1861 149.036L85.2284 148.072L84.2707 149.036L85.2284 150L86.1861 149.036Z" fill="black"/>
<path d="M98.2248 149.036L97.2671 148.072L96.3094 149.036L97.2671 150L98.2248 149.036Z" fill="black"/>
<path d="M110.264 149.036L109.306 148.072L108.348 149.036L109.306 150L110.264 149.036Z" fill="black"/>
<path d="M122.302 149.036L121.344 148.072L120.387 149.036L121.344 150L122.302 149.036Z" fill="black"/>
<path d="M134.341 149.036L133.383 148.072L132.426 149.036L133.383 150L134.341 149.036Z" fill="black"/>
<path d="M146.38 149.036L145.422 148.072L144.464 149.036L145.422 150L146.38 149.036Z" fill="black"/>
<path d="M158.418 149.036L157.461 148.072L156.503 149.036L157.461 150L158.418 149.036Z" fill="black"/>
<path d="M170.457 149.036L169.499 148.072L168.542 149.036L169.499 150L170.457 149.036Z" fill="black"/>
<path d="M182.496 149.036L181.538 148.072L180.58 149.036L181.538 150L182.496 149.036Z" fill="black"/>
<path d="M194.534 149.036L193.577 148.072L192.619 149.036L193.577 150L194.534 149.036Z" fill="black"/>
<path d="M206.573 149.036L205.615 148.072L204.658 149.036L205.615 150L206.573 149.036Z" fill="black"/>
<path d="M218.612 149.036L217.654 148.072L216.696 149.036L217.654 150L218.612 149.036Z" fill="black"/>
<path d="M122.304 -69.0362L121.346 -70L120.388 -69.0362L121.346 -68.0725L122.304 -69.0362Z" fill="black"/>
<path d="M134.342 -69.0362L133.385 -70L132.427 -69.0362L133.385 -68.0725L134.342 -69.0362Z" fill="black"/>
<path d="M146.381 -69.0362L145.423 -70L144.466 -69.0362L145.423 -68.0725L146.381 -69.0362Z" fill="black"/>
<path d="M158.42 -69.0362L157.462 -70L156.504 -69.0362L157.462 -68.0725L158.42 -69.0362Z" fill="black"/>
<path d="M170.459 -69.0362L169.501 -70L168.543 -69.0362L169.501 -68.0725L170.459 -69.0362Z" fill="black"/>
<path d="M182.497 -69.0362L181.54 -70L180.582 -69.0362L181.54 -68.0725L182.497 -69.0362Z" fill="black"/>
<path d="M194.536 -69.0362L193.578 -70L192.621 -69.0362L193.578 -68.0725L194.536 -69.0362Z" fill="black"/>
<path d="M206.574 -69.0362L205.617 -70L204.659 -69.0362L205.617 -68.0725L206.574 -69.0362Z" fill="black"/>
<path d="M218.613 -69.0362L217.656 -70L216.698 -69.0362L217.656 -68.0725L218.613 -69.0362Z" fill="black"/>
<path d="M230.652 -69.0362L229.694 -70L228.737 -69.0362L229.694 -68.0725L230.652 -69.0362Z" fill="black"/>
<path d="M242.691 -69.0362L241.733 -70L240.775 -69.0362L241.733 -68.0725L242.691 -69.0362Z" fill="black"/>
<path d="M254.729 -69.0362L253.772 -70L252.814 -69.0362L253.772 -68.0725L254.729 -69.0362Z" fill="black"/>
<path d="M266.768 -69.0362L265.81 -70L264.853 -69.0362L265.81 -68.0725L266.768 -69.0362Z" fill="black"/>
<path d="M278.807 -69.0362L277.849 -70L276.891 -69.0362L277.849 -68.0725L278.807 -69.0362Z" fill="black"/>
<path d="M290.845 -69.0362L289.888 -70L288.93 -69.0362L289.888 -68.0725L290.845 -69.0362Z" fill="black"/>
<path d="M302.884 -69.0362L301.926 -70L300.969 -69.0362L301.926 -68.0725L302.884 -69.0362Z" fill="black"/>
<path d="M314.923 -69.0362L313.965 -70L313.007 -69.0362L313.965 -68.0725L314.923 -69.0362Z" fill="black"/>
<path d="M326.961 -69.0362L326.004 -70L325.046 -69.0362L326.004 -68.0725L326.961 -69.0362Z" fill="black"/>
<path d="M339 -69.0362L338.042 -70L337.085 -69.0362L338.042 -68.0725L339 -69.0362Z" fill="black"/>
<path d="M122.304 -56.9211L121.346 -57.8848L120.388 -56.9211L121.346 -55.9573L122.304 -56.9211Z" fill="black"/>
<path d="M134.342 -56.9211L133.385 -57.8848L132.427 -56.9211L133.385 -55.9573L134.342 -56.9211Z" fill="black"/>
<path d="M146.381 -56.9211L145.423 -57.8848L144.466 -56.9211L145.423 -55.9573L146.381 -56.9211Z" fill="black"/>
<path d="M158.42 -56.9211L157.462 -57.8848L156.504 -56.9211L157.462 -55.9573L158.42 -56.9211Z" fill="black"/>
<path d="M170.459 -56.9211L169.501 -57.8848L168.543 -56.9211L169.501 -55.9573L170.459 -56.9211Z" fill="black"/>
<path d="M182.497 -56.9211L181.54 -57.8848L180.582 -56.9211L181.54 -55.9573L182.497 -56.9211Z" fill="black"/>
<path d="M194.536 -56.9211L193.578 -57.8848L192.621 -56.9211L193.578 -55.9573L194.536 -56.9211Z" fill="black"/>
<path d="M206.574 -56.9211L205.617 -57.8848L204.659 -56.9211L205.617 -55.9573L206.574 -56.9211Z" fill="black"/>
<path d="M218.613 -56.9211L217.656 -57.8848L216.698 -56.9211L217.656 -55.9573L218.613 -56.9211Z" fill="black"/>
<path d="M230.652 -56.9211L229.694 -57.8848L228.737 -56.9211L229.694 -55.9573L230.652 -56.9211Z" fill="black"/>
<path d="M242.691 -56.9211L241.733 -57.8848L240.775 -56.9211L241.733 -55.9573L242.691 -56.9211Z" fill="black"/>
<path d="M254.729 -56.9211L253.772 -57.8848L252.814 -56.9211L253.772 -55.9573L254.729 -56.9211Z" fill="black"/>
<path d="M266.768 -56.9211L265.81 -57.8848L264.853 -56.9211L265.81 -55.9573L266.768 -56.9211Z" fill="black"/>
<path d="M278.807 -56.9211L277.849 -57.8848L276.891 -56.9211L277.849 -55.9573L278.807 -56.9211Z" fill="black"/>
<path d="M290.845 -56.9211L289.888 -57.8848L288.93 -56.9211L289.888 -55.9573L290.845 -56.9211Z" fill="black"/>
<path d="M302.884 -56.9211L301.926 -57.8848L300.969 -56.9211L301.926 -55.9573L302.884 -56.9211Z" fill="black"/>
<path d="M314.923 -56.9211L313.965 -57.8848L313.007 -56.9211L313.965 -55.9573L314.923 -56.9211Z" fill="black"/>
<path d="M326.961 -56.9211L326.004 -57.8848L325.046 -56.9211L326.004 -55.9573L326.961 -56.9211Z" fill="black"/>
<path d="M339 -56.9211L338.042 -57.8848L337.085 -56.9211L338.042 -55.9573L339 -56.9211Z" fill="black"/>
<path d="M122.304 -44.8059L121.346 -45.7696L120.388 -44.8059L121.346 -43.8421L122.304 -44.8059Z" fill="black"/>
<path d="M134.342 -44.8059L133.385 -45.7696L132.427 -44.8059L133.385 -43.8421L134.342 -44.8059Z" fill="black"/>
<path d="M146.381 -44.8059L145.423 -45.7696L144.466 -44.8059L145.423 -43.8421L146.381 -44.8059Z" fill="black"/>
<path d="M158.42 -44.8059L157.462 -45.7696L156.504 -44.8059L157.462 -43.8421L158.42 -44.8059Z" fill="black"/>
<path d="M170.459 -44.8059L169.501 -45.7696L168.543 -44.8059L169.501 -43.8421L170.459 -44.8059Z" fill="black"/>
<path d="M182.497 -44.8059L181.54 -45.7696L180.582 -44.8059L181.54 -43.8421L182.497 -44.8059Z" fill="black"/>
<path d="M194.536 -44.8059L193.578 -45.7696L192.621 -44.8059L193.578 -43.8421L194.536 -44.8059Z" fill="black"/>
<path d="M206.574 -44.8059L205.617 -45.7696L204.659 -44.8059L205.617 -43.8421L206.574 -44.8059Z" fill="black"/>
<path d="M218.613 -44.8059L217.656 -45.7696L216.698 -44.8059L217.656 -43.8421L218.613 -44.8059Z" fill="black"/>
<path d="M230.652 -44.8059L229.694 -45.7696L228.737 -44.8059L229.694 -43.8421L230.652 -44.8059Z" fill="black"/>
<path d="M242.691 -44.8059L241.733 -45.7696L240.775 -44.8059L241.733 -43.8421L242.691 -44.8059Z" fill="black"/>
<path d="M254.729 -44.8059L253.772 -45.7696L252.814 -44.8059L253.772 -43.8421L254.729 -44.8059Z" fill="black"/>
<path d="M266.768 -44.8059L265.81 -45.7696L264.853 -44.8059L265.81 -43.8421L266.768 -44.8059Z" fill="black"/>
<path d="M278.807 -44.8059L277.849 -45.7696L276.891 -44.8059L277.849 -43.8421L278.807 -44.8059Z" fill="black"/>
<path d="M290.845 -44.8059L289.888 -45.7696L288.93 -44.8059L289.888 -43.8421L290.845 -44.8059Z" fill="black"/>
<path d="M302.884 -44.8059L301.926 -45.7696L300.969 -44.8059L301.926 -43.8421L302.884 -44.8059Z" fill="black"/>
<path d="M314.923 -44.8059L313.965 -45.7696L313.007 -44.8059L313.965 -43.8421L314.923 -44.8059Z" fill="black"/>
<path d="M326.961 -44.8059L326.004 -45.7696L325.046 -44.8059L326.004 -43.8421L326.961 -44.8059Z" fill="black"/>
<path d="M339 -44.8059L338.042 -45.7696L337.085 -44.8059L338.042 -43.8421L339 -44.8059Z" fill="black"/>
<path d="M122.304 -32.6907L121.346 -33.6545L120.388 -32.6907L121.346 -31.727L122.304 -32.6907Z" fill="black"/>
<path d="M134.342 -32.6907L133.385 -33.6545L132.427 -32.6907L133.385 -31.727L134.342 -32.6907Z" fill="black"/>
<path d="M146.381 -32.6907L145.423 -33.6545L144.466 -32.6907L145.423 -31.727L146.381 -32.6907Z" fill="black"/>
<path d="M158.42 -32.6907L157.462 -33.6545L156.504 -32.6907L157.462 -31.727L158.42 -32.6907Z" fill="black"/>
<path d="M170.459 -32.6907L169.501 -33.6545L168.543 -32.6907L169.501 -31.727L170.459 -32.6907Z" fill="black"/>
<path d="M182.497 -32.6907L181.54 -33.6545L180.582 -32.6907L181.54 -31.727L182.497 -32.6907Z" fill="black"/>
<path d="M194.536 -32.6907L193.578 -33.6545L192.621 -32.6907L193.578 -31.727L194.536 -32.6907Z" fill="black"/>
<path d="M206.574 -32.6907L205.617 -33.6545L204.659 -32.6907L205.617 -31.727L206.574 -32.6907Z" fill="black"/>
<path d="M218.613 -32.6907L217.656 -33.6545L216.698 -32.6907L217.656 -31.727L218.613 -32.6907Z" fill="black"/>
<path d="M230.652 -32.6907L229.694 -33.6545L228.737 -32.6907L229.694 -31.727L230.652 -32.6907Z" fill="black"/>
<path d="M242.691 -32.6907L241.733 -33.6545L240.775 -32.6907L241.733 -31.727L242.691 -32.6907Z" fill="black"/>
<path d="M254.729 -32.6907L253.772 -33.6545L252.814 -32.6907L253.772 -31.727L254.729 -32.6907Z" fill="black"/>
<path d="M266.768 -32.6907L265.81 -33.6545L264.853 -32.6907L265.81 -31.727L266.768 -32.6907Z" fill="black"/>
<path d="M278.807 -32.6907L277.849 -33.6545L276.891 -32.6907L277.849 -31.727L278.807 -32.6907Z" fill="black"/>
<path d="M290.845 -32.6907L289.888 -33.6545L288.93 -32.6907L289.888 -31.727L290.845 -32.6907Z" fill="black"/>
<path d="M302.884 -32.6907L301.926 -33.6545L300.969 -32.6907L301.926 -31.727L302.884 -32.6907Z" fill="black"/>
<path d="M314.923 -32.6907L313.965 -33.6545L313.007 -32.6907L313.965 -31.727L314.923 -32.6907Z" fill="black"/>
<path d="M326.961 -32.6907L326.004 -33.6545L325.046 -32.6907L326.004 -31.727L326.961 -32.6907Z" fill="black"/>
<path d="M339 -32.6907L338.042 -33.6545L337.085 -32.6907L338.042 -31.727L339 -32.6907Z" fill="black"/>
<path d="M122.304 -20.5757L121.346 -21.5394L120.388 -20.5757L121.346 -19.6119L122.304 -20.5757Z" fill="black"/>
<path d="M134.342 -20.5757L133.385 -21.5394L132.427 -20.5757L133.385 -19.6119L134.342 -20.5757Z" fill="black"/>
<path d="M146.381 -20.5757L145.423 -21.5394L144.466 -20.5757L145.423 -19.6119L146.381 -20.5757Z" fill="black"/>
<path d="M158.42 -20.5757L157.462 -21.5394L156.504 -20.5757L157.462 -19.6119L158.42 -20.5757Z" fill="black"/>
<path d="M170.459 -20.5757L169.501 -21.5394L168.543 -20.5757L169.501 -19.6119L170.459 -20.5757Z" fill="black"/>
<path d="M182.497 -20.5757L181.54 -21.5394L180.582 -20.5757L181.54 -19.6119L182.497 -20.5757Z" fill="black"/>
<path d="M194.536 -20.5757L193.578 -21.5394L192.621 -20.5757L193.578 -19.6119L194.536 -20.5757Z" fill="black"/>
<path d="M206.574 -20.5757L205.617 -21.5394L204.659 -20.5757L205.617 -19.6119L206.574 -20.5757Z" fill="black"/>
<path d="M218.613 -20.5757L217.656 -21.5394L216.698 -20.5757L217.656 -19.6119L218.613 -20.5757Z" fill="black"/>
<path d="M230.652 -20.5757L229.694 -21.5394L228.737 -20.5757L229.694 -19.6119L230.652 -20.5757Z" fill="black"/>
<path d="M242.691 -20.5757L241.733 -21.5394L240.775 -20.5757L241.733 -19.6119L242.691 -20.5757Z" fill="black"/>
<path d="M254.729 -20.5757L253.772 -21.5394L252.814 -20.5757L253.772 -19.6119L254.729 -20.5757Z" fill="black"/>
<path d="M266.768 -20.5757L265.81 -21.5394L264.853 -20.5757L265.81 -19.6119L266.768 -20.5757Z" fill="black"/>
<path d="M278.807 -20.5757L277.849 -21.5394L276.891 -20.5757L277.849 -19.6119L278.807 -20.5757Z" fill="black"/>
<path d="M290.845 -20.5757L289.888 -21.5394L288.93 -20.5757L289.888 -19.6119L290.845 -20.5757Z" fill="black"/>
<path d="M302.884 -20.5757L301.926 -21.5394L300.969 -20.5757L301.926 -19.6119L302.884 -20.5757Z" fill="black"/>
<path d="M314.923 -20.5757L313.965 -21.5394L313.007 -20.5757L313.965 -19.6119L314.923 -20.5757Z" fill="black"/>
<path d="M326.961 -20.5757L326.004 -21.5394L325.046 -20.5757L326.004 -19.6119L326.961 -20.5757Z" fill="black"/>
<path d="M339 -20.5757L338.042 -21.5394L337.085 -20.5757L338.042 -19.6119L339 -20.5757Z" fill="black"/>
<path d="M122.304 -8.46051L121.346 -9.42426L120.388 -8.46051L121.346 -7.49675L122.304 -8.46051Z" fill="black"/>
<path d="M134.342 -8.46051L133.385 -9.42426L132.427 -8.46051L133.385 -7.49675L134.342 -8.46051Z" fill="black"/>
<path d="M146.381 -8.46051L145.423 -9.42426L144.466 -8.46051L145.423 -7.49675L146.381 -8.46051Z" fill="black"/>
<path d="M158.42 -8.46051L157.462 -9.42426L156.504 -8.46051L157.462 -7.49675L158.42 -8.46051Z" fill="black"/>
<path d="M170.459 -8.46051L169.501 -9.42426L168.543 -8.46051L169.501 -7.49675L170.459 -8.46051Z" fill="black"/>
<path d="M182.497 -8.46051L181.54 -9.42426L180.582 -8.46051L181.54 -7.49675L182.497 -8.46051Z" fill="black"/>
<path d="M194.536 -8.46051L193.578 -9.42426L192.621 -8.46051L193.578 -7.49675L194.536 -8.46051Z" fill="black"/>
<path d="M206.574 -8.46051L205.617 -9.42426L204.659 -8.46051L205.617 -7.49675L206.574 -8.46051Z" fill="black"/>
<path d="M218.613 -8.46051L217.656 -9.42426L216.698 -8.46051L217.656 -7.49675L218.613 -8.46051Z" fill="black"/>
<path d="M230.652 -8.46051L229.694 -9.42426L228.737 -8.46051L229.694 -7.49675L230.652 -8.46051Z" fill="black"/>
<path d="M242.691 -8.46051L241.733 -9.42426L240.775 -8.46051L241.733 -7.49675L242.691 -8.46051Z" fill="black"/>
<path d="M254.729 -8.46051L253.772 -9.42426L252.814 -8.46051L253.772 -7.49675L254.729 -8.46051Z" fill="black"/>
<path d="M266.768 -8.46051L265.81 -9.42426L264.853 -8.46051L265.81 -7.49675L266.768 -8.46051Z" fill="black"/>
<path d="M278.807 -8.46051L277.849 -9.42426L276.891 -8.46051L277.849 -7.49675L278.807 -8.46051Z" fill="black"/>
<path d="M290.845 -8.46051L289.888 -9.42426L288.93 -8.46051L289.888 -7.49675L290.845 -8.46051Z" fill="black"/>
<path d="M302.884 -8.46051L301.926 -9.42426L300.969 -8.46051L301.926 -7.49675L302.884 -8.46051Z" fill="black"/>
<path d="M314.923 -8.46051L313.965 -9.42426L313.007 -8.46051L313.965 -7.49675L314.923 -8.46051Z" fill="black"/>
<path d="M326.961 -8.46051L326.004 -9.42426L325.046 -8.46051L326.004 -7.49675L326.961 -8.46051Z" fill="black"/>
<path d="M339 -8.46051L338.042 -9.42426L337.085 -8.46051L338.042 -7.49675L339 -8.46051Z" fill="black"/>
<path d="M122.304 3.65468L121.346 2.69093L120.388 3.65468L121.346 4.61843L122.304 3.65468Z" fill="black"/>
<path d="M134.342 3.65468L133.385 2.69093L132.427 3.65468L133.385 4.61843L134.342 3.65468Z" fill="black"/>
<path d="M146.381 3.65468L145.423 2.69093L144.466 3.65468L145.423 4.61843L146.381 3.65468Z" fill="black"/>
<path d="M158.42 3.65468L157.462 2.69093L156.504 3.65468L157.462 4.61843L158.42 3.65468Z" fill="black"/>
<path d="M170.459 3.65468L169.501 2.69093L168.543 3.65468L169.501 4.61843L170.459 3.65468Z" fill="black"/>
<path d="M182.497 3.65468L181.54 2.69093L180.582 3.65468L181.54 4.61843L182.497 3.65468Z" fill="black"/>
<path d="M194.536 3.65468L193.578 2.69093L192.621 3.65468L193.578 4.61843L194.536 3.65468Z" fill="black"/>
<path d="M206.574 3.65468L205.617 2.69093L204.659 3.65468L205.617 4.61843L206.574 3.65468Z" fill="black"/>
<path d="M218.613 3.65468L217.656 2.69093L216.698 3.65468L217.656 4.61843L218.613 3.65468Z" fill="black"/>
<path d="M230.652 3.65468L229.694 2.69093L228.737 3.65468L229.694 4.61843L230.652 3.65468Z" fill="black"/>
<path d="M242.691 3.65468L241.733 2.69093L240.775 3.65468L241.733 4.61843L242.691 3.65468Z" fill="black"/>
<path d="M254.729 3.65468L253.772 2.69093L252.814 3.65468L253.772 4.61843L254.729 3.65468Z" fill="black"/>
<path d="M266.768 3.65468L265.81 2.69093L264.853 3.65468L265.81 4.61843L266.768 3.65468Z" fill="black"/>
<path d="M278.807 3.65468L277.849 2.69093L276.891 3.65468L277.849 4.61843L278.807 3.65468Z" fill="black"/>
<path d="M290.845 3.65468L289.888 2.69093L288.93 3.65468L289.888 4.61843L290.845 3.65468Z" fill="black"/>
<path d="M302.884 3.65468L301.926 2.69093L300.969 3.65468L301.926 4.61843L302.884 3.65468Z" fill="black"/>
<path d="M314.923 3.65468L313.965 2.69093L313.007 3.65468L313.965 4.61843L314.923 3.65468Z" fill="black"/>
<path d="M326.961 3.65468L326.004 2.69093L325.046 3.65468L326.004 4.61843L326.961 3.65468Z" fill="black"/>
<path d="M339 3.65468L338.042 2.69093L337.085 3.65468L338.042 4.61843L339 3.65468Z" fill="black"/>
<path d="M122.304 15.7696L121.346 14.8058L120.388 15.7696L121.346 16.7333L122.304 15.7696Z" fill="black"/>
<path d="M134.342 15.7696L133.385 14.8058L132.427 15.7696L133.385 16.7333L134.342 15.7696Z" fill="black"/>
<path d="M146.381 15.7696L145.423 14.8058L144.466 15.7696L145.423 16.7333L146.381 15.7696Z" fill="black"/>
<path d="M158.42 15.7696L157.462 14.8058L156.504 15.7696L157.462 16.7333L158.42 15.7696Z" fill="black"/>
<path d="M170.459 15.7696L169.501 14.8058L168.543 15.7696L169.501 16.7333L170.459 15.7696Z" fill="black"/>
<path d="M182.497 15.7696L181.54 14.8058L180.582 15.7696L181.54 16.7333L182.497 15.7696Z" fill="black"/>
<path d="M194.536 15.7696L193.578 14.8058L192.621 15.7696L193.578 16.7333L194.536 15.7696Z" fill="black"/>
<path d="M206.574 15.7696L205.617 14.8058L204.659 15.7696L205.617 16.7333L206.574 15.7696Z" fill="black"/>
<path d="M218.613 15.7696L217.656 14.8058L216.698 15.7696L217.656 16.7333L218.613 15.7696Z" fill="black"/>
<path d="M230.652 15.7696L229.694 14.8058L228.737 15.7696L229.694 16.7333L230.652 15.7696Z" fill="black"/>
<path d="M242.691 15.7696L241.733 14.8058L240.775 15.7696L241.733 16.7333L242.691 15.7696Z" fill="black"/>
<path d="M254.729 15.7696L253.772 14.8058L252.814 15.7696L253.772 16.7333L254.729 15.7696Z" fill="black"/>
<path d="M266.768 15.7696L265.81 14.8058L264.853 15.7696L265.81 16.7333L266.768 15.7696Z" fill="black"/>
<path d="M278.807 15.7696L277.849 14.8058L276.891 15.7696L277.849 16.7333L278.807 15.7696Z" fill="black"/>
<path d="M290.845 15.7696L289.888 14.8058L288.93 15.7696L289.888 16.7333L290.845 15.7696Z" fill="black"/>
<path d="M302.884 15.7696L301.926 14.8058L300.969 15.7696L301.926 16.7333L302.884 15.7696Z" fill="black"/>
<path d="M314.923 15.7696L313.965 14.8058L313.007 15.7696L313.965 16.7333L314.923 15.7696Z" fill="black"/>
<path d="M326.961 15.7696L326.004 14.8058L325.046 15.7696L326.004 16.7333L326.961 15.7696Z" fill="black"/>
<path d="M339 15.7696L338.042 14.8058L337.085 15.7696L338.042 16.7333L339 15.7696Z" fill="black"/>
<path d="M122.304 27.8849L121.346 26.9211L120.388 27.8849L121.346 28.8486L122.304 27.8849Z" fill="black"/>
<path d="M134.342 27.8849L133.385 26.9211L132.427 27.8849L133.385 28.8486L134.342 27.8849Z" fill="black"/>
<path d="M146.381 27.8849L145.423 26.9211L144.466 27.8849L145.423 28.8486L146.381 27.8849Z" fill="black"/>
<path d="M158.42 27.8849L157.462 26.9211L156.504 27.8849L157.462 28.8486L158.42 27.8849Z" fill="black"/>
<path d="M170.459 27.8849L169.501 26.9211L168.543 27.8849L169.501 28.8486L170.459 27.8849Z" fill="black"/>
<path d="M182.497 27.8849L181.54 26.9211L180.582 27.8849L181.54 28.8486L182.497 27.8849Z" fill="black"/>
<path d="M194.536 27.8849L193.578 26.9211L192.621 27.8849L193.578 28.8486L194.536 27.8849Z" fill="black"/>
<path d="M206.574 27.8849L205.617 26.9211L204.659 27.8849L205.617 28.8486L206.574 27.8849Z" fill="black"/>
<path d="M218.613 27.8849L217.656 26.9211L216.698 27.8849L217.656 28.8486L218.613 27.8849Z" fill="black"/>
<path d="M230.652 27.8849L229.694 26.9211L228.737 27.8849L229.694 28.8486L230.652 27.8849Z" fill="black"/>
<path d="M242.691 27.8849L241.733 26.9211L240.775 27.8849L241.733 28.8486L242.691 27.8849Z" fill="black"/>
<path d="M254.729 27.8849L253.772 26.9211L252.814 27.8849L253.772 28.8486L254.729 27.8849Z" fill="black"/>
<path d="M266.768 27.8849L265.81 26.9211L264.853 27.8849L265.81 28.8486L266.768 27.8849Z" fill="black"/>
<path d="M278.807 27.8849L277.849 26.9211L276.891 27.8849L277.849 28.8486L278.807 27.8849Z" fill="black"/>
<path d="M290.845 27.8849L289.888 26.9211L288.93 27.8849L289.888 28.8486L290.845 27.8849Z" fill="black"/>
<path d="M302.884 27.8849L301.926 26.9211L300.969 27.8849L301.926 28.8486L302.884 27.8849Z" fill="black"/>
<path d="M314.923 27.8849L313.965 26.9211L313.007 27.8849L313.965 28.8486L314.923 27.8849Z" fill="black"/>
<path d="M326.961 27.8849L326.004 26.9211L325.046 27.8849L326.004 28.8486L326.961 27.8849Z" fill="black"/>
<path d="M339 27.8849L338.042 26.9211L337.085 27.8849L338.042 28.8486L339 27.8849Z" fill="black"/>
<path d="M122.304 40.0001L121.346 39.0363L120.388 40.0001L121.346 40.9638L122.304 40.0001Z" fill="black"/>
<path d="M134.342 40.0001L133.385 39.0363L132.427 40.0001L133.385 40.9638L134.342 40.0001Z" fill="black"/>
<path d="M146.381 40.0001L145.423 39.0363L144.466 40.0001L145.423 40.9638L146.381 40.0001Z" fill="black"/>
<path d="M158.42 40.0001L157.462 39.0363L156.504 40.0001L157.462 40.9638L158.42 40.0001Z" fill="black"/>
<path d="M170.459 40.0001L169.501 39.0363L168.543 40.0001L169.501 40.9638L170.459 40.0001Z" fill="black"/>
<path d="M182.497 40.0001L181.54 39.0363L180.582 40.0001L181.54 40.9638L182.497 40.0001Z" fill="black"/>
<path d="M194.536 40.0001L193.578 39.0363L192.621 40.0001L193.578 40.9638L194.536 40.0001Z" fill="black"/>
<path d="M206.574 40.0001L205.617 39.0363L204.659 40.0001L205.617 40.9638L206.574 40.0001Z" fill="black"/>
<path d="M218.613 40.0001L217.656 39.0363L216.698 40.0001L217.656 40.9638L218.613 40.0001Z" fill="black"/>
<path d="M230.652 40.0001L229.694 39.0363L228.737 40.0001L229.694 40.9638L230.652 40.0001Z" fill="black"/>
<path d="M242.691 40.0001L241.733 39.0363L240.775 40.0001L241.733 40.9638L242.691 40.0001Z" fill="black"/>
<path d="M254.729 40.0001L253.772 39.0363L252.814 40.0001L253.772 40.9638L254.729 40.0001Z" fill="black"/>
<path d="M266.768 40.0001L265.81 39.0363L264.853 40.0001L265.81 40.9638L266.768 40.0001Z" fill="black"/>
<path d="M278.807 40.0001L277.849 39.0363L276.891 40.0001L277.849 40.9638L278.807 40.0001Z" fill="black"/>
<path d="M290.845 40.0001L289.888 39.0363L288.93 40.0001L289.888 40.9638L290.845 40.0001Z" fill="black"/>
<path d="M302.884 40.0001L301.926 39.0363L300.969 40.0001L301.926 40.9638L302.884 40.0001Z" fill="black"/>
<path d="M314.923 40.0001L313.965 39.0363L313.007 40.0001L313.965 40.9638L314.923 40.0001Z" fill="black"/>
<path d="M326.961 40.0001L326.004 39.0363L325.046 40.0001L326.004 40.9638L326.961 40.0001Z" fill="black"/>
<path d="M339 40.0001L338.042 39.0363L337.085 40.0001L338.042 40.9638L339 40.0001Z" fill="black"/>
<path d="M122.304 52.1151L121.346 51.1513L120.388 52.1151L121.346 53.0788L122.304 52.1151Z" fill="black"/>
<path d="M134.342 52.1151L133.385 51.1513L132.427 52.1151L133.385 53.0788L134.342 52.1151Z" fill="black"/>
<path d="M146.381 52.1151L145.423 51.1513L144.466 52.1151L145.423 53.0788L146.381 52.1151Z" fill="black"/>
<path d="M158.42 52.1151L157.462 51.1513L156.504 52.1151L157.462 53.0788L158.42 52.1151Z" fill="black"/>
<path d="M170.459 52.1151L169.501 51.1513L168.543 52.1151L169.501 53.0788L170.459 52.1151Z" fill="black"/>
<path d="M182.497 52.1151L181.54 51.1513L180.582 52.1151L181.54 53.0788L182.497 52.1151Z" fill="black"/>
<path d="M194.536 52.1151L193.578 51.1513L192.621 52.1151L193.578 53.0788L194.536 52.1151Z" fill="black"/>
<path d="M206.574 52.1151L205.617 51.1513L204.659 52.1151L205.617 53.0788L206.574 52.1151Z" fill="black"/>
<path d="M218.613 52.1151L217.656 51.1513L216.698 52.1151L217.656 53.0788L218.613 52.1151Z" fill="black"/>
<path d="M230.652 52.1151L229.694 51.1513L228.737 52.1151L229.694 53.0788L230.652 52.1151Z" fill="black"/>
<path d="M242.691 52.1151L241.733 51.1513L240.775 52.1151L241.733 53.0788L242.691 52.1151Z" fill="black"/>
<path d="M254.729 52.1151L253.772 51.1513L252.814 52.1151L253.772 53.0788L254.729 52.1151Z" fill="black"/>
<path d="M266.768 52.1151L265.81 51.1513L264.853 52.1151L265.81 53.0788L266.768 52.1151Z" fill="black"/>
<path d="M278.807 52.1151L277.849 51.1513L276.891 52.1151L277.849 53.0788L278.807 52.1151Z" fill="black"/>
<path d="M290.845 52.1151L289.888 51.1513L288.93 52.1151L289.888 53.0788L290.845 52.1151Z" fill="black"/>
<path d="M302.884 52.1151L301.926 51.1513L300.969 52.1151L301.926 53.0788L302.884 52.1151Z" fill="black"/>
<path d="M314.923 52.1151L313.965 51.1513L313.007 52.1151L313.965 53.0788L314.923 52.1151Z" fill="black"/>
<path d="M326.961 52.1151L326.004 51.1513L325.046 52.1151L326.004 53.0788L326.961 52.1151Z" fill="black"/>
<path d="M339 52.1151L338.042 51.1513L337.085 52.1151L338.042 53.0788L339 52.1151Z" fill="black"/>
<path d="M122.304 64.2301L121.346 63.2664L120.388 64.2301L121.346 65.1939L122.304 64.2301Z" fill="black"/>
<path d="M134.342 64.2301L133.385 63.2664L132.427 64.2301L133.385 65.1939L134.342 64.2301Z" fill="black"/>
<path d="M146.381 64.2301L145.423 63.2664L144.466 64.2301L145.423 65.1939L146.381 64.2301Z" fill="black"/>
<path d="M158.42 64.2301L157.462 63.2664L156.504 64.2301L157.462 65.1939L158.42 64.2301Z" fill="black"/>
<path d="M170.459 64.2301L169.501 63.2664L168.543 64.2301L169.501 65.1939L170.459 64.2301Z" fill="black"/>
<path d="M182.497 64.2301L181.54 63.2664L180.582 64.2301L181.54 65.1939L182.497 64.2301Z" fill="black"/>
<path d="M194.536 64.2301L193.578 63.2664L192.621 64.2301L193.578 65.1939L194.536 64.2301Z" fill="black"/>
<path d="M206.574 64.2301L205.617 63.2664L204.659 64.2301L205.617 65.1939L206.574 64.2301Z" fill="black"/>
<path d="M218.613 64.2301L217.656 63.2664L216.698 64.2301L217.656 65.1939L218.613 64.2301Z" fill="black"/>
<path d="M230.652 64.2301L229.694 63.2664L228.737 64.2301L229.694 65.1939L230.652 64.2301Z" fill="black"/>
<path d="M242.691 64.2301L241.733 63.2664L240.775 64.2301L241.733 65.1939L242.691 64.2301Z" fill="black"/>
<path d="M254.729 64.2301L253.772 63.2664L252.814 64.2301L253.772 65.1939L254.729 64.2301Z" fill="black"/>
<path d="M266.768 64.2301L265.81 63.2664L264.853 64.2301L265.81 65.1939L266.768 64.2301Z" fill="black"/>
<path d="M278.807 64.2301L277.849 63.2664L276.891 64.2301L277.849 65.1939L278.807 64.2301Z" fill="black"/>
<path d="M290.845 64.2301L289.888 63.2664L288.93 64.2301L289.888 65.1939L290.845 64.2301Z" fill="black"/>
<path d="M302.884 64.2301L301.926 63.2664L300.969 64.2301L301.926 65.1939L302.884 64.2301Z" fill="black"/>
<path d="M314.923 64.2301L313.965 63.2664L313.007 64.2301L313.965 65.1939L314.923 64.2301Z" fill="black"/>
<path d="M326.961 64.2301L326.004 63.2664L325.046 64.2301L326.004 65.1939L326.961 64.2301Z" fill="black"/>
<path d="M339 64.2301L338.042 63.2664L337.085 64.2301L338.042 65.1939L339 64.2301Z" fill="black"/>
<path d="M122.304 76.3455L121.346 75.3817L120.388 76.3455L121.346 77.3092L122.304 76.3455Z" fill="black"/>
<path d="M134.342 76.3455L133.385 75.3817L132.427 76.3455L133.385 77.3092L134.342 76.3455Z" fill="black"/>
<path d="M146.381 76.3455L145.423 75.3817L144.466 76.3455L145.423 77.3092L146.381 76.3455Z" fill="black"/>
<path d="M158.42 76.3455L157.462 75.3817L156.504 76.3455L157.462 77.3092L158.42 76.3455Z" fill="black"/>
<path d="M170.459 76.3455L169.501 75.3817L168.543 76.3455L169.501 77.3092L170.459 76.3455Z" fill="black"/>
<path d="M182.497 76.3455L181.54 75.3817L180.582 76.3455L181.54 77.3092L182.497 76.3455Z" fill="black"/>
<path d="M194.536 76.3455L193.578 75.3817L192.621 76.3455L193.578 77.3092L194.536 76.3455Z" fill="black"/>
<path d="M206.574 76.3455L205.617 75.3817L204.659 76.3455L205.617 77.3092L206.574 76.3455Z" fill="black"/>
<path d="M218.613 76.3455L217.656 75.3817L216.698 76.3455L217.656 77.3092L218.613 76.3455Z" fill="black"/>
<path d="M230.652 76.3455L229.694 75.3817L228.737 76.3455L229.694 77.3092L230.652 76.3455Z" fill="black"/>
<path d="M242.691 76.3455L241.733 75.3817L240.775 76.3455L241.733 77.3092L242.691 76.3455Z" fill="black"/>
<path d="M254.729 76.3455L253.772 75.3817L252.814 76.3455L253.772 77.3092L254.729 76.3455Z" fill="black"/>
<path d="M266.768 76.3455L265.81 75.3817L264.853 76.3455L265.81 77.3092L266.768 76.3455Z" fill="black"/>
<path d="M278.807 76.3455L277.849 75.3817L276.891 76.3455L277.849 77.3092L278.807 76.3455Z" fill="black"/>
<path d="M290.845 76.3455L289.888 75.3817L288.93 76.3455L289.888 77.3092L290.845 76.3455Z" fill="black"/>
<path d="M302.884 76.3455L301.926 75.3817L300.969 76.3455L301.926 77.3092L302.884 76.3455Z" fill="black"/>
<path d="M314.923 76.3455L313.965 75.3817L313.007 76.3455L313.965 77.3092L314.923 76.3455Z" fill="black"/>
<path d="M326.961 76.3455L326.004 75.3817L325.046 76.3455L326.004 77.3092L326.961 76.3455Z" fill="black"/>
<path d="M339 76.3455L338.042 75.3817L337.085 76.3455L338.042 77.3092L339 76.3455Z" fill="black"/>
<path d="M122.304 88.4605L121.346 87.4967L120.388 88.4605L121.346 89.4242L122.304 88.4605Z" fill="black"/>
<path d="M134.342 88.4605L133.385 87.4967L132.427 88.4605L133.385 89.4242L134.342 88.4605Z" fill="black"/>
<path d="M146.381 88.4605L145.423 87.4967L144.466 88.4605L145.423 89.4242L146.381 88.4605Z" fill="black"/>
<path d="M158.42 88.4605L157.462 87.4967L156.504 88.4605L157.462 89.4242L158.42 88.4605Z" fill="black"/>
<path d="M170.459 88.4605L169.501 87.4967L168.543 88.4605L169.501 89.4242L170.459 88.4605Z" fill="black"/>
<path d="M182.497 88.4605L181.54 87.4967L180.582 88.4605L181.54 89.4242L182.497 88.4605Z" fill="black"/>
<path d="M194.536 88.4605L193.578 87.4967L192.621 88.4605L193.578 89.4242L194.536 88.4605Z" fill="black"/>
<path d="M206.574 88.4605L205.617 87.4967L204.659 88.4605L205.617 89.4242L206.574 88.4605Z" fill="black"/>
<path d="M218.613 88.4605L217.656 87.4967L216.698 88.4605L217.656 89.4242L218.613 88.4605Z" fill="black"/>
<path d="M230.652 88.4605L229.694 87.4967L228.737 88.4605L229.694 89.4242L230.652 88.4605Z" fill="black"/>
<path d="M242.691 88.4605L241.733 87.4967L240.775 88.4605L241.733 89.4242L242.691 88.4605Z" fill="black"/>
<path d="M254.729 88.4605L253.772 87.4967L252.814 88.4605L253.772 89.4242L254.729 88.4605Z" fill="black"/>
<path d="M266.768 88.4605L265.81 87.4967L264.853 88.4605L265.81 89.4242L266.768 88.4605Z" fill="black"/>
<path d="M278.807 88.4605L277.849 87.4967L276.891 88.4605L277.849 89.4242L278.807 88.4605Z" fill="black"/>
<path d="M290.845 88.4605L289.888 87.4967L288.93 88.4605L289.888 89.4242L290.845 88.4605Z" fill="black"/>
<path d="M302.884 88.4605L301.926 87.4967L300.969 88.4605L301.926 89.4242L302.884 88.4605Z" fill="black"/>
<path d="M314.923 88.4605L313.965 87.4967L313.007 88.4605L313.965 89.4242L314.923 88.4605Z" fill="black"/>
<path d="M326.961 88.4605L326.004 87.4967L325.046 88.4605L326.004 89.4242L326.961 88.4605Z" fill="black"/>
<path d="M339 88.4605L338.042 87.4967L337.085 88.4605L338.042 89.4242L339 88.4605Z" fill="black"/>
<path d="M122.304 100.576L121.346 99.6118L120.388 100.576L121.346 101.539L122.304 100.576Z" fill="black"/>
<path d="M134.342 100.576L133.385 99.6118L132.427 100.576L133.385 101.539L134.342 100.576Z" fill="black"/>
<path d="M146.381 100.576L145.423 99.6118L144.466 100.576L145.423 101.539L146.381 100.576Z" fill="black"/>
<path d="M158.42 100.576L157.462 99.6118L156.504 100.576L157.462 101.539L158.42 100.576Z" fill="black"/>
<path d="M170.459 100.576L169.501 99.6118L168.543 100.576L169.501 101.539L170.459 100.576Z" fill="black"/>
<path d="M182.497 100.576L181.54 99.6118L180.582 100.576L181.54 101.539L182.497 100.576Z" fill="black"/>
<path d="M194.536 100.576L193.578 99.6118L192.621 100.576L193.578 101.539L194.536 100.576Z" fill="black"/>
<path d="M206.574 100.576L205.617 99.6118L204.659 100.576L205.617 101.539L206.574 100.576Z" fill="black"/>
<path d="M218.613 100.576L217.656 99.6118L216.698 100.576L217.656 101.539L218.613 100.576Z" fill="black"/>
<path d="M230.652 100.576L229.694 99.6118L228.737 100.576L229.694 101.539L230.652 100.576Z" fill="black"/>
<path d="M242.691 100.576L241.733 99.6118L240.775 100.576L241.733 101.539L242.691 100.576Z" fill="black"/>
<path d="M254.729 100.576L253.772 99.6118L252.814 100.576L253.772 101.539L254.729 100.576Z" fill="black"/>
<path d="M266.768 100.576L265.81 99.6118L264.853 100.576L265.81 101.539L266.768 100.576Z" fill="black"/>
<path d="M278.807 100.576L277.849 99.6118L276.891 100.576L277.849 101.539L278.807 100.576Z" fill="black"/>
<path d="M290.845 100.576L289.888 99.6118L288.93 100.576L289.888 101.539L290.845 100.576Z" fill="black"/>
<path d="M302.884 100.576L301.926 99.6118L300.969 100.576L301.926 101.539L302.884 100.576Z" fill="black"/>
<path d="M314.923 100.576L313.965 99.6118L313.007 100.576L313.965 101.539L314.923 100.576Z" fill="black"/>
<path d="M326.961 100.576L326.004 99.6118L325.046 100.576L326.004 101.539L326.961 100.576Z" fill="black"/>
<path d="M339 100.576L338.042 99.6118L337.085 100.576L338.042 101.539L339 100.576Z" fill="black"/>
<path d="M122.304 112.691L121.346 111.727L120.388 112.691L121.346 113.655L122.304 112.691Z" fill="black"/>
<path d="M134.342 112.691L133.385 111.727L132.427 112.691L133.385 113.655L134.342 112.691Z" fill="black"/>
<path d="M146.381 112.691L145.423 111.727L144.466 112.691L145.423 113.655L146.381 112.691Z" fill="black"/>
<path d="M158.42 112.691L157.462 111.727L156.504 112.691L157.462 113.655L158.42 112.691Z" fill="black"/>
<path d="M170.459 112.691L169.501 111.727L168.543 112.691L169.501 113.655L170.459 112.691Z" fill="black"/>
<path d="M182.497 112.691L181.54 111.727L180.582 112.691L181.54 113.655L182.497 112.691Z" fill="black"/>
<path d="M194.536 112.691L193.578 111.727L192.621 112.691L193.578 113.655L194.536 112.691Z" fill="black"/>
<path d="M206.574 112.691L205.617 111.727L204.659 112.691L205.617 113.655L206.574 112.691Z" fill="black"/>
<path d="M218.613 112.691L217.656 111.727L216.698 112.691L217.656 113.655L218.613 112.691Z" fill="black"/>
<path d="M230.652 112.691L229.694 111.727L228.737 112.691L229.694 113.655L230.652 112.691Z" fill="black"/>
<path d="M242.691 112.691L241.733 111.727L240.775 112.691L241.733 113.655L242.691 112.691Z" fill="black"/>
<path d="M254.729 112.691L253.772 111.727L252.814 112.691L253.772 113.655L254.729 112.691Z" fill="black"/>
<path d="M266.768 112.691L265.81 111.727L264.853 112.691L265.81 113.655L266.768 112.691Z" fill="black"/>
<path d="M278.807 112.691L277.849 111.727L276.891 112.691L277.849 113.655L278.807 112.691Z" fill="black"/>
<path d="M290.845 112.691L289.888 111.727L288.93 112.691L289.888 113.655L290.845 112.691Z" fill="black"/>
<path d="M302.884 112.691L301.926 111.727L300.969 112.691L301.926 113.655L302.884 112.691Z" fill="black"/>
<path d="M314.923 112.691L313.965 111.727L313.007 112.691L313.965 113.655L314.923 112.691Z" fill="black"/>
<path d="M326.961 112.691L326.004 111.727L325.046 112.691L326.004 113.655L326.961 112.691Z" fill="black"/>
<path d="M339 112.691L338.042 111.727L337.085 112.691L338.042 113.655L339 112.691Z" fill="black"/>
<path d="M122.304 124.806L121.346 123.842L120.388 124.806L121.346 125.77L122.304 124.806Z" fill="black"/>
<path d="M134.342 124.806L133.385 123.842L132.427 124.806L133.385 125.77L134.342 124.806Z" fill="black"/>
<path d="M146.381 124.806L145.423 123.842L144.466 124.806L145.423 125.77L146.381 124.806Z" fill="black"/>
<path d="M158.42 124.806L157.462 123.842L156.504 124.806L157.462 125.77L158.42 124.806Z" fill="black"/>
<path d="M170.459 124.806L169.501 123.842L168.543 124.806L169.501 125.77L170.459 124.806Z" fill="black"/>
<path d="M182.497 124.806L181.54 123.842L180.582 124.806L181.54 125.77L182.497 124.806Z" fill="black"/>
<path d="M194.536 124.806L193.578 123.842L192.621 124.806L193.578 125.77L194.536 124.806Z" fill="black"/>
<path d="M206.574 124.806L205.617 123.842L204.659 124.806L205.617 125.77L206.574 124.806Z" fill="black"/>
<path d="M218.613 124.806L217.656 123.842L216.698 124.806L217.656 125.77L218.613 124.806Z" fill="black"/>
<path d="M230.652 124.806L229.694 123.842L228.737 124.806L229.694 125.77L230.652 124.806Z" fill="black"/>
<path d="M242.691 124.806L241.733 123.842L240.775 124.806L241.733 125.77L242.691 124.806Z" fill="black"/>
<path d="M254.729 124.806L253.772 123.842L252.814 124.806L253.772 125.77L254.729 124.806Z" fill="black"/>
<path d="M266.768 124.806L265.81 123.842L264.853 124.806L265.81 125.77L266.768 124.806Z" fill="black"/>
<path d="M278.807 124.806L277.849 123.842L276.891 124.806L277.849 125.77L278.807 124.806Z" fill="black"/>
<path d="M290.845 124.806L289.888 123.842L288.93 124.806L289.888 125.77L290.845 124.806Z" fill="black"/>
<path d="M302.884 124.806L301.926 123.842L300.969 124.806L301.926 125.77L302.884 124.806Z" fill="black"/>
<path d="M314.923 124.806L313.965 123.842L313.007 124.806L313.965 125.77L314.923 124.806Z" fill="black"/>
<path d="M326.961 124.806L326.004 123.842L325.046 124.806L326.004 125.77L326.961 124.806Z" fill="black"/>
<path d="M339 124.806L338.042 123.842L337.085 124.806L338.042 125.77L339 124.806Z" fill="black"/>
<path d="M122.304 136.921L121.346 135.957L120.388 136.921L121.346 137.885L122.304 136.921Z" fill="black"/>
<path d="M134.342 136.921L133.385 135.957L132.427 136.921L133.385 137.885L134.342 136.921Z" fill="black"/>
<path d="M146.381 136.921L145.423 135.957L144.466 136.921L145.423 137.885L146.381 136.921Z" fill="black"/>
<path d="M158.42 136.921L157.462 135.957L156.504 136.921L157.462 137.885L158.42 136.921Z" fill="black"/>
<path d="M170.459 136.921L169.501 135.957L168.543 136.921L169.501 137.885L170.459 136.921Z" fill="black"/>
<path d="M182.497 136.921L181.54 135.957L180.582 136.921L181.54 137.885L182.497 136.921Z" fill="black"/>
<path d="M194.536 136.921L193.578 135.957L192.621 136.921L193.578 137.885L194.536 136.921Z" fill="black"/>
<path d="M206.574 136.921L205.617 135.957L204.659 136.921L205.617 137.885L206.574 136.921Z" fill="black"/>
<path d="M218.613 136.921L217.656 135.957L216.698 136.921L217.656 137.885L218.613 136.921Z" fill="black"/>
<path d="M230.652 136.921L229.694 135.957L228.737 136.921L229.694 137.885L230.652 136.921Z" fill="black"/>
<path d="M242.691 136.921L241.733 135.957L240.775 136.921L241.733 137.885L242.691 136.921Z" fill="black"/>
<path d="M254.729 136.921L253.772 135.957L252.814 136.921L253.772 137.885L254.729 136.921Z" fill="black"/>
<path d="M266.768 136.921L265.81 135.957L264.853 136.921L265.81 137.885L266.768 136.921Z" fill="black"/>
<path d="M278.807 136.921L277.849 135.957L276.891 136.921L277.849 137.885L278.807 136.921Z" fill="black"/>
<path d="M290.845 136.921L289.888 135.957L288.93 136.921L289.888 137.885L290.845 136.921Z" fill="black"/>
<path d="M302.884 136.921L301.926 135.957L300.969 136.921L301.926 137.885L302.884 136.921Z" fill="black"/>
<path d="M314.923 136.921L313.965 135.957L313.007 136.921L313.965 137.885L314.923 136.921Z" fill="black"/>
<path d="M326.961 136.921L326.004 135.957L325.046 136.921L326.004 137.885L326.961 136.921Z" fill="black"/>
<path d="M339 136.921L338.042 135.957L337.085 136.921L338.042 137.885L339 136.921Z" fill="black"/>
<path d="M122.304 149.036L121.346 148.072L120.388 149.036L121.346 150L122.304 149.036Z" fill="black"/>
<path d="M134.342 149.036L133.385 148.072L132.427 149.036L133.385 150L134.342 149.036Z" fill="black"/>
<path d="M146.381 149.036L145.423 148.072L144.466 149.036L145.423 150L146.381 149.036Z" fill="black"/>
<path d="M158.42 149.036L157.462 148.072L156.504 149.036L157.462 150L158.42 149.036Z" fill="black"/>
<path d="M170.459 149.036L169.501 148.072L168.543 149.036L169.501 150L170.459 149.036Z" fill="black"/>
<path d="M182.497 149.036L181.54 148.072L180.582 149.036L181.54 150L182.497 149.036Z" fill="black"/>
<path d="M194.536 149.036L193.578 148.072L192.621 149.036L193.578 150L194.536 149.036Z" fill="black"/>
<path d="M206.574 149.036L205.617 148.072L204.659 149.036L205.617 150L206.574 149.036Z" fill="black"/>
<path d="M218.613 149.036L217.656 148.072L216.698 149.036L217.656 150L218.613 149.036Z" fill="black"/>
<path d="M230.652 149.036L229.694 148.072L228.737 149.036L229.694 150L230.652 149.036Z" fill="black"/>
<path d="M242.691 149.036L241.733 148.072L240.775 149.036L241.733 150L242.691 149.036Z" fill="black"/>
<path d="M254.729 149.036L253.772 148.072L252.814 149.036L253.772 150L254.729 149.036Z" fill="black"/>
<path d="M266.768 149.036L265.81 148.072L264.853 149.036L265.81 150L266.768 149.036Z" fill="black"/>
<path d="M278.807 149.036L277.849 148.072L276.891 149.036L277.849 150L278.807 149.036Z" fill="black"/>
<path d="M290.845 149.036L289.888 148.072L288.93 149.036L289.888 150L290.845 149.036Z" fill="black"/>
<path d="M302.884 149.036L301.926 148.072L300.969 149.036L301.926 150L302.884 149.036Z" fill="black"/>
<path d="M314.923 149.036L313.965 148.072L313.007 149.036L313.965 150L314.923 149.036Z" fill="black"/>
<path d="M326.961 149.036L326.004 148.072L325.046 149.036L326.004 150L326.961 149.036Z" fill="black"/>
<path d="M339 149.036L338.042 148.072L337.085 149.036L338.042 150L339 149.036Z" fill="black"/>
</g>
</svg>
