<svg width="100" height="9" viewBox="0 0 100 9" fill="none" xmlns="http://www.w3.org/2000/svg">
<path d="M6.67796 2.34C7.45363 2.34 8.21718 2.34 9.01709 2.34C9.59885 2.34 10.217 1.79333 10.3018 1.12667C10.3624 0.926667 10.3988 0.713333 10.423 0.5C9.25949 0.5 8.12022 0.5 6.99307 0.5C6.55676 0.5 6.13256 0.5 5.73261 0.5C5.49021 0.5 5.23569 0.5 4.9933 0.5C4.5691 0.5 4.13278 0.5 3.70859 0.5C2.56932 0.5 1.44217 0.5 0.302905 0.5C0.205946 1.11333 0.0847475 1.72667 -9.15527e-05 2.34C1.12706 2.34 2.26632 2.34 3.40559 2.34C3.06624 4.39333 2.75112 6.44667 2.42388 8.5C3.15108 8.5 3.86615 8.5 4.59334 8.5C5.21145 8.5 5.76897 7.96667 5.89017 7.3C5.97501 6.67333 6.07196 6.04667 6.19316 5.42C6.29012 4.82 6.37496 4.20667 6.49616 3.59333C6.55676 3.16667 6.61736 2.75333 6.67796 2.34Z" fill="#DADEE7"/>
<path d="M14.3514 7.3C14.4726 6.67333 14.5696 6.04667 14.6544 5.42C14.7514 4.82 14.8484 4.20667 14.9696 3.59333C15.0908 2.7 15.2483 1.82 15.3938 0.926667C15.3938 0.78 15.4301 0.646666 15.4544 0.5C14.3514 0.5 13.2728 0.5 12.2062 0.5C11.9032 0.5 11.6245 0.5 11.3457 0.5C11.8669 0.806667 12.0487 1.36667 11.9638 2.02C11.5881 4.18 11.2488 6.34 10.9215 8.5C11.6245 8.5 12.3274 8.5 13.0667 8.5C13.6485 8.5 14.2545 7.96667 14.3514 7.3Z" fill="#DADEE7"/>
<path d="M27.2931 0.5C26.8931 0.5 26.469 0.74 26.166 1.14C24.9661 2.72667 23.8026 4.3 22.6269 5.87333C21.8634 4.08667 21.0998 2.3 20.3605 0.5C20.3363 0.5 20.2999 0.5 20.2999 0.5C19.2819 0.5 18.2759 0.5 17.2942 0.5C17.2578 0.5 17.2336 0.5 17.2336 0.5C16.9549 0.5 16.6761 0.5 16.4337 0.5C16.8943 0.78 17.1124 1.24667 17.0155 1.84667C16.6519 4.06 16.2761 6.28667 15.9489 8.5C16.6519 8.5 17.3912 8.5 18.0941 8.5C18.6759 8.5 19.2576 7.96667 19.3546 7.3C19.4394 6.86 19.5 6.43333 19.5606 5.99333C19.9 6.83333 20.2393 7.67333 20.6393 8.5C20.6393 8.5 20.6635 8.5 20.6999 8.5C21.718 8.5 22.7239 8.5 23.742 8.5C23.742 8.5 23.7662 8.5 23.8026 8.5C24.4086 7.67333 25.0267 6.83333 25.669 5.99333C25.5115 6.83333 25.3903 7.67333 25.2691 8.5C25.972 8.5 26.7113 8.5 27.4143 8.5C28.0324 8.5 28.5899 7.96667 28.6748 7.3C29.0505 5.03333 29.4141 2.76667 29.7777 0.5C29.7534 0.5 29.7171 0.5 29.7171 0.5C28.9293 0.5 28.1294 0.5 27.2931 0.5Z" fill="#DADEE7"/>
<path d="M30.4004 7.3C30.2792 7.96667 30.7034 8.5 31.3215 8.5C31.6488 8.5 32.0245 8.5 32.4244 8.5C32.7274 8.5 33.091 8.5 33.4668 8.5C34.5697 8.5 35.6726 8.5 36.7755 8.5C37.3936 8.5 37.9753 8.5 38.5935 8.5C39.1995 8.5 39.7812 7.96667 39.9145 7.3C39.9388 7.1 39.9751 6.88667 39.9994 6.67333C39.0177 6.67333 38.0359 6.67333 37.0906 6.67333C35.9756 6.67333 34.8727 6.67333 33.7698 6.67333C33.7698 6.67333 33.7698 6.67333 33.7698 6.66C33.8061 6.46 33.8304 6.27333 33.8667 6.07333C33.8909 5.88667 33.9273 5.7 33.9516 5.51333C33.9516 5.48667 33.9516 5.46 33.9516 5.42C35.3696 5.42 36.7512 5.42 38.1571 5.42C38.7995 5.42 39.357 4.87333 39.454 4.20667C39.5146 4.00667 39.5388 3.80667 39.5752 3.59333C37.7936 3.59333 36.0119 3.59333 34.2667 3.59333C34.2667 3.56667 34.2667 3.54 34.2667 3.5C34.3273 3.18 34.3879 2.84667 34.4121 2.51333C34.4485 2.46 34.4485 2.39333 34.4485 2.34C35.5514 2.34 36.6543 2.34 37.7572 2.34C38.3753 2.34 38.9571 2.34 39.5752 2.34C40.1812 2.34 40.7993 1.79333 40.8962 1.12667C40.9568 0.926667 40.9811 0.713333 41.0174 0.5C39.9994 0.5 39.0177 0.5 38.0723 0.5C36.9573 0.5 35.8544 0.5 34.7515 0.5C34.6909 0.5 34.6303 0.5 34.5697 0.5C34.5333 0.5 34.5091 0.5 34.4727 0.5C34.2061 0.5 33.9273 0.5 33.7092 0.5C32.9456 0.5 32.2063 0.5 31.5033 0.5C31.1882 0.5 30.9216 0.5 30.6428 0.5C31.164 0.806667 31.3458 1.36667 31.2609 2.02C31.0064 3.58 30.7277 5.12667 30.4853 6.67333C30.461 6.88667 30.4247 7.1 30.4004 7.3Z" fill="#DADEE7"/>
<path d="M47.1082 5.03333C46.6719 3.52667 46.2114 2.02 45.7872 0.5C45.7266 0.5 45.666 0.5 45.6054 0.5C44.5025 0.5 43.3874 0.5 42.3209 0.5C42.0421 0.5 41.7634 0.5 41.4967 0.5C42.3209 0.726667 42.5633 1.39333 42.8663 2.38C43.4602 4.42 44.0662 6.46 44.6843 8.5C44.7449 8.5 44.8297 8.5 44.963 8.5C45.6054 8.5 46.2114 8.5 46.8658 8.5C47.1325 8.5 47.387 8.5 47.69 8.5C48.1505 8.5 48.5747 8.22 48.8535 7.78C50.3321 5.35333 51.835 2.92667 53.3379 0.5C52.441 0.5 51.5562 0.5 50.6715 0.5C50.1746 0.5 49.6898 0.793334 49.4353 1.26C48.6353 2.51333 47.9081 3.78 47.1082 5.03333Z" fill="#DADEE7"/>
<path d="M53.948 7.3C53.8268 7.96667 54.251 8.5 54.8691 8.5C55.1964 8.5 55.5721 8.5 55.972 8.5C56.275 8.5 56.6386 8.5 57.0143 8.5C58.1172 8.5 59.2202 8.5 60.3231 8.5C60.9412 8.5 61.5229 8.5 62.141 8.5C62.747 8.5 63.3288 7.96667 63.4621 7.3C63.4864 7.1 63.5227 6.88667 63.547 6.67333C62.5652 6.67333 61.5835 6.67333 60.6382 6.67333C59.5232 6.67333 58.4202 6.67333 57.3173 6.67333C57.3173 6.67333 57.3173 6.67333 57.3173 6.66C57.3537 6.46 57.3779 6.27333 57.4143 6.07333C57.4385 5.88667 57.4749 5.7 57.4991 5.51333C57.4991 5.48667 57.4991 5.46 57.4991 5.42C58.9172 5.42 60.2988 5.42 61.7047 5.42C62.3471 5.42 62.9046 4.87333 63.0016 4.20667C63.0622 4.00667 63.0864 3.80667 63.1228 3.59333C61.3411 3.59333 59.5595 3.59333 57.8143 3.59333C57.8143 3.56667 57.8143 3.54 57.8143 3.5C57.8749 3.18 57.9355 2.84667 57.9597 2.51333C57.996 2.46 57.996 2.39333 57.996 2.34C59.099 2.34 60.2019 2.34 61.3048 2.34C61.9229 2.34 62.5046 2.34 63.1228 2.34C63.7288 2.34 64.3469 1.79333 64.4438 1.12667C64.5044 0.926667 64.5287 0.713333 64.565 0.5C63.547 0.5 62.5652 0.5 61.6199 0.5C60.5049 0.5 59.402 0.5 58.299 0.5C58.2384 0.5 58.1778 0.5 58.1172 0.5C58.0809 0.5 58.0566 0.5 58.0203 0.5C57.7537 0.5 57.4749 0.5 57.2567 0.5C56.4932 0.5 55.7539 0.5 55.0509 0.5C54.7358 0.5 54.4692 0.5 54.1904 0.5C54.7116 0.806667 54.8934 1.36667 54.8085 2.02C54.554 3.58 54.2752 5.12667 54.0328 6.67333C54.0086 6.88667 53.9723 7.1 53.948 7.3Z" fill="#DADEE7"/>
<path d="M72.3162 4.24667C71.2012 4.24667 70.0983 4.24667 68.9954 4.24667C69.0924 3.60667 69.2136 2.96667 69.2984 2.34C70.4134 2.34 71.5163 2.34 72.6192 2.34C72.7768 2.34 72.9344 2.47333 72.898 2.64667C72.801 3.07333 72.7404 3.5 72.6798 3.92667C72.6556 4.1 72.4617 4.24667 72.3162 4.24667ZM70.6558 6.47333C71.0194 7.02 71.3951 7.56667 71.8193 8.1C72.0617 8.40667 72.2557 8.48667 72.5223 8.5C72.6798 8.5 72.8616 8.5 73.0434 8.5C73.8433 8.5 74.6433 8.5 75.5038 8.5C74.8857 7.7 74.3039 6.88667 73.7585 6.07333C73.9645 6.07333 74.2191 6.07333 74.4615 6.07333C75.0675 6.07333 75.625 5.52667 75.7462 4.86C75.9037 3.80667 76.0976 2.76667 76.2673 1.71333C76.3764 1.04667 75.9643 0.5 75.3826 0.5C73.4192 0.5 71.5163 0.5 69.6135 0.5C69.5166 0.5 69.4317 0.5 69.3348 0.5C68.3167 0.5 67.3107 0.5 66.329 0.5C66.0503 0.5 65.7715 0.5 65.4928 0.5C66.026 0.806667 66.1715 1.36667 66.0866 2.02C65.7473 4.18 65.3716 6.34 65.0443 8.5C65.7715 8.5 66.4745 8.5 67.1895 8.5C67.7955 8.5 68.3773 7.96667 68.5106 7.3C68.5712 6.88667 68.6318 6.47333 68.6924 6.07333C69.056 6.07333 69.4317 6.07333 69.8195 6.07333C70.1953 6.07333 70.474 6.20667 70.6558 6.47333Z" fill="#DADEE7"/>
<path d="M78.2714 6.67333C77.6533 6.67333 77.0715 7.22 76.9503 7.88667C76.9261 8.1 76.8897 8.3 76.8655 8.5C79.8712 8.5 82.8769 8.5 85.9069 8.5C86.5008 8.5 87.0946 7.96667 87.2037 7.3C87.337 6.47333 87.4582 5.63333 87.6037 4.80667C87.7127 4.14 87.2885 3.59333 86.7068 3.59333C84.7434 3.59333 82.8163 3.59333 80.8771 3.59333C80.7559 3.58 80.6347 3.44667 80.659 3.28667C80.6953 3.07333 80.7317 2.86 80.7923 2.64667C80.8287 2.47333 80.9377 2.34 81.0953 2.34C82.9012 2.34 84.7434 2.34 86.5856 2.34C87.2037 2.34 87.7491 1.79333 87.8461 1.12667C87.9067 0.926667 87.943 0.713333 87.9673 0.5C85.3009 0.5 82.6951 0.5 80.053 0.5C79.6773 0.5 79.3137 0.5 78.9743 0.5C78.5744 0.5 78.2108 0.5 77.8714 0.5C77.5684 0.5 77.2896 0.5 77.0109 0.5C77.5927 0.846667 77.7139 1.36667 77.629 2.02C77.5927 2.20667 77.5684 2.40667 77.5321 2.59333C77.4472 3.14 77.3381 3.67333 77.2533 4.22C77.1563 4.87333 77.5684 5.42 78.1744 5.42C80.0772 5.42 82.0164 5.42 83.9798 5.42C84.1374 5.43333 84.2222 5.56667 84.198 5.72667C84.1616 5.94 84.1374 6.16667 84.101 6.36667C84.0768 6.54 83.9192 6.67333 83.7374 6.67333C81.9194 6.67333 80.0772 6.67333 78.2714 6.67333Z" fill="#DADEE7"/>
<path d="M88.5829 7.3C88.4617 7.96667 88.8859 8.5 89.504 8.5C89.8313 8.5 90.207 8.5 90.6069 8.5C90.9099 8.5 91.2735 8.5 91.6492 8.5C92.7521 8.5 93.8551 8.5 94.958 8.5C95.5761 8.5 96.1578 8.5 96.7759 8.5C97.3819 8.5 97.9637 7.96667 98.097 7.3C98.1212 7.1 98.1576 6.88667 98.1819 6.67333C97.2001 6.67333 96.2184 6.67333 95.2731 6.67333C94.1581 6.67333 93.0551 6.67333 91.9522 6.67333C91.9522 6.67333 91.9522 6.67333 91.9522 6.66C91.9886 6.46 92.0128 6.27333 92.0492 6.07333C92.0734 5.88667 92.1098 5.7 92.134 5.51333C92.134 5.48667 92.134 5.46 92.134 5.42C93.5521 5.42 94.9337 5.42 96.3396 5.42C96.982 5.42 97.5395 4.87333 97.6365 4.20667C97.6971 4.00667 97.7213 3.80667 97.7577 3.59333C95.976 3.59333 94.1944 3.59333 92.4492 3.59333C92.4492 3.56667 92.4492 3.54 92.4492 3.5C92.5098 3.18 92.5704 2.84667 92.5946 2.51333C92.631 2.46 92.631 2.39333 92.631 2.34C93.7339 2.34 94.8368 2.34 95.9397 2.34C96.5578 2.34 97.1395 2.34 97.7577 2.34C98.3636 2.34 98.9818 1.79333 99.0787 1.12667C99.1393 0.926667 99.1636 0.713333 99.1999 0.5C98.1818 0.5 97.2001 0.5 96.2548 0.5C95.1398 0.5 94.0368 0.5 92.9339 0.5C92.8733 0.5 92.8127 0.5 92.7521 0.5C92.7158 0.5 92.6915 0.5 92.6552 0.5C92.3885 0.5 92.1098 0.5 91.8916 0.5C91.1281 0.5 90.3888 0.5 89.6858 0.5C89.3707 0.5 89.1041 0.5 88.8253 0.5C89.3465 0.806667 89.5283 1.36667 89.4434 2.02C89.1889 3.58 88.9101 5.12667 88.6677 6.67333C88.6435 6.88667 88.6071 7.1 88.5829 7.3Z" fill="#DADEE7"/>
</svg>
