<svg width="375" height="300" viewBox="0 0 375 300" fill="none" xmlns="http://www.w3.org/2000/svg">
<g clip-path="url(#clip0_712_17943)">
<path d="M-481.887 -29.1836L-428.572 12.5093L-438.722 -54.4065L-385.407 -12.7136L-395.557 -79.6294L-342.243 -37.9364L-352.393 -104.852L-299.078 -63.1593L-309.21 -130.086L-255.895 -88.3928L-266.045 -155.309L-212.731 -113.616L-222.881 -180.531L-169.548 -138.849L-179.698 -205.765L-126.383 -164.072L-136.533 -230.988L-83.2006 -189.305L-93.3505 -256.221L-40.0359 -214.528L-50.1677 -281.455L3.14684 -239.762L-7.0031 -306.678L46.3115 -264.985L36.1615 -331.9L89.4761 -290.208L79.3262 -357.123L132.659 -315.441L122.509 -382.357L175.824 -340.664L165.692 -407.59L219.006 -365.897L208.874 -432.824L262.207 -391.141L252.057 -458.057L305.372 -416.364L295.24 -483.291L348.573 -441.608L338.441 -508.535L391.774 -466.852" stroke="white" stroke-opacity="0.14" stroke-width="2" stroke-miterlimit="10"/>
<path d="M-303.99 275.252L-250.676 316.945L-260.826 250.029L-207.511 291.722L-217.661 224.806L-164.346 266.499L-174.496 199.583L-121.182 241.276L-131.314 174.35L-77.9989 216.043L-88.1489 149.127L-34.8343 190.82L-44.9842 123.904L8.34851 165.586L-1.80143 98.6706L51.5132 140.364L41.3632 73.4477L94.6959 115.13L84.546 48.2143L137.861 89.9072L127.729 22.9808L181.043 64.6737L170.893 -2.24206L224.208 39.4509L214.058 -27.4649L267.373 14.228L257.223 -52.6878L310.555 -11.0055L300.405 -77.9213L353.72 -36.2284L343.588 -103.155L396.903 -61.4618L386.771 -128.388L440.104 -86.7059L429.954 -153.622L483.268 -111.929L473.136 -178.855L526.469 -137.173L516.337 -204.099L569.67 -162.417" stroke="white" stroke-opacity="0.14" stroke-width="2" stroke-miterlimit="10"/>
<path d="M-392.938 123.031L-339.623 164.724L-349.773 97.8084L-296.458 139.501L-306.608 72.5855L-253.294 114.278L-263.444 47.3626L-210.129 89.0555L-220.261 22.1291L-166.946 63.8221L-177.096 -3.09374L-123.782 38.5992L-133.931 -28.3166L-80.5988 13.3657L-90.7487 -53.5501L-37.4341 -11.8572L-47.584 -78.773L5.74864 -37.0906L-4.40127 -104.006L48.9133 -62.3135L38.7815 -129.24L92.0961 -87.547L81.9461 -154.463L135.261 -112.77L125.111 -179.686L178.425 -137.993L168.275 -204.909L221.608 -163.226L211.458 -230.142L264.773 -188.449L254.641 -255.375L307.956 -213.683L297.824 -280.609L351.156 -238.927L341.006 -305.842L394.321 -264.149L384.189 -331.076L437.522 -289.393L427.39 -356.32L480.723 -314.638" stroke="white" stroke-opacity="0.14" stroke-width="2" stroke-miterlimit="10"/>
<path d="M-215.042 427.475L-161.727 469.168L-171.877 402.252L-118.563 443.945L-128.713 377.029L-75.3981 418.722L-85.548 351.806L-32.2334 393.499L-42.3653 326.573L10.9493 368.265L0.799383 301.35L54.114 343.043L43.964 276.127L97.2968 317.809L87.1468 250.893L140.461 292.586L130.311 225.67L183.644 267.353L173.494 200.437L226.809 242.13L216.677 175.203L269.992 216.896L259.842 149.981L313.156 191.674L303.006 124.758L356.321 166.451L346.171 99.5348L399.504 141.217L389.354 74.3014L442.668 115.994L432.536 49.0679L485.851 90.7608L475.719 23.8345L529.052 65.5168L518.902 -1.399L572.217 40.2939L562.085 -26.6325L615.417 15.0499L605.286 -51.8765L658.618 -10.1942" stroke="white" stroke-opacity="0.14" stroke-width="2" stroke-miterlimit="10"/>
<path d="M-79.6514 659.174L-26.3368 700.867L-36.4867 633.951L16.8279 675.644L6.67794 608.728L59.9925 650.421L49.8426 583.505L103.157 625.198L93.0253 558.272L146.34 599.965L136.19 533.049L189.505 574.742L179.355 507.826L232.687 549.508L222.537 482.592L275.852 524.285L265.702 457.37L319.035 499.052L308.885 432.136L362.199 473.829L352.068 406.903L405.382 448.596L395.232 381.68L448.547 423.373L438.397 356.457L491.711 398.15L481.562 331.234L534.894 372.916L524.744 306.001L578.059 347.694L567.927 280.767L621.242 322.46L611.11 255.534L664.443 297.216L654.293 230.3L707.607 271.993L697.475 205.067L750.808 246.749L740.676 179.823L794.009 221.505" stroke="white" stroke-opacity="0.14" stroke-width="2" stroke-miterlimit="10"/>
<path d="M-439.381 43.5625L-386.066 85.2554L-396.216 18.3396L-342.902 60.0325L-353.052 -6.88326L-299.737 34.8096L-309.887 -32.1061L-256.572 9.58677L-266.704 -57.3396L-213.39 -15.6467L-223.539 -82.5625L-170.225 -40.8696L-180.375 -107.785L-127.042 -66.103L-137.192 -133.019L-83.8775 -91.3259L-94.0274 -158.242L-40.6947 -116.559L-50.8446 -183.475L2.46996 -141.782L-7.66189 -208.709L45.6527 -167.016L35.5028 -233.932L88.8173 -192.239L78.6674 -259.154L131.982 -217.461L121.832 -284.377L175.165 -242.695L165.015 -309.611L218.329 -267.918L208.198 -334.844L261.512 -293.151L251.38 -360.078L304.713 -318.395L294.563 -385.311L347.878 -343.618L337.746 -410.545L391.079 -368.862L380.947 -435.789L434.279 -394.106" stroke="white" stroke-opacity="0.14" stroke-width="2" stroke-miterlimit="10"/>
<path d="M-261.483 348.006L-208.169 389.699L-218.319 322.783L-165.004 364.476L-175.154 297.56L-121.839 339.253L-131.989 272.337L-78.6749 314.03L-88.8067 247.104L-35.4921 288.797L-45.642 221.881L7.67258 263.574L-2.47736 196.658L50.8554 238.34L40.7054 171.425L94.02 213.117L83.8701 146.202L137.203 187.884L127.053 120.968L180.367 162.661L170.236 95.7347L223.55 137.428L213.4 70.5118L266.715 112.205L256.565 45.289L309.879 86.9819L299.73 20.0661L353.062 61.7484L342.912 -5.16738L396.227 36.5256L386.095 -30.4008L439.41 11.2921L429.278 -55.6343L482.611 -13.952L472.461 -80.8678L525.775 -39.1749L515.643 -106.101L568.976 -64.4189L558.844 -131.345L612.177 -89.6629" stroke="white" stroke-opacity="0.14" stroke-width="2" stroke-miterlimit="10"/>
<path d="M-126.093 579.697L-72.7782 621.39L-82.9281 554.474L-29.6135 596.167L-39.7635 529.252L13.5511 570.944L3.40118 504.029L56.7158 545.722L46.5839 478.795L99.8985 520.488L89.7486 453.572L143.063 495.265L132.913 428.349L186.246 470.032L176.096 403.116L229.411 444.809L219.261 377.893L272.593 419.575L262.443 352.66L315.758 394.352L305.626 327.426L358.941 369.119L348.791 302.203L402.105 343.896L391.955 276.98L445.27 318.673L435.12 251.757L488.453 293.44L478.303 226.524L531.617 268.217L521.486 201.291L574.8 242.983L564.668 176.057L618.001 217.739L607.851 150.824L661.166 192.517L651.034 125.59L704.367 167.273L694.235 100.346L747.568 142.028" stroke="white" stroke-opacity="0.14" stroke-width="2" stroke-miterlimit="10"/>
<path d="M-350.43 195.775L-297.115 237.468L-307.265 170.553L-253.95 212.245L-264.1 145.33L-210.786 187.023L-220.936 120.107L-167.621 161.8L-177.753 94.8733L-124.438 136.566L-134.588 69.6504L-81.2737 111.343L-91.4237 44.4275L-38.0909 86.1098L-48.2409 19.1941L5.07371 60.887L-5.07623 -6.02883L48.2565 35.6535L38.1065 -31.2623L91.4211 10.4306L81.2893 -56.4957L134.604 -14.8028L124.454 -81.7186L177.768 -40.0257L167.619 -106.942L220.933 -65.2486L210.783 -132.164L264.116 -90.482L253.966 -157.398L307.281 -115.705L297.149 -182.631L350.463 -140.938L340.331 -207.865L393.664 -166.182L383.514 -233.098L436.829 -191.405L426.697 -258.332L480.03 -216.649L469.898 -283.576L523.231 -241.893" stroke="white" stroke-opacity="0.14" stroke-width="2" stroke-miterlimit="10"/>
<path d="M-172.534 500.213L-119.22 541.906L-129.37 474.99L-76.0549 516.683L-86.2049 449.767L-32.8903 491.46L-43.0402 424.544L10.2744 466.237L0.142534 399.311L53.4571 441.004L43.3072 374.088L96.6218 415.781L86.4719 348.865L139.805 390.547L129.655 323.632L182.969 365.324L172.819 298.409L226.152 340.091L216.002 273.175L269.317 314.868L259.185 247.942L312.499 289.635L302.349 222.719L355.664 264.412L345.514 197.496L398.829 239.189L388.679 172.273L442.011 213.955L431.862 147.04L485.176 188.733L475.044 121.806L528.359 163.499L518.227 96.5727L571.56 138.255L561.41 71.3393L614.724 113.032L604.593 46.1058L657.925 87.7882L647.793 20.8618L701.126 62.5441" stroke="white" stroke-opacity="0.14" stroke-width="2" stroke-miterlimit="10"/>
<path d="M-37.1406 731.918L16.174 773.611L6.02403 706.695L59.3386 748.388L49.1887 681.472L102.503 723.165L92.3533 656.249L145.668 697.942L135.536 631.016L188.851 672.709L178.701 605.793L232.015 647.486L221.865 580.57L275.198 622.252L265.048 555.337L318.363 597.03L308.213 530.114L361.546 571.796L351.396 504.88L404.71 546.573L394.578 479.647L447.893 521.34L437.743 454.424L491.058 496.117L480.908 429.201L534.222 470.894L524.072 403.978L577.405 445.661L567.255 378.745L620.57 420.438L610.438 353.511L663.752 395.204L653.621 328.278L706.953 369.96L696.803 303.044L750.118 344.737L739.986 277.811L793.319 319.493L783.187 252.567L836.52 294.249" stroke="white" stroke-opacity="0.14" stroke-width="2" stroke-miterlimit="10"/>
<path d="M-460.632 7.18164L-407.317 48.8746L-417.467 -18.0412L-364.153 23.6517L-374.303 -43.2641L-320.988 -1.57121L-331.138 -68.487L-277.823 -26.7941L-287.955 -93.7205L-234.641 -52.0275L-244.79 -118.943L-191.476 -77.2504L-201.626 -144.166L-148.293 -102.484L-158.443 -169.4L-105.128 -127.707L-115.278 -194.623L-61.9457 -152.94L-72.0956 -219.856L-18.781 -178.163L-28.9129 -245.089L24.4017 -203.397L14.2518 -270.312L67.5663 -228.619L57.4164 -295.535L110.731 -253.842L100.581 -320.758L153.914 -279.076L143.764 -345.992L197.078 -304.299L186.947 -371.225L240.261 -329.532L230.129 -396.459L283.462 -354.776L273.312 -421.692L326.627 -379.999L316.495 -446.925L369.828 -405.243L359.696 -472.169L413.028 -430.487" stroke="white" stroke-opacity="0.14" stroke-width="2" stroke-miterlimit="10"/>
<path d="M-282.736 311.625L-229.422 353.318L-239.572 286.402L-186.257 328.095L-196.407 261.179L-143.092 302.872L-153.242 235.956L-99.9278 277.649L-110.06 210.723L-56.745 252.416L-66.895 185.5L-13.5804 227.193L-23.7303 160.277L29.6024 201.959L19.4525 135.044L72.7671 176.737L62.6171 109.821L115.95 151.503L105.8 84.5873L159.114 126.28L148.983 59.3539L202.297 101.047L192.147 34.131L245.462 75.8239L235.312 8.90811L288.626 50.601L278.477 -16.3148L331.809 25.3676L321.659 -41.5482L374.974 0.144691L364.842 -66.7817L418.157 -25.0888L408.025 -92.0151L461.358 -50.3328L451.208 -117.249L504.522 -75.5557L494.39 -142.482L547.723 -100.8L537.591 -167.726L590.924 -126.044" stroke="white" stroke-opacity="0.14" stroke-width="2" stroke-miterlimit="10"/>
<path d="M-371.683 159.404L-318.368 201.097L-328.518 134.181L-275.203 175.874L-285.353 108.959L-232.039 150.651L-242.189 83.7357L-188.874 125.429L-199.006 58.5022L-145.691 100.195L-155.841 33.2793L-102.527 74.9722L-112.677 8.05642L-59.3439 49.7387L-69.4938 -17.177L-16.1792 24.5159L-26.3292 -42.3999L27.0035 -0.717582L16.8536 -67.6334L70.1682 -25.9405L60.0364 -92.8668L113.351 -51.1739L103.201 -118.09L156.516 -76.3968L146.366 -143.313L199.68 -101.62L189.53 -168.535L242.863 -126.853L232.713 -193.769L286.028 -152.076L275.896 -219.002L329.21 -177.309L319.079 -244.236L372.411 -202.554L362.261 -269.469L415.576 -227.776L405.444 -294.703L458.777 -253.02L448.645 -319.947L501.978 -278.265" stroke="white" stroke-opacity="0.14" stroke-width="2" stroke-miterlimit="10"/>
<path d="M-193.789 463.848L-140.474 505.541L-150.624 438.625L-97.3098 480.318L-107.46 413.402L-54.1452 455.095L-64.2951 388.179L-10.9805 429.872L-21.1123 362.946L32.2022 404.638L22.0523 337.723L75.3669 379.416L65.217 312.5L118.55 354.182L108.4 287.266L161.714 328.959L151.564 262.043L204.897 303.726L194.747 236.81L248.062 278.503L237.93 211.577L291.244 253.269L281.095 186.354L334.409 228.047L324.259 161.131L377.574 202.824L367.424 135.908L420.757 177.59L410.607 110.674L463.921 152.367L453.789 85.441L507.104 127.134L496.972 60.2075L550.305 101.89L540.155 34.974L593.469 76.6669L583.338 9.74058L636.67 51.4229L626.538 -15.5034L679.871 26.1789" stroke="white" stroke-opacity="0.14" stroke-width="2" stroke-miterlimit="10"/>
<path d="M-58.3965 695.545L-5.08189 737.238L-15.2318 670.322L38.0828 712.015L27.9328 645.099L81.2474 686.792L71.0975 619.876L124.412 661.569L114.28 594.643L167.595 636.336L157.445 569.42L210.759 611.113L200.61 544.197L253.942 585.879L243.792 518.964L297.107 560.656L286.957 493.741L340.29 535.423L330.14 468.507L383.454 510.2L373.322 443.274L426.637 484.967L416.487 418.051L469.802 459.744L459.652 392.828L512.966 434.521L502.816 367.605L556.149 409.287L545.999 342.372L599.314 384.065L589.182 317.138L642.497 358.831L632.365 291.905L685.697 333.587L675.547 266.671L728.862 308.364L718.73 241.438L772.063 283.12L761.931 216.194L815.264 257.876" stroke="white" stroke-opacity="0.14" stroke-width="2" stroke-miterlimit="10"/>
<path d="M-418.126 79.9277L-364.811 121.621L-374.961 54.7049L-321.647 96.3978L-331.797 29.482L-278.482 71.1749L-288.632 4.25909L-235.317 45.952L-245.449 -20.9744L-192.135 20.7185L-202.285 -46.1973L-148.97 -4.50435L-159.12 -71.4201L-105.787 -29.7378L-115.937 -96.6536L-62.6226 -54.9607L-72.7725 -121.876L-19.4398 -80.1941L-29.5897 -147.11L23.7248 -105.417L13.593 -172.343L66.9076 -130.65L56.7576 -197.566L110.072 -155.873L99.9223 -222.789L153.237 -181.096L143.087 -248.012L196.42 -206.33L186.27 -273.246L239.584 -231.553L229.452 -298.479L282.767 -256.786L272.635 -323.712L325.968 -282.03L315.818 -348.946L369.133 -307.253L359.001 -374.179L412.333 -332.497L402.202 -399.423L455.534 -357.741" stroke="white" stroke-opacity="0.14" stroke-width="2" stroke-miterlimit="10"/>
<path d="M-240.23 384.371L-186.916 426.064L-197.066 359.148L-143.751 400.841L-153.901 333.925L-100.587 375.618L-110.737 308.702L-57.4219 350.395L-67.5538 283.469L-14.2392 325.162L-24.3891 258.246L28.9255 299.939L18.7756 233.023L72.1083 274.706L61.9583 207.79L115.273 249.483L105.123 182.567L158.456 224.249L148.306 157.333L201.62 199.026L191.489 132.1L244.803 173.793L234.653 106.877L287.968 148.57L277.818 81.6542L331.132 123.347L320.982 56.4313L374.315 98.1137L364.165 31.1979L417.48 72.8908L407.348 5.96439L460.663 47.6573L450.531 -19.269L503.863 22.4133L493.713 -44.5025L547.028 -2.80962L536.896 -69.736L590.229 -28.0536L580.097 -94.98L633.43 -53.2977" stroke="white" stroke-opacity="0.14" stroke-width="2" stroke-miterlimit="10"/>
<path d="M-104.84 616.061L-51.5253 657.753L-61.6752 590.838L-8.36059 632.531L-18.5105 565.615L34.8041 607.308L24.6541 540.392L77.9687 582.085L67.8369 515.158L121.151 556.851L111.002 489.936L164.316 531.628L154.166 464.713L207.499 506.395L197.349 439.479L250.664 481.172L240.514 414.256L293.846 455.939L283.696 389.023L337.011 430.716L326.879 363.789L380.194 405.482L370.044 338.567L423.358 380.259L413.208 313.344L466.523 355.037L456.373 288.121L509.706 329.803L499.556 262.887L552.87 304.58L542.739 237.654L596.053 279.347L585.921 212.42L639.254 254.103L629.104 187.187L682.419 228.88L672.287 161.953L725.62 203.636L715.488 136.709L768.82 178.392" stroke="white" stroke-opacity="0.14" stroke-width="2" stroke-miterlimit="10"/>
<path d="M-329.179 232.148L-275.864 273.841L-286.014 206.926L-232.699 248.618L-242.849 181.703L-189.535 223.396L-199.685 156.48L-146.37 198.173L-156.502 131.246L-103.187 172.939L-113.337 106.023L-60.0227 147.716L-70.1727 80.8006L-16.84 122.483L-26.9899 55.5671L26.3247 97.26L16.1747 30.3442L69.5074 72.0266L59.3575 5.11075L112.672 46.8037L102.54 -20.1227L155.855 21.5702L145.705 -45.3456L199.019 -3.65265L188.87 -70.5685L242.184 -28.8755L232.034 -95.7913L285.367 -54.109L275.217 -121.025L328.532 -79.3319L318.4 -146.258L371.714 -104.565L361.582 -171.492L414.915 -129.809L404.765 -196.725L458.08 -155.032L447.948 -221.959L501.281 -180.276L491.149 -247.203L544.482 -205.52" stroke="white" stroke-opacity="0.14" stroke-width="2" stroke-miterlimit="10"/>
<path d="M-151.279 536.592L-97.9647 578.285L-108.115 511.369L-54.8 553.062L-64.95 486.146L-11.6354 527.839L-21.7853 460.923L31.5292 502.616L21.3974 435.69L74.712 477.383L64.5621 410.467L117.877 452.16L107.727 385.244L161.059 426.926L150.91 360.01L204.224 401.703L194.074 334.788L247.407 376.47L237.257 309.554L290.572 351.247L280.44 284.321L333.754 326.014L323.604 259.098L376.919 300.791L366.769 233.875L420.084 275.568L409.934 208.652L463.266 250.334L453.116 183.419L506.431 225.111L496.299 158.185L549.614 199.878L539.482 132.952L592.815 174.634L582.665 107.718L635.979 149.411L625.847 82.4847L679.18 124.167L669.048 57.2407L722.381 98.923" stroke="white" stroke-opacity="0.14" stroke-width="2" stroke-miterlimit="10"/>
<path d="M-15.8896 768.291L37.4249 809.984L27.275 743.068L80.5896 784.761L70.4397 717.845L123.754 759.538L113.604 692.622L166.919 734.315L156.787 667.389L210.102 709.082L199.952 642.166L253.266 683.859L243.116 616.943L296.449 658.625L286.299 591.71L339.614 633.403L329.464 566.487L382.796 608.169L372.647 541.253L425.961 582.946L415.829 516.02L469.144 557.713L458.994 490.797L512.309 532.49L502.159 465.574L555.473 507.267L545.323 440.351L598.656 482.034L588.506 415.118L641.821 456.811L631.689 389.884L685.003 431.577L674.872 364.651L728.204 406.333L718.054 339.417L771.369 381.11L761.237 314.184L814.57 355.866L804.438 288.94L857.771 330.622" stroke="white" stroke-opacity="0.14" stroke-width="2" stroke-miterlimit="10"/>
</g>
<defs>
<clipPath id="clip0_712_17943">
<rect width="375" height="300" fill="white"/>
</clipPath>
</defs>
</svg>
