<svg width="330" height="49" viewBox="0 0 330 49" fill="none" xmlns="http://www.w3.org/2000/svg">
<g clip-path="url(#clip0_338_1782)">
<path d="M-36.879 107.992L-43.5967 98.8939L-36.879 89.7927L-43.5967 80.6947L-36.879 71.5936L-43.5967 62.4924L-36.879 53.3912M16.9227 107.992L10.205 98.8939L16.9227 89.7927L10.205 80.6947L16.9227 71.5936L10.205 62.4924L16.9227 53.3912M131.244 107.992L124.526 98.8938L131.244 89.7927L124.526 80.6947L131.244 71.5936L124.526 62.4924L131.244 53.3912M70.7246 107.992L64.007 98.8938L70.7246 89.7927L64.007 80.6947L70.7246 71.5936L64.007 62.4924L70.7246 53.3912M185.046 107.992L178.298 98.8938L185.046 89.7927L178.298 80.6947L185.046 71.5936L178.298 62.4924L185.046 53.3912M-9.97805 107.992L-16.6957 98.8939L-9.97805 89.7927L-16.6957 80.6947L-9.97805 71.5936L-16.6957 62.4924L-9.97806 53.3912M43.8238 107.992L37.1061 98.8938L43.8238 89.7927L37.1061 80.6947L43.8238 71.5936L37.1061 62.4924L43.8238 53.3912M158.145 107.992L151.397 98.8938L158.145 89.7927L151.397 80.6947L158.145 71.5936L151.397 62.4924L158.145 53.3912M97.6255 107.992L90.8776 98.8938L97.6255 89.7927L90.8776 80.6947L97.6255 71.5936L90.8776 62.4924L97.6255 53.3912M211.916 107.992L205.198 98.8938L211.916 89.7927L205.198 80.6947L211.916 71.5936L205.198 62.4924L211.916 53.3912M238.817 107.992L232.099 98.8938L238.817 89.7927L232.099 80.6947L238.817 71.5936L232.099 62.4924L238.817 53.3912M-23.4133 107.992L-30.1613 98.8939L-23.4133 89.7927L-30.1613 80.6947L-23.4133 71.5936L-30.1613 62.4924L-23.4133 53.3912M30.358 107.992L23.6403 98.8939L30.358 89.7927L23.6403 80.6947L30.358 71.5936L23.6403 62.4924L30.358 53.3912M144.679 107.992L137.962 98.8938L144.679 89.7927L137.962 80.6947L144.679 71.5936L137.962 62.4924L144.679 53.3912M84.16 107.992L77.4423 98.8938L84.16 89.7927L77.4423 80.6947L84.1599 71.5936L77.4423 62.4924L84.1599 53.3912M198.481 107.992L191.763 98.8938L198.481 89.7927L191.763 80.6947L198.481 71.5936L191.763 62.4924L198.481 53.3912M3.48751 107.992L-3.2604 98.8939L3.48751 89.7927L-3.2604 80.6947L3.48751 71.5936L-3.2604 62.4924L3.48751 53.3912M57.2591 107.992L50.5414 98.8938L57.2591 89.7927L50.5414 80.6947L57.2591 71.5936L50.5414 62.4924L57.2591 53.3912M171.58 107.992L164.862 98.8938L171.58 89.7927L164.862 80.6947L171.58 71.5936L164.862 62.4924L171.58 53.3912M111.061 107.992L104.343 98.8938L111.061 89.7927L104.343 80.6947L111.061 71.5936L104.343 62.4924L111.061 53.3912M225.382 107.992L218.664 98.8938L225.382 89.7927L218.664 80.6947L225.382 71.5936L218.664 62.4924L225.382 53.3912M252.283 107.992L245.565 98.8938L252.283 89.7927L245.565 80.6947L252.283 71.5936L245.565 62.4924L252.283 53.3912M-30.1613 107.992L-36.8789 98.8939L-30.1613 89.7927L-36.8789 80.6947L-30.1613 71.5936L-36.8789 62.4924L-30.1613 53.3912M23.6403 107.992L16.9227 98.8939L23.6403 89.7927L16.9227 80.6947L23.6403 71.5936L16.9227 62.4924L23.6403 53.3912M137.962 107.992L131.244 98.8938L137.962 89.7927L131.244 80.6947L137.962 71.5936L131.244 62.4924L137.962 53.3912M77.4423 107.992L70.7246 98.8938L77.4423 89.7927L70.7246 80.6947L77.4423 71.5936L70.7246 62.4924L77.4423 53.3912M191.763 107.992L185.046 98.8938L191.763 89.7927L185.046 80.6947L191.763 71.5936L185.046 62.4924L191.763 53.3912M-3.2604 107.992L-9.97805 98.8939L-3.2604 89.7927L-9.97805 80.6947L-3.2604 71.5936L-9.97805 62.4924L-3.2604 53.3912M50.5414 107.992L43.8238 98.8938L50.5414 89.7927L43.8238 80.6947L50.5414 71.5936L43.8238 62.4924L50.5414 53.3912M164.862 107.992L158.145 98.8938L164.862 89.7927L158.145 80.6947L164.862 71.5936L158.145 62.4924L164.862 53.3912M104.343 107.992L97.6253 98.8938L104.343 89.7927L97.6253 80.6947L104.343 71.5936L97.6253 62.4924L104.343 53.3912M218.664 107.992L211.916 98.8938L218.664 89.7927L211.916 80.6947L218.664 71.5936L211.916 62.4924L218.664 53.3912M245.565 107.992L238.817 98.8938L245.565 89.7927L238.817 80.6947L245.565 71.5936L238.817 62.4924L245.565 53.3912M-16.6957 107.992L-23.4134 98.8939L-16.6957 89.7927L-23.4134 80.6947L-16.6957 71.5936L-23.4134 62.4924L-16.6957 53.3912M37.1059 107.992L30.358 98.8938L37.1059 89.7927L30.358 80.6947L37.1059 71.5936L30.358 62.4924L37.1059 53.3912M151.397 107.992L144.679 98.8938L151.397 89.7927L144.679 80.6947L151.397 71.5936L144.679 62.4924L151.397 53.3912M90.8776 107.992L84.16 98.8938L90.8776 89.7927L84.16 80.6947L90.8776 71.5936L84.1599 62.4924L90.8776 53.3912M205.198 107.992L198.481 98.8938L205.198 89.7927L198.481 80.6947L205.198 71.5936L198.481 62.4924L205.198 53.3912M10.205 107.992L3.48738 98.8939L10.205 89.7927L3.48738 80.6947L10.205 71.5936L3.48738 62.4924L10.205 53.3912M124.526 107.992L117.778 98.8938L124.526 89.7927L117.778 80.6947L124.526 71.5936L117.778 62.4924L124.526 53.3912M64.007 107.992L57.2591 98.8938L64.007 89.7927L57.2591 80.6947L64.007 71.5936L57.2591 62.4924L64.007 53.3912M178.298 107.992L171.58 98.8938L178.298 89.7927L171.58 80.6947L178.298 71.5936L171.58 62.4924L178.298 53.3912M117.778 107.992L111.061 98.8938L117.778 89.7927L111.061 80.6947L117.778 71.5936L111.061 62.4924L117.778 53.3912M232.099 107.992L225.382 98.8938L232.099 89.7927L225.382 80.6947L232.099 71.5936L225.382 62.4924L232.099 53.3912M259 107.992L252.283 98.8938L259 89.7927L252.283 80.6947L259 71.5936L252.283 62.4924L259 53.3912M-36.879 108L-43.5967 98.9018L-36.879 89.8038L-43.5967 80.7059L-36.879 71.608L-43.5967 62.5101L-36.879 53.4154L-43.5967 44.3174L-36.879 35.2195L-43.5967 26.1184L-36.879 17.0204L-43.5967 7.92248L-36.879 -1.17545L-43.5967 -10.2734L-36.879 -19.3713L-43.5967 -28.4725L-36.879 -37.5704L-43.5967 -46.6685L-36.879 -55.7664M16.9227 108L10.205 98.9018L16.9227 89.8038L10.205 80.7059L16.9227 71.608L10.205 62.51L16.9227 53.4154L10.205 44.3174L16.9227 35.2195L10.205 26.1184L16.9227 17.0204L10.205 7.92248L16.9227 -1.17545L10.205 -10.2734L16.9227 -19.3713L10.205 -28.4725L16.9227 -37.5704L10.205 -46.6685L16.9227 -55.7664M131.244 108L124.526 98.9018L131.244 89.8038L124.526 80.7059L131.244 71.608L124.526 62.51L131.244 53.4154L124.526 44.3174L131.244 35.2195L124.526 26.1184L131.244 17.0204L124.526 7.92247L131.244 -1.17546L124.526 -10.2734L131.244 -19.3713L124.526 -28.4725L131.244 -37.5704L124.526 -46.6685L131.244 -55.7664M70.7246 108L64.007 98.9018L70.7246 89.8038L64.007 80.7059L70.7246 71.608L64.007 62.51L70.7246 53.4154L64.007 44.3174L70.7246 35.2195L64.007 26.1184L70.7246 17.0204L64.007 7.92248L70.7246 -1.17545L64.007 -10.2734L70.7246 -19.3713L64.007 -28.4725L70.7246 -37.5704L64.007 -46.6685L70.7246 -55.7664M185.046 108L178.298 98.9018L185.046 89.8038L178.298 80.7059L185.046 71.608L178.298 62.51L185.046 53.4154L178.298 44.3174L185.046 35.2195L178.298 26.1184L185.046 17.0204L178.298 7.92247L185.046 -1.17546L178.298 -10.2734L185.046 -19.3713L178.298 -28.4725L185.046 -37.5704L178.298 -46.6685L185.046 -55.7664M-9.97805 108L-16.6957 98.9018L-9.97805 89.8038L-16.6957 80.7059L-9.97805 71.608L-16.6957 62.51L-9.97806 53.4154L-16.6957 44.3174L-9.97806 35.2195L-16.6957 26.1184L-9.97806 17.0204L-16.6957 7.92248L-9.97806 -1.17545L-16.6957 -10.2734L-9.97806 -19.3713L-16.6957 -28.4725L-9.97806 -37.5704L-16.6957 -46.6685L-9.97806 -55.7664M43.8238 108L37.1061 98.9018L43.8238 89.8038L37.1061 80.7059L43.8238 71.608L37.1061 62.51L43.8238 53.4154L37.1061 44.3174L43.8238 35.2195L37.1061 26.1184L43.8238 17.0204L37.1061 7.92248L43.8238 -1.17545L37.1061 -10.2734L43.8238 -19.3713L37.1061 -28.4725L43.8238 -37.5704L37.1061 -46.6685L43.8238 -55.7664M158.145 108L151.397 98.9018L158.145 89.8038L151.397 80.7059L158.145 71.608L151.397 62.51L158.145 53.4154L151.397 44.3174L158.145 35.2195L151.397 26.1184L158.145 17.0204L151.397 7.92247L158.145 -1.17546L151.397 -10.2734L158.145 -19.3713L151.397 -28.4725L158.145 -37.5704L151.397 -46.6685L158.145 -55.7664M97.6255 108L90.8776 98.9018L97.6255 89.8038L90.8776 80.7059L97.6255 71.608L90.8776 62.51L97.6255 53.4154L90.8776 44.3174L97.6255 35.2195L90.8776 26.1184L97.6255 17.0204L90.8776 7.92248L97.6255 -1.17545L90.8776 -10.2734L97.6255 -19.3713L90.8776 -28.4725L97.6255 -37.5704L90.8776 -46.6685L97.6255 -55.7664M211.916 108L205.198 98.9018L211.916 89.8038L205.198 80.7059L211.916 71.608L205.198 62.51L211.916 53.4154L205.198 44.3174L211.916 35.2195L205.198 26.1183L211.916 17.0204L205.198 7.92247L211.916 -1.17546L205.198 -10.2734L211.916 -19.3713L205.198 -28.4725L211.916 -37.5704L205.198 -46.6685L211.916 -55.7664M238.817 108L232.099 98.9018L238.817 89.8038L232.099 80.7059L238.817 71.608L232.099 62.51L238.817 53.4154L232.099 44.3174L238.817 35.2195L232.099 26.1183L238.817 17.0204L232.099 7.92247L238.817 -1.17546L232.099 -10.2734L238.817 -19.3713L232.099 -28.4725L238.817 -37.5704L232.099 -46.6685L238.817 -55.7664M-23.4133 108L-30.1613 98.9018L-23.4133 89.8038L-30.1613 80.7059L-23.4133 71.608L-30.1613 62.51L-23.4133 53.4154L-30.1613 44.3174L-23.4134 35.2195L-30.1613 26.1184L-23.4134 17.0204L-30.1613 7.92248L-23.4134 -1.17545L-30.1613 -10.2734L-23.4134 -19.3713L-30.1613 -28.4725L-23.4134 -37.5704L-30.1613 -46.6685L-23.4134 -55.7664M30.358 108L23.6403 98.9018L30.358 89.8038L23.6403 80.7059L30.358 71.608L23.6403 62.51L30.358 53.4154L23.6403 44.3174L30.358 35.2195L23.6403 26.1184L30.358 17.0204L23.6403 7.92248L30.358 -1.17545L23.6403 -10.2734L30.358 -19.3713L23.6403 -28.4725L30.358 -37.5704L23.6403 -46.6685L30.358 -55.7664M144.679 108L137.962 98.9018L144.679 89.8038L137.962 80.7059L144.679 71.608L137.962 62.51L144.679 53.4154L137.962 44.3174L144.679 35.2195L137.962 26.1184L144.679 17.0204L137.962 7.92247L144.679 -1.17546L137.962 -10.2734L144.679 -19.3713L137.962 -28.4725L144.679 -37.5704L137.962 -46.6685L144.679 -55.7664M84.16 108L77.4423 98.9018L84.16 89.8038L77.4423 80.7059L84.1599 71.608L77.4423 62.51L84.1599 53.4154L77.4423 44.3174L84.1599 35.2195L77.4423 26.1184L84.1599 17.0204L77.4423 7.92248L84.1599 -1.17545L77.4423 -10.2734L84.1599 -19.3713L77.4423 -28.4725L84.1599 -37.5704L77.4423 -46.6685L84.1599 -55.7664M198.481 108L191.763 98.9018L198.481 89.8038L191.763 80.7059L198.481 71.608L191.763 62.51L198.481 53.4154L191.763 44.3174L198.481 35.2195L191.763 26.1184L198.481 17.0204L191.763 7.92247L198.481 -1.17546L191.763 -10.2734L198.481 -19.3713L191.763 -28.4725L198.481 -37.5704L191.763 -46.6685L198.481 -55.7664M3.48751 108L-3.2604 98.9018L3.48751 89.8038L-3.2604 80.7059L3.48751 71.608L-3.2604 62.51L3.48751 53.4154L-3.2604 44.3174L3.48751 35.2195L-3.2604 26.1184L3.48751 17.0204L-3.2604 7.92248L3.48751 -1.17545L-3.2604 -10.2734L3.48751 -19.3713L-3.2604 -28.4725L3.48751 -37.5704L-3.2604 -46.6685L3.48751 -55.7664M57.2591 108L50.5414 98.9018L57.2591 89.8038L50.5414 80.7059L57.2591 71.608L50.5414 62.51L57.2591 53.4154L50.5414 44.3174L57.2591 35.2195L50.5414 26.1184L57.2591 17.0204L50.5414 7.92248L57.2591 -1.17545L50.5414 -10.2734L57.2591 -19.3713L50.5414 -28.4725L57.2591 -37.5704L50.5414 -46.6685L57.2591 -55.7664M171.58 108L164.862 98.9018L171.58 89.8038L164.862 80.7059L171.58 71.608L164.862 62.51L171.58 53.4154L164.862 44.3174L171.58 35.2195L164.862 26.1184L171.58 17.0204L164.862 7.92247L171.58 -1.17546L164.862 -10.2734L171.58 -19.3713L164.862 -28.4725L171.58 -37.5704L164.862 -46.6685L171.58 -55.7664M111.061 108L104.343 98.9018L111.061 89.8038L104.343 80.7059L111.061 71.608L104.343 62.51L111.061 53.4154L104.343 44.3174L111.061 35.2195L104.343 26.1184L111.061 17.0204L104.343 7.92248L111.061 -1.17545L104.343 -10.2734L111.061 -19.3713L104.343 -28.4725L111.061 -37.5704L104.343 -46.6685L111.061 -55.7664M225.382 108L218.664 98.9018L225.382 89.8038L218.664 80.7059L225.382 71.608L218.664 62.51L225.382 53.4154L218.664 44.3174L225.382 35.2195L218.664 26.1183L225.382 17.0204L218.664 7.92247L225.382 -1.17546L218.664 -10.2734L225.382 -19.3713L218.664 -28.4725L225.382 -37.5704L218.664 -46.6685L225.382 -55.7664M252.283 108L245.565 98.9018L252.283 89.8038L245.565 80.7059L252.283 71.608L245.565 62.51L252.283 53.4154L245.565 44.3174L252.283 35.2195L245.565 26.1183L252.283 17.0204L245.565 7.92247L252.283 -1.17546L245.565 -10.2734L252.283 -19.3713L245.565 -28.4725L252.283 -37.5704L245.565 -46.6685L252.283 -55.7664M-30.1613 108L-36.8789 98.9018L-30.1613 89.8038L-36.8789 80.7059L-30.1613 71.608L-36.8789 62.51L-30.1613 53.4154L-36.8789 44.3174L-30.1613 35.2195L-36.8789 26.1184L-30.1613 17.0204L-36.8789 7.92248L-30.1613 -1.17545L-36.8789 -10.2734L-30.1613 -19.3713L-36.8789 -28.4725L-30.1613 -37.5704L-36.8789 -46.6685L-30.1613 -55.7664M23.6403 108L16.9227 98.9018L23.6403 89.8038L16.9227 80.7059L23.6403 71.608L16.9227 62.51L23.6403 53.4154L16.9227 44.3174L23.6403 35.2195L16.9227 26.1184L23.6403 17.0204L16.9227 7.92248L23.6403 -1.17545L16.9227 -10.2734L23.6403 -19.3713L16.9227 -28.4725L23.6403 -37.5704L16.9227 -46.6685L23.6403 -55.7664M137.962 108L131.244 98.9018L137.962 89.8038L131.244 80.7059L137.962 71.608L131.244 62.51L137.962 53.4154L131.244 44.3174L137.962 35.2195L131.244 26.1184L137.962 17.0204L131.244 7.92247L137.962 -1.17546L131.244 -10.2734L137.962 -19.3713L131.244 -28.4725L137.962 -37.5704L131.244 -46.6685L137.962 -55.7664M77.4423 108L70.7246 98.9018L77.4423 89.8038L70.7246 80.7059L77.4423 71.608L70.7246 62.51L77.4423 53.4154L70.7246 44.3174L77.4423 35.2195L70.7246 26.1184L77.4423 17.0204L70.7246 7.92248L77.4423 -1.17545L70.7246 -10.2734L77.4423 -19.3713L70.7246 -28.4725L77.4423 -37.5704L70.7246 -46.6685L77.4423 -55.7664M191.763 108L185.046 98.9018L191.763 89.8038L185.046 80.7059L191.763 71.608L185.046 62.51L191.763 53.4154L185.046 44.3174L191.763 35.2195L185.046 26.1184L191.763 17.0204L185.046 7.92247L191.763 -1.17546L185.046 -10.2734L191.763 -19.3713L185.046 -28.4725L191.763 -37.5704L185.046 -46.6685L191.763 -55.7664M-3.2604 108L-9.97805 98.9018L-3.2604 89.8038L-9.97805 80.7059L-3.2604 71.608L-9.97805 62.51L-3.2604 53.4154L-9.97805 44.3174L-3.2604 35.2195L-9.97805 26.1184L-3.2604 17.0204L-9.97806 7.92248L-3.26041 -1.17545L-9.97806 -10.2734L-3.26041 -19.3713L-9.97806 -28.4725L-3.26041 -37.5704L-9.97806 -46.6685L-3.26041 -55.7664M50.5414 108L43.8238 98.9018L50.5414 89.8038L43.8238 80.7059L50.5414 71.608L43.8238 62.51L50.5414 53.4154L43.8238 44.3174L50.5414 35.2195L43.8238 26.1184L50.5414 17.0204L43.8238 7.92248L50.5414 -1.17545L43.8238 -10.2734L50.5414 -19.3713L43.8238 -28.4725L50.5414 -37.5704L43.8238 -46.6685L50.5414 -55.7664M164.862 108L158.145 98.9018L164.862 89.8038L158.145 80.7059L164.862 71.608L158.145 62.51L164.862 53.4154L158.145 44.3174L164.862 35.2195L158.145 26.1184L164.862 17.0204L158.145 7.92247L164.862 -1.17546L158.145 -10.2734L164.862 -19.3713L158.145 -28.4725L164.862 -37.5704L158.145 -46.6685L164.862 -55.7664M104.343 108L97.6253 98.9018L104.343 89.8038L97.6253 80.7059L104.343 71.608L97.6253 62.51L104.343 53.4154L97.6253 44.3174L104.343 35.2195L97.6253 26.1184L104.343 17.0204L97.6253 7.92248L104.343 -1.17545L97.6253 -10.2734L104.343 -19.3713L97.6253 -28.4725L104.343 -37.5704L97.6253 -46.6685L104.343 -55.7664M218.664 108L211.916 98.9018L218.664 89.8038L211.916 80.7059L218.664 71.608L211.916 62.51L218.664 53.4154L211.916 44.3174L218.664 35.2195L211.916 26.1183L218.664 17.0204L211.916 7.92247L218.664 -1.17546L211.916 -10.2734L218.664 -19.3713L211.916 -28.4725L218.664 -37.5704L211.916 -46.6685L218.664 -55.7664M245.565 108L238.817 98.9018L245.565 89.8038L238.817 80.7059L245.565 71.608L238.817 62.51L245.565 53.4154L238.817 44.3174L245.565 35.2195L238.817 26.1183L245.565 17.0204L238.817 7.92247L245.565 -1.17546L238.817 -10.2734L245.565 -19.3713L238.817 -28.4725L245.565 -37.5704L238.817 -46.6685L245.565 -55.7664M-16.6957 108L-23.4134 98.9018L-16.6957 89.8038L-23.4134 80.7059L-16.6957 71.608L-23.4134 62.51L-16.6957 53.4154L-23.4134 44.3174L-16.6957 35.2195L-23.4134 26.1184L-16.6957 17.0204L-23.4134 7.92248L-16.6957 -1.17545L-23.4134 -10.2734L-16.6957 -19.3713L-23.4134 -28.4725L-16.6957 -37.5704L-23.4134 -46.6685L-16.6957 -55.7664M37.1059 108L30.358 98.9018L37.1059 89.8038L30.358 80.7059L37.1059 71.608L30.358 62.51L37.1059 53.4154L30.358 44.3174L37.1059 35.2195L30.358 26.1184L37.1059 17.0204L30.358 7.92248L37.1059 -1.17545L30.358 -10.2734L37.1059 -19.3713L30.358 -28.4725L37.1059 -37.5704L30.358 -46.6685L37.1059 -55.7664M151.397 108L144.679 98.9018L151.397 89.8038L144.679 80.7059L151.397 71.608L144.679 62.51L151.397 53.4154L144.679 44.3174L151.397 35.2195L144.679 26.1184L151.397 17.0204L144.679 7.92247L151.397 -1.17546L144.679 -10.2734L151.397 -19.3713L144.679 -28.4725L151.397 -37.5704L144.679 -46.6685L151.397 -55.7664M90.8776 108L84.16 98.9018L90.8776 89.8038L84.16 80.7059L90.8776 71.608L84.1599 62.51L90.8776 53.4154L84.1599 44.3174L90.8776 35.2195L84.1599 26.1184L90.8776 17.0204L84.1599 7.92248L90.8776 -1.17545L84.1599 -10.2734L90.8776 -19.3713L84.1599 -28.4725L90.8776 -37.5704L84.1599 -46.6685L90.8776 -55.7664M205.198 108L198.481 98.9018L205.198 89.8038L198.481 80.7059L205.198 71.608L198.481 62.51L205.198 53.4154L198.481 44.3174L205.198 35.2195L198.481 26.1183L205.198 17.0204L198.481 7.92247L205.198 -1.17546L198.481 -10.2734L205.198 -19.3713L198.481 -28.4725L205.198 -37.5704L198.481 -46.6685L205.198 -55.7664M10.205 108L3.48738 98.9018L10.205 89.8038L3.48738 80.7059L10.205 71.608L3.48738 62.51L10.205 53.4154L3.48738 44.3174L10.205 35.2195L3.48738 26.1184L10.205 17.0204L3.48738 7.92248L10.205 -1.17545L3.48738 -10.2734L10.205 -19.3713L3.48738 -28.4725L10.205 -37.5704L3.48738 -46.6685L10.205 -55.7664M124.526 108L117.778 98.9018L124.526 89.8038L117.778 80.7059L124.526 71.608L117.778 62.51L124.526 53.4154L117.778 44.3174L124.526 35.2195L117.778 26.1184L124.526 17.0204L117.778 7.92248L124.526 -1.17546L117.778 -10.2734L124.526 -19.3713L117.778 -28.4725L124.526 -37.5704L117.778 -46.6685L124.526 -55.7664M64.007 108L57.2591 98.9018L64.007 89.8038L57.2591 80.7059L64.007 71.608L57.2591 62.51L64.007 53.4154L57.2591 44.3174L64.007 35.2195L57.2591 26.1184L64.007 17.0204L57.2591 7.92248L64.007 -1.17545L57.2591 -10.2734L64.007 -19.3713L57.2591 -28.4725L64.007 -37.5704L57.2591 -46.6685L64.007 -55.7664M178.298 108L171.58 98.9018L178.298 89.8038L171.58 80.7059L178.298 71.608L171.58 62.51L178.298 53.4154L171.58 44.3174L178.298 35.2195L171.58 26.1184L178.298 17.0204L171.58 7.92247L178.298 -1.17546L171.58 -10.2734L178.298 -19.3713L171.58 -28.4725L178.298 -37.5704L171.58 -46.6685L178.298 -55.7664M117.778 108L111.061 98.9018L117.778 89.8038L111.061 80.7059L117.778 71.608L111.061 62.51L117.778 53.4154L111.061 44.3174L117.778 35.2195L111.061 26.1184L117.778 17.0204L111.061 7.92248L117.778 -1.17546L111.061 -10.2734L117.778 -19.3713L111.061 -28.4725L117.778 -37.5704L111.061 -46.6685L117.778 -55.7664M232.099 108L225.382 98.9018L232.099 89.8038L225.382 80.7059L232.099 71.608L225.382 62.51L232.099 53.4154L225.382 44.3174L232.099 35.2195L225.382 26.1183L232.099 17.0204L225.382 7.92247L232.099 -1.17546L225.382 -10.2734L232.099 -19.3713L225.382 -28.4725L232.099 -37.5704L225.382 -46.6685L232.099 -55.7664M259 108L252.283 98.9018L259 89.8038L252.283 80.7059L259 71.608L252.283 62.51L259 53.4154L252.283 44.3174L259 35.2195L252.283 26.1183L259 17.0204L252.283 7.92247L259 -1.17546L252.283 -10.2734L259 -19.3713L252.283 -28.4725L259 -37.5704L252.283 -46.6685L259 -55.7664M265.718 107.992L259.001 98.8941L265.718 89.793L259.001 80.695L265.718 71.5939L259.001 62.4927L265.718 53.3915M319.52 107.992L312.802 98.8941L319.52 89.793L312.802 80.695L319.52 71.5939L312.802 62.4927L319.52 53.3915M433.841 107.992L427.123 98.8941L433.841 89.793L427.123 80.695L433.841 71.5939L427.123 62.4927L433.841 53.3915M373.322 107.992L366.604 98.8941L373.322 89.793L366.604 80.695L373.322 71.5939L366.604 62.4927L373.322 53.3915M487.643 107.992L480.895 98.8941L487.643 89.793L480.895 80.695L487.643 71.5939L480.895 62.4927L487.643 53.3915M292.619 107.992L285.902 98.8941L292.619 89.793L285.902 80.695L292.619 71.5939L285.902 62.4927L292.619 53.3915M346.421 107.992L339.703 98.8941L346.421 89.793L339.703 80.695L346.421 71.5939L339.703 62.4927L346.421 53.3915M460.742 107.992L453.994 98.8941L460.742 89.793L453.994 80.695L460.742 71.5939L453.994 62.4927L460.742 53.3915M400.223 107.992L393.475 98.8941L400.223 89.793L393.475 80.695L400.223 71.5939L393.475 62.4927L400.223 53.3915M514.513 107.992L507.796 98.8941L514.513 89.793L507.796 80.695L514.513 71.5939L507.796 62.4927L514.513 53.3915M541.414 107.992L534.697 98.8941L541.414 89.793L534.697 80.695L541.414 71.5939L534.697 62.4927L541.414 53.3915M279.184 107.992L272.436 98.8941L279.184 89.793L272.436 80.695L279.184 71.5939L272.436 62.4927L279.184 53.3915M332.955 107.992L326.238 98.8941L332.955 89.793L326.238 80.695L332.955 71.5939L326.238 62.4927L332.955 53.3915M447.277 107.992L440.559 98.8941L447.277 89.793L440.559 80.695L447.277 71.5939L440.559 62.4927L447.277 53.3915M386.757 107.992L380.04 98.8941L386.757 89.793L380.04 80.695L386.757 71.5939L380.04 62.4927L386.757 53.3915M501.078 107.992L494.36 98.8941L501.078 89.793L494.36 80.695L501.078 71.5939L494.36 62.4927L501.078 53.3915M306.085 107.992L299.337 98.8941L306.085 89.793L299.337 80.695L306.085 71.5939L299.337 62.4927L306.085 53.3915M359.856 107.992L353.139 98.8941L359.856 89.793L353.139 80.695L359.856 71.5939L353.139 62.4927L359.856 53.3915M474.177 107.992L467.46 98.8941L474.177 89.793L467.46 80.695L474.177 71.5939L467.46 62.4927L474.177 53.3915M413.658 107.992L406.94 98.8941L413.658 89.793L406.94 80.695L413.658 71.5939L406.94 62.4927L413.658 53.3915M527.979 107.992L521.261 98.8941L527.979 89.793L521.261 80.695L527.979 71.5939L521.261 62.4927L527.979 53.3915M554.88 107.992L548.162 98.8941L554.88 89.793L548.162 80.695L554.88 71.5939L548.162 62.4927L554.88 53.3915M272.436 107.992L265.718 98.8941L272.436 89.793L265.718 80.695L272.436 71.5939L265.718 62.4927L272.436 53.3915M326.238 107.992L319.52 98.8941L326.238 89.793L319.52 80.695L326.238 71.5939L319.52 62.4927L326.238 53.3915M440.559 107.992L433.841 98.8941L440.559 89.793L433.841 80.695L440.559 71.5939L433.841 62.4927L440.559 53.3915M380.04 107.992L373.322 98.8941L380.04 89.793L373.322 80.695L380.04 71.5939L373.322 62.4927L380.04 53.3915M494.36 107.992L487.643 98.8941L494.36 89.793L487.643 80.695L494.36 71.5939L487.643 62.4927L494.36 53.3915M299.337 107.992L292.619 98.8941L299.337 89.793L292.619 80.695L299.337 71.5939L292.619 62.4927L299.337 53.3915M353.139 107.992L346.421 98.8941L353.139 89.793L346.421 80.695L353.139 71.5939L346.421 62.4927L353.139 53.3915M467.46 107.992L460.742 98.8941L467.46 89.793L460.742 80.695L467.46 71.5939L460.742 62.4927L467.46 53.3915M406.94 107.992L400.222 98.8941L406.94 89.793L400.222 80.695L406.94 71.5939L400.222 62.4927L406.94 53.3915M521.261 107.992L514.513 98.8941L521.261 89.793L514.513 80.695L521.261 71.5939L514.513 62.4927L521.261 53.3915M548.162 107.992L541.414 98.8941L548.162 89.793L541.414 80.695L548.162 71.5939L541.414 62.4927L548.162 53.3915M285.902 107.992L279.184 98.8941L285.901 89.793L279.184 80.695L285.901 71.5939L279.184 62.4927L285.901 53.3915M339.703 107.992L332.955 98.8941L339.703 89.793L332.955 80.695L339.703 71.5939L332.955 62.4927L339.703 53.3915M453.994 107.992L447.276 98.8941L453.994 89.793L447.276 80.695L453.994 71.5939L447.276 62.4927L453.994 53.3915M393.475 107.992L386.757 98.8941L393.475 89.793L386.757 80.695L393.475 71.5939L386.757 62.4927L393.475 53.3915M507.796 107.992L501.078 98.8941L507.796 89.793L501.078 80.695L507.796 71.5939L501.078 62.4927L507.796 53.3915M312.802 107.992L306.085 98.8941L312.802 89.793L306.085 80.695L312.802 71.5939L306.085 62.4927L312.802 53.3915M427.123 107.992L420.375 98.8941L427.123 89.793L420.375 80.695L427.123 71.5939L420.375 62.4927L427.123 53.3915M366.604 107.992L359.856 98.8941L366.604 89.793L359.856 80.695L366.604 71.5939L359.856 62.4927L366.604 53.3915M480.895 107.992L474.177 98.8941L480.895 89.793L474.177 80.695L480.895 71.5939L474.177 62.4927L480.895 53.3915M420.375 107.992L413.658 98.8941L420.375 89.793L413.658 80.695L420.375 71.5939L413.658 62.4927L420.375 53.3915M534.697 107.992L527.979 98.8941L534.697 89.793L527.979 80.695L534.697 71.5939L527.979 62.4927L534.697 53.3915M561.597 107.992L554.88 98.8941L561.597 89.793L554.88 80.695L561.597 71.5939L554.88 62.4927L561.597 53.3915M265.718 108L259.001 98.9021L265.718 89.8041L259.001 80.7062L265.718 71.6083L259.001 62.5103L265.718 53.4157L259.001 44.3177L265.718 35.2198L259.001 26.1186L265.718 17.0207L259.001 7.92273L265.718 -1.1752L259.001 -10.2731L265.718 -19.3711L259.001 -28.4722L265.718 -37.5702L259.001 -46.6681L265.718 -55.766M319.52 108L312.802 98.9021L319.52 89.8041L312.802 80.7062L319.52 71.6083L312.802 62.5103L319.52 53.4157L312.802 44.3177L319.52 35.2198L312.802 26.1186L319.52 17.0207L312.802 7.92273L319.52 -1.17521L312.802 -10.2731L319.52 -19.3711L312.802 -28.4722L319.52 -37.5702L312.802 -46.6681L319.52 -55.766M433.841 108L427.123 98.9021L433.841 89.8041L427.123 80.7062L433.841 71.6083L427.123 62.5103L433.841 53.4157L427.123 44.3177L433.841 35.2198L427.123 26.1186L433.841 17.0207L427.123 7.92272L433.841 -1.17521L427.123 -10.2731L433.841 -19.3711L427.123 -28.4722L433.841 -37.5702L427.123 -46.6681L433.841 -55.766M373.322 108L366.604 98.9021L373.322 89.8041L366.604 80.7062L373.322 71.6083L366.604 62.5103L373.322 53.4157L366.604 44.3177L373.322 35.2198L366.604 26.1186L373.322 17.0207L366.604 7.92272L373.322 -1.17521L366.604 -10.2731L373.322 -19.3711L366.604 -28.4722L373.322 -37.5702L366.604 -46.6681L373.322 -55.766M487.643 108L480.895 98.9021L487.643 89.8041L480.895 80.7062L487.643 71.6083L480.895 62.5103L487.643 53.4157L480.895 44.3177L487.643 35.2198L480.895 26.1186L487.643 17.0207L480.895 7.92272L487.643 -1.17521L480.895 -10.2731L487.643 -19.3711L480.895 -28.4722L487.643 -37.5702L480.895 -46.6681L487.643 -55.766M292.619 108L285.902 98.9021L292.619 89.8041L285.902 80.7062L292.619 71.6083L285.902 62.5103L292.619 53.4157L285.902 44.3177L292.619 35.2198L285.902 26.1186L292.619 17.0207L285.902 7.92273L292.619 -1.1752L285.902 -10.2731L292.619 -19.3711L285.902 -28.4722L292.619 -37.5702L285.902 -46.6681L292.619 -55.766M346.421 108L339.703 98.9021L346.421 89.8041L339.703 80.7062L346.421 71.6083L339.703 62.5103L346.421 53.4157L339.703 44.3177L346.421 35.2198L339.703 26.1186L346.421 17.0207L339.703 7.92272L346.421 -1.17521L339.703 -10.2731L346.421 -19.3711L339.703 -28.4722L346.421 -37.5702L339.703 -46.6681L346.421 -55.766M460.742 108L453.994 98.9021L460.742 89.8041L453.994 80.7062L460.742 71.6083L453.994 62.5103L460.742 53.4157L453.994 44.3177L460.742 35.2198L453.994 26.1186L460.742 17.0207L453.994 7.92272L460.742 -1.17521L453.994 -10.2731L460.742 -19.3711L453.994 -28.4722L460.742 -37.5702L453.994 -46.6681L460.742 -55.766M400.223 108L393.475 98.9021L400.223 89.8041L393.475 80.7062L400.223 71.6083L393.475 62.5103L400.223 53.4157L393.475 44.3177L400.223 35.2198L393.475 26.1186L400.223 17.0207L393.475 7.92272L400.223 -1.17521L393.475 -10.2731L400.223 -19.3711L393.475 -28.4722L400.223 -37.5702L393.475 -46.6681L400.223 -55.766M514.513 108L507.796 98.9021L514.513 89.8041L507.796 80.7062L514.513 71.6083L507.796 62.5103L514.513 53.4157L507.796 44.3177L514.513 35.2198L507.796 26.1186L514.513 17.0207L507.796 7.92272L514.513 -1.17521L507.796 -10.2731L514.513 -19.3711L507.796 -28.4722L514.513 -37.5702L507.796 -46.6681L514.513 -55.766M541.414 108L534.697 98.9021L541.414 89.8041L534.697 80.7062L541.414 71.6082L534.697 62.5103L541.414 53.4157L534.697 44.3177L541.414 35.2198L534.697 26.1186L541.414 17.0207L534.697 7.92272L541.414 -1.17522L534.697 -10.2731L541.414 -19.3711L534.697 -28.4722L541.414 -37.5702L534.697 -46.6681L541.414 -55.766M279.184 108L272.436 98.9021L279.184 89.8041L272.436 80.7062L279.184 71.6083L272.436 62.5103L279.184 53.4157L272.436 44.3177L279.184 35.2198L272.436 26.1186L279.184 17.0207L272.436 7.92273L279.184 -1.1752L272.436 -10.2731L279.184 -19.3711L272.436 -28.4722L279.184 -37.5702L272.436 -46.6681L279.184 -55.766M332.955 108L326.238 98.9021L332.955 89.8041L326.238 80.7062L332.955 71.6083L326.238 62.5103L332.955 53.4157L326.238 44.3177L332.955 35.2198L326.238 26.1186L332.955 17.0207L326.238 7.92272L332.955 -1.17521L326.238 -10.2731L332.955 -19.3711L326.238 -28.4722L332.955 -37.5702L326.238 -46.6681L332.955 -55.766M447.277 108L440.559 98.9021L447.277 89.8041L440.559 80.7062L447.277 71.6083L440.559 62.5103L447.277 53.4157L440.559 44.3177L447.277 35.2198L440.559 26.1186L447.277 17.0207L440.559 7.92272L447.277 -1.17521L440.559 -10.2731L447.277 -19.3711L440.559 -28.4722L447.277 -37.5702L440.559 -46.6681L447.277 -55.766M386.757 108L380.04 98.9021L386.757 89.8041L380.04 80.7062L386.757 71.6083L380.04 62.5103L386.757 53.4157L380.04 44.3177L386.757 35.2198L380.04 26.1186L386.757 17.0207L380.04 7.92272L386.757 -1.17521L380.04 -10.2731L386.757 -19.3711L380.04 -28.4722L386.757 -37.5702L380.04 -46.6681L386.757 -55.766M501.078 108L494.36 98.9021L501.078 89.8041L494.36 80.7062L501.078 71.6083L494.36 62.5103L501.078 53.4157L494.36 44.3177L501.078 35.2198L494.36 26.1186L501.078 17.0207L494.36 7.92272L501.078 -1.17521L494.36 -10.2731L501.078 -19.3711L494.36 -28.4722L501.078 -37.5702L494.36 -46.6681L501.078 -55.766M306.085 108L299.337 98.9021L306.085 89.8041L299.337 80.7062L306.085 71.6083L299.337 62.5103L306.085 53.4157L299.337 44.3177L306.085 35.2198L299.337 26.1186L306.085 17.0207L299.337 7.92273L306.085 -1.1752L299.337 -10.2731L306.085 -19.3711L299.337 -28.4722L306.085 -37.5702L299.337 -46.6681L306.085 -55.766M359.856 108L353.139 98.9021L359.856 89.8041L353.139 80.7062L359.856 71.6083L353.139 62.5103L359.856 53.4157L353.139 44.3177L359.856 35.2198L353.139 26.1186L359.856 17.0207L353.139 7.92272L359.856 -1.17521L353.139 -10.2731L359.856 -19.3711L353.139 -28.4722L359.856 -37.5702L353.139 -46.6681L359.856 -55.766M474.177 108L467.46 98.9021L474.177 89.8041L467.46 80.7062L474.177 71.6083L467.46 62.5103L474.177 53.4157L467.46 44.3177L474.177 35.2198L467.46 26.1186L474.177 17.0207L467.46 7.92272L474.177 -1.17521L467.46 -10.2731L474.177 -19.3711L467.46 -28.4722L474.177 -37.5702L467.46 -46.6681L474.177 -55.766M413.658 108L406.94 98.9021L413.658 89.8041L406.94 80.7062L413.658 71.6083L406.94 62.5103L413.658 53.4157L406.94 44.3177L413.658 35.2198L406.94 26.1186L413.658 17.0207L406.94 7.92272L413.658 -1.17521L406.94 -10.2731L413.658 -19.3711L406.94 -28.4722L413.658 -37.5702L406.94 -46.6681L413.658 -55.766M527.979 108L521.261 98.9021L527.979 89.8041L521.261 80.7062L527.979 71.6082L521.261 62.5103L527.979 53.4157L521.261 44.3177L527.979 35.2198L521.261 26.1186L527.979 17.0207L521.261 7.92272L527.979 -1.17521L521.261 -10.2731L527.979 -19.3711L521.261 -28.4722L527.979 -37.5702L521.261 -46.6681L527.979 -55.766M554.88 108L548.162 98.9021L554.88 89.8041L548.162 80.7062L554.88 71.6082L548.162 62.5103L554.88 53.4157L548.162 44.3177L554.88 35.2198L548.162 26.1186L554.88 17.0207L548.162 7.92271L554.88 -1.17522L548.162 -10.2731L554.88 -19.3711L548.162 -28.4723L554.88 -37.5702L548.162 -46.6681L554.88 -55.766M272.436 108L265.718 98.9021L272.436 89.8041L265.718 80.7062L272.436 71.6083L265.718 62.5103L272.436 53.4157L265.718 44.3177L272.436 35.2198L265.718 26.1186L272.436 17.0207L265.718 7.92273L272.436 -1.1752L265.718 -10.2731L272.436 -19.3711L265.718 -28.4722L272.436 -37.5702L265.718 -46.6681L272.436 -55.766M326.238 108L319.52 98.9021L326.238 89.8041L319.52 80.7062L326.238 71.6083L319.52 62.5103L326.238 53.4157L319.52 44.3177L326.238 35.2198L319.52 26.1186L326.238 17.0207L319.52 7.92272L326.238 -1.17521L319.52 -10.2731L326.238 -19.3711L319.52 -28.4722L326.238 -37.5702L319.52 -46.6681L326.238 -55.766M440.559 108L433.841 98.9021L440.559 89.8041L433.841 80.7062L440.559 71.6083L433.841 62.5103L440.559 53.4157L433.841 44.3177L440.559 35.2198L433.841 26.1186L440.559 17.0207L433.841 7.92272L440.559 -1.17521L433.841 -10.2731L440.559 -19.3711L433.841 -28.4722L440.559 -37.5702L433.841 -46.6681L440.559 -55.766M380.04 108L373.322 98.9021L380.04 89.8041L373.322 80.7062L380.04 71.6083L373.322 62.5103L380.04 53.4157L373.322 44.3177L380.04 35.2198L373.322 26.1186L380.04 17.0207L373.322 7.92272L380.04 -1.17521L373.322 -10.2731L380.04 -19.3711L373.322 -28.4722L380.04 -37.5702L373.322 -46.6681L380.04 -55.766M494.36 108L487.643 98.9021L494.36 89.8041L487.643 80.7062L494.36 71.6083L487.643 62.5103L494.36 53.4157L487.643 44.3177L494.36 35.2198L487.643 26.1186L494.36 17.0207L487.643 7.92272L494.36 -1.17521L487.643 -10.2731L494.36 -19.3711L487.643 -28.4722L494.36 -37.5702L487.643 -46.6681L494.36 -55.766M299.337 108L292.619 98.9021L299.337 89.8041L292.619 80.7062L299.337 71.6083L292.619 62.5103L299.337 53.4157L292.619 44.3177L299.337 35.2198L292.619 26.1186L299.337 17.0207L292.619 7.92273L299.337 -1.1752L292.619 -10.2731L299.337 -19.3711L292.619 -28.4722L299.337 -37.5702L292.619 -46.6681L299.337 -55.766M353.139 108L346.421 98.9021L353.139 89.8041L346.421 80.7062L353.139 71.6083L346.421 62.5103L353.139 53.4157L346.421 44.3177L353.139 35.2198L346.421 26.1186L353.139 17.0207L346.421 7.92272L353.139 -1.17521L346.421 -10.2731L353.139 -19.3711L346.421 -28.4722L353.139 -37.5702L346.421 -46.6681L353.139 -55.766M467.46 108L460.742 98.9021L467.46 89.8041L460.742 80.7062L467.46 71.6083L460.742 62.5103L467.46 53.4157L460.742 44.3177L467.46 35.2198L460.742 26.1186L467.46 17.0207L460.742 7.92272L467.46 -1.17521L460.742 -10.2731L467.46 -19.3711L460.742 -28.4722L467.46 -37.5702L460.742 -46.6681L467.46 -55.766M406.94 108L400.222 98.9021L406.94 89.8041L400.222 80.7062L406.94 71.6083L400.222 62.5103L406.94 53.4157L400.222 44.3177L406.94 35.2198L400.222 26.1186L406.94 17.0207L400.222 7.92272L406.94 -1.17521L400.222 -10.2731L406.94 -19.3711L400.222 -28.4722L406.94 -37.5702L400.222 -46.6681L406.94 -55.766M521.261 108L514.513 98.9021L521.261 89.8041L514.513 80.7062L521.261 71.6082L514.513 62.5103L521.261 53.4157L514.513 44.3177L521.261 35.2198L514.513 26.1186L521.261 17.0207L514.513 7.92272L521.261 -1.17521L514.513 -10.2731L521.261 -19.3711L514.513 -28.4722L521.261 -37.5702L514.513 -46.6681L521.261 -55.766M548.162 108L541.414 98.9021L548.162 89.8041L541.414 80.7062L548.162 71.6082L541.414 62.5103L548.162 53.4157L541.414 44.3177L548.162 35.2198L541.414 26.1186L548.162 17.0207L541.414 7.92272L548.162 -1.17522L541.414 -10.2731L548.162 -19.3711L541.414 -28.4723L548.162 -37.5702L541.414 -46.6681L548.162 -55.766M285.902 108L279.184 98.9021L285.901 89.8041L279.184 80.7062L285.901 71.6083L279.184 62.5103L285.901 53.4157L279.184 44.3177L285.901 35.2198L279.184 26.1186L285.901 17.0207L279.184 7.92273L285.901 -1.1752L279.184 -10.2731L285.901 -19.3711L279.184 -28.4722L285.901 -37.5702L279.184 -46.6681L285.901 -55.766M339.703 108L332.955 98.9021L339.703 89.8041L332.955 80.7062L339.703 71.6083L332.955 62.5103L339.703 53.4157L332.955 44.3177L339.703 35.2198L332.955 26.1186L339.703 17.0207L332.955 7.92272L339.703 -1.17521L332.955 -10.2731L339.703 -19.3711L332.955 -28.4722L339.703 -37.5702L332.955 -46.6681L339.703 -55.766M453.994 108L447.276 98.9021L453.994 89.8041L447.276 80.7062L453.994 71.6083L447.276 62.5103L453.994 53.4157L447.276 44.3177L453.994 35.2198L447.276 26.1186L453.994 17.0207L447.276 7.92272L453.994 -1.17521L447.276 -10.2731L453.994 -19.3711L447.276 -28.4722L453.994 -37.5702L447.276 -46.6681L453.994 -55.766M393.475 108L386.757 98.9021L393.475 89.8041L386.757 80.7062L393.475 71.6083L386.757 62.5103L393.475 53.4157L386.757 44.3177L393.475 35.2198L386.757 26.1186L393.475 17.0207L386.757 7.92272L393.475 -1.17521L386.757 -10.2731L393.475 -19.3711L386.757 -28.4722L393.475 -37.5702L386.757 -46.6681L393.475 -55.766M507.796 108L501.078 98.9021L507.796 89.8041L501.078 80.7062L507.796 71.6083L501.078 62.5103L507.796 53.4157L501.078 44.3177L507.796 35.2198L501.078 26.1186L507.796 17.0207L501.078 7.92272L507.796 -1.17521L501.078 -10.2731L507.796 -19.3711L501.078 -28.4722L507.796 -37.5702L501.078 -46.6681L507.796 -55.766M312.802 108L306.085 98.9021L312.802 89.8041L306.085 80.7062L312.802 71.6083L306.085 62.5103L312.802 53.4157L306.085 44.3177L312.802 35.2198L306.085 26.1186L312.802 17.0207L306.085 7.92273L312.802 -1.17521L306.085 -10.2731L312.802 -19.3711L306.085 -28.4722L312.802 -37.5702L306.085 -46.6681L312.802 -55.766M427.123 108L420.375 98.9021L427.123 89.8041L420.375 80.7062L427.123 71.6083L420.375 62.5103L427.123 53.4157L420.375 44.3177L427.123 35.2198L420.375 26.1186L427.123 17.0207L420.375 7.92272L427.123 -1.17521L420.375 -10.2731L427.123 -19.3711L420.375 -28.4722L427.123 -37.5702L420.375 -46.6681L427.123 -55.766M366.604 108L359.856 98.9021L366.604 89.8041L359.856 80.7062L366.604 71.6083L359.856 62.5103L366.604 53.4157L359.856 44.3177L366.604 35.2198L359.856 26.1186L366.604 17.0207L359.856 7.92272L366.604 -1.17521L359.856 -10.2731L366.604 -19.3711L359.856 -28.4722L366.604 -37.5702L359.856 -46.6681L366.604 -55.766M480.895 108L474.177 98.9021L480.895 89.8041L474.177 80.7062L480.895 71.6083L474.177 62.5103L480.895 53.4157L474.177 44.3177L480.895 35.2198L474.177 26.1186L480.895 17.0207L474.177 7.92272L480.895 -1.17521L474.177 -10.2731L480.895 -19.3711L474.177 -28.4722L480.895 -37.5702L474.177 -46.6681L480.895 -55.766M420.375 108L413.658 98.9021L420.375 89.8041L413.658 80.7062L420.375 71.6083L413.658 62.5103L420.375 53.4157L413.658 44.3177L420.375 35.2198L413.658 26.1186L420.375 17.0207L413.658 7.92272L420.375 -1.17521L413.658 -10.2731L420.375 -19.3711L413.658 -28.4722L420.375 -37.5702L413.658 -46.6681L420.375 -55.766M534.697 108L527.979 98.9021L534.697 89.8041L527.979 80.7062L534.697 71.6082L527.979 62.5103L534.697 53.4157L527.979 44.3177L534.697 35.2198L527.979 26.1186L534.697 17.0207L527.979 7.92272L534.697 -1.17521L527.979 -10.2731L534.697 -19.3711L527.979 -28.4722L534.697 -37.5702L527.979 -46.6681L534.697 -55.766M561.597 108L554.88 98.9021L561.597 89.8041L554.88 80.7062L561.597 71.6082L554.88 62.5103L561.597 53.4157L554.88 44.3177L561.597 35.2198L554.88 26.1186L561.597 17.0207L554.88 7.92271L561.597 -1.17522L554.88 -10.2731L561.597 -19.3711L554.88 -28.4723L561.597 -37.5702L554.88 -46.6681L561.597 -55.766" stroke="white" stroke-opacity="0.07" stroke-miterlimit="10" stroke-linecap="round"/>
</g>
<defs>
<clipPath id="clip0_338_1782">
<rect width="330" height="49" fill="white"/>
</clipPath>
</defs>
</svg>
