<svg width="330" height="49" viewBox="0 0 330 49" fill="none" xmlns="http://www.w3.org/2000/svg">
<path d="M-45.6751 -107.831L-46.8375 -109L-48 -107.831L-46.8375 -106.662L-45.6751 -107.831Z" fill="white" fill-opacity="0.07"/>
<path d="M-31.0618 -107.831L-32.2243 -109L-33.3868 -107.831L-32.2243 -106.662L-31.0618 -107.831Z" fill="white" fill-opacity="0.07"/>
<path d="M-16.4488 -107.831L-17.6112 -109L-18.7737 -107.831L-17.6112 -106.662L-16.4488 -107.831Z" fill="white" fill-opacity="0.07"/>
<path d="M-1.83552 -107.831L-2.99799 -109L-4.16047 -107.831L-2.99799 -106.662L-1.83552 -107.831Z" fill="white" fill-opacity="0.07"/>
<path d="M12.7777 -107.831L11.6152 -109L10.4528 -107.831L11.6152 -106.662L12.7777 -107.831Z" fill="white" fill-opacity="0.07"/>
<path d="M27.3908 -107.831L26.2283 -109L25.0658 -107.831L26.2283 -106.662L27.3908 -107.831Z" fill="white" fill-opacity="0.07"/>
<path d="M42.004 -107.831L40.8415 -109L39.679 -107.831L40.8415 -106.662L42.004 -107.831Z" fill="white" fill-opacity="0.07"/>
<path d="M56.6171 -107.831L55.4546 -109L54.2921 -107.831L55.4546 -106.662L56.6171 -107.831Z" fill="white" fill-opacity="0.07"/>
<path d="M71.2303 -107.831L70.0678 -109L68.9053 -107.831L70.0678 -106.662L71.2303 -107.831Z" fill="white" fill-opacity="0.07"/>
<path d="M85.8435 -107.831L84.6811 -109L83.5186 -107.831L84.6811 -106.662L85.8435 -107.831Z" fill="white" fill-opacity="0.07"/>
<path d="M-45.6751 -93.1364L-46.8375 -94.3054L-48 -93.1364L-46.8375 -91.9675L-45.6751 -93.1364Z" fill="white" fill-opacity="0.07"/>
<path d="M-31.0618 -93.1364L-32.2243 -94.3054L-33.3868 -93.1364L-32.2243 -91.9675L-31.0618 -93.1364Z" fill="white" fill-opacity="0.07"/>
<path d="M-16.4488 -93.1364L-17.6112 -94.3054L-18.7737 -93.1364L-17.6112 -91.9675L-16.4488 -93.1364Z" fill="white" fill-opacity="0.07"/>
<path d="M-1.83552 -93.1364L-2.99799 -94.3054L-4.16047 -93.1364L-2.99799 -91.9675L-1.83552 -93.1364Z" fill="white" fill-opacity="0.07"/>
<path d="M12.7777 -93.1364L11.6152 -94.3054L10.4528 -93.1364L11.6152 -91.9675L12.7777 -93.1364Z" fill="white" fill-opacity="0.07"/>
<path d="M27.3908 -93.1364L26.2283 -94.3054L25.0658 -93.1364L26.2283 -91.9675L27.3908 -93.1364Z" fill="white" fill-opacity="0.07"/>
<path d="M42.004 -93.1364L40.8415 -94.3054L39.679 -93.1364L40.8415 -91.9675L42.004 -93.1364Z" fill="white" fill-opacity="0.07"/>
<path d="M56.6171 -93.1364L55.4546 -94.3054L54.2921 -93.1364L55.4546 -91.9675L56.6171 -93.1364Z" fill="white" fill-opacity="0.07"/>
<path d="M71.2303 -93.1364L70.0678 -94.3054L68.9053 -93.1364L70.0678 -91.9675L71.2303 -93.1364Z" fill="white" fill-opacity="0.07"/>
<path d="M85.8435 -93.1364L84.6811 -94.3054L83.5186 -93.1364L84.6811 -91.9675L85.8435 -93.1364Z" fill="white" fill-opacity="0.07"/>
<path d="M-45.6751 -78.4418L-46.8375 -79.6108L-48 -78.4418L-46.8375 -77.2729L-45.6751 -78.4418Z" fill="white" fill-opacity="0.07"/>
<path d="M-31.0618 -78.4418L-32.2243 -79.6108L-33.3868 -78.4418L-32.2243 -77.2729L-31.0618 -78.4418Z" fill="white" fill-opacity="0.07"/>
<path d="M-16.4488 -78.4418L-17.6112 -79.6108L-18.7737 -78.4418L-17.6112 -77.2729L-16.4488 -78.4418Z" fill="white" fill-opacity="0.07"/>
<path d="M-1.83552 -78.4418L-2.99799 -79.6108L-4.16047 -78.4418L-2.99799 -77.2729L-1.83552 -78.4418Z" fill="white" fill-opacity="0.07"/>
<path d="M12.7777 -78.4418L11.6152 -79.6108L10.4528 -78.4418L11.6152 -77.2729L12.7777 -78.4418Z" fill="white" fill-opacity="0.07"/>
<path d="M27.3908 -78.4418L26.2283 -79.6108L25.0658 -78.4418L26.2283 -77.2729L27.3908 -78.4418Z" fill="white" fill-opacity="0.07"/>
<path d="M42.004 -78.4418L40.8415 -79.6108L39.679 -78.4418L40.8415 -77.2729L42.004 -78.4418Z" fill="white" fill-opacity="0.07"/>
<path d="M56.6171 -78.4418L55.4546 -79.6108L54.2921 -78.4418L55.4546 -77.2729L56.6171 -78.4418Z" fill="white" fill-opacity="0.07"/>
<path d="M71.2303 -78.4418L70.0678 -79.6108L68.9053 -78.4418L70.0678 -77.2729L71.2303 -78.4418Z" fill="white" fill-opacity="0.07"/>
<path d="M85.8435 -78.4418L84.6811 -79.6108L83.5186 -78.4418L84.6811 -77.2729L85.8435 -78.4418Z" fill="white" fill-opacity="0.07"/>
<path d="M-45.6751 -63.7472L-46.8375 -64.9162L-48 -63.7472L-46.8375 -62.5783L-45.6751 -63.7472Z" fill="white" fill-opacity="0.07"/>
<path d="M-31.0618 -63.7472L-32.2243 -64.9162L-33.3868 -63.7472L-32.2243 -62.5783L-31.0618 -63.7472Z" fill="white" fill-opacity="0.07"/>
<path d="M-16.4488 -63.7472L-17.6112 -64.9162L-18.7737 -63.7472L-17.6112 -62.5783L-16.4488 -63.7472Z" fill="white" fill-opacity="0.07"/>
<path d="M-1.83552 -63.7472L-2.99799 -64.9162L-4.16047 -63.7472L-2.99799 -62.5783L-1.83552 -63.7472Z" fill="white" fill-opacity="0.07"/>
<path d="M12.7777 -63.7472L11.6152 -64.9162L10.4528 -63.7472L11.6152 -62.5783L12.7777 -63.7472Z" fill="white" fill-opacity="0.07"/>
<path d="M27.3908 -63.7472L26.2283 -64.9162L25.0658 -63.7472L26.2283 -62.5783L27.3908 -63.7472Z" fill="white" fill-opacity="0.07"/>
<path d="M42.004 -63.7472L40.8415 -64.9162L39.679 -63.7472L40.8415 -62.5783L42.004 -63.7472Z" fill="white" fill-opacity="0.07"/>
<path d="M56.6171 -63.7472L55.4546 -64.9162L54.2921 -63.7472L55.4546 -62.5783L56.6171 -63.7472Z" fill="white" fill-opacity="0.07"/>
<path d="M71.2303 -63.7472L70.0678 -64.9162L68.9053 -63.7472L70.0678 -62.5783L71.2303 -63.7472Z" fill="white" fill-opacity="0.07"/>
<path d="M85.8435 -63.7472L84.6811 -64.9162L83.5186 -63.7472L84.6811 -62.5783L85.8435 -63.7472Z" fill="white" fill-opacity="0.07"/>
<path d="M-45.6751 -49.0528L-46.8375 -50.2217L-48 -49.0528L-46.8375 -47.8838L-45.6751 -49.0528Z" fill="white" fill-opacity="0.07"/>
<path d="M-31.0618 -49.0528L-32.2243 -50.2217L-33.3868 -49.0528L-32.2243 -47.8838L-31.0618 -49.0528Z" fill="white" fill-opacity="0.07"/>
<path d="M-16.4488 -49.0528L-17.6112 -50.2217L-18.7737 -49.0528L-17.6112 -47.8838L-16.4488 -49.0528Z" fill="white" fill-opacity="0.07"/>
<path d="M-1.83552 -49.0528L-2.99799 -50.2217L-4.16047 -49.0528L-2.99799 -47.8838L-1.83552 -49.0528Z" fill="white" fill-opacity="0.07"/>
<path d="M12.7777 -49.0528L11.6152 -50.2217L10.4528 -49.0528L11.6152 -47.8838L12.7777 -49.0528Z" fill="white" fill-opacity="0.07"/>
<path d="M27.3908 -49.0528L26.2283 -50.2217L25.0658 -49.0528L26.2283 -47.8838L27.3908 -49.0528Z" fill="white" fill-opacity="0.07"/>
<path d="M42.004 -49.0528L40.8415 -50.2217L39.679 -49.0528L40.8415 -47.8838L42.004 -49.0528Z" fill="white" fill-opacity="0.07"/>
<path d="M56.6171 -49.0528L55.4546 -50.2217L54.2921 -49.0528L55.4546 -47.8838L56.6171 -49.0528Z" fill="white" fill-opacity="0.07"/>
<path d="M71.2303 -49.0528L70.0678 -50.2217L68.9053 -49.0528L70.0678 -47.8838L71.2303 -49.0528Z" fill="white" fill-opacity="0.07"/>
<path d="M85.8435 -49.0528L84.6811 -50.2217L83.5186 -49.0528L84.6811 -47.8838L85.8435 -49.0528Z" fill="white" fill-opacity="0.07"/>
<path d="M-45.6751 -34.3582L-46.8375 -35.5271L-48 -34.3582L-46.8375 -33.1892L-45.6751 -34.3582Z" fill="white" fill-opacity="0.07"/>
<path d="M-31.0618 -34.3582L-32.2243 -35.5271L-33.3868 -34.3582L-32.2243 -33.1892L-31.0618 -34.3582Z" fill="white" fill-opacity="0.07"/>
<path d="M-16.4488 -34.3582L-17.6112 -35.5271L-18.7737 -34.3582L-17.6112 -33.1892L-16.4488 -34.3582Z" fill="white" fill-opacity="0.07"/>
<path d="M-1.83552 -34.3582L-2.99799 -35.5271L-4.16047 -34.3582L-2.99799 -33.1892L-1.83552 -34.3582Z" fill="white" fill-opacity="0.07"/>
<path d="M12.7777 -34.3582L11.6152 -35.5271L10.4528 -34.3582L11.6152 -33.1892L12.7777 -34.3582Z" fill="white" fill-opacity="0.07"/>
<path d="M27.3908 -34.3582L26.2283 -35.5271L25.0658 -34.3582L26.2283 -33.1892L27.3908 -34.3582Z" fill="white" fill-opacity="0.07"/>
<path d="M42.004 -34.3582L40.8415 -35.5271L39.679 -34.3582L40.8415 -33.1892L42.004 -34.3582Z" fill="white" fill-opacity="0.07"/>
<path d="M56.6171 -34.3582L55.4546 -35.5271L54.2921 -34.3582L55.4546 -33.1892L56.6171 -34.3582Z" fill="white" fill-opacity="0.07"/>
<path d="M71.2303 -34.3582L70.0678 -35.5271L68.9053 -34.3582L70.0678 -33.1892L71.2303 -34.3582Z" fill="white" fill-opacity="0.07"/>
<path d="M85.8435 -34.3582L84.6811 -35.5271L83.5186 -34.3582L84.6811 -33.1892L85.8435 -34.3582Z" fill="white" fill-opacity="0.07"/>
<path d="M-45.6751 -19.6635L-46.8375 -20.8325L-48 -19.6635L-46.8375 -18.4946L-45.6751 -19.6635Z" fill="white" fill-opacity="0.07"/>
<path d="M-31.0618 -19.6635L-32.2243 -20.8325L-33.3868 -19.6635L-32.2243 -18.4946L-31.0618 -19.6635Z" fill="white" fill-opacity="0.07"/>
<path d="M-16.4488 -19.6635L-17.6112 -20.8325L-18.7737 -19.6635L-17.6112 -18.4946L-16.4488 -19.6635Z" fill="white" fill-opacity="0.07"/>
<path d="M-1.83552 -19.6635L-2.99799 -20.8325L-4.16047 -19.6635L-2.99799 -18.4946L-1.83552 -19.6635Z" fill="white" fill-opacity="0.07"/>
<path d="M12.7777 -19.6635L11.6152 -20.8325L10.4528 -19.6635L11.6152 -18.4946L12.7777 -19.6635Z" fill="white" fill-opacity="0.07"/>
<path d="M27.3908 -19.6635L26.2283 -20.8325L25.0658 -19.6635L26.2283 -18.4946L27.3908 -19.6635Z" fill="white" fill-opacity="0.07"/>
<path d="M42.004 -19.6635L40.8415 -20.8325L39.679 -19.6635L40.8415 -18.4946L42.004 -19.6635Z" fill="white" fill-opacity="0.07"/>
<path d="M56.6171 -19.6635L55.4546 -20.8325L54.2921 -19.6635L55.4546 -18.4946L56.6171 -19.6635Z" fill="white" fill-opacity="0.07"/>
<path d="M71.2303 -19.6635L70.0678 -20.8325L68.9053 -19.6635L70.0678 -18.4946L71.2303 -19.6635Z" fill="white" fill-opacity="0.07"/>
<path d="M85.8435 -19.6635L84.6811 -20.8325L83.5186 -19.6635L84.6811 -18.4946L85.8435 -19.6635Z" fill="white" fill-opacity="0.07"/>
<path d="M-45.6751 -4.96925L-46.8375 -6.13821L-48 -4.96925L-46.8375 -3.80032L-45.6751 -4.96925Z" fill="white" fill-opacity="0.07"/>
<path d="M-31.0618 -4.96925L-32.2243 -6.13821L-33.3868 -4.96925L-32.2243 -3.80032L-31.0618 -4.96925Z" fill="white" fill-opacity="0.07"/>
<path d="M-16.4488 -4.96925L-17.6112 -6.13821L-18.7737 -4.96925L-17.6112 -3.80032L-16.4488 -4.96925Z" fill="white" fill-opacity="0.07"/>
<path d="M-1.83552 -4.96925L-2.99799 -6.13821L-4.16047 -4.96925L-2.99799 -3.80032L-1.83552 -4.96925Z" fill="white" fill-opacity="0.07"/>
<path d="M12.7777 -4.96925L11.6152 -6.13821L10.4528 -4.96925L11.6152 -3.80032L12.7777 -4.96925Z" fill="white" fill-opacity="0.07"/>
<path d="M27.3908 -4.96925L26.2283 -6.13821L25.0658 -4.96925L26.2283 -3.80032L27.3908 -4.96925Z" fill="white" fill-opacity="0.07"/>
<path d="M42.004 -4.96925L40.8415 -6.13821L39.679 -4.96925L40.8415 -3.80032L42.004 -4.96925Z" fill="white" fill-opacity="0.07"/>
<path d="M56.6171 -4.96925L55.4546 -6.13821L54.2921 -4.96925L55.4546 -3.80032L56.6171 -4.96925Z" fill="white" fill-opacity="0.07"/>
<path d="M71.2303 -4.96925L70.0678 -6.13821L68.9053 -4.96925L70.0678 -3.80032L71.2303 -4.96925Z" fill="white" fill-opacity="0.07"/>
<path d="M85.8435 -4.96925L84.6811 -6.13821L83.5186 -4.96925L84.6811 -3.80032L85.8435 -4.96925Z" fill="white" fill-opacity="0.07"/>
<path d="M-45.6751 9.72552L-46.8375 8.55659L-48 9.72552L-46.8375 10.8945L-45.6751 9.72552Z" fill="white" fill-opacity="0.07"/>
<path d="M-31.0618 9.72552L-32.2243 8.55659L-33.3868 9.72552L-32.2243 10.8945L-31.0618 9.72552Z" fill="white" fill-opacity="0.07"/>
<path d="M-16.4488 9.72552L-17.6112 8.55659L-18.7737 9.72552L-17.6112 10.8945L-16.4488 9.72552Z" fill="white" fill-opacity="0.07"/>
<path d="M-1.83552 9.72552L-2.99799 8.55659L-4.16047 9.72552L-2.99799 10.8945L-1.83552 9.72552Z" fill="white" fill-opacity="0.07"/>
<path d="M12.7777 9.72552L11.6152 8.55659L10.4528 9.72552L11.6152 10.8945L12.7777 9.72552Z" fill="white" fill-opacity="0.07"/>
<path d="M27.3908 9.72552L26.2283 8.55659L25.0658 9.72552L26.2283 10.8945L27.3908 9.72552Z" fill="white" fill-opacity="0.07"/>
<path d="M42.004 9.72552L40.8415 8.55659L39.679 9.72552L40.8415 10.8945L42.004 9.72552Z" fill="white" fill-opacity="0.07"/>
<path d="M56.6171 9.72552L55.4546 8.55659L54.2921 9.72552L55.4546 10.8945L56.6171 9.72552Z" fill="white" fill-opacity="0.07"/>
<path d="M71.2303 9.72552L70.0678 8.55659L68.9053 9.72552L70.0678 10.8945L71.2303 9.72552Z" fill="white" fill-opacity="0.07"/>
<path d="M85.8435 9.72552L84.6811 8.55659L83.5186 9.72552L84.6811 10.8945L85.8435 9.72552Z" fill="white" fill-opacity="0.07"/>
<path d="M-45.6751 24.4202L-46.8375 23.2512L-48 24.4202L-46.8375 25.5891L-45.6751 24.4202Z" fill="white" fill-opacity="0.07"/>
<path d="M-31.0618 24.4202L-32.2243 23.2512L-33.3868 24.4202L-32.2243 25.5891L-31.0618 24.4202Z" fill="white" fill-opacity="0.07"/>
<path d="M-16.4488 24.4202L-17.6112 23.2512L-18.7737 24.4202L-17.6112 25.5891L-16.4488 24.4202Z" fill="white" fill-opacity="0.07"/>
<path d="M-1.83552 24.4202L-2.99799 23.2512L-4.16047 24.4202L-2.99799 25.5891L-1.83552 24.4202Z" fill="white" fill-opacity="0.07"/>
<path d="M12.7777 24.4202L11.6152 23.2512L10.4528 24.4202L11.6152 25.5891L12.7777 24.4202Z" fill="white" fill-opacity="0.07"/>
<path d="M27.3908 24.4202L26.2283 23.2512L25.0658 24.4202L26.2283 25.5891L27.3908 24.4202Z" fill="white" fill-opacity="0.07"/>
<path d="M42.004 24.4202L40.8415 23.2512L39.679 24.4202L40.8415 25.5891L42.004 24.4202Z" fill="white" fill-opacity="0.07"/>
<path d="M56.6171 24.4202L55.4546 23.2512L54.2921 24.4202L55.4546 25.5891L56.6171 24.4202Z" fill="white" fill-opacity="0.07"/>
<path d="M71.2303 24.4202L70.0678 23.2512L68.9053 24.4202L70.0678 25.5891L71.2303 24.4202Z" fill="white" fill-opacity="0.07"/>
<path d="M85.8435 24.4202L84.6811 23.2512L83.5186 24.4202L84.6811 25.5891L85.8435 24.4202Z" fill="white" fill-opacity="0.07"/>
<path d="M-45.6751 39.1146L-46.8375 37.9456L-48 39.1146L-46.8375 40.2835L-45.6751 39.1146Z" fill="white" fill-opacity="0.07"/>
<path d="M-31.0618 39.1146L-32.2243 37.9456L-33.3868 39.1146L-32.2243 40.2835L-31.0618 39.1146Z" fill="white" fill-opacity="0.07"/>
<path d="M-16.4488 39.1146L-17.6112 37.9456L-18.7737 39.1146L-17.6112 40.2835L-16.4488 39.1146Z" fill="white" fill-opacity="0.07"/>
<path d="M-1.83552 39.1146L-2.99799 37.9456L-4.16047 39.1146L-2.99799 40.2835L-1.83552 39.1146Z" fill="white" fill-opacity="0.07"/>
<path d="M12.7777 39.1146L11.6152 37.9456L10.4528 39.1146L11.6152 40.2835L12.7777 39.1146Z" fill="white" fill-opacity="0.07"/>
<path d="M27.3908 39.1146L26.2283 37.9456L25.0658 39.1146L26.2283 40.2835L27.3908 39.1146Z" fill="white" fill-opacity="0.07"/>
<path d="M42.004 39.1146L40.8415 37.9456L39.679 39.1146L40.8415 40.2835L42.004 39.1146Z" fill="white" fill-opacity="0.07"/>
<path d="M56.6171 39.1146L55.4546 37.9456L54.2921 39.1146L55.4546 40.2835L56.6171 39.1146Z" fill="white" fill-opacity="0.07"/>
<path d="M71.2303 39.1146L70.0678 37.9456L68.9053 39.1146L70.0678 40.2835L71.2303 39.1146Z" fill="white" fill-opacity="0.07"/>
<path d="M85.8435 39.1146L84.6811 37.9456L83.5186 39.1146L84.6811 40.2835L85.8435 39.1146Z" fill="white" fill-opacity="0.07"/>
<path d="M-45.6751 53.809L-46.8375 52.6401L-48 53.809L-46.8375 54.978L-45.6751 53.809Z" fill="white" fill-opacity="0.07"/>
<path d="M-31.0618 53.809L-32.2243 52.6401L-33.3868 53.809L-32.2243 54.978L-31.0618 53.809Z" fill="white" fill-opacity="0.07"/>
<path d="M-16.4488 53.809L-17.6112 52.6401L-18.7737 53.809L-17.6112 54.978L-16.4488 53.809Z" fill="white" fill-opacity="0.07"/>
<path d="M-1.83552 53.809L-2.99799 52.6401L-4.16047 53.809L-2.99799 54.978L-1.83552 53.809Z" fill="white" fill-opacity="0.07"/>
<path d="M12.7777 53.809L11.6152 52.6401L10.4528 53.809L11.6152 54.978L12.7777 53.809Z" fill="white" fill-opacity="0.07"/>
<path d="M27.3908 53.809L26.2283 52.6401L25.0658 53.809L26.2283 54.978L27.3908 53.809Z" fill="white" fill-opacity="0.07"/>
<path d="M42.004 53.809L40.8415 52.6401L39.679 53.809L40.8415 54.978L42.004 53.809Z" fill="white" fill-opacity="0.07"/>
<path d="M56.6171 53.809L55.4546 52.6401L54.2921 53.809L55.4546 54.978L56.6171 53.809Z" fill="white" fill-opacity="0.07"/>
<path d="M71.2303 53.809L70.0678 52.6401L68.9053 53.809L70.0678 54.978L71.2303 53.809Z" fill="white" fill-opacity="0.07"/>
<path d="M85.8435 53.809L84.6811 52.6401L83.5186 53.809L84.6811 54.978L85.8435 53.809Z" fill="white" fill-opacity="0.07"/>
<path d="M-45.6751 68.5038L-46.8375 67.3349L-48 68.5038L-46.8375 69.6728L-45.6751 68.5038Z" fill="white" fill-opacity="0.07"/>
<path d="M-31.0618 68.5038L-32.2243 67.3349L-33.3868 68.5038L-32.2243 69.6728L-31.0618 68.5038Z" fill="white" fill-opacity="0.07"/>
<path d="M-16.4488 68.5038L-17.6112 67.3349L-18.7737 68.5038L-17.6112 69.6728L-16.4488 68.5038Z" fill="white" fill-opacity="0.07"/>
<path d="M-1.83552 68.5038L-2.99799 67.3349L-4.16047 68.5038L-2.99799 69.6728L-1.83552 68.5038Z" fill="white" fill-opacity="0.07"/>
<path d="M12.7777 68.5038L11.6152 67.3349L10.4528 68.5038L11.6152 69.6728L12.7777 68.5038Z" fill="white" fill-opacity="0.07"/>
<path d="M27.3908 68.5038L26.2283 67.3349L25.0658 68.5038L26.2283 69.6728L27.3908 68.5038Z" fill="white" fill-opacity="0.07"/>
<path d="M42.004 68.5038L40.8415 67.3349L39.679 68.5038L40.8415 69.6728L42.004 68.5038Z" fill="white" fill-opacity="0.07"/>
<path d="M56.6171 68.5038L55.4546 67.3349L54.2921 68.5038L55.4546 69.6728L56.6171 68.5038Z" fill="white" fill-opacity="0.07"/>
<path d="M71.2303 68.5038L70.0678 67.3349L68.9053 68.5038L70.0678 69.6728L71.2303 68.5038Z" fill="white" fill-opacity="0.07"/>
<path d="M85.8435 68.5038L84.6811 67.3349L83.5186 68.5038L84.6811 69.6728L85.8435 68.5038Z" fill="white" fill-opacity="0.07"/>
<path d="M-45.6751 83.1982L-46.8375 82.0293L-48 83.1982L-46.8375 84.3672L-45.6751 83.1982Z" fill="white" fill-opacity="0.07"/>
<path d="M-31.0618 83.1982L-32.2243 82.0293L-33.3868 83.1982L-32.2243 84.3672L-31.0618 83.1982Z" fill="white" fill-opacity="0.07"/>
<path d="M-16.4488 83.1982L-17.6112 82.0293L-18.7737 83.1982L-17.6112 84.3672L-16.4488 83.1982Z" fill="white" fill-opacity="0.07"/>
<path d="M-1.83552 83.1982L-2.99799 82.0293L-4.16047 83.1982L-2.99799 84.3672L-1.83552 83.1982Z" fill="white" fill-opacity="0.07"/>
<path d="M12.7777 83.1982L11.6152 82.0293L10.4528 83.1982L11.6152 84.3672L12.7777 83.1982Z" fill="white" fill-opacity="0.07"/>
<path d="M27.3908 83.1982L26.2283 82.0293L25.0658 83.1982L26.2283 84.3672L27.3908 83.1982Z" fill="white" fill-opacity="0.07"/>
<path d="M42.004 83.1982L40.8415 82.0293L39.679 83.1982L40.8415 84.3672L42.004 83.1982Z" fill="white" fill-opacity="0.07"/>
<path d="M56.6171 83.1982L55.4546 82.0293L54.2921 83.1982L55.4546 84.3672L56.6171 83.1982Z" fill="white" fill-opacity="0.07"/>
<path d="M71.2303 83.1982L70.0678 82.0293L68.9053 83.1982L70.0678 84.3672L71.2303 83.1982Z" fill="white" fill-opacity="0.07"/>
<path d="M85.8435 83.1982L84.6811 82.0293L83.5186 83.1982L84.6811 84.3672L85.8435 83.1982Z" fill="white" fill-opacity="0.07"/>
<path d="M-45.6751 97.8927L-46.8375 96.7237L-48 97.8927L-46.8375 99.0616L-45.6751 97.8927Z" fill="white" fill-opacity="0.07"/>
<path d="M-31.0618 97.8927L-32.2243 96.7237L-33.3868 97.8927L-32.2243 99.0616L-31.0618 97.8927Z" fill="white" fill-opacity="0.07"/>
<path d="M-16.4488 97.8927L-17.6112 96.7237L-18.7737 97.8927L-17.6112 99.0616L-16.4488 97.8927Z" fill="white" fill-opacity="0.07"/>
<path d="M-1.83552 97.8927L-2.99799 96.7237L-4.16047 97.8927L-2.99799 99.0616L-1.83552 97.8927Z" fill="white" fill-opacity="0.07"/>
<path d="M12.7777 97.8927L11.6152 96.7237L10.4528 97.8927L11.6152 99.0616L12.7777 97.8927Z" fill="white" fill-opacity="0.07"/>
<path d="M27.3908 97.8927L26.2283 96.7237L25.0658 97.8927L26.2283 99.0616L27.3908 97.8927Z" fill="white" fill-opacity="0.07"/>
<path d="M42.004 97.8927L40.8415 96.7237L39.679 97.8927L40.8415 99.0616L42.004 97.8927Z" fill="white" fill-opacity="0.07"/>
<path d="M56.6171 97.8927L55.4546 96.7237L54.2921 97.8927L55.4546 99.0616L56.6171 97.8927Z" fill="white" fill-opacity="0.07"/>
<path d="M71.2303 97.8927L70.0678 96.7237L68.9053 97.8927L70.0678 99.0616L71.2303 97.8927Z" fill="white" fill-opacity="0.07"/>
<path d="M85.8435 97.8927L84.6811 96.7237L83.5186 97.8927L84.6811 99.0616L85.8435 97.8927Z" fill="white" fill-opacity="0.07"/>
<path d="M-45.6751 112.587L-46.8375 111.419L-48 112.587L-46.8375 113.756L-45.6751 112.587Z" fill="white" fill-opacity="0.07"/>
<path d="M-31.0618 112.587L-32.2243 111.419L-33.3868 112.587L-32.2243 113.756L-31.0618 112.587Z" fill="white" fill-opacity="0.07"/>
<path d="M-16.4488 112.587L-17.6112 111.419L-18.7737 112.587L-17.6112 113.756L-16.4488 112.587Z" fill="white" fill-opacity="0.07"/>
<path d="M-1.83552 112.587L-2.99799 111.419L-4.16047 112.587L-2.99799 113.756L-1.83552 112.587Z" fill="white" fill-opacity="0.07"/>
<path d="M12.7777 112.587L11.6152 111.419L10.4528 112.587L11.6152 113.756L12.7777 112.587Z" fill="white" fill-opacity="0.07"/>
<path d="M27.3908 112.587L26.2283 111.419L25.0658 112.587L26.2283 113.756L27.3908 112.587Z" fill="white" fill-opacity="0.07"/>
<path d="M42.004 112.587L40.8415 111.419L39.679 112.587L40.8415 113.756L42.004 112.587Z" fill="white" fill-opacity="0.07"/>
<path d="M56.6171 112.587L55.4546 111.419L54.2921 112.587L55.4546 113.756L56.6171 112.587Z" fill="white" fill-opacity="0.07"/>
<path d="M71.2303 112.587L70.0678 111.419L68.9053 112.587L70.0678 113.756L71.2303 112.587Z" fill="white" fill-opacity="0.07"/>
<path d="M85.8435 112.587L84.6811 111.419L83.5186 112.587L84.6811 113.756L85.8435 112.587Z" fill="white" fill-opacity="0.07"/>
<path d="M-45.6751 127.282L-46.8375 126.113L-48 127.282L-46.8375 128.451L-45.6751 127.282Z" fill="white" fill-opacity="0.07"/>
<path d="M-31.0618 127.282L-32.2243 126.113L-33.3868 127.282L-32.2243 128.451L-31.0618 127.282Z" fill="white" fill-opacity="0.07"/>
<path d="M-16.4488 127.282L-17.6112 126.113L-18.7737 127.282L-17.6112 128.451L-16.4488 127.282Z" fill="white" fill-opacity="0.07"/>
<path d="M-1.83552 127.282L-2.99799 126.113L-4.16047 127.282L-2.99799 128.451L-1.83552 127.282Z" fill="white" fill-opacity="0.07"/>
<path d="M12.7777 127.282L11.6152 126.113L10.4528 127.282L11.6152 128.451L12.7777 127.282Z" fill="white" fill-opacity="0.07"/>
<path d="M27.3908 127.282L26.2283 126.113L25.0658 127.282L26.2283 128.451L27.3908 127.282Z" fill="white" fill-opacity="0.07"/>
<path d="M42.004 127.282L40.8415 126.113L39.679 127.282L40.8415 128.451L42.004 127.282Z" fill="white" fill-opacity="0.07"/>
<path d="M56.6171 127.282L55.4546 126.113L54.2921 127.282L55.4546 128.451L56.6171 127.282Z" fill="white" fill-opacity="0.07"/>
<path d="M71.2303 127.282L70.0678 126.113L68.9053 127.282L70.0678 128.451L71.2303 127.282Z" fill="white" fill-opacity="0.07"/>
<path d="M85.8435 127.282L84.6811 126.113L83.5186 127.282L84.6811 128.451L85.8435 127.282Z" fill="white" fill-opacity="0.07"/>
<path d="M-45.6751 141.976L-46.8375 140.807L-48 141.976L-46.8375 143.145L-45.6751 141.976Z" fill="white" fill-opacity="0.07"/>
<path d="M-31.0618 141.976L-32.2243 140.807L-33.3868 141.976L-32.2243 143.145L-31.0618 141.976Z" fill="white" fill-opacity="0.07"/>
<path d="M-16.4488 141.976L-17.6112 140.807L-18.7737 141.976L-17.6112 143.145L-16.4488 141.976Z" fill="white" fill-opacity="0.07"/>
<path d="M-1.83552 141.976L-2.99799 140.807L-4.16047 141.976L-2.99799 143.145L-1.83552 141.976Z" fill="white" fill-opacity="0.07"/>
<path d="M12.7777 141.976L11.6152 140.807L10.4528 141.976L11.6152 143.145L12.7777 141.976Z" fill="white" fill-opacity="0.07"/>
<path d="M27.3908 141.976L26.2283 140.807L25.0658 141.976L26.2283 143.145L27.3908 141.976Z" fill="white" fill-opacity="0.07"/>
<path d="M42.004 141.976L40.8415 140.807L39.679 141.976L40.8415 143.145L42.004 141.976Z" fill="white" fill-opacity="0.07"/>
<path d="M56.6171 141.976L55.4546 140.807L54.2921 141.976L55.4546 143.145L56.6171 141.976Z" fill="white" fill-opacity="0.07"/>
<path d="M71.2303 141.976L70.0678 140.807L68.9053 141.976L70.0678 143.145L71.2303 141.976Z" fill="white" fill-opacity="0.07"/>
<path d="M85.8435 141.976L84.6811 140.807L83.5186 141.976L84.6811 143.145L85.8435 141.976Z" fill="white" fill-opacity="0.07"/>
<path d="M-45.6751 156.671L-46.8375 155.502L-48 156.671L-46.8375 157.84L-45.6751 156.671Z" fill="white" fill-opacity="0.07"/>
<path d="M-31.0618 156.671L-32.2243 155.502L-33.3868 156.671L-32.2243 157.84L-31.0618 156.671Z" fill="white" fill-opacity="0.07"/>
<path d="M-16.4488 156.671L-17.6112 155.502L-18.7737 156.671L-17.6112 157.84L-16.4488 156.671Z" fill="white" fill-opacity="0.07"/>
<path d="M-1.83552 156.671L-2.99799 155.502L-4.16047 156.671L-2.99799 157.84L-1.83552 156.671Z" fill="white" fill-opacity="0.07"/>
<path d="M12.7777 156.671L11.6152 155.502L10.4528 156.671L11.6152 157.84L12.7777 156.671Z" fill="white" fill-opacity="0.07"/>
<path d="M27.3908 156.671L26.2283 155.502L25.0658 156.671L26.2283 157.84L27.3908 156.671Z" fill="white" fill-opacity="0.07"/>
<path d="M42.004 156.671L40.8415 155.502L39.679 156.671L40.8415 157.84L42.004 156.671Z" fill="white" fill-opacity="0.07"/>
<path d="M56.6171 156.671L55.4546 155.502L54.2921 156.671L55.4546 157.84L56.6171 156.671Z" fill="white" fill-opacity="0.07"/>
<path d="M71.2303 156.671L70.0678 155.502L68.9053 156.671L70.0678 157.84L71.2303 156.671Z" fill="white" fill-opacity="0.07"/>
<path d="M85.8435 156.671L84.6811 155.502L83.5186 156.671L84.6811 157.84L85.8435 156.671Z" fill="white" fill-opacity="0.07"/>
<path d="M99.4643 -107.831L98.3018 -109L97.1394 -107.831L98.3018 -106.662L99.4643 -107.831Z" fill="white" fill-opacity="0.07"/>
<path d="M114.077 -107.831L112.915 -109L111.752 -107.831L112.915 -106.662L114.077 -107.831Z" fill="white" fill-opacity="0.07"/>
<path d="M128.691 -107.831L127.528 -109L126.366 -107.831L127.528 -106.662L128.691 -107.831Z" fill="white" fill-opacity="0.07"/>
<path d="M143.304 -107.831L142.141 -109L140.979 -107.831L142.141 -106.662L143.304 -107.831Z" fill="white" fill-opacity="0.07"/>
<path d="M157.917 -107.831L156.754 -109L155.592 -107.831L156.754 -106.662L157.917 -107.831Z" fill="white" fill-opacity="0.07"/>
<path d="M172.53 -107.831L171.368 -109L170.205 -107.831L171.368 -106.662L172.53 -107.831Z" fill="white" fill-opacity="0.07"/>
<path d="M187.143 -107.831L185.981 -109L184.818 -107.831L185.981 -106.662L187.143 -107.831Z" fill="white" fill-opacity="0.07"/>
<path d="M201.756 -107.831L200.594 -109L199.431 -107.831L200.594 -106.662L201.756 -107.831Z" fill="white" fill-opacity="0.07"/>
<path d="M216.369 -107.831L215.207 -109L214.045 -107.831L215.207 -106.662L216.369 -107.831Z" fill="white" fill-opacity="0.07"/>
<path d="M230.983 -107.831L229.82 -109L228.658 -107.831L229.82 -106.662L230.983 -107.831Z" fill="white" fill-opacity="0.07"/>
<path d="M99.4643 -93.1364L98.3018 -94.3054L97.1394 -93.1364L98.3018 -91.9675L99.4643 -93.1364Z" fill="white" fill-opacity="0.07"/>
<path d="M114.077 -93.1364L112.915 -94.3054L111.752 -93.1364L112.915 -91.9675L114.077 -93.1364Z" fill="white" fill-opacity="0.07"/>
<path d="M128.691 -93.1364L127.528 -94.3054L126.366 -93.1364L127.528 -91.9675L128.691 -93.1364Z" fill="white" fill-opacity="0.07"/>
<path d="M143.304 -93.1364L142.141 -94.3054L140.979 -93.1364L142.141 -91.9675L143.304 -93.1364Z" fill="white" fill-opacity="0.07"/>
<path d="M157.917 -93.1364L156.754 -94.3054L155.592 -93.1364L156.754 -91.9675L157.917 -93.1364Z" fill="white" fill-opacity="0.07"/>
<path d="M172.53 -93.1364L171.368 -94.3054L170.205 -93.1364L171.368 -91.9675L172.53 -93.1364Z" fill="white" fill-opacity="0.07"/>
<path d="M187.143 -93.1364L185.981 -94.3054L184.818 -93.1364L185.981 -91.9675L187.143 -93.1364Z" fill="white" fill-opacity="0.07"/>
<path d="M201.756 -93.1364L200.594 -94.3054L199.431 -93.1364L200.594 -91.9675L201.756 -93.1364Z" fill="white" fill-opacity="0.07"/>
<path d="M216.369 -93.1364L215.207 -94.3054L214.045 -93.1364L215.207 -91.9675L216.369 -93.1364Z" fill="white" fill-opacity="0.07"/>
<path d="M230.983 -93.1364L229.82 -94.3054L228.658 -93.1364L229.82 -91.9675L230.983 -93.1364Z" fill="white" fill-opacity="0.07"/>
<path d="M99.4643 -78.4418L98.3018 -79.6108L97.1394 -78.4418L98.3018 -77.2729L99.4643 -78.4418Z" fill="white" fill-opacity="0.07"/>
<path d="M114.077 -78.4418L112.915 -79.6108L111.752 -78.4418L112.915 -77.2729L114.077 -78.4418Z" fill="white" fill-opacity="0.07"/>
<path d="M128.691 -78.4418L127.528 -79.6108L126.366 -78.4418L127.528 -77.2729L128.691 -78.4418Z" fill="white" fill-opacity="0.07"/>
<path d="M143.304 -78.4418L142.141 -79.6108L140.979 -78.4418L142.141 -77.2729L143.304 -78.4418Z" fill="white" fill-opacity="0.07"/>
<path d="M157.917 -78.4418L156.754 -79.6108L155.592 -78.4418L156.754 -77.2729L157.917 -78.4418Z" fill="white" fill-opacity="0.07"/>
<path d="M172.53 -78.4418L171.368 -79.6108L170.205 -78.4418L171.368 -77.2729L172.53 -78.4418Z" fill="white" fill-opacity="0.07"/>
<path d="M187.143 -78.4418L185.981 -79.6108L184.818 -78.4418L185.981 -77.2729L187.143 -78.4418Z" fill="white" fill-opacity="0.07"/>
<path d="M201.756 -78.4418L200.594 -79.6108L199.431 -78.4418L200.594 -77.2729L201.756 -78.4418Z" fill="white" fill-opacity="0.07"/>
<path d="M216.369 -78.4418L215.207 -79.6108L214.045 -78.4418L215.207 -77.2729L216.369 -78.4418Z" fill="white" fill-opacity="0.07"/>
<path d="M230.983 -78.4418L229.82 -79.6108L228.658 -78.4418L229.82 -77.2729L230.983 -78.4418Z" fill="white" fill-opacity="0.07"/>
<path d="M99.4643 -63.7472L98.3018 -64.9162L97.1394 -63.7472L98.3018 -62.5783L99.4643 -63.7472Z" fill="white" fill-opacity="0.07"/>
<path d="M114.077 -63.7472L112.915 -64.9162L111.752 -63.7472L112.915 -62.5783L114.077 -63.7472Z" fill="white" fill-opacity="0.07"/>
<path d="M128.691 -63.7472L127.528 -64.9162L126.366 -63.7472L127.528 -62.5783L128.691 -63.7472Z" fill="white" fill-opacity="0.07"/>
<path d="M143.304 -63.7472L142.141 -64.9162L140.979 -63.7472L142.141 -62.5783L143.304 -63.7472Z" fill="white" fill-opacity="0.07"/>
<path d="M157.917 -63.7472L156.754 -64.9162L155.592 -63.7472L156.754 -62.5783L157.917 -63.7472Z" fill="white" fill-opacity="0.07"/>
<path d="M172.53 -63.7472L171.368 -64.9162L170.205 -63.7472L171.368 -62.5783L172.53 -63.7472Z" fill="white" fill-opacity="0.07"/>
<path d="M187.143 -63.7472L185.981 -64.9162L184.818 -63.7472L185.981 -62.5783L187.143 -63.7472Z" fill="white" fill-opacity="0.07"/>
<path d="M201.756 -63.7472L200.594 -64.9162L199.431 -63.7472L200.594 -62.5783L201.756 -63.7472Z" fill="white" fill-opacity="0.07"/>
<path d="M216.369 -63.7472L215.207 -64.9162L214.045 -63.7472L215.207 -62.5783L216.369 -63.7472Z" fill="white" fill-opacity="0.07"/>
<path d="M230.983 -63.7472L229.82 -64.9162L228.658 -63.7472L229.82 -62.5783L230.983 -63.7472Z" fill="white" fill-opacity="0.07"/>
<path d="M99.4643 -49.0528L98.3018 -50.2217L97.1394 -49.0528L98.3018 -47.8838L99.4643 -49.0528Z" fill="white" fill-opacity="0.07"/>
<path d="M114.077 -49.0528L112.915 -50.2217L111.752 -49.0528L112.915 -47.8838L114.077 -49.0528Z" fill="white" fill-opacity="0.07"/>
<path d="M128.691 -49.0528L127.528 -50.2217L126.366 -49.0528L127.528 -47.8838L128.691 -49.0528Z" fill="white" fill-opacity="0.07"/>
<path d="M143.304 -49.0528L142.141 -50.2217L140.979 -49.0528L142.141 -47.8838L143.304 -49.0528Z" fill="white" fill-opacity="0.07"/>
<path d="M157.917 -49.0528L156.754 -50.2217L155.592 -49.0528L156.754 -47.8838L157.917 -49.0528Z" fill="white" fill-opacity="0.07"/>
<path d="M172.53 -49.0528L171.368 -50.2217L170.205 -49.0528L171.368 -47.8838L172.53 -49.0528Z" fill="white" fill-opacity="0.07"/>
<path d="M187.143 -49.0528L185.981 -50.2217L184.818 -49.0528L185.981 -47.8838L187.143 -49.0528Z" fill="white" fill-opacity="0.07"/>
<path d="M201.756 -49.0528L200.594 -50.2217L199.431 -49.0528L200.594 -47.8838L201.756 -49.0528Z" fill="white" fill-opacity="0.07"/>
<path d="M216.369 -49.0528L215.207 -50.2217L214.045 -49.0528L215.207 -47.8838L216.369 -49.0528Z" fill="white" fill-opacity="0.07"/>
<path d="M230.983 -49.0528L229.82 -50.2217L228.658 -49.0528L229.82 -47.8838L230.983 -49.0528Z" fill="white" fill-opacity="0.07"/>
<path d="M99.4643 -34.3582L98.3018 -35.5271L97.1394 -34.3582L98.3018 -33.1892L99.4643 -34.3582Z" fill="white" fill-opacity="0.07"/>
<path d="M114.077 -34.3582L112.915 -35.5271L111.752 -34.3582L112.915 -33.1892L114.077 -34.3582Z" fill="white" fill-opacity="0.07"/>
<path d="M128.691 -34.3582L127.528 -35.5271L126.366 -34.3582L127.528 -33.1892L128.691 -34.3582Z" fill="white" fill-opacity="0.07"/>
<path d="M143.304 -34.3582L142.141 -35.5271L140.979 -34.3582L142.141 -33.1892L143.304 -34.3582Z" fill="white" fill-opacity="0.07"/>
<path d="M157.917 -34.3582L156.754 -35.5271L155.592 -34.3582L156.754 -33.1892L157.917 -34.3582Z" fill="white" fill-opacity="0.07"/>
<path d="M172.53 -34.3582L171.368 -35.5271L170.205 -34.3582L171.368 -33.1892L172.53 -34.3582Z" fill="white" fill-opacity="0.07"/>
<path d="M187.143 -34.3582L185.981 -35.5271L184.818 -34.3582L185.981 -33.1892L187.143 -34.3582Z" fill="white" fill-opacity="0.07"/>
<path d="M201.756 -34.3582L200.594 -35.5271L199.431 -34.3582L200.594 -33.1892L201.756 -34.3582Z" fill="white" fill-opacity="0.07"/>
<path d="M216.369 -34.3582L215.207 -35.5271L214.045 -34.3582L215.207 -33.1892L216.369 -34.3582Z" fill="white" fill-opacity="0.07"/>
<path d="M230.983 -34.3582L229.82 -35.5271L228.658 -34.3582L229.82 -33.1892L230.983 -34.3582Z" fill="white" fill-opacity="0.07"/>
<path d="M99.4643 -19.6635L98.3018 -20.8325L97.1394 -19.6635L98.3018 -18.4946L99.4643 -19.6635Z" fill="white" fill-opacity="0.07"/>
<path d="M114.077 -19.6635L112.915 -20.8325L111.752 -19.6635L112.915 -18.4946L114.077 -19.6635Z" fill="white" fill-opacity="0.07"/>
<path d="M128.691 -19.6635L127.528 -20.8325L126.366 -19.6635L127.528 -18.4946L128.691 -19.6635Z" fill="white" fill-opacity="0.07"/>
<path d="M143.304 -19.6635L142.141 -20.8325L140.979 -19.6635L142.141 -18.4946L143.304 -19.6635Z" fill="white" fill-opacity="0.07"/>
<path d="M157.917 -19.6635L156.754 -20.8325L155.592 -19.6635L156.754 -18.4946L157.917 -19.6635Z" fill="white" fill-opacity="0.07"/>
<path d="M172.53 -19.6635L171.368 -20.8325L170.205 -19.6635L171.368 -18.4946L172.53 -19.6635Z" fill="white" fill-opacity="0.07"/>
<path d="M187.143 -19.6635L185.981 -20.8325L184.818 -19.6635L185.981 -18.4946L187.143 -19.6635Z" fill="white" fill-opacity="0.07"/>
<path d="M201.756 -19.6635L200.594 -20.8325L199.431 -19.6635L200.594 -18.4946L201.756 -19.6635Z" fill="white" fill-opacity="0.07"/>
<path d="M216.369 -19.6635L215.207 -20.8325L214.045 -19.6635L215.207 -18.4946L216.369 -19.6635Z" fill="white" fill-opacity="0.07"/>
<path d="M230.983 -19.6635L229.82 -20.8325L228.658 -19.6635L229.82 -18.4946L230.983 -19.6635Z" fill="white" fill-opacity="0.07"/>
<path d="M99.4643 -4.96925L98.3018 -6.13821L97.1394 -4.96925L98.3018 -3.80032L99.4643 -4.96925Z" fill="white" fill-opacity="0.07"/>
<path d="M114.077 -4.96925L112.915 -6.13821L111.752 -4.96925L112.915 -3.80032L114.077 -4.96925Z" fill="white" fill-opacity="0.07"/>
<path d="M128.691 -4.96925L127.528 -6.13821L126.366 -4.96925L127.528 -3.80032L128.691 -4.96925Z" fill="white" fill-opacity="0.07"/>
<path d="M143.304 -4.96925L142.141 -6.13821L140.979 -4.96925L142.141 -3.80032L143.304 -4.96925Z" fill="white" fill-opacity="0.07"/>
<path d="M157.917 -4.96925L156.754 -6.13821L155.592 -4.96925L156.754 -3.80032L157.917 -4.96925Z" fill="white" fill-opacity="0.07"/>
<path d="M172.53 -4.96925L171.368 -6.13821L170.205 -4.96925L171.368 -3.80032L172.53 -4.96925Z" fill="white" fill-opacity="0.07"/>
<path d="M187.143 -4.96925L185.981 -6.13821L184.818 -4.96925L185.981 -3.80032L187.143 -4.96925Z" fill="white" fill-opacity="0.07"/>
<path d="M201.756 -4.96925L200.594 -6.13821L199.431 -4.96925L200.594 -3.80032L201.756 -4.96925Z" fill="white" fill-opacity="0.07"/>
<path d="M216.369 -4.96925L215.207 -6.13821L214.045 -4.96925L215.207 -3.80032L216.369 -4.96925Z" fill="white" fill-opacity="0.07"/>
<path d="M230.983 -4.96925L229.82 -6.13821L228.658 -4.96925L229.82 -3.80032L230.983 -4.96925Z" fill="white" fill-opacity="0.07"/>
<path d="M99.4643 9.72552L98.3018 8.55657L97.1394 9.72552L98.3018 10.8945L99.4643 9.72552Z" fill="white" fill-opacity="0.07"/>
<path d="M114.077 9.72552L112.915 8.55657L111.752 9.72552L112.915 10.8945L114.077 9.72552Z" fill="white" fill-opacity="0.07"/>
<path d="M128.691 9.72552L127.528 8.55657L126.366 9.72552L127.528 10.8945L128.691 9.72552Z" fill="white" fill-opacity="0.07"/>
<path d="M143.304 9.72552L142.141 8.55657L140.979 9.72552L142.141 10.8945L143.304 9.72552Z" fill="white" fill-opacity="0.07"/>
<path d="M157.917 9.72552L156.754 8.55657L155.592 9.72552L156.754 10.8945L157.917 9.72552Z" fill="white" fill-opacity="0.07"/>
<path d="M172.53 9.72552L171.368 8.55657L170.205 9.72552L171.368 10.8945L172.53 9.72552Z" fill="white" fill-opacity="0.07"/>
<path d="M187.143 9.72552L185.981 8.55657L184.818 9.72552L185.981 10.8945L187.143 9.72552Z" fill="white" fill-opacity="0.07"/>
<path d="M201.756 9.72552L200.594 8.55657L199.431 9.72552L200.594 10.8945L201.756 9.72552Z" fill="white" fill-opacity="0.07"/>
<path d="M216.369 9.72552L215.207 8.55657L214.045 9.72552L215.207 10.8945L216.369 9.72552Z" fill="white" fill-opacity="0.07"/>
<path d="M230.983 9.72552L229.82 8.55657L228.658 9.72552L229.82 10.8945L230.983 9.72552Z" fill="white" fill-opacity="0.07"/>
<path d="M99.4643 24.4202L98.3018 23.2512L97.1394 24.4202L98.3018 25.5891L99.4643 24.4202Z" fill="white" fill-opacity="0.07"/>
<path d="M114.077 24.4202L112.915 23.2512L111.752 24.4202L112.915 25.5891L114.077 24.4202Z" fill="white" fill-opacity="0.07"/>
<path d="M128.691 24.4202L127.528 23.2512L126.366 24.4202L127.528 25.5891L128.691 24.4202Z" fill="white" fill-opacity="0.07"/>
<path d="M143.304 24.4202L142.141 23.2512L140.979 24.4202L142.141 25.5891L143.304 24.4202Z" fill="white" fill-opacity="0.07"/>
<path d="M157.917 24.4202L156.754 23.2512L155.592 24.4202L156.754 25.5891L157.917 24.4202Z" fill="white" fill-opacity="0.07"/>
<path d="M172.53 24.4202L171.368 23.2512L170.205 24.4202L171.368 25.5891L172.53 24.4202Z" fill="white" fill-opacity="0.07"/>
<path d="M187.143 24.4202L185.981 23.2512L184.818 24.4202L185.981 25.5891L187.143 24.4202Z" fill="white" fill-opacity="0.07"/>
<path d="M201.756 24.4202L200.594 23.2512L199.431 24.4202L200.594 25.5891L201.756 24.4202Z" fill="white" fill-opacity="0.07"/>
<path d="M216.369 24.4202L215.207 23.2512L214.045 24.4202L215.207 25.5891L216.369 24.4202Z" fill="white" fill-opacity="0.07"/>
<path d="M230.983 24.4202L229.82 23.2512L228.658 24.4202L229.82 25.5891L230.983 24.4202Z" fill="white" fill-opacity="0.07"/>
<path d="M99.4643 39.1146L98.3018 37.9456L97.1394 39.1146L98.3018 40.2835L99.4643 39.1146Z" fill="white" fill-opacity="0.07"/>
<path d="M114.077 39.1146L112.915 37.9456L111.752 39.1146L112.915 40.2835L114.077 39.1146Z" fill="white" fill-opacity="0.07"/>
<path d="M128.691 39.1146L127.528 37.9456L126.366 39.1146L127.528 40.2835L128.691 39.1146Z" fill="white" fill-opacity="0.07"/>
<path d="M143.304 39.1146L142.141 37.9456L140.979 39.1146L142.141 40.2835L143.304 39.1146Z" fill="white" fill-opacity="0.07"/>
<path d="M157.917 39.1146L156.754 37.9456L155.592 39.1146L156.754 40.2835L157.917 39.1146Z" fill="white" fill-opacity="0.07"/>
<path d="M172.53 39.1146L171.368 37.9456L170.205 39.1146L171.368 40.2835L172.53 39.1146Z" fill="white" fill-opacity="0.07"/>
<path d="M187.143 39.1146L185.981 37.9456L184.818 39.1146L185.981 40.2835L187.143 39.1146Z" fill="white" fill-opacity="0.07"/>
<path d="M201.756 39.1146L200.594 37.9456L199.431 39.1146L200.594 40.2835L201.756 39.1146Z" fill="white" fill-opacity="0.07"/>
<path d="M216.369 39.1146L215.207 37.9456L214.045 39.1146L215.207 40.2835L216.369 39.1146Z" fill="white" fill-opacity="0.07"/>
<path d="M230.983 39.1146L229.82 37.9456L228.658 39.1146L229.82 40.2835L230.983 39.1146Z" fill="white" fill-opacity="0.07"/>
<path d="M99.4643 53.809L98.3018 52.6401L97.1394 53.809L98.3018 54.978L99.4643 53.809Z" fill="white" fill-opacity="0.07"/>
<path d="M114.077 53.809L112.915 52.6401L111.752 53.809L112.915 54.978L114.077 53.809Z" fill="white" fill-opacity="0.07"/>
<path d="M128.691 53.809L127.528 52.6401L126.366 53.809L127.528 54.978L128.691 53.809Z" fill="white" fill-opacity="0.07"/>
<path d="M143.304 53.809L142.141 52.6401L140.979 53.809L142.141 54.978L143.304 53.809Z" fill="white" fill-opacity="0.07"/>
<path d="M157.917 53.809L156.754 52.6401L155.592 53.809L156.754 54.978L157.917 53.809Z" fill="white" fill-opacity="0.07"/>
<path d="M172.53 53.809L171.368 52.6401L170.205 53.809L171.368 54.978L172.53 53.809Z" fill="white" fill-opacity="0.07"/>
<path d="M187.143 53.809L185.981 52.6401L184.818 53.809L185.981 54.978L187.143 53.809Z" fill="white" fill-opacity="0.07"/>
<path d="M201.756 53.809L200.594 52.6401L199.431 53.809L200.594 54.978L201.756 53.809Z" fill="white" fill-opacity="0.07"/>
<path d="M216.369 53.809L215.207 52.6401L214.045 53.809L215.207 54.978L216.369 53.809Z" fill="white" fill-opacity="0.07"/>
<path d="M230.983 53.809L229.82 52.6401L228.658 53.809L229.82 54.978L230.983 53.809Z" fill="white" fill-opacity="0.07"/>
<path d="M99.4643 68.5038L98.3018 67.3349L97.1394 68.5038L98.3018 69.6728L99.4643 68.5038Z" fill="white" fill-opacity="0.07"/>
<path d="M114.077 68.5038L112.915 67.3349L111.752 68.5038L112.915 69.6728L114.077 68.5038Z" fill="white" fill-opacity="0.07"/>
<path d="M128.691 68.5038L127.528 67.3349L126.366 68.5038L127.528 69.6728L128.691 68.5038Z" fill="white" fill-opacity="0.07"/>
<path d="M143.304 68.5038L142.141 67.3349L140.979 68.5038L142.141 69.6728L143.304 68.5038Z" fill="white" fill-opacity="0.07"/>
<path d="M157.917 68.5038L156.754 67.3349L155.592 68.5038L156.754 69.6728L157.917 68.5038Z" fill="white" fill-opacity="0.07"/>
<path d="M172.53 68.5038L171.368 67.3349L170.205 68.5038L171.368 69.6728L172.53 68.5038Z" fill="white" fill-opacity="0.07"/>
<path d="M187.143 68.5038L185.981 67.3349L184.818 68.5038L185.981 69.6728L187.143 68.5038Z" fill="white" fill-opacity="0.07"/>
<path d="M201.756 68.5038L200.594 67.3349L199.431 68.5038L200.594 69.6728L201.756 68.5038Z" fill="white" fill-opacity="0.07"/>
<path d="M216.369 68.5038L215.207 67.3349L214.045 68.5038L215.207 69.6728L216.369 68.5038Z" fill="white" fill-opacity="0.07"/>
<path d="M230.983 68.5038L229.82 67.3349L228.658 68.5038L229.82 69.6728L230.983 68.5038Z" fill="white" fill-opacity="0.07"/>
<path d="M99.4643 83.1982L98.3018 82.0293L97.1394 83.1982L98.3018 84.3672L99.4643 83.1982Z" fill="white" fill-opacity="0.07"/>
<path d="M114.077 83.1982L112.915 82.0293L111.752 83.1982L112.915 84.3672L114.077 83.1982Z" fill="white" fill-opacity="0.07"/>
<path d="M128.691 83.1982L127.528 82.0293L126.366 83.1982L127.528 84.3672L128.691 83.1982Z" fill="white" fill-opacity="0.07"/>
<path d="M143.304 83.1982L142.141 82.0293L140.979 83.1982L142.141 84.3672L143.304 83.1982Z" fill="white" fill-opacity="0.07"/>
<path d="M157.917 83.1982L156.754 82.0293L155.592 83.1982L156.754 84.3672L157.917 83.1982Z" fill="white" fill-opacity="0.07"/>
<path d="M172.53 83.1982L171.368 82.0293L170.205 83.1982L171.368 84.3672L172.53 83.1982Z" fill="white" fill-opacity="0.07"/>
<path d="M187.143 83.1982L185.981 82.0293L184.818 83.1982L185.981 84.3672L187.143 83.1982Z" fill="white" fill-opacity="0.07"/>
<path d="M201.756 83.1982L200.594 82.0293L199.431 83.1982L200.594 84.3672L201.756 83.1982Z" fill="white" fill-opacity="0.07"/>
<path d="M216.369 83.1982L215.207 82.0293L214.045 83.1982L215.207 84.3672L216.369 83.1982Z" fill="white" fill-opacity="0.07"/>
<path d="M230.983 83.1982L229.82 82.0293L228.658 83.1982L229.82 84.3672L230.983 83.1982Z" fill="white" fill-opacity="0.07"/>
<path d="M99.4643 97.8927L98.3018 96.7237L97.1394 97.8927L98.3018 99.0616L99.4643 97.8927Z" fill="white" fill-opacity="0.07"/>
<path d="M114.077 97.8927L112.915 96.7237L111.752 97.8927L112.915 99.0616L114.077 97.8927Z" fill="white" fill-opacity="0.07"/>
<path d="M128.691 97.8927L127.528 96.7237L126.366 97.8927L127.528 99.0616L128.691 97.8927Z" fill="white" fill-opacity="0.07"/>
<path d="M143.304 97.8927L142.141 96.7237L140.979 97.8927L142.141 99.0616L143.304 97.8927Z" fill="white" fill-opacity="0.07"/>
<path d="M157.917 97.8927L156.754 96.7237L155.592 97.8927L156.754 99.0616L157.917 97.8927Z" fill="white" fill-opacity="0.07"/>
<path d="M172.53 97.8927L171.368 96.7237L170.205 97.8927L171.368 99.0616L172.53 97.8927Z" fill="white" fill-opacity="0.07"/>
<path d="M187.143 97.8927L185.981 96.7237L184.818 97.8927L185.981 99.0616L187.143 97.8927Z" fill="white" fill-opacity="0.07"/>
<path d="M201.756 97.8927L200.594 96.7237L199.431 97.8927L200.594 99.0616L201.756 97.8927Z" fill="white" fill-opacity="0.07"/>
<path d="M216.369 97.8927L215.207 96.7237L214.045 97.8927L215.207 99.0616L216.369 97.8927Z" fill="white" fill-opacity="0.07"/>
<path d="M230.983 97.8927L229.82 96.7237L228.658 97.8927L229.82 99.0616L230.983 97.8927Z" fill="white" fill-opacity="0.07"/>
<path d="M99.4643 112.587L98.3018 111.419L97.1394 112.587L98.3018 113.756L99.4643 112.587Z" fill="white" fill-opacity="0.07"/>
<path d="M114.077 112.587L112.915 111.419L111.752 112.587L112.915 113.756L114.077 112.587Z" fill="white" fill-opacity="0.07"/>
<path d="M128.691 112.587L127.528 111.419L126.366 112.587L127.528 113.756L128.691 112.587Z" fill="white" fill-opacity="0.07"/>
<path d="M143.304 112.587L142.141 111.419L140.979 112.587L142.141 113.756L143.304 112.587Z" fill="white" fill-opacity="0.07"/>
<path d="M157.917 112.587L156.754 111.419L155.592 112.587L156.754 113.756L157.917 112.587Z" fill="white" fill-opacity="0.07"/>
<path d="M172.53 112.587L171.368 111.419L170.205 112.587L171.368 113.756L172.53 112.587Z" fill="white" fill-opacity="0.07"/>
<path d="M187.143 112.587L185.981 111.419L184.818 112.587L185.981 113.756L187.143 112.587Z" fill="white" fill-opacity="0.07"/>
<path d="M201.756 112.587L200.594 111.419L199.431 112.587L200.594 113.756L201.756 112.587Z" fill="white" fill-opacity="0.07"/>
<path d="M216.369 112.587L215.207 111.419L214.045 112.587L215.207 113.756L216.369 112.587Z" fill="white" fill-opacity="0.07"/>
<path d="M230.983 112.587L229.82 111.419L228.658 112.587L229.82 113.756L230.983 112.587Z" fill="white" fill-opacity="0.07"/>
<path d="M99.4643 127.282L98.3018 126.113L97.1394 127.282L98.3018 128.451L99.4643 127.282Z" fill="white" fill-opacity="0.07"/>
<path d="M114.077 127.282L112.915 126.113L111.752 127.282L112.915 128.451L114.077 127.282Z" fill="white" fill-opacity="0.07"/>
<path d="M128.691 127.282L127.528 126.113L126.366 127.282L127.528 128.451L128.691 127.282Z" fill="white" fill-opacity="0.07"/>
<path d="M143.304 127.282L142.141 126.113L140.979 127.282L142.141 128.451L143.304 127.282Z" fill="white" fill-opacity="0.07"/>
<path d="M157.917 127.282L156.754 126.113L155.592 127.282L156.754 128.451L157.917 127.282Z" fill="white" fill-opacity="0.07"/>
<path d="M172.53 127.282L171.368 126.113L170.205 127.282L171.368 128.451L172.53 127.282Z" fill="white" fill-opacity="0.07"/>
<path d="M187.143 127.282L185.981 126.113L184.818 127.282L185.981 128.451L187.143 127.282Z" fill="white" fill-opacity="0.07"/>
<path d="M201.756 127.282L200.594 126.113L199.431 127.282L200.594 128.451L201.756 127.282Z" fill="white" fill-opacity="0.07"/>
<path d="M216.369 127.282L215.207 126.113L214.045 127.282L215.207 128.451L216.369 127.282Z" fill="white" fill-opacity="0.07"/>
<path d="M230.983 127.282L229.82 126.113L228.658 127.282L229.82 128.451L230.983 127.282Z" fill="white" fill-opacity="0.07"/>
<path d="M99.4643 141.976L98.3018 140.807L97.1394 141.976L98.3018 143.145L99.4643 141.976Z" fill="white" fill-opacity="0.07"/>
<path d="M114.077 141.976L112.915 140.807L111.752 141.976L112.915 143.145L114.077 141.976Z" fill="white" fill-opacity="0.07"/>
<path d="M128.691 141.976L127.528 140.807L126.366 141.976L127.528 143.145L128.691 141.976Z" fill="white" fill-opacity="0.07"/>
<path d="M143.304 141.976L142.141 140.807L140.979 141.976L142.141 143.145L143.304 141.976Z" fill="white" fill-opacity="0.07"/>
<path d="M157.917 141.976L156.754 140.807L155.592 141.976L156.754 143.145L157.917 141.976Z" fill="white" fill-opacity="0.07"/>
<path d="M172.53 141.976L171.368 140.807L170.205 141.976L171.368 143.145L172.53 141.976Z" fill="white" fill-opacity="0.07"/>
<path d="M187.143 141.976L185.981 140.807L184.818 141.976L185.981 143.145L187.143 141.976Z" fill="white" fill-opacity="0.07"/>
<path d="M201.756 141.976L200.594 140.807L199.431 141.976L200.594 143.145L201.756 141.976Z" fill="white" fill-opacity="0.07"/>
<path d="M216.369 141.976L215.207 140.807L214.045 141.976L215.207 143.145L216.369 141.976Z" fill="white" fill-opacity="0.07"/>
<path d="M230.983 141.976L229.82 140.807L228.658 141.976L229.82 143.145L230.983 141.976Z" fill="white" fill-opacity="0.07"/>
<path d="M99.4643 156.671L98.3018 155.502L97.1394 156.671L98.3018 157.84L99.4643 156.671Z" fill="white" fill-opacity="0.07"/>
<path d="M114.077 156.671L112.915 155.502L111.752 156.671L112.915 157.84L114.077 156.671Z" fill="white" fill-opacity="0.07"/>
<path d="M128.691 156.671L127.528 155.502L126.366 156.671L127.528 157.84L128.691 156.671Z" fill="white" fill-opacity="0.07"/>
<path d="M143.304 156.671L142.141 155.502L140.979 156.671L142.141 157.84L143.304 156.671Z" fill="white" fill-opacity="0.07"/>
<path d="M157.917 156.671L156.754 155.502L155.592 156.671L156.754 157.84L157.917 156.671Z" fill="white" fill-opacity="0.07"/>
<path d="M172.53 156.671L171.368 155.502L170.205 156.671L171.368 157.84L172.53 156.671Z" fill="white" fill-opacity="0.07"/>
<path d="M187.143 156.671L185.981 155.502L184.818 156.671L185.981 157.84L187.143 156.671Z" fill="white" fill-opacity="0.07"/>
<path d="M201.756 156.671L200.594 155.502L199.431 156.671L200.594 157.84L201.756 156.671Z" fill="white" fill-opacity="0.07"/>
<path d="M216.369 156.671L215.207 155.502L214.045 156.671L215.207 157.84L216.369 156.671Z" fill="white" fill-opacity="0.07"/>
<path d="M230.983 156.671L229.82 155.502L228.658 156.671L229.82 157.84L230.983 156.671Z" fill="white" fill-opacity="0.07"/>
<path d="M246.482 -107.831L245.319 -109L244.157 -107.831L245.319 -106.662L246.482 -107.831Z" fill="white" fill-opacity="0.07"/>
<path d="M261.095 -107.831L259.932 -109L258.77 -107.831L259.932 -106.662L261.095 -107.831Z" fill="white" fill-opacity="0.07"/>
<path d="M275.708 -107.831L274.545 -109L273.383 -107.831L274.545 -106.662L275.708 -107.831Z" fill="white" fill-opacity="0.07"/>
<path d="M290.321 -107.831L289.159 -109L287.996 -107.831L289.159 -106.662L290.321 -107.831Z" fill="white" fill-opacity="0.07"/>
<path d="M304.934 -107.831L303.772 -109L302.609 -107.831L303.772 -106.662L304.934 -107.831Z" fill="white" fill-opacity="0.07"/>
<path d="M319.547 -107.831L318.385 -109L317.223 -107.831L318.385 -106.662L319.547 -107.831Z" fill="white" fill-opacity="0.07"/>
<path d="M334.161 -107.831L332.998 -109L331.836 -107.831L332.998 -106.662L334.161 -107.831Z" fill="white" fill-opacity="0.07"/>
<path d="M348.774 -107.831L347.611 -109L346.449 -107.831L347.611 -106.662L348.774 -107.831Z" fill="white" fill-opacity="0.07"/>
<path d="M363.387 -107.831L362.224 -109L361.062 -107.831L362.224 -106.662L363.387 -107.831Z" fill="white" fill-opacity="0.07"/>
<path d="M378 -107.831L376.838 -109L375.675 -107.831L376.838 -106.662L378 -107.831Z" fill="white" fill-opacity="0.07"/>
<path d="M246.482 -93.1364L245.319 -94.3054L244.157 -93.1364L245.319 -91.9675L246.482 -93.1364Z" fill="white" fill-opacity="0.07"/>
<path d="M261.095 -93.1364L259.932 -94.3054L258.77 -93.1364L259.932 -91.9675L261.095 -93.1364Z" fill="white" fill-opacity="0.07"/>
<path d="M275.708 -93.1364L274.545 -94.3054L273.383 -93.1364L274.545 -91.9675L275.708 -93.1364Z" fill="white" fill-opacity="0.07"/>
<path d="M290.321 -93.1364L289.159 -94.3054L287.996 -93.1364L289.159 -91.9675L290.321 -93.1364Z" fill="white" fill-opacity="0.07"/>
<path d="M304.934 -93.1364L303.772 -94.3054L302.609 -93.1364L303.772 -91.9675L304.934 -93.1364Z" fill="white" fill-opacity="0.07"/>
<path d="M319.547 -93.1364L318.385 -94.3054L317.223 -93.1364L318.385 -91.9675L319.547 -93.1364Z" fill="white" fill-opacity="0.07"/>
<path d="M334.161 -93.1364L332.998 -94.3054L331.836 -93.1364L332.998 -91.9675L334.161 -93.1364Z" fill="white" fill-opacity="0.07"/>
<path d="M348.774 -93.1364L347.611 -94.3054L346.449 -93.1364L347.611 -91.9675L348.774 -93.1364Z" fill="white" fill-opacity="0.07"/>
<path d="M363.387 -93.1364L362.224 -94.3054L361.062 -93.1364L362.224 -91.9675L363.387 -93.1364Z" fill="white" fill-opacity="0.07"/>
<path d="M378 -93.1364L376.838 -94.3054L375.675 -93.1364L376.838 -91.9675L378 -93.1364Z" fill="white" fill-opacity="0.07"/>
<path d="M246.482 -78.4418L245.319 -79.6108L244.157 -78.4418L245.319 -77.2729L246.482 -78.4418Z" fill="white" fill-opacity="0.07"/>
<path d="M261.095 -78.4418L259.932 -79.6108L258.77 -78.4418L259.932 -77.2729L261.095 -78.4418Z" fill="white" fill-opacity="0.07"/>
<path d="M275.708 -78.4418L274.545 -79.6108L273.383 -78.4418L274.545 -77.2729L275.708 -78.4418Z" fill="white" fill-opacity="0.07"/>
<path d="M290.321 -78.4418L289.159 -79.6108L287.996 -78.4418L289.159 -77.2729L290.321 -78.4418Z" fill="white" fill-opacity="0.07"/>
<path d="M304.934 -78.4418L303.772 -79.6108L302.609 -78.4418L303.772 -77.2729L304.934 -78.4418Z" fill="white" fill-opacity="0.07"/>
<path d="M319.547 -78.4418L318.385 -79.6108L317.223 -78.4418L318.385 -77.2729L319.547 -78.4418Z" fill="white" fill-opacity="0.07"/>
<path d="M334.161 -78.4418L332.998 -79.6108L331.836 -78.4418L332.998 -77.2729L334.161 -78.4418Z" fill="white" fill-opacity="0.07"/>
<path d="M348.774 -78.4418L347.611 -79.6108L346.449 -78.4418L347.611 -77.2729L348.774 -78.4418Z" fill="white" fill-opacity="0.07"/>
<path d="M363.387 -78.4418L362.224 -79.6108L361.062 -78.4418L362.224 -77.2729L363.387 -78.4418Z" fill="white" fill-opacity="0.07"/>
<path d="M378 -78.4418L376.838 -79.6108L375.675 -78.4418L376.838 -77.2729L378 -78.4418Z" fill="white" fill-opacity="0.07"/>
<path d="M246.482 -63.7472L245.319 -64.9162L244.157 -63.7472L245.319 -62.5783L246.482 -63.7472Z" fill="white" fill-opacity="0.07"/>
<path d="M261.095 -63.7472L259.932 -64.9162L258.77 -63.7472L259.932 -62.5783L261.095 -63.7472Z" fill="white" fill-opacity="0.07"/>
<path d="M275.708 -63.7472L274.545 -64.9162L273.383 -63.7472L274.545 -62.5783L275.708 -63.7472Z" fill="white" fill-opacity="0.07"/>
<path d="M290.321 -63.7472L289.159 -64.9162L287.996 -63.7472L289.159 -62.5783L290.321 -63.7472Z" fill="white" fill-opacity="0.07"/>
<path d="M304.934 -63.7472L303.772 -64.9162L302.609 -63.7472L303.772 -62.5783L304.934 -63.7472Z" fill="white" fill-opacity="0.07"/>
<path d="M319.547 -63.7472L318.385 -64.9162L317.223 -63.7472L318.385 -62.5783L319.547 -63.7472Z" fill="white" fill-opacity="0.07"/>
<path d="M334.161 -63.7472L332.998 -64.9162L331.836 -63.7472L332.998 -62.5783L334.161 -63.7472Z" fill="white" fill-opacity="0.07"/>
<path d="M348.774 -63.7472L347.611 -64.9162L346.449 -63.7472L347.611 -62.5783L348.774 -63.7472Z" fill="white" fill-opacity="0.07"/>
<path d="M363.387 -63.7472L362.224 -64.9162L361.062 -63.7472L362.224 -62.5783L363.387 -63.7472Z" fill="white" fill-opacity="0.07"/>
<path d="M378 -63.7472L376.838 -64.9162L375.675 -63.7472L376.838 -62.5783L378 -63.7472Z" fill="white" fill-opacity="0.07"/>
<path d="M246.482 -49.0528L245.319 -50.2217L244.157 -49.0528L245.319 -47.8838L246.482 -49.0528Z" fill="white" fill-opacity="0.07"/>
<path d="M261.095 -49.0528L259.932 -50.2217L258.77 -49.0528L259.932 -47.8838L261.095 -49.0528Z" fill="white" fill-opacity="0.07"/>
<path d="M275.708 -49.0528L274.545 -50.2217L273.383 -49.0528L274.545 -47.8838L275.708 -49.0528Z" fill="white" fill-opacity="0.07"/>
<path d="M290.321 -49.0528L289.159 -50.2217L287.996 -49.0528L289.159 -47.8838L290.321 -49.0528Z" fill="white" fill-opacity="0.07"/>
<path d="M304.934 -49.0528L303.772 -50.2217L302.609 -49.0528L303.772 -47.8838L304.934 -49.0528Z" fill="white" fill-opacity="0.07"/>
<path d="M319.547 -49.0528L318.385 -50.2217L317.223 -49.0528L318.385 -47.8838L319.547 -49.0528Z" fill="white" fill-opacity="0.07"/>
<path d="M334.161 -49.0528L332.998 -50.2217L331.836 -49.0528L332.998 -47.8838L334.161 -49.0528Z" fill="white" fill-opacity="0.07"/>
<path d="M348.774 -49.0528L347.611 -50.2217L346.449 -49.0528L347.611 -47.8838L348.774 -49.0528Z" fill="white" fill-opacity="0.07"/>
<path d="M363.387 -49.0528L362.224 -50.2217L361.062 -49.0528L362.224 -47.8838L363.387 -49.0528Z" fill="white" fill-opacity="0.07"/>
<path d="M378 -49.0528L376.838 -50.2217L375.675 -49.0528L376.838 -47.8838L378 -49.0528Z" fill="white" fill-opacity="0.07"/>
<path d="M246.482 -34.3582L245.319 -35.5271L244.157 -34.3582L245.319 -33.1892L246.482 -34.3582Z" fill="white" fill-opacity="0.07"/>
<path d="M261.095 -34.3582L259.932 -35.5271L258.77 -34.3582L259.932 -33.1892L261.095 -34.3582Z" fill="white" fill-opacity="0.07"/>
<path d="M275.708 -34.3582L274.545 -35.5271L273.383 -34.3582L274.545 -33.1892L275.708 -34.3582Z" fill="white" fill-opacity="0.07"/>
<path d="M290.321 -34.3582L289.159 -35.5271L287.996 -34.3582L289.159 -33.1892L290.321 -34.3582Z" fill="white" fill-opacity="0.07"/>
<path d="M304.934 -34.3582L303.772 -35.5271L302.609 -34.3582L303.772 -33.1892L304.934 -34.3582Z" fill="white" fill-opacity="0.07"/>
<path d="M319.547 -34.3582L318.385 -35.5271L317.223 -34.3582L318.385 -33.1892L319.547 -34.3582Z" fill="white" fill-opacity="0.07"/>
<path d="M334.161 -34.3582L332.998 -35.5271L331.836 -34.3582L332.998 -33.1892L334.161 -34.3582Z" fill="white" fill-opacity="0.07"/>
<path d="M348.774 -34.3582L347.611 -35.5271L346.449 -34.3582L347.611 -33.1892L348.774 -34.3582Z" fill="white" fill-opacity="0.07"/>
<path d="M363.387 -34.3582L362.224 -35.5271L361.062 -34.3582L362.224 -33.1892L363.387 -34.3582Z" fill="white" fill-opacity="0.07"/>
<path d="M378 -34.3582L376.838 -35.5271L375.675 -34.3582L376.838 -33.1892L378 -34.3582Z" fill="white" fill-opacity="0.07"/>
<path d="M246.482 -19.6635L245.319 -20.8325L244.157 -19.6635L245.319 -18.4946L246.482 -19.6635Z" fill="white" fill-opacity="0.07"/>
<path d="M261.095 -19.6635L259.932 -20.8325L258.77 -19.6635L259.932 -18.4946L261.095 -19.6635Z" fill="white" fill-opacity="0.07"/>
<path d="M275.708 -19.6635L274.545 -20.8325L273.383 -19.6635L274.545 -18.4946L275.708 -19.6635Z" fill="white" fill-opacity="0.07"/>
<path d="M290.321 -19.6635L289.159 -20.8325L287.996 -19.6635L289.159 -18.4946L290.321 -19.6635Z" fill="white" fill-opacity="0.07"/>
<path d="M304.934 -19.6635L303.772 -20.8325L302.609 -19.6635L303.772 -18.4946L304.934 -19.6635Z" fill="white" fill-opacity="0.07"/>
<path d="M319.547 -19.6635L318.385 -20.8325L317.223 -19.6635L318.385 -18.4946L319.547 -19.6635Z" fill="white" fill-opacity="0.07"/>
<path d="M334.161 -19.6635L332.998 -20.8325L331.836 -19.6635L332.998 -18.4946L334.161 -19.6635Z" fill="white" fill-opacity="0.07"/>
<path d="M348.774 -19.6635L347.611 -20.8325L346.449 -19.6635L347.611 -18.4946L348.774 -19.6635Z" fill="white" fill-opacity="0.07"/>
<path d="M363.387 -19.6635L362.224 -20.8325L361.062 -19.6635L362.224 -18.4946L363.387 -19.6635Z" fill="white" fill-opacity="0.07"/>
<path d="M378 -19.6635L376.838 -20.8325L375.675 -19.6635L376.838 -18.4946L378 -19.6635Z" fill="white" fill-opacity="0.07"/>
<path d="M246.482 -4.96925L245.319 -6.13821L244.157 -4.96925L245.319 -3.80032L246.482 -4.96925Z" fill="white" fill-opacity="0.07"/>
<path d="M261.095 -4.96925L259.932 -6.13821L258.77 -4.96925L259.932 -3.80032L261.095 -4.96925Z" fill="white" fill-opacity="0.07"/>
<path d="M275.708 -4.96925L274.545 -6.13821L273.383 -4.96925L274.545 -3.80032L275.708 -4.96925Z" fill="white" fill-opacity="0.07"/>
<path d="M290.321 -4.96925L289.159 -6.13821L287.996 -4.96925L289.159 -3.80032L290.321 -4.96925Z" fill="white" fill-opacity="0.07"/>
<path d="M304.934 -4.96925L303.772 -6.13821L302.609 -4.96925L303.772 -3.80032L304.934 -4.96925Z" fill="white" fill-opacity="0.07"/>
<path d="M319.547 -4.96925L318.385 -6.13821L317.223 -4.96925L318.385 -3.80032L319.547 -4.96925Z" fill="white" fill-opacity="0.07"/>
<path d="M334.161 -4.96925L332.998 -6.13821L331.836 -4.96925L332.998 -3.80032L334.161 -4.96925Z" fill="white" fill-opacity="0.07"/>
<path d="M348.774 -4.96925L347.611 -6.13821L346.449 -4.96925L347.611 -3.80032L348.774 -4.96925Z" fill="white" fill-opacity="0.07"/>
<path d="M363.387 -4.96925L362.224 -6.13821L361.062 -4.96925L362.224 -3.80032L363.387 -4.96925Z" fill="white" fill-opacity="0.07"/>
<path d="M378 -4.96925L376.838 -6.13821L375.675 -4.96925L376.838 -3.80032L378 -4.96925Z" fill="white" fill-opacity="0.07"/>
<path d="M246.482 9.72552L245.319 8.55657L244.157 9.72552L245.319 10.8945L246.482 9.72552Z" fill="white" fill-opacity="0.07"/>
<path d="M261.095 9.72552L259.932 8.55657L258.77 9.72552L259.932 10.8945L261.095 9.72552Z" fill="white" fill-opacity="0.07"/>
<path d="M275.708 9.72552L274.545 8.55657L273.383 9.72552L274.545 10.8945L275.708 9.72552Z" fill="white" fill-opacity="0.07"/>
<path d="M290.321 9.72552L289.159 8.55657L287.996 9.72552L289.159 10.8945L290.321 9.72552Z" fill="white" fill-opacity="0.07"/>
<path d="M304.934 9.72552L303.772 8.55657L302.609 9.72552L303.772 10.8945L304.934 9.72552Z" fill="white" fill-opacity="0.07"/>
<path d="M319.547 9.72552L318.385 8.55657L317.223 9.72552L318.385 10.8945L319.547 9.72552Z" fill="white" fill-opacity="0.07"/>
<path d="M334.161 9.72552L332.998 8.55657L331.836 9.72552L332.998 10.8945L334.161 9.72552Z" fill="white" fill-opacity="0.07"/>
<path d="M348.774 9.72552L347.611 8.55657L346.449 9.72552L347.611 10.8945L348.774 9.72552Z" fill="white" fill-opacity="0.07"/>
<path d="M363.387 9.72552L362.224 8.55657L361.062 9.72552L362.224 10.8945L363.387 9.72552Z" fill="white" fill-opacity="0.07"/>
<path d="M378 9.72552L376.838 8.55657L375.675 9.72552L376.838 10.8945L378 9.72552Z" fill="white" fill-opacity="0.07"/>
<path d="M246.482 24.4202L245.319 23.2512L244.157 24.4202L245.319 25.5891L246.482 24.4202Z" fill="white" fill-opacity="0.07"/>
<path d="M261.095 24.4202L259.932 23.2512L258.77 24.4202L259.932 25.5891L261.095 24.4202Z" fill="white" fill-opacity="0.07"/>
<path d="M275.708 24.4202L274.545 23.2512L273.383 24.4202L274.545 25.5891L275.708 24.4202Z" fill="white" fill-opacity="0.07"/>
<path d="M290.321 24.4202L289.159 23.2512L287.996 24.4202L289.159 25.5891L290.321 24.4202Z" fill="white" fill-opacity="0.07"/>
<path d="M304.934 24.4202L303.772 23.2512L302.609 24.4202L303.772 25.5891L304.934 24.4202Z" fill="white" fill-opacity="0.07"/>
<path d="M319.547 24.4202L318.385 23.2512L317.223 24.4202L318.385 25.5891L319.547 24.4202Z" fill="white" fill-opacity="0.07"/>
<path d="M334.161 24.4202L332.998 23.2512L331.836 24.4202L332.998 25.5891L334.161 24.4202Z" fill="white" fill-opacity="0.07"/>
<path d="M348.774 24.4202L347.611 23.2512L346.449 24.4202L347.611 25.5891L348.774 24.4202Z" fill="white" fill-opacity="0.07"/>
<path d="M363.387 24.4202L362.224 23.2512L361.062 24.4202L362.224 25.5891L363.387 24.4202Z" fill="white" fill-opacity="0.07"/>
<path d="M378 24.4202L376.838 23.2512L375.675 24.4202L376.838 25.5891L378 24.4202Z" fill="white" fill-opacity="0.07"/>
<path d="M246.482 39.1146L245.319 37.9456L244.157 39.1146L245.319 40.2835L246.482 39.1146Z" fill="white" fill-opacity="0.07"/>
<path d="M261.095 39.1146L259.932 37.9456L258.77 39.1146L259.932 40.2835L261.095 39.1146Z" fill="white" fill-opacity="0.07"/>
<path d="M275.708 39.1146L274.545 37.9456L273.383 39.1146L274.545 40.2835L275.708 39.1146Z" fill="white" fill-opacity="0.07"/>
<path d="M290.321 39.1146L289.159 37.9456L287.996 39.1146L289.159 40.2835L290.321 39.1146Z" fill="white" fill-opacity="0.07"/>
<path d="M304.934 39.1146L303.772 37.9456L302.609 39.1146L303.772 40.2835L304.934 39.1146Z" fill="white" fill-opacity="0.07"/>
<path d="M319.547 39.1146L318.385 37.9456L317.223 39.1146L318.385 40.2835L319.547 39.1146Z" fill="white" fill-opacity="0.07"/>
<path d="M334.161 39.1146L332.998 37.9456L331.836 39.1146L332.998 40.2835L334.161 39.1146Z" fill="white" fill-opacity="0.07"/>
<path d="M348.774 39.1146L347.611 37.9456L346.449 39.1146L347.611 40.2835L348.774 39.1146Z" fill="white" fill-opacity="0.07"/>
<path d="M363.387 39.1146L362.224 37.9456L361.062 39.1146L362.224 40.2835L363.387 39.1146Z" fill="white" fill-opacity="0.07"/>
<path d="M378 39.1146L376.838 37.9456L375.675 39.1146L376.838 40.2835L378 39.1146Z" fill="white" fill-opacity="0.07"/>
<path d="M246.482 53.809L245.319 52.6401L244.157 53.809L245.319 54.978L246.482 53.809Z" fill="white" fill-opacity="0.07"/>
<path d="M261.095 53.809L259.932 52.6401L258.77 53.809L259.932 54.978L261.095 53.809Z" fill="white" fill-opacity="0.07"/>
<path d="M275.708 53.809L274.545 52.6401L273.383 53.809L274.545 54.978L275.708 53.809Z" fill="white" fill-opacity="0.07"/>
<path d="M290.321 53.809L289.159 52.6401L287.996 53.809L289.159 54.978L290.321 53.809Z" fill="white" fill-opacity="0.07"/>
<path d="M304.934 53.809L303.772 52.6401L302.609 53.809L303.772 54.978L304.934 53.809Z" fill="white" fill-opacity="0.07"/>
<path d="M319.547 53.809L318.385 52.6401L317.223 53.809L318.385 54.978L319.547 53.809Z" fill="white" fill-opacity="0.07"/>
<path d="M334.161 53.809L332.998 52.6401L331.836 53.809L332.998 54.978L334.161 53.809Z" fill="white" fill-opacity="0.07"/>
<path d="M348.774 53.809L347.611 52.6401L346.449 53.809L347.611 54.978L348.774 53.809Z" fill="white" fill-opacity="0.07"/>
<path d="M363.387 53.809L362.224 52.6401L361.062 53.809L362.224 54.978L363.387 53.809Z" fill="white" fill-opacity="0.07"/>
<path d="M378 53.809L376.838 52.6401L375.675 53.809L376.838 54.978L378 53.809Z" fill="white" fill-opacity="0.07"/>
<path d="M246.482 68.5038L245.319 67.3349L244.157 68.5038L245.319 69.6728L246.482 68.5038Z" fill="white" fill-opacity="0.07"/>
<path d="M261.095 68.5038L259.932 67.3349L258.77 68.5038L259.932 69.6728L261.095 68.5038Z" fill="white" fill-opacity="0.07"/>
<path d="M275.708 68.5038L274.545 67.3349L273.383 68.5038L274.545 69.6728L275.708 68.5038Z" fill="white" fill-opacity="0.07"/>
<path d="M290.321 68.5038L289.159 67.3349L287.996 68.5038L289.159 69.6728L290.321 68.5038Z" fill="white" fill-opacity="0.07"/>
<path d="M304.934 68.5038L303.772 67.3349L302.609 68.5038L303.772 69.6728L304.934 68.5038Z" fill="white" fill-opacity="0.07"/>
<path d="M319.547 68.5038L318.385 67.3349L317.223 68.5038L318.385 69.6728L319.547 68.5038Z" fill="white" fill-opacity="0.07"/>
<path d="M334.161 68.5038L332.998 67.3349L331.836 68.5038L332.998 69.6728L334.161 68.5038Z" fill="white" fill-opacity="0.07"/>
<path d="M348.774 68.5038L347.611 67.3349L346.449 68.5038L347.611 69.6728L348.774 68.5038Z" fill="white" fill-opacity="0.07"/>
<path d="M363.387 68.5038L362.224 67.3349L361.062 68.5038L362.224 69.6728L363.387 68.5038Z" fill="white" fill-opacity="0.07"/>
<path d="M378 68.5038L376.838 67.3349L375.675 68.5038L376.838 69.6728L378 68.5038Z" fill="white" fill-opacity="0.07"/>
<path d="M246.482 83.1982L245.319 82.0293L244.157 83.1982L245.319 84.3672L246.482 83.1982Z" fill="white" fill-opacity="0.07"/>
<path d="M261.095 83.1982L259.932 82.0293L258.77 83.1982L259.932 84.3672L261.095 83.1982Z" fill="white" fill-opacity="0.07"/>
<path d="M275.708 83.1982L274.545 82.0293L273.383 83.1982L274.545 84.3672L275.708 83.1982Z" fill="white" fill-opacity="0.07"/>
<path d="M290.321 83.1982L289.159 82.0293L287.996 83.1982L289.159 84.3672L290.321 83.1982Z" fill="white" fill-opacity="0.07"/>
<path d="M304.934 83.1982L303.772 82.0293L302.609 83.1982L303.772 84.3672L304.934 83.1982Z" fill="white" fill-opacity="0.07"/>
<path d="M319.547 83.1982L318.385 82.0293L317.223 83.1982L318.385 84.3672L319.547 83.1982Z" fill="white" fill-opacity="0.07"/>
<path d="M334.161 83.1982L332.998 82.0293L331.836 83.1982L332.998 84.3672L334.161 83.1982Z" fill="white" fill-opacity="0.07"/>
<path d="M348.774 83.1982L347.611 82.0293L346.449 83.1982L347.611 84.3672L348.774 83.1982Z" fill="white" fill-opacity="0.07"/>
<path d="M363.387 83.1982L362.224 82.0293L361.062 83.1982L362.224 84.3672L363.387 83.1982Z" fill="white" fill-opacity="0.07"/>
<path d="M378 83.1982L376.838 82.0293L375.675 83.1982L376.838 84.3672L378 83.1982Z" fill="white" fill-opacity="0.07"/>
<path d="M246.482 97.8927L245.319 96.7237L244.157 97.8927L245.319 99.0616L246.482 97.8927Z" fill="white" fill-opacity="0.07"/>
<path d="M261.095 97.8927L259.932 96.7237L258.77 97.8927L259.932 99.0616L261.095 97.8927Z" fill="white" fill-opacity="0.07"/>
<path d="M275.708 97.8927L274.545 96.7237L273.383 97.8927L274.545 99.0616L275.708 97.8927Z" fill="white" fill-opacity="0.07"/>
<path d="M290.321 97.8927L289.159 96.7237L287.996 97.8927L289.159 99.0616L290.321 97.8927Z" fill="white" fill-opacity="0.07"/>
<path d="M304.934 97.8927L303.772 96.7237L302.609 97.8927L303.772 99.0616L304.934 97.8927Z" fill="white" fill-opacity="0.07"/>
<path d="M319.547 97.8927L318.385 96.7237L317.223 97.8927L318.385 99.0616L319.547 97.8927Z" fill="white" fill-opacity="0.07"/>
<path d="M334.161 97.8927L332.998 96.7237L331.836 97.8927L332.998 99.0616L334.161 97.8927Z" fill="white" fill-opacity="0.07"/>
<path d="M348.774 97.8927L347.611 96.7237L346.449 97.8927L347.611 99.0616L348.774 97.8927Z" fill="white" fill-opacity="0.07"/>
<path d="M363.387 97.8927L362.224 96.7237L361.062 97.8927L362.224 99.0616L363.387 97.8927Z" fill="white" fill-opacity="0.07"/>
<path d="M378 97.8927L376.838 96.7237L375.675 97.8927L376.838 99.0616L378 97.8927Z" fill="white" fill-opacity="0.07"/>
<path d="M246.482 112.587L245.319 111.419L244.157 112.587L245.319 113.756L246.482 112.587Z" fill="white" fill-opacity="0.07"/>
<path d="M261.095 112.587L259.932 111.419L258.77 112.587L259.932 113.756L261.095 112.587Z" fill="white" fill-opacity="0.07"/>
<path d="M275.708 112.587L274.545 111.419L273.383 112.587L274.545 113.756L275.708 112.587Z" fill="white" fill-opacity="0.07"/>
<path d="M290.321 112.587L289.159 111.419L287.996 112.587L289.159 113.756L290.321 112.587Z" fill="white" fill-opacity="0.07"/>
<path d="M304.934 112.587L303.772 111.419L302.609 112.587L303.772 113.756L304.934 112.587Z" fill="white" fill-opacity="0.07"/>
<path d="M319.547 112.587L318.385 111.419L317.223 112.587L318.385 113.756L319.547 112.587Z" fill="white" fill-opacity="0.07"/>
<path d="M334.161 112.587L332.998 111.419L331.836 112.587L332.998 113.756L334.161 112.587Z" fill="white" fill-opacity="0.07"/>
<path d="M348.774 112.587L347.611 111.419L346.449 112.587L347.611 113.756L348.774 112.587Z" fill="white" fill-opacity="0.07"/>
<path d="M363.387 112.587L362.224 111.419L361.062 112.587L362.224 113.756L363.387 112.587Z" fill="white" fill-opacity="0.07"/>
<path d="M378 112.587L376.838 111.419L375.675 112.587L376.838 113.756L378 112.587Z" fill="white" fill-opacity="0.07"/>
<path d="M246.482 127.282L245.319 126.113L244.157 127.282L245.319 128.451L246.482 127.282Z" fill="white" fill-opacity="0.07"/>
<path d="M261.095 127.282L259.932 126.113L258.77 127.282L259.932 128.451L261.095 127.282Z" fill="white" fill-opacity="0.07"/>
<path d="M275.708 127.282L274.545 126.113L273.383 127.282L274.545 128.451L275.708 127.282Z" fill="white" fill-opacity="0.07"/>
<path d="M290.321 127.282L289.159 126.113L287.996 127.282L289.159 128.451L290.321 127.282Z" fill="white" fill-opacity="0.07"/>
<path d="M304.934 127.282L303.772 126.113L302.609 127.282L303.772 128.451L304.934 127.282Z" fill="white" fill-opacity="0.07"/>
<path d="M319.547 127.282L318.385 126.113L317.223 127.282L318.385 128.451L319.547 127.282Z" fill="white" fill-opacity="0.07"/>
<path d="M334.161 127.282L332.998 126.113L331.836 127.282L332.998 128.451L334.161 127.282Z" fill="white" fill-opacity="0.07"/>
<path d="M348.774 127.282L347.611 126.113L346.449 127.282L347.611 128.451L348.774 127.282Z" fill="white" fill-opacity="0.07"/>
<path d="M363.387 127.282L362.224 126.113L361.062 127.282L362.224 128.451L363.387 127.282Z" fill="white" fill-opacity="0.07"/>
<path d="M378 127.282L376.838 126.113L375.675 127.282L376.838 128.451L378 127.282Z" fill="white" fill-opacity="0.07"/>
<path d="M246.482 141.976L245.319 140.807L244.157 141.976L245.319 143.145L246.482 141.976Z" fill="white" fill-opacity="0.07"/>
<path d="M261.095 141.976L259.932 140.807L258.77 141.976L259.932 143.145L261.095 141.976Z" fill="white" fill-opacity="0.07"/>
<path d="M275.708 141.976L274.545 140.807L273.383 141.976L274.545 143.145L275.708 141.976Z" fill="white" fill-opacity="0.07"/>
<path d="M290.321 141.976L289.159 140.807L287.996 141.976L289.159 143.145L290.321 141.976Z" fill="white" fill-opacity="0.07"/>
<path d="M304.934 141.976L303.772 140.807L302.609 141.976L303.772 143.145L304.934 141.976Z" fill="white" fill-opacity="0.07"/>
<path d="M319.547 141.976L318.385 140.807L317.223 141.976L318.385 143.145L319.547 141.976Z" fill="white" fill-opacity="0.07"/>
<path d="M334.161 141.976L332.998 140.807L331.836 141.976L332.998 143.145L334.161 141.976Z" fill="white" fill-opacity="0.07"/>
<path d="M348.774 141.976L347.611 140.807L346.449 141.976L347.611 143.145L348.774 141.976Z" fill="white" fill-opacity="0.07"/>
<path d="M363.387 141.976L362.224 140.807L361.062 141.976L362.224 143.145L363.387 141.976Z" fill="white" fill-opacity="0.07"/>
<path d="M378 141.976L376.838 140.807L375.675 141.976L376.838 143.145L378 141.976Z" fill="white" fill-opacity="0.07"/>
<path d="M246.482 156.671L245.319 155.502L244.157 156.671L245.319 157.84L246.482 156.671Z" fill="white" fill-opacity="0.07"/>
<path d="M261.095 156.671L259.932 155.502L258.77 156.671L259.932 157.84L261.095 156.671Z" fill="white" fill-opacity="0.07"/>
<path d="M275.708 156.671L274.545 155.502L273.383 156.671L274.545 157.84L275.708 156.671Z" fill="white" fill-opacity="0.07"/>
<path d="M290.321 156.671L289.159 155.502L287.996 156.671L289.159 157.84L290.321 156.671Z" fill="white" fill-opacity="0.07"/>
<path d="M304.934 156.671L303.772 155.502L302.609 156.671L303.772 157.84L304.934 156.671Z" fill="white" fill-opacity="0.07"/>
<path d="M319.547 156.671L318.385 155.502L317.223 156.671L318.385 157.84L319.547 156.671Z" fill="white" fill-opacity="0.07"/>
<path d="M334.161 156.671L332.998 155.502L331.836 156.671L332.998 157.84L334.161 156.671Z" fill="white" fill-opacity="0.07"/>
<path d="M348.774 156.671L347.611 155.502L346.449 156.671L347.611 157.84L348.774 156.671Z" fill="white" fill-opacity="0.07"/>
<path d="M363.387 156.671L362.224 155.502L361.062 156.671L362.224 157.84L363.387 156.671Z" fill="white" fill-opacity="0.07"/>
<path d="M378 156.671L376.838 155.502L375.675 156.671L376.838 157.84L378 156.671Z" fill="white" fill-opacity="0.07"/>
</svg>
