<svg width="330" height="49" viewBox="0 0 330 49" fill="none" xmlns="http://www.w3.org/2000/svg">
<g clip-path="url(#clip0_338_1781)">
<path d="M195.742 26.7697C195.742 36.4499 187.904 44.2962 178.237 44.2962C168.57 44.2962 160.732 36.4499 160.732 26.7697C160.732 17.0895 168.57 9.24316 178.237 9.24316C187.904 9.24316 195.742 17.0895 195.742 26.7697Z" stroke="white" stroke-opacity="0.07"/>
<circle cx="178.237" cy="53.6485" r="17.5049" stroke="white" stroke-opacity="0.07"/>
<circle cx="178.237" cy="-0.0214291" r="17.5049" stroke="white" stroke-opacity="0.07"/>
<path d="M87.6259 26.8127C87.6259 36.4934 79.7972 44.3392 70.1425 44.3392C60.4879 44.3392 52.6592 36.4934 52.6592 26.8127C52.6592 17.1319 60.4879 9.28613 70.1425 9.28613C79.7972 9.28613 87.6259 17.1319 87.6259 26.8127Z" stroke="white" stroke-opacity="0.07"/>
<path d="M87.6259 53.6915C87.6259 63.3597 79.7977 71.1964 70.1425 71.1964C60.4873 71.1964 52.6592 63.3597 52.6592 53.6915C52.6592 44.0232 60.4873 36.1865 70.1425 36.1865C79.7977 36.1865 87.6259 44.0232 87.6259 53.6915Z" stroke="white" stroke-opacity="0.07"/>
<path d="M87.6259 0.0215397C87.6259 9.68982 79.7977 17.5265 70.1425 17.5265C60.4873 17.5265 52.6592 9.68982 52.6592 0.0215397C52.6592 -9.64674 60.4873 -17.4834 70.1425 -17.4834C79.7977 -17.4834 87.6259 -9.64674 87.6259 0.0215397Z" stroke="white" stroke-opacity="0.07"/>
<path d="M303.858 26.8127C303.858 36.4929 296.02 44.3392 286.353 44.3392C276.686 44.3392 268.848 36.4929 268.848 26.8127C268.848 17.1325 276.686 9.28613 286.353 9.28613C296.02 9.28613 303.858 17.1325 303.858 26.8127Z" stroke="white" stroke-opacity="0.07"/>
<circle cx="286.353" cy="53.6915" r="17.5049" stroke="white" stroke-opacity="0.07"/>
<circle cx="286.353" cy="0.0215397" r="17.5049" stroke="white" stroke-opacity="0.07"/>
<path d="M33.5248 26.7697C33.5248 36.4505 25.6961 44.2962 16.0415 44.2962C6.3868 44.2962 -1.44189 36.4505 -1.44189 26.7697C-1.44189 17.0889 6.3868 9.24316 16.0415 9.24316C25.6961 9.24316 33.5248 17.0889 33.5248 26.7697Z" stroke="white" stroke-opacity="0.07"/>
<path d="M33.5248 53.6485C33.5248 63.3168 25.6967 71.1534 16.0415 71.1534C6.38623 71.1534 -1.44189 63.3168 -1.44189 53.6485C-1.44189 43.9802 6.38623 36.1436 16.0415 36.1436C25.6967 36.1436 33.5248 43.9802 33.5248 53.6485Z" stroke="white" stroke-opacity="0.07"/>
<path d="M33.5248 -0.0214291C33.5248 9.64685 25.6967 17.4835 16.0415 17.4835C6.38623 17.4835 -1.44189 9.64685 -1.44189 -0.0214291C-1.44189 -9.6897 6.38623 -17.5264 16.0415 -17.5264C25.6967 -17.5264 33.5248 -9.6897 33.5248 -0.0214291Z" stroke="white" stroke-opacity="0.07"/>
<path d="M249.714 26.7697C249.714 36.451 241.894 44.2962 232.252 44.2962C222.61 44.2962 214.79 36.451 214.79 26.7697C214.79 17.0884 222.61 9.24316 232.252 9.24316C241.894 9.24316 249.714 17.0884 249.714 26.7697Z" stroke="white" stroke-opacity="0.07"/>
<path d="M249.714 53.6485C249.714 63.3173 241.895 71.1534 232.252 71.1534C222.609 71.1534 214.79 63.3173 214.79 53.6485C214.79 43.9797 222.609 36.1436 232.252 36.1436C241.895 36.1436 249.714 43.9797 249.714 53.6485Z" stroke="white" stroke-opacity="0.07"/>
<path d="M249.714 -0.0214291C249.714 9.64742 241.895 17.4835 232.252 17.4835C222.609 17.4835 214.79 9.64742 214.79 -0.0214291C214.79 -9.69027 222.609 -17.5264 232.252 -17.5264C241.895 -17.5264 249.714 -9.69027 249.714 -0.0214291Z" stroke="white" stroke-opacity="0.07"/>
<path d="M141.684 26.8127C141.684 36.4929 133.846 44.3392 124.179 44.3392C114.512 44.3392 106.674 36.4929 106.674 26.8127C106.674 17.1325 114.512 9.28613 124.179 9.28613C133.846 9.28613 141.684 17.1325 141.684 26.8127Z" stroke="white" stroke-opacity="0.07"/>
<circle cx="124.179" cy="53.6915" r="17.5049" stroke="white" stroke-opacity="0.07"/>
<circle cx="124.179" cy="0.0215397" r="17.5049" stroke="white" stroke-opacity="0.07"/>
<path d="M357.873 26.8127C357.873 36.4929 350.035 44.3392 340.368 44.3392C330.701 44.3392 322.863 36.4929 322.863 26.8127C322.863 17.1325 330.701 9.28613 340.368 9.28613C350.035 9.28613 357.873 17.1325 357.873 26.8127Z" stroke="white" stroke-opacity="0.07"/>
<circle cx="340.368" cy="53.6915" r="17.5049" stroke="white" stroke-opacity="0.07"/>
<circle cx="340.368" cy="0.0215397" r="17.5049" stroke="white" stroke-opacity="0.07"/>
<path d="M6.49581 26.7697C6.49581 36.4499 -1.34198 44.2962 -11.0091 44.2962C-20.6763 44.2962 -28.5141 36.4499 -28.5141 26.7697C-28.5141 17.0895 -20.6763 9.24316 -11.0091 9.24316C-1.34198 9.24316 6.49581 17.0895 6.49581 26.7697Z" stroke="white" stroke-opacity="0.07"/>
<circle cx="-11.0091" cy="53.6485" r="17.5049" stroke="white" stroke-opacity="0.07"/>
<circle cx="-11.0091" cy="-0.0214291" r="17.5049" stroke="white" stroke-opacity="0.07"/>
<path d="M222.728 26.7697C222.728 36.4505 214.899 44.2962 205.244 44.2962C195.59 44.2962 187.761 36.4505 187.761 26.7697C187.761 17.0889 195.59 9.24316 205.244 9.24316C214.899 9.24316 222.728 17.0889 222.728 26.7697Z" stroke="white" stroke-opacity="0.07"/>
<path d="M222.728 53.6485C222.728 63.3168 214.9 71.1534 205.244 71.1534C195.589 71.1534 187.761 63.3168 187.761 53.6485C187.761 43.9802 195.589 36.1436 205.244 36.1436C214.9 36.1436 222.728 43.9802 222.728 53.6485Z" stroke="white" stroke-opacity="0.07"/>
<path d="M222.728 -0.0214291C222.728 9.64685 214.9 17.4835 205.244 17.4835C195.589 17.4835 187.761 9.64685 187.761 -0.0214291C187.761 -9.6897 195.589 -17.5264 205.244 -17.5264C214.9 -17.5264 222.728 -9.6897 222.728 -0.0214291Z" stroke="white" stroke-opacity="0.07"/>
<path d="M114.612 26.8127C114.612 36.4934 106.783 44.3392 97.1285 44.3392C87.4738 44.3392 79.6451 36.4934 79.6451 26.8127C79.6451 17.1319 87.4738 9.28613 97.1285 9.28613C106.783 9.28613 114.612 17.1319 114.612 26.8127Z" stroke="white" stroke-opacity="0.07"/>
<path d="M114.612 53.6915C114.612 63.3597 106.784 71.1964 97.1285 71.1964C87.4733 71.1964 79.6451 63.3597 79.6451 53.6915C79.6451 44.0232 87.4733 36.1865 97.1285 36.1865C106.784 36.1865 114.612 44.0232 114.612 53.6915Z" stroke="white" stroke-opacity="0.07"/>
<path d="M114.612 0.0215397C114.612 9.68982 106.784 17.5265 97.1285 17.5265C87.4733 17.5265 79.6451 9.68982 79.6451 0.0215397C79.6451 -9.64674 87.4733 -17.4834 97.1285 -17.4834C106.784 -17.4834 114.612 -9.64674 114.612 0.0215397Z" stroke="white" stroke-opacity="0.07"/>
<path d="M330.8 26.8127C330.8 36.4934 322.972 44.3392 313.317 44.3392C303.662 44.3392 295.834 36.4934 295.834 26.8127C295.834 17.1319 303.662 9.28613 313.317 9.28613C322.972 9.28613 330.8 17.1319 330.8 26.8127Z" stroke="white" stroke-opacity="0.07"/>
<path d="M330.8 53.6915C330.8 63.3597 322.972 71.1964 313.317 71.1964C303.662 71.1964 295.834 63.3597 295.834 53.6915C295.834 44.0232 303.662 36.1865 313.317 36.1865C322.972 36.1865 330.8 44.0232 330.8 53.6915Z" stroke="white" stroke-opacity="0.07"/>
<path d="M330.8 0.0215397C330.8 9.68982 322.972 17.5265 313.317 17.5265C303.662 17.5265 295.834 9.68982 295.834 0.0215397C295.834 -9.64674 303.662 -17.4834 313.317 -17.4834C322.972 -17.4834 330.8 -9.64674 330.8 0.0215397Z" stroke="white" stroke-opacity="0.07"/>
<path d="M60.5969 26.7697C60.5969 36.4499 52.7591 44.2962 43.092 44.2962C33.4248 44.2962 25.587 36.4499 25.587 26.7697C25.587 17.0895 33.4248 9.24316 43.092 9.24316C52.7591 9.24316 60.5969 17.0895 60.5969 26.7697Z" stroke="white" stroke-opacity="0.07"/>
<circle cx="43.092" cy="53.6485" r="17.5049" stroke="white" stroke-opacity="0.07"/>
<circle cx="43.092" cy="-0.0214291" r="17.5049" stroke="white" stroke-opacity="0.07"/>
<path d="M276.786 26.7697C276.786 36.451 268.966 44.2962 259.324 44.2962C249.682 44.2962 241.862 36.451 241.862 26.7697C241.862 17.0884 249.682 9.24316 259.324 9.24316C268.966 9.24316 276.786 17.0884 276.786 26.7697Z" stroke="white" stroke-opacity="0.07"/>
<path d="M276.786 53.6485C276.786 63.3173 268.967 71.1534 259.324 71.1534C249.681 71.1534 241.862 63.3173 241.862 53.6485C241.862 43.9797 249.681 36.1436 259.324 36.1436C268.967 36.1436 276.786 43.9797 276.786 53.6485Z" stroke="white" stroke-opacity="0.07"/>
<path d="M276.786 -0.0214291C276.786 9.64742 268.967 17.4835 259.324 17.4835C249.681 17.4835 241.862 9.64742 241.862 -0.0214291C241.862 -9.69027 249.681 -17.5264 259.324 -17.5264C268.967 -17.5264 276.786 -9.69027 276.786 -0.0214291Z" stroke="white" stroke-opacity="0.07"/>
<path d="M168.756 26.8127C168.756 36.4929 160.919 44.3392 151.251 44.3392C141.584 44.3392 133.746 36.4929 133.746 26.8127C133.746 17.1325 141.584 9.28613 151.251 9.28613C160.919 9.28613 168.756 17.1325 168.756 26.8127Z" stroke="white" stroke-opacity="0.07"/>
<circle cx="151.251" cy="53.6915" r="17.5049" stroke="white" stroke-opacity="0.07"/>
<circle cx="151.251" cy="0.0215397" r="17.5049" stroke="white" stroke-opacity="0.07"/>
</g>
<defs>
<clipPath id="clip0_338_1781">
<rect width="330" height="49" fill="white"/>
</clipPath>
</defs>
</svg>
