<svg width="316" height="49" viewBox="0 0 316 49" fill="none" xmlns="http://www.w3.org/2000/svg">
<path d="M96.3333 20.9609C94.6092 21.9591 91.2972 25.0443 93.4296 31.5322C95.2339 37.022 101.233 38.8066 104.137 40.7424" stroke="white" stroke-opacity="0.07" stroke-linecap="round" stroke-linejoin="round"/>
<path d="M62.4945 31.9817C60.7763 30.9289 56.5975 29.329 53.6274 31.3513" stroke="white" stroke-opacity="0.07" stroke-linecap="round" stroke-linejoin="round"/>
<path d="M46.4565 8.79875C50.3289 11.0382 56.2063 17.0977 48.7366 23.4199" stroke="white" stroke-opacity="0.07" stroke-linecap="round" stroke-linejoin="round"/>
<path d="M55.8959 36.4326C54.1719 37.945 51.7582 42.6211 55.8959 49.2271" stroke="white" stroke-opacity="0.07" stroke-linecap="round" stroke-linejoin="round"/>
<path d="M62.6251 24.3589C69.1362 24.5464 80.6702 20.697 74.7183 3.79939" stroke="white" stroke-opacity="0.07" stroke-linecap="round" stroke-linejoin="round"/>
<path d="M100.949 25.4531H107.845" stroke="white" stroke-opacity="0.07" stroke-linecap="round" stroke-linejoin="round"/>
<path d="M100.177 30.9425H113.063V26.6777" stroke="white" stroke-opacity="0.07" stroke-linecap="round" stroke-linejoin="round"/>
<path d="M2.17743 30.9425H15.0626V26.6777" stroke="white" stroke-opacity="0.07" stroke-linecap="round" stroke-linejoin="round"/>
<path d="M86.6361 28.3672L77.2641 24.9537" stroke="white" stroke-opacity="0.07" stroke-linecap="round" stroke-linejoin="round"/>
<path d="M63.1099 39.0177C64.7129 36.0081 71.095 32.076 75.3145 36.5223C80.9448 42.4553 74.5432 46.0505 71.5034 42.4662C68.4636 38.882 69.4163 34.6557 74.8608 32.6658C80.3498 30.6595 83.7685 35.8719 84.57 37.5204" stroke="white" stroke-opacity="0.07" stroke-linecap="round" stroke-linejoin="round"/>
<path d="M74.6793 50.9013C77.341 53.442 82.8188 56.9991 83.4358 50.9013C84.2071 43.2791 85.2052 42.8253 93.0543 46.1828" stroke="white" stroke-opacity="0.07" stroke-linecap="round" stroke-linejoin="round"/>
<path d="M31.585 3.53906C31.2067 4.92633 29.6856 7.90116 26.6277 8.7023C22.8053 9.70372 23.5027 12.2977 25.0112 15.3997C26.5196 18.5017 30.1642 25.3932 23.0478 28.8539" stroke="white" stroke-opacity="0.07" stroke-linecap="round" stroke-linejoin="round"/>
<path d="M20.7793 34.6631C22.5185 39.2757 26.868 47.9022 33.9821 44.7807C42.8747 40.8788 30.7706 29.8538 27.5395 38.1566C23.9552 47.3668 29.3741 54.5213 33.9821 58.1196C40.7794 63.4274 54.9507 63.2815 50.1339 55.0344C45.3172 46.7872 31.5927 56.0474 38.9728 68.2825C43.5778 75.917 45.7632 78.5211 46.2321 79.0353" stroke="white" stroke-opacity="0.07" stroke-linecap="round" stroke-linejoin="round"/>
<path d="M31.7668 22.7869C34.4991 22.2966 39.9199 22.2629 39.7445 26.0498C39.5691 29.8367 42.1281 29.8465 43.4295 29.378C45.4364 29.0504 48.3996 29.5897 44.1979 34.3679" stroke="white" stroke-opacity="0.07" stroke-linecap="round" stroke-linejoin="round"/>
<path d="M63.4275 48.5918L68.645 59.7983C66.0741 58.9514 60.8141 57.5116 60.3423 58.5279C59.8704 59.5442 60.1457 64.0631 60.3423 66.1955C56.2589 64.6832 48.8908 63.2464 52.0849 69.5983" stroke="white" stroke-opacity="0.07" stroke-linecap="round" stroke-linejoin="round"/>
<path d="M85.5908 16.6307C85.9084 14.7251 87.3801 14.5507 88.1769 14.9281C90.3395 15.9523 89.2158 19.9943 85.9991 20.2148C82.6871 20.4418 80.2349 17.0512 82.8686 13.5908C85.5024 10.1303 90.0825 9.71257 92.7594 14.7703" stroke="white" stroke-opacity="0.07" stroke-linecap="round" stroke-linejoin="round"/>
<circle cx="44.6895" cy="42.0132" r="3.99167" stroke="white" stroke-opacity="0.07"/>
<circle cx="7.53148" cy="7.53148" r="7.03148" transform="matrix(-0.285974 -0.958237 -0.958237 0.285974 73.3671 15.6133)" stroke="white" stroke-opacity="0.07"/>
<mask id="path-19-inside-1_351_6191" fill="white">
<rect x="99.5356" y="48.6367" width="8.80185" height="8.80185" rx="0.907407" transform="rotate(10.6498 99.5356 48.6367)"/>
</mask>
<rect x="99.5356" y="48.6367" width="8.80185" height="8.80185" rx="0.907407" transform="rotate(10.6498 99.5356 48.6367)" stroke="white" stroke-opacity="0.07" stroke-width="2" mask="url(#path-19-inside-1_351_6191)"/>
<mask id="path-20-inside-2_351_6191" fill="white">
<rect x="104.15" width="14.6582" height="14.6582" rx="0.907407" transform="rotate(24.8076 104.15 0)"/>
</mask>
<rect x="104.15" width="14.6582" height="14.6582" rx="0.907407" transform="rotate(24.8076 104.15 0)" stroke="white" stroke-opacity="0.07" stroke-width="2" mask="url(#path-20-inside-2_351_6191)"/>
<mask id="path-21-inside-3_351_6191" fill="white">
<rect x="6.15009" width="14.6582" height="14.6582" rx="0.907407" transform="rotate(24.8076 6.15009 0)"/>
</mask>
<rect x="6.15009" width="14.6582" height="14.6582" rx="0.907407" transform="rotate(24.8076 6.15009 0)" stroke="white" stroke-opacity="0.07" stroke-width="2" mask="url(#path-21-inside-3_351_6191)"/>
<path d="M14.9532 43.2063C14.8924 42.5545 15.5846 42.0996 16.1587 42.4141L17.6738 43.2442C18.214 43.5401 18.2447 44.3047 17.73 44.6429L16.3754 45.533C15.8607 45.8712 15.1711 45.5396 15.1138 44.9264L14.9532 43.2063Z" fill="white" fill-opacity="0.07"/>
<path d="M55.3912 23.376C55.3303 22.7242 56.0226 22.2693 56.5967 22.5838L57.197 22.9126C57.7371 23.2086 57.7678 23.9731 57.2531 24.3114L56.7164 24.664C56.2017 25.0023 55.5121 24.6707 55.4548 24.0574L55.3912 23.376Z" fill="white" fill-opacity="0.07"/>
<path d="M89.9634 39.3457C89.9025 38.6939 90.5948 38.239 91.1689 38.5535L91.7692 38.8824C92.3093 39.1783 92.34 39.9429 91.8253 40.2811L91.2886 40.6338C90.7739 40.972 90.0843 40.6404 90.027 40.0272L89.9634 39.3457Z" fill="white" fill-opacity="0.07"/>
<path d="M17.7338 20.7441C17.6729 20.0924 18.3652 19.6375 18.9393 19.952L19.5395 20.2808C20.0797 20.5767 20.1104 21.3413 19.5957 21.6795L19.059 22.0322C18.5443 22.3704 17.8546 22.0389 17.7974 21.4256L17.7338 20.7441Z" fill="white" fill-opacity="0.07"/>
<path d="M41.1984 10.0847C41.1249 9.90362 40.9332 9.80019 40.7415 9.83824L40.6442 9.3478L40.7415 9.83824L30.5982 11.8515C30.2236 11.9259 30.148 12.4284 30.484 12.6097L44.514 20.1795C44.8501 20.3608 45.2285 20.0217 45.085 19.6678L41.1984 10.0847L41.6558 9.89919L41.1984 10.0847Z" stroke="white" stroke-opacity="0.07" stroke-linejoin="round"/>
<path d="M195.333 20.9609C193.609 21.9591 190.297 25.0443 192.43 31.5322C194.234 37.022 200.233 38.8066 203.137 40.7424" stroke="white" stroke-opacity="0.07" stroke-linecap="round" stroke-linejoin="round"/>
<path d="M161.495 31.9817C159.776 30.9289 155.597 29.329 152.627 31.3513" stroke="white" stroke-opacity="0.07" stroke-linecap="round" stroke-linejoin="round"/>
<path d="M145.457 8.79875C149.329 11.0382 155.206 17.0977 147.737 23.4199" stroke="white" stroke-opacity="0.07" stroke-linecap="round" stroke-linejoin="round"/>
<path d="M154.896 36.4326C153.172 37.945 150.758 42.6211 154.896 49.2271" stroke="white" stroke-opacity="0.07" stroke-linecap="round" stroke-linejoin="round"/>
<path d="M161.625 24.3589C168.136 24.5464 179.67 20.697 173.718 3.79939" stroke="white" stroke-opacity="0.07" stroke-linecap="round" stroke-linejoin="round"/>
<path d="M199.949 25.4531H206.845" stroke="white" stroke-opacity="0.07" stroke-linecap="round" stroke-linejoin="round"/>
<path d="M199.177 30.9425H212.063V26.6777" stroke="white" stroke-opacity="0.07" stroke-linecap="round" stroke-linejoin="round"/>
<path d="M185.636 28.3672L176.264 24.9537" stroke="white" stroke-opacity="0.07" stroke-linecap="round" stroke-linejoin="round"/>
<path d="M162.11 39.0177C163.713 36.0081 170.095 32.076 174.314 36.5223C179.945 42.4553 173.543 46.0505 170.503 42.4662C167.464 38.882 168.416 34.6557 173.861 32.6658C179.35 30.6595 182.769 35.8719 183.57 37.5204" stroke="white" stroke-opacity="0.07" stroke-linecap="round" stroke-linejoin="round"/>
<path d="M173.679 50.9013C176.341 53.442 181.819 56.9991 182.436 50.9013C183.207 43.2791 184.205 42.8253 192.054 46.1828" stroke="white" stroke-opacity="0.07" stroke-linecap="round" stroke-linejoin="round"/>
<path d="M130.585 3.53906C130.207 4.92633 128.686 7.90116 125.628 8.7023C121.805 9.70372 122.503 12.2977 124.011 15.3997C125.52 18.5017 129.164 25.3932 122.048 28.8539" stroke="white" stroke-opacity="0.07" stroke-linecap="round" stroke-linejoin="round"/>
<path d="M119.779 34.6631C121.518 39.2757 125.868 47.9022 132.982 44.7807C141.875 40.8788 129.771 29.8538 126.539 38.1566C122.955 47.3668 128.374 54.5213 132.982 58.1196C139.779 63.4274 153.951 63.2815 149.134 55.0344C144.317 46.7872 130.593 56.0474 137.973 68.2825C142.578 75.917 144.763 78.5211 145.232 79.0353" stroke="white" stroke-opacity="0.07" stroke-linecap="round" stroke-linejoin="round"/>
<path d="M130.767 22.7869C133.499 22.2966 138.92 22.2629 138.744 26.0498C138.569 29.8367 141.128 29.8465 142.43 29.378C144.436 29.0504 147.4 29.5897 143.198 34.3679" stroke="white" stroke-opacity="0.07" stroke-linecap="round" stroke-linejoin="round"/>
<path d="M162.427 48.5918L167.645 59.7983C165.074 58.9514 159.814 57.5116 159.342 58.5279C158.87 59.5442 159.146 64.0631 159.342 66.1955C155.259 64.6832 147.891 63.2464 151.085 69.5983" stroke="white" stroke-opacity="0.07" stroke-linecap="round" stroke-linejoin="round"/>
<path d="M184.591 16.6307C184.908 14.7251 186.38 14.5507 187.177 14.9281C189.339 15.9523 188.216 19.9943 184.999 20.2148C181.687 20.4418 179.235 17.0512 181.869 13.5908C184.502 10.1303 189.082 9.71257 191.759 14.7703" stroke="white" stroke-opacity="0.07" stroke-linecap="round" stroke-linejoin="round"/>
<circle cx="143.689" cy="42.0132" r="3.99167" stroke="white" stroke-opacity="0.07"/>
<circle cx="7.53148" cy="7.53148" r="7.03148" transform="matrix(-0.285974 -0.958237 -0.958237 0.285974 172.367 15.6133)" stroke="white" stroke-opacity="0.07"/>
<mask id="path-44-inside-4_351_6191" fill="white">
<rect x="198.536" y="48.6367" width="8.80185" height="8.80185" rx="0.907407" transform="rotate(10.6498 198.536 48.6367)"/>
</mask>
<rect x="198.536" y="48.6367" width="8.80185" height="8.80185" rx="0.907407" transform="rotate(10.6498 198.536 48.6367)" stroke="white" stroke-opacity="0.07" stroke-width="2" mask="url(#path-44-inside-4_351_6191)"/>
<path d="M113.953 43.2063C113.892 42.5545 114.585 42.0996 115.159 42.4141L116.674 43.2442C117.214 43.5401 117.245 44.3047 116.73 44.6429L115.375 45.533C114.861 45.8712 114.171 45.5396 114.114 44.9264L113.953 43.2063Z" fill="white" fill-opacity="0.07"/>
<path d="M154.391 23.376C154.33 22.7242 155.023 22.2693 155.597 22.5838L156.197 22.9126C156.737 23.2086 156.768 23.9731 156.253 24.3114L155.716 24.664C155.202 25.0023 154.512 24.6707 154.455 24.0574L154.391 23.376Z" fill="white" fill-opacity="0.07"/>
<path d="M188.963 39.3457C188.903 38.6939 189.595 38.239 190.169 38.5535L190.769 38.8824C191.309 39.1783 191.34 39.9429 190.825 40.2811L190.289 40.6338C189.774 40.972 189.084 40.6404 189.027 40.0272L188.963 39.3457Z" fill="white" fill-opacity="0.07"/>
<path d="M116.734 20.7441C116.673 20.0924 117.365 19.6375 117.939 19.952L118.54 20.2808C119.08 20.5767 119.11 21.3413 118.596 21.6795L118.059 22.0322C117.544 22.3704 116.855 22.0389 116.797 21.4256L116.734 20.7441Z" fill="white" fill-opacity="0.07"/>
<path d="M140.198 10.0847C140.125 9.90362 139.933 9.80019 139.742 9.83824L139.644 9.3478L139.742 9.83824L129.598 11.8515C129.224 11.9259 129.148 12.4284 129.484 12.6097L143.514 20.1795C143.85 20.3608 144.229 20.0217 144.085 19.6678L140.198 10.0847L140.656 9.89919L140.198 10.0847Z" stroke="white" stroke-opacity="0.07" stroke-linejoin="round"/>
<path d="M294.333 20.9609C292.609 21.9591 289.297 25.0443 291.43 31.5322C293.234 37.022 299.233 38.8066 302.137 40.7424" stroke="white" stroke-opacity="0.07" stroke-linecap="round" stroke-linejoin="round"/>
<path d="M260.495 31.9817C258.776 30.9289 254.597 29.329 251.627 31.3513" stroke="white" stroke-opacity="0.07" stroke-linecap="round" stroke-linejoin="round"/>
<path d="M244.457 8.79875C248.329 11.0382 254.206 17.0977 246.737 23.4199" stroke="white" stroke-opacity="0.07" stroke-linecap="round" stroke-linejoin="round"/>
<path d="M253.896 36.4326C252.172 37.945 249.758 42.6211 253.896 49.2271" stroke="white" stroke-opacity="0.07" stroke-linecap="round" stroke-linejoin="round"/>
<path d="M260.625 24.3589C267.136 24.5464 278.67 20.697 272.718 3.79939" stroke="white" stroke-opacity="0.07" stroke-linecap="round" stroke-linejoin="round"/>
<path d="M298.949 25.4531H305.845" stroke="white" stroke-opacity="0.07" stroke-linecap="round" stroke-linejoin="round"/>
<path d="M298.177 30.9425H311.063V26.6777" stroke="white" stroke-opacity="0.07" stroke-linecap="round" stroke-linejoin="round"/>
<path d="M284.636 28.3672L275.264 24.9537" stroke="white" stroke-opacity="0.07" stroke-linecap="round" stroke-linejoin="round"/>
<path d="M261.11 39.0177C262.713 36.0081 269.095 32.076 273.314 36.5223C278.945 42.4553 272.543 46.0505 269.503 42.4662C266.464 38.882 267.416 34.6557 272.861 32.6658C278.35 30.6595 281.769 35.8719 282.57 37.5204" stroke="white" stroke-opacity="0.07" stroke-linecap="round" stroke-linejoin="round"/>
<path d="M272.679 50.9013C275.341 53.442 280.819 56.9991 281.436 50.9013C282.207 43.2791 283.205 42.8253 291.054 46.1828" stroke="white" stroke-opacity="0.07" stroke-linecap="round" stroke-linejoin="round"/>
<path d="M229.585 3.53906C229.207 4.92633 227.686 7.90116 224.628 8.7023C220.805 9.70372 221.503 12.2977 223.011 15.3997C224.52 18.5017 228.164 25.3932 221.048 28.8539" stroke="white" stroke-opacity="0.07" stroke-linecap="round" stroke-linejoin="round"/>
<path d="M218.779 34.6631C220.518 39.2757 224.868 47.9022 231.982 44.7807C240.875 40.8788 228.771 29.8538 225.539 38.1566C221.955 47.3668 227.374 54.5213 231.982 58.1196C238.779 63.4274 252.951 63.2815 248.134 55.0344C243.317 46.7872 229.593 56.0474 236.973 68.2825C241.578 75.917 243.763 78.5211 244.232 79.0353" stroke="white" stroke-opacity="0.07" stroke-linecap="round" stroke-linejoin="round"/>
<path d="M229.767 22.7869C232.499 22.2966 237.92 22.2629 237.744 26.0498C237.569 29.8367 240.128 29.8465 241.43 29.378C243.436 29.0504 246.4 29.5897 242.198 34.3679" stroke="white" stroke-opacity="0.07" stroke-linecap="round" stroke-linejoin="round"/>
<path d="M261.427 48.5918L266.645 59.7983C264.074 58.9514 258.814 57.5116 258.342 58.5279C257.87 59.5442 258.146 64.0631 258.342 66.1955C254.259 64.6832 246.891 63.2464 250.085 69.5983" stroke="white" stroke-opacity="0.07" stroke-linecap="round" stroke-linejoin="round"/>
<path d="M283.591 16.6307C283.908 14.7251 285.38 14.5507 286.177 14.9281C288.339 15.9523 287.216 19.9943 283.999 20.2148C280.687 20.4418 278.235 17.0512 280.869 13.5908C283.502 10.1303 288.082 9.71257 290.759 14.7703" stroke="white" stroke-opacity="0.07" stroke-linecap="round" stroke-linejoin="round"/>
<circle cx="242.689" cy="42.0132" r="3.99167" stroke="white" stroke-opacity="0.07"/>
<circle cx="7.53148" cy="7.53148" r="7.03148" transform="matrix(-0.285974 -0.958237 -0.958237 0.285974 271.367 15.6133)" stroke="white" stroke-opacity="0.07"/>
<mask id="path-67-inside-5_351_6191" fill="white">
<rect x="297.536" y="48.6367" width="8.80185" height="8.80185" rx="0.907407" transform="rotate(10.6498 297.536 48.6367)"/>
</mask>
<rect x="297.536" y="48.6367" width="8.80185" height="8.80185" rx="0.907407" transform="rotate(10.6498 297.536 48.6367)" stroke="white" stroke-opacity="0.07" stroke-width="2" mask="url(#path-67-inside-5_351_6191)"/>
<mask id="path-68-inside-6_351_6191" fill="white">
<rect x="302.15" width="14.6582" height="14.6582" rx="0.907407" transform="rotate(24.8076 302.15 0)"/>
</mask>
<rect x="302.15" width="14.6582" height="14.6582" rx="0.907407" transform="rotate(24.8076 302.15 0)" stroke="white" stroke-opacity="0.07" stroke-width="2" mask="url(#path-68-inside-6_351_6191)"/>
<mask id="path-69-inside-7_351_6191" fill="white">
<rect x="204.15" width="14.6582" height="14.6582" rx="0.907407" transform="rotate(24.8076 204.15 0)"/>
</mask>
<rect x="204.15" width="14.6582" height="14.6582" rx="0.907407" transform="rotate(24.8076 204.15 0)" stroke="white" stroke-opacity="0.07" stroke-width="2" mask="url(#path-69-inside-7_351_6191)"/>
<path d="M212.953 43.2063C212.892 42.5545 213.585 42.0996 214.159 42.4141L215.674 43.2442C216.214 43.5401 216.245 44.3047 215.73 44.6429L214.375 45.533C213.861 45.8712 213.171 45.5396 213.114 44.9264L212.953 43.2063Z" fill="white" fill-opacity="0.07"/>
<path d="M253.391 23.376C253.33 22.7242 254.023 22.2693 254.597 22.5838L255.197 22.9126C255.737 23.2086 255.768 23.9731 255.253 24.3114L254.716 24.664C254.202 25.0023 253.512 24.6707 253.455 24.0574L253.391 23.376Z" fill="white" fill-opacity="0.07"/>
<path d="M287.963 39.3457C287.903 38.6939 288.595 38.239 289.169 38.5535L289.769 38.8824C290.309 39.1783 290.34 39.9429 289.825 40.2811L289.289 40.6338C288.774 40.972 288.084 40.6404 288.027 40.0272L287.963 39.3457Z" fill="white" fill-opacity="0.07"/>
<path d="M215.734 20.7441C215.673 20.0924 216.365 19.6375 216.939 19.952L217.54 20.2808C218.08 20.5767 218.11 21.3413 217.596 21.6795L217.059 22.0322C216.544 22.3704 215.855 22.0389 215.797 21.4256L215.734 20.7441Z" fill="white" fill-opacity="0.07"/>
<path d="M239.198 10.0847C239.125 9.90362 238.933 9.80019 238.742 9.83824L238.644 9.3478L238.742 9.83824L228.598 11.8515C228.224 11.9259 228.148 12.4284 228.484 12.6097L242.514 20.1795C242.85 20.3608 243.229 20.0217 243.085 19.6678L239.198 10.0847L239.656 9.89919L239.198 10.0847Z" stroke="white" stroke-opacity="0.07" stroke-linejoin="round"/>
</svg>
