<svg width="330" height="49" viewBox="0 0 330 49" fill="none" xmlns="http://www.w3.org/2000/svg">
<g clip-path="url(#clip0_338_1787)">
<path d="M-138.473 145.82L223.245 -192" stroke="white" stroke-opacity="0.07"/>
<path d="M-20.2624 276.762L341.455 -61.0584" stroke="white" stroke-opacity="0.07"/>
<path d="M-79.3676 211.291L282.35 -126.529" stroke="white" stroke-opacity="0.07"/>
<path d="M38.8428 342.234L400.561 4.41421" stroke="white" stroke-opacity="0.07"/>
<path d="M-108.92 178.555L252.798 -159.265" stroke="white" stroke-opacity="0.07"/>
<path d="M9.29037 309.498L371.008 -28.3221" stroke="white" stroke-opacity="0.07"/>
<path d="M-49.8152 244.027L311.903 -93.7928" stroke="white" stroke-opacity="0.07"/>
<path d="M68.3959 374.971L249.255 206.061L430.114 37.1505" stroke="white" stroke-opacity="0.07"/>
<path d="M-128.622 156.732L233.096 -181.088" stroke="white" stroke-opacity="0.07"/>
<path d="M-10.4115 287.674L351.306 -50.1463" stroke="white" stroke-opacity="0.07"/>
<path d="M-69.5171 222.203L292.201 -115.617" stroke="white" stroke-opacity="0.07"/>
<path d="M48.6941 353.146L410.412 15.3263" stroke="white" stroke-opacity="0.07"/>
<path d="M-99.0694 189.467L262.648 -148.353" stroke="white" stroke-opacity="0.07"/>
<path d="M19.1413 320.41L380.859 -17.41" stroke="white" stroke-opacity="0.07"/>
<path d="M-39.9643 254.939L321.754 -82.8807" stroke="white" stroke-opacity="0.07"/>
<path d="M78.2469 385.881L439.965 48.0607" stroke="white" stroke-opacity="0.07"/>
<path d="M-118.771 167.643L242.947 -170.178" stroke="white" stroke-opacity="0.07"/>
<path d="M-0.560547 298.586L361.157 -39.2342" stroke="white" stroke-opacity="0.07"/>
<path d="M-59.6661 233.115L302.052 -104.705" stroke="white" stroke-opacity="0.07"/>
<path d="M58.5446 364.059L420.262 26.2384" stroke="white" stroke-opacity="0.07"/>
<path d="M-89.2189 200.379L272.499 -137.441" stroke="white" stroke-opacity="0.07"/>
<path d="M28.9922 331.322L390.71 -6.4979" stroke="white" stroke-opacity="0.07"/>
<path d="M-30.1133 265.852L331.605 -71.9686" stroke="white" stroke-opacity="0.07"/>
</g>
<defs>
<clipPath id="clip0_338_1787">
<rect width="330" height="49" fill="white"/>
</clipPath>
</defs>
</svg>
