<svg width="330" height="49" viewBox="0 0 330 49" fill="none" xmlns="http://www.w3.org/2000/svg">
<g clip-path="url(#clip0_338_1784)">
<path d="M-123.778 94.0215L-94.7035 116.758L-100.239 80.2666L-71.1644 103.003L-76.6995 66.5118L-47.6253 89.2483L-53.1604 52.7569L-24.0862 75.4934L-29.6114 38.9963L-0.537205 61.7328L-6.07229 25.2414L23.0019 47.9779L17.4668 11.4865L46.5509 34.2173L41.0158 -2.27412L70.09 20.4624L64.5549 -16.029L93.639 6.70177L88.1039 -29.7896L117.178 -7.05311L111.653 -43.5502L140.727 -20.8137L135.192 -57.3051L164.266 -34.5686L158.731 -71.06L187.805 -48.3235L182.27 -84.8148L211.354 -62.0841L205.819 -98.5755L234.893 -75.839L229.368 -112.336L258.442 -89.5996L252.917 -126.097L282.001 -103.366L276.466 -139.857L305.54 -117.121L300.015 -153.618L329.099 -130.887L323.574 -167.384L352.658 -144.654" stroke="white" stroke-opacity="0.07" stroke-width="1.01752" stroke-miterlimit="10"/>
<path d="M-172.284 11.0117L-143.21 33.7482L-148.745 -2.74315L-119.671 19.9934L-125.206 -16.498L-96.1318 6.2385L-101.667 -30.2529L-72.5927 -7.51636L-78.1179 -44.0135L-49.0437 -21.277L-54.5788 -57.7684L-25.5046 -35.0319L-31.0397 -71.5232L-1.95564 -48.7925L-7.49073 -85.2839L21.5835 -62.5474L16.0484 -99.0387L45.1324 -76.308L39.5973 -112.799L68.6715 -90.0629L63.1463 -126.56L92.2205 -103.824L86.6854 -140.315L115.76 -117.578L110.225 -154.07L139.299 -131.333L133.764 -167.825L162.848 -145.094L157.313 -181.585L186.387 -158.849L180.862 -195.346L209.936 -172.609L204.411 -209.107L233.495 -186.376L227.96 -222.867L257.034 -200.131L251.508 -236.628L280.593 -213.897L275.067 -250.394L304.151 -227.663" stroke="white" stroke-opacity="0.07" stroke-width="1.01752" stroke-miterlimit="10"/>
<path d="M-75.2711 177.033L-46.1969 199.77L-51.732 163.278L-22.6578 186.015L-28.1929 149.523L0.881286 172.26L-4.65381 135.769L24.4204 158.505L18.8952 122.008L47.9694 144.744L42.4343 108.253L71.5085 130.99L65.9734 94.4982L95.0575 117.229L89.5224 80.7376L118.597 103.474L113.061 66.9827L142.146 89.7135L136.61 53.2221L165.685 75.9586L160.159 39.4615L189.234 62.198L183.699 25.7066L212.773 48.4431L207.238 11.9517L236.312 34.6883L230.777 -1.80312L259.861 20.9276L254.326 -15.5638L283.4 7.17276L277.875 -29.3244L306.949 -6.58787L301.424 -43.085L330.508 -20.3543L324.973 -56.8457L354.047 -34.1092L348.522 -70.6063L377.606 -47.8755L372.08 -84.3727L401.165 -61.642" stroke="white" stroke-opacity="0.07" stroke-width="1.01752" stroke-miterlimit="10"/>
<path d="M-1.43774 303.385L27.6365 326.121L22.1014 289.63L51.1756 312.366L45.6405 275.875L74.7147 298.612L69.1796 262.12L98.2538 284.857L92.7285 248.36L121.803 271.096L116.268 234.605L145.342 257.341L139.807 220.85L168.891 243.581L163.356 207.089L192.43 229.826L186.895 193.334L215.979 216.065L210.444 179.574L239.518 202.31L233.993 165.813L263.067 188.55L257.532 152.058L286.606 174.795L281.071 138.303L310.145 161.04L304.61 124.548L333.694 147.279L328.159 110.788L357.233 133.524L351.708 97.0272L380.782 119.764L375.257 83.2665L404.341 105.997L398.806 69.5059L427.88 92.2424L422.355 55.7453L451.439 78.476L445.914 41.9789L474.998 64.7096" stroke="white" stroke-opacity="0.07" stroke-width="1.01752" stroke-miterlimit="10"/>
<path d="M-100.597 133.691L-71.523 156.428L-77.0581 119.937L-47.9839 142.673L-53.519 106.182L-24.4448 128.918L-29.9799 92.4268L-0.905668 115.163L-6.43089 78.6662L22.6433 101.403L17.1082 64.9113L46.1824 87.6478L40.6473 51.1564L69.7314 73.8872L64.1963 37.3958L93.2705 60.1323L87.7354 23.6409L116.819 46.3717L111.284 9.8803L140.359 32.6168L134.833 -3.88033L163.908 18.8562L158.372 -17.6352L187.447 5.10133L181.912 -31.3901L210.986 -8.65353L205.451 -45.1449L234.535 -22.4142L229 -58.9056L258.074 -36.169L252.549 -72.6662L281.623 -49.9297L276.098 -86.4268L305.182 -63.6961L299.647 -100.187L328.721 -77.4509L323.196 -113.948L352.28 -91.2173L346.754 -127.714L375.838 -104.984" stroke="white" stroke-opacity="0.07" stroke-width="1.01752" stroke-miterlimit="10"/>
<path d="M-26.7643 260.043L2.30988 282.779L-3.22521 246.288L25.849 269.025L20.3139 232.533L49.3881 255.27L43.853 218.778L72.9272 241.515L67.402 205.018L96.4762 227.754L90.9411 191.263L120.015 213.999L114.48 177.508L143.564 200.239L138.029 163.747L167.103 186.484L161.568 149.993L190.652 172.723L185.117 136.232L214.191 158.968L208.666 122.471L237.74 145.208L232.205 108.716L261.279 131.453L255.744 94.9615L284.819 117.698L279.284 81.2066L308.368 103.937L302.832 67.446L331.907 90.1825L326.381 53.6854L355.456 76.4219L349.93 39.9247L379.015 62.6555L373.479 26.1641L402.554 48.9006L397.028 12.4035L426.112 35.1342L420.587 -1.36292L449.671 21.3678" stroke="white" stroke-opacity="0.07" stroke-width="1.01752" stroke-miterlimit="10"/>
<path d="M-149.104 50.6797L-120.03 73.4162L-125.565 36.9248L-96.4904 59.6613L-102.026 23.17L-72.9513 45.9065L-78.4864 9.41509L-49.4122 32.1516L-54.9374 -4.34554L-25.8633 18.391L-31.3983 -18.1004L-2.32414 4.6361L-7.85923 -31.8553L21.2248 -9.12454L15.6897 -45.6159L44.7639 -22.8794L39.2288 -59.3708L68.3129 -36.64L62.7778 -73.1314L91.852 -50.3949L86.3268 -86.892L115.401 -64.1555L109.866 -100.647L138.94 -77.9104L133.405 -114.402L162.479 -91.6653L156.944 -128.157L186.028 -105.426L180.493 -141.917L209.567 -119.181L204.042 -155.678L233.116 -132.941L227.591 -169.439L256.675 -146.708L251.14 -183.199L280.214 -160.463L274.689 -196.96L303.773 -174.229L298.248 -210.726L327.332 -187.995" stroke="white" stroke-opacity="0.07" stroke-width="1.01752" stroke-miterlimit="10"/>
<path d="M-52.0906 216.701L-23.0164 239.438L-28.5515 202.946L0.522664 225.683L-5.01243 189.191L24.0618 211.928L18.5267 175.437L47.6009 198.173L42.0756 161.676L71.1498 184.412L65.6148 147.921L94.689 170.658L89.1539 134.166L118.238 156.897L112.703 120.406L141.777 143.142L136.242 106.651L165.326 129.381L159.791 92.8901L188.865 115.627L183.34 79.1294L212.414 101.866L206.879 65.3746L235.953 88.1111L230.418 51.6197L259.492 74.3562L253.957 37.8648L283.041 60.5956L277.506 24.1042L306.58 46.8407L301.055 10.3436L330.129 33.0801L324.604 -3.41705L353.688 19.3137L348.153 -17.1777L377.227 5.55882L371.702 -30.9383L400.786 -8.20758L395.261 -44.7047L424.345 -21.974" stroke="white" stroke-opacity="0.07" stroke-width="1.01752" stroke-miterlimit="10"/>
<path d="M-112.187 113.855L-83.1132 136.592L-88.6483 100.101L-59.5741 122.837L-65.1092 86.3457L-36.035 109.082L-41.5701 72.5909L-12.4959 95.3274L-18.0211 58.8302L11.0531 81.5668L5.51798 45.0754L34.5922 67.8119L29.0571 31.3205L58.1412 54.0512L52.6061 17.5599L81.6803 40.2964L76.1452 3.805L105.229 26.5357L99.6942 -9.95563L128.768 12.7809L123.243 -23.7163L152.317 -0.979752L146.782 -37.4711L175.856 -14.7346L170.321 -51.226L199.395 -28.4895L193.86 -64.9809L222.944 -42.2501L217.409 -78.7415L246.484 -56.005L240.958 -92.5021L270.033 -69.7656L264.507 -106.263L293.591 -83.532L288.056 -120.023L317.131 -97.2869L311.605 -133.784L340.689 -111.053L335.164 -147.55L364.248 -124.82" stroke="white" stroke-opacity="0.07" stroke-width="1.01752" stroke-miterlimit="10"/>
<path d="M-160.694 30.8457L-131.62 53.5822L-137.155 17.0908L-108.081 39.8273L-113.616 3.33597L-84.5418 26.0725L-90.0769 -10.4189L-61.0027 12.3176L-66.5279 -24.1795L-37.4537 -1.44301L-42.9888 -37.9344L-13.9146 -15.1979L-19.4497 -51.6893L9.63436 -28.9585L4.09926 -65.4499L33.1735 -42.7134L27.6384 -79.2048L56.7224 -56.474L51.1873 -92.9654L80.2615 -70.2289L74.7363 -106.726L103.811 -83.9895L98.2754 -120.481L127.35 -97.7444L121.815 -134.236L150.889 -111.499L145.354 -147.991L174.438 -125.26L168.903 -161.751L197.977 -139.015L192.452 -175.512L221.526 -152.775L216.001 -189.273L245.085 -166.542L239.55 -203.033L268.624 -180.297L263.098 -216.794L292.183 -194.063L286.657 -230.56L315.741 -207.829" stroke="white" stroke-opacity="0.07" stroke-width="1.01752" stroke-miterlimit="10"/>
<path d="M-63.6809 196.867L-34.6067 219.604L-40.1418 183.112L-11.0676 205.849L-16.6027 169.357L12.4715 192.094L6.93643 155.603L36.0106 178.339L30.4854 141.842L59.5596 164.578L54.0245 128.087L83.0987 150.824L77.5636 114.332L106.648 137.063L101.113 100.572L130.187 123.308L124.652 86.8167L153.736 109.547L148.201 73.0561L177.275 95.7926L171.75 59.2955L200.824 82.032L195.289 45.5406L224.363 68.2771L218.828 31.7857L247.902 54.5222L242.367 18.0309L271.451 40.7616L265.916 4.27023L294.99 27.0067L289.465 -9.49041L318.539 13.2461L313.014 -23.251L342.098 -0.520304L336.563 -37.0117L365.637 -14.2752L360.112 -50.7723L389.196 -28.0416L383.671 -64.5387L412.755 -41.808" stroke="white" stroke-opacity="0.07" stroke-width="1.01752" stroke-miterlimit="10"/>
<path d="M-186.021 -12.4961L-156.946 10.2404L-162.481 -26.251L-133.407 -3.51445L-138.942 -40.0058L-109.868 -17.2693L-115.403 -53.7607L-86.329 -31.0242L-91.8543 -67.5213L-62.7801 -44.7848L-68.3152 -81.2762L-39.2409 -58.5397L-44.776 -95.0311L-15.692 -72.3003L-21.2271 -108.792L7.84713 -86.0552L2.31204 -122.547L31.3961 -99.8158L25.861 -136.307L54.9352 -113.571L49.41 -150.068L78.4842 -127.331L72.9491 -163.823L102.023 -141.086L96.4882 -177.578L125.562 -154.841L120.027 -191.332L149.111 -168.602L143.576 -205.093L172.65 -182.357L167.125 -218.854L196.199 -196.117L190.674 -232.614L219.758 -209.884L214.223 -246.375L243.297 -223.638L237.772 -260.136L266.856 -237.405L261.331 -273.902L290.415 -251.171" stroke="white" stroke-opacity="0.07" stroke-width="1.01752" stroke-miterlimit="10"/>
<path d="M-89.0072 153.525L-59.933 176.262L-65.4681 139.771L-36.3939 162.507L-41.929 126.016L-12.8548 148.752L-18.3899 112.261L10.6843 134.997L5.15908 98.5002L34.2333 121.237L28.6982 84.7453L57.7724 107.482L52.2373 70.9904L81.3214 93.7212L75.7863 57.2298L104.86 79.9663L99.3254 43.4749L128.409 66.2057L122.874 29.7143L151.949 52.4508L146.423 15.9537L175.498 38.6902L169.962 2.19879L199.037 24.9353L193.502 -11.5561L222.576 11.1805L217.041 -25.3109L246.125 -2.58019L240.59 -39.0716L269.664 -16.335L264.139 -52.8322L293.213 -30.0957L287.688 -66.5928L316.772 -43.8621L311.237 -80.3535L340.311 -57.617L334.786 -94.1141L363.87 -71.3834L358.344 -107.881L387.428 -85.1498" stroke="white" stroke-opacity="0.07" stroke-width="1.01752" stroke-miterlimit="10"/>
<path d="M-15.1741 279.877L13.9001 302.613L8.36503 266.122L37.4392 288.859L31.9041 252.367L60.9783 275.104L55.4432 238.612L84.5174 261.349L78.9922 224.852L108.066 247.588L102.531 211.097L131.606 233.833L126.07 197.342L155.154 220.073L149.619 183.581L178.694 206.318L173.159 169.826L202.243 192.557L196.707 156.066L225.782 178.802L220.256 142.305L249.331 165.042L243.796 128.55L272.87 151.287L267.335 114.795L296.409 137.532L290.874 101.041L319.958 123.771L314.423 87.28L343.497 110.017L337.972 73.5194L367.046 96.2559L361.521 59.7587L390.605 82.4895L385.07 45.9981L414.144 68.7346L408.619 32.2375L437.703 54.9682L432.177 18.4711L461.262 41.2018" stroke="white" stroke-opacity="0.07" stroke-width="1.01752" stroke-miterlimit="10"/>
<path d="M-137.514 70.5137L-108.44 93.2502L-113.975 56.7588L-84.9004 79.4953L-90.4355 43.0039L-61.3613 65.7405L-66.8964 29.2491L-37.8222 51.9856L-43.3475 15.4884L-14.2733 38.225L-19.8083 1.73358L9.26586 24.4701L3.73076 -12.0213L32.8148 10.7094L27.2797 -25.7819L56.3539 -3.04542L50.8188 -39.5368L79.9029 -16.806L74.3678 -53.2974L103.442 -30.5609L97.9168 -67.0581L126.991 -44.3215L121.456 -80.8129L150.53 -58.0764L144.995 -94.5678L174.069 -71.8313L168.534 -108.323L197.618 -85.5919L192.083 -122.083L221.157 -99.3468L215.632 -135.844L244.706 -113.107L239.181 -149.605L268.265 -126.874L262.73 -163.365L291.804 -140.629L286.279 -177.126L315.363 -154.395L309.838 -190.892L338.922 -168.161" stroke="white" stroke-opacity="0.07" stroke-width="1.01752" stroke-miterlimit="10"/>
<path d="M-40.5004 236.537L-11.4262 259.274L-16.9613 222.782L12.1129 245.519L6.57781 209.027L35.652 231.764L30.1169 195.273L59.1911 218.009L53.6659 181.512L82.7401 204.248L77.205 167.757L106.279 190.494L100.744 154.002L129.828 176.733L124.293 140.242L153.367 162.978L147.832 126.487L176.916 149.217L171.381 112.726L200.455 135.463L194.93 98.9654L224.004 121.702L218.469 85.2105L247.543 107.947L242.008 71.4557L271.083 94.1922L265.547 57.7008L294.631 80.4315L289.096 43.9401L318.171 66.6767L312.645 30.1795L341.72 52.916L336.194 16.4189L365.278 39.1496L359.743 2.65825L388.818 25.3948L383.292 -11.1024L412.376 11.6284L406.851 -24.8688L435.935 -2.13806" stroke="white" stroke-opacity="0.07" stroke-width="1.01752" stroke-miterlimit="10"/>
</g>
<defs>
<clipPath id="clip0_338_1784">
<rect width="330" height="49" fill="white"/>
</clipPath>
</defs>
</svg>
