<svg width="330" height="49" viewBox="0 0 330 49" fill="none" xmlns="http://www.w3.org/2000/svg">
<g clip-path="url(#clip0_338_1780)">
<path d="M-35 7.71973C5 7.71973 5 24.9997 45 24.9997C85 24.9997 85 7.71973 124.99 7.71973C164.981 7.71973 164.99 24.9997 204.99 24.9997C244.99 24.9997 245 7.71973 285 7.71973C325 7.71973 325 24.9997 365 24.9997" stroke="white" stroke-opacity="0.07" stroke-miterlimit="10"/>
<path d="M-35 -9.55957C5 -9.55957 5 7.72043 45 7.72043C85 7.72043 85 -9.55957 124.99 -9.55957C164.981 -9.55957 164.99 7.72043 204.99 7.72043C244.99 7.72043 245 -9.55957 285 -9.55957C325 -9.55957 325 7.72043 365 7.72043" stroke="white" stroke-opacity="0.07" stroke-miterlimit="10"/>
<path d="M-35 25C5 25 5 42.28 45 42.28C85 42.28 85 25 124.99 25C164.981 25 164.99 42.28 204.99 42.28C244.99 42.28 245 25 285 25C325 25 325 42.28 365 42.28" stroke="white" stroke-opacity="0.07" stroke-miterlimit="10"/>
<path d="M-35 16.3604C5 16.3604 5 33.6404 45 33.6404C85 33.6404 85 16.3604 124.99 16.3604C164.981 16.3604 164.99 33.6404 204.99 33.6404C244.99 33.6404 245 16.3604 285 16.3604C325 16.3604 325 33.6404 365 33.6404" stroke="white" stroke-opacity="0.07" stroke-miterlimit="10"/>
<path d="M-35 -0.919922C5 -0.919922 5 16.3601 45 16.3601C85 16.3601 85 -0.919922 124.99 -0.919922C164.981 -0.919922 164.99 16.3601 204.99 16.3601C244.99 16.3601 245 -0.919922 285 -0.919922C325 -0.919922 325 16.3601 365 16.3601" stroke="white" stroke-opacity="0.07" stroke-miterlimit="10"/>
<path d="M-35 42.2803C5 42.2803 5 59.5603 45 59.5603C85 59.5603 85 42.2803 124.99 42.2803C164.981 42.2803 164.99 59.5603 204.99 59.5603C244.99 59.5603 245 42.2803 285 42.2803C325 42.2803 325 59.5603 365 59.5603" stroke="white" stroke-opacity="0.07" stroke-miterlimit="10"/>
<path d="M-35 33.6396C5 33.6396 5 50.9196 45 50.9196C85 50.9196 85 33.6396 124.99 33.6396C164.981 33.6396 164.99 50.9196 204.99 50.9196C244.99 50.9196 245 33.6396 285 33.6396C325 33.6396 325 50.9196 365 50.9196" stroke="white" stroke-opacity="0.07" stroke-miterlimit="10"/>
</g>
<defs>
<clipPath id="clip0_338_1780">
<rect width="330" height="49" fill="white"/>
</clipPath>
</defs>
</svg>
