<svg width="295" height="97" viewBox="0 0 295 97" fill="none" xmlns="http://www.w3.org/2000/svg">
<path d="M1.06006 294.939L1.06005 -8.06056" stroke="white" stroke-opacity="0.07"/>
<path d="M110.912 294.939L110.912 -8.06056" stroke="white" stroke-opacity="0.07"/>
<path d="M55.9863 294.939L55.9863 -8.06056" stroke="white" stroke-opacity="0.07"/>
<path d="M165.839 294.939L165.839 -8.06056" stroke="white" stroke-opacity="0.07"/>
<path d="M229.919 294.939L229.919 -8.06056" stroke="white" stroke-opacity="0.07"/>
<path d="M28.5232 294.939L28.5232 -8.06056" stroke="white" stroke-opacity="0.07"/>
<path d="M138.375 294.939L138.375 -8.06056" stroke="white" stroke-opacity="0.07"/>
<path d="M83.4495 294.939L83.4494 -8.06056" stroke="white" stroke-opacity="0.07"/>
<path d="M193.302 294.939L193.302 143.439L193.302 -8.06055" stroke="white" stroke-opacity="0.07"/>
<path d="M257.383 294.939L257.383 -8.06056" stroke="white" stroke-opacity="0.07"/>
<path d="M10.2144 294.939L10.2143 -8.06056" stroke="white" stroke-opacity="0.07"/>
<path d="M120.067 294.939L120.067 -8.06056" stroke="white" stroke-opacity="0.07"/>
<path d="M65.1406 294.939L65.1406 -8.06056" stroke="white" stroke-opacity="0.07"/>
<path d="M174.993 294.939L174.993 -8.06055" stroke="white" stroke-opacity="0.07"/>
<path d="M239.074 294.939L239.074 -8.06056" stroke="white" stroke-opacity="0.07"/>
<path d="M37.6775 294.939L37.6775 -8.06056" stroke="white" stroke-opacity="0.07"/>
<path d="M147.53 294.939L147.53 -8.06056" stroke="white" stroke-opacity="0.07"/>
<path d="M92.6038 294.939L92.6037 -8.06056" stroke="white" stroke-opacity="0.07"/>
<path d="M202.456 294.939L202.456 -8.06056" stroke="white" stroke-opacity="0.07"/>
<path d="M266.537 294.939L266.537 -8.06056" stroke="white" stroke-opacity="0.07"/>
<path d="M284.846 294.939L284.846 -8.06056" stroke="white" stroke-opacity="0.07"/>
<path d="M19.3687 294.939L19.3686 -8.06056" stroke="white" stroke-opacity="0.07"/>
<path d="M129.221 294.939L129.221 -8.06056" stroke="white" stroke-opacity="0.07"/>
<path d="M74.2949 294.939L74.2949 -8.06056" stroke="white" stroke-opacity="0.07"/>
<path d="M184.147 294.939L184.147 -8.06056" stroke="white" stroke-opacity="0.07"/>
<path d="M248.228 294.939L248.228 -8.06056" stroke="white" stroke-opacity="0.07"/>
<path d="M46.8318 294.939L46.8318 -8.06056" stroke="white" stroke-opacity="0.07"/>
<path d="M156.684 294.939L156.684 -8.06056" stroke="white" stroke-opacity="0.07"/>
<path d="M220.765 294.939L220.765 -8.06056" stroke="white" stroke-opacity="0.07"/>
<path d="M101.758 294.939L101.758 -8.06056" stroke="white" stroke-opacity="0.07"/>
<path d="M211.61 294.939L211.61 -8.06056" stroke="white" stroke-opacity="0.07"/>
<path d="M275.691 294.939L275.691 -8.06056" stroke="white" stroke-opacity="0.07"/>
<path d="M294 294.939L294 -8.06056" stroke="white" stroke-opacity="0.07"/>
</svg>
