<svg width="303" height="144" viewBox="0 0 303 144" fill="none" xmlns="http://www.w3.org/2000/svg">
<path d="M0 -3L6.44444 0.552L12.8912 -3L19.3379 0.552L25.7846 -3L32.2291 0.552L38.6758 -3L45.1225 0.552L51.5693 -3L58.016 0.552L64.4627 -3L70.9072 0.552L77.3539 -3L83.8006 0.552L90.2497 -3L96.6964 0.552L103.143 -3L109.59 0.552L116.037 -3L122.483 0.552M122.483 0.552L128.932 -3L135.379 0.552L141.826 -3L148.273 0.552L154.719 -3L161.168 0.552L167.615 -3L174.064 0.552L180.513 -3L186.962 0.552M122.483 0.552L116.038 -3M122.483 0.552L128.929 -3L135.376 0.552L141.823 -3L148.267 0.552L154.714 -3L161.16 0.552L167.607 -3L174.054 0.552L180.501 -3L186.945 0.552L193.392 -3L199.839 0.552L206.288 -3L212.734 0.552L219.181 -3L225.628 0.552L232.074 -3L238.521 0.552L244.97 -3L251.417 0.552L257.864 -3L264.31 0.552L270.757 -3L277.206 0.552L283.653 -3L290.102 0.552L296.551 -3L303 0.552M0 25.448L6.44444 29L12.8912 25.448L19.3379 29L25.7846 25.448L32.2291 29L38.6758 25.448L45.1225 29L51.5693 25.448L58.016 29L64.4627 25.448L70.9072 29L77.3539 25.448L83.8006 29L90.2497 25.448L96.6964 29L103.143 25.448L109.59 29L116.037 25.448L122.483 29M122.483 29L128.932 25.448L135.379 29L141.826 25.448L148.273 29L154.719 25.448L161.168 29L167.615 25.448L174.064 29L180.513 25.448L186.962 29M122.483 29L116.038 25.448M122.483 29L128.929 25.448L135.376 29L141.823 25.448L148.267 29L154.714 25.448L161.16 29L167.607 25.448L174.054 29L180.501 25.448L186.945 29L193.392 25.448L199.839 29L206.288 25.448L212.734 29L219.181 25.448L225.628 29L232.074 25.448L238.521 29L244.97 25.448L251.417 29L257.864 25.448L264.31 29L270.757 25.448L277.206 29L283.653 25.448L290.102 29L296.551 25.448L303 29M0 85.896L6.44444 89.448L12.8912 85.896L19.3379 89.448L25.7846 85.896L32.2291 89.448L38.6758 85.896L45.1225 89.448L51.5693 85.896L58.016 89.448L64.4627 85.896L70.9072 89.448L77.3539 85.896L83.8006 89.448L90.2497 85.896L96.6964 89.448L103.143 85.896L109.59 89.448L116.037 85.896L122.483 89.448M122.483 89.448L128.932 85.896L135.379 89.448L141.826 85.896L148.273 89.448L154.719 85.896L161.168 89.448L167.615 85.896L174.064 89.448L180.513 85.896L186.962 89.448M122.483 89.448L116.038 85.896M122.483 89.448L128.929 85.896L135.376 89.448L141.823 85.896L148.267 89.448L154.714 85.896L161.16 89.448L167.607 85.896L174.054 89.448L180.501 85.896L186.945 89.448L193.392 85.896L199.839 89.448L206.288 85.896L212.734 89.448L219.181 85.896L225.628 89.448L232.074 85.896L238.521 89.448L244.97 85.896L251.417 89.448L257.864 85.896L264.31 89.448L270.757 85.896L277.206 89.448L283.653 85.896L290.102 89.448L296.551 85.896L303 89.448M0 53.8961L6.44444 57.4481L12.8912 53.8961L19.3379 57.4481L25.7846 53.8961L32.2291 57.4481L38.6758 53.8961L45.1225 57.4481L51.5693 53.8961L58.016 57.4481L64.4627 53.8961L70.9072 57.4481L77.3539 53.8961L83.8006 57.4481L90.2497 53.8961L96.6964 57.4481L103.143 53.8961L109.59 57.4481L116.037 53.8961L122.483 57.4481M122.483 57.4481L128.932 53.8961L135.379 57.4481L141.826 53.8961L148.273 57.4481L154.719 53.8961L161.168 57.4481L167.615 53.8961L174.064 57.4481L180.513 53.8961L186.962 57.4481M122.483 57.4481L116.038 53.8961M122.483 57.4481L128.929 53.8961L135.376 57.4481L141.823 53.8961L148.267 57.4481L154.714 53.8961L161.16 57.4481L167.607 53.8961L174.054 57.4481L180.501 53.8961L186.945 57.4481L193.392 53.8961L199.839 57.4481L206.288 53.8961L212.734 57.4481L219.181 53.8961L225.628 57.4481L232.074 53.8961L238.521 57.4481L244.97 53.8961L251.417 57.4481L257.864 53.8961L264.31 57.4481L270.757 53.8961L277.206 57.4481L283.653 53.8961L290.102 57.4481L296.551 53.8961L303 57.4481M0 114.328L6.44444 117.896L12.8912 114.328L19.3379 117.896L25.7846 114.328L32.2291 117.896L38.6758 114.328L45.1225 117.896L51.5693 114.328L58.016 117.896L64.4627 114.328L70.9072 117.896L77.3539 114.328L83.8006 117.896L90.2497 114.328L96.6964 117.896L103.143 114.328L109.59 117.896L116.037 114.328L122.483 117.896M122.483 117.896L128.932 114.328L135.379 117.896L141.826 114.328L148.273 117.896L154.719 114.328L161.168 117.896L167.615 114.328L174.064 117.896L180.513 114.328L186.962 117.896M122.483 117.896L116.038 114.328M122.483 117.896L128.929 114.328L135.376 117.896L141.823 114.328L148.267 117.896L154.714 114.328L161.16 117.896L167.607 114.328L174.054 117.896L180.501 114.328L186.945 117.896L193.392 114.328L199.839 117.896L206.288 114.328L212.734 117.896L219.181 114.328L225.628 117.896L232.074 114.328L238.521 117.896L244.97 114.328L251.417 117.896L257.864 114.328L264.31 117.896L270.757 114.328L277.206 117.896L283.653 114.328L290.102 117.896L296.551 114.328L303 117.896M0 11.2241L6.44444 14.7761L12.8912 11.2241L19.3379 14.7761L25.7846 11.2241L32.2291 14.7761L38.6758 11.2241L45.1225 14.7761L51.5693 11.2241L58.016 14.7761L64.4627 11.2241L70.9072 14.7761L77.3539 11.2241L83.8006 14.7761L90.2497 11.2241L96.6964 14.7761L103.143 11.2241L109.59 14.7761L116.037 11.2241L122.483 14.7761M122.483 14.7761L128.932 11.2241L135.379 14.7761L141.826 11.2241L148.273 14.7761L154.719 11.2241L161.168 14.7761L167.615 11.2241L174.064 14.7761L180.513 11.2241L186.962 14.7761M122.483 14.7761L116.038 11.2241M122.483 14.7761L128.929 11.2241L135.376 14.7761L141.823 11.2241L148.267 14.7761L154.714 11.2241L161.16 14.7761L167.607 11.2241L174.054 14.7761L180.501 11.2241L186.945 14.7761L193.392 11.2241L199.839 14.7761L206.288 11.2241L212.734 14.7761L219.181 11.2241L225.628 14.7761L232.074 11.2241L238.521 14.7761L244.97 11.2241L251.417 14.7761L257.864 11.2241L264.31 14.7761L270.757 11.2241L277.206 14.7761L283.653 11.2241L290.102 14.7761L296.551 11.2241L303 14.7761M0 39.6721L6.44444 43.2241L12.8912 39.6721L19.3379 43.2241L25.7846 39.6721L32.2291 43.2241L38.6758 39.6721L45.1225 43.2241L51.5693 39.6721L58.016 43.2241L64.4627 39.6721L70.9072 43.2241L77.3539 39.6721L83.8006 43.2241L90.2497 39.6721L96.6964 43.2241L103.143 39.6721L109.59 43.2241L116.037 39.6721L122.483 43.2241M122.483 43.2241L128.932 39.6721L135.379 43.2241L141.826 39.6721L148.273 43.2241L154.719 39.6721L161.168 43.2241L167.615 39.6721L174.064 43.2241L180.513 39.6721L186.962 43.2241M122.483 43.2241L116.038 39.6721M122.483 43.2241L128.929 39.6721L135.376 43.2241L141.823 39.6721L148.267 43.2241L154.714 39.6721L161.16 43.2241L167.607 39.6721L174.054 43.2241L180.501 39.6721L186.945 43.2241L193.392 39.6721L199.839 43.2241L206.288 39.6721L212.734 43.2241L219.181 39.6721L225.628 43.2241L232.074 39.6721L238.521 43.2241L244.97 39.6721L251.417 43.2241L257.864 39.6721L264.31 43.2241L270.757 39.6721L277.206 43.2241L283.653 39.6721L290.102 43.2241L296.551 39.6721L303 43.2241M0 100.104L6.44444 103.672L12.8912 100.104L19.3379 103.672L25.7846 100.104L32.2291 103.672L38.6758 100.104L45.1225 103.672L51.5693 100.104L58.016 103.672L64.4627 100.104L70.9072 103.672L77.3539 100.104L83.8006 103.672L90.2497 100.104L96.6964 103.672L103.143 100.104L109.59 103.672L116.037 100.104L122.483 103.672M122.483 103.672L128.932 100.104L135.379 103.672L141.826 100.104L148.273 103.672L154.719 100.104L161.168 103.672L167.615 100.104L174.064 103.672L180.513 100.104L186.962 103.672M122.483 103.672L116.038 100.104M122.483 103.672L128.929 100.104L135.376 103.672L141.823 100.104L148.267 103.672L154.714 100.104L161.16 103.672L167.607 100.104L174.054 103.672L180.501 100.104L186.945 103.672L193.392 100.104L199.839 103.672L206.288 100.104L212.734 103.672L219.181 100.104L225.628 103.672L232.074 100.104L238.521 103.672L244.97 100.104L251.417 103.672L257.864 100.104L264.31 103.672L270.757 100.104L277.206 103.672L283.653 100.104L290.102 103.672L296.551 100.104L303 103.672M0 68.1041L6.44444 71.6721L12.8912 68.1041L19.3379 71.6721L25.7846 68.1041L32.2291 71.6721L38.6758 68.1041L45.1225 71.6721L51.5693 68.1041L58.016 71.6721L64.4627 68.1041L70.9072 71.6721L77.3539 68.1041L83.8006 71.6721L90.2497 68.1041L96.6964 71.6721L103.143 68.1041L109.59 71.6721L116.037 68.1041L122.483 71.6721M122.483 71.6721L128.932 68.1041L135.379 71.6721L141.826 68.1041L148.273 71.6721L154.719 68.1041L161.168 71.6721L167.615 68.1041L174.064 71.6721L180.513 68.1041L186.962 71.6721M122.483 71.6721L116.038 68.1041M122.483 71.6721L128.929 68.1041L135.376 71.6721L141.823 68.1041L148.267 71.6721L154.714 68.1041L161.16 71.6721L167.607 68.1041L174.054 71.6721L180.501 68.1041L186.945 71.6721L193.392 68.1041L199.839 71.6721L206.288 68.1041L212.734 71.6721L219.181 68.1041L225.628 71.6721L232.074 68.1041L238.521 71.6721L244.97 68.1041L251.417 71.6721L257.864 68.1041L264.31 71.6721L270.757 68.1041L277.206 71.6721L283.653 68.1041L290.102 71.6721L296.551 68.1041L303 71.6721M0 128.552L6.44444 132.104L12.8912 128.552L19.3379 132.104L25.7846 128.552L32.2291 132.104L38.6758 128.552L45.1225 132.104L51.5693 128.552L58.016 132.104L64.4627 128.552L70.9072 132.104L77.3539 128.552L83.8006 132.104L90.2497 128.552L96.6964 132.104L103.143 128.552L109.59 132.104L116.037 128.552L122.483 132.104M122.483 132.104L128.932 128.552L135.379 132.104L141.826 128.552L148.273 132.104L154.719 128.552L161.168 132.104L167.615 128.552L174.064 132.104L180.513 128.552L186.962 132.104M122.483 132.104L116.038 128.552M122.483 132.104L128.929 128.552L135.376 132.104L141.823 128.552L148.267 132.104L154.714 128.552L161.16 132.104L167.607 128.552L174.054 132.104L180.501 128.552L186.945 132.104L193.392 128.552L199.839 132.104L206.288 128.552L212.734 132.104L219.181 128.552L225.628 132.104L232.074 128.552L238.521 132.104L244.97 128.552L251.417 132.104L257.864 128.552L264.31 132.104L270.757 128.552L277.206 132.104L283.653 128.552L290.102 132.104L296.551 128.552L303 132.104M0 142.776L6.44444 146.328L12.8912 142.776L19.3379 146.328L25.7846 142.776L32.2291 146.328L38.6758 142.776L45.1225 146.328L51.5693 142.776L58.016 146.328L64.4627 142.776L70.9072 146.328L77.3539 142.776L83.8006 146.328L90.2497 142.776L96.6964 146.328L103.143 142.776L109.59 146.328L116.037 142.776L122.483 146.328M122.483 146.328L128.932 142.776L135.379 146.328L141.826 142.776L148.273 146.328L154.719 142.776L161.168 146.328L167.615 142.776L174.064 146.328L180.513 142.776L186.962 146.328M122.483 146.328L116.038 142.776M122.483 146.328L128.929 142.776L135.376 146.328L141.823 142.776L148.267 146.328L154.714 142.776L161.16 146.328L167.607 142.776L174.054 146.328L180.501 142.776L186.945 146.328L193.392 142.776L199.839 146.328L206.288 142.776L212.734 146.328L219.181 142.776L225.628 146.328L232.074 142.776L238.521 146.328L244.97 142.776L251.417 146.328L257.864 142.776L264.31 146.328L270.757 142.776L277.206 146.328L283.653 142.776L290.102 146.328L296.551 142.776L303 146.328M0 4.10406L6.44444 7.67206L12.8912 4.10406L19.3379 7.67206L25.7846 4.10406L32.2291 7.67206L38.6758 4.10406L45.1225 7.67206L51.5693 4.10406L58.016 7.67206L64.4627 4.10406L70.9072 7.67206L77.3539 4.10406L83.8006 7.67206L90.2497 4.10406L96.6964 7.67206L103.143 4.10406L109.59 7.67206L116.037 4.10406L122.483 7.67206M122.483 7.67206L128.932 4.10406L135.379 7.67206L141.826 4.10406L148.273 7.67206L154.719 4.10406L161.168 7.67206L167.615 4.10406L174.064 7.67206L180.513 4.10406L186.962 7.67206M122.483 7.67206L116.038 4.10406M122.483 7.67206L128.929 4.10406L135.376 7.67206L141.823 4.10406L148.267 7.67206L154.714 4.10406L161.16 7.67206L167.607 4.10406L174.054 7.67206L180.501 4.10406L186.945 7.67206L193.392 4.10406L199.839 7.67206L206.288 4.10406L212.734 7.67206L219.181 4.10406L225.628 7.67206L232.074 4.10406L238.521 7.67206L244.97 4.10406L251.417 7.67206L257.864 4.10406L264.31 7.67206L270.757 4.10406L277.206 7.67206L283.653 4.10406L290.102 7.67206L296.551 4.10406L303 7.67206M0 32.552L6.44444 36.104L12.8912 32.552L19.3379 36.104L25.7846 32.552L32.2291 36.104L38.6758 32.552L45.1225 36.104L51.5693 32.552L58.016 36.104L64.4627 32.552L70.9072 36.104L77.3539 32.552L83.8006 36.104L90.2497 32.552L96.6964 36.104L103.143 32.552L109.59 36.104L116.037 32.552L122.483 36.104M122.483 36.104L128.932 32.552L135.379 36.104L141.826 32.552L148.273 36.104L154.719 32.552L161.168 36.104L167.615 32.552L174.064 36.104L180.513 32.552L186.962 36.104M122.483 36.104L116.038 32.552M122.483 36.104L128.929 32.552L135.376 36.104L141.823 32.552L148.267 36.104L154.714 32.552L161.16 36.104L167.607 32.552L174.054 36.104L180.501 32.552L186.945 36.104L193.392 32.552L199.839 36.104L206.288 32.552L212.734 36.104L219.181 32.552L225.628 36.104L232.074 32.552L238.521 36.104L244.97 32.552L251.417 36.104L257.864 32.552L264.31 36.104L270.757 32.552L277.206 36.104L283.653 32.552L290.102 36.104L296.551 32.552L303 36.104M0 93.0001L6.44444 96.5521L12.8912 93.0001L19.3379 96.5521L25.7846 93.0001L32.2291 96.5521L38.6758 93.0001L45.1225 96.5521L51.5693 93.0001L58.016 96.5521L64.4627 93.0001L70.9072 96.5521L77.3539 93.0001L83.8006 96.5521L90.2497 93.0001L96.6964 96.5521L103.143 93.0001L109.59 96.5521L116.037 93.0001L122.483 96.5521M122.483 96.5521L128.932 93.0001L135.379 96.5521L141.826 93.0001L148.273 96.5521L154.719 93.0001L161.168 96.5521L167.615 93.0001L174.064 96.5521L180.513 93.0001L186.962 96.5521M122.483 96.5521L116.038 93.0001M122.483 96.5521L128.929 93.0001L135.376 96.5521L141.823 93.0001L148.267 96.5521L154.714 93.0001L161.16 96.5521L167.607 93.0001L174.054 96.5521L180.501 93.0001L186.945 96.5521L193.392 93.0001L199.839 96.5521L206.288 93.0001L212.734 96.5521L219.181 93.0001L225.628 96.5521L232.074 93.0001L238.521 96.5521L244.97 93.0001L251.417 96.5521L257.864 93.0001L264.31 96.5521L270.757 93.0001L277.206 96.5521L283.653 93.0001L290.102 96.5521L296.551 93.0001L303 96.5521M0 61.0001L6.44444 64.5521L12.8912 61.0001L19.3379 64.5521L25.7846 61.0001L32.2291 64.5521L38.6758 61.0001L45.1225 64.5521L51.5693 61.0001L58.016 64.5521L64.4627 61.0001L70.9072 64.5521L77.3539 61.0001L83.8006 64.5521L90.2497 61.0001L96.6964 64.5521L103.143 61.0001L109.59 64.5521L116.037 61.0001L122.483 64.5521M122.483 64.5521L128.932 61.0001L135.379 64.5521L141.826 61.0001L148.273 64.5521L154.719 61.0001L161.168 64.5521L167.615 61.0001L174.064 64.5521L180.513 61.0001L186.962 64.5521M122.483 64.5521L116.038 61.0001M122.483 64.5521L128.929 61.0001L135.376 64.5521L141.823 61.0001L148.267 64.5521L154.714 61.0001L161.16 64.5521L167.607 61.0001L174.054 64.5521L180.501 61.0001L186.945 64.5521L193.392 61.0001L199.839 64.5521L206.288 61.0001L212.734 64.5521L219.181 61.0001L225.628 64.5521L232.074 61.0001L238.521 64.5521L244.97 61.0001L251.417 64.5521L257.864 61.0001L264.31 64.5521L270.757 61.0001L277.206 64.5521L283.653 61.0001L290.102 64.5521L296.551 61.0001L303 64.5521M0 121.448L6.44444 125L12.8912 121.448L19.3379 125L25.7846 121.448L32.2291 125L38.6758 121.448L45.1225 125L51.5693 121.448L58.016 125L64.4627 121.448L70.9072 125L77.3539 121.448L83.8006 125L90.2497 121.448L96.6964 125L103.143 121.448L109.59 125L116.037 121.448L122.483 125M122.483 125L128.932 121.448L135.379 125L141.826 121.448L148.273 125L154.719 121.448L161.168 125L167.615 121.448L174.064 125L180.513 121.448L186.962 125M122.483 125L116.038 121.448M122.483 125L128.929 121.448L135.376 125L141.823 121.448L148.267 125L154.714 121.448L161.16 125L167.607 121.448L174.054 125L180.501 121.448L186.945 125L193.392 121.448L199.839 125L206.288 121.448L212.734 125L219.181 121.448L225.628 125L232.074 121.448L238.521 125L244.97 121.448L251.417 125L257.864 121.448L264.31 125L270.757 121.448L277.206 125L283.653 121.448L290.102 125L296.551 121.448L303 125M0 18.3281L6.44444 21.8961L12.8912 18.3281L19.3379 21.8961L25.7846 18.3281L32.2291 21.8961L38.6758 18.3281L45.1225 21.8961L51.5693 18.3281L58.016 21.8961L64.4627 18.3281L70.9072 21.8961L77.3539 18.3281L83.8006 21.8961L90.2497 18.3281L96.6964 21.8961L103.143 18.3281L109.59 21.8961L116.037 18.3281L122.483 21.8961M122.483 21.8961L128.932 18.3281L135.379 21.8961L141.826 18.3281L148.273 21.8961L154.719 18.3281L161.168 21.8961L167.615 18.3281L174.064 21.8961L180.513 18.3281L186.962 21.8961M122.483 21.8961L116.038 18.3281M122.483 21.8961L128.929 18.3281L135.376 21.8961L141.823 18.3281L148.267 21.8961L154.714 18.3281L161.16 21.8961L167.607 18.3281L174.054 21.8961L180.501 18.3281L186.945 21.8961L193.392 18.3281L199.839 21.8961L206.288 18.3281L212.734 21.8961L219.181 18.3281L225.628 21.8961L232.074 18.3281L238.521 21.8961L244.97 18.3281L251.417 21.8961L257.864 18.3281L264.31 21.8961L270.757 18.3281L277.206 21.8961L283.653 18.3281L290.102 21.8961L296.551 18.3281L303 21.8961M0 46.7761L6.44444 50.3281L12.8912 46.7761L19.3379 50.3281L25.7846 46.7761L32.2291 50.3281L38.6758 46.7761L45.1225 50.3281L51.5693 46.7761L58.016 50.3281L64.4627 46.7761L70.9072 50.3281L77.3539 46.7761L83.8006 50.3281L90.2497 46.7761L96.6964 50.3281L103.143 46.7761L109.59 50.3281L116.037 46.7761L122.483 50.3281M122.483 50.3281L128.932 46.7761L135.379 50.3281L141.826 46.7761L148.273 50.3281L154.719 46.7761L161.168 50.3281L167.615 46.7761L174.064 50.3281L180.513 46.7761L186.962 50.3281M122.483 50.3281L116.038 46.7761M122.483 50.3281L128.929 46.7761L135.376 50.3281L141.823 46.7761L148.267 50.3281L154.714 46.7761L161.16 50.3281L167.607 46.7761L174.054 50.3281L180.501 46.7761L186.945 50.3281L193.392 46.7761L199.839 50.3281L206.288 46.7761L212.734 50.3281L219.181 46.7761L225.628 50.3281L232.074 46.7761L238.521 50.3281L244.97 46.7761L251.417 50.3281L257.864 46.7761L264.31 50.3281L270.757 46.7761L277.206 50.3281L283.653 46.7761L290.102 50.3281L296.551 46.7761L303 50.3281M0 107.224L6.44444 110.776L12.8912 107.224L19.3379 110.776L25.7846 107.224L32.2291 110.776L38.6758 107.224L45.1225 110.776L51.5693 107.224L58.016 110.776L64.4627 107.224L70.9072 110.776L77.3539 107.224L83.8006 110.776L90.2497 107.224L96.6964 110.776L103.143 107.224L109.59 110.776L116.037 107.224L122.483 110.776M122.483 110.776L128.932 107.224L135.379 110.776L141.826 107.224L148.273 110.776L154.719 107.224L161.168 110.776L167.615 107.224L174.064 110.776L180.513 107.224L186.962 110.776M122.483 110.776L116.038 107.224M122.483 110.776L128.929 107.224L135.376 110.776L141.823 107.224L148.267 110.776L154.714 107.224L161.16 110.776L167.607 107.224L174.054 110.776L180.501 107.224L186.945 110.776L193.392 107.224L199.839 110.776L206.288 107.224L212.734 110.776L219.181 107.224L225.628 110.776L232.074 107.224L238.521 110.776L244.97 107.224L251.417 110.776L257.864 107.224L264.31 110.776L270.757 107.224L277.206 110.776L283.653 107.224L290.102 110.776L296.551 107.224L303 110.776M0 75.2241L6.44444 78.7761L12.8912 75.2241L19.3379 78.7761L25.7846 75.2241L32.2291 78.7761L38.6758 75.2241L45.1225 78.7761L51.5693 75.2241L58.016 78.7761L64.4627 75.2241L70.9072 78.7761L77.3539 75.2241L83.8006 78.7761L90.2497 75.2241L96.6964 78.7761L103.143 75.2241L109.59 78.7761L116.037 75.2241L122.483 78.7761M122.483 78.7761L128.932 75.2241L135.379 78.7761L141.826 75.2241L148.273 78.7761L154.719 75.2241L161.168 78.7761L167.615 75.2241L174.064 78.7761L180.513 75.2241L186.962 78.7761M122.483 78.7761L116.038 75.2241M122.483 78.7761L128.929 75.2241L135.376 78.7761L141.823 75.2241L148.267 78.7761L154.714 75.2241L161.16 78.7761L167.607 75.2241L174.054 78.7761L180.501 75.2241L186.945 78.7761L193.392 75.2241L199.839 78.7761L206.288 75.2241L212.734 78.7761L219.181 75.2241L225.628 78.7761L232.074 75.2241L238.521 78.7761L244.97 75.2241L251.417 78.7761L257.864 75.2241L264.31 78.7761L270.757 75.2241L277.206 78.7761L283.653 75.2241L290.102 78.7761L296.551 75.2241L303 78.7761M0 135.672L6.44444 139.224L12.8912 135.672L19.3379 139.224L25.7846 135.672L32.2291 139.224L38.6758 135.672L45.1225 139.224L51.5693 135.672L58.016 139.224L64.4627 135.672L70.9072 139.224L77.3539 135.672L83.8006 139.224L90.2497 135.672L96.6964 139.224L103.143 135.672L109.59 139.224L116.037 135.672L122.483 139.224M122.483 139.224L128.932 135.672L135.379 139.224L141.826 135.672L148.273 139.224L154.719 135.672L161.168 139.224L167.615 135.672L174.064 139.224L180.513 135.672L186.962 139.224M122.483 139.224L116.038 135.672M122.483 139.224L128.929 135.672L135.376 139.224L141.823 135.672L148.267 139.224L154.714 135.672L161.16 139.224L167.607 135.672L174.054 139.224L180.501 135.672L186.945 139.224L193.392 135.672L199.839 139.224L206.288 135.672L212.734 139.224L219.181 135.672L225.628 139.224L232.074 135.672L238.521 139.224L244.97 135.672L251.417 139.224L257.864 135.672L264.31 139.224L270.757 135.672L277.206 139.224L283.653 135.672L290.102 139.224L296.551 135.672L303 139.224M0 149.896L6.44444 153.448L12.8912 149.896L19.3379 153.448L25.7846 149.896L32.2291 153.448L38.6758 149.896L45.1225 153.448L51.5693 149.896L58.016 153.448L64.4627 149.896L70.9072 153.448L77.3539 149.896L83.8006 153.448L90.2497 149.896L96.6964 153.448L103.143 149.896L109.59 153.448L116.037 149.896L122.483 153.448M122.483 153.448L128.932 149.896L135.379 153.448L141.826 149.896L148.273 153.448L154.719 149.896L161.168 153.448L167.615 149.896L174.064 153.448L180.513 149.896L186.962 153.448M122.483 153.448L116.038 149.896M122.483 153.448L128.929 149.896L135.376 153.448L141.823 149.896L148.267 153.448L154.714 149.896L161.16 153.448L167.607 149.896L174.054 153.448L180.501 149.896L186.945 153.448L193.392 149.896L199.839 153.448L206.288 149.896L212.734 153.448L219.181 149.896L225.628 153.448L232.074 149.896L238.521 153.448L244.97 149.896L251.417 153.448L257.864 149.896L264.31 153.448L270.757 149.896L277.206 153.448L283.653 149.896L290.102 153.448L296.551 149.896L303 153.448M0 0.552063L6.44444 4.10406L12.8912 0.552063L19.3379 4.10406L25.7846 0.552063L32.2291 4.10406L38.6758 0.552063L45.1225 4.10406L51.5693 0.552063L58.016 4.10406L64.4627 0.552063L70.9072 4.10406L77.3539 0.552063L83.8006 4.10406L90.2497 0.552063L96.6964 4.10406L103.143 0.552063L109.59 4.10406L116.037 0.552063L122.483 4.10406M122.483 4.10406L128.932 0.552063L135.379 4.10406L141.826 0.552063L148.273 4.10406L154.719 0.552063L161.168 4.10406L167.615 0.552063L174.064 4.10406L180.513 0.552063L186.962 4.10406M122.483 4.10406L116.038 0.552063M122.483 4.10406L128.929 0.552063L135.376 4.10406L141.823 0.552063L148.267 4.10406L154.714 0.552063L161.16 4.10406L167.607 0.552063L174.054 4.10406L180.501 0.552063L186.945 4.10406L193.392 0.552063L199.839 4.10406L206.288 0.552063L212.734 4.10406L219.181 0.552063L225.628 4.10406L232.074 0.552063L238.521 4.10406L244.97 0.552063L251.417 4.10406L257.864 0.552063L264.31 4.10406L270.757 0.552063L277.206 4.10406L283.653 0.552063L290.102 4.10406L296.551 0.552063L303 4.10406M0 29L6.44444 32.552L12.8912 29L19.3379 32.552L25.7846 29L32.2291 32.552L38.6758 29L45.1225 32.552L51.5693 29L58.016 32.552L64.4627 29L70.9072 32.552L77.3539 29L83.8006 32.552L90.2497 29L96.6964 32.552L103.143 29L109.59 32.552L116.037 29L122.483 32.552M122.483 32.552L128.932 29L135.379 32.552L141.826 29L148.273 32.552L154.719 29L161.168 32.552L167.615 29L174.064 32.552L180.513 29L186.962 32.552M122.483 32.552L116.038 29M122.483 32.552L128.929 29L135.376 32.552L141.823 29L148.267 32.552L154.714 29L161.16 32.552L167.607 29L174.054 32.552L180.501 29L186.945 32.552L193.392 29L199.839 32.552L206.288 29L212.734 32.552L219.181 29L225.628 32.552L232.074 29L238.521 32.552L244.97 29L251.417 32.552L257.864 29L264.31 32.552L270.757 29L277.206 32.552L283.653 29L290.102 32.552L296.551 29L303 32.552M0 89.4481L6.44444 93.0001L12.8912 89.4481L19.3379 93.0001L25.7846 89.4481L32.2291 93.0001L38.6758 89.4481L45.1225 93.0001L51.5693 89.4481L58.016 93.0001L64.4627 89.4481L70.9072 93.0001L77.3539 89.4481L83.8006 93.0001L90.2497 89.4481L96.6964 93.0001L103.143 89.4481L109.59 93.0001L116.037 89.4481L122.483 93.0001M122.483 93.0001L128.932 89.4481L135.379 93.0001L141.826 89.4481L148.273 93.0001L154.719 89.4481L161.168 93.0001L167.615 89.4481L174.064 93.0001L180.513 89.4481L186.962 93.0001M122.483 93.0001L116.038 89.4481M122.483 93.0001L128.929 89.4481L135.376 93.0001L141.823 89.4481L148.267 93.0001L154.714 89.4481L161.16 93.0001L167.607 89.4481L174.054 93.0001L180.501 89.4481L186.945 93.0001L193.392 89.4481L199.839 93.0001L206.288 89.4481L212.734 93.0001L219.181 89.4481L225.628 93.0001L232.074 89.4481L238.521 93.0001L244.97 89.4481L251.417 93.0001L257.864 89.4481L264.31 93.0001L270.757 89.4481L277.206 93.0001L283.653 89.4481L290.102 93.0001L296.551 89.4481L303 93.0001M0 57.4481L6.44444 61.0001L12.8912 57.4481L19.3379 61.0001L25.7846 57.4481L32.2291 61.0001L38.6758 57.4481L45.1225 61.0001L51.5693 57.4481L58.016 61.0001L64.4627 57.4481L70.9072 61.0001L77.3539 57.4481L83.8006 61.0001L90.2497 57.4481L96.6964 61.0001L103.143 57.4481L109.59 61.0001L116.037 57.4481L122.483 61.0001M122.483 61.0001L128.932 57.4481L135.379 61.0001L141.826 57.4481L148.273 61.0001L154.719 57.4481L161.168 61.0001L167.615 57.4481L174.064 61.0001L180.513 57.4481L186.962 61.0001M122.483 61.0001L116.038 57.4481M122.483 61.0001L128.929 57.4481L135.376 61.0001L141.823 57.4481L148.267 61.0001L154.714 57.4481L161.16 61.0001L167.607 57.4481L174.054 61.0001L180.501 57.4481L186.945 61.0001L193.392 57.4481L199.839 61.0001L206.288 57.4481L212.734 61.0001L219.181 57.4481L225.628 61.0001L232.074 57.4481L238.521 61.0001L244.97 57.4481L251.417 61.0001L257.864 57.4481L264.31 61.0001L270.757 57.4481L277.206 61.0001L283.653 57.4481L290.102 61.0001L296.551 57.4481L303 61.0001M0 117.896L6.44444 121.448L12.8912 117.896L19.3379 121.448L25.7846 117.896L32.2291 121.448L38.6758 117.896L45.1225 121.448L51.5693 117.896L58.016 121.448L64.4627 117.896L70.9072 121.448L77.3539 117.896L83.8006 121.448L90.2497 117.896L96.6964 121.448L103.143 117.896L109.59 121.448L116.037 117.896L122.483 121.448M122.483 121.448L128.932 117.896L135.379 121.448L141.826 117.896L148.273 121.448L154.719 117.896L161.168 121.448L167.615 117.896L174.064 121.448L180.513 117.896L186.962 121.448M122.483 121.448L116.038 117.896M122.483 121.448L128.929 117.896L135.376 121.448L141.823 117.896L148.267 121.448L154.714 117.896L161.16 121.448L167.607 117.896L174.054 121.448L180.501 117.896L186.945 121.448L193.392 117.896L199.839 121.448L206.288 117.896L212.734 121.448L219.181 117.896L225.628 121.448L232.074 117.896L238.521 121.448L244.97 117.896L251.417 121.448L257.864 117.896L264.31 121.448L270.757 117.896L277.206 121.448L283.653 117.896L290.102 121.448L296.551 117.896L303 121.448M0 14.7761L6.44444 18.3281L12.8912 14.7761L19.3379 18.3281L25.7846 14.7761L32.2291 18.3281L38.6758 14.7761L45.1225 18.3281L51.5693 14.7761L58.016 18.3281L64.4627 14.7761L70.9072 18.3281L77.3539 14.7761L83.8006 18.3281L90.2497 14.7761L96.6964 18.3281L103.143 14.7761L109.59 18.3281L116.037 14.7761L122.483 18.3281M122.483 18.3281L128.932 14.7761L135.379 18.3281L141.826 14.7761L148.273 18.3281L154.719 14.7761L161.168 18.3281L167.615 14.7761L174.064 18.3281L180.513 14.7761L186.962 18.3281M122.483 18.3281L116.038 14.7761M122.483 18.3281L128.929 14.7761L135.376 18.3281L141.823 14.7761L148.267 18.3281L154.714 14.7761L161.16 18.3281L167.607 14.7761L174.054 18.3281L180.501 14.7761L186.945 18.3281L193.392 14.7761L199.839 18.3281L206.288 14.7761L212.734 18.3281L219.181 14.7761L225.628 18.3281L232.074 14.7761L238.521 18.3281L244.97 14.7761L251.417 18.3281L257.864 14.7761L264.31 18.3281L270.757 14.7761L277.206 18.3281L283.653 14.7761L290.102 18.3281L296.551 14.7761L303 18.3281M0 43.2241L6.44444 46.7761L12.8912 43.2241L19.3379 46.7761L25.7846 43.2241L32.2291 46.7761L38.6758 43.2241L45.1225 46.7761L51.5693 43.2241L58.016 46.7761L64.4627 43.2241L70.9072 46.7761L77.3539 43.2241L83.8006 46.7761L90.2497 43.2241L96.6964 46.7761L103.143 43.2241L109.59 46.7761L116.037 43.2241L122.483 46.7761M122.483 46.7761L128.932 43.2241L135.379 46.7761L141.826 43.2241L148.273 46.7761L154.719 43.2241L161.168 46.7761L167.615 43.2241L174.064 46.7761L180.513 43.2241L186.962 46.7761M122.483 46.7761L116.038 43.2241M122.483 46.7761L128.929 43.2241L135.376 46.7761L141.823 43.2241L148.267 46.7761L154.714 43.2241L161.16 46.7761L167.607 43.2241L174.054 46.7761L180.501 43.2241L186.945 46.7761L193.392 43.2241L199.839 46.7761L206.288 43.2241L212.734 46.7761L219.181 43.2241L225.628 46.7761L232.074 43.2241L238.521 46.7761L244.97 43.2241L251.417 46.7761L257.864 43.2241L264.31 46.7761L270.757 43.2241L277.206 46.7761L283.653 43.2241L290.102 46.7761L296.551 43.2241L303 46.7761M0 103.672L6.44444 107.224L12.8912 103.672L19.3379 107.224L25.7846 103.672L32.2291 107.224L38.6758 103.672L45.1225 107.224L51.5693 103.672L58.016 107.224L64.4627 103.672L70.9072 107.224L77.3539 103.672L83.8006 107.224L90.2497 103.672L96.6964 107.224L103.143 103.672L109.59 107.224L116.037 103.672L122.483 107.224M122.483 107.224L128.932 103.672L135.379 107.224L141.826 103.672L148.273 107.224L154.719 103.672L161.168 107.224L167.615 103.672L174.064 107.224L180.513 103.672L186.962 107.224M122.483 107.224L116.038 103.672M122.483 107.224L128.929 103.672L135.376 107.224L141.823 103.672L148.267 107.224L154.714 103.672L161.16 107.224L167.607 103.672L174.054 107.224L180.501 103.672L186.945 107.224L193.392 103.672L199.839 107.224L206.288 103.672L212.734 107.224L219.181 103.672L225.628 107.224L232.074 103.672L238.521 107.224L244.97 103.672L251.417 107.224L257.864 103.672L264.31 107.224L270.757 103.672L277.206 107.224L283.653 103.672L290.102 107.224L296.551 103.672L303 107.224M0 71.672L6.44444 75.224L12.8912 71.672L19.3379 75.224L25.7846 71.672L32.2291 75.224L38.6758 71.672L45.1225 75.224L51.5693 71.672L58.016 75.224L64.4627 71.672L70.9072 75.224L77.3539 71.672L83.8006 75.224L90.2497 71.672L96.6964 75.224L103.143 71.672L109.59 75.224L116.037 71.672L122.483 75.224M122.483 75.224L128.932 71.672L135.379 75.224L141.826 71.672L148.273 75.224L154.719 71.672L161.168 75.224L167.615 71.672L174.064 75.224L180.513 71.672L186.962 75.224M122.483 75.224L116.038 71.672M122.483 75.224L128.929 71.672L135.376 75.224L141.823 71.672L148.267 75.224L154.714 71.672L161.16 75.224L167.607 71.672L174.054 75.224L180.501 71.672L186.945 75.224L193.392 71.672L199.839 75.224L206.288 71.672L212.734 75.224L219.181 71.672L225.628 75.224L232.074 71.672L238.521 75.224L244.97 71.672L251.417 75.224L257.864 71.672L264.31 75.224L270.757 71.672L277.206 75.224L283.653 71.672L290.102 75.224L296.551 71.672L303 75.224M0 132.104L6.44444 135.672L12.8912 132.104L19.3379 135.672L25.7846 132.104L32.2291 135.672L38.6758 132.104L45.1225 135.672L51.5693 132.104L58.016 135.672L64.4627 132.104L70.9072 135.672L77.3539 132.104L83.8006 135.672L90.2497 132.104L96.6964 135.672L103.143 132.104L109.59 135.672L116.037 132.104L122.483 135.672M122.483 135.672L128.932 132.104L135.379 135.672L141.826 132.104L148.273 135.672L154.719 132.104L161.168 135.672L167.615 132.104L174.064 135.672L180.513 132.104L186.962 135.672M122.483 135.672L116.038 132.104M122.483 135.672L128.929 132.104L135.376 135.672L141.823 132.104L148.267 135.672L154.714 132.104L161.16 135.672L167.607 132.104L174.054 135.672L180.501 132.104L186.945 135.672L193.392 132.104L199.839 135.672L206.288 132.104L212.734 135.672L219.181 132.104L225.628 135.672L232.074 132.104L238.521 135.672L244.97 132.104L251.417 135.672L257.864 132.104L264.31 135.672L270.757 132.104L277.206 135.672L283.653 132.104L290.102 135.672L296.551 132.104L303 135.672M0 146.328L6.44444 149.896L12.8912 146.328L19.3379 149.896L25.7846 146.328L32.2291 149.896L38.6758 146.328L45.1225 149.896L51.5693 146.328L58.016 149.896L64.4627 146.328L70.9072 149.896L77.3539 146.328L83.8006 149.896L90.2497 146.328L96.6964 149.896L103.143 146.328L109.59 149.896L116.037 146.328L122.483 149.896M122.483 149.896L128.932 146.328L135.379 149.896L141.826 146.328L148.273 149.896L154.719 146.328L161.168 149.896L167.615 146.328L174.064 149.896L180.513 146.328L186.962 149.896M122.483 149.896L116.038 146.328M122.483 149.896L128.929 146.328L135.376 149.896L141.823 146.328L148.267 149.896L154.714 146.328L161.16 149.896L167.607 146.328L174.054 149.896L180.501 146.328L186.945 149.896L193.392 146.328L199.839 149.896L206.288 146.328L212.734 149.896L219.181 146.328L225.628 149.896L232.074 146.328L238.521 149.896L244.97 146.328L251.417 149.896L257.864 146.328L264.31 149.896L270.757 146.328L277.206 149.896L283.653 146.328L290.102 149.896L296.551 146.328L303 149.896M0 7.67206L6.44444 11.2241L12.8912 7.67206L19.3379 11.2241L25.7846 7.67206L32.2291 11.2241L38.6758 7.67206L45.1225 11.2241L51.5693 7.67206L58.016 11.2241L64.4627 7.67206L70.9072 11.2241L77.3539 7.67206L83.8006 11.2241L90.2497 7.67206L96.6964 11.2241L103.143 7.67206L109.59 11.2241L116.037 7.67206L122.483 11.2241M122.483 11.2241L128.932 7.67206L135.379 11.2241L141.826 7.67206L148.273 11.2241L154.719 7.67206L161.168 11.2241L167.615 7.67206L174.064 11.2241L180.513 7.67206L186.962 11.2241M122.483 11.2241L116.038 7.67206M122.483 11.2241L128.929 7.67206L135.376 11.2241L141.823 7.67206L148.267 11.2241L154.714 7.67206L161.16 11.2241L167.607 7.67206L174.054 11.2241L180.501 7.67206L186.945 11.2241L193.392 7.67206L199.839 11.2241L206.288 7.67206L212.734 11.2241L219.181 7.67206L225.628 11.2241L232.074 7.67206L238.521 11.2241L244.97 7.67206L251.417 11.2241L257.864 7.67206L264.31 11.2241L270.757 7.67206L277.206 11.2241L283.653 7.67206L290.102 11.2241L296.551 7.67206L303 11.2241M0 36.104L6.44444 39.672L12.8912 36.104L19.3379 39.672L25.7846 36.104L32.2291 39.672L38.6758 36.104L45.1225 39.672L51.5693 36.104L58.016 39.672L64.4627 36.104L70.9072 39.672L77.3539 36.104L83.8006 39.672L90.2497 36.104L96.6964 39.672L103.143 36.104L109.59 39.672L116.037 36.104L122.483 39.672M122.483 39.672L128.932 36.104L135.379 39.672L141.826 36.104L148.273 39.672L154.719 36.104L161.168 39.672L167.615 36.104L174.064 39.672L180.513 36.104L186.962 39.672M122.483 39.672L116.038 36.104M122.483 39.672L128.929 36.104L135.376 39.672L141.823 36.104L148.267 39.672L154.714 36.104L161.16 39.672L167.607 36.104L174.054 39.672L180.501 36.104L186.945 39.672L193.392 36.104L199.839 39.672L206.288 36.104L212.734 39.672L219.181 36.104L225.628 39.672L232.074 36.104L238.521 39.672L244.97 36.104L251.417 39.672L257.864 36.104L264.31 39.672L270.757 36.104L277.206 39.672L283.653 36.104L290.102 39.672L296.551 36.104L303 39.672M0 96.552L6.44444 100.104L12.8912 96.552L19.3379 100.104L25.7846 96.552L32.2291 100.104L38.6758 96.552L45.1225 100.104L51.5693 96.552L58.016 100.104L64.4627 96.552L70.9072 100.104L77.3539 96.552L83.8006 100.104L90.2497 96.552L96.6964 100.104L103.143 96.552L109.59 100.104L116.037 96.552L122.483 100.104M122.483 100.104L128.932 96.552L135.379 100.104L141.826 96.552L148.273 100.104L154.719 96.552L161.168 100.104L167.615 96.552L174.064 100.104L180.513 96.552L186.962 100.104M122.483 100.104L116.038 96.552M122.483 100.104L128.929 96.552L135.376 100.104L141.823 96.552L148.267 100.104L154.714 96.552L161.16 100.104L167.607 96.552L174.054 100.104L180.501 96.552L186.945 100.104L193.392 96.552L199.839 100.104L206.288 96.552L212.734 100.104L219.181 96.552L225.628 100.104L232.074 96.552L238.521 100.104L244.97 96.552L251.417 100.104L257.864 96.552L264.31 100.104L270.757 96.552L277.206 100.104L283.653 96.552L290.102 100.104L296.551 96.552L303 100.104M0 64.5521L6.44444 68.1041L12.8912 64.5521L19.3379 68.1041L25.7846 64.5521L32.2291 68.1041L38.6758 64.5521L45.1225 68.1041L51.5693 64.5521L58.016 68.1041L64.4627 64.5521L70.9072 68.1041L77.3539 64.5521L83.8006 68.1041L90.2497 64.5521L96.6964 68.1041L103.143 64.5521L109.59 68.1041L116.037 64.5521L122.483 68.1041M122.483 68.1041L128.932 64.5521L135.379 68.1041L141.826 64.5521L148.273 68.1041L154.719 64.5521L161.168 68.1041L167.615 64.5521L174.064 68.1041L180.513 64.5521L186.962 68.1041M122.483 68.1041L116.038 64.5521M122.483 68.1041L128.929 64.5521L135.376 68.1041L141.823 64.5521L148.267 68.1041L154.714 64.5521L161.16 68.1041L167.607 64.5521L174.054 68.1041L180.501 64.5521L186.945 68.1041L193.392 64.5521L199.839 68.1041L206.288 64.5521L212.734 68.1041L219.181 64.5521L225.628 68.1041L232.074 64.5521L238.521 68.1041L244.97 64.5521L251.417 68.1041L257.864 64.5521L264.31 68.1041L270.757 64.5521L277.206 68.1041L283.653 64.5521L290.102 68.1041L296.551 64.5521L303 68.1041M0 125L6.44444 128.552L12.8912 125L19.3379 128.552L25.7846 125L32.2291 128.552L38.6758 125L45.1225 128.552L51.5693 125L58.016 128.552L64.4627 125L70.9072 128.552L77.3539 125L83.8006 128.552L90.2497 125L96.6964 128.552L103.143 125L109.59 128.552L116.037 125L122.483 128.552M122.483 128.552L128.932 125L135.379 128.552L141.826 125L148.273 128.552L154.719 125L161.168 128.552L167.615 125L174.064 128.552L180.513 125L186.962 128.552M122.483 128.552L116.038 125M122.483 128.552L128.929 125L135.376 128.552L141.823 125L148.267 128.552L154.714 125L161.16 128.552L167.607 125L174.054 128.552L180.501 125L186.945 128.552L193.392 125L199.839 128.552L206.288 125L212.734 128.552L219.181 125L225.628 128.552L232.074 125L238.521 128.552L244.97 125L251.417 128.552L257.864 125L264.31 128.552L270.757 125L277.206 128.552L283.653 125L290.102 128.552L296.551 125L303 128.552M0 21.896L6.44444 25.448L12.8912 21.896L19.3379 25.448L25.7846 21.896L32.2291 25.448L38.6758 21.896L45.1225 25.448L51.5693 21.896L58.016 25.448L64.4627 21.896L70.9072 25.448L77.3539 21.896L83.8006 25.448L90.2497 21.896L96.6964 25.448L103.143 21.896L109.59 25.448L116.037 21.896L122.483 25.448M122.483 25.448L128.932 21.896L135.379 25.448L141.826 21.896L148.273 25.448L154.719 21.896L161.168 25.448L167.615 21.896L174.064 25.448L180.513 21.896L186.962 25.448M122.483 25.448L116.038 21.896M122.483 25.448L128.929 21.896L135.376 25.448L141.823 21.896L148.267 25.448L154.714 21.896L161.16 25.448L167.607 21.896L174.054 25.448L180.501 21.896L186.945 25.448L193.392 21.896L199.839 25.448L206.288 21.896L212.734 25.448L219.181 21.896L225.628 25.448L232.074 21.896L238.521 25.448L244.97 21.896L251.417 25.448L257.864 21.896L264.31 25.448L270.757 21.896L277.206 25.448L283.653 21.896L290.102 25.448L296.551 21.896L303 25.448M0 82.328L6.44444 85.896L12.8912 82.328L19.3379 85.896L25.7846 82.328L32.2291 85.896L38.6758 82.328L45.1225 85.896L51.5693 82.328L58.016 85.896L64.4627 82.328L70.9072 85.896L77.3539 82.328L83.8006 85.896L90.2497 82.328L96.6964 85.896L103.143 82.328L109.59 85.896L116.037 82.328L122.483 85.896M122.483 85.896L128.932 82.328L135.379 85.896L141.826 82.328L148.273 85.896L154.719 82.328L161.168 85.896L167.615 82.328L174.064 85.896L180.513 82.328L186.962 85.896M122.483 85.896L116.038 82.328M122.483 85.896L128.929 82.328L135.376 85.896L141.823 82.328L148.267 85.896L154.714 82.328L161.16 85.896L167.607 82.328L174.054 85.896L180.501 82.328L186.945 85.896L193.392 82.328L199.839 85.896L206.288 82.328L212.734 85.896L219.181 82.328L225.628 85.896L232.074 82.328L238.521 85.896L244.97 82.328L251.417 85.896L257.864 82.328L264.31 85.896L270.757 82.328L277.206 85.896L283.653 82.328L290.102 85.896L296.551 82.328L303 85.896M0 50.3281L6.44444 53.8961L12.8912 50.3281L19.3379 53.8961L25.7846 50.3281L32.2291 53.8961L38.6758 50.3281L45.1225 53.8961L51.5693 50.3281L58.016 53.8961L64.4627 50.3281L70.9072 53.8961L77.3539 50.3281L83.8006 53.8961L90.2497 50.3281L96.6964 53.8961L103.143 50.3281L109.59 53.8961L116.037 50.3281L122.483 53.8961M122.483 53.8961L128.932 50.3281L135.379 53.8961L141.826 50.3281L148.273 53.8961L154.719 50.3281L161.168 53.8961L167.615 50.3281L174.064 53.8961L180.513 50.3281L186.962 53.8961M122.483 53.8961L116.038 50.3281M122.483 53.8961L128.929 50.3281L135.376 53.8961L141.823 50.3281L148.267 53.8961L154.714 50.3281L161.16 53.8961L167.607 50.3281L174.054 53.8961L180.501 50.3281L186.945 53.8961L193.392 50.3281L199.839 53.8961L206.288 50.3281L212.734 53.8961L219.181 50.3281L225.628 53.8961L232.074 50.3281L238.521 53.8961L244.97 50.3281L251.417 53.8961L257.864 50.3281L264.31 53.8961L270.757 50.3281L277.206 53.8961L283.653 50.3281L290.102 53.8961L296.551 50.3281L303 53.8961M0 110.776L6.44444 114.328L12.8912 110.776L19.3379 114.328L25.7846 110.776L32.2291 114.328L38.6758 110.776L45.1225 114.328L51.5693 110.776L58.016 114.328L64.4627 110.776L70.9072 114.328L77.3539 110.776L83.8006 114.328L90.2497 110.776L96.6964 114.328L103.143 110.776L109.59 114.328L116.037 110.776L122.483 114.328M122.483 114.328L128.932 110.776L135.379 114.328L141.826 110.776L148.273 114.328L154.719 110.776L161.168 114.328L167.615 110.776L174.064 114.328L180.513 110.776L186.962 114.328M122.483 114.328L116.038 110.776M122.483 114.328L128.929 110.776L135.376 114.328L141.823 110.776L148.267 114.328L154.714 110.776L161.16 114.328L167.607 110.776L174.054 114.328L180.501 110.776L186.945 114.328L193.392 110.776L199.839 114.328L206.288 110.776L212.734 114.328L219.181 110.776L225.628 114.328L232.074 110.776L238.521 114.328L244.97 110.776L251.417 114.328L257.864 110.776L264.31 114.328L270.757 110.776L277.206 114.328L283.653 110.776L290.102 114.328L296.551 110.776L303 114.328M0 78.776L6.44444 82.328L12.8912 78.776L19.3379 82.328L25.7846 78.776L32.2291 82.328L38.6758 78.776L45.1225 82.328L51.5693 78.776L58.016 82.328L64.4627 78.776L70.9072 82.328L77.3539 78.776L83.8006 82.328L90.2497 78.776L96.6964 82.328L103.143 78.776L109.59 82.328L116.037 78.776L122.483 82.328M122.483 82.328L128.932 78.776L135.379 82.328L141.826 78.776L148.273 82.328L154.719 78.776L161.168 82.328L167.615 78.776L174.064 82.328L180.513 78.776L186.962 82.328M122.483 82.328L116.038 78.776M122.483 82.328L128.929 78.776L135.376 82.328L141.823 78.776L148.267 82.328L154.714 78.776L161.16 82.328L167.607 78.776L174.054 82.328L180.501 78.776L186.945 82.328L193.392 78.776L199.839 82.328L206.288 78.776L212.734 82.328L219.181 78.776L225.628 82.328L232.074 78.776L238.521 82.328L244.97 78.776L251.417 82.328L257.864 78.776L264.31 82.328L270.757 78.776L277.206 82.328L283.653 78.776L290.102 82.328L296.551 78.776L303 82.328M0 139.224L6.44444 142.776L12.8912 139.224L19.3379 142.776L25.7846 139.224L32.2291 142.776L38.6758 139.224L45.1225 142.776L51.5693 139.224L58.016 142.776L64.4627 139.224L70.9072 142.776L77.3539 139.224L83.8006 142.776L90.2497 139.224L96.6964 142.776L103.143 139.224L109.59 142.776L116.037 139.224L122.483 142.776M122.483 142.776L128.932 139.224L135.379 142.776L141.826 139.224L148.273 142.776L154.719 139.224L161.168 142.776L167.615 139.224L174.064 142.776L180.513 139.224L186.962 142.776M122.483 142.776L116.038 139.224M122.483 142.776L128.929 139.224L135.376 142.776L141.823 139.224L148.267 142.776L154.714 139.224L161.16 142.776L167.607 139.224L174.054 142.776L180.501 139.224L186.945 142.776L193.392 139.224L199.839 142.776L206.288 139.224L212.734 142.776L219.181 139.224L225.628 142.776L232.074 139.224L238.521 142.776L244.97 139.224L251.417 142.776L257.864 139.224L264.31 142.776L270.757 139.224L277.206 142.776L283.653 139.224L290.102 142.776L296.551 139.224L303 142.776M0 153.448L6.44444 157L12.8912 153.448L19.3379 157L25.7846 153.448L32.2291 157L38.6758 153.448L45.1225 157L51.5693 153.448L58.016 157L64.4627 153.448L70.9072 157L77.3539 153.448L83.8006 157L90.2497 153.448L96.6964 157L103.143 153.448L109.59 157L116.037 153.448L122.483 157M122.483 157L128.932 153.448L135.379 157L141.826 153.448L148.273 157L154.719 153.448L161.168 157L167.615 153.448L174.064 157L180.513 153.448L186.962 157M122.483 157L116.038 153.448M122.483 157L128.929 153.448L135.376 157L141.823 153.448L148.267 157L154.714 153.448L161.16 157L167.607 153.448L174.054 157L180.501 153.448L186.945 157L193.392 153.448L199.839 157L206.288 153.448L212.734 157L219.181 153.448L225.628 157L232.074 153.448L238.521 157L244.97 153.448L251.417 157L257.864 153.448L264.31 157L270.757 153.448L277.206 157L283.653 153.448L290.102 157L296.551 153.448L303 157" stroke="white" stroke-opacity="0.07" stroke-miterlimit="10" stroke-linecap="round"/>
</svg>
