<svg width="375" height="300" viewBox="0 0 375 300" fill="none" xmlns="http://www.w3.org/2000/svg">
<g clip-path="url(#clip0_712_17650)">
<path d="M-218 143.152L215.814 -262" stroke="white" stroke-opacity="0.14" stroke-width="2"/>
<path d="M-76.2285 300.188L357.585 -104.965" stroke="white" stroke-opacity="0.14" stroke-width="2"/>
<path d="M-147.114 221.672L286.699 -183.481" stroke="white" stroke-opacity="0.14" stroke-width="2"/>
<path d="M-5.34277 378.715L428.471 -26.438" stroke="white" stroke-opacity="0.14" stroke-width="2"/>
<path d="M77.3574 470.318L511.171 65.1656" stroke="white" stroke-opacity="0.14" stroke-width="2"/>
<path d="M-182.557 182.408L251.257 -222.745" stroke="white" stroke-opacity="0.14" stroke-width="2"/>
<path d="M-40.7852 339.451L393.029 -65.7016" stroke="white" stroke-opacity="0.14" stroke-width="2"/>
<path d="M-111.672 260.932L322.142 -144.221" stroke="white" stroke-opacity="0.14" stroke-width="2"/>
<path d="M30.1016 417.975L247.008 215.398L463.915 12.8218" stroke="white" stroke-opacity="0.14" stroke-width="2"/>
<path d="M112.801 509.584L546.614 104.431" stroke="white" stroke-opacity="0.14" stroke-width="2"/>
<path d="M-206.185 156.238L227.629 -248.915" stroke="white" stroke-opacity="0.14" stroke-width="2"/>
<path d="M-64.4141 313.281L369.4 -91.8715" stroke="white" stroke-opacity="0.14" stroke-width="2"/>
<path d="M-135.3 234.762L298.514 -170.391" stroke="white" stroke-opacity="0.14" stroke-width="2"/>
<path d="M6.47266 391.805L440.286 -13.3481" stroke="white" stroke-opacity="0.14" stroke-width="2"/>
<path d="M89.1729 483.408L522.987 78.2554" stroke="white" stroke-opacity="0.14" stroke-width="2"/>
<path d="M-170.742 195.494L263.071 -209.659" stroke="white" stroke-opacity="0.14" stroke-width="2"/>
<path d="M-28.9707 352.541L404.843 -52.6118" stroke="white" stroke-opacity="0.14" stroke-width="2"/>
<path d="M-99.8574 274.021L333.956 -131.131" stroke="white" stroke-opacity="0.14" stroke-width="2"/>
<path d="M41.916 431.061L475.73 25.9078" stroke="white" stroke-opacity="0.14" stroke-width="2"/>
<path d="M124.615 522.672L558.429 117.519" stroke="white" stroke-opacity="0.14" stroke-width="2"/>
<path d="M148.244 548.838L582.058 143.685" stroke="white" stroke-opacity="0.14" stroke-width="2"/>
<path d="M-194.372 169.322L239.442 -235.831" stroke="white" stroke-opacity="0.14" stroke-width="2"/>
<path d="M-52.5996 326.365L381.214 -78.7876" stroke="white" stroke-opacity="0.14" stroke-width="2"/>
<path d="M-123.486 247.848L310.327 -157.305" stroke="white" stroke-opacity="0.14" stroke-width="2"/>
<path d="M18.2871 404.889L452.101 -0.264124" stroke="white" stroke-opacity="0.14" stroke-width="2"/>
<path d="M100.986 496.498L534.8 91.3453" stroke="white" stroke-opacity="0.14" stroke-width="2"/>
<path d="M-158.929 208.582L274.885 -196.571" stroke="white" stroke-opacity="0.14" stroke-width="2"/>
<path d="M-17.1562 365.629L416.657 -39.5239" stroke="white" stroke-opacity="0.14" stroke-width="2"/>
<path d="M65.5439 457.23L499.358 52.0777" stroke="white" stroke-opacity="0.14" stroke-width="2"/>
<path d="M-88.043 287.111L345.771 -118.041" stroke="white" stroke-opacity="0.14" stroke-width="2"/>
<path d="M53.7295 444.145L487.543 38.9917" stroke="white" stroke-opacity="0.14" stroke-width="2"/>
<path d="M136.43 535.754L570.243 130.601" stroke="white" stroke-opacity="0.14" stroke-width="2"/>
<path d="M160.059 561.928L593.872 156.775" stroke="white" stroke-opacity="0.14" stroke-width="2"/>
</g>
<defs>
<clipPath id="clip0_712_17650">
<rect width="375" height="300" fill="white"/>
</clipPath>
</defs>
</svg>
