<svg width="375" height="300" viewBox="0 0 375 300" fill="none" xmlns="http://www.w3.org/2000/svg">
<g clip-path="url(#clip0_712_17316)">
<path d="M-195 0L-178.751 12.0102L-162.496 0L-146.24 12.0102L-129.985 0L-113.736 12.0102L-97.4808 0L-81.2257 12.0102L-64.9706 0L-48.7154 12.0102L-32.4603 0L-16.211 12.0102L0.0441635 0L16.2993 12.0102L32.5602 0L48.8153 12.0102L65.0705 0L81.3256 12.0102L97.5807 0L113.836 12.0102M113.836 12.0102L130.097 0L146.352 12.0102L162.607 0L178.862 12.0102L195.117 0L211.378 12.0102L227.633 0L243.894 12.0102L260.155 0L276.416 12.0102M113.836 12.0102L97.584 0M113.836 12.0102L130.088 0L146.344 12.0102L162.599 0L178.848 12.0102L195.103 0L211.358 12.0102L227.613 0L243.869 12.0102L260.124 0L276.373 12.0102L292.628 0L308.883 12.0102L325.144 0L341.399 12.0102L357.654 0L373.91 12.0102L390.165 0L406.42 12.0102L422.681 0L438.936 12.0102L455.191 0L471.446 12.0102L487.701 0L503.962 12.0102L520.217 0L536.478 12.0102L552.739 0L569 12.0102M-195 96.1898L-178.751 108.2L-162.496 96.1898L-146.24 108.2L-129.985 96.1898L-113.736 108.2L-97.4808 96.1898L-81.2257 108.2L-64.9706 96.1898L-48.7154 108.2L-32.4603 96.1898L-16.211 108.2L0.0441635 96.1898L16.2993 108.2L32.5602 96.1898L48.8153 108.2L65.0705 96.1898L81.3256 108.2L97.5807 96.1898L113.836 108.2M113.836 108.2L130.097 96.1898L146.352 108.2L162.607 96.1898L178.862 108.2L195.117 96.1898L211.378 108.2L227.633 96.1898L243.894 108.2L260.155 96.1898L276.416 108.2M113.836 108.2L97.584 96.1898M113.836 108.2L130.088 96.1898L146.344 108.2L162.599 96.1898L178.848 108.2L195.103 96.1898L211.358 108.2L227.613 96.1898L243.869 108.2L260.124 96.1898L276.373 108.2L292.628 96.1898L308.883 108.2L325.144 96.1898L341.399 108.2L357.654 96.1898L373.91 108.2L390.165 96.1898L406.42 108.2L422.681 96.1898L438.936 108.2L455.191 96.1898L471.446 108.2L487.701 96.1898L503.962 108.2L520.217 96.1898L536.478 108.2L552.739 96.1898L569 108.2M-195 300.58L-178.751 312.59L-162.496 300.58L-146.24 312.59L-129.985 300.58L-113.736 312.59L-97.4808 300.58L-81.2257 312.59L-64.9706 300.58L-48.7154 312.59L-32.4603 300.58L-16.211 312.59L0.0441635 300.58L16.2993 312.59L32.5602 300.58L48.8153 312.59L65.0705 300.58L81.3256 312.59L97.5807 300.58L113.836 312.59M113.836 312.59L130.097 300.58L146.352 312.59L162.607 300.58L178.862 312.59L195.117 300.58L211.378 312.59L227.633 300.58L243.894 312.59L260.155 300.58L276.416 312.59M113.836 312.59L97.584 300.58M113.836 312.59L130.088 300.58L146.344 312.59L162.599 300.58L178.848 312.59L195.103 300.58L211.358 312.59L227.613 300.58L243.869 312.59L260.124 300.58L276.373 312.59L292.628 300.58L308.883 312.59L325.144 300.58L341.399 312.59L357.654 300.58L373.91 312.59L390.165 300.58L406.42 312.59L422.681 300.58L438.936 312.59L455.191 300.58L471.446 312.59L487.701 300.58L503.962 312.59L520.217 300.58L536.478 312.59L552.739 300.58L569 312.59M-195 192.38L-178.751 204.39L-162.496 192.38L-146.24 204.39L-129.985 192.38L-113.736 204.39L-97.4808 192.38L-81.2257 204.39L-64.9706 192.38L-48.7154 204.39L-32.4603 192.38L-16.211 204.39L0.0441635 192.38L16.2993 204.39L32.5602 192.38L48.8153 204.39L65.0705 192.38L81.3256 204.39L97.5807 192.38L113.836 204.39M113.836 204.39L130.097 192.38L146.352 204.39L162.607 192.38L178.862 204.39L195.117 192.38L211.378 204.39L227.633 192.38L243.894 204.39L260.155 192.38L276.416 204.39M113.836 204.39L97.584 192.38M113.836 204.39L130.088 192.38L146.344 204.39L162.599 192.38L178.848 204.39L195.103 192.38L211.358 204.39L227.613 192.38L243.869 204.39L260.124 192.38L276.373 204.39L292.628 192.38L308.883 204.39L325.144 192.38L341.399 204.39L357.654 192.38L373.91 204.39L390.165 192.38L406.42 204.39L422.681 192.38L438.936 204.39L455.191 192.38L471.446 204.39L487.701 192.38L503.962 204.39L520.217 192.38L536.478 204.39L552.739 192.38L569 204.39M-195 396.715L-178.751 408.78L-162.496 396.715L-146.24 408.78L-129.985 396.715L-113.736 408.78L-97.4808 396.715L-81.2257 408.78L-64.9706 396.715L-48.7154 408.78L-32.4603 396.715L-16.211 408.78L0.0441635 396.715L16.2993 408.78L32.5602 396.715L48.8153 408.78L65.0705 396.715L81.3256 408.78L97.5807 396.715L113.836 408.78M113.836 408.78L130.097 396.715L146.352 408.78L162.607 396.715L178.862 408.78L195.117 396.715L211.378 408.78L227.633 396.715L243.894 408.78L260.155 396.715L276.416 408.78M113.836 408.78L97.584 396.715M113.836 408.78L130.088 396.715L146.344 408.78L162.599 396.715L178.848 408.78L195.103 396.715L211.358 408.78L227.613 396.715L243.869 408.78L260.124 396.715L276.373 408.78L292.628 396.715L308.883 408.78L325.144 396.715L341.399 408.78L357.654 396.715L373.91 408.78L390.165 396.715L406.42 408.78L422.681 396.715L438.936 408.78L455.191 396.715L471.446 408.78L487.701 396.715L503.962 408.78L520.217 396.715L536.478 408.78L552.739 396.715L569 408.78M-195 48.0951L-178.751 60.1053L-162.496 48.0951L-146.24 60.1053L-129.985 48.0951L-113.736 60.1053L-97.4808 48.0951L-81.2257 60.1053L-64.9706 48.0951L-48.7154 60.1053L-32.4603 48.0951L-16.211 60.1053L0.0441635 48.0951L16.2993 60.1053L32.5602 48.0951L48.8153 60.1053L65.0705 48.0951L81.3256 60.1053L97.5807 48.0951L113.836 60.1053M113.836 60.1053L130.097 48.0951L146.352 60.1053L162.607 48.0951L178.862 60.1053L195.117 48.0951L211.378 60.1053L227.633 48.0951L243.894 60.1053L260.155 48.0951L276.416 60.1053M113.836 60.1053L97.584 48.0951M113.836 60.1053L130.088 48.0951L146.344 60.1053L162.599 48.0951L178.848 60.1053L195.103 48.0951L211.358 60.1053L227.613 48.0951L243.869 60.1053L260.124 48.0951L276.373 60.1053L292.628 48.0951L308.883 60.1053L325.144 48.0951L341.399 60.1053L357.654 48.0951L373.91 60.1053L390.165 48.0951L406.42 60.1053L422.681 48.0951L438.936 60.1053L455.191 48.0951L471.446 60.1053L487.701 48.0951L503.962 60.1053L520.217 48.0951L536.478 60.1053L552.739 48.0951L569 60.1053M-195 144.285L-178.751 156.295L-162.496 144.285L-146.24 156.295L-129.985 144.285L-113.736 156.295L-97.4808 144.285L-81.2257 156.295L-64.9706 144.285L-48.7154 156.295L-32.4603 144.285L-16.211 156.295L0.0441635 144.285L16.2993 156.295L32.5602 144.285L48.8153 156.295L65.0705 144.285L81.3256 156.295L97.5807 144.285L113.836 156.295M113.836 156.295L130.097 144.285L146.352 156.295L162.607 144.285L178.862 156.295L195.117 144.285L211.378 156.295L227.633 144.285L243.894 156.295L260.155 144.285L276.416 156.295M113.836 156.295L97.584 144.285M113.836 156.295L130.088 144.285L146.344 156.295L162.599 144.285L178.848 156.295L195.103 144.285L211.358 156.295L227.613 144.285L243.869 156.295L260.124 144.285L276.373 156.295L292.628 144.285L308.883 156.295L325.144 144.285L341.399 156.295L357.654 144.285L373.91 156.295L390.165 144.285L406.42 156.295L422.681 144.285L438.936 156.295L455.191 144.285L471.446 156.295L487.701 144.285L503.962 156.295L520.217 144.285L536.478 156.295L552.739 144.285L569 156.295M-195 348.62L-178.751 360.685L-162.496 348.62L-146.24 360.685L-129.985 348.62L-113.736 360.685L-97.4808 348.62L-81.2257 360.685L-64.9706 348.62L-48.7154 360.685L-32.4603 348.62L-16.211 360.685L0.0441635 348.62L16.2993 360.685L32.5602 348.62L48.8153 360.685L65.0705 348.62L81.3256 360.685L97.5807 348.62L113.836 360.685M113.836 360.685L130.097 348.62L146.352 360.685L162.607 348.62L178.862 360.685L195.117 348.62L211.378 360.685L227.633 348.62L243.894 360.685L260.155 348.62L276.416 360.685M113.836 360.685L97.584 348.62M113.836 360.685L130.088 348.62L146.344 360.685L162.599 348.62L178.848 360.685L195.103 348.62L211.358 360.685L227.613 348.62L243.869 360.685L260.124 348.62L276.373 360.685L292.628 348.62L308.883 360.685L325.144 348.62L341.399 360.685L357.654 348.62L373.91 360.685L390.165 348.62L406.42 360.685L422.681 348.62L438.936 360.685L455.191 348.62L471.446 360.685L487.701 348.62L503.962 360.685L520.217 348.62L536.478 360.685L552.739 348.62L569 360.685M-195 240.421L-178.751 252.485L-162.496 240.421L-146.24 252.485L-129.985 240.421L-113.736 252.485L-97.4808 240.421L-81.2257 252.485L-64.9706 240.421L-48.7154 252.485L-32.4603 240.421L-16.211 252.485L0.0441635 240.421L16.2993 252.485L32.5602 240.421L48.8153 252.485L65.0705 240.421L81.3256 252.485L97.5807 240.421L113.836 252.485M113.836 252.485L130.097 240.421L146.352 252.485L162.607 240.421L178.862 252.485L195.117 240.421L211.378 252.485L227.633 240.421L243.894 252.485L260.155 240.421L276.416 252.485M113.836 252.485L97.584 240.421M113.836 252.485L130.088 240.421L146.344 252.485L162.599 240.421L178.848 252.485L195.103 240.421L211.358 252.485L227.613 240.421L243.869 252.485L260.124 240.421L276.373 252.485L292.628 240.421L308.883 252.485L325.144 240.421L341.399 252.485L357.654 240.421L373.91 252.485L390.165 240.421L406.42 252.485L422.681 240.421L438.936 252.485L455.191 240.421L471.446 252.485L487.701 240.421L503.962 252.485L520.217 240.421L536.478 252.485L552.739 240.421L569 252.485M-195 444.81L-178.751 456.82L-162.496 444.81L-146.24 456.82L-129.985 444.81L-113.736 456.82L-97.4808 444.81L-81.2257 456.82L-64.9706 444.81L-48.7154 456.82L-32.4603 444.81L-16.211 456.82L0.0441635 444.81L16.2993 456.82L32.5602 444.81L48.8153 456.82L65.0705 444.81L81.3256 456.82L97.5807 444.81L113.836 456.82M113.836 456.82L130.097 444.81L146.352 456.82L162.607 444.81L178.862 456.82L195.117 444.81L211.378 456.82L227.633 444.81L243.894 456.82L260.155 444.81L276.416 456.82M113.836 456.82L97.584 444.81M113.836 456.82L130.088 444.81L146.344 456.82L162.599 444.81L178.848 456.82L195.103 444.81L211.358 456.82L227.613 444.81L243.869 456.82L260.124 444.81L276.373 456.82L292.628 444.81L308.883 456.82L325.144 444.81L341.399 456.82L357.654 444.81L373.91 456.82L390.165 444.81L406.42 456.82L422.681 444.81L438.936 456.82L455.191 444.81L471.446 456.82L487.701 444.81L503.962 456.82L520.217 444.81L536.478 456.82L552.739 444.81L569 456.82M-195 492.905L-178.751 504.915L-162.496 492.905L-146.24 504.915L-129.985 492.905L-113.736 504.915L-97.4808 492.905L-81.2257 504.915L-64.9706 492.905L-48.7154 504.915L-32.4603 492.905L-16.211 504.915L0.0441635 492.905L16.2993 504.915L32.5602 492.905L48.8153 504.915L65.0705 492.905L81.3256 504.915L97.5807 492.905L113.836 504.915M113.836 504.915L130.097 492.905L146.352 504.915L162.607 492.905L178.862 504.915L195.117 492.905L211.378 504.915L227.633 492.905L243.894 504.915L260.155 492.905L276.416 504.915M113.836 504.915L97.584 492.905M113.836 504.915L130.088 492.905L146.344 504.915L162.599 492.905L178.848 504.915L195.103 492.905L211.358 504.915L227.613 492.905L243.869 504.915L260.124 492.905L276.373 504.915L292.628 492.905L308.883 504.915L325.144 492.905L341.399 504.915L357.654 492.905L373.91 504.915L390.165 492.905L406.42 504.915L422.681 492.905L438.936 504.915L455.191 492.905L471.446 504.915L487.701 492.905L503.962 504.915L520.217 492.905L536.478 504.915L552.739 492.905L569 504.915M-195 24.0206L-178.751 36.0849L-162.496 24.0206L-146.24 36.0849L-129.985 24.0206L-113.736 36.0849L-97.4808 24.0206L-81.2257 36.0849L-64.9706 24.0206L-48.7154 36.0849L-32.4603 24.0206L-16.211 36.0849L0.0441635 24.0206L16.2993 36.0849L32.5602 24.0206L48.8153 36.0849L65.0705 24.0206L81.3256 36.0849L97.5807 24.0206L113.836 36.0849M113.836 36.0849L130.097 24.0206L146.352 36.0849L162.607 24.0206L178.862 36.0849L195.117 24.0206L211.378 36.0849L227.633 24.0206L243.894 36.0849L260.155 24.0206L276.416 36.0849M113.836 36.0849L97.584 24.0206M113.836 36.0849L130.088 24.0206L146.344 36.0849L162.599 24.0206L178.848 36.0849L195.103 24.0206L211.358 36.0849L227.613 24.0206L243.869 36.0849L260.124 24.0206L276.373 36.0849L292.628 24.0206L308.883 36.0849L325.144 24.0206L341.399 36.0849L357.654 24.0206L373.91 36.0849L390.165 24.0206L406.42 36.0849L422.681 24.0206L438.936 36.0849L455.191 24.0206L471.446 36.0849L487.701 24.0206L503.962 36.0849L520.217 24.0206L536.478 36.0849L552.739 24.0206L569 36.0849M-195 120.21L-178.751 132.22L-162.496 120.21L-146.24 132.22L-129.985 120.21L-113.736 132.22L-97.4808 120.21L-81.2257 132.22L-64.9706 120.21L-48.7154 132.22L-32.4603 120.21L-16.211 132.22L0.0441635 120.21L16.2993 132.22L32.5602 120.21L48.8153 132.22L65.0705 120.21L81.3256 132.22L97.5807 120.21L113.836 132.22M113.836 132.22L130.097 120.21L146.352 132.22L162.607 120.21L178.862 132.22L195.117 120.21L211.378 132.22L227.633 120.21L243.894 132.22L260.155 120.21L276.416 132.22M113.836 132.22L97.584 120.21M113.836 132.22L130.088 120.21L146.344 132.22L162.599 120.21L178.848 132.22L195.103 120.21L211.358 132.22L227.613 120.21L243.869 132.22L260.124 120.21L276.373 132.22L292.628 120.21L308.883 132.22L325.144 120.21L341.399 132.22L357.654 120.21L373.91 132.22L390.165 120.21L406.42 132.22L422.681 120.21L438.936 132.22L455.191 120.21L471.446 132.22L487.701 120.21L503.962 132.22L520.217 120.21L536.478 132.22L552.739 120.21L569 132.22M-195 324.6L-178.751 336.611L-162.496 324.6L-146.24 336.611L-129.985 324.6L-113.736 336.611L-97.4808 324.6L-81.2257 336.611L-64.9706 324.6L-48.7154 336.611L-32.4603 324.6L-16.211 336.611L0.0441635 324.6L16.2993 336.611L32.5602 324.6L48.8153 336.611L65.0705 324.6L81.3256 336.611L97.5807 324.6L113.836 336.611M113.836 336.611L130.097 324.6L146.352 336.611L162.607 324.6L178.862 336.611L195.117 324.6L211.378 336.611L227.633 324.6L243.894 336.611L260.155 324.6L276.416 336.611M113.836 336.611L97.584 324.6M113.836 336.611L130.088 324.6L146.344 336.611L162.599 324.6L178.848 336.611L195.103 324.6L211.358 336.611L227.613 324.6L243.869 336.611L260.124 324.6L276.373 336.611L292.628 324.6L308.883 336.611L325.144 324.6L341.399 336.611L357.654 324.6L373.91 336.611L390.165 324.6L406.42 336.611L422.681 324.6L438.936 336.611L455.191 324.6L471.446 336.611L487.701 324.6L503.962 336.611L520.217 324.6L536.478 336.611L552.739 324.6L569 336.611M-195 216.4L-178.751 228.411L-162.496 216.4L-146.24 228.411L-129.985 216.4L-113.736 228.411L-97.4808 216.4L-81.2257 228.411L-64.9706 216.4L-48.7154 228.411L-32.4603 216.4L-16.211 228.411L0.0441635 216.4L16.2993 228.411L32.5602 216.4L48.8153 228.411L65.0705 216.4L81.3256 228.411L97.5807 216.4L113.836 228.411M113.836 228.411L130.097 216.4L146.352 228.411L162.607 216.4L178.862 228.411L195.117 216.4L211.378 228.411L227.633 216.4L243.894 228.411L260.155 216.4L276.416 228.411M113.836 228.411L97.584 216.4M113.836 228.411L130.088 216.4L146.344 228.411L162.599 216.4L178.848 228.411L195.103 216.4L211.358 228.411L227.613 216.4L243.869 228.411L260.124 216.4L276.373 228.411L292.628 216.4L308.883 228.411L325.144 216.4L341.399 228.411L357.654 216.4L373.91 228.411L390.165 216.4L406.42 228.411L422.681 216.4L438.936 228.411L455.191 216.4L471.446 228.411L487.701 216.4L503.962 228.411L520.217 216.4L536.478 228.411L552.739 216.4L569 228.411M-195 420.79L-178.751 432.8L-162.496 420.79L-146.24 432.8L-129.985 420.79L-113.736 432.8L-97.4808 420.79L-81.2257 432.8L-64.9706 420.79L-48.7154 432.8L-32.4603 420.79L-16.211 432.8L0.0441635 420.79L16.2993 432.8L32.5602 420.79L48.8153 432.8L65.0705 420.79L81.3256 432.8L97.5807 420.79L113.836 432.8M113.836 432.8L130.097 420.79L146.352 432.8L162.607 420.79L178.862 432.8L195.117 420.79L211.378 432.8L227.633 420.79L243.894 432.8L260.155 420.79L276.416 432.8M113.836 432.8L97.584 420.79M113.836 432.8L130.088 420.79L146.344 432.8L162.599 420.79L178.848 432.8L195.103 420.79L211.358 432.8L227.613 420.79L243.869 432.8L260.124 420.79L276.373 432.8L292.628 420.79L308.883 432.8L325.144 420.79L341.399 432.8L357.654 420.79L373.91 432.8L390.165 420.79L406.42 432.8L422.681 420.79L438.936 432.8L455.191 420.79L471.446 432.8L487.701 420.79L503.962 432.8L520.217 420.79L536.478 432.8L552.739 420.79L569 432.8M-195 72.1155L-178.751 84.1798L-162.496 72.1155L-146.24 84.1798L-129.985 72.1155L-113.736 84.1798L-97.4808 72.1155L-81.2257 84.1798L-64.9706 72.1155L-48.7154 84.1798L-32.4603 72.1155L-16.211 84.1798L0.0441635 72.1155L16.2993 84.1798L32.5602 72.1155L48.8153 84.1798L65.0705 72.1155L81.3256 84.1798L97.5807 72.1155L113.836 84.1798M113.836 84.1798L130.097 72.1155L146.352 84.1798L162.607 72.1155L178.862 84.1798L195.117 72.1155L211.378 84.1798L227.633 72.1155L243.894 84.1798L260.155 72.1155L276.416 84.1798M113.836 84.1798L97.584 72.1155M113.836 84.1798L130.088 72.1155L146.344 84.1798L162.599 72.1155L178.848 84.1798L195.103 72.1155L211.358 84.1798L227.613 72.1155L243.869 84.1798L260.124 72.1155L276.373 84.1798L292.628 72.1155L308.883 84.1798L325.144 72.1155L341.399 84.1798L357.654 72.1155L373.91 84.1798L390.165 72.1155L406.42 84.1798L422.681 72.1155L438.936 84.1798L455.191 72.1155L471.446 84.1798L487.701 72.1155L503.962 84.1798L520.217 72.1155L536.478 84.1798L552.739 72.1155L569 84.1798M-195 168.306L-178.751 180.316L-162.496 168.306L-146.24 180.316L-129.985 168.306L-113.736 180.316L-97.4808 168.306L-81.2257 180.316L-64.9706 168.306L-48.7154 180.316L-32.4603 168.306L-16.211 180.316L0.0441635 168.306L16.2993 180.316L32.5602 168.306L48.8153 180.316L65.0705 168.306L81.3256 180.316L97.5807 168.306L113.836 180.316M113.836 180.316L130.097 168.306L146.352 180.316L162.607 168.306L178.862 180.316L195.117 168.306L211.378 180.316L227.633 168.306L243.894 180.316L260.155 168.306L276.416 180.316M113.836 180.316L97.584 168.306M113.836 180.316L130.088 168.306L146.344 180.316L162.599 168.306L178.848 180.316L195.103 168.306L211.358 180.316L227.613 168.306L243.869 180.316L260.124 168.306L276.373 180.316L292.628 168.306L308.883 180.316L325.144 168.306L341.399 180.316L357.654 168.306L373.91 180.316L390.165 168.306L406.42 180.316L422.681 168.306L438.936 180.316L455.191 168.306L471.446 180.316L487.701 168.306L503.962 180.316L520.217 168.306L536.478 180.316L552.739 168.306L569 180.316M-195 372.695L-178.751 384.705L-162.496 372.695L-146.24 384.705L-129.985 372.695L-113.736 384.705L-97.4808 372.695L-81.2257 384.705L-64.9706 372.695L-48.7154 384.705L-32.4603 372.695L-16.211 384.705L0.0441635 372.695L16.2993 384.705L32.5602 372.695L48.8153 384.705L65.0705 372.695L81.3256 384.705L97.5807 372.695L113.836 384.705M113.836 384.705L130.097 372.695L146.352 384.705L162.607 372.695L178.862 384.705L195.117 372.695L211.378 384.705L227.633 372.695L243.894 384.705L260.155 372.695L276.416 384.705M113.836 384.705L97.584 372.695M113.836 384.705L130.088 372.695L146.344 384.705L162.599 372.695L178.848 384.705L195.103 372.695L211.358 384.705L227.613 372.695L243.869 384.705L260.124 372.695L276.373 384.705L292.628 372.695L308.883 384.705L325.144 372.695L341.399 384.705L357.654 372.695L373.91 384.705L390.165 372.695L406.42 384.705L422.681 372.695L438.936 384.705L455.191 372.695L471.446 384.705L487.701 372.695L503.962 384.705L520.217 372.695L536.478 384.705L552.739 372.695L569 384.705M-195 264.495L-178.751 276.506L-162.496 264.495L-146.24 276.506L-129.985 264.495L-113.736 276.506L-97.4808 264.495L-81.2257 276.506L-64.9706 264.495L-48.7154 276.506L-32.4603 264.495L-16.211 276.506L0.0441635 264.495L16.2993 276.506L32.5602 264.495L48.8153 276.506L65.0705 264.495L81.3256 276.506L97.5807 264.495L113.836 276.506M113.836 276.506L130.097 264.495L146.352 276.506L162.607 264.495L178.862 276.506L195.117 264.495L211.378 276.506L227.633 264.495L243.894 276.506L260.155 264.495L276.416 276.506M113.836 276.506L97.584 264.495M113.836 276.506L130.088 264.495L146.344 276.506L162.599 264.495L178.848 276.506L195.103 264.495L211.358 276.506L227.613 264.495L243.869 276.506L260.124 264.495L276.373 276.506L292.628 264.495L308.883 276.506L325.144 264.495L341.399 276.506L357.654 264.495L373.91 276.506L390.165 264.495L406.42 276.506L422.681 264.495L438.936 276.506L455.191 264.495L471.446 276.506L487.701 264.495L503.962 276.506L520.217 264.495L536.478 276.506L552.739 264.495L569 276.506M-195 468.885L-178.751 480.895L-162.496 468.885L-146.24 480.895L-129.985 468.885L-113.736 480.895L-97.4808 468.885L-81.2257 480.895L-64.9706 468.885L-48.7154 480.895L-32.4603 468.885L-16.211 480.895L0.0441635 468.885L16.2993 480.895L32.5602 468.885L48.8153 480.895L65.0705 468.885L81.3256 480.895L97.5807 468.885L113.836 480.895M113.836 480.895L130.097 468.885L146.352 480.895L162.607 468.885L178.862 480.895L195.117 468.885L211.378 480.895L227.633 468.885L243.894 480.895L260.155 468.885L276.416 480.895M113.836 480.895L97.584 468.885M113.836 480.895L130.088 468.885L146.344 480.895L162.599 468.885L178.848 480.895L195.103 468.885L211.358 480.895L227.613 468.885L243.869 480.895L260.124 468.885L276.373 480.895L292.628 468.885L308.883 480.895L325.144 468.885L341.399 480.895L357.654 468.885L373.91 480.895L390.165 468.885L406.42 480.895L422.681 468.885L438.936 480.895L455.191 468.885L471.446 480.895L487.701 468.885L503.962 480.895L520.217 468.885L536.478 480.895L552.739 468.885L569 480.895M-195 516.98L-178.751 528.99L-162.496 516.98L-146.24 528.99L-129.985 516.98L-113.736 528.99L-97.4808 516.98L-81.2257 528.99L-64.9706 516.98L-48.7154 528.99L-32.4603 516.98L-16.211 528.99L0.0441635 516.98L16.2993 528.99L32.5602 516.98L48.8153 528.99L65.0705 516.98L81.3256 528.99L97.5807 516.98L113.836 528.99M113.836 528.99L130.097 516.98L146.352 528.99L162.607 516.98L178.862 528.99L195.117 516.98L211.378 528.99L227.633 516.98L243.894 528.99L260.155 516.98L276.416 528.99M113.836 528.99L97.584 516.98M113.836 528.99L130.088 516.98L146.344 528.99L162.599 516.98L178.848 528.99L195.103 516.98L211.358 528.99L227.613 516.98L243.869 528.99L260.124 516.98L276.373 528.99L292.628 516.98L308.883 528.99L325.144 516.98L341.399 528.99L357.654 516.98L373.91 528.99L390.165 516.98L406.42 528.99L422.681 516.98L438.936 528.99L455.191 516.98L471.446 528.99L487.701 516.98L503.962 528.99L520.217 516.98L536.478 528.99L552.739 516.98L569 528.99M-195 12.0104L-178.751 24.0206L-162.496 12.0104L-146.24 24.0206L-129.985 12.0104L-113.736 24.0206L-97.4808 12.0104L-81.2257 24.0206L-64.9706 12.0104L-48.7154 24.0206L-32.4603 12.0104L-16.211 24.0206L0.0441635 12.0104L16.2993 24.0206L32.5602 12.0104L48.8153 24.0206L65.0705 12.0104L81.3256 24.0206L97.5807 12.0104L113.836 24.0206M113.836 24.0206L130.097 12.0104L146.352 24.0206L162.607 12.0104L178.862 24.0206L195.117 12.0104L211.378 24.0206L227.633 12.0104L243.894 24.0206L260.155 12.0104L276.416 24.0206M113.836 24.0206L97.584 12.0104M113.836 24.0206L130.088 12.0104L146.344 24.0206L162.599 12.0104L178.848 24.0206L195.103 12.0104L211.358 24.0206L227.613 12.0104L243.869 24.0206L260.124 12.0104L276.373 24.0206L292.628 12.0104L308.883 24.0206L325.144 12.0104L341.399 24.0206L357.654 12.0104L373.91 24.0206L390.165 12.0104L406.42 24.0206L422.681 12.0104L438.936 24.0206L455.191 12.0104L471.446 24.0206L487.701 12.0104L503.962 24.0206L520.217 12.0104L536.478 24.0206L552.739 12.0104L569 24.0206M-195 108.2L-178.751 120.21L-162.496 108.2L-146.24 120.21L-129.985 108.2L-113.736 120.21L-97.4808 108.2L-81.2257 120.21L-64.9706 108.2L-48.7154 120.21L-32.4603 108.2L-16.211 120.21L0.0441635 108.2L16.2993 120.21L32.5602 108.2L48.8153 120.21L65.0705 108.2L81.3256 120.21L97.5807 108.2L113.836 120.21M113.836 120.21L130.097 108.2L146.352 120.21L162.607 108.2L178.862 120.21L195.117 108.2L211.378 120.21L227.633 108.2L243.894 120.21L260.155 108.2L276.416 120.21M113.836 120.21L97.584 108.2M113.836 120.21L130.088 108.2L146.344 120.21L162.599 108.2L178.848 120.21L195.103 108.2L211.358 120.21L227.613 108.2L243.869 120.21L260.124 108.2L276.373 120.21L292.628 108.2L308.883 120.21L325.144 108.2L341.399 120.21L357.654 108.2L373.91 120.21L390.165 108.2L406.42 120.21L422.681 108.2L438.936 120.21L455.191 108.2L471.446 120.21L487.701 108.2L503.962 120.21L520.217 108.2L536.478 120.21L552.739 108.2L569 120.21M-195 312.59L-178.751 324.6L-162.496 312.59L-146.24 324.6L-129.985 312.59L-113.736 324.6L-97.4808 312.59L-81.2257 324.6L-64.9706 312.59L-48.7154 324.6L-32.4603 312.59L-16.211 324.6L0.0441635 312.59L16.2993 324.6L32.5602 312.59L48.8153 324.6L65.0705 312.59L81.3256 324.6L97.5807 312.59L113.836 324.6M113.836 324.6L130.097 312.59L146.352 324.6L162.607 312.59L178.862 324.6L195.117 312.59L211.378 324.6L227.633 312.59L243.894 324.6L260.155 312.59L276.416 324.6M113.836 324.6L97.584 312.59M113.836 324.6L130.088 312.59L146.344 324.6L162.599 312.59L178.848 324.6L195.103 312.59L211.358 324.6L227.613 312.59L243.869 324.6L260.124 312.59L276.373 324.6L292.628 312.59L308.883 324.6L325.144 312.59L341.399 324.6L357.654 312.59L373.91 324.6L390.165 312.59L406.42 324.6L422.681 312.59L438.936 324.6L455.191 312.59L471.446 324.6L487.701 312.59L503.962 324.6L520.217 312.59L536.478 324.6L552.739 312.59L569 324.6M-195 204.39L-178.751 216.4L-162.496 204.39L-146.24 216.4L-129.985 204.39L-113.736 216.4L-97.4808 204.39L-81.2257 216.4L-64.9706 204.39L-48.7154 216.4L-32.4603 204.39L-16.211 216.4L0.0441635 204.39L16.2993 216.4L32.5602 204.39L48.8153 216.4L65.0705 204.39L81.3256 216.4L97.5807 204.39L113.836 216.4M113.836 216.4L130.097 204.39L146.352 216.4L162.607 204.39L178.862 216.4L195.117 204.39L211.378 216.4L227.633 204.39L243.894 216.4L260.155 204.39L276.416 216.4M113.836 216.4L97.584 204.39M113.836 216.4L130.088 204.39L146.344 216.4L162.599 204.39L178.848 216.4L195.103 204.39L211.358 216.4L227.613 204.39L243.869 216.4L260.124 204.39L276.373 216.4L292.628 204.39L308.883 216.4L325.144 204.39L341.399 216.4L357.654 204.39L373.91 216.4L390.165 204.39L406.42 216.4L422.681 204.39L438.936 216.4L455.191 204.39L471.446 216.4L487.701 204.39L503.962 216.4L520.217 204.39L536.478 216.4L552.739 204.39L569 216.4M-195 408.78L-178.751 420.79L-162.496 408.78L-146.24 420.79L-129.985 408.78L-113.736 420.79L-97.4808 408.78L-81.2257 420.79L-64.9706 408.78L-48.7154 420.79L-32.4603 408.78L-16.211 420.79L0.0441635 408.78L16.2993 420.79L32.5602 408.78L48.8153 420.79L65.0705 408.78L81.3256 420.79L97.5807 408.78L113.836 420.79M113.836 420.79L130.097 408.78L146.352 420.79L162.607 408.78L178.862 420.79L195.117 408.78L211.378 420.79L227.633 408.78L243.894 420.79L260.155 408.78L276.416 420.79M113.836 420.79L97.584 408.78M113.836 420.79L130.088 408.78L146.344 420.79L162.599 408.78L178.848 420.79L195.103 408.78L211.358 420.79L227.613 408.78L243.869 420.79L260.124 408.78L276.373 420.79L292.628 408.78L308.883 420.79L325.144 408.78L341.399 420.79L357.654 408.78L373.91 420.79L390.165 408.78L406.42 420.79L422.681 408.78L438.936 420.79L455.191 408.78L471.446 420.79L487.701 408.78L503.962 420.79L520.217 408.78L536.478 420.79L552.739 408.78L569 420.79M-195 60.1053L-178.751 72.1155L-162.496 60.1053L-146.24 72.1155L-129.985 60.1053L-113.736 72.1155L-97.4808 60.1053L-81.2257 72.1155L-64.9706 60.1053L-48.7154 72.1155L-32.4603 60.1053L-16.211 72.1155L0.0441635 60.1053L16.2993 72.1155L32.5602 60.1053L48.8153 72.1155L65.0705 60.1053L81.3256 72.1155L97.5807 60.1053L113.836 72.1155M113.836 72.1155L130.097 60.1053L146.352 72.1155L162.607 60.1053L178.862 72.1155L195.117 60.1053L211.378 72.1155L227.633 60.1053L243.894 72.1155L260.155 60.1053L276.416 72.1155M113.836 72.1155L97.584 60.1053M113.836 72.1155L130.088 60.1053L146.344 72.1155L162.599 60.1053L178.848 72.1155L195.103 60.1053L211.358 72.1155L227.613 60.1053L243.869 72.1155L260.124 60.1053L276.373 72.1155L292.628 60.1053L308.883 72.1155L325.144 60.1053L341.399 72.1155L357.654 60.1053L373.91 72.1155L390.165 60.1053L406.42 72.1155L422.681 60.1053L438.936 72.1155L455.191 60.1053L471.446 72.1155L487.701 60.1053L503.962 72.1155L520.217 60.1053L536.478 72.1155L552.739 60.1053L569 72.1155M-195 156.295L-178.751 168.305L-162.496 156.295L-146.24 168.305L-129.985 156.295L-113.736 168.305L-97.4808 156.295L-81.2257 168.305L-64.9706 156.295L-48.7154 168.305L-32.4603 156.295L-16.211 168.305L0.0441635 156.295L16.2993 168.305L32.5602 156.295L48.8153 168.305L65.0705 156.295L81.3256 168.305L97.5807 156.295L113.836 168.305M113.836 168.305L130.097 156.295L146.352 168.305L162.607 156.295L178.862 168.305L195.117 156.295L211.378 168.305L227.633 156.295L243.894 168.305L260.155 156.295L276.416 168.305M113.836 168.305L97.584 156.295M113.836 168.305L130.088 156.295L146.344 168.305L162.599 156.295L178.848 168.305L195.103 156.295L211.358 168.305L227.613 156.295L243.869 168.305L260.124 156.295L276.373 168.305L292.628 156.295L308.883 168.305L325.144 156.295L341.399 168.305L357.654 156.295L373.91 168.305L390.165 156.295L406.42 168.305L422.681 156.295L438.936 168.305L455.191 156.295L471.446 168.305L487.701 156.295L503.962 168.305L520.217 156.295L536.478 168.305L552.739 156.295L569 168.305M-195 360.685L-178.751 372.695L-162.496 360.685L-146.24 372.695L-129.985 360.685L-113.736 372.695L-97.4808 360.685L-81.2257 372.695L-64.9706 360.685L-48.7154 372.695L-32.4603 360.685L-16.211 372.695L0.0441635 360.685L16.2993 372.695L32.5602 360.685L48.8153 372.695L65.0705 360.685L81.3256 372.695L97.5807 360.685L113.836 372.695M113.836 372.695L130.097 360.685L146.352 372.695L162.607 360.685L178.862 372.695L195.117 360.685L211.378 372.695L227.633 360.685L243.894 372.695L260.155 360.685L276.416 372.695M113.836 372.695L97.584 360.685M113.836 372.695L130.088 360.685L146.344 372.695L162.599 360.685L178.848 372.695L195.103 360.685L211.358 372.695L227.613 360.685L243.869 372.695L260.124 360.685L276.373 372.695L292.628 360.685L308.883 372.695L325.144 360.685L341.399 372.695L357.654 360.685L373.91 372.695L390.165 360.685L406.42 372.695L422.681 360.685L438.936 372.695L455.191 360.685L471.446 372.695L487.701 360.685L503.962 372.695L520.217 360.685L536.478 372.695L552.739 360.685L569 372.695M-195 252.485L-178.751 264.495L-162.496 252.485L-146.24 264.495L-129.985 252.485L-113.736 264.495L-97.4808 252.485L-81.2257 264.495L-64.9706 252.485L-48.7154 264.495L-32.4603 252.485L-16.211 264.495L0.0441635 252.485L16.2993 264.495L32.5602 252.485L48.8153 264.495L65.0705 252.485L81.3256 264.495L97.5807 252.485L113.836 264.495M113.836 264.495L130.097 252.485L146.352 264.495L162.607 252.485L178.862 264.495L195.117 252.485L211.378 264.495L227.633 252.485L243.894 264.495L260.155 252.485L276.416 264.495M113.836 264.495L97.584 252.485M113.836 264.495L130.088 252.485L146.344 264.495L162.599 252.485L178.848 264.495L195.103 252.485L211.358 264.495L227.613 252.485L243.869 264.495L260.124 252.485L276.373 264.495L292.628 252.485L308.883 264.495L325.144 252.485L341.399 264.495L357.654 252.485L373.91 264.495L390.165 252.485L406.42 264.495L422.681 252.485L438.936 264.495L455.191 252.485L471.446 264.495L487.701 252.485L503.962 264.495L520.217 252.485L536.478 264.495L552.739 252.485L569 264.495M-195 456.82L-178.751 468.885L-162.496 456.82L-146.24 468.885L-129.985 456.82L-113.736 468.885L-97.4808 456.82L-81.2257 468.885L-64.9706 456.82L-48.7154 468.885L-32.4603 456.82L-16.211 468.885L0.0441635 456.82L16.2993 468.885L32.5602 456.82L48.8153 468.885L65.0705 456.82L81.3256 468.885L97.5807 456.82L113.836 468.885M113.836 468.885L130.097 456.82L146.352 468.885L162.607 456.82L178.862 468.885L195.117 456.82L211.378 468.885L227.633 456.82L243.894 468.885L260.155 456.82L276.416 468.885M113.836 468.885L97.584 456.82M113.836 468.885L130.088 456.82L146.344 468.885L162.599 456.82L178.848 468.885L195.103 456.82L211.358 468.885L227.613 456.82L243.869 468.885L260.124 456.82L276.373 468.885L292.628 456.82L308.883 468.885L325.144 456.82L341.399 468.885L357.654 456.82L373.91 468.885L390.165 456.82L406.42 468.885L422.681 456.82L438.936 468.885L455.191 456.82L471.446 468.885L487.701 456.82L503.962 468.885L520.217 456.82L536.478 468.885L552.739 456.82L569 468.885M-195 504.915L-178.751 516.98L-162.496 504.915L-146.24 516.98L-129.985 504.915L-113.736 516.98L-97.4808 504.915L-81.2257 516.98L-64.9706 504.915L-48.7154 516.98L-32.4603 504.915L-16.211 516.98L0.0441635 504.915L16.2993 516.98L32.5602 504.915L48.8153 516.98L65.0705 504.915L81.3256 516.98L97.5807 504.915L113.836 516.98M113.836 516.98L130.097 504.915L146.352 516.98L162.607 504.915L178.862 516.98L195.117 504.915L211.378 516.98L227.633 504.915L243.894 516.98L260.155 504.915L276.416 516.98M113.836 516.98L97.584 504.915M113.836 516.98L130.088 504.915L146.344 516.98L162.599 504.915L178.848 516.98L195.103 504.915L211.358 516.98L227.613 504.915L243.869 516.98L260.124 504.915L276.373 516.98L292.628 504.915L308.883 516.98L325.144 504.915L341.399 516.98L357.654 504.915L373.91 516.98L390.165 504.915L406.42 516.98L422.681 504.915L438.936 516.98L455.191 504.915L471.446 516.98L487.701 504.915L503.962 516.98L520.217 504.915L536.478 516.98L552.739 504.915L569 516.98M-195 36.0849L-178.751 48.0951L-162.496 36.0849L-146.24 48.0951L-129.985 36.0849L-113.736 48.0951L-97.4808 36.0849L-81.2257 48.0951L-64.9706 36.0849L-48.7154 48.0951L-32.4603 36.0849L-16.211 48.0951L0.0441635 36.0849L16.2993 48.0951L32.5602 36.0849L48.8153 48.0951L65.0705 36.0849L81.3256 48.0951L97.5807 36.0849L113.836 48.0951M113.836 48.0951L130.097 36.0849L146.352 48.0951L162.607 36.0849L178.862 48.0951L195.117 36.0849L211.378 48.0951L227.633 36.0849L243.894 48.0951L260.155 36.0849L276.416 48.0951M113.836 48.0951L97.584 36.0849M113.836 48.0951L130.088 36.0849L146.344 48.0951L162.599 36.0849L178.848 48.0951L195.103 36.0849L211.358 48.0951L227.613 36.0849L243.869 48.0951L260.124 36.0849L276.373 48.0951L292.628 36.0849L308.883 48.0951L325.144 36.0849L341.399 48.0951L357.654 36.0849L373.91 48.0951L390.165 36.0849L406.42 48.0951L422.681 36.0849L438.936 48.0951L455.191 36.0849L471.446 48.0951L487.701 36.0849L503.962 48.0951L520.217 36.0849L536.478 48.0951L552.739 36.0849L569 48.0951M-195 132.22L-178.751 144.285L-162.496 132.22L-146.24 144.285L-129.985 132.22L-113.736 144.285L-97.4808 132.22L-81.2257 144.285L-64.9706 132.22L-48.7154 144.285L-32.4603 132.22L-16.211 144.285L0.0441635 132.22L16.2993 144.285L32.5602 132.22L48.8153 144.285L65.0705 132.22L81.3256 144.285L97.5807 132.22L113.836 144.285M113.836 144.285L130.097 132.22L146.352 144.285L162.607 132.22L178.862 144.285L195.117 132.22L211.378 144.285L227.633 132.22L243.894 144.285L260.155 132.22L276.416 144.285M113.836 144.285L97.584 132.22M113.836 144.285L130.088 132.22L146.344 144.285L162.599 132.22L178.848 144.285L195.103 132.22L211.358 144.285L227.613 132.22L243.869 144.285L260.124 132.22L276.373 144.285L292.628 132.22L308.883 144.285L325.144 132.22L341.399 144.285L357.654 132.22L373.91 144.285L390.165 132.22L406.42 144.285L422.681 132.22L438.936 144.285L455.191 132.22L471.446 144.285L487.701 132.22L503.962 144.285L520.217 132.22L536.478 144.285L552.739 132.22L569 144.285M-195 336.61L-178.751 348.62L-162.496 336.61L-146.24 348.62L-129.985 336.61L-113.736 348.62L-97.4808 336.61L-81.2257 348.62L-64.9706 336.61L-48.7154 348.62L-32.4603 336.61L-16.211 348.62L0.0441635 336.61L16.2993 348.62L32.5602 336.61L48.8153 348.62L65.0705 336.61L81.3256 348.62L97.5807 336.61L113.836 348.62M113.836 348.62L130.097 336.61L146.352 348.62L162.607 336.61L178.862 348.62L195.117 336.61L211.378 348.62L227.633 336.61L243.894 348.62L260.155 336.61L276.416 348.62M113.836 348.62L97.584 336.61M113.836 348.62L130.088 336.61L146.344 348.62L162.599 336.61L178.848 348.62L195.103 336.61L211.358 348.62L227.613 336.61L243.869 348.62L260.124 336.61L276.373 348.62L292.628 336.61L308.883 348.62L325.144 336.61L341.399 348.62L357.654 336.61L373.91 348.62L390.165 336.61L406.42 348.62L422.681 336.61L438.936 348.62L455.191 336.61L471.446 348.62L487.701 336.61L503.962 348.62L520.217 336.61L536.478 348.62L552.739 336.61L569 348.62M-195 228.411L-178.751 240.421L-162.496 228.411L-146.24 240.421L-129.985 228.411L-113.736 240.421L-97.4808 228.411L-81.2257 240.421L-64.9706 228.411L-48.7154 240.421L-32.4603 228.411L-16.211 240.421L0.0441635 228.411L16.2993 240.421L32.5602 228.411L48.8153 240.421L65.0705 228.411L81.3256 240.421L97.5807 228.411L113.836 240.421M113.836 240.421L130.097 228.411L146.352 240.421L162.607 228.411L178.862 240.421L195.117 228.411L211.378 240.421L227.633 228.411L243.894 240.421L260.155 228.411L276.416 240.421M113.836 240.421L97.584 228.411M113.836 240.421L130.088 228.411L146.344 240.421L162.599 228.411L178.848 240.421L195.103 228.411L211.358 240.421L227.613 228.411L243.869 240.421L260.124 228.411L276.373 240.421L292.628 228.411L308.883 240.421L325.144 228.411L341.399 240.421L357.654 228.411L373.91 240.421L390.165 228.411L406.42 240.421L422.681 228.411L438.936 240.421L455.191 228.411L471.446 240.421L487.701 228.411L503.962 240.421L520.217 228.411L536.478 240.421L552.739 228.411L569 240.421M-195 432.8L-178.751 444.81L-162.496 432.8L-146.24 444.81L-129.985 432.8L-113.736 444.81L-97.4808 432.8L-81.2257 444.81L-64.9706 432.8L-48.7154 444.81L-32.4603 432.8L-16.211 444.81L0.0441635 432.8L16.2993 444.81L32.5602 432.8L48.8153 444.81L65.0705 432.8L81.3256 444.81L97.5807 432.8L113.836 444.81M113.836 444.81L130.097 432.8L146.352 444.81L162.607 432.8L178.862 444.81L195.117 432.8L211.378 444.81L227.633 432.8L243.894 444.81L260.155 432.8L276.416 444.81M113.836 444.81L97.584 432.8M113.836 444.81L130.088 432.8L146.344 444.81L162.599 432.8L178.848 444.81L195.103 432.8L211.358 444.81L227.613 432.8L243.869 444.81L260.124 432.8L276.373 444.81L292.628 432.8L308.883 444.81L325.144 432.8L341.399 444.81L357.654 432.8L373.91 444.81L390.165 432.8L406.42 444.81L422.681 432.8L438.936 444.81L455.191 432.8L471.446 444.81L487.701 432.8L503.962 444.81L520.217 432.8L536.478 444.81L552.739 432.8L569 444.81M-195 84.1796L-178.751 96.1898L-162.496 84.1796L-146.24 96.1898L-129.985 84.1796L-113.736 96.1898L-97.4808 84.1796L-81.2257 96.1898L-64.9706 84.1796L-48.7154 96.1898L-32.4603 84.1796L-16.211 96.1898L0.0441635 84.1796L16.2993 96.1898L32.5602 84.1796L48.8153 96.1898L65.0705 84.1796L81.3256 96.1898L97.5807 84.1796L113.836 96.1898M113.836 96.1898L130.097 84.1796L146.352 96.1898L162.607 84.1796L178.862 96.1898L195.117 84.1796L211.378 96.1898L227.633 84.1796L243.894 96.1898L260.155 84.1796L276.416 96.1898M113.836 96.1898L97.584 84.1796M113.836 96.1898L130.088 84.1796L146.344 96.1898L162.599 84.1796L178.848 96.1898L195.103 84.1796L211.358 96.1898L227.613 84.1796L243.869 96.1898L260.124 84.1796L276.373 96.1898L292.628 84.1796L308.883 96.1898L325.144 84.1796L341.399 96.1898L357.654 84.1796L373.91 96.1898L390.165 84.1796L406.42 96.1898L422.681 84.1796L438.936 96.1898L455.191 84.1796L471.446 96.1898L487.701 84.1796L503.962 96.1898L520.217 84.1796L536.478 96.1898L552.739 84.1796L569 96.1898M-195 288.515L-178.751 300.58L-162.496 288.515L-146.24 300.58L-129.985 288.515L-113.736 300.58L-97.4808 288.515L-81.2257 300.58L-64.9706 288.515L-48.7154 300.58L-32.4603 288.515L-16.211 300.58L0.0441635 288.515L16.2993 300.58L32.5602 288.515L48.8153 300.58L65.0705 288.515L81.3256 300.58L97.5807 288.515L113.836 300.58M113.836 300.58L130.097 288.515L146.352 300.58L162.607 288.515L178.862 300.58L195.117 288.515L211.378 300.58L227.633 288.515L243.894 300.58L260.155 288.515L276.416 300.58M113.836 300.58L97.584 288.515M113.836 300.58L130.088 288.515L146.344 300.58L162.599 288.515L178.848 300.58L195.103 288.515L211.358 300.58L227.613 288.515L243.869 300.58L260.124 288.515L276.373 300.58L292.628 288.515L308.883 300.58L325.144 288.515L341.399 300.58L357.654 288.515L373.91 300.58L390.165 288.515L406.42 300.58L422.681 288.515L438.936 300.58L455.191 288.515L471.446 300.58L487.701 288.515L503.962 300.58L520.217 288.515L536.478 300.58L552.739 288.515L569 300.58M-195 180.316L-178.751 192.38L-162.496 180.316L-146.24 192.38L-129.985 180.316L-113.736 192.38L-97.4808 180.316L-81.2257 192.38L-64.9706 180.316L-48.7154 192.38L-32.4603 180.316L-16.211 192.38L0.0441635 180.316L16.2993 192.38L32.5602 180.316L48.8153 192.38L65.0705 180.316L81.3256 192.38L97.5807 180.316L113.836 192.38M113.836 192.38L130.097 180.316L146.352 192.38L162.607 180.316L178.862 192.38L195.117 180.316L211.378 192.38L227.633 180.316L243.894 192.38L260.155 180.316L276.416 192.38M113.836 192.38L97.584 180.316M113.836 192.38L130.088 180.316L146.344 192.38L162.599 180.316L178.848 192.38L195.103 180.316L211.358 192.38L227.613 180.316L243.869 192.38L260.124 180.316L276.373 192.38L292.628 180.316L308.883 192.38L325.144 180.316L341.399 192.38L357.654 180.316L373.91 192.38L390.165 180.316L406.42 192.38L422.681 180.316L438.936 192.38L455.191 180.316L471.446 192.38L487.701 180.316L503.962 192.38L520.217 180.316L536.478 192.38L552.739 180.316L569 192.38M-195 384.705L-178.751 396.715L-162.496 384.705L-146.24 396.715L-129.985 384.705L-113.736 396.715L-97.4808 384.705L-81.2257 396.715L-64.9706 384.705L-48.7154 396.715L-32.4603 384.705L-16.211 396.715L0.0441635 384.705L16.2993 396.715L32.5602 384.705L48.8153 396.715L65.0705 384.705L81.3256 396.715L97.5807 384.705L113.836 396.715M113.836 396.715L130.097 384.705L146.352 396.715L162.607 384.705L178.862 396.715L195.117 384.705L211.378 396.715L227.633 384.705L243.894 396.715L260.155 384.705L276.416 396.715M113.836 396.715L97.584 384.705M113.836 396.715L130.088 384.705L146.344 396.715L162.599 384.705L178.848 396.715L195.103 384.705L211.358 396.715L227.613 384.705L243.869 396.715L260.124 384.705L276.373 396.715L292.628 384.705L308.883 396.715L325.144 384.705L341.399 396.715L357.654 384.705L373.91 396.715L390.165 384.705L406.42 396.715L422.681 384.705L438.936 396.715L455.191 384.705L471.446 396.715L487.701 384.705L503.962 396.715L520.217 384.705L536.478 396.715L552.739 384.705L569 396.715M-195 276.505L-178.751 288.515L-162.496 276.505L-146.24 288.515L-129.985 276.505L-113.736 288.515L-97.4808 276.505L-81.2257 288.515L-64.9706 276.505L-48.7154 288.515L-32.4603 276.505L-16.211 288.515L0.0441635 276.505L16.2993 288.515L32.5602 276.505L48.8153 288.515L65.0705 276.505L81.3256 288.515L97.5807 276.505L113.836 288.515M113.836 288.515L130.097 276.505L146.352 288.515L162.607 276.505L178.862 288.515L195.117 276.505L211.378 288.515L227.633 276.505L243.894 288.515L260.155 276.505L276.416 288.515M113.836 288.515L97.584 276.505M113.836 288.515L130.088 276.505L146.344 288.515L162.599 276.505L178.848 288.515L195.103 276.505L211.358 288.515L227.613 276.505L243.869 288.515L260.124 276.505L276.373 288.515L292.628 276.505L308.883 288.515L325.144 276.505L341.399 288.515L357.654 276.505L373.91 288.515L390.165 276.505L406.42 288.515L422.681 276.505L438.936 288.515L455.191 276.505L471.446 288.515L487.701 276.505L503.962 288.515L520.217 276.505L536.478 288.515L552.739 276.505L569 288.515M-195 480.895L-178.751 492.905L-162.496 480.895L-146.24 492.905L-129.985 480.895L-113.736 492.905L-97.4808 480.895L-81.2257 492.905L-64.9706 480.895L-48.7154 492.905L-32.4603 480.895L-16.211 492.905L0.0441635 480.895L16.2993 492.905L32.5602 480.895L48.8153 492.905L65.0705 480.895L81.3256 492.905L97.5807 480.895L113.836 492.905M113.836 492.905L130.097 480.895L146.352 492.905L162.607 480.895L178.862 492.905L195.117 480.895L211.378 492.905L227.633 480.895L243.894 492.905L260.155 480.895L276.416 492.905M113.836 492.905L97.584 480.895M113.836 492.905L130.088 480.895L146.344 492.905L162.599 480.895L178.848 492.905L195.103 480.895L211.358 492.905L227.613 480.895L243.869 492.905L260.124 480.895L276.373 492.905L292.628 480.895L308.883 492.905L325.144 480.895L341.399 492.905L357.654 480.895L373.91 492.905L390.165 480.895L406.42 492.905L422.681 480.895L438.936 492.905L455.191 480.895L471.446 492.905L487.701 480.895L503.962 492.905L520.217 480.895L536.478 492.905L552.739 480.895L569 492.905M-195 528.99L-178.751 541L-162.496 528.99L-146.24 541L-129.985 528.99L-113.736 541L-97.4808 528.99L-81.2257 541L-64.9706 528.99L-48.7154 541L-32.4603 528.99L-16.211 541L0.0441635 528.99L16.2993 541L32.5602 528.99L48.8153 541L65.0705 528.99L81.3256 541L97.5807 528.99L113.836 541M113.836 541L130.097 528.99L146.352 541L162.607 528.99L178.862 541L195.117 528.99L211.378 541L227.633 528.99L243.894 541L260.155 528.99L276.416 541M113.836 541L97.584 528.99M113.836 541L130.088 528.99L146.344 541L162.599 528.99L178.848 541L195.103 528.99L211.358 541L227.613 528.99L243.869 541L260.124 528.99L276.373 541L292.628 528.99L308.883 541L325.144 528.99L341.399 541L357.654 528.99L373.91 541L390.165 528.99L406.42 541L422.681 528.99L438.936 541L455.191 528.99L471.446 541L487.701 528.99L503.962 541L520.217 528.99L536.478 541L552.739 528.99L569 541" stroke="white" stroke-opacity="0.14" stroke-width="2" stroke-miterlimit="10" stroke-linecap="round"/>
</g>
<defs>
<clipPath id="clip0_712_17316">
<rect width="375" height="300" fill="white"/>
</clipPath>
</defs>
</svg>
