<svg width="22" height="22" viewBox="0 0 22 22" fill="none" xmlns="http://www.w3.org/2000/svg">
<path d="M20.9312 18.9362V11.0462C20.9312 5.4462 16.4312 0.866211 10.9312 0.866211C5.43121 0.866211 0.931213 5.4462 0.931213 11.0462V18.9362C0.931213 20.1962 1.6812 20.5362 2.6012 19.6962L3.6012 18.7862C3.9712 18.4462 4.57122 18.4462 4.94122 18.7862L6.94122 20.6162C7.31122 20.9562 7.91119 20.9562 8.28119 20.6162L10.2812 18.7862C10.6512 18.4462 11.2512 18.4462 11.6212 18.7862L13.6212 20.6162C13.9912 20.9562 14.5912 20.9562 14.9612 20.6162L16.9612 18.7862C17.3312 18.4462 17.9312 18.4462 18.3012 18.7862L19.3012 19.6962C20.1812 20.5362 20.9312 20.1962 20.9312 18.9362Z" stroke="#A9B1C6" stroke-width="1.5" stroke-linecap="round" stroke-linejoin="round"/>
</svg>
