<svg width="16" height="16" viewBox="0 0 16 16" fill="none" xmlns="http://www.w3.org/2000/svg">
<mask id="mask0_712_38327" style="mask-type:luminance" maskUnits="userSpaceOnUse" x="0" y="0" width="16" height="16">
<path d="M15.4539 6.54545H7.99969V9.63636H12.2904C11.8904 11.6 10.2178 12.7273 7.99969 12.7273C5.38161 12.7273 3.2726 10.6182 3.2726 8C3.2726 5.38182 5.38161 3.27273 7.99969 3.27273C9.12692 3.27273 10.1451 3.67274 10.945 4.32728L13.2722 2C11.8541 0.763636 10.036 0 7.99969 0C3.5635 0 0 3.56364 0 8C0 12.4364 3.5635 16 7.99969 16C11.9995 16 15.6358 13.0909 15.6358 8C15.6358 7.52727 15.563 7.01818 15.4539 6.54545Z" fill="white"/>
</mask>
<g mask="url(#mask0_712_38327)">
<path d="M-0.727417 12.726V3.27148L5.45416 7.99876L-0.727417 12.726Z" fill="#FBBC05"/>
</g>
<mask id="mask1_712_38327" style="mask-type:luminance" maskUnits="userSpaceOnUse" x="0" y="0" width="16" height="16">
<path d="M15.4539 6.54545H7.99969V9.63636H12.2904C11.8904 11.6 10.2178 12.7273 7.99969 12.7273C5.38161 12.7273 3.2726 10.6182 3.2726 8C3.2726 5.38182 5.38161 3.27273 7.99969 3.27273C9.12692 3.27273 10.1451 3.67274 10.945 4.32728L13.2722 2C11.8541 0.763636 10.036 0 7.99969 0C3.5635 0 0 3.56364 0 8C0 12.4364 3.5635 16 7.99969 16C11.9995 16 15.6358 13.0909 15.6358 8C15.6358 7.52727 15.563 7.01818 15.4539 6.54545Z" fill="white"/>
</mask>
<g mask="url(#mask1_712_38327)">
<path d="M-0.727417 3.27148L5.45416 7.99876L7.99952 5.78058L16.7265 4.36239V-0.728516H-0.727417V3.27148Z" fill="#EA4335"/>
</g>
<mask id="mask2_712_38327" style="mask-type:luminance" maskUnits="userSpaceOnUse" x="0" y="0" width="16" height="16">
<path d="M15.4539 6.54545H7.99969V9.63636H12.2904C11.8904 11.6 10.2178 12.7273 7.99969 12.7273C5.38161 12.7273 3.2726 10.6182 3.2726 8C3.2726 5.38182 5.38161 3.27273 7.99969 3.27273C9.12692 3.27273 10.1451 3.67274 10.945 4.32728L13.2722 2C11.8541 0.763636 10.036 0 7.99969 0C3.5635 0 0 3.56364 0 8C0 12.4364 3.5635 16 7.99969 16C11.9995 16 15.6358 13.0909 15.6358 8C15.6358 7.52727 15.563 7.01818 15.4539 6.54545Z" fill="white"/>
</mask>
<g mask="url(#mask2_712_38327)">
<path d="M-0.727417 12.726L10.1813 4.36239L13.0539 4.72603L16.7265 -0.728516V16.726H-0.727417V12.726Z" fill="#34A853"/>
</g>
<mask id="mask3_712_38327" style="mask-type:luminance" maskUnits="userSpaceOnUse" x="0" y="0" width="16" height="16">
<path d="M15.4539 6.54545H7.99969V9.63636H12.2904C11.8904 11.6 10.2178 12.7273 7.99969 12.7273C5.38161 12.7273 3.2726 10.6182 3.2726 8C3.2726 5.38182 5.38161 3.27273 7.99969 3.27273C9.12692 3.27273 10.1451 3.67274 10.945 4.32728L13.2722 2C11.8541 0.763636 10.036 0 7.99969 0C3.5635 0 0 3.56364 0 8C0 12.4364 3.5635 16 7.99969 16C11.9995 16 15.6358 13.0909 15.6358 8C15.6358 7.52727 15.563 7.01818 15.4539 6.54545Z" fill="white"/>
</mask>
<g mask="url(#mask3_712_38327)">
<path d="M16.7265 16.726L5.45425 7.99876L3.99976 6.90785L16.7265 3.27148V16.726Z" fill="#4285F4"/>
</g>
</svg>
