<svg width="28" height="28" viewBox="0 0 28 28" fill="none" xmlns="http://www.w3.org/2000/svg">
<path d="M23.3801 7.9567L16.6601 3.25503C14.8284 1.9717 12.0168 2.0417 10.2551 3.4067L4.41011 7.96836C3.24344 8.87836 2.32178 10.745 2.32178 12.215V20.265C2.32178 23.24 4.73678 25.6667 7.71178 25.6667H20.2884C23.2634 25.6667 25.6784 23.2517 25.6784 20.2767V12.3667C25.6784 10.7917 24.6634 8.85503 23.3801 7.9567ZM14.8751 21C14.8751 21.4784 14.4784 21.875 14.0001 21.875C13.5218 21.875 13.1251 21.4784 13.1251 21V17.5C13.1251 17.0217 13.5218 16.625 14.0001 16.625C14.4784 16.625 14.8751 17.0217 14.8751 17.5V21Z" fill="#DADEE7"/>
</svg>
