<svg width="375" height="300" viewBox="0 0 375 300" fill="none" xmlns="http://www.w3.org/2000/svg">
<g clip-path="url(#clip0_712_17357)">
<path d="M250.042 176.817C250.042 196.37 234.211 212.219 214.685 212.219C195.158 212.219 179.327 196.37 179.327 176.817C179.327 157.265 195.158 141.416 214.685 141.416C234.211 141.416 250.042 157.265 250.042 176.817Z" stroke="white" stroke-opacity="0.14" stroke-width="2"/>
<circle cx="214.685" cy="285.313" r="35.3577" stroke="white" stroke-opacity="0.14" stroke-width="2"/>
<circle cx="214.685" cy="68.3069" r="35.3577" stroke="white" stroke-opacity="0.14" stroke-width="2"/>
<circle cx="214.685" cy="231.082" r="35.3577" stroke="white" stroke-opacity="0.14" stroke-width="2"/>
<circle cx="214.685" cy="14.0764" r="35.3577" stroke="white" stroke-opacity="0.14" stroke-width="2"/>
<circle cx="214.685" cy="122.535" r="35.3577" stroke="white" stroke-opacity="0.14" stroke-width="2"/>
<path d="M31.7219 176.948C31.7219 196.476 15.9101 212.305 -3.59218 212.305C-23.0945 212.305 -38.9062 196.476 -38.9062 176.948C-38.9062 157.419 -23.0945 141.59 -3.59218 141.59C15.9101 141.59 31.7219 157.419 31.7219 176.948Z" stroke="white" stroke-opacity="0.14" stroke-width="2"/>
<path d="M31.7219 285.406C31.7219 304.935 15.9101 320.764 -3.59218 320.764C-23.0945 320.764 -38.9062 304.935 -38.9062 285.406C-38.9062 265.878 -23.0945 250.049 -3.59218 250.049C15.9101 250.049 31.7219 265.878 31.7219 285.406Z" stroke="white" stroke-opacity="0.14" stroke-width="2"/>
<path d="M31.7219 68.3948C31.7219 87.9234 15.9101 103.752 -3.59218 103.752C-23.0945 103.752 -38.9062 87.9234 -38.9062 68.3948C-38.9062 48.8661 -23.0945 33.0371 -3.59218 33.0371C15.9101 33.0371 31.7219 48.8661 31.7219 68.3948Z" stroke="white" stroke-opacity="0.14" stroke-width="2"/>
<path d="M31.7219 231.17C31.7219 250.699 15.9101 266.528 -3.59218 266.528C-23.0945 266.528 -38.9062 250.699 -38.9062 231.17C-38.9062 211.642 -23.0945 195.812 -3.59218 195.812C15.9101 195.812 31.7219 211.642 31.7219 231.17Z" stroke="white" stroke-opacity="0.14" stroke-width="2"/>
<path d="M31.7219 14.1565C31.7219 33.6851 15.9101 49.5142 -3.59218 49.5142C-23.0945 49.5142 -38.9062 33.6851 -38.9062 14.1565C-38.9062 -5.37214 -23.0945 -21.2012 -3.59218 -21.2012C15.9101 -21.2012 31.7219 -5.37214 31.7219 14.1565Z" stroke="white" stroke-opacity="0.14" stroke-width="2"/>
<path d="M31.7219 122.659C31.7219 142.213 15.909 158.06 -3.59218 158.06C-23.0933 158.06 -38.9062 142.213 -38.9062 122.659C-38.9062 103.105 -23.0933 87.2578 -3.59218 87.2578C15.909 87.2578 31.7219 103.105 31.7219 122.659Z" stroke="white" stroke-opacity="0.14" stroke-width="2"/>
<path d="M359.029 176.817C359.029 196.372 343.234 212.219 323.758 212.219C304.282 212.219 288.488 196.372 288.488 176.817C288.488 157.262 304.282 141.416 323.758 141.416C343.234 141.416 359.029 157.262 359.029 176.817Z" stroke="white" stroke-opacity="0.14" stroke-width="2"/>
<path d="M359.029 285.313C359.029 304.843 343.235 320.67 323.758 320.67C304.281 320.67 288.488 304.843 288.488 285.313C288.488 265.783 304.281 249.955 323.758 249.955C343.235 249.955 359.029 265.783 359.029 285.313Z" stroke="white" stroke-opacity="0.14" stroke-width="2"/>
<path d="M359.029 68.3069C359.029 87.8366 343.235 103.665 323.758 103.665C304.281 103.665 288.488 87.8366 288.488 68.3069C288.488 48.7771 304.281 32.9492 323.758 32.9492C343.235 32.9492 359.029 48.7771 359.029 68.3069Z" stroke="white" stroke-opacity="0.14" stroke-width="2"/>
<path d="M359.029 231.082C359.029 250.612 343.235 266.44 323.758 266.44C304.281 266.44 288.488 250.612 288.488 231.082C288.488 211.553 304.281 195.725 323.758 195.725C343.235 195.725 359.029 211.553 359.029 231.082Z" stroke="white" stroke-opacity="0.14" stroke-width="2"/>
<path d="M359.029 14.0764C359.029 33.6062 343.235 49.4341 323.758 49.4341C304.281 49.4341 288.488 33.6062 288.488 14.0764C288.488 -5.45335 304.281 -21.2812 323.758 -21.2812C343.235 -21.2812 359.029 -5.45335 359.029 14.0764Z" stroke="white" stroke-opacity="0.14" stroke-width="2"/>
<path d="M359.029 122.535C359.029 142.065 343.235 157.893 323.758 157.893C304.281 157.893 288.488 142.065 288.488 122.535C288.488 103.006 304.281 87.1777 323.758 87.1777C343.235 87.1777 359.029 103.006 359.029 122.535Z" stroke="white" stroke-opacity="0.14" stroke-width="2"/>
<circle cx="105.524" cy="176.948" r="35.3577" stroke="white" stroke-opacity="0.14" stroke-width="2"/>
<circle cx="105.525" cy="285.406" r="35.3577" stroke="white" stroke-opacity="0.14" stroke-width="2"/>
<circle cx="105.525" cy="68.3948" r="35.3577" stroke="white" stroke-opacity="0.14" stroke-width="2"/>
<circle cx="105.525" cy="231.17" r="35.3577" stroke="white" stroke-opacity="0.14" stroke-width="2"/>
<circle cx="105.525" cy="14.1565" r="35.3577" stroke="white" stroke-opacity="0.14" stroke-width="2"/>
<path d="M140.883 122.659C140.883 142.212 125.052 158.06 105.525 158.06C85.9988 158.06 70.1675 142.212 70.1675 122.659C70.1675 103.106 85.9988 87.2578 105.525 87.2578C125.052 87.2578 140.883 103.106 140.883 122.659Z" stroke="white" stroke-opacity="0.14" stroke-width="2"/>
<path d="M304.535 176.817C304.535 196.371 288.722 212.219 269.221 212.219C249.72 212.219 233.907 196.371 233.907 176.817C233.907 157.263 249.72 141.416 269.221 141.416C288.722 141.416 304.535 157.263 304.535 176.817Z" stroke="white" stroke-opacity="0.14" stroke-width="2"/>
<path d="M304.535 285.313C304.535 304.841 288.723 320.67 269.221 320.67C249.719 320.67 233.907 304.841 233.907 285.313C233.907 265.784 249.719 249.955 269.221 249.955C288.723 249.955 304.535 265.784 304.535 285.313Z" stroke="white" stroke-opacity="0.14" stroke-width="2"/>
<path d="M304.535 68.3069C304.535 87.8355 288.723 103.665 269.221 103.665C249.719 103.665 233.907 87.8355 233.907 68.3069C233.907 48.7783 249.719 32.9492 269.221 32.9492C288.723 32.9492 304.535 48.7783 304.535 68.3069Z" stroke="white" stroke-opacity="0.14" stroke-width="2"/>
<path d="M304.535 231.082C304.535 250.611 288.723 266.44 269.221 266.44C249.719 266.44 233.907 250.611 233.907 231.082C233.907 211.554 249.719 195.725 269.221 195.725C288.723 195.725 304.535 211.554 304.535 231.082Z" stroke="white" stroke-opacity="0.14" stroke-width="2"/>
<path d="M304.535 14.0764C304.535 33.605 288.723 49.4341 269.221 49.4341C249.719 49.4341 233.907 33.605 233.907 14.0764C233.907 -5.45222 249.719 -21.2812 269.221 -21.2812C288.723 -21.2812 304.535 -5.45222 304.535 14.0764Z" stroke="white" stroke-opacity="0.14" stroke-width="2"/>
<path d="M304.535 122.535C304.535 142.064 288.723 157.893 269.221 157.893C249.719 157.893 233.907 142.064 233.907 122.535C233.907 103.007 249.719 87.1777 269.221 87.1777C288.723 87.1777 304.535 103.007 304.535 122.535Z" stroke="white" stroke-opacity="0.14" stroke-width="2"/>
<path d="M86.2136 176.948C86.2136 196.476 70.4018 212.305 50.8995 212.305C31.3972 212.305 15.5854 196.476 15.5854 176.948C15.5854 157.419 31.3972 141.59 50.8995 141.59C70.4018 141.59 86.2136 157.419 86.2136 176.948Z" stroke="white" stroke-opacity="0.14" stroke-width="2"/>
<path d="M86.2136 285.406C86.2136 304.935 70.4018 320.764 50.8995 320.764C31.3972 320.764 15.5854 304.935 15.5854 285.406C15.5854 265.878 31.3972 250.049 50.8995 250.049C70.4018 250.049 86.2136 265.878 86.2136 285.406Z" stroke="white" stroke-opacity="0.14" stroke-width="2"/>
<path d="M86.2136 68.3948C86.2136 87.9234 70.4018 103.752 50.8995 103.752C31.3972 103.752 15.5854 87.9234 15.5854 68.3948C15.5854 48.8661 31.3972 33.0371 50.8995 33.0371C70.4018 33.0371 86.2136 48.8661 86.2136 68.3948Z" stroke="white" stroke-opacity="0.14" stroke-width="2"/>
<path d="M86.2136 231.17C86.2136 250.699 70.4018 266.528 50.8995 266.528C31.3972 266.528 15.5854 250.699 15.5854 231.17C15.5854 211.642 31.3972 195.812 50.8995 195.812C70.4018 195.812 86.2136 211.642 86.2136 231.17Z" stroke="white" stroke-opacity="0.14" stroke-width="2"/>
<path d="M86.2136 14.1565C86.2136 33.6851 70.4018 49.5142 50.8995 49.5142C31.3972 49.5142 15.5854 33.6851 15.5854 14.1565C15.5854 -5.37214 31.3972 -21.2012 50.8995 -21.2012C70.4018 -21.2012 86.2136 -5.37214 86.2136 14.1565Z" stroke="white" stroke-opacity="0.14" stroke-width="2"/>
<path d="M86.2136 122.659C86.2136 142.213 70.4007 158.06 50.8995 158.06C31.3984 158.06 15.5854 142.213 15.5854 122.659C15.5854 103.105 31.3984 87.2578 50.8995 87.2578C70.4007 87.2578 86.2136 103.105 86.2136 122.659Z" stroke="white" stroke-opacity="0.14" stroke-width="2"/>
<path d="M413.695 176.817C413.695 196.372 397.901 212.219 378.425 212.219C358.949 212.219 343.154 196.372 343.154 176.817C343.154 157.262 358.949 141.416 378.425 141.416C397.901 141.416 413.695 157.262 413.695 176.817Z" stroke="white" stroke-opacity="0.14" stroke-width="2"/>
<path d="M413.695 285.313C413.695 304.843 397.902 320.67 378.425 320.67C358.948 320.67 343.154 304.843 343.154 285.313C343.154 265.783 358.948 249.955 378.425 249.955C397.902 249.955 413.695 265.783 413.695 285.313Z" stroke="white" stroke-opacity="0.14" stroke-width="2"/>
<path d="M413.695 68.3069C413.695 87.8366 397.902 103.665 378.425 103.665C358.948 103.665 343.154 87.8366 343.154 68.3069C343.154 48.7771 358.948 32.9492 378.425 32.9492C397.902 32.9492 413.695 48.7771 413.695 68.3069Z" stroke="white" stroke-opacity="0.14" stroke-width="2"/>
<path d="M413.695 231.082C413.695 250.612 397.902 266.44 378.425 266.44C358.948 266.44 343.154 250.612 343.154 231.082C343.154 211.553 358.948 195.725 378.425 195.725C397.902 195.725 413.695 211.553 413.695 231.082Z" stroke="white" stroke-opacity="0.14" stroke-width="2"/>
<path d="M413.695 14.0764C413.695 33.6062 397.902 49.4341 378.425 49.4341C358.948 49.4341 343.154 33.6062 343.154 14.0764C343.154 -5.45335 358.948 -21.2812 378.425 -21.2812C397.902 -21.2812 413.695 -5.45335 413.695 14.0764Z" stroke="white" stroke-opacity="0.14" stroke-width="2"/>
<path d="M413.695 122.535C413.695 142.065 397.902 157.893 378.425 157.893C358.948 157.893 343.154 142.065 343.154 122.535C343.154 103.006 358.948 87.1777 378.425 87.1777C397.902 87.1777 413.695 103.006 413.695 122.535Z" stroke="white" stroke-opacity="0.14" stroke-width="2"/>
<circle cx="160.193" cy="176.948" r="35.3577" stroke="white" stroke-opacity="0.14" stroke-width="2"/>
<circle cx="160.193" cy="285.406" r="35.3577" stroke="white" stroke-opacity="0.14" stroke-width="2"/>
<circle cx="160.193" cy="68.3948" r="35.3577" stroke="white" stroke-opacity="0.14" stroke-width="2"/>
<circle cx="160.193" cy="231.17" r="35.3577" stroke="white" stroke-opacity="0.14" stroke-width="2"/>
<circle cx="160.193" cy="14.1565" r="35.3577" stroke="white" stroke-opacity="0.14" stroke-width="2"/>
<path d="M195.55 122.659C195.55 142.212 179.719 158.06 160.193 158.06C140.666 158.06 124.835 142.212 124.835 122.659C124.835 103.106 140.666 87.2578 160.193 87.2578C179.719 87.2578 195.55 103.106 195.55 122.659Z" stroke="white" stroke-opacity="0.14" stroke-width="2"/>
</g>
<defs>
<clipPath id="clip0_712_17357">
<rect width="375" height="300" fill="white"/>
</clipPath>
</defs>
</svg>
