<svg width="375" height="300" viewBox="0 0 375 300" fill="none" xmlns="http://www.w3.org/2000/svg">
<g clip-path="url(#clip0_712_18002)">
<path d="M137.004 338.5L137.004 -36.4999" stroke="white" stroke-opacity="0.14" stroke-width="2"/>
<path d="M61.248 338.5L61.248 -36.4999" stroke="white" stroke-opacity="0.14" stroke-width="2"/>
<path d="M212.746 338.5L212.746 -36.4999" stroke="white" stroke-opacity="0.14" stroke-width="2"/>
<path d="M301.125 338.5L301.125 -36.4999" stroke="white" stroke-opacity="0.14" stroke-width="2"/>
<path d="M23.375 338.5L23.375 -36.4999" stroke="white" stroke-opacity="0.14" stroke-width="2"/>
<path d="M174.875 338.5L174.875 -36.4999" stroke="white" stroke-opacity="0.14" stroke-width="2"/>
<path d="M99.1289 338.5L99.1289 -36.4999" stroke="white" stroke-opacity="0.14" stroke-width="2"/>
<path d="M250.629 338.5L250.629 151L250.629 -36.4999" stroke="white" stroke-opacity="0.14" stroke-width="2"/>
<path d="M338.998 338.5L338.998 -36.4999" stroke="white" stroke-opacity="0.14" stroke-width="2"/>
<path d="M149.625 338.5L149.625 -36.4999" stroke="white" stroke-opacity="0.14" stroke-width="2"/>
<path d="M73.875 338.5L73.875 -36.4999" stroke="white" stroke-opacity="0.14" stroke-width="2"/>
<path d="M225.375 338.5L225.375 -36.4999" stroke="white" stroke-opacity="0.14" stroke-width="2"/>
<path d="M313.748 338.5L313.748 -36.4999" stroke="white" stroke-opacity="0.14" stroke-width="2"/>
<path d="M36 338.5L36 -36.4999" stroke="white" stroke-opacity="0.14" stroke-width="2"/>
<path d="M187.498 338.5L187.498 -36.4999" stroke="white" stroke-opacity="0.14" stroke-width="2"/>
<path d="M111.75 338.5L111.75 -36.4999" stroke="white" stroke-opacity="0.14" stroke-width="2"/>
<path d="M263.254 338.5L263.254 -36.4999" stroke="white" stroke-opacity="0.14" stroke-width="2"/>
<path d="M351.625 338.5L351.625 -36.4999" stroke="white" stroke-opacity="0.14" stroke-width="2"/>
<path d="M10.75 338.5L10.75 -36.4999" stroke="white" stroke-opacity="0.14" stroke-width="2"/>
<path d="M162.254 338.5L162.254 -36.4999" stroke="white" stroke-opacity="0.14" stroke-width="2"/>
<path d="M86.5 338.5L86.5 -36.4999" stroke="white" stroke-opacity="0.14" stroke-width="2"/>
<path d="M238.006 338.5L238.006 -36.4999" stroke="white" stroke-opacity="0.14" stroke-width="2"/>
<path d="M326.375 338.5L326.375 -36.4999" stroke="white" stroke-opacity="0.14" stroke-width="2"/>
<path d="M48.625 338.5L48.625 -36.4999" stroke="white" stroke-opacity="0.14" stroke-width="2"/>
<path d="M200.125 338.5L200.125 -36.4999" stroke="white" stroke-opacity="0.14" stroke-width="2"/>
<path d="M288.504 338.5L288.504 -36.4999" stroke="white" stroke-opacity="0.14" stroke-width="2"/>
<path d="M124.377 338.5L124.377 -36.4999" stroke="white" stroke-opacity="0.14" stroke-width="2"/>
<path d="M275.875 338.5L275.875 -36.4999" stroke="white" stroke-opacity="0.14" stroke-width="2"/>
<path d="M364.25 338.5L364.25 -36.4999" stroke="white" stroke-opacity="0.14" stroke-width="2"/>
</g>
<defs>
<clipPath id="clip0_712_18002">
<rect width="375" height="300" fill="white"/>
</clipPath>
</defs>
</svg>
