<svg width="375" height="300" viewBox="0 0 375 300" fill="none" xmlns="http://www.w3.org/2000/svg">
<g clip-path="url(#clip0_712_18149)">
<path d="M-235.334 -115.652L-237.667 -118L-240 -115.652L-237.667 -113.304L-235.334 -115.652Z" fill="white" fill-opacity="0.14"/>
<path d="M-206.004 -115.652L-208.338 -118L-210.671 -115.652L-208.338 -113.304L-206.004 -115.652Z" fill="white" fill-opacity="0.14"/>
<path d="M-176.675 -115.652L-179.008 -118L-181.342 -115.652L-179.008 -113.304L-176.675 -115.652Z" fill="white" fill-opacity="0.14"/>
<path d="M-147.346 -115.652L-149.679 -118L-152.012 -115.652L-149.679 -113.304L-147.346 -115.652Z" fill="white" fill-opacity="0.14"/>
<path d="M-118.017 -115.652L-120.35 -118L-122.683 -115.652L-120.35 -113.304L-118.017 -115.652Z" fill="white" fill-opacity="0.14"/>
<path d="M-88.6875 -115.652L-91.0206 -118L-93.3538 -115.652L-91.0206 -113.304L-88.6875 -115.652Z" fill="white" fill-opacity="0.14"/>
<path d="M-59.3582 -115.652L-61.6913 -118L-64.0245 -115.652L-61.6913 -113.304L-59.3582 -115.652Z" fill="white" fill-opacity="0.14"/>
<path d="M-30.0291 -115.652L-32.3623 -118L-34.6954 -115.652L-32.3623 -113.304L-30.0291 -115.652Z" fill="white" fill-opacity="0.14"/>
<path d="M-0.699783 -115.652L-3.03291 -118L-5.36603 -115.652L-3.03291 -113.304L-0.699783 -115.652Z" fill="white" fill-opacity="0.14"/>
<path d="M28.6296 -115.652L26.2965 -118L23.9634 -115.652L26.2965 -113.304L28.6296 -115.652Z" fill="white" fill-opacity="0.14"/>
<path d="M-235.334 -86.135L-237.667 -88.483L-240 -86.135L-237.667 -83.7869L-235.334 -86.135Z" fill="white" fill-opacity="0.14"/>
<path d="M-206.004 -86.135L-208.338 -88.483L-210.671 -86.135L-208.338 -83.7869L-206.004 -86.135Z" fill="white" fill-opacity="0.14"/>
<path d="M-176.675 -86.135L-179.008 -88.483L-181.342 -86.135L-179.008 -83.7869L-176.675 -86.135Z" fill="white" fill-opacity="0.14"/>
<path d="M-147.346 -86.135L-149.679 -88.483L-152.012 -86.135L-149.679 -83.7869L-147.346 -86.135Z" fill="white" fill-opacity="0.14"/>
<path d="M-118.017 -86.135L-120.35 -88.483L-122.683 -86.135L-120.35 -83.7869L-118.017 -86.135Z" fill="white" fill-opacity="0.14"/>
<path d="M-88.6875 -86.135L-91.0206 -88.483L-93.3538 -86.135L-91.0206 -83.7869L-88.6875 -86.135Z" fill="white" fill-opacity="0.14"/>
<path d="M-59.3582 -86.135L-61.6913 -88.483L-64.0245 -86.135L-61.6913 -83.7869L-59.3582 -86.135Z" fill="white" fill-opacity="0.14"/>
<path d="M-30.0291 -86.135L-32.3623 -88.483L-34.6954 -86.135L-32.3623 -83.7869L-30.0291 -86.135Z" fill="white" fill-opacity="0.14"/>
<path d="M-0.699783 -86.135L-3.03291 -88.483L-5.36603 -86.135L-3.03291 -83.7869L-0.699783 -86.135Z" fill="white" fill-opacity="0.14"/>
<path d="M28.6296 -86.135L26.2965 -88.483L23.9634 -86.135L26.2965 -83.7869L28.6296 -86.135Z" fill="white" fill-opacity="0.14"/>
<path d="M-235.334 -56.618L-237.667 -58.966L-240 -56.618L-237.667 -54.2699L-235.334 -56.618Z" fill="white" fill-opacity="0.14"/>
<path d="M-206.004 -56.618L-208.338 -58.966L-210.671 -56.618L-208.338 -54.2699L-206.004 -56.618Z" fill="white" fill-opacity="0.14"/>
<path d="M-176.675 -56.618L-179.008 -58.966L-181.342 -56.618L-179.008 -54.2699L-176.675 -56.618Z" fill="white" fill-opacity="0.14"/>
<path d="M-147.346 -56.618L-149.679 -58.966L-152.012 -56.618L-149.679 -54.2699L-147.346 -56.618Z" fill="white" fill-opacity="0.14"/>
<path d="M-118.017 -56.618L-120.35 -58.966L-122.683 -56.618L-120.35 -54.2699L-118.017 -56.618Z" fill="white" fill-opacity="0.14"/>
<path d="M-88.6875 -56.618L-91.0206 -58.966L-93.3538 -56.618L-91.0206 -54.2699L-88.6875 -56.618Z" fill="white" fill-opacity="0.14"/>
<path d="M-59.3582 -56.618L-61.6913 -58.966L-64.0245 -56.618L-61.6913 -54.2699L-59.3582 -56.618Z" fill="white" fill-opacity="0.14"/>
<path d="M-30.0291 -56.618L-32.3623 -58.966L-34.6954 -56.618L-32.3623 -54.2699L-30.0291 -56.618Z" fill="white" fill-opacity="0.14"/>
<path d="M-0.699783 -56.618L-3.03291 -58.966L-5.36603 -56.618L-3.03291 -54.2699L-0.699783 -56.618Z" fill="white" fill-opacity="0.14"/>
<path d="M28.6296 -56.618L26.2965 -58.966L23.9634 -56.618L26.2965 -54.2699L28.6296 -56.618Z" fill="white" fill-opacity="0.14"/>
<path d="M-235.334 -27.101L-237.667 -29.4491L-240 -27.101L-237.667 -24.753L-235.334 -27.101Z" fill="white" fill-opacity="0.14"/>
<path d="M-206.004 -27.101L-208.338 -29.4491L-210.671 -27.101L-208.338 -24.753L-206.004 -27.101Z" fill="white" fill-opacity="0.14"/>
<path d="M-176.675 -27.101L-179.008 -29.4491L-181.342 -27.101L-179.008 -24.753L-176.675 -27.101Z" fill="white" fill-opacity="0.14"/>
<path d="M-147.346 -27.101L-149.679 -29.4491L-152.012 -27.101L-149.679 -24.753L-147.346 -27.101Z" fill="white" fill-opacity="0.14"/>
<path d="M-118.017 -27.101L-120.35 -29.4491L-122.683 -27.101L-120.35 -24.753L-118.017 -27.101Z" fill="white" fill-opacity="0.14"/>
<path d="M-88.6875 -27.101L-91.0206 -29.4491L-93.3538 -27.101L-91.0206 -24.753L-88.6875 -27.101Z" fill="white" fill-opacity="0.14"/>
<path d="M-59.3582 -27.101L-61.6913 -29.4491L-64.0245 -27.101L-61.6913 -24.753L-59.3582 -27.101Z" fill="white" fill-opacity="0.14"/>
<path d="M-30.0291 -27.101L-32.3623 -29.4491L-34.6954 -27.101L-32.3623 -24.753L-30.0291 -27.101Z" fill="white" fill-opacity="0.14"/>
<path d="M-0.699783 -27.101L-3.03291 -29.4491L-5.36603 -27.101L-3.03291 -24.753L-0.699783 -27.101Z" fill="white" fill-opacity="0.14"/>
<path d="M28.6296 -27.101L26.2965 -29.4491L23.9634 -27.101L26.2965 -24.753L28.6296 -27.101Z" fill="white" fill-opacity="0.14"/>
<path d="M-235.334 2.41563L-237.667 0.0675735L-240 2.41563L-237.667 4.76369L-235.334 2.41563Z" fill="white" fill-opacity="0.14"/>
<path d="M-206.004 2.41563L-208.338 0.0675735L-210.671 2.41563L-208.338 4.76369L-206.004 2.41563Z" fill="white" fill-opacity="0.14"/>
<path d="M-176.675 2.41563L-179.008 0.0675735L-181.342 2.41563L-179.008 4.76369L-176.675 2.41563Z" fill="white" fill-opacity="0.14"/>
<path d="M-147.346 2.41563L-149.679 0.0675735L-152.012 2.41563L-149.679 4.76369L-147.346 2.41563Z" fill="white" fill-opacity="0.14"/>
<path d="M-118.017 2.41563L-120.35 0.0675735L-122.683 2.41563L-120.35 4.76369L-118.017 2.41563Z" fill="white" fill-opacity="0.14"/>
<path d="M-88.6875 2.41563L-91.0206 0.0675735L-93.3538 2.41563L-91.0206 4.76369L-88.6875 2.41563Z" fill="white" fill-opacity="0.14"/>
<path d="M-59.3582 2.41563L-61.6913 0.0675735L-64.0245 2.41563L-61.6913 4.76369L-59.3582 2.41563Z" fill="white" fill-opacity="0.14"/>
<path d="M-30.0291 2.41563L-32.3623 0.0675735L-34.6954 2.41563L-32.3623 4.76369L-30.0291 2.41563Z" fill="white" fill-opacity="0.14"/>
<path d="M-0.699783 2.41563L-3.03291 0.0675735L-5.36603 2.41563L-3.03291 4.76369L-0.699783 2.41563Z" fill="white" fill-opacity="0.14"/>
<path d="M28.6296 2.41563L26.2965 0.0675735L23.9634 2.41563L26.2965 4.76369L28.6296 2.41563Z" fill="white" fill-opacity="0.14"/>
<path d="M-235.334 31.9326L-237.667 29.5845L-240 31.9326L-237.667 34.2806L-235.334 31.9326Z" fill="white" fill-opacity="0.14"/>
<path d="M-206.004 31.9326L-208.338 29.5845L-210.671 31.9326L-208.338 34.2806L-206.004 31.9326Z" fill="white" fill-opacity="0.14"/>
<path d="M-176.675 31.9326L-179.008 29.5845L-181.342 31.9326L-179.008 34.2806L-176.675 31.9326Z" fill="white" fill-opacity="0.14"/>
<path d="M-147.346 31.9326L-149.679 29.5845L-152.012 31.9326L-149.679 34.2806L-147.346 31.9326Z" fill="white" fill-opacity="0.14"/>
<path d="M-118.017 31.9326L-120.35 29.5845L-122.683 31.9326L-120.35 34.2806L-118.017 31.9326Z" fill="white" fill-opacity="0.14"/>
<path d="M-88.6875 31.9326L-91.0206 29.5845L-93.3538 31.9326L-91.0206 34.2806L-88.6875 31.9326Z" fill="white" fill-opacity="0.14"/>
<path d="M-59.3582 31.9326L-61.6913 29.5845L-64.0245 31.9326L-61.6913 34.2806L-59.3582 31.9326Z" fill="white" fill-opacity="0.14"/>
<path d="M-30.0291 31.9326L-32.3623 29.5845L-34.6954 31.9326L-32.3623 34.2806L-30.0291 31.9326Z" fill="white" fill-opacity="0.14"/>
<path d="M-0.699783 31.9326L-3.03291 29.5845L-5.36603 31.9326L-3.03291 34.2806L-0.699783 31.9326Z" fill="white" fill-opacity="0.14"/>
<path d="M28.6296 31.9326L26.2965 29.5845L23.9634 31.9326L26.2965 34.2806L28.6296 31.9326Z" fill="white" fill-opacity="0.14"/>
<path d="M-235.334 61.4496L-237.667 59.1015L-240 61.4496L-237.667 63.7976L-235.334 61.4496Z" fill="white" fill-opacity="0.14"/>
<path d="M-206.004 61.4496L-208.338 59.1015L-210.671 61.4496L-208.338 63.7976L-206.004 61.4496Z" fill="white" fill-opacity="0.14"/>
<path d="M-176.675 61.4496L-179.008 59.1015L-181.342 61.4496L-179.008 63.7976L-176.675 61.4496Z" fill="white" fill-opacity="0.14"/>
<path d="M-147.346 61.4496L-149.679 59.1015L-152.012 61.4496L-149.679 63.7976L-147.346 61.4496Z" fill="white" fill-opacity="0.14"/>
<path d="M-118.017 61.4496L-120.35 59.1015L-122.683 61.4496L-120.35 63.7976L-118.017 61.4496Z" fill="white" fill-opacity="0.14"/>
<path d="M-88.6875 61.4496L-91.0206 59.1015L-93.3538 61.4496L-91.0206 63.7976L-88.6875 61.4496Z" fill="white" fill-opacity="0.14"/>
<path d="M-59.3582 61.4496L-61.6913 59.1015L-64.0245 61.4496L-61.6913 63.7976L-59.3582 61.4496Z" fill="white" fill-opacity="0.14"/>
<path d="M-30.0291 61.4496L-32.3623 59.1015L-34.6954 61.4496L-32.3623 63.7976L-30.0291 61.4496Z" fill="white" fill-opacity="0.14"/>
<path d="M-0.699783 61.4496L-3.03291 59.1015L-5.36603 61.4496L-3.03291 63.7976L-0.699783 61.4496Z" fill="white" fill-opacity="0.14"/>
<path d="M28.6296 61.4496L26.2965 59.1015L23.9634 61.4496L26.2965 63.7976L28.6296 61.4496Z" fill="white" fill-opacity="0.14"/>
<path d="M-235.334 90.9659L-237.667 88.6178L-240 90.9659L-237.667 93.3139L-235.334 90.9659Z" fill="white" fill-opacity="0.14"/>
<path d="M-206.004 90.9659L-208.338 88.6178L-210.671 90.9659L-208.338 93.3139L-206.004 90.9659Z" fill="white" fill-opacity="0.14"/>
<path d="M-176.675 90.9659L-179.008 88.6178L-181.342 90.9659L-179.008 93.3139L-176.675 90.9659Z" fill="white" fill-opacity="0.14"/>
<path d="M-147.346 90.9659L-149.679 88.6178L-152.012 90.9659L-149.679 93.3139L-147.346 90.9659Z" fill="white" fill-opacity="0.14"/>
<path d="M-118.017 90.9659L-120.35 88.6178L-122.683 90.9659L-120.35 93.3139L-118.017 90.9659Z" fill="white" fill-opacity="0.14"/>
<path d="M-88.6875 90.9659L-91.0206 88.6178L-93.3538 90.9659L-91.0206 93.3139L-88.6875 90.9659Z" fill="white" fill-opacity="0.14"/>
<path d="M-59.3582 90.9659L-61.6913 88.6178L-64.0245 90.9659L-61.6913 93.3139L-59.3582 90.9659Z" fill="white" fill-opacity="0.14"/>
<path d="M-30.0291 90.9659L-32.3623 88.6178L-34.6954 90.9659L-32.3623 93.3139L-30.0291 90.9659Z" fill="white" fill-opacity="0.14"/>
<path d="M-0.699783 90.9659L-3.03291 88.6178L-5.36603 90.9659L-3.03291 93.3139L-0.699783 90.9659Z" fill="white" fill-opacity="0.14"/>
<path d="M28.6296 90.9659L26.2965 88.6178L23.9634 90.9659L26.2965 93.3139L28.6296 90.9659Z" fill="white" fill-opacity="0.14"/>
<path d="M-235.334 120.483L-237.667 118.135L-240 120.483L-237.667 122.831L-235.334 120.483Z" fill="white" fill-opacity="0.14"/>
<path d="M-206.004 120.483L-208.338 118.135L-210.671 120.483L-208.338 122.831L-206.004 120.483Z" fill="white" fill-opacity="0.14"/>
<path d="M-176.675 120.483L-179.008 118.135L-181.342 120.483L-179.008 122.831L-176.675 120.483Z" fill="white" fill-opacity="0.14"/>
<path d="M-147.346 120.483L-149.679 118.135L-152.012 120.483L-149.679 122.831L-147.346 120.483Z" fill="white" fill-opacity="0.14"/>
<path d="M-118.017 120.483L-120.35 118.135L-122.683 120.483L-120.35 122.831L-118.017 120.483Z" fill="white" fill-opacity="0.14"/>
<path d="M-88.6875 120.483L-91.0206 118.135L-93.3538 120.483L-91.0206 122.831L-88.6875 120.483Z" fill="white" fill-opacity="0.14"/>
<path d="M-59.3582 120.483L-61.6913 118.135L-64.0245 120.483L-61.6913 122.831L-59.3582 120.483Z" fill="white" fill-opacity="0.14"/>
<path d="M-30.0291 120.483L-32.3623 118.135L-34.6954 120.483L-32.3623 122.831L-30.0291 120.483Z" fill="white" fill-opacity="0.14"/>
<path d="M-0.699783 120.483L-3.03291 118.135L-5.36603 120.483L-3.03291 122.831L-0.699783 120.483Z" fill="white" fill-opacity="0.14"/>
<path d="M28.6296 120.483L26.2965 118.135L23.9634 120.483L26.2965 122.831L28.6296 120.483Z" fill="white" fill-opacity="0.14"/>
<path d="M-235.334 150L-237.667 147.652L-240 150L-237.667 152.348L-235.334 150Z" fill="white" fill-opacity="0.14"/>
<path d="M-206.004 150L-208.338 147.652L-210.671 150L-208.338 152.348L-206.004 150Z" fill="white" fill-opacity="0.14"/>
<path d="M-176.675 150L-179.008 147.652L-181.342 150L-179.008 152.348L-176.675 150Z" fill="white" fill-opacity="0.14"/>
<path d="M-147.346 150L-149.679 147.652L-152.012 150L-149.679 152.348L-147.346 150Z" fill="white" fill-opacity="0.14"/>
<path d="M-118.017 150L-120.35 147.652L-122.683 150L-120.35 152.348L-118.017 150Z" fill="white" fill-opacity="0.14"/>
<path d="M-88.6875 150L-91.0206 147.652L-93.3538 150L-91.0206 152.348L-88.6875 150Z" fill="white" fill-opacity="0.14"/>
<path d="M-59.3582 150L-61.6913 147.652L-64.0245 150L-61.6913 152.348L-59.3582 150Z" fill="white" fill-opacity="0.14"/>
<path d="M-30.0291 150L-32.3623 147.652L-34.6954 150L-32.3623 152.348L-30.0291 150Z" fill="white" fill-opacity="0.14"/>
<path d="M-0.699783 150L-3.03291 147.652L-5.36603 150L-3.03291 152.348L-0.699783 150Z" fill="white" fill-opacity="0.14"/>
<path d="M28.6296 150L26.2965 147.652L23.9634 150L26.2965 152.348L28.6296 150Z" fill="white" fill-opacity="0.14"/>
<path d="M-235.334 179.517L-237.667 177.169L-240 179.517L-237.667 181.865L-235.334 179.517Z" fill="white" fill-opacity="0.14"/>
<path d="M-206.004 179.517L-208.338 177.169L-210.671 179.517L-208.338 181.865L-206.004 179.517Z" fill="white" fill-opacity="0.14"/>
<path d="M-176.675 179.517L-179.008 177.169L-181.342 179.517L-179.008 181.865L-176.675 179.517Z" fill="white" fill-opacity="0.14"/>
<path d="M-147.346 179.517L-149.679 177.169L-152.012 179.517L-149.679 181.865L-147.346 179.517Z" fill="white" fill-opacity="0.14"/>
<path d="M-118.017 179.517L-120.35 177.169L-122.683 179.517L-120.35 181.865L-118.017 179.517Z" fill="white" fill-opacity="0.14"/>
<path d="M-88.6875 179.517L-91.0206 177.169L-93.3538 179.517L-91.0206 181.865L-88.6875 179.517Z" fill="white" fill-opacity="0.14"/>
<path d="M-59.3582 179.517L-61.6913 177.169L-64.0245 179.517L-61.6913 181.865L-59.3582 179.517Z" fill="white" fill-opacity="0.14"/>
<path d="M-30.0291 179.517L-32.3623 177.169L-34.6954 179.517L-32.3623 181.865L-30.0291 179.517Z" fill="white" fill-opacity="0.14"/>
<path d="M-0.699783 179.517L-3.03291 177.169L-5.36603 179.517L-3.03291 181.865L-0.699783 179.517Z" fill="white" fill-opacity="0.14"/>
<path d="M28.6296 179.517L26.2965 177.169L23.9634 179.517L26.2965 181.865L28.6296 179.517Z" fill="white" fill-opacity="0.14"/>
<path d="M-235.334 209.033L-237.667 206.685L-240 209.033L-237.667 211.381L-235.334 209.033Z" fill="white" fill-opacity="0.14"/>
<path d="M-206.004 209.033L-208.338 206.685L-210.671 209.033L-208.338 211.381L-206.004 209.033Z" fill="white" fill-opacity="0.14"/>
<path d="M-176.675 209.033L-179.008 206.685L-181.342 209.033L-179.008 211.381L-176.675 209.033Z" fill="white" fill-opacity="0.14"/>
<path d="M-147.346 209.033L-149.679 206.685L-152.012 209.033L-149.679 211.381L-147.346 209.033Z" fill="white" fill-opacity="0.14"/>
<path d="M-118.017 209.033L-120.35 206.685L-122.683 209.033L-120.35 211.381L-118.017 209.033Z" fill="white" fill-opacity="0.14"/>
<path d="M-88.6875 209.033L-91.0206 206.685L-93.3538 209.033L-91.0206 211.381L-88.6875 209.033Z" fill="white" fill-opacity="0.14"/>
<path d="M-59.3582 209.033L-61.6913 206.685L-64.0245 209.033L-61.6913 211.381L-59.3582 209.033Z" fill="white" fill-opacity="0.14"/>
<path d="M-30.0291 209.033L-32.3623 206.685L-34.6954 209.033L-32.3623 211.381L-30.0291 209.033Z" fill="white" fill-opacity="0.14"/>
<path d="M-0.699783 209.033L-3.03291 206.685L-5.36603 209.033L-3.03291 211.381L-0.699783 209.033Z" fill="white" fill-opacity="0.14"/>
<path d="M28.6296 209.033L26.2965 206.685L23.9634 209.033L26.2965 211.381L28.6296 209.033Z" fill="white" fill-opacity="0.14"/>
<path d="M-235.334 238.551L-237.667 236.203L-240 238.551L-237.667 240.899L-235.334 238.551Z" fill="white" fill-opacity="0.14"/>
<path d="M-206.004 238.551L-208.338 236.203L-210.671 238.551L-208.338 240.899L-206.004 238.551Z" fill="white" fill-opacity="0.14"/>
<path d="M-176.675 238.551L-179.008 236.203L-181.342 238.551L-179.008 240.899L-176.675 238.551Z" fill="white" fill-opacity="0.14"/>
<path d="M-147.346 238.551L-149.679 236.203L-152.012 238.551L-149.679 240.899L-147.346 238.551Z" fill="white" fill-opacity="0.14"/>
<path d="M-118.017 238.551L-120.35 236.203L-122.683 238.551L-120.35 240.899L-118.017 238.551Z" fill="white" fill-opacity="0.14"/>
<path d="M-88.6875 238.551L-91.0206 236.203L-93.3538 238.551L-91.0206 240.899L-88.6875 238.551Z" fill="white" fill-opacity="0.14"/>
<path d="M-59.3582 238.551L-61.6913 236.203L-64.0245 238.551L-61.6913 240.899L-59.3582 238.551Z" fill="white" fill-opacity="0.14"/>
<path d="M-30.0291 238.551L-32.3623 236.203L-34.6954 238.551L-32.3623 240.899L-30.0291 238.551Z" fill="white" fill-opacity="0.14"/>
<path d="M-0.699783 238.551L-3.03291 236.203L-5.36603 238.551L-3.03291 240.899L-0.699783 238.551Z" fill="white" fill-opacity="0.14"/>
<path d="M28.6296 238.551L26.2965 236.203L23.9634 238.551L26.2965 240.899L28.6296 238.551Z" fill="white" fill-opacity="0.14"/>
<path d="M-235.334 268.067L-237.667 265.719L-240 268.067L-237.667 270.415L-235.334 268.067Z" fill="white" fill-opacity="0.14"/>
<path d="M-206.004 268.067L-208.338 265.719L-210.671 268.067L-208.338 270.415L-206.004 268.067Z" fill="white" fill-opacity="0.14"/>
<path d="M-176.675 268.067L-179.008 265.719L-181.342 268.067L-179.008 270.415L-176.675 268.067Z" fill="white" fill-opacity="0.14"/>
<path d="M-147.346 268.067L-149.679 265.719L-152.012 268.067L-149.679 270.415L-147.346 268.067Z" fill="white" fill-opacity="0.14"/>
<path d="M-118.017 268.067L-120.35 265.719L-122.683 268.067L-120.35 270.415L-118.017 268.067Z" fill="white" fill-opacity="0.14"/>
<path d="M-88.6875 268.067L-91.0206 265.719L-93.3538 268.067L-91.0206 270.415L-88.6875 268.067Z" fill="white" fill-opacity="0.14"/>
<path d="M-59.3582 268.067L-61.6913 265.719L-64.0245 268.067L-61.6913 270.415L-59.3582 268.067Z" fill="white" fill-opacity="0.14"/>
<path d="M-30.0291 268.067L-32.3623 265.719L-34.6954 268.067L-32.3623 270.415L-30.0291 268.067Z" fill="white" fill-opacity="0.14"/>
<path d="M-0.699783 268.067L-3.03291 265.719L-5.36603 268.067L-3.03291 270.415L-0.699783 268.067Z" fill="white" fill-opacity="0.14"/>
<path d="M28.6296 268.067L26.2965 265.719L23.9634 268.067L26.2965 270.415L28.6296 268.067Z" fill="white" fill-opacity="0.14"/>
<path d="M-235.334 297.584L-237.667 295.236L-240 297.584L-237.667 299.932L-235.334 297.584Z" fill="white" fill-opacity="0.14"/>
<path d="M-206.004 297.584L-208.338 295.236L-210.671 297.584L-208.338 299.932L-206.004 297.584Z" fill="white" fill-opacity="0.14"/>
<path d="M-176.675 297.584L-179.008 295.236L-181.342 297.584L-179.008 299.932L-176.675 297.584Z" fill="white" fill-opacity="0.14"/>
<path d="M-147.346 297.584L-149.679 295.236L-152.012 297.584L-149.679 299.932L-147.346 297.584Z" fill="white" fill-opacity="0.14"/>
<path d="M-118.017 297.584L-120.35 295.236L-122.683 297.584L-120.35 299.932L-118.017 297.584Z" fill="white" fill-opacity="0.14"/>
<path d="M-88.6875 297.584L-91.0206 295.236L-93.3538 297.584L-91.0206 299.932L-88.6875 297.584Z" fill="white" fill-opacity="0.14"/>
<path d="M-59.3582 297.584L-61.6913 295.236L-64.0245 297.584L-61.6913 299.932L-59.3582 297.584Z" fill="white" fill-opacity="0.14"/>
<path d="M-30.0291 297.584L-32.3623 295.236L-34.6954 297.584L-32.3623 299.932L-30.0291 297.584Z" fill="white" fill-opacity="0.14"/>
<path d="M-0.699783 297.584L-3.03291 295.236L-5.36603 297.584L-3.03291 299.932L-0.699783 297.584Z" fill="white" fill-opacity="0.14"/>
<path d="M28.6296 297.584L26.2965 295.236L23.9634 297.584L26.2965 299.932L28.6296 297.584Z" fill="white" fill-opacity="0.14"/>
<path d="M-235.334 327.101L-237.667 324.753L-240 327.101L-237.667 329.449L-235.334 327.101Z" fill="white" fill-opacity="0.14"/>
<path d="M-206.004 327.101L-208.338 324.753L-210.671 327.101L-208.338 329.449L-206.004 327.101Z" fill="white" fill-opacity="0.14"/>
<path d="M-176.675 327.101L-179.008 324.753L-181.342 327.101L-179.008 329.449L-176.675 327.101Z" fill="white" fill-opacity="0.14"/>
<path d="M-147.346 327.101L-149.679 324.753L-152.012 327.101L-149.679 329.449L-147.346 327.101Z" fill="white" fill-opacity="0.14"/>
<path d="M-118.017 327.101L-120.35 324.753L-122.683 327.101L-120.35 329.449L-118.017 327.101Z" fill="white" fill-opacity="0.14"/>
<path d="M-88.6875 327.101L-91.0206 324.753L-93.3538 327.101L-91.0206 329.449L-88.6875 327.101Z" fill="white" fill-opacity="0.14"/>
<path d="M-59.3582 327.101L-61.6913 324.753L-64.0245 327.101L-61.6913 329.449L-59.3582 327.101Z" fill="white" fill-opacity="0.14"/>
<path d="M-30.0291 327.101L-32.3623 324.753L-34.6954 327.101L-32.3623 329.449L-30.0291 327.101Z" fill="white" fill-opacity="0.14"/>
<path d="M-0.699783 327.101L-3.03291 324.753L-5.36603 327.101L-3.03291 329.449L-0.699783 327.101Z" fill="white" fill-opacity="0.14"/>
<path d="M28.6296 327.101L26.2965 324.753L23.9634 327.101L26.2965 329.449L28.6296 327.101Z" fill="white" fill-opacity="0.14"/>
<path d="M-235.334 356.618L-237.667 354.27L-240 356.618L-237.667 358.966L-235.334 356.618Z" fill="white" fill-opacity="0.14"/>
<path d="M-206.004 356.618L-208.338 354.27L-210.671 356.618L-208.338 358.966L-206.004 356.618Z" fill="white" fill-opacity="0.14"/>
<path d="M-176.675 356.618L-179.008 354.27L-181.342 356.618L-179.008 358.966L-176.675 356.618Z" fill="white" fill-opacity="0.14"/>
<path d="M-147.346 356.618L-149.679 354.27L-152.012 356.618L-149.679 358.966L-147.346 356.618Z" fill="white" fill-opacity="0.14"/>
<path d="M-118.017 356.618L-120.35 354.27L-122.683 356.618L-120.35 358.966L-118.017 356.618Z" fill="white" fill-opacity="0.14"/>
<path d="M-88.6875 356.618L-91.0206 354.27L-93.3538 356.618L-91.0206 358.966L-88.6875 356.618Z" fill="white" fill-opacity="0.14"/>
<path d="M-59.3582 356.618L-61.6913 354.27L-64.0245 356.618L-61.6913 358.966L-59.3582 356.618Z" fill="white" fill-opacity="0.14"/>
<path d="M-30.0291 356.618L-32.3623 354.27L-34.6954 356.618L-32.3623 358.966L-30.0291 356.618Z" fill="white" fill-opacity="0.14"/>
<path d="M-0.699783 356.618L-3.03291 354.27L-5.36603 356.618L-3.03291 358.966L-0.699783 356.618Z" fill="white" fill-opacity="0.14"/>
<path d="M28.6296 356.618L26.2965 354.27L23.9634 356.618L26.2965 358.966L28.6296 356.618Z" fill="white" fill-opacity="0.14"/>
<path d="M-235.334 386.135L-237.667 383.786L-240 386.135L-237.667 388.483L-235.334 386.135Z" fill="white" fill-opacity="0.14"/>
<path d="M-206.004 386.135L-208.338 383.786L-210.671 386.135L-208.338 388.483L-206.004 386.135Z" fill="white" fill-opacity="0.14"/>
<path d="M-176.675 386.135L-179.008 383.786L-181.342 386.135L-179.008 388.483L-176.675 386.135Z" fill="white" fill-opacity="0.14"/>
<path d="M-147.346 386.135L-149.679 383.786L-152.012 386.135L-149.679 388.483L-147.346 386.135Z" fill="white" fill-opacity="0.14"/>
<path d="M-118.017 386.135L-120.35 383.786L-122.683 386.135L-120.35 388.483L-118.017 386.135Z" fill="white" fill-opacity="0.14"/>
<path d="M-88.6875 386.135L-91.0206 383.786L-93.3538 386.135L-91.0206 388.483L-88.6875 386.135Z" fill="white" fill-opacity="0.14"/>
<path d="M-59.3582 386.135L-61.6913 383.786L-64.0245 386.135L-61.6913 388.483L-59.3582 386.135Z" fill="white" fill-opacity="0.14"/>
<path d="M-30.0291 386.135L-32.3623 383.786L-34.6954 386.135L-32.3623 388.483L-30.0291 386.135Z" fill="white" fill-opacity="0.14"/>
<path d="M-0.699783 386.135L-3.03291 383.786L-5.36603 386.135L-3.03291 388.483L-0.699783 386.135Z" fill="white" fill-opacity="0.14"/>
<path d="M28.6296 386.135L26.2965 383.786L23.9634 386.135L26.2965 388.483L28.6296 386.135Z" fill="white" fill-opacity="0.14"/>
<path d="M-235.334 415.652L-237.667 413.304L-240 415.652L-237.667 418L-235.334 415.652Z" fill="white" fill-opacity="0.14"/>
<path d="M-206.004 415.652L-208.338 413.304L-210.671 415.652L-208.338 418L-206.004 415.652Z" fill="white" fill-opacity="0.14"/>
<path d="M-176.675 415.652L-179.008 413.304L-181.342 415.652L-179.008 418L-176.675 415.652Z" fill="white" fill-opacity="0.14"/>
<path d="M-147.346 415.652L-149.679 413.304L-152.012 415.652L-149.679 418L-147.346 415.652Z" fill="white" fill-opacity="0.14"/>
<path d="M-118.017 415.652L-120.35 413.304L-122.683 415.652L-120.35 418L-118.017 415.652Z" fill="white" fill-opacity="0.14"/>
<path d="M-88.6875 415.652L-91.0206 413.304L-93.3538 415.652L-91.0206 418L-88.6875 415.652Z" fill="white" fill-opacity="0.14"/>
<path d="M-59.3582 415.652L-61.6913 413.304L-64.0245 415.652L-61.6913 418L-59.3582 415.652Z" fill="white" fill-opacity="0.14"/>
<path d="M-30.0291 415.652L-32.3623 413.304L-34.6954 415.652L-32.3623 418L-30.0291 415.652Z" fill="white" fill-opacity="0.14"/>
<path d="M-0.699783 415.652L-3.03291 413.304L-5.36603 415.652L-3.03291 418L-0.699783 415.652Z" fill="white" fill-opacity="0.14"/>
<path d="M28.6296 415.652L26.2965 413.304L23.9634 415.652L26.2965 418L28.6296 415.652Z" fill="white" fill-opacity="0.14"/>
<path d="M55.967 -115.652L53.634 -118L51.3008 -115.652L53.634 -113.304L55.967 -115.652Z" fill="white" fill-opacity="0.14"/>
<path d="M85.2961 -115.652L82.963 -118L80.6299 -115.652L82.963 -113.304L85.2961 -115.652Z" fill="white" fill-opacity="0.14"/>
<path d="M114.625 -115.652L112.292 -118L109.959 -115.652L112.292 -113.304L114.625 -115.652Z" fill="white" fill-opacity="0.14"/>
<path d="M143.955 -115.652L141.622 -118L139.289 -115.652L141.622 -113.304L143.955 -115.652Z" fill="white" fill-opacity="0.14"/>
<path d="M173.284 -115.652L170.951 -118L168.618 -115.652L170.951 -113.304L173.284 -115.652Z" fill="white" fill-opacity="0.14"/>
<path d="M202.613 -115.652L200.28 -118L197.947 -115.652L200.28 -113.304L202.613 -115.652Z" fill="white" fill-opacity="0.14"/>
<path d="M231.942 -115.652L229.609 -118L227.276 -115.652L229.609 -113.304L231.942 -115.652Z" fill="white" fill-opacity="0.14"/>
<path d="M261.272 -115.652L258.939 -118L256.605 -115.652L258.939 -113.304L261.272 -115.652Z" fill="white" fill-opacity="0.14"/>
<path d="M290.601 -115.652L288.268 -118L285.934 -115.652L288.268 -113.304L290.601 -115.652Z" fill="white" fill-opacity="0.14"/>
<path d="M319.93 -115.652L317.597 -118L315.264 -115.652L317.597 -113.304L319.93 -115.652Z" fill="white" fill-opacity="0.14"/>
<path d="M55.967 -86.135L53.634 -88.483L51.3008 -86.135L53.634 -83.7869L55.967 -86.135Z" fill="white" fill-opacity="0.14"/>
<path d="M85.2961 -86.135L82.963 -88.483L80.6299 -86.135L82.963 -83.7869L85.2961 -86.135Z" fill="white" fill-opacity="0.14"/>
<path d="M114.625 -86.135L112.292 -88.483L109.959 -86.135L112.292 -83.7869L114.625 -86.135Z" fill="white" fill-opacity="0.14"/>
<path d="M143.955 -86.135L141.622 -88.483L139.289 -86.135L141.622 -83.7869L143.955 -86.135Z" fill="white" fill-opacity="0.14"/>
<path d="M173.284 -86.135L170.951 -88.483L168.618 -86.135L170.951 -83.7869L173.284 -86.135Z" fill="white" fill-opacity="0.14"/>
<path d="M202.613 -86.135L200.28 -88.483L197.947 -86.135L200.28 -83.7869L202.613 -86.135Z" fill="white" fill-opacity="0.14"/>
<path d="M231.942 -86.135L229.609 -88.483L227.276 -86.135L229.609 -83.7869L231.942 -86.135Z" fill="white" fill-opacity="0.14"/>
<path d="M261.272 -86.135L258.939 -88.483L256.605 -86.135L258.939 -83.7869L261.272 -86.135Z" fill="white" fill-opacity="0.14"/>
<path d="M290.601 -86.135L288.268 -88.483L285.934 -86.135L288.268 -83.7869L290.601 -86.135Z" fill="white" fill-opacity="0.14"/>
<path d="M319.93 -86.135L317.597 -88.483L315.264 -86.135L317.597 -83.7869L319.93 -86.135Z" fill="white" fill-opacity="0.14"/>
<path d="M55.967 -56.618L53.634 -58.966L51.3008 -56.618L53.634 -54.2699L55.967 -56.618Z" fill="white" fill-opacity="0.14"/>
<path d="M85.2961 -56.618L82.963 -58.966L80.6299 -56.618L82.963 -54.2699L85.2961 -56.618Z" fill="white" fill-opacity="0.14"/>
<path d="M114.625 -56.618L112.292 -58.966L109.959 -56.618L112.292 -54.2699L114.625 -56.618Z" fill="white" fill-opacity="0.14"/>
<path d="M143.955 -56.618L141.622 -58.966L139.289 -56.618L141.622 -54.2699L143.955 -56.618Z" fill="white" fill-opacity="0.14"/>
<path d="M173.284 -56.618L170.951 -58.966L168.618 -56.618L170.951 -54.2699L173.284 -56.618Z" fill="white" fill-opacity="0.14"/>
<path d="M202.613 -56.618L200.28 -58.966L197.947 -56.618L200.28 -54.2699L202.613 -56.618Z" fill="white" fill-opacity="0.14"/>
<path d="M231.942 -56.618L229.609 -58.966L227.276 -56.618L229.609 -54.2699L231.942 -56.618Z" fill="white" fill-opacity="0.14"/>
<path d="M261.272 -56.618L258.939 -58.966L256.605 -56.618L258.939 -54.2699L261.272 -56.618Z" fill="white" fill-opacity="0.14"/>
<path d="M290.601 -56.618L288.268 -58.966L285.934 -56.618L288.268 -54.2699L290.601 -56.618Z" fill="white" fill-opacity="0.14"/>
<path d="M319.93 -56.618L317.597 -58.966L315.264 -56.618L317.597 -54.2699L319.93 -56.618Z" fill="white" fill-opacity="0.14"/>
<path d="M55.967 -27.101L53.634 -29.4491L51.3008 -27.101L53.634 -24.753L55.967 -27.101Z" fill="white" fill-opacity="0.14"/>
<path d="M85.2961 -27.101L82.963 -29.4491L80.6299 -27.101L82.963 -24.753L85.2961 -27.101Z" fill="white" fill-opacity="0.14"/>
<path d="M114.625 -27.101L112.292 -29.4491L109.959 -27.101L112.292 -24.753L114.625 -27.101Z" fill="white" fill-opacity="0.14"/>
<path d="M143.955 -27.101L141.622 -29.4491L139.289 -27.101L141.622 -24.753L143.955 -27.101Z" fill="white" fill-opacity="0.14"/>
<path d="M173.284 -27.101L170.951 -29.4491L168.618 -27.101L170.951 -24.753L173.284 -27.101Z" fill="white" fill-opacity="0.14"/>
<path d="M202.613 -27.101L200.28 -29.4491L197.947 -27.101L200.28 -24.753L202.613 -27.101Z" fill="white" fill-opacity="0.14"/>
<path d="M231.942 -27.101L229.609 -29.4491L227.276 -27.101L229.609 -24.753L231.942 -27.101Z" fill="white" fill-opacity="0.14"/>
<path d="M261.272 -27.101L258.939 -29.4491L256.605 -27.101L258.939 -24.753L261.272 -27.101Z" fill="white" fill-opacity="0.14"/>
<path d="M290.601 -27.101L288.268 -29.4491L285.934 -27.101L288.268 -24.753L290.601 -27.101Z" fill="white" fill-opacity="0.14"/>
<path d="M319.93 -27.101L317.597 -29.4491L315.264 -27.101L317.597 -24.753L319.93 -27.101Z" fill="white" fill-opacity="0.14"/>
<path d="M55.967 2.41562L53.634 0.0675659L51.3008 2.41562L53.634 4.76367L55.967 2.41562Z" fill="white" fill-opacity="0.14"/>
<path d="M85.2961 2.41562L82.963 0.0675659L80.6299 2.41562L82.963 4.76367L85.2961 2.41562Z" fill="white" fill-opacity="0.14"/>
<path d="M114.625 2.41562L112.292 0.0675659L109.959 2.41562L112.292 4.76367L114.625 2.41562Z" fill="white" fill-opacity="0.14"/>
<path d="M143.955 2.41562L141.622 0.0675659L139.289 2.41562L141.622 4.76367L143.955 2.41562Z" fill="white" fill-opacity="0.14"/>
<path d="M173.284 2.41562L170.951 0.0675659L168.618 2.41562L170.951 4.76367L173.284 2.41562Z" fill="white" fill-opacity="0.14"/>
<path d="M202.613 2.41562L200.28 0.0675659L197.947 2.41562L200.28 4.76367L202.613 2.41562Z" fill="white" fill-opacity="0.14"/>
<path d="M231.942 2.41562L229.609 0.0675659L227.276 2.41562L229.609 4.76367L231.942 2.41562Z" fill="white" fill-opacity="0.14"/>
<path d="M261.272 2.41562L258.939 0.0675659L256.605 2.41562L258.939 4.76367L261.272 2.41562Z" fill="white" fill-opacity="0.14"/>
<path d="M290.601 2.41562L288.268 0.0675659L285.934 2.41562L288.268 4.76367L290.601 2.41562Z" fill="white" fill-opacity="0.14"/>
<path d="M319.93 2.41562L317.597 0.0675659L315.264 2.41562L317.597 4.76367L319.93 2.41562Z" fill="white" fill-opacity="0.14"/>
<path d="M55.967 31.9326L53.634 29.5845L51.3008 31.9326L53.634 34.2806L55.967 31.9326Z" fill="white" fill-opacity="0.14"/>
<path d="M85.2961 31.9326L82.963 29.5845L80.6299 31.9326L82.963 34.2806L85.2961 31.9326Z" fill="white" fill-opacity="0.14"/>
<path d="M114.625 31.9326L112.292 29.5845L109.959 31.9326L112.292 34.2806L114.625 31.9326Z" fill="white" fill-opacity="0.14"/>
<path d="M143.955 31.9326L141.622 29.5845L139.289 31.9326L141.622 34.2806L143.955 31.9326Z" fill="white" fill-opacity="0.14"/>
<path d="M173.284 31.9326L170.951 29.5845L168.618 31.9326L170.951 34.2806L173.284 31.9326Z" fill="white" fill-opacity="0.14"/>
<path d="M202.613 31.9326L200.28 29.5845L197.947 31.9326L200.28 34.2806L202.613 31.9326Z" fill="white" fill-opacity="0.14"/>
<path d="M231.942 31.9326L229.609 29.5845L227.276 31.9326L229.609 34.2806L231.942 31.9326Z" fill="white" fill-opacity="0.14"/>
<path d="M261.272 31.9326L258.939 29.5845L256.605 31.9326L258.939 34.2806L261.272 31.9326Z" fill="white" fill-opacity="0.14"/>
<path d="M290.601 31.9326L288.268 29.5845L285.934 31.9326L288.268 34.2806L290.601 31.9326Z" fill="white" fill-opacity="0.14"/>
<path d="M319.93 31.9326L317.597 29.5845L315.264 31.9326L317.597 34.2806L319.93 31.9326Z" fill="white" fill-opacity="0.14"/>
<path d="M55.967 61.4496L53.634 59.1015L51.3008 61.4496L53.634 63.7976L55.967 61.4496Z" fill="white" fill-opacity="0.14"/>
<path d="M85.2961 61.4496L82.963 59.1015L80.6299 61.4496L82.963 63.7976L85.2961 61.4496Z" fill="white" fill-opacity="0.14"/>
<path d="M114.625 61.4496L112.292 59.1015L109.959 61.4496L112.292 63.7976L114.625 61.4496Z" fill="white" fill-opacity="0.14"/>
<path d="M143.955 61.4496L141.622 59.1015L139.289 61.4496L141.622 63.7976L143.955 61.4496Z" fill="white" fill-opacity="0.14"/>
<path d="M173.284 61.4496L170.951 59.1015L168.618 61.4496L170.951 63.7976L173.284 61.4496Z" fill="white" fill-opacity="0.14"/>
<path d="M202.613 61.4496L200.28 59.1015L197.947 61.4496L200.28 63.7976L202.613 61.4496Z" fill="white" fill-opacity="0.14"/>
<path d="M231.942 61.4496L229.609 59.1015L227.276 61.4496L229.609 63.7976L231.942 61.4496Z" fill="white" fill-opacity="0.14"/>
<path d="M261.272 61.4496L258.939 59.1015L256.605 61.4496L258.939 63.7976L261.272 61.4496Z" fill="white" fill-opacity="0.14"/>
<path d="M290.601 61.4496L288.268 59.1015L285.934 61.4496L288.268 63.7976L290.601 61.4496Z" fill="white" fill-opacity="0.14"/>
<path d="M319.93 61.4496L317.597 59.1015L315.264 61.4496L317.597 63.7976L319.93 61.4496Z" fill="white" fill-opacity="0.14"/>
<path d="M55.967 90.9659L53.634 88.6178L51.3008 90.9659L53.634 93.3139L55.967 90.9659Z" fill="white" fill-opacity="0.14"/>
<path d="M85.2961 90.9659L82.963 88.6178L80.6299 90.9659L82.963 93.3139L85.2961 90.9659Z" fill="white" fill-opacity="0.14"/>
<path d="M114.625 90.9659L112.292 88.6178L109.959 90.9659L112.292 93.3139L114.625 90.9659Z" fill="white" fill-opacity="0.14"/>
<path d="M143.955 90.9659L141.622 88.6178L139.289 90.9659L141.622 93.3139L143.955 90.9659Z" fill="white" fill-opacity="0.14"/>
<path d="M173.284 90.9659L170.951 88.6178L168.618 90.9659L170.951 93.3139L173.284 90.9659Z" fill="white" fill-opacity="0.14"/>
<path d="M202.613 90.9659L200.28 88.6178L197.947 90.9659L200.28 93.3139L202.613 90.9659Z" fill="white" fill-opacity="0.14"/>
<path d="M231.942 90.9659L229.609 88.6178L227.276 90.9659L229.609 93.3139L231.942 90.9659Z" fill="white" fill-opacity="0.14"/>
<path d="M261.272 90.9659L258.939 88.6178L256.605 90.9659L258.939 93.3139L261.272 90.9659Z" fill="white" fill-opacity="0.14"/>
<path d="M290.601 90.9659L288.268 88.6178L285.934 90.9659L288.268 93.3139L290.601 90.9659Z" fill="white" fill-opacity="0.14"/>
<path d="M319.93 90.9659L317.597 88.6178L315.264 90.9659L317.597 93.3139L319.93 90.9659Z" fill="white" fill-opacity="0.14"/>
<path d="M55.967 120.483L53.634 118.135L51.3008 120.483L53.634 122.831L55.967 120.483Z" fill="white" fill-opacity="0.14"/>
<path d="M85.2961 120.483L82.963 118.135L80.6299 120.483L82.963 122.831L85.2961 120.483Z" fill="white" fill-opacity="0.14"/>
<path d="M114.625 120.483L112.292 118.135L109.959 120.483L112.292 122.831L114.625 120.483Z" fill="white" fill-opacity="0.14"/>
<path d="M143.955 120.483L141.622 118.135L139.289 120.483L141.622 122.831L143.955 120.483Z" fill="white" fill-opacity="0.14"/>
<path d="M173.284 120.483L170.951 118.135L168.618 120.483L170.951 122.831L173.284 120.483Z" fill="white" fill-opacity="0.14"/>
<path d="M202.613 120.483L200.28 118.135L197.947 120.483L200.28 122.831L202.613 120.483Z" fill="white" fill-opacity="0.14"/>
<path d="M231.942 120.483L229.609 118.135L227.276 120.483L229.609 122.831L231.942 120.483Z" fill="white" fill-opacity="0.14"/>
<path d="M261.272 120.483L258.939 118.135L256.605 120.483L258.939 122.831L261.272 120.483Z" fill="white" fill-opacity="0.14"/>
<path d="M290.601 120.483L288.268 118.135L285.934 120.483L288.268 122.831L290.601 120.483Z" fill="white" fill-opacity="0.14"/>
<path d="M319.93 120.483L317.597 118.135L315.264 120.483L317.597 122.831L319.93 120.483Z" fill="white" fill-opacity="0.14"/>
<path d="M55.967 150L53.634 147.652L51.3008 150L53.634 152.348L55.967 150Z" fill="white" fill-opacity="0.14"/>
<path d="M85.2961 150L82.963 147.652L80.6299 150L82.963 152.348L85.2961 150Z" fill="white" fill-opacity="0.14"/>
<path d="M114.625 150L112.292 147.652L109.959 150L112.292 152.348L114.625 150Z" fill="white" fill-opacity="0.14"/>
<path d="M143.955 150L141.622 147.652L139.289 150L141.622 152.348L143.955 150Z" fill="white" fill-opacity="0.14"/>
<path d="M173.284 150L170.951 147.652L168.618 150L170.951 152.348L173.284 150Z" fill="white" fill-opacity="0.14"/>
<path d="M202.613 150L200.28 147.652L197.947 150L200.28 152.348L202.613 150Z" fill="white" fill-opacity="0.14"/>
<path d="M231.942 150L229.609 147.652L227.276 150L229.609 152.348L231.942 150Z" fill="white" fill-opacity="0.14"/>
<path d="M261.272 150L258.939 147.652L256.605 150L258.939 152.348L261.272 150Z" fill="white" fill-opacity="0.14"/>
<path d="M290.601 150L288.268 147.652L285.934 150L288.268 152.348L290.601 150Z" fill="white" fill-opacity="0.14"/>
<path d="M319.93 150L317.597 147.652L315.264 150L317.597 152.348L319.93 150Z" fill="white" fill-opacity="0.14"/>
<path d="M55.967 179.517L53.634 177.169L51.3008 179.517L53.634 181.865L55.967 179.517Z" fill="white" fill-opacity="0.14"/>
<path d="M85.2961 179.517L82.963 177.169L80.6299 179.517L82.963 181.865L85.2961 179.517Z" fill="white" fill-opacity="0.14"/>
<path d="M114.625 179.517L112.292 177.169L109.959 179.517L112.292 181.865L114.625 179.517Z" fill="white" fill-opacity="0.14"/>
<path d="M143.955 179.517L141.622 177.169L139.289 179.517L141.622 181.865L143.955 179.517Z" fill="white" fill-opacity="0.14"/>
<path d="M173.284 179.517L170.951 177.169L168.618 179.517L170.951 181.865L173.284 179.517Z" fill="white" fill-opacity="0.14"/>
<path d="M202.613 179.517L200.28 177.169L197.947 179.517L200.28 181.865L202.613 179.517Z" fill="white" fill-opacity="0.14"/>
<path d="M231.942 179.517L229.609 177.169L227.276 179.517L229.609 181.865L231.942 179.517Z" fill="white" fill-opacity="0.14"/>
<path d="M261.272 179.517L258.939 177.169L256.605 179.517L258.939 181.865L261.272 179.517Z" fill="white" fill-opacity="0.14"/>
<path d="M290.601 179.517L288.268 177.169L285.934 179.517L288.268 181.865L290.601 179.517Z" fill="white" fill-opacity="0.14"/>
<path d="M319.93 179.517L317.597 177.169L315.264 179.517L317.597 181.865L319.93 179.517Z" fill="white" fill-opacity="0.14"/>
<path d="M55.967 209.033L53.634 206.685L51.3008 209.033L53.634 211.381L55.967 209.033Z" fill="white" fill-opacity="0.14"/>
<path d="M85.2961 209.033L82.963 206.685L80.6299 209.033L82.963 211.381L85.2961 209.033Z" fill="white" fill-opacity="0.14"/>
<path d="M114.625 209.033L112.292 206.685L109.959 209.033L112.292 211.381L114.625 209.033Z" fill="white" fill-opacity="0.14"/>
<path d="M143.955 209.033L141.622 206.685L139.289 209.033L141.622 211.381L143.955 209.033Z" fill="white" fill-opacity="0.14"/>
<path d="M173.284 209.033L170.951 206.685L168.618 209.033L170.951 211.381L173.284 209.033Z" fill="white" fill-opacity="0.14"/>
<path d="M202.613 209.033L200.28 206.685L197.947 209.033L200.28 211.381L202.613 209.033Z" fill="white" fill-opacity="0.14"/>
<path d="M231.942 209.033L229.609 206.685L227.276 209.033L229.609 211.381L231.942 209.033Z" fill="white" fill-opacity="0.14"/>
<path d="M261.272 209.033L258.939 206.685L256.605 209.033L258.939 211.381L261.272 209.033Z" fill="white" fill-opacity="0.14"/>
<path d="M290.601 209.033L288.268 206.685L285.934 209.033L288.268 211.381L290.601 209.033Z" fill="white" fill-opacity="0.14"/>
<path d="M319.93 209.033L317.597 206.685L315.264 209.033L317.597 211.381L319.93 209.033Z" fill="white" fill-opacity="0.14"/>
<path d="M55.967 238.551L53.634 236.203L51.3008 238.551L53.634 240.899L55.967 238.551Z" fill="white" fill-opacity="0.14"/>
<path d="M85.2961 238.551L82.963 236.203L80.6299 238.551L82.963 240.899L85.2961 238.551Z" fill="white" fill-opacity="0.14"/>
<path d="M114.625 238.551L112.292 236.203L109.959 238.551L112.292 240.899L114.625 238.551Z" fill="white" fill-opacity="0.14"/>
<path d="M143.955 238.551L141.622 236.203L139.289 238.551L141.622 240.899L143.955 238.551Z" fill="white" fill-opacity="0.14"/>
<path d="M173.284 238.551L170.951 236.203L168.618 238.551L170.951 240.899L173.284 238.551Z" fill="white" fill-opacity="0.14"/>
<path d="M202.613 238.551L200.28 236.203L197.947 238.551L200.28 240.899L202.613 238.551Z" fill="white" fill-opacity="0.14"/>
<path d="M231.942 238.551L229.609 236.203L227.276 238.551L229.609 240.899L231.942 238.551Z" fill="white" fill-opacity="0.14"/>
<path d="M261.272 238.551L258.939 236.203L256.605 238.551L258.939 240.899L261.272 238.551Z" fill="white" fill-opacity="0.14"/>
<path d="M290.601 238.551L288.268 236.203L285.934 238.551L288.268 240.899L290.601 238.551Z" fill="white" fill-opacity="0.14"/>
<path d="M319.93 238.551L317.597 236.203L315.264 238.551L317.597 240.899L319.93 238.551Z" fill="white" fill-opacity="0.14"/>
<path d="M55.967 268.067L53.634 265.719L51.3008 268.067L53.634 270.415L55.967 268.067Z" fill="white" fill-opacity="0.14"/>
<path d="M85.2961 268.067L82.963 265.719L80.6299 268.067L82.963 270.415L85.2961 268.067Z" fill="white" fill-opacity="0.14"/>
<path d="M114.625 268.067L112.292 265.719L109.959 268.067L112.292 270.415L114.625 268.067Z" fill="white" fill-opacity="0.14"/>
<path d="M143.955 268.067L141.622 265.719L139.289 268.067L141.622 270.415L143.955 268.067Z" fill="white" fill-opacity="0.14"/>
<path d="M173.284 268.067L170.951 265.719L168.618 268.067L170.951 270.415L173.284 268.067Z" fill="white" fill-opacity="0.14"/>
<path d="M202.613 268.067L200.28 265.719L197.947 268.067L200.28 270.415L202.613 268.067Z" fill="white" fill-opacity="0.14"/>
<path d="M231.942 268.067L229.609 265.719L227.276 268.067L229.609 270.415L231.942 268.067Z" fill="white" fill-opacity="0.14"/>
<path d="M261.272 268.067L258.939 265.719L256.605 268.067L258.939 270.415L261.272 268.067Z" fill="white" fill-opacity="0.14"/>
<path d="M290.601 268.067L288.268 265.719L285.934 268.067L288.268 270.415L290.601 268.067Z" fill="white" fill-opacity="0.14"/>
<path d="M319.93 268.067L317.597 265.719L315.264 268.067L317.597 270.415L319.93 268.067Z" fill="white" fill-opacity="0.14"/>
<path d="M55.967 297.584L53.634 295.236L51.3008 297.584L53.634 299.932L55.967 297.584Z" fill="white" fill-opacity="0.14"/>
<path d="M85.2961 297.584L82.963 295.236L80.6299 297.584L82.963 299.932L85.2961 297.584Z" fill="white" fill-opacity="0.14"/>
<path d="M114.625 297.584L112.292 295.236L109.959 297.584L112.292 299.932L114.625 297.584Z" fill="white" fill-opacity="0.14"/>
<path d="M143.955 297.584L141.622 295.236L139.289 297.584L141.622 299.932L143.955 297.584Z" fill="white" fill-opacity="0.14"/>
<path d="M173.284 297.584L170.951 295.236L168.618 297.584L170.951 299.932L173.284 297.584Z" fill="white" fill-opacity="0.14"/>
<path d="M202.613 297.584L200.28 295.236L197.947 297.584L200.28 299.932L202.613 297.584Z" fill="white" fill-opacity="0.14"/>
<path d="M231.942 297.584L229.609 295.236L227.276 297.584L229.609 299.932L231.942 297.584Z" fill="white" fill-opacity="0.14"/>
<path d="M261.272 297.584L258.939 295.236L256.605 297.584L258.939 299.932L261.272 297.584Z" fill="white" fill-opacity="0.14"/>
<path d="M290.601 297.584L288.268 295.236L285.934 297.584L288.268 299.932L290.601 297.584Z" fill="white" fill-opacity="0.14"/>
<path d="M319.93 297.584L317.597 295.236L315.264 297.584L317.597 299.932L319.93 297.584Z" fill="white" fill-opacity="0.14"/>
<path d="M55.967 327.101L53.634 324.753L51.3008 327.101L53.634 329.449L55.967 327.101Z" fill="white" fill-opacity="0.14"/>
<path d="M85.2961 327.101L82.963 324.753L80.6299 327.101L82.963 329.449L85.2961 327.101Z" fill="white" fill-opacity="0.14"/>
<path d="M114.625 327.101L112.292 324.753L109.959 327.101L112.292 329.449L114.625 327.101Z" fill="white" fill-opacity="0.14"/>
<path d="M143.955 327.101L141.622 324.753L139.289 327.101L141.622 329.449L143.955 327.101Z" fill="white" fill-opacity="0.14"/>
<path d="M173.284 327.101L170.951 324.753L168.618 327.101L170.951 329.449L173.284 327.101Z" fill="white" fill-opacity="0.14"/>
<path d="M202.613 327.101L200.28 324.753L197.947 327.101L200.28 329.449L202.613 327.101Z" fill="white" fill-opacity="0.14"/>
<path d="M231.942 327.101L229.609 324.753L227.276 327.101L229.609 329.449L231.942 327.101Z" fill="white" fill-opacity="0.14"/>
<path d="M261.272 327.101L258.939 324.753L256.605 327.101L258.939 329.449L261.272 327.101Z" fill="white" fill-opacity="0.14"/>
<path d="M290.601 327.101L288.268 324.753L285.934 327.101L288.268 329.449L290.601 327.101Z" fill="white" fill-opacity="0.14"/>
<path d="M319.93 327.101L317.597 324.753L315.264 327.101L317.597 329.449L319.93 327.101Z" fill="white" fill-opacity="0.14"/>
<path d="M55.967 356.618L53.634 354.27L51.3008 356.618L53.634 358.966L55.967 356.618Z" fill="white" fill-opacity="0.14"/>
<path d="M85.2961 356.618L82.963 354.27L80.6299 356.618L82.963 358.966L85.2961 356.618Z" fill="white" fill-opacity="0.14"/>
<path d="M114.625 356.618L112.292 354.27L109.959 356.618L112.292 358.966L114.625 356.618Z" fill="white" fill-opacity="0.14"/>
<path d="M143.955 356.618L141.622 354.27L139.289 356.618L141.622 358.966L143.955 356.618Z" fill="white" fill-opacity="0.14"/>
<path d="M173.284 356.618L170.951 354.27L168.618 356.618L170.951 358.966L173.284 356.618Z" fill="white" fill-opacity="0.14"/>
<path d="M202.613 356.618L200.28 354.27L197.947 356.618L200.28 358.966L202.613 356.618Z" fill="white" fill-opacity="0.14"/>
<path d="M231.942 356.618L229.609 354.27L227.276 356.618L229.609 358.966L231.942 356.618Z" fill="white" fill-opacity="0.14"/>
<path d="M261.272 356.618L258.939 354.27L256.605 356.618L258.939 358.966L261.272 356.618Z" fill="white" fill-opacity="0.14"/>
<path d="M290.601 356.618L288.268 354.27L285.934 356.618L288.268 358.966L290.601 356.618Z" fill="white" fill-opacity="0.14"/>
<path d="M319.93 356.618L317.597 354.27L315.264 356.618L317.597 358.966L319.93 356.618Z" fill="white" fill-opacity="0.14"/>
<path d="M55.967 386.135L53.634 383.786L51.3008 386.135L53.634 388.483L55.967 386.135Z" fill="white" fill-opacity="0.14"/>
<path d="M85.2961 386.135L82.963 383.786L80.6299 386.135L82.963 388.483L85.2961 386.135Z" fill="white" fill-opacity="0.14"/>
<path d="M114.625 386.135L112.292 383.786L109.959 386.135L112.292 388.483L114.625 386.135Z" fill="white" fill-opacity="0.14"/>
<path d="M143.955 386.135L141.622 383.786L139.289 386.135L141.622 388.483L143.955 386.135Z" fill="white" fill-opacity="0.14"/>
<path d="M173.284 386.135L170.951 383.786L168.618 386.135L170.951 388.483L173.284 386.135Z" fill="white" fill-opacity="0.14"/>
<path d="M202.613 386.135L200.28 383.786L197.947 386.135L200.28 388.483L202.613 386.135Z" fill="white" fill-opacity="0.14"/>
<path d="M231.942 386.135L229.609 383.786L227.276 386.135L229.609 388.483L231.942 386.135Z" fill="white" fill-opacity="0.14"/>
<path d="M261.272 386.135L258.939 383.786L256.605 386.135L258.939 388.483L261.272 386.135Z" fill="white" fill-opacity="0.14"/>
<path d="M290.601 386.135L288.268 383.786L285.934 386.135L288.268 388.483L290.601 386.135Z" fill="white" fill-opacity="0.14"/>
<path d="M319.93 386.135L317.597 383.786L315.264 386.135L317.597 388.483L319.93 386.135Z" fill="white" fill-opacity="0.14"/>
<path d="M55.967 415.652L53.634 413.304L51.3008 415.652L53.634 418L55.967 415.652Z" fill="white" fill-opacity="0.14"/>
<path d="M85.2961 415.652L82.963 413.304L80.6299 415.652L82.963 418L85.2961 415.652Z" fill="white" fill-opacity="0.14"/>
<path d="M114.625 415.652L112.292 413.304L109.959 415.652L112.292 418L114.625 415.652Z" fill="white" fill-opacity="0.14"/>
<path d="M143.955 415.652L141.622 413.304L139.289 415.652L141.622 418L143.955 415.652Z" fill="white" fill-opacity="0.14"/>
<path d="M173.284 415.652L170.951 413.304L168.618 415.652L170.951 418L173.284 415.652Z" fill="white" fill-opacity="0.14"/>
<path d="M202.613 415.652L200.28 413.304L197.947 415.652L200.28 418L202.613 415.652Z" fill="white" fill-opacity="0.14"/>
<path d="M231.942 415.652L229.609 413.304L227.276 415.652L229.609 418L231.942 415.652Z" fill="white" fill-opacity="0.14"/>
<path d="M261.272 415.652L258.939 413.304L256.605 415.652L258.939 418L261.272 415.652Z" fill="white" fill-opacity="0.14"/>
<path d="M290.601 415.652L288.268 413.304L285.934 415.652L288.268 418L290.601 415.652Z" fill="white" fill-opacity="0.14"/>
<path d="M319.93 415.652L317.597 413.304L315.264 415.652L317.597 418L319.93 415.652Z" fill="white" fill-opacity="0.14"/>
<path d="M351.037 -115.652L348.704 -118L346.371 -115.652L348.704 -113.304L351.037 -115.652Z" fill="white" fill-opacity="0.14"/>
<path d="M380.366 -115.652L378.033 -118L375.7 -115.652L378.033 -113.304L380.366 -115.652Z" fill="white" fill-opacity="0.14"/>
<path d="M409.695 -115.652L407.362 -118L405.029 -115.652L407.362 -113.304L409.695 -115.652Z" fill="white" fill-opacity="0.14"/>
<path d="M439.025 -115.652L436.692 -118L434.359 -115.652L436.692 -113.304L439.025 -115.652Z" fill="white" fill-opacity="0.14"/>
<path d="M468.354 -115.652L466.021 -118L463.688 -115.652L466.021 -113.304L468.354 -115.652Z" fill="white" fill-opacity="0.14"/>
<path d="M497.683 -115.652L495.35 -118L493.017 -115.652L495.35 -113.304L497.683 -115.652Z" fill="white" fill-opacity="0.14"/>
<path d="M527.012 -115.652L524.679 -118L522.346 -115.652L524.679 -113.304L527.012 -115.652Z" fill="white" fill-opacity="0.14"/>
<path d="M556.342 -115.652L554.008 -118L551.675 -115.652L554.008 -113.304L556.342 -115.652Z" fill="white" fill-opacity="0.14"/>
<path d="M585.671 -115.652L583.338 -118L581.004 -115.652L583.338 -113.304L585.671 -115.652Z" fill="white" fill-opacity="0.14"/>
<path d="M615 -115.652L612.667 -118L610.334 -115.652L612.667 -113.304L615 -115.652Z" fill="white" fill-opacity="0.14"/>
<path d="M351.037 -86.135L348.704 -88.483L346.371 -86.135L348.704 -83.7869L351.037 -86.135Z" fill="white" fill-opacity="0.14"/>
<path d="M380.366 -86.135L378.033 -88.483L375.7 -86.135L378.033 -83.7869L380.366 -86.135Z" fill="white" fill-opacity="0.14"/>
<path d="M409.695 -86.135L407.362 -88.483L405.029 -86.135L407.362 -83.7869L409.695 -86.135Z" fill="white" fill-opacity="0.14"/>
<path d="M439.025 -86.135L436.692 -88.483L434.359 -86.135L436.692 -83.7869L439.025 -86.135Z" fill="white" fill-opacity="0.14"/>
<path d="M468.354 -86.135L466.021 -88.483L463.688 -86.135L466.021 -83.7869L468.354 -86.135Z" fill="white" fill-opacity="0.14"/>
<path d="M497.683 -86.135L495.35 -88.483L493.017 -86.135L495.35 -83.7869L497.683 -86.135Z" fill="white" fill-opacity="0.14"/>
<path d="M527.012 -86.135L524.679 -88.483L522.346 -86.135L524.679 -83.7869L527.012 -86.135Z" fill="white" fill-opacity="0.14"/>
<path d="M556.342 -86.135L554.008 -88.483L551.675 -86.135L554.008 -83.7869L556.342 -86.135Z" fill="white" fill-opacity="0.14"/>
<path d="M585.671 -86.135L583.338 -88.483L581.004 -86.135L583.338 -83.7869L585.671 -86.135Z" fill="white" fill-opacity="0.14"/>
<path d="M615 -86.135L612.667 -88.483L610.334 -86.135L612.667 -83.7869L615 -86.135Z" fill="white" fill-opacity="0.14"/>
<path d="M351.037 -56.618L348.704 -58.966L346.371 -56.618L348.704 -54.2699L351.037 -56.618Z" fill="white" fill-opacity="0.14"/>
<path d="M380.366 -56.618L378.033 -58.966L375.7 -56.618L378.033 -54.2699L380.366 -56.618Z" fill="white" fill-opacity="0.14"/>
<path d="M409.695 -56.618L407.362 -58.966L405.029 -56.618L407.362 -54.2699L409.695 -56.618Z" fill="white" fill-opacity="0.14"/>
<path d="M439.025 -56.618L436.692 -58.966L434.359 -56.618L436.692 -54.2699L439.025 -56.618Z" fill="white" fill-opacity="0.14"/>
<path d="M468.354 -56.618L466.021 -58.966L463.688 -56.618L466.021 -54.2699L468.354 -56.618Z" fill="white" fill-opacity="0.14"/>
<path d="M497.683 -56.618L495.35 -58.966L493.017 -56.618L495.35 -54.2699L497.683 -56.618Z" fill="white" fill-opacity="0.14"/>
<path d="M527.012 -56.618L524.679 -58.966L522.346 -56.618L524.679 -54.2699L527.012 -56.618Z" fill="white" fill-opacity="0.14"/>
<path d="M556.342 -56.618L554.008 -58.966L551.675 -56.618L554.008 -54.2699L556.342 -56.618Z" fill="white" fill-opacity="0.14"/>
<path d="M585.671 -56.618L583.338 -58.966L581.004 -56.618L583.338 -54.2699L585.671 -56.618Z" fill="white" fill-opacity="0.14"/>
<path d="M615 -56.618L612.667 -58.966L610.334 -56.618L612.667 -54.2699L615 -56.618Z" fill="white" fill-opacity="0.14"/>
<path d="M351.037 -27.101L348.704 -29.4491L346.371 -27.101L348.704 -24.753L351.037 -27.101Z" fill="white" fill-opacity="0.14"/>
<path d="M380.366 -27.101L378.033 -29.4491L375.7 -27.101L378.033 -24.753L380.366 -27.101Z" fill="white" fill-opacity="0.14"/>
<path d="M409.695 -27.101L407.362 -29.4491L405.029 -27.101L407.362 -24.753L409.695 -27.101Z" fill="white" fill-opacity="0.14"/>
<path d="M439.025 -27.101L436.692 -29.4491L434.359 -27.101L436.692 -24.753L439.025 -27.101Z" fill="white" fill-opacity="0.14"/>
<path d="M468.354 -27.101L466.021 -29.4491L463.688 -27.101L466.021 -24.753L468.354 -27.101Z" fill="white" fill-opacity="0.14"/>
<path d="M497.683 -27.101L495.35 -29.4491L493.017 -27.101L495.35 -24.753L497.683 -27.101Z" fill="white" fill-opacity="0.14"/>
<path d="M527.012 -27.101L524.679 -29.4491L522.346 -27.101L524.679 -24.753L527.012 -27.101Z" fill="white" fill-opacity="0.14"/>
<path d="M556.342 -27.101L554.008 -29.4491L551.675 -27.101L554.008 -24.753L556.342 -27.101Z" fill="white" fill-opacity="0.14"/>
<path d="M585.671 -27.101L583.338 -29.4491L581.004 -27.101L583.338 -24.753L585.671 -27.101Z" fill="white" fill-opacity="0.14"/>
<path d="M615 -27.101L612.667 -29.4491L610.334 -27.101L612.667 -24.753L615 -27.101Z" fill="white" fill-opacity="0.14"/>
<path d="M351.037 2.41562L348.704 0.0675659L346.371 2.41562L348.704 4.76367L351.037 2.41562Z" fill="white" fill-opacity="0.14"/>
<path d="M380.366 2.41562L378.033 0.0675659L375.7 2.41562L378.033 4.76367L380.366 2.41562Z" fill="white" fill-opacity="0.14"/>
<path d="M409.695 2.41562L407.362 0.0675659L405.029 2.41562L407.362 4.76367L409.695 2.41562Z" fill="white" fill-opacity="0.14"/>
<path d="M439.025 2.41562L436.692 0.0675659L434.359 2.41562L436.692 4.76367L439.025 2.41562Z" fill="white" fill-opacity="0.14"/>
<path d="M468.354 2.41562L466.021 0.0675659L463.688 2.41562L466.021 4.76367L468.354 2.41562Z" fill="white" fill-opacity="0.14"/>
<path d="M497.683 2.41562L495.35 0.0675659L493.017 2.41562L495.35 4.76367L497.683 2.41562Z" fill="white" fill-opacity="0.14"/>
<path d="M527.012 2.41562L524.679 0.0675659L522.346 2.41562L524.679 4.76367L527.012 2.41562Z" fill="white" fill-opacity="0.14"/>
<path d="M556.342 2.41562L554.008 0.0675659L551.675 2.41562L554.008 4.76367L556.342 2.41562Z" fill="white" fill-opacity="0.14"/>
<path d="M585.671 2.41562L583.338 0.0675659L581.004 2.41562L583.338 4.76367L585.671 2.41562Z" fill="white" fill-opacity="0.14"/>
<path d="M615 2.41562L612.667 0.0675659L610.334 2.41562L612.667 4.76367L615 2.41562Z" fill="white" fill-opacity="0.14"/>
<path d="M351.037 31.9326L348.704 29.5845L346.371 31.9326L348.704 34.2806L351.037 31.9326Z" fill="white" fill-opacity="0.14"/>
<path d="M380.366 31.9326L378.033 29.5845L375.7 31.9326L378.033 34.2806L380.366 31.9326Z" fill="white" fill-opacity="0.14"/>
<path d="M409.695 31.9326L407.362 29.5845L405.029 31.9326L407.362 34.2806L409.695 31.9326Z" fill="white" fill-opacity="0.14"/>
<path d="M439.025 31.9326L436.692 29.5845L434.359 31.9326L436.692 34.2806L439.025 31.9326Z" fill="white" fill-opacity="0.14"/>
<path d="M468.354 31.9326L466.021 29.5845L463.688 31.9326L466.021 34.2806L468.354 31.9326Z" fill="white" fill-opacity="0.14"/>
<path d="M497.683 31.9326L495.35 29.5845L493.017 31.9326L495.35 34.2806L497.683 31.9326Z" fill="white" fill-opacity="0.14"/>
<path d="M527.012 31.9326L524.679 29.5845L522.346 31.9326L524.679 34.2806L527.012 31.9326Z" fill="white" fill-opacity="0.14"/>
<path d="M556.342 31.9326L554.008 29.5845L551.675 31.9326L554.008 34.2806L556.342 31.9326Z" fill="white" fill-opacity="0.14"/>
<path d="M585.671 31.9326L583.338 29.5845L581.004 31.9326L583.338 34.2806L585.671 31.9326Z" fill="white" fill-opacity="0.14"/>
<path d="M615 31.9326L612.667 29.5845L610.334 31.9326L612.667 34.2806L615 31.9326Z" fill="white" fill-opacity="0.14"/>
<path d="M351.037 61.4496L348.704 59.1015L346.371 61.4496L348.704 63.7976L351.037 61.4496Z" fill="white" fill-opacity="0.14"/>
<path d="M380.366 61.4496L378.033 59.1015L375.7 61.4496L378.033 63.7976L380.366 61.4496Z" fill="white" fill-opacity="0.14"/>
<path d="M409.695 61.4496L407.362 59.1015L405.029 61.4496L407.362 63.7976L409.695 61.4496Z" fill="white" fill-opacity="0.14"/>
<path d="M439.025 61.4496L436.692 59.1015L434.359 61.4496L436.692 63.7976L439.025 61.4496Z" fill="white" fill-opacity="0.14"/>
<path d="M468.354 61.4496L466.021 59.1015L463.688 61.4496L466.021 63.7976L468.354 61.4496Z" fill="white" fill-opacity="0.14"/>
<path d="M497.683 61.4496L495.35 59.1015L493.017 61.4496L495.35 63.7976L497.683 61.4496Z" fill="white" fill-opacity="0.14"/>
<path d="M527.012 61.4496L524.679 59.1015L522.346 61.4496L524.679 63.7976L527.012 61.4496Z" fill="white" fill-opacity="0.14"/>
<path d="M556.342 61.4496L554.008 59.1015L551.675 61.4496L554.008 63.7976L556.342 61.4496Z" fill="white" fill-opacity="0.14"/>
<path d="M585.671 61.4496L583.338 59.1015L581.004 61.4496L583.338 63.7976L585.671 61.4496Z" fill="white" fill-opacity="0.14"/>
<path d="M615 61.4496L612.667 59.1015L610.334 61.4496L612.667 63.7976L615 61.4496Z" fill="white" fill-opacity="0.14"/>
<path d="M351.037 90.9659L348.704 88.6178L346.371 90.9659L348.704 93.3139L351.037 90.9659Z" fill="white" fill-opacity="0.14"/>
<path d="M380.366 90.9659L378.033 88.6178L375.7 90.9659L378.033 93.3139L380.366 90.9659Z" fill="white" fill-opacity="0.14"/>
<path d="M409.695 90.9659L407.362 88.6178L405.029 90.9659L407.362 93.3139L409.695 90.9659Z" fill="white" fill-opacity="0.14"/>
<path d="M439.025 90.9659L436.692 88.6178L434.359 90.9659L436.692 93.3139L439.025 90.9659Z" fill="white" fill-opacity="0.14"/>
<path d="M468.354 90.9659L466.021 88.6178L463.688 90.9659L466.021 93.3139L468.354 90.9659Z" fill="white" fill-opacity="0.14"/>
<path d="M497.683 90.9659L495.35 88.6178L493.017 90.9659L495.35 93.3139L497.683 90.9659Z" fill="white" fill-opacity="0.14"/>
<path d="M527.012 90.9659L524.679 88.6178L522.346 90.9659L524.679 93.3139L527.012 90.9659Z" fill="white" fill-opacity="0.14"/>
<path d="M556.342 90.9659L554.008 88.6178L551.675 90.9659L554.008 93.3139L556.342 90.9659Z" fill="white" fill-opacity="0.14"/>
<path d="M585.671 90.9659L583.338 88.6178L581.004 90.9659L583.338 93.3139L585.671 90.9659Z" fill="white" fill-opacity="0.14"/>
<path d="M615 90.9659L612.667 88.6178L610.334 90.9659L612.667 93.3139L615 90.9659Z" fill="white" fill-opacity="0.14"/>
<path d="M351.037 120.483L348.704 118.135L346.371 120.483L348.704 122.831L351.037 120.483Z" fill="white" fill-opacity="0.14"/>
<path d="M380.366 120.483L378.033 118.135L375.7 120.483L378.033 122.831L380.366 120.483Z" fill="white" fill-opacity="0.14"/>
<path d="M409.695 120.483L407.362 118.135L405.029 120.483L407.362 122.831L409.695 120.483Z" fill="white" fill-opacity="0.14"/>
<path d="M439.025 120.483L436.692 118.135L434.359 120.483L436.692 122.831L439.025 120.483Z" fill="white" fill-opacity="0.14"/>
<path d="M468.354 120.483L466.021 118.135L463.688 120.483L466.021 122.831L468.354 120.483Z" fill="white" fill-opacity="0.14"/>
<path d="M497.683 120.483L495.35 118.135L493.017 120.483L495.35 122.831L497.683 120.483Z" fill="white" fill-opacity="0.14"/>
<path d="M527.012 120.483L524.679 118.135L522.346 120.483L524.679 122.831L527.012 120.483Z" fill="white" fill-opacity="0.14"/>
<path d="M556.342 120.483L554.008 118.135L551.675 120.483L554.008 122.831L556.342 120.483Z" fill="white" fill-opacity="0.14"/>
<path d="M585.671 120.483L583.338 118.135L581.004 120.483L583.338 122.831L585.671 120.483Z" fill="white" fill-opacity="0.14"/>
<path d="M615 120.483L612.667 118.135L610.334 120.483L612.667 122.831L615 120.483Z" fill="white" fill-opacity="0.14"/>
<path d="M351.037 150L348.704 147.652L346.371 150L348.704 152.348L351.037 150Z" fill="white" fill-opacity="0.14"/>
<path d="M380.366 150L378.033 147.652L375.7 150L378.033 152.348L380.366 150Z" fill="white" fill-opacity="0.14"/>
<path d="M409.695 150L407.362 147.652L405.029 150L407.362 152.348L409.695 150Z" fill="white" fill-opacity="0.14"/>
<path d="M439.025 150L436.692 147.652L434.359 150L436.692 152.348L439.025 150Z" fill="white" fill-opacity="0.14"/>
<path d="M468.354 150L466.021 147.652L463.688 150L466.021 152.348L468.354 150Z" fill="white" fill-opacity="0.14"/>
<path d="M497.683 150L495.35 147.652L493.017 150L495.35 152.348L497.683 150Z" fill="white" fill-opacity="0.14"/>
<path d="M527.012 150L524.679 147.652L522.346 150L524.679 152.348L527.012 150Z" fill="white" fill-opacity="0.14"/>
<path d="M556.342 150L554.008 147.652L551.675 150L554.008 152.348L556.342 150Z" fill="white" fill-opacity="0.14"/>
<path d="M585.671 150L583.338 147.652L581.004 150L583.338 152.348L585.671 150Z" fill="white" fill-opacity="0.14"/>
<path d="M615 150L612.667 147.652L610.334 150L612.667 152.348L615 150Z" fill="white" fill-opacity="0.14"/>
<path d="M351.037 179.517L348.704 177.169L346.371 179.517L348.704 181.865L351.037 179.517Z" fill="white" fill-opacity="0.14"/>
<path d="M380.366 179.517L378.033 177.169L375.7 179.517L378.033 181.865L380.366 179.517Z" fill="white" fill-opacity="0.14"/>
<path d="M409.695 179.517L407.362 177.169L405.029 179.517L407.362 181.865L409.695 179.517Z" fill="white" fill-opacity="0.14"/>
<path d="M439.025 179.517L436.692 177.169L434.359 179.517L436.692 181.865L439.025 179.517Z" fill="white" fill-opacity="0.14"/>
<path d="M468.354 179.517L466.021 177.169L463.688 179.517L466.021 181.865L468.354 179.517Z" fill="white" fill-opacity="0.14"/>
<path d="M497.683 179.517L495.35 177.169L493.017 179.517L495.35 181.865L497.683 179.517Z" fill="white" fill-opacity="0.14"/>
<path d="M527.012 179.517L524.679 177.169L522.346 179.517L524.679 181.865L527.012 179.517Z" fill="white" fill-opacity="0.14"/>
<path d="M556.342 179.517L554.008 177.169L551.675 179.517L554.008 181.865L556.342 179.517Z" fill="white" fill-opacity="0.14"/>
<path d="M585.671 179.517L583.338 177.169L581.004 179.517L583.338 181.865L585.671 179.517Z" fill="white" fill-opacity="0.14"/>
<path d="M615 179.517L612.667 177.169L610.334 179.517L612.667 181.865L615 179.517Z" fill="white" fill-opacity="0.14"/>
<path d="M351.037 209.033L348.704 206.685L346.371 209.033L348.704 211.381L351.037 209.033Z" fill="white" fill-opacity="0.14"/>
<path d="M380.366 209.033L378.033 206.685L375.7 209.033L378.033 211.381L380.366 209.033Z" fill="white" fill-opacity="0.14"/>
<path d="M409.695 209.033L407.362 206.685L405.029 209.033L407.362 211.381L409.695 209.033Z" fill="white" fill-opacity="0.14"/>
<path d="M439.025 209.033L436.692 206.685L434.359 209.033L436.692 211.381L439.025 209.033Z" fill="white" fill-opacity="0.14"/>
<path d="M468.354 209.033L466.021 206.685L463.688 209.033L466.021 211.381L468.354 209.033Z" fill="white" fill-opacity="0.14"/>
<path d="M497.683 209.033L495.35 206.685L493.017 209.033L495.35 211.381L497.683 209.033Z" fill="white" fill-opacity="0.14"/>
<path d="M527.012 209.033L524.679 206.685L522.346 209.033L524.679 211.381L527.012 209.033Z" fill="white" fill-opacity="0.14"/>
<path d="M556.342 209.033L554.008 206.685L551.675 209.033L554.008 211.381L556.342 209.033Z" fill="white" fill-opacity="0.14"/>
<path d="M585.671 209.033L583.338 206.685L581.004 209.033L583.338 211.381L585.671 209.033Z" fill="white" fill-opacity="0.14"/>
<path d="M615 209.033L612.667 206.685L610.334 209.033L612.667 211.381L615 209.033Z" fill="white" fill-opacity="0.14"/>
<path d="M351.037 238.551L348.704 236.203L346.371 238.551L348.704 240.899L351.037 238.551Z" fill="white" fill-opacity="0.14"/>
<path d="M380.366 238.551L378.033 236.203L375.7 238.551L378.033 240.899L380.366 238.551Z" fill="white" fill-opacity="0.14"/>
<path d="M409.695 238.551L407.362 236.203L405.029 238.551L407.362 240.899L409.695 238.551Z" fill="white" fill-opacity="0.14"/>
<path d="M439.025 238.551L436.692 236.203L434.359 238.551L436.692 240.899L439.025 238.551Z" fill="white" fill-opacity="0.14"/>
<path d="M468.354 238.551L466.021 236.203L463.688 238.551L466.021 240.899L468.354 238.551Z" fill="white" fill-opacity="0.14"/>
<path d="M497.683 238.551L495.35 236.203L493.017 238.551L495.35 240.899L497.683 238.551Z" fill="white" fill-opacity="0.14"/>
<path d="M527.012 238.551L524.679 236.203L522.346 238.551L524.679 240.899L527.012 238.551Z" fill="white" fill-opacity="0.14"/>
<path d="M556.342 238.551L554.008 236.203L551.675 238.551L554.008 240.899L556.342 238.551Z" fill="white" fill-opacity="0.14"/>
<path d="M585.671 238.551L583.338 236.203L581.004 238.551L583.338 240.899L585.671 238.551Z" fill="white" fill-opacity="0.14"/>
<path d="M615 238.551L612.667 236.203L610.334 238.551L612.667 240.899L615 238.551Z" fill="white" fill-opacity="0.14"/>
<path d="M351.037 268.067L348.704 265.719L346.371 268.067L348.704 270.415L351.037 268.067Z" fill="white" fill-opacity="0.14"/>
<path d="M380.366 268.067L378.033 265.719L375.7 268.067L378.033 270.415L380.366 268.067Z" fill="white" fill-opacity="0.14"/>
<path d="M409.695 268.067L407.362 265.719L405.029 268.067L407.362 270.415L409.695 268.067Z" fill="white" fill-opacity="0.14"/>
<path d="M439.025 268.067L436.692 265.719L434.359 268.067L436.692 270.415L439.025 268.067Z" fill="white" fill-opacity="0.14"/>
<path d="M468.354 268.067L466.021 265.719L463.688 268.067L466.021 270.415L468.354 268.067Z" fill="white" fill-opacity="0.14"/>
<path d="M497.683 268.067L495.35 265.719L493.017 268.067L495.35 270.415L497.683 268.067Z" fill="white" fill-opacity="0.14"/>
<path d="M527.012 268.067L524.679 265.719L522.346 268.067L524.679 270.415L527.012 268.067Z" fill="white" fill-opacity="0.14"/>
<path d="M556.342 268.067L554.008 265.719L551.675 268.067L554.008 270.415L556.342 268.067Z" fill="white" fill-opacity="0.14"/>
<path d="M585.671 268.067L583.338 265.719L581.004 268.067L583.338 270.415L585.671 268.067Z" fill="white" fill-opacity="0.14"/>
<path d="M615 268.067L612.667 265.719L610.334 268.067L612.667 270.415L615 268.067Z" fill="white" fill-opacity="0.14"/>
<path d="M351.037 297.584L348.704 295.236L346.371 297.584L348.704 299.932L351.037 297.584Z" fill="white" fill-opacity="0.14"/>
<path d="M380.366 297.584L378.033 295.236L375.7 297.584L378.033 299.932L380.366 297.584Z" fill="white" fill-opacity="0.14"/>
<path d="M409.695 297.584L407.362 295.236L405.029 297.584L407.362 299.932L409.695 297.584Z" fill="white" fill-opacity="0.14"/>
<path d="M439.025 297.584L436.692 295.236L434.359 297.584L436.692 299.932L439.025 297.584Z" fill="white" fill-opacity="0.14"/>
<path d="M468.354 297.584L466.021 295.236L463.688 297.584L466.021 299.932L468.354 297.584Z" fill="white" fill-opacity="0.14"/>
<path d="M497.683 297.584L495.35 295.236L493.017 297.584L495.35 299.932L497.683 297.584Z" fill="white" fill-opacity="0.14"/>
<path d="M527.012 297.584L524.679 295.236L522.346 297.584L524.679 299.932L527.012 297.584Z" fill="white" fill-opacity="0.14"/>
<path d="M556.342 297.584L554.008 295.236L551.675 297.584L554.008 299.932L556.342 297.584Z" fill="white" fill-opacity="0.14"/>
<path d="M585.671 297.584L583.338 295.236L581.004 297.584L583.338 299.932L585.671 297.584Z" fill="white" fill-opacity="0.14"/>
<path d="M615 297.584L612.667 295.236L610.334 297.584L612.667 299.932L615 297.584Z" fill="white" fill-opacity="0.14"/>
<path d="M351.037 327.101L348.704 324.753L346.371 327.101L348.704 329.449L351.037 327.101Z" fill="white" fill-opacity="0.14"/>
<path d="M380.366 327.101L378.033 324.753L375.7 327.101L378.033 329.449L380.366 327.101Z" fill="white" fill-opacity="0.14"/>
<path d="M409.695 327.101L407.362 324.753L405.029 327.101L407.362 329.449L409.695 327.101Z" fill="white" fill-opacity="0.14"/>
<path d="M439.025 327.101L436.692 324.753L434.359 327.101L436.692 329.449L439.025 327.101Z" fill="white" fill-opacity="0.14"/>
<path d="M468.354 327.101L466.021 324.753L463.688 327.101L466.021 329.449L468.354 327.101Z" fill="white" fill-opacity="0.14"/>
<path d="M497.683 327.101L495.35 324.753L493.017 327.101L495.35 329.449L497.683 327.101Z" fill="white" fill-opacity="0.14"/>
<path d="M527.012 327.101L524.679 324.753L522.346 327.101L524.679 329.449L527.012 327.101Z" fill="white" fill-opacity="0.14"/>
<path d="M556.342 327.101L554.008 324.753L551.675 327.101L554.008 329.449L556.342 327.101Z" fill="white" fill-opacity="0.14"/>
<path d="M585.671 327.101L583.338 324.753L581.004 327.101L583.338 329.449L585.671 327.101Z" fill="white" fill-opacity="0.14"/>
<path d="M615 327.101L612.667 324.753L610.334 327.101L612.667 329.449L615 327.101Z" fill="white" fill-opacity="0.14"/>
<path d="M351.037 356.618L348.704 354.27L346.371 356.618L348.704 358.966L351.037 356.618Z" fill="white" fill-opacity="0.14"/>
<path d="M380.366 356.618L378.033 354.27L375.7 356.618L378.033 358.966L380.366 356.618Z" fill="white" fill-opacity="0.14"/>
<path d="M409.695 356.618L407.362 354.27L405.029 356.618L407.362 358.966L409.695 356.618Z" fill="white" fill-opacity="0.14"/>
<path d="M439.025 356.618L436.692 354.27L434.359 356.618L436.692 358.966L439.025 356.618Z" fill="white" fill-opacity="0.14"/>
<path d="M468.354 356.618L466.021 354.27L463.688 356.618L466.021 358.966L468.354 356.618Z" fill="white" fill-opacity="0.14"/>
<path d="M497.683 356.618L495.35 354.27L493.017 356.618L495.35 358.966L497.683 356.618Z" fill="white" fill-opacity="0.14"/>
<path d="M527.012 356.618L524.679 354.27L522.346 356.618L524.679 358.966L527.012 356.618Z" fill="white" fill-opacity="0.14"/>
<path d="M556.342 356.618L554.008 354.27L551.675 356.618L554.008 358.966L556.342 356.618Z" fill="white" fill-opacity="0.14"/>
<path d="M585.671 356.618L583.338 354.27L581.004 356.618L583.338 358.966L585.671 356.618Z" fill="white" fill-opacity="0.14"/>
<path d="M615 356.618L612.667 354.27L610.334 356.618L612.667 358.966L615 356.618Z" fill="white" fill-opacity="0.14"/>
<path d="M351.037 386.135L348.704 383.786L346.371 386.135L348.704 388.483L351.037 386.135Z" fill="white" fill-opacity="0.14"/>
<path d="M380.366 386.135L378.033 383.786L375.7 386.135L378.033 388.483L380.366 386.135Z" fill="white" fill-opacity="0.14"/>
<path d="M409.695 386.135L407.362 383.786L405.029 386.135L407.362 388.483L409.695 386.135Z" fill="white" fill-opacity="0.14"/>
<path d="M439.025 386.135L436.692 383.786L434.359 386.135L436.692 388.483L439.025 386.135Z" fill="white" fill-opacity="0.14"/>
<path d="M468.354 386.135L466.021 383.786L463.688 386.135L466.021 388.483L468.354 386.135Z" fill="white" fill-opacity="0.14"/>
<path d="M497.683 386.135L495.35 383.786L493.017 386.135L495.35 388.483L497.683 386.135Z" fill="white" fill-opacity="0.14"/>
<path d="M527.012 386.135L524.679 383.786L522.346 386.135L524.679 388.483L527.012 386.135Z" fill="white" fill-opacity="0.14"/>
<path d="M556.342 386.135L554.008 383.786L551.675 386.135L554.008 388.483L556.342 386.135Z" fill="white" fill-opacity="0.14"/>
<path d="M585.671 386.135L583.338 383.786L581.004 386.135L583.338 388.483L585.671 386.135Z" fill="white" fill-opacity="0.14"/>
<path d="M615 386.135L612.667 383.786L610.334 386.135L612.667 388.483L615 386.135Z" fill="white" fill-opacity="0.14"/>
<path d="M351.037 415.652L348.704 413.304L346.371 415.652L348.704 418L351.037 415.652Z" fill="white" fill-opacity="0.14"/>
<path d="M380.366 415.652L378.033 413.304L375.7 415.652L378.033 418L380.366 415.652Z" fill="white" fill-opacity="0.14"/>
<path d="M409.695 415.652L407.362 413.304L405.029 415.652L407.362 418L409.695 415.652Z" fill="white" fill-opacity="0.14"/>
<path d="M439.025 415.652L436.692 413.304L434.359 415.652L436.692 418L439.025 415.652Z" fill="white" fill-opacity="0.14"/>
<path d="M468.354 415.652L466.021 413.304L463.688 415.652L466.021 418L468.354 415.652Z" fill="white" fill-opacity="0.14"/>
<path d="M497.683 415.652L495.35 413.304L493.017 415.652L495.35 418L497.683 415.652Z" fill="white" fill-opacity="0.14"/>
<path d="M527.012 415.652L524.679 413.304L522.346 415.652L524.679 418L527.012 415.652Z" fill="white" fill-opacity="0.14"/>
<path d="M556.342 415.652L554.008 413.304L551.675 415.652L554.008 418L556.342 415.652Z" fill="white" fill-opacity="0.14"/>
<path d="M585.671 415.652L583.338 413.304L581.004 415.652L583.338 418L585.671 415.652Z" fill="white" fill-opacity="0.14"/>
<path d="M615 415.652L612.667 413.304L610.334 415.652L612.667 418L615 415.652Z" fill="white" fill-opacity="0.14"/>
</g>
<defs>
<clipPath id="clip0_712_18149">
<rect width="375" height="300" fill="white"/>
</clipPath>
</defs>
</svg>
