<svg width="680" height="212" viewBox="0 0 680 212" fill="none" xmlns="http://www.w3.org/2000/svg">
<path opacity="0.12" d="M475.268 5.662L467.97 1L460.672 5.662L453.375 1L446.077 5.662L438.779 1L431.479 5.662L424.181 1L416.883 5.662L409.588 1L402.29 5.662L394.992 1L387.694 5.662L380.397 1L373.099 5.662L365.804 1L358.506 5.662L351.208 1L343.91 5.662L336.615 1L329.315 5.66203L322.015 1.00003L314.717 5.66203L307.417 1.00003L300.119 5.66203L292.821 1.00003L285.523 5.66203L278.226 1.00003L270.925 5.66203L263.627 1.00003L256.33 5.66203L249.032 1.00003L241.734 5.66203L234.436 1.00003L227.136 5.66203L219.838 1.00003L212.54 5.66203L205.245 1.00003L197.947 5.66203L190.65 1.00003L183.352 5.66203L176.054 1.00003L168.756 5.66203L161.461 1.00003L154.163 5.66203L146.865 1.00003L139.569 5.66203M475.268 5.662L482.568 1L489.866 5.662L497.164 1L504.462 5.662L511.759 1L519.06 5.662L526.358 1L533.658 5.662L540.958 1L548.259 5.662M475.268 5.662L467.972 1M475.268 5.662L482.565 1L489.862 5.662L497.16 1L504.455 5.662L511.753 1L519.051 5.662L526.349 1L533.646 5.662L540.944 1L548.239 5.662L555.537 1L562.835 5.662L570.135 1L577.433 5.662L584.731 1L592.029 5.662L599.327 1L606.624 5.662L613.925 1L621.223 5.662L628.52 1L635.818 5.662L643.116 1L650.416 5.662L657.714 1L665.014 5.662L672.315 1L679.615 5.662M475.268 43L467.97 38.338L460.672 43L453.375 38.338L446.077 43L438.779 38.338L431.479 43L424.181 38.338L416.883 43L409.588 38.338L402.29 43L394.992 38.338L387.694 43L380.397 38.338L373.099 43L365.804 38.338L358.506 43L351.208 38.338L343.91 43L336.615 38.338L329.315 43L322.015 38.338L314.717 43L307.417 38.338L300.119 43L292.821 38.338L285.523 43L278.226 38.338L270.925 43L263.627 38.338L256.33 43L249.032 38.338L241.734 43L234.436 38.338L227.136 43L219.838 38.338L212.54 43L205.245 38.338L197.947 43L190.65 38.338L183.352 43L176.054 38.338L168.756 43L161.461 38.338L154.163 43L146.865 38.338L139.569 43M475.268 43L482.568 38.338L489.866 43L497.164 38.338L504.462 43L511.759 38.338L519.06 43L526.358 38.338L533.658 43L540.958 38.338L548.259 43M475.268 43L467.972 38.338M475.268 43L482.565 38.338L489.862 43L497.16 38.338L504.455 43L511.753 38.338L519.051 43L526.349 38.338L533.646 43L540.944 38.338L548.239 43L555.537 38.338L562.835 43L570.135 38.338L577.433 43L584.731 38.338L592.029 43L599.327 38.338L606.624 43L613.925 38.338L621.223 43L628.52 38.338L635.818 43L643.116 38.338L650.416 43L657.714 38.338L665.014 43L672.315 38.338L679.615 43M475.268 122.338L467.97 117.676L460.672 122.338L453.375 117.676L446.077 122.338L438.779 117.676L431.479 122.338L424.181 117.676L416.883 122.338L409.588 117.676L402.29 122.338L394.992 117.676L387.694 122.338L380.397 117.676L373.099 122.338L365.804 117.676L358.506 122.338L351.208 117.676L343.91 122.338L336.615 117.676L329.315 122.338L322.015 117.676L314.717 122.338L307.417 117.676L300.119 122.338L292.821 117.676L285.523 122.338L278.226 117.676L270.925 122.338L263.627 117.676L256.33 122.338L249.032 117.676L241.734 122.338L234.436 117.676L227.136 122.338L219.838 117.676L212.54 122.338L205.245 117.676L197.947 122.338L190.65 117.676L183.352 122.338L176.054 117.676L168.756 122.338L161.461 117.676L154.163 122.338L146.865 117.676L139.569 122.338M475.268 122.338L482.568 117.676L489.866 122.338L497.164 117.676L504.462 122.338L511.759 117.676L519.06 122.338L526.358 117.676L533.658 122.338L540.958 117.676L548.259 122.338M475.268 122.338L467.972 117.676M475.268 122.338L482.565 117.676L489.862 122.338L497.16 117.676L504.455 122.338L511.753 117.676L519.051 122.338L526.349 117.676L533.646 122.338L540.944 117.676L548.239 122.338L555.537 117.676L562.835 122.338L570.135 117.676L577.433 122.338L584.731 117.676L592.029 122.338L599.327 117.676L606.624 122.338L613.925 117.676L621.223 122.338L628.52 117.676L635.818 122.338L643.116 117.676L650.416 122.338L657.714 117.676L665.014 122.338L672.315 117.676L679.615 122.338M475.268 80.3382L467.97 75.6762L460.672 80.3382L453.375 75.6762L446.077 80.3382L438.779 75.6762L431.479 80.3382L424.181 75.6762L416.883 80.3382L409.588 75.6762L402.29 80.3382L394.992 75.6762L387.694 80.3382L380.397 75.6762L373.099 80.3382L365.804 75.6762L358.506 80.3382L351.208 75.6762L343.91 80.3382L336.615 75.6762L329.315 80.3382L322.015 75.6762L314.717 80.3382L307.417 75.6762L300.119 80.3382L292.821 75.6762L285.523 80.3382L278.226 75.6762L270.925 80.3382L263.627 75.6762L256.33 80.3382L249.032 75.6762L241.734 80.3382L234.436 75.6762L227.136 80.3382L219.838 75.6762L212.54 80.3382L205.245 75.6762L197.947 80.3382L190.65 75.6762L183.352 80.3382L176.054 75.6762L168.756 80.3382L161.461 75.6762L154.163 80.3382L146.865 75.6762L139.569 80.3382M475.268 80.3382L482.568 75.6762L489.866 80.3382L497.164 75.6762L504.462 80.3382L511.759 75.6762L519.06 80.3382L526.358 75.6762L533.658 80.3382L540.958 75.6762L548.259 80.3382M475.268 80.3382L467.972 75.6762M475.268 80.3382L482.565 75.6762L489.862 80.3382L497.16 75.6762L504.455 80.3382L511.753 75.6762L519.051 80.3382L526.349 75.6762L533.646 80.3382L540.944 75.6762L548.239 80.3382L555.537 75.6762L562.835 80.3382L570.135 75.6762L577.433 80.3382L584.731 75.6762L592.029 80.3382L599.327 75.6762L606.624 80.3382L613.925 75.6762L621.223 80.3382L628.52 75.6762L635.818 80.3382L643.116 75.6762L650.416 80.3382L657.714 75.6762L665.014 80.3382L672.315 75.6762L679.615 80.3382M475.268 159.676L467.97 154.993L460.672 159.676L453.375 154.993L446.077 159.676L438.779 154.993L431.479 159.676L424.181 154.993L416.883 159.676L409.588 154.993L402.29 159.676L394.992 154.993L387.694 159.676L380.397 154.993L373.099 159.676L365.804 154.993L358.506 159.676L351.208 154.993L343.91 159.676L336.615 154.993L329.315 159.676L322.015 154.993L314.717 159.676L307.417 154.993L300.119 159.676L292.821 154.993L285.523 159.676L278.226 154.993L270.925 159.676L263.627 154.993L256.33 159.676L249.032 154.993L241.734 159.676L234.436 154.993L227.136 159.676L219.838 154.993L212.54 159.676L205.245 154.993L197.947 159.676L190.65 154.993L183.352 159.676L176.054 154.993L168.756 159.676L161.461 154.993L154.163 159.676L146.865 154.993L139.569 159.676M475.268 159.676L482.568 154.993L489.866 159.676L497.164 154.993L504.462 159.676L511.759 154.993L519.06 159.676L526.358 154.993L533.658 159.676L540.958 154.993L548.259 159.676M475.268 159.676L467.972 154.993M475.268 159.676L482.565 154.993L489.862 159.676L497.16 154.993L504.455 159.676L511.753 154.993L519.051 159.676L526.349 154.993L533.646 159.676L540.944 154.993L548.239 159.676L555.537 154.993L562.835 159.676L570.135 154.993L577.433 159.676L584.731 154.993L592.029 159.676L599.327 154.993L606.624 159.676L613.925 154.993L621.223 159.676L628.52 154.993L635.818 159.676L643.116 154.993L650.416 159.676L657.714 154.993L665.014 159.676L672.315 154.993L679.615 159.676M475.268 24.3311L467.97 19.6691L460.672 24.3311L453.375 19.6691L446.077 24.3311L438.779 19.6691L431.479 24.3311L424.181 19.6691L416.883 24.3311L409.588 19.6691L402.29 24.3311L394.992 19.6691L387.694 24.3311L380.397 19.6691L373.099 24.3311L365.804 19.6691L358.506 24.3311L351.208 19.6691L343.91 24.3311L336.615 19.6691L329.315 24.3311L322.015 19.6691L314.717 24.3311L307.417 19.6691L300.119 24.3311L292.821 19.6691L285.523 24.3311L278.226 19.6691L270.925 24.3311L263.627 19.6691L256.33 24.3311L249.032 19.6691L241.734 24.3311L234.436 19.6691L227.136 24.3311L219.838 19.6691L212.54 24.3311L205.245 19.6691L197.947 24.3311L190.65 19.6691L183.352 24.3311L176.054 19.6691L168.756 24.3311L161.461 19.6691L154.163 24.3311L146.865 19.6691L139.569 24.3311M475.268 24.3311L482.568 19.6691L489.866 24.3311L497.164 19.6691L504.462 24.3311L511.759 19.6691L519.06 24.3311L526.358 19.6691L533.658 24.3311L540.958 19.6691L548.259 24.3311M475.268 24.3311L467.972 19.6691M475.268 24.3311L482.565 19.6691L489.862 24.3311L497.16 19.6691L504.455 24.3311L511.753 19.6691L519.051 24.3311L526.349 19.6691L533.646 24.3311L540.944 19.6691L548.239 24.3311L555.537 19.6691L562.835 24.3311L570.135 19.6691L577.433 24.3311L584.731 19.6691L592.029 24.3311L599.327 19.6691L606.624 24.3311L613.925 19.6691L621.223 24.3311L628.52 19.6691L635.818 24.3311L643.116 19.6691L650.416 24.3311L657.714 19.6691L665.014 24.3311L672.315 19.6691L679.615 24.3311M475.268 61.6692L467.97 57.0072L460.672 61.6692L453.375 57.0072L446.077 61.6692L438.779 57.0072L431.479 61.6692L424.181 57.0072L416.883 61.6692L409.588 57.0072L402.29 61.6692L394.992 57.0072L387.694 61.6692L380.397 57.0072L373.099 61.6692L365.804 57.0072L358.506 61.6692L351.208 57.0072L343.91 61.6692L336.615 57.0072L329.315 61.6692L322.015 57.0072L314.717 61.6692L307.417 57.0072L300.119 61.6692L292.821 57.0072L285.523 61.6692L278.226 57.0072L270.925 61.6692L263.627 57.0072L256.33 61.6692L249.032 57.0072L241.734 61.6692L234.436 57.0072L227.136 61.6692L219.838 57.0072L212.54 61.6692L205.245 57.0072L197.947 61.6692L190.65 57.0072L183.352 61.6692L176.054 57.0072L168.756 61.6692L161.461 57.0072L154.163 61.6692L146.865 57.0072L139.569 61.6692M475.268 61.6692L482.568 57.0072L489.866 61.6692L497.164 57.0072L504.462 61.6692L511.759 57.0072L519.06 61.6692L526.358 57.0072L533.658 61.6692L540.958 57.0072L548.259 61.6692M475.268 61.6692L467.972 57.0072M475.268 61.6692L482.565 57.0072L489.862 61.6692L497.16 57.0072L504.455 61.6692L511.753 57.0072L519.051 61.6692L526.349 57.0072L533.646 61.6692L540.944 57.0072L548.239 61.6692L555.537 57.0072L562.835 61.6692L570.135 57.0072L577.433 61.6692L584.731 57.0072L592.029 61.6692L599.327 57.0072L606.624 61.6692L613.925 57.0072L621.223 61.6692L628.52 57.0072L635.818 61.6692L643.116 57.0072L650.416 61.6692L657.714 57.0072L665.014 61.6692L672.315 57.0072L679.615 61.6692M475.268 141.007L467.97 136.324L460.672 141.007L453.375 136.324L446.077 141.007L438.779 136.324L431.479 141.007L424.181 136.324L416.883 141.007L409.588 136.324L402.29 141.007L394.992 136.324L387.694 141.007L380.397 136.324L373.099 141.007L365.804 136.324L358.506 141.007L351.208 136.324L343.91 141.007L336.615 136.324L329.315 141.007L322.015 136.324L314.717 141.007L307.417 136.324L300.119 141.007L292.821 136.324L285.523 141.007L278.226 136.324L270.925 141.007L263.627 136.324L256.33 141.007L249.032 136.324L241.734 141.007L234.436 136.324L227.136 141.007L219.838 136.324L212.54 141.007L205.245 136.324L197.947 141.007L190.65 136.324L183.352 141.007L176.054 136.324L168.756 141.007L161.461 136.324L154.163 141.007L146.865 136.324L139.569 141.007M475.268 141.007L482.568 136.324L489.866 141.007L497.164 136.324L504.462 141.007L511.759 136.324L519.06 141.007L526.358 136.324L533.658 141.007L540.958 136.324L548.259 141.007M475.268 141.007L467.972 136.324M475.268 141.007L482.565 136.324L489.862 141.007L497.16 136.324L504.455 141.007L511.753 136.324L519.051 141.007L526.349 136.324L533.646 141.007L540.944 136.324L548.239 141.007L555.537 136.324L562.835 141.007L570.135 136.324L577.433 141.007L584.731 136.324L592.029 141.007L599.327 136.324L606.624 141.007L613.925 136.324L621.223 141.007L628.52 136.324L635.818 141.007L643.116 136.324L650.416 141.007L657.714 136.324L665.014 141.007L672.315 136.324L679.615 141.007M475.268 99.0072L467.97 94.3242L460.672 99.0072L453.375 94.3242L446.077 99.0072L438.779 94.3242L431.479 99.0072L424.181 94.3242L416.883 99.0072L409.588 94.3242L402.29 99.0072L394.992 94.3242L387.694 99.0072L380.397 94.3242L373.099 99.0072L365.804 94.3242L358.506 99.0072L351.208 94.3242L343.91 99.0072L336.615 94.3242L329.315 99.0072L322.015 94.3242L314.717 99.0072L307.417 94.3242L300.119 99.0072L292.821 94.3242L285.523 99.0072L278.226 94.3242L270.925 99.0072L263.627 94.3242L256.33 99.0072L249.032 94.3242L241.734 99.0072L234.436 94.3242L227.136 99.0072L219.838 94.3242L212.54 99.0072L205.245 94.3242L197.947 99.0072L190.65 94.3242L183.352 99.0072L176.054 94.3242L168.756 99.0072L161.461 94.3242L154.163 99.0072L146.865 94.3242L139.569 99.0072M475.268 99.0072L482.568 94.3242L489.866 99.0072L497.164 94.3242L504.462 99.0072L511.759 94.3242L519.06 99.0072L526.358 94.3242L533.658 99.0072L540.958 94.3242L548.259 99.0072M475.268 99.0072L467.972 94.3242M475.268 99.0072L482.565 94.3242L489.862 99.0072L497.16 94.3242L504.455 99.0072L511.753 94.3242L519.051 99.0072L526.349 94.3242L533.646 99.0072L540.944 94.3242L548.239 99.0072L555.537 94.3242L562.835 99.0072L570.135 94.3242L577.433 99.0072L584.731 94.3242L592.029 99.0072L599.327 94.3242L606.624 99.0072L613.925 94.3242L621.223 99.0072L628.52 94.3242L635.818 99.0072L643.116 94.3242L650.416 99.0072L657.714 94.3242L665.014 99.0072L672.315 94.3242L679.615 99.0072M475.268 178.324L467.97 173.662L460.672 178.324L453.375 173.662L446.077 178.324L438.779 173.662L431.479 178.324L424.181 173.662L416.883 178.324L409.588 173.662L402.29 178.324L394.992 173.662L387.694 178.324L380.397 173.662L373.099 178.324L365.804 173.662L358.506 178.324L351.208 173.662L343.91 178.324L336.615 173.662L329.315 178.324L322.015 173.662L314.717 178.324L307.417 173.662L300.119 178.324L292.821 173.662L285.523 178.324L278.226 173.662L270.925 178.324L263.627 173.662L256.33 178.324L249.032 173.662L241.734 178.324L234.436 173.662L227.136 178.324L219.838 173.662L212.54 178.324L205.245 173.662L197.947 178.324L190.65 173.662L183.352 178.324L176.054 173.662L168.756 178.324L161.461 173.662L154.163 178.324L146.865 173.662L139.569 178.324M475.268 178.324L482.568 173.662L489.866 178.324L497.164 173.662L504.462 178.324L511.759 173.662L519.06 178.324L526.358 173.662L533.658 178.324L540.958 173.662L548.259 178.324M475.268 178.324L467.972 173.662M475.268 178.324L482.565 173.662L489.862 178.324L497.16 173.662L504.455 178.324L511.753 173.662L519.051 178.324L526.349 173.662L533.646 178.324L540.944 173.662L548.239 178.324L555.537 173.662L562.835 178.324L570.135 173.662L577.433 178.324L584.731 173.662L592.029 178.324L599.327 173.662L606.624 178.324L613.925 173.662L621.223 178.324L628.52 173.662L635.818 178.324L643.116 173.662L650.416 178.324L657.714 173.662L665.014 178.324L672.315 173.662L679.615 178.324M475.268 196.993L467.97 192.331L460.672 196.993L453.375 192.331L446.077 196.993L438.779 192.331L431.479 196.993L424.181 192.331L416.883 196.993L409.588 192.331L402.29 196.993L394.992 192.331L387.694 196.993L380.397 192.331L373.099 196.993L365.804 192.331L358.506 196.993L351.208 192.331L343.91 196.993L336.615 192.331L329.315 196.993L322.015 192.331L314.717 196.993L307.417 192.331L300.119 196.993L292.821 192.331L285.523 196.993L278.226 192.331L270.925 196.993L263.627 192.331L256.33 196.993L249.032 192.331L241.734 196.993L234.436 192.331L227.136 196.993L219.838 192.331L212.54 196.993L205.245 192.331L197.947 196.993L190.65 192.331L183.352 196.993L176.054 192.331L168.756 196.993L161.461 192.331L154.163 196.993L146.865 192.331L139.569 196.993M475.268 196.993L482.568 192.331L489.866 196.993L497.164 192.331L504.462 196.993L511.759 192.331L519.06 196.993L526.358 192.331L533.658 196.993L540.958 192.331L548.259 196.993M475.268 196.993L467.972 192.331M475.268 196.993L482.565 192.331L489.862 196.993L497.16 192.331L504.455 196.993L511.753 192.331L519.051 196.993L526.349 192.331L533.646 196.993L540.944 192.331L548.239 196.993L555.537 192.331L562.835 196.993L570.135 192.331L577.433 196.993L584.731 192.331L592.029 196.993L599.327 192.331L606.624 196.993L613.925 192.331L621.223 196.993L628.52 192.331L635.818 196.993L643.116 192.331L650.416 196.993L657.714 192.331L665.014 196.993L672.315 192.331L679.615 196.993M475.268 15.0071L467.97 10.3241L460.672 15.0071L453.375 10.3241L446.077 15.0071L438.779 10.3241L431.479 15.0071L424.181 10.3241L416.883 15.0071L409.588 10.3241L402.29 15.0071L394.992 10.3241L387.694 15.0071L380.397 10.3241L373.099 15.0071L365.804 10.3241L358.506 15.0071L351.208 10.3241L343.91 15.0071L336.615 10.3241L329.315 15.0071L322.015 10.3241L314.717 15.0071L307.417 10.3241L300.119 15.0071L292.821 10.3241L285.523 15.0071L278.226 10.3241L270.925 15.0071L263.627 10.3241L256.33 15.0071L249.032 10.3241L241.734 15.0071L234.436 10.3241L227.136 15.0071L219.838 10.3241L212.54 15.0071L205.245 10.3241L197.947 15.0071L190.65 10.3241L183.352 15.0071L176.054 10.3241L168.756 15.0071L161.461 10.3241L154.163 15.0071L146.865 10.3241L139.569 15.0071M475.268 15.0071L482.568 10.3241L489.866 15.0071L497.164 10.3241L504.462 15.0071L511.759 10.3241L519.06 15.0071L526.358 10.3241L533.658 15.0071L540.958 10.3241L548.259 15.0071M475.268 15.0071L467.972 10.3241M475.268 15.0071L482.565 10.3241L489.862 15.0071L497.16 10.3241L504.455 15.0071L511.753 10.3241L519.051 15.0071L526.349 10.3241L533.646 15.0071L540.944 10.3241L548.239 15.0071L555.537 10.3241L562.835 15.0071L570.135 10.3241L577.433 15.0071L584.731 10.3241L592.029 15.0071L599.327 10.3241L606.624 15.0071L613.925 10.3241L621.223 15.0071L628.52 10.3241L635.818 15.0071L643.116 10.3241L650.416 15.0071L657.714 10.3241L665.014 15.0071L672.315 10.3241L679.615 15.0071M475.268 52.324L467.97 47.662L460.672 52.324L453.375 47.662L446.077 52.324L438.779 47.662L431.479 52.324L424.181 47.662L416.883 52.324L409.588 47.662L402.29 52.324L394.992 47.662L387.694 52.324L380.397 47.662L373.099 52.324L365.804 47.662L358.506 52.324L351.208 47.662L343.91 52.324L336.615 47.662L329.315 52.324L322.015 47.662L314.717 52.324L307.417 47.662L300.119 52.324L292.821 47.662L285.523 52.324L278.226 47.662L270.925 52.324L263.627 47.662L256.33 52.324L249.032 47.662L241.734 52.324L234.436 47.662L227.136 52.324L219.838 47.662L212.54 52.324L205.245 47.662L197.947 52.324L190.65 47.662L183.352 52.324L176.054 47.662L168.756 52.324L161.461 47.662L154.163 52.324L146.865 47.662L139.569 52.324M475.268 52.324L482.568 47.662L489.866 52.324L497.164 47.662L504.462 52.324L511.759 47.662L519.06 52.324L526.358 47.662L533.658 52.324L540.958 47.662L548.259 52.324M475.268 52.324L467.972 47.662M475.268 52.324L482.565 47.662L489.862 52.324L497.16 47.662L504.455 52.324L511.753 47.662L519.051 52.324L526.349 47.662L533.646 52.324L540.944 47.662L548.239 52.324L555.537 47.662L562.835 52.324L570.135 47.662L577.433 52.324L584.731 47.662L592.029 52.324L599.327 47.662L606.624 52.324L613.925 47.662L621.223 52.324L628.52 47.662L635.818 52.324L643.116 47.662L650.416 52.324L657.714 47.662L665.014 52.324L672.315 47.662L679.615 52.324M475.268 131.662L467.97 127L460.672 131.662L453.375 127L446.077 131.662L438.779 127L431.479 131.662L424.181 127L416.883 131.662L409.588 127L402.29 131.662L394.992 127L387.694 131.662L380.397 127L373.099 131.662L365.804 127L358.506 131.662L351.208 127L343.91 131.662L336.615 127L329.315 131.662L322.015 127L314.717 131.662L307.417 127L300.119 131.662L292.821 127L285.523 131.662L278.226 127L270.925 131.662L263.627 127L256.33 131.662L249.032 127L241.734 131.662L234.436 127L227.136 131.662L219.838 127L212.54 131.662L205.245 127L197.947 131.662L190.65 127L183.352 131.662L176.054 127L168.756 131.662L161.461 127L154.163 131.662L146.865 127L139.569 131.662M475.268 131.662L482.568 127L489.866 131.662L497.164 127L504.462 131.662L511.759 127L519.06 131.662L526.358 127L533.658 131.662L540.958 127L548.259 131.662M475.268 131.662L467.972 127M475.268 131.662L482.565 127L489.862 131.662L497.16 127L504.455 131.662L511.753 127L519.051 131.662L526.349 127L533.646 131.662L540.944 127L548.239 131.662L555.537 127L562.835 131.662L570.135 127L577.433 131.662L584.731 127L592.029 131.662L599.327 127L606.624 131.662L613.925 127L621.223 131.662L628.52 127L635.818 131.662L643.116 127L650.416 131.662L657.714 127L665.014 131.662L672.315 127L679.615 131.662M475.268 89.6622L467.97 85.0002L460.672 89.6622L453.375 85.0002L446.077 89.6622L438.779 85.0002L431.479 89.6622L424.181 85.0002L416.883 89.6622L409.588 85.0002L402.29 89.6622L394.992 85.0002L387.694 89.6622L380.397 85.0002L373.099 89.6622L365.804 85.0002L358.506 89.6622L351.208 85.0002L343.91 89.6622L336.615 85.0002L329.315 89.6622L322.015 85.0002L314.717 89.6622L307.417 85.0002L300.119 89.6622L292.821 85.0002L285.523 89.6622L278.226 85.0002L270.925 89.6622L263.627 85.0002L256.33 89.6622L249.032 85.0002L241.734 89.6622L234.436 85.0002L227.136 89.6622L219.838 85.0002L212.54 89.6622L205.245 85.0002L197.947 89.6622L190.65 85.0002L183.352 89.6622L176.054 85.0002L168.756 89.6622L161.461 85.0002L154.163 89.6622L146.865 85.0002L139.569 89.6622M475.268 89.6622L482.568 85.0002L489.866 89.6622L497.164 85.0002L504.462 89.6622L511.759 85.0002L519.06 89.6622L526.358 85.0002L533.658 89.6622L540.958 85.0002L548.259 89.6622M475.268 89.6622L467.972 85.0002M475.268 89.6622L482.565 85.0002L489.862 89.6622L497.16 85.0002L504.455 89.6622L511.753 85.0002L519.051 89.6622L526.349 85.0002L533.646 89.6622L540.944 85.0002L548.239 89.6622L555.537 85.0002L562.835 89.6622L570.135 85.0002L577.433 89.6622L584.731 85.0002L592.029 89.6622L599.327 85.0002L606.624 89.6622L613.925 85.0002L621.223 89.6622L628.52 85.0002L635.818 89.6622L643.116 85.0002L650.416 89.6622L657.714 85.0002L665.014 89.6622L672.315 85.0002L679.615 89.6622M475.268 169L467.97 164.338L460.672 169L453.375 164.338L446.077 169L438.779 164.338L431.479 169L424.181 164.338L416.883 169L409.588 164.338L402.29 169L394.992 164.338L387.694 169L380.397 164.338L373.099 169L365.804 164.338L358.506 169L351.208 164.338L343.91 169L336.615 164.338L329.315 169L322.015 164.338L314.717 169L307.417 164.338L300.119 169L292.821 164.338L285.523 169L278.226 164.338L270.925 169L263.627 164.338L256.33 169L249.032 164.338L241.734 169L234.436 164.338L227.136 169L219.838 164.338L212.54 169L205.245 164.338L197.947 169L190.65 164.338L183.352 169L176.054 164.338L168.756 169L161.461 164.338L154.163 169L146.865 164.338L139.569 169M475.268 169L482.568 164.338L489.866 169L497.164 164.338L504.462 169L511.759 164.338L519.06 169L526.358 164.338L533.658 169L540.958 164.338L548.259 169M475.268 169L467.972 164.338M475.268 169L482.565 164.338L489.862 169L497.16 164.338L504.455 169L511.753 164.338L519.051 169L526.349 164.338L533.646 169L540.944 164.338L548.239 169L555.537 164.338L562.835 169L570.135 164.338L577.433 169L584.731 164.338L592.029 169L599.327 164.338L606.624 169L613.925 164.338L621.223 169L628.52 164.338L635.818 169L643.116 164.338L650.416 169L657.714 164.338L665.014 169L672.315 164.338L679.615 169M475.268 33.6761L467.97 28.9931L460.672 33.6761L453.375 28.9931L446.077 33.6761L438.779 28.9931L431.479 33.6761L424.181 28.9931L416.883 33.6761L409.588 28.9931L402.29 33.6761L394.992 28.9931L387.694 33.6761L380.397 28.9931L373.099 33.6761L365.804 28.9931L358.506 33.6761L351.208 28.9931L343.91 33.6761L336.615 28.9931L329.315 33.6761L322.015 28.9931L314.717 33.6761L307.417 28.9931L300.119 33.6761L292.821 28.9931L285.523 33.6761L278.226 28.9931L270.925 33.6761L263.627 28.9931L256.33 33.6761L249.032 28.9931L241.734 33.6761L234.436 28.9931L227.136 33.6761L219.838 28.9931L212.54 33.6761L205.245 28.9931L197.947 33.6761L190.65 28.9931L183.352 33.6761L176.054 28.9931L168.756 33.6761L161.461 28.9931L154.163 33.6761L146.865 28.9931L139.569 33.6761M475.268 33.6761L482.568 28.9931L489.866 33.6761L497.164 28.9931L504.462 33.6761L511.759 28.9931L519.06 33.6761L526.358 28.9931L533.658 33.6761L540.958 28.9931L548.259 33.6761M475.268 33.6761L467.972 28.9931M475.268 33.6761L482.565 28.9931L489.862 33.6761L497.16 28.9931L504.455 33.6761L511.753 28.9931L519.051 33.6761L526.349 28.9931L533.646 33.6761L540.944 28.9931L548.239 33.6761L555.537 28.9931L562.835 33.6761L570.135 28.9931L577.433 33.6761L584.731 28.9931L592.029 33.6761L599.327 28.9931L606.624 33.6761L613.925 28.9931L621.223 33.6761L628.52 28.9931L635.818 33.6761L643.116 28.9931L650.416 33.6761L657.714 28.9931L665.014 33.6761L672.315 28.9931L679.615 33.6761M475.268 70.9932L467.97 66.3312L460.672 70.9932L453.375 66.3312L446.077 70.9932L438.779 66.3312L431.479 70.9932L424.181 66.3312L416.883 70.9932L409.588 66.3312L402.29 70.9932L394.992 66.3312L387.694 70.9932L380.397 66.3312L373.099 70.9932L365.804 66.3312L358.506 70.9932L351.208 66.3312L343.91 70.9932L336.615 66.3312L329.315 70.9932L322.015 66.3312L314.717 70.9932L307.417 66.3312L300.119 70.9932L292.821 66.3312L285.523 70.9932L278.226 66.3312L270.925 70.9932L263.627 66.3312L256.33 70.9932L249.032 66.3312L241.734 70.9932L234.436 66.3312L227.136 70.9932L219.838 66.3312L212.54 70.9932L205.245 66.3312L197.947 70.9932L190.65 66.3312L183.352 70.9932L176.054 66.3312L168.756 70.9932L161.461 66.3312L154.163 70.9932L146.865 66.3312L139.569 70.9932M475.268 70.9932L482.568 66.3312L489.866 70.9932L497.164 66.3312L504.462 70.9932L511.759 66.3312L519.06 70.9932L526.358 66.3312L533.658 70.9932L540.958 66.3312L548.259 70.9932M475.268 70.9932L467.972 66.3312M475.268 70.9932L482.565 66.3312L489.862 70.9932L497.16 66.3312L504.455 70.9932L511.753 66.3312L519.051 70.9932L526.349 66.3312L533.646 70.9932L540.944 66.3312L548.239 70.9932L555.537 66.3312L562.835 70.9932L570.135 66.3312L577.433 70.9932L584.731 66.3312L592.029 70.9932L599.327 66.3312L606.624 70.9932L613.925 66.3312L621.223 70.9932L628.52 66.3312L635.818 70.9932L643.116 66.3312L650.416 70.9932L657.714 66.3312L665.014 70.9932L672.315 66.3312L679.615 70.9932M475.268 150.331L467.97 145.669L460.672 150.331L453.375 145.669L446.077 150.331L438.779 145.669L431.479 150.331L424.181 145.669L416.883 150.331L409.588 145.669L402.29 150.331L394.992 145.669L387.694 150.331L380.397 145.669L373.099 150.331L365.804 145.669L358.506 150.331L351.208 145.669L343.91 150.331L336.615 145.669L329.315 150.331L322.015 145.669L314.717 150.331L307.417 145.669L300.119 150.331L292.821 145.669L285.523 150.331L278.226 145.669L270.925 150.331L263.627 145.669L256.33 150.331L249.032 145.669L241.734 150.331L234.436 145.669L227.136 150.331L219.838 145.669L212.54 150.331L205.245 145.669L197.947 150.331L190.65 145.669L183.352 150.331L176.054 145.669L168.756 150.331L161.461 145.669L154.163 150.331L146.865 145.669L139.569 150.331M475.268 150.331L482.568 145.669L489.866 150.331L497.164 145.669L504.462 150.331L511.759 145.669L519.06 150.331L526.358 145.669L533.658 150.331L540.958 145.669L548.259 150.331M475.268 150.331L467.972 145.669M475.268 150.331L482.565 145.669L489.862 150.331L497.16 145.669L504.455 150.331L511.753 145.669L519.051 150.331L526.349 145.669L533.646 150.331L540.944 145.669L548.239 150.331L555.537 145.669L562.835 150.331L570.135 145.669L577.433 150.331L584.731 145.669L592.029 150.331L599.327 145.669L606.624 150.331L613.925 145.669L621.223 150.331L628.52 145.669L635.818 150.331L643.116 145.669L650.416 150.331L657.714 145.669L665.014 150.331L672.315 145.669L679.615 150.331M475.268 108.331L467.97 103.669L460.672 108.331L453.375 103.669L446.077 108.331L438.779 103.669L431.479 108.331L424.181 103.669L416.883 108.331L409.588 103.669L402.29 108.331L394.992 103.669L387.694 108.331L380.397 103.669L373.099 108.331L365.804 103.669L358.506 108.331L351.208 103.669L343.91 108.331L336.615 103.669L329.315 108.331L322.015 103.669L314.717 108.331L307.417 103.669L300.119 108.331L292.821 103.669L285.523 108.331L278.226 103.669L270.925 108.331L263.627 103.669L256.33 108.331L249.032 103.669L241.734 108.331L234.436 103.669L227.136 108.331L219.838 103.669L212.54 108.331L205.245 103.669L197.947 108.331L190.65 103.669L183.352 108.331L176.054 103.669L168.756 108.331L161.461 103.669L154.163 108.331L146.865 103.669L139.569 108.331M475.268 108.331L482.568 103.669L489.866 108.331L497.164 103.669L504.462 108.331L511.759 103.669L519.06 108.331L526.358 103.669L533.658 108.331L540.958 103.669L548.259 108.331M475.268 108.331L467.972 103.669M475.268 108.331L482.565 103.669L489.862 108.331L497.16 103.669L504.455 108.331L511.753 103.669L519.051 108.331L526.349 103.669L533.646 108.331L540.944 103.669L548.239 108.331L555.537 103.669L562.835 108.331L570.135 103.669L577.433 108.331L584.731 103.669L592.029 108.331L599.327 103.669L606.624 108.331L613.925 103.669L621.223 108.331L628.52 103.669L635.818 108.331L643.116 103.669L650.416 108.331L657.714 103.669L665.014 108.331L672.315 103.669L679.615 108.331M475.268 187.669L467.97 183.007L460.672 187.669L453.375 183.007L446.077 187.669L438.779 183.007L431.479 187.669L424.181 183.007L416.883 187.669L409.588 183.007L402.29 187.669L394.992 183.007L387.694 187.669L380.397 183.007L373.099 187.669L365.804 183.007L358.506 187.669L351.208 183.007L343.91 187.669L336.615 183.007L329.315 187.669L322.015 183.007L314.717 187.669L307.417 183.007L300.119 187.669L292.821 183.007L285.523 187.669L278.226 183.007L270.925 187.669L263.627 183.007L256.33 187.669L249.032 183.007L241.734 187.669L234.436 183.007L227.136 187.669L219.838 183.007L212.54 187.669L205.245 183.007L197.947 187.669L190.65 183.007L183.352 187.669L176.054 183.007L168.756 187.669L161.461 183.007L154.163 187.669L146.865 183.007L139.569 187.669M475.268 187.669L482.568 183.007L489.866 187.669L497.164 183.007L504.462 187.669L511.759 183.007L519.06 187.669L526.358 183.007L533.658 187.669L540.958 183.007L548.259 187.669M475.268 187.669L467.972 183.007M475.268 187.669L482.565 183.007L489.862 187.669L497.16 183.007L504.455 187.669L511.753 183.007L519.051 187.669L526.349 183.007L533.646 187.669L540.944 183.007L548.239 187.669L555.537 183.007L562.835 187.669L570.135 183.007L577.433 187.669L584.731 183.007L592.029 187.669L599.327 183.007L606.624 187.669L613.925 183.007L621.223 187.669L628.52 183.007L635.818 187.669L643.116 183.007L650.416 187.669L657.714 183.007L665.014 187.669L672.315 183.007L679.615 187.669M475.268 206.338L467.97 201.676L460.672 206.338L453.375 201.676L446.077 206.338L438.779 201.676L431.479 206.338L424.181 201.676L416.883 206.338L409.588 201.676L402.29 206.338L394.992 201.676L387.694 206.338L380.397 201.676L373.099 206.338L365.804 201.676L358.506 206.338L351.208 201.676L343.91 206.338L336.615 201.676L329.315 206.338L322.015 201.676L314.717 206.338L307.417 201.676L300.119 206.338L292.821 201.676L285.523 206.338L278.226 201.676L270.925 206.338L263.627 201.676L256.33 206.338L249.032 201.676L241.734 206.338L234.436 201.676L227.136 206.338L219.838 201.676L212.54 206.338L205.245 201.676L197.947 206.338L190.65 201.676L183.352 206.338L176.054 201.676L168.756 206.338L161.461 201.676L154.163 206.338L146.865 201.676L139.569 206.338M475.268 206.338L482.568 201.676L489.866 206.338L497.164 201.676L504.462 206.338L511.759 201.676L519.06 206.338L526.358 201.676L533.658 206.338L540.958 201.676L548.259 206.338M475.268 206.338L467.972 201.676M475.268 206.338L482.565 201.676L489.862 206.338L497.16 201.676L504.455 206.338L511.753 201.676L519.051 206.338L526.349 201.676L533.646 206.338L540.944 201.676L548.239 206.338L555.537 201.676L562.835 206.338L570.135 201.676L577.433 206.338L584.731 201.676L592.029 206.338L599.327 201.676L606.624 206.338L613.925 201.676L621.223 206.338L628.52 201.676L635.818 206.338L643.116 201.676L650.416 206.338L657.714 201.676L665.014 206.338L672.315 201.676L679.615 206.338M475.268 10.3241L467.97 5.66208L460.672 10.3241L453.375 5.66208L446.077 10.3241L438.779 5.66208L431.479 10.3241L424.181 5.66208L416.883 10.3241L409.588 5.66208L402.29 10.3241L394.992 5.66208L387.694 10.3241L380.397 5.66208L373.099 10.3241L365.804 5.66208L358.506 10.3241L351.208 5.66208L343.91 10.3241L336.615 5.66208L329.315 10.3241L322.015 5.66211L314.717 10.3241L307.417 5.66211L300.119 10.3241L292.821 5.66211L285.523 10.3241L278.226 5.66211L270.925 10.3241L263.627 5.66211L256.33 10.3241L249.032 5.66211L241.734 10.3241L234.436 5.66211L227.136 10.3241L219.838 5.66211L212.54 10.3241L205.245 5.66211L197.947 10.3241L190.65 5.66211L183.352 10.3241L176.054 5.66211L168.756 10.3241L161.461 5.66211L154.163 10.3241L146.865 5.66211L139.569 10.3241M475.268 10.3241L482.568 5.66208L489.866 10.3241L497.164 5.66208L504.462 10.3241L511.759 5.66208L519.06 10.3241L526.358 5.66208L533.658 10.3241L540.958 5.66208L548.259 10.3241M475.268 10.3241L467.972 5.66208M475.268 10.3241L482.565 5.66208L489.862 10.3241L497.16 5.66208L504.455 10.3241L511.753 5.66208L519.051 10.3241L526.349 5.66208L533.646 10.3241L540.944 5.66208L548.239 10.3241L555.537 5.66208L562.835 10.3241L570.135 5.66208L577.433 10.3241L584.731 5.66208L592.029 10.3241L599.327 5.66208L606.624 10.3241L613.925 5.66208L621.223 10.3241L628.52 5.66208L635.818 10.3241L643.116 5.66208L650.416 10.3241L657.714 5.66208L665.014 10.3241L672.315 5.66208L679.615 10.3241M475.268 47.662L467.97 43L460.672 47.662L453.375 43L446.077 47.662L438.779 43L431.479 47.662L424.181 43L416.883 47.662L409.588 43L402.29 47.662L394.992 43L387.694 47.662L380.397 43L373.099 47.662L365.804 43L358.506 47.662L351.208 43L343.91 47.662L336.615 43L329.315 47.662L322.015 43L314.717 47.662L307.417 43L300.119 47.662L292.821 43L285.523 47.662L278.226 43L270.925 47.662L263.627 43L256.33 47.662L249.032 43L241.734 47.662L234.436 43L227.136 47.662L219.838 43L212.54 47.662L205.245 43L197.947 47.662L190.65 43L183.352 47.662L176.054 43L168.756 47.662L161.461 43L154.163 47.662L146.865 43L139.569 47.662M475.268 47.662L482.568 43L489.866 47.662L497.164 43L504.462 47.662L511.759 43L519.06 47.662L526.358 43L533.658 47.662L540.958 43L548.259 47.662M475.268 47.662L467.972 43M475.268 47.662L482.565 43L489.862 47.662L497.16 43L504.455 47.662L511.753 43L519.051 47.662L526.349 43L533.646 47.662L540.944 43L548.239 47.662L555.537 43L562.835 47.662L570.135 43L577.433 47.662L584.731 43L592.029 47.662L599.327 43L606.624 47.662L613.925 43L621.223 47.662L628.52 43L635.818 47.662L643.116 43L650.416 47.662L657.714 43L665.014 47.662L672.315 43L679.615 47.662M475.268 127L467.97 122.338L460.672 127L453.375 122.338L446.077 127L438.779 122.338L431.479 127L424.181 122.338L416.883 127L409.588 122.338L402.29 127L394.992 122.338L387.694 127L380.397 122.338L373.099 127L365.804 122.338L358.506 127L351.208 122.338L343.91 127L336.615 122.338L329.315 127L322.015 122.338L314.717 127L307.417 122.338L300.119 127L292.821 122.338L285.523 127L278.226 122.338L270.925 127L263.627 122.338L256.33 127L249.032 122.338L241.734 127L234.436 122.338L227.136 127L219.838 122.338L212.54 127L205.245 122.338L197.947 127L190.65 122.338L183.352 127L176.054 122.338L168.756 127L161.461 122.338L154.163 127L146.865 122.338L139.569 127M475.268 127L482.568 122.338L489.866 127L497.164 122.338L504.462 127L511.759 122.338L519.06 127L526.358 122.338L533.658 127L540.958 122.338L548.259 127M475.268 127L467.972 122.338M475.268 127L482.565 122.338L489.862 127L497.16 122.338L504.455 127L511.753 122.338L519.051 127L526.349 122.338L533.646 127L540.944 122.338L548.239 127L555.537 122.338L562.835 127L570.135 122.338L577.433 127L584.731 122.338L592.029 127L599.327 122.338L606.624 127L613.925 122.338L621.223 127L628.52 122.338L635.818 127L643.116 122.338L650.416 127L657.714 122.338L665.014 127L672.315 122.338L679.615 127M475.268 85.0002L467.97 80.3382L460.672 85.0002L453.375 80.3382L446.077 85.0002L438.779 80.3382L431.479 85.0002L424.181 80.3382L416.883 85.0002L409.588 80.3382L402.29 85.0002L394.992 80.3382L387.694 85.0002L380.397 80.3382L373.099 85.0002L365.804 80.3382L358.506 85.0002L351.208 80.3382L343.91 85.0002L336.615 80.3382L329.315 85.0002L322.015 80.3382L314.717 85.0002L307.417 80.3382L300.119 85.0002L292.821 80.3382L285.523 85.0002L278.226 80.3382L270.925 85.0002L263.627 80.3382L256.33 85.0002L249.032 80.3382L241.734 85.0002L234.436 80.3382L227.136 85.0002L219.838 80.3382L212.54 85.0002L205.245 80.3382L197.947 85.0002L190.65 80.3382L183.352 85.0002L176.054 80.3382L168.756 85.0002L161.461 80.3382L154.163 85.0002L146.865 80.3382L139.569 85.0002M475.268 85.0002L482.568 80.3382L489.866 85.0002L497.164 80.3382L504.462 85.0002L511.759 80.3382L519.06 85.0002L526.358 80.3382L533.658 85.0002L540.958 80.3382L548.259 85.0002M475.268 85.0002L467.972 80.3382M475.268 85.0002L482.565 80.3382L489.862 85.0002L497.16 80.3382L504.455 85.0002L511.753 80.3382L519.051 85.0002L526.349 80.3382L533.646 85.0002L540.944 80.3382L548.239 85.0002L555.537 80.3382L562.835 85.0002L570.135 80.3382L577.433 85.0002L584.731 80.3382L592.029 85.0002L599.327 80.3382L606.624 85.0002L613.925 80.3382L621.223 85.0002L628.52 80.3382L635.818 85.0002L643.116 80.3382L650.416 85.0002L657.714 80.3382L665.014 85.0002L672.315 80.3382L679.615 85.0002M475.268 164.338L467.97 159.676L460.672 164.338L453.375 159.676L446.077 164.338L438.779 159.676L431.479 164.338L424.181 159.676L416.883 164.338L409.588 159.676L402.29 164.338L394.992 159.676L387.694 164.338L380.397 159.676L373.099 164.338L365.804 159.676L358.506 164.338L351.208 159.676L343.91 164.338L336.615 159.676L329.315 164.338L322.015 159.676L314.717 164.338L307.417 159.676L300.119 164.338L292.821 159.676L285.523 164.338L278.226 159.676L270.925 164.338L263.627 159.676L256.33 164.338L249.032 159.676L241.734 164.338L234.436 159.676L227.136 164.338L219.838 159.676L212.54 164.338L205.245 159.676L197.947 164.338L190.65 159.676L183.352 164.338L176.054 159.676L168.756 164.338L161.461 159.676L154.163 164.338L146.865 159.676L139.569 164.338M475.268 164.338L482.568 159.676L489.866 164.338L497.164 159.676L504.462 164.338L511.759 159.676L519.06 164.338L526.358 159.676L533.658 164.338L540.958 159.676L548.259 164.338M475.268 164.338L467.972 159.676M475.268 164.338L482.565 159.676L489.862 164.338L497.16 159.676L504.455 164.338L511.753 159.676L519.051 164.338L526.349 159.676L533.646 164.338L540.944 159.676L548.239 164.338L555.537 159.676L562.835 164.338L570.135 159.676L577.433 164.338L584.731 159.676L592.029 164.338L599.327 159.676L606.624 164.338L613.925 159.676L621.223 164.338L628.52 159.676L635.818 164.338L643.116 159.676L650.416 164.338L657.714 159.676L665.014 164.338L672.315 159.676L679.615 164.338M475.268 28.9931L467.97 24.3311L460.672 28.9931L453.375 24.3311L446.077 28.9931L438.779 24.3311L431.479 28.9931L424.181 24.3311L416.883 28.9931L409.588 24.3311L402.29 28.9931L394.992 24.3311L387.694 28.9931L380.397 24.3311L373.099 28.9931L365.804 24.3311L358.506 28.9931L351.208 24.3311L343.91 28.9931L336.615 24.3311L329.315 28.9931L322.015 24.3311L314.717 28.9931L307.417 24.3311L300.119 28.9931L292.821 24.3311L285.523 28.9931L278.226 24.3311L270.925 28.9931L263.627 24.3311L256.33 28.9931L249.032 24.3311L241.734 28.9931L234.436 24.3311L227.136 28.9931L219.838 24.3311L212.54 28.9931L205.245 24.3311L197.947 28.9931L190.65 24.3311L183.352 28.9931L176.054 24.3311L168.756 28.9931L161.461 24.3311L154.163 28.9931L146.865 24.3311L139.569 28.9931M475.268 28.9931L482.568 24.3311L489.866 28.9931L497.164 24.3311L504.462 28.9931L511.759 24.3311L519.06 28.9931L526.358 24.3311L533.658 28.9931L540.958 24.3311L548.259 28.9931M475.268 28.9931L467.972 24.3311M475.268 28.9931L482.565 24.3311L489.862 28.9931L497.16 24.3311L504.455 28.9931L511.753 24.3311L519.051 28.9931L526.349 24.3311L533.646 28.9931L540.944 24.3311L548.239 28.9931L555.537 24.3311L562.835 28.9931L570.135 24.3311L577.433 28.9931L584.731 24.3311L592.029 28.9931L599.327 24.3311L606.624 28.9931L613.925 24.3311L621.223 28.9931L628.52 24.3311L635.818 28.9931L643.116 24.3311L650.416 28.9931L657.714 24.3311L665.014 28.9931L672.315 24.3311L679.615 28.9931M475.268 66.3312L467.97 61.6692L460.672 66.3312L453.375 61.6692L446.077 66.3312L438.779 61.6692L431.479 66.3312L424.181 61.6692L416.883 66.3312L409.588 61.6692L402.29 66.3312L394.992 61.6692L387.694 66.3312L380.397 61.6692L373.099 66.3312L365.804 61.6692L358.506 66.3312L351.208 61.6692L343.91 66.3312L336.615 61.6692L329.315 66.3312L322.015 61.6692L314.717 66.3312L307.417 61.6692L300.119 66.3312L292.821 61.6692L285.523 66.3312L278.226 61.6692L270.925 66.3312L263.627 61.6692L256.33 66.3312L249.032 61.6692L241.734 66.3312L234.436 61.6692L227.136 66.3312L219.838 61.6692L212.54 66.3312L205.245 61.6692L197.947 66.3312L190.65 61.6692L183.352 66.3312L176.054 61.6692L168.756 66.3312L161.461 61.6692L154.163 66.3312L146.865 61.6692L139.569 66.3312M475.268 66.3312L482.568 61.6692L489.866 66.3312L497.164 61.6692L504.462 66.3312L511.759 61.6692L519.06 66.3312L526.358 61.6692L533.658 66.3312L540.958 61.6692L548.259 66.3312M475.268 66.3312L467.972 61.6692M475.268 66.3312L482.565 61.6692L489.862 66.3312L497.16 61.6692L504.455 66.3312L511.753 61.6692L519.051 66.3312L526.349 61.6692L533.646 66.3312L540.944 61.6692L548.239 66.3312L555.537 61.6692L562.835 66.3312L570.135 61.6692L577.433 66.3312L584.731 61.6692L592.029 66.3312L599.327 61.6692L606.624 66.3312L613.925 61.6692L621.223 66.3312L628.52 61.6692L635.818 66.3312L643.116 61.6692L650.416 66.3312L657.714 61.6692L665.014 66.3312L672.315 61.6692L679.615 66.3312M475.268 145.669L467.97 141.007L460.672 145.669L453.375 141.007L446.077 145.669L438.779 141.007L431.479 145.669L424.181 141.007L416.883 145.669L409.588 141.007L402.29 145.669L394.992 141.007L387.694 145.669L380.397 141.007L373.099 145.669L365.804 141.007L358.506 145.669L351.208 141.007L343.91 145.669L336.615 141.007L329.315 145.669L322.015 141.007L314.717 145.669L307.417 141.007L300.119 145.669L292.821 141.007L285.523 145.669L278.226 141.007L270.925 145.669L263.627 141.007L256.33 145.669L249.032 141.007L241.734 145.669L234.436 141.007L227.136 145.669L219.838 141.007L212.54 145.669L205.245 141.007L197.947 145.669L190.65 141.007L183.352 145.669L176.054 141.007L168.756 145.669L161.461 141.007L154.163 145.669L146.865 141.007L139.569 145.669M475.268 145.669L482.568 141.007L489.866 145.669L497.164 141.007L504.462 145.669L511.759 141.007L519.06 145.669L526.358 141.007L533.658 145.669L540.958 141.007L548.259 145.669M475.268 145.669L467.972 141.007M475.268 145.669L482.565 141.007L489.862 145.669L497.16 141.007L504.455 145.669L511.753 141.007L519.051 145.669L526.349 141.007L533.646 145.669L540.944 141.007L548.239 145.669L555.537 141.007L562.835 145.669L570.135 141.007L577.433 145.669L584.731 141.007L592.029 145.669L599.327 141.007L606.624 145.669L613.925 141.007L621.223 145.669L628.52 141.007L635.818 145.669L643.116 141.007L650.416 145.669L657.714 141.007L665.014 145.669L672.315 141.007L679.615 145.669M475.268 103.669L467.97 99.007L460.672 103.669L453.375 99.007L446.077 103.669L438.779 99.007L431.479 103.669L424.181 99.007L416.883 103.669L409.588 99.007L402.29 103.669L394.992 99.007L387.694 103.669L380.397 99.007L373.099 103.669L365.804 99.007L358.506 103.669L351.208 99.007L343.91 103.669L336.615 99.007L329.315 103.669L322.015 99.007L314.717 103.669L307.417 99.007L300.119 103.669L292.821 99.007L285.523 103.669L278.226 99.007L270.925 103.669L263.627 99.007L256.33 103.669L249.032 99.007L241.734 103.669L234.436 99.007L227.136 103.669L219.838 99.007L212.54 103.669L205.245 99.007L197.947 103.669L190.65 99.007L183.352 103.669L176.054 99.007L168.756 103.669L161.461 99.007L154.163 103.669L146.865 99.007L139.569 103.669M475.268 103.669L482.568 99.007L489.866 103.669L497.164 99.007L504.462 103.669L511.759 99.007L519.06 103.669L526.358 99.007L533.658 103.669L540.958 99.007L548.259 103.669M475.268 103.669L467.972 99.007M475.268 103.669L482.565 99.007L489.862 103.669L497.16 99.007L504.455 103.669L511.753 99.007L519.051 103.669L526.349 99.007L533.646 103.669L540.944 99.007L548.239 103.669L555.537 99.007L562.835 103.669L570.135 99.007L577.433 103.669L584.731 99.007L592.029 103.669L599.327 99.007L606.624 103.669L613.925 99.007L621.223 103.669L628.52 99.007L635.818 103.669L643.116 99.007L650.416 103.669L657.714 99.007L665.014 103.669L672.315 99.007L679.615 103.669M475.268 183.007L467.97 178.324L460.672 183.007L453.375 178.324L446.077 183.007L438.779 178.324L431.479 183.007L424.181 178.324L416.883 183.007L409.588 178.324L402.29 183.007L394.992 178.324L387.694 183.007L380.397 178.324L373.099 183.007L365.804 178.324L358.506 183.007L351.208 178.324L343.91 183.007L336.615 178.324L329.315 183.007L322.015 178.324L314.717 183.007L307.417 178.324L300.119 183.007L292.821 178.324L285.523 183.007L278.226 178.324L270.925 183.007L263.627 178.324L256.33 183.007L249.032 178.324L241.734 183.007L234.436 178.324L227.136 183.007L219.838 178.324L212.54 183.007L205.245 178.324L197.947 183.007L190.65 178.324L183.352 183.007L176.054 178.324L168.756 183.007L161.461 178.324L154.163 183.007L146.865 178.324L139.569 183.007M475.268 183.007L482.568 178.324L489.866 183.007L497.164 178.324L504.462 183.007L511.759 178.324L519.06 183.007L526.358 178.324L533.658 183.007L540.958 178.324L548.259 183.007M475.268 183.007L467.972 178.324M475.268 183.007L482.565 178.324L489.862 183.007L497.16 178.324L504.455 183.007L511.753 178.324L519.051 183.007L526.349 178.324L533.646 183.007L540.944 178.324L548.239 183.007L555.537 178.324L562.835 183.007L570.135 178.324L577.433 183.007L584.731 178.324L592.029 183.007L599.327 178.324L606.624 183.007L613.925 178.324L621.223 183.007L628.52 178.324L635.818 183.007L643.116 178.324L650.416 183.007L657.714 178.324L665.014 183.007L672.315 178.324L679.615 183.007M475.268 201.676L467.97 196.993L460.672 201.676L453.375 196.993L446.077 201.676L438.779 196.993L431.479 201.676L424.181 196.993L416.883 201.676L409.588 196.993L402.29 201.676L394.992 196.993L387.694 201.676L380.397 196.993L373.099 201.676L365.804 196.993L358.506 201.676L351.208 196.993L343.91 201.676L336.615 196.993L329.315 201.676L322.015 196.993L314.717 201.676L307.417 196.993L300.119 201.676L292.821 196.993L285.523 201.676L278.226 196.993L270.925 201.676L263.627 196.993L256.33 201.676L249.032 196.993L241.734 201.676L234.436 196.993L227.136 201.676L219.838 196.993L212.54 201.676L205.245 196.993L197.947 201.676L190.65 196.993L183.352 201.676L176.054 196.993L168.756 201.676L161.461 196.993L154.163 201.676L146.865 196.993L139.569 201.676M475.268 201.676L482.568 196.993L489.866 201.676L497.164 196.993L504.462 201.676L511.759 196.993L519.06 201.676L526.358 196.993L533.658 201.676L540.958 196.993L548.259 201.676M475.268 201.676L467.972 196.993M475.268 201.676L482.565 196.993L489.862 201.676L497.16 196.993L504.455 201.676L511.753 196.993L519.051 201.676L526.349 196.993L533.646 201.676L540.944 196.993L548.239 201.676L555.537 196.993L562.835 201.676L570.135 196.993L577.433 201.676L584.731 196.993L592.029 201.676L599.327 196.993L606.624 201.676L613.925 196.993L621.223 201.676L628.52 196.993L635.818 201.676L643.116 196.993L650.416 201.676L657.714 196.993L665.014 201.676L672.315 196.993L679.615 201.676M475.268 19.6691L467.97 15.0071L460.672 19.6691L453.375 15.0071L446.077 19.6691L438.779 15.0071L431.479 19.6691L424.181 15.0071L416.883 19.6691L409.588 15.0071L402.29 19.6691L394.992 15.0071L387.694 19.6691L380.397 15.0071L373.099 19.6691L365.804 15.0071L358.506 19.6691L351.208 15.0071L343.91 19.6691L336.615 15.0071L329.315 19.6691L322.015 15.0071L314.717 19.6691L307.417 15.0071L300.119 19.6691L292.821 15.0071L285.523 19.6691L278.226 15.0071L270.925 19.6691L263.627 15.0071L256.33 19.6691L249.032 15.0071L241.734 19.6691L234.436 15.0071L227.136 19.6691L219.838 15.0071L212.54 19.6691L205.245 15.0071L197.947 19.6691L190.65 15.0071L183.352 19.6691L176.054 15.0071L168.756 19.6691L161.461 15.0071L154.163 19.6691L146.865 15.0071L139.569 19.6691M475.268 19.6691L482.568 15.0071L489.866 19.6691L497.164 15.0071L504.462 19.6691L511.759 15.0071L519.06 19.6691L526.358 15.0071L533.658 19.6691L540.958 15.0071L548.259 19.6691M475.268 19.6691L467.972 15.0071M475.268 19.6691L482.565 15.0071L489.862 19.6691L497.16 15.0071L504.455 19.6691L511.753 15.0071L519.051 19.6691L526.349 15.0071L533.646 19.6691L540.944 15.0071L548.239 19.6691L555.537 15.0071L562.835 19.6691L570.135 15.0071L577.433 19.6691L584.731 15.0071L592.029 19.6691L599.327 15.0071L606.624 19.6691L613.925 15.0071L621.223 19.6691L628.52 15.0071L635.818 19.6691L643.116 15.0071L650.416 19.6691L657.714 15.0071L665.014 19.6691L672.315 15.0071L679.615 19.6691M475.268 57.007L467.97 52.324L460.672 57.007L453.375 52.324L446.077 57.007L438.779 52.324L431.479 57.007L424.181 52.324L416.883 57.007L409.588 52.324L402.29 57.007L394.992 52.324L387.694 57.007L380.397 52.324L373.099 57.007L365.804 52.324L358.506 57.007L351.208 52.324L343.91 57.007L336.615 52.324L329.315 57.007L322.015 52.324L314.717 57.007L307.417 52.324L300.119 57.007L292.821 52.324L285.523 57.007L278.226 52.324L270.925 57.007L263.627 52.324L256.33 57.007L249.032 52.324L241.734 57.007L234.436 52.324L227.136 57.007L219.838 52.324L212.54 57.007L205.245 52.324L197.947 57.007L190.65 52.324L183.352 57.007L176.054 52.324L168.756 57.007L161.461 52.324L154.163 57.007L146.865 52.324L139.569 57.007M475.268 57.007L482.568 52.324L489.866 57.007L497.164 52.324L504.462 57.007L511.759 52.324L519.06 57.007L526.358 52.324L533.658 57.007L540.958 52.324L548.259 57.007M475.268 57.007L467.972 52.324M475.268 57.007L482.565 52.324L489.862 57.007L497.16 52.324L504.455 57.007L511.753 52.324L519.051 57.007L526.349 52.324L533.646 57.007L540.944 52.324L548.239 57.007L555.537 52.324L562.835 57.007L570.135 52.324L577.433 57.007L584.731 52.324L592.029 57.007L599.327 52.324L606.624 57.007L613.925 52.324L621.223 57.007L628.52 52.324L635.818 57.007L643.116 52.324L650.416 57.007L657.714 52.324L665.014 57.007L672.315 52.324L679.615 57.007M475.268 136.324L467.97 131.662L460.672 136.324L453.375 131.662L446.077 136.324L438.779 131.662L431.479 136.324L424.181 131.662L416.883 136.324L409.588 131.662L402.29 136.324L394.992 131.662L387.694 136.324L380.397 131.662L373.099 136.324L365.804 131.662L358.506 136.324L351.208 131.662L343.91 136.324L336.615 131.662L329.315 136.324L322.015 131.662L314.717 136.324L307.417 131.662L300.119 136.324L292.821 131.662L285.523 136.324L278.226 131.662L270.925 136.324L263.627 131.662L256.33 136.324L249.032 131.662L241.734 136.324L234.436 131.662L227.136 136.324L219.838 131.662L212.54 136.324L205.245 131.662L197.947 136.324L190.65 131.662L183.352 136.324L176.054 131.662L168.756 136.324L161.461 131.662L154.163 136.324L146.865 131.662L139.569 136.324M475.268 136.324L482.568 131.662L489.866 136.324L497.164 131.662L504.462 136.324L511.759 131.662L519.06 136.324L526.358 131.662L533.658 136.324L540.958 131.662L548.259 136.324M475.268 136.324L467.972 131.662M475.268 136.324L482.565 131.662L489.862 136.324L497.16 131.662L504.455 136.324L511.753 131.662L519.051 136.324L526.349 131.662L533.646 136.324L540.944 131.662L548.239 136.324L555.537 131.662L562.835 136.324L570.135 131.662L577.433 136.324L584.731 131.662L592.029 136.324L599.327 131.662L606.624 136.324L613.925 131.662L621.223 136.324L628.52 131.662L635.818 136.324L643.116 131.662L650.416 136.324L657.714 131.662L665.014 136.324L672.315 131.662L679.615 136.324M475.268 94.3242L467.97 89.6622L460.672 94.3242L453.375 89.6622L446.077 94.3242L438.779 89.6622L431.479 94.3242L424.181 89.6622L416.883 94.3242L409.588 89.6622L402.29 94.3242L394.992 89.6622L387.694 94.3242L380.397 89.6622L373.099 94.3242L365.804 89.6622L358.506 94.3242L351.208 89.6622L343.91 94.3242L336.615 89.6622L329.315 94.3242L322.015 89.6622L314.717 94.3242L307.417 89.6622L300.119 94.3242L292.821 89.6622L285.523 94.3242L278.226 89.6622L270.925 94.3242L263.627 89.6622L256.33 94.3242L249.032 89.6622L241.734 94.3242L234.436 89.6622L227.136 94.3242L219.838 89.6622L212.54 94.3242L205.245 89.6622L197.947 94.3242L190.65 89.6622L183.352 94.3242L176.054 89.6622L168.756 94.3242L161.461 89.6622L154.163 94.3242L146.865 89.6622L139.569 94.3242M475.268 94.3242L482.568 89.6622L489.866 94.3242L497.164 89.6622L504.462 94.3242L511.759 89.6622L519.06 94.3242L526.358 89.6622L533.658 94.3242L540.958 89.6622L548.259 94.3242M475.268 94.3242L467.972 89.6622M475.268 94.3242L482.565 89.6622L489.862 94.3242L497.16 89.6622L504.455 94.3242L511.753 89.6622L519.051 94.3242L526.349 89.6622L533.646 94.3242L540.944 89.6622L548.239 94.3242L555.537 89.6622L562.835 94.3242L570.135 89.6622L577.433 94.3242L584.731 89.6622L592.029 94.3242L599.327 89.6622L606.624 94.3242L613.925 89.6622L621.223 94.3242L628.52 89.6622L635.818 94.3242L643.116 89.6622L650.416 94.3242L657.714 89.6622L665.014 94.3242L672.315 89.6622L679.615 94.3242M475.268 173.662L467.97 169L460.672 173.662L453.375 169L446.077 173.662L438.779 169L431.479 173.662L424.181 169L416.883 173.662L409.588 169L402.29 173.662L394.992 169L387.694 173.662L380.397 169L373.099 173.662L365.804 169L358.506 173.662L351.208 169L343.91 173.662L336.615 169L329.315 173.662L322.015 169L314.717 173.662L307.417 169L300.119 173.662L292.821 169L285.523 173.662L278.226 169L270.925 173.662L263.627 169L256.33 173.662L249.032 169L241.734 173.662L234.436 169L227.136 173.662L219.838 169L212.54 173.662L205.245 169L197.947 173.662L190.65 169L183.352 173.662L176.054 169L168.756 173.662L161.461 169L154.163 173.662L146.865 169L139.569 173.662M475.268 173.662L482.568 169L489.866 173.662L497.164 169L504.462 173.662L511.759 169L519.06 173.662L526.358 169L533.658 173.662L540.958 169L548.259 173.662M475.268 173.662L467.972 169M475.268 173.662L482.565 169L489.862 173.662L497.16 169L504.455 173.662L511.753 169L519.051 173.662L526.349 169L533.646 173.662L540.944 169L548.239 173.662L555.537 169L562.835 173.662L570.135 169L577.433 173.662L584.731 169L592.029 173.662L599.327 169L606.624 173.662L613.925 169L621.223 173.662L628.52 169L635.818 173.662L643.116 169L650.416 173.662L657.714 169L665.014 173.662L672.315 169L679.615 173.662M475.268 38.338L467.97 33.676L460.672 38.338L453.375 33.676L446.077 38.338L438.779 33.676L431.479 38.338L424.181 33.676L416.883 38.338L409.588 33.676L402.29 38.338L394.992 33.676L387.694 38.338L380.397 33.676L373.099 38.338L365.804 33.676L358.506 38.338L351.208 33.676L343.91 38.338L336.615 33.676L329.315 38.338L322.015 33.676L314.717 38.338L307.417 33.676L300.119 38.338L292.821 33.676L285.523 38.338L278.226 33.676L270.925 38.338L263.627 33.676L256.33 38.338L249.032 33.676L241.734 38.338L234.436 33.676L227.136 38.338L219.838 33.676L212.54 38.338L205.245 33.676L197.947 38.338L190.65 33.676L183.352 38.338L176.054 33.676L168.756 38.338L161.461 33.676L154.163 38.338L146.865 33.676L139.569 38.338M475.268 38.338L482.568 33.676L489.866 38.338L497.164 33.676L504.462 38.338L511.759 33.676L519.06 38.338L526.358 33.676L533.658 38.338L540.958 33.676L548.259 38.338M475.268 38.338L467.972 33.676M475.268 38.338L482.565 33.676L489.862 38.338L497.16 33.676L504.455 38.338L511.753 33.676L519.051 38.338L526.349 33.676L533.646 38.338L540.944 33.676L548.239 38.338L555.537 33.676L562.835 38.338L570.135 33.676L577.433 38.338L584.731 33.676L592.029 38.338L599.327 33.676L606.624 38.338L613.925 33.676L621.223 38.338L628.52 33.676L635.818 38.338L643.116 33.676L650.416 38.338L657.714 33.676L665.014 38.338L672.315 33.676L679.615 38.338M475.268 117.676L467.97 112.993L460.672 117.676L453.375 112.993L446.077 117.676L438.779 112.993L431.479 117.676L424.181 112.993L416.883 117.676L409.588 112.993L402.29 117.676L394.992 112.993L387.694 117.676L380.397 112.993L373.099 117.676L365.804 112.993L358.506 117.676L351.208 112.993L343.91 117.676L336.615 112.993L329.315 117.676L322.015 112.993L314.717 117.676L307.417 112.993L300.119 117.676L292.821 112.993L285.523 117.676L278.226 112.993L270.925 117.676L263.627 112.993L256.33 117.676L249.032 112.993L241.734 117.676L234.436 112.993L227.136 117.676L219.838 112.993L212.54 117.676L205.245 112.993L197.947 117.676L190.65 112.993L183.352 117.676L176.054 112.993L168.756 117.676L161.461 112.993L154.163 117.676L146.865 112.993L139.569 117.676M475.268 117.676L482.568 112.993L489.866 117.676L497.164 112.993L504.462 117.676L511.759 112.993L519.06 117.676L526.358 112.993L533.658 117.676L540.958 112.993L548.259 117.676M475.268 117.676L467.972 112.993M475.268 117.676L482.565 112.993L489.862 117.676L497.16 112.993L504.455 117.676L511.753 112.993L519.051 117.676L526.349 112.993L533.646 117.676L540.944 112.993L548.239 117.676L555.537 112.993L562.835 117.676L570.135 112.993L577.433 117.676L584.731 112.993L592.029 117.676L599.327 112.993L606.624 117.676L613.925 112.993L621.223 117.676L628.52 112.993L635.818 117.676L643.116 112.993L650.416 117.676L657.714 112.993L665.014 117.676L672.315 112.993L679.615 117.676M475.268 75.6762L467.97 70.9932L460.672 75.6762L453.375 70.9932L446.077 75.6762L438.779 70.9932L431.479 75.6762L424.181 70.9932L416.883 75.6762L409.588 70.9932L402.29 75.6762L394.992 70.9932L387.694 75.6762L380.397 70.9932L373.099 75.6762L365.804 70.9932L358.506 75.6762L351.208 70.9932L343.91 75.6762L336.615 70.9932L329.315 75.6762L322.015 70.9932L314.717 75.6762L307.417 70.9932L300.119 75.6762L292.821 70.9932L285.523 75.6762L278.226 70.9932L270.925 75.6762L263.627 70.9932L256.33 75.6762L249.032 70.9932L241.734 75.6762L234.436 70.9932L227.136 75.6762L219.838 70.9932L212.54 75.6762L205.245 70.9932L197.947 75.6762L190.65 70.9932L183.352 75.6762L176.054 70.9932L168.756 75.6762L161.461 70.9932L154.163 75.6762L146.865 70.9932L139.569 75.6762M475.268 75.6762L482.568 70.9932L489.866 75.6762L497.164 70.9932L504.462 75.6762L511.759 70.9932L519.06 75.6762L526.358 70.9932L533.658 75.6762L540.958 70.9932L548.259 75.6762M475.268 75.6762L467.972 70.9932M475.268 75.6762L482.565 70.9932L489.862 75.6762L497.16 70.9932L504.455 75.6762L511.753 70.9932L519.051 75.6762L526.349 70.9932L533.646 75.6762L540.944 70.9932L548.239 75.6762L555.537 70.9932L562.835 75.6762L570.135 70.9932L577.433 75.6762L584.731 70.9932L592.029 75.6762L599.327 70.9932L606.624 75.6762L613.925 70.9932L621.223 75.6762L628.52 70.9932L635.818 75.6762L643.116 70.9932L650.416 75.6762L657.714 70.9932L665.014 75.6762L672.315 70.9932L679.615 75.6762M475.268 154.993L467.97 150.331L460.672 154.993L453.375 150.331L446.077 154.993L438.779 150.331L431.479 154.993L424.181 150.331L416.883 154.993L409.588 150.331L402.29 154.993L394.992 150.331L387.694 154.993L380.397 150.331L373.099 154.993L365.804 150.331L358.506 154.993L351.208 150.331L343.91 154.993L336.615 150.331L329.315 154.993L322.015 150.331L314.717 154.993L307.417 150.331L300.119 154.993L292.821 150.331L285.523 154.993L278.226 150.331L270.925 154.993L263.627 150.331L256.33 154.993L249.032 150.331L241.734 154.993L234.436 150.331L227.136 154.993L219.838 150.331L212.54 154.993L205.245 150.331L197.947 154.993L190.65 150.331L183.352 154.993L176.054 150.331L168.756 154.993L161.461 150.331L154.163 154.993L146.865 150.331L139.569 154.993M475.268 154.993L482.568 150.331L489.866 154.993L497.164 150.331L504.462 154.993L511.759 150.331L519.06 154.993L526.358 150.331L533.658 154.993L540.958 150.331L548.259 154.993M475.268 154.993L467.972 150.331M475.268 154.993L482.565 150.331L489.862 154.993L497.16 150.331L504.455 154.993L511.753 150.331L519.051 154.993L526.349 150.331L533.646 154.993L540.944 150.331L548.239 154.993L555.537 150.331L562.835 154.993L570.135 150.331L577.433 154.993L584.731 150.331L592.029 154.993L599.327 150.331L606.624 154.993L613.925 150.331L621.223 154.993L628.52 150.331L635.818 154.993L643.116 150.331L650.416 154.993L657.714 150.331L665.014 154.993L672.315 150.331L679.615 154.993M475.268 112.993L467.97 108.331L460.672 112.993L453.375 108.331L446.077 112.993L438.779 108.331L431.479 112.993L424.181 108.331L416.883 112.993L409.588 108.331L402.29 112.993L394.992 108.331L387.694 112.993L380.397 108.331L373.099 112.993L365.804 108.331L358.506 112.993L351.208 108.331L343.91 112.993L336.615 108.331L329.315 112.993L322.015 108.331L314.717 112.993L307.417 108.331L300.119 112.993L292.821 108.331L285.523 112.993L278.226 108.331L270.925 112.993L263.627 108.331L256.33 112.993L249.032 108.331L241.734 112.993L234.436 108.331L227.136 112.993L219.838 108.331L212.54 112.993L205.245 108.331L197.947 112.993L190.65 108.331L183.352 112.993L176.054 108.331L168.756 112.993L161.461 108.331L154.163 112.993L146.865 108.331L139.569 112.993M475.268 112.993L482.568 108.331L489.866 112.993L497.164 108.331L504.462 112.993L511.759 108.331L519.06 112.993L526.358 108.331L533.658 112.993L540.958 108.331L548.259 112.993M475.268 112.993L467.972 108.331M475.268 112.993L482.565 108.331L489.862 112.993L497.16 108.331L504.455 112.993L511.753 108.331L519.051 112.993L526.349 108.331L533.646 112.993L540.944 108.331L548.239 112.993L555.537 108.331L562.835 112.993L570.135 108.331L577.433 112.993L584.731 108.331L592.029 112.993L599.327 108.331L606.624 112.993L613.925 108.331L621.223 112.993L628.52 108.331L635.818 112.993L643.116 108.331L650.416 112.993L657.714 108.331L665.014 112.993L672.315 108.331L679.615 112.993M475.268 192.331L467.97 187.669L460.672 192.331L453.375 187.669L446.077 192.331L438.779 187.669L431.479 192.331L424.181 187.669L416.883 192.331L409.588 187.669L402.29 192.331L394.992 187.669L387.694 192.331L380.397 187.669L373.099 192.331L365.804 187.669L358.506 192.331L351.208 187.669L343.91 192.331L336.615 187.669L329.315 192.331L322.015 187.669L314.717 192.331L307.417 187.669L300.119 192.331L292.821 187.669L285.523 192.331L278.226 187.669L270.925 192.331L263.627 187.669L256.33 192.331L249.032 187.669L241.734 192.331L234.436 187.669L227.136 192.331L219.838 187.669L212.54 192.331L205.245 187.669L197.947 192.331L190.65 187.669L183.352 192.331L176.054 187.669L168.756 192.331L161.461 187.669L154.163 192.331L146.865 187.669L139.569 192.331M475.268 192.331L482.568 187.669L489.866 192.331L497.164 187.669L504.462 192.331L511.759 187.669L519.06 192.331L526.358 187.669L533.658 192.331L540.958 187.669L548.259 192.331M475.268 192.331L467.972 187.669M475.268 192.331L482.565 187.669L489.862 192.331L497.16 187.669L504.455 192.331L511.753 187.669L519.051 192.331L526.349 187.669L533.646 192.331L540.944 187.669L548.239 192.331L555.537 187.669L562.835 192.331L570.135 187.669L577.433 192.331L584.731 187.669L592.029 192.331L599.327 187.669L606.624 192.331L613.925 187.669L621.223 192.331L628.52 187.669L635.818 192.331L643.116 187.669L650.416 192.331L657.714 187.669L665.014 192.331L672.315 187.669L679.615 192.331M475.268 211L467.97 206.338L460.672 211L453.375 206.338L446.077 211L438.779 206.338L431.479 211L424.181 206.338L416.883 211L409.588 206.338L402.29 211L394.992 206.338L387.694 211L380.397 206.338L373.099 211L365.804 206.338L358.506 211L351.208 206.338L343.91 211L336.615 206.338L329.315 211L322.015 206.338L314.717 211L307.417 206.338L300.119 211L292.821 206.338L285.523 211L278.226 206.338L270.925 211L263.627 206.338L256.33 211L249.032 206.338L241.734 211L234.436 206.338L227.136 211L219.838 206.338L212.54 211L205.245 206.338L197.947 211L190.65 206.338L183.352 211L176.054 206.338L168.756 211L161.461 206.338L154.163 211L146.865 206.338L139.569 211M475.268 211L482.568 206.338L489.866 211L497.164 206.338L504.462 211L511.759 206.338L519.06 211L526.358 206.338L533.658 211L540.958 206.338L548.259 211M475.268 211L467.972 206.338M475.268 211L482.565 206.338L489.862 211L497.16 206.338L504.455 211L511.753 206.338L519.051 211L526.349 206.338L533.646 211L540.944 206.338L548.239 211L555.537 206.338L562.835 211L570.135 206.338L577.433 211L584.731 206.338L592.029 211L599.327 206.338L606.624 211L613.925 206.338L621.223 211L628.52 206.338L635.818 211L643.116 206.338L650.416 211L657.714 206.338L665.014 211L672.315 206.338L679.615 211M0.916046 1.00003L8.21124 5.66203L15.509 1.00003L22.8068 5.66203L30.1046 1.00003L37.3998 5.66203L44.6976 1.00003L51.9954 5.66203L59.2931 1.00003L66.5909 5.66203L73.8887 1.00003L81.1839 5.66203L88.4817 1.00003L95.7795 5.66203L103.08 1.00003L110.378 5.66203L117.675 1.00003L124.973 5.66203L132.271 1.00003L139.569 5.66203M139.569 5.66203L146.869 1.00003L154.167 5.66203L161.465 1.00003L168.763 5.66203L176.06 1.00003L183.361 5.66203L190.659 1.00003L197.959 5.66203L205.259 1.00003L212.56 5.66203M139.569 5.66203L132.272 1.00003M0.916046 38.338L8.21124 43L15.509 38.338L22.8068 43L30.1046 38.338L37.3998 43L44.6976 38.338L51.9954 43L59.2931 38.338L66.5909 43L73.8887 38.338L81.1839 43L88.4817 38.338L95.7795 43L103.08 38.338L110.378 43L117.675 38.338L124.973 43L132.271 38.338L139.569 43M139.569 43L146.869 38.338L154.167 43L161.465 38.338L168.763 43L176.06 38.338L183.361 43L190.659 38.338L197.959 43L205.259 38.338L212.56 43M139.569 43L132.272 38.338M0.916046 117.676L8.21124 122.338L15.509 117.676L22.8068 122.338L30.1046 117.676L37.3998 122.338L44.6976 117.676L51.9954 122.338L59.2931 117.676L66.5909 122.338L73.8887 117.676L81.1839 122.338L88.4817 117.676L95.7795 122.338L103.08 117.676L110.378 122.338L117.675 117.676L124.973 122.338L132.271 117.676L139.569 122.338M139.569 122.338L146.869 117.676L154.167 122.338L161.465 117.676L168.763 122.338L176.06 117.676L183.361 122.338L190.659 117.676L197.959 122.338L205.259 117.676L212.56 122.338M139.569 122.338L132.272 117.676M0.916046 75.6762L8.21124 80.3382L15.509 75.6762L22.8068 80.3382L30.1046 75.6762L37.3998 80.3382L44.6976 75.6762L51.9954 80.3382L59.2931 75.6762L66.5909 80.3382L73.8887 75.6762L81.1839 80.3382L88.4817 75.6762L95.7795 80.3382L103.08 75.6762L110.378 80.3382L117.675 75.6762L124.973 80.3382L132.271 75.6762L139.569 80.3382M139.569 80.3382L146.869 75.6762L154.167 80.3382L161.465 75.6762L168.763 80.3382L176.06 75.6762L183.361 80.3382L190.659 75.6762L197.959 80.3382L205.259 75.6762L212.56 80.3382M139.569 80.3382L132.272 75.6762M0.916046 154.993L8.21124 159.676L15.509 154.993L22.8068 159.676L30.1046 154.993L37.3998 159.676L44.6976 154.993L51.9954 159.676L59.2931 154.993L66.5909 159.676L73.8887 154.993L81.1839 159.676L88.4817 154.993L95.7795 159.676L103.08 154.993L110.378 159.676L117.675 154.993L124.973 159.676L132.271 154.993L139.569 159.676M139.569 159.676L146.869 154.993L154.167 159.676L161.465 154.993L168.763 159.676L176.06 154.993L183.361 159.676L190.659 154.993L197.959 159.676L205.259 154.993L212.56 159.676M139.569 159.676L132.272 154.993M0.916046 19.6691L8.21124 24.3311L15.509 19.6691L22.8068 24.3311L30.1046 19.6691L37.3998 24.3311L44.6976 19.6691L51.9954 24.3311L59.2931 19.6691L66.5909 24.3311L73.8887 19.6691L81.1839 24.3311L88.4817 19.6691L95.7795 24.3311L103.08 19.6691L110.378 24.3311L117.675 19.6691L124.973 24.3311L132.271 19.6691L139.569 24.3311M139.569 24.3311L146.869 19.6691L154.167 24.3311L161.465 19.6691L168.763 24.3311L176.06 19.6691L183.361 24.3311L190.659 19.6691L197.959 24.3311L205.259 19.6691L212.56 24.3311M139.569 24.3311L132.272 19.6691M0.916046 57.0072L8.21124 61.6692L15.509 57.0072L22.8068 61.6692L30.1046 57.0072L37.3998 61.6692L44.6976 57.0072L51.9954 61.6692L59.2931 57.0072L66.5909 61.6692L73.8887 57.0072L81.1839 61.6692L88.4817 57.0072L95.7795 61.6692L103.08 57.0072L110.378 61.6692L117.675 57.0072L124.973 61.6692L132.271 57.0072L139.569 61.6692M139.569 61.6692L146.869 57.0072L154.167 61.6692L161.465 57.0072L168.763 61.6692L176.06 57.0072L183.361 61.6692L190.659 57.0072L197.959 61.6692L205.259 57.0072L212.56 61.6692M139.569 61.6692L132.272 57.0072M0.916046 136.324L8.21124 141.007L15.509 136.324L22.8068 141.007L30.1046 136.324L37.3998 141.007L44.6976 136.324L51.9954 141.007L59.2931 136.324L66.5909 141.007L73.8887 136.324L81.1839 141.007L88.4817 136.324L95.7795 141.007L103.08 136.324L110.378 141.007L117.675 136.324L124.973 141.007L132.271 136.324L139.569 141.007M139.569 141.007L146.869 136.324L154.167 141.007L161.465 136.324L168.763 141.007L176.06 136.324L183.361 141.007L190.659 136.324L197.959 141.007L205.259 136.324L212.56 141.007M139.569 141.007L132.272 136.324M0.916046 94.3242L8.21124 99.0072L15.509 94.3242L22.8068 99.0072L30.1046 94.3242L37.3998 99.0072L44.6976 94.3242L51.9954 99.0072L59.2931 94.3242L66.5909 99.0072L73.8887 94.3242L81.1839 99.0072L88.4817 94.3242L95.7795 99.0072L103.08 94.3242L110.378 99.0072L117.675 94.3242L124.973 99.0072L132.271 94.3242L139.569 99.0072M139.569 99.0072L146.869 94.3242L154.167 99.0072L161.465 94.3242L168.763 99.0072L176.06 94.3242L183.361 99.0072L190.659 94.3242L197.959 99.0072L205.259 94.3242L212.56 99.0072M139.569 99.0072L132.272 94.3242M0.916046 173.662L8.21124 178.324L15.509 173.662L22.8068 178.324L30.1046 173.662L37.3998 178.324L44.6976 173.662L51.9954 178.324L59.2931 173.662L66.5909 178.324L73.8887 173.662L81.1839 178.324L88.4817 173.662L95.7795 178.324L103.08 173.662L110.378 178.324L117.675 173.662L124.973 178.324L132.271 173.662L139.569 178.324M139.569 178.324L146.869 173.662L154.167 178.324L161.465 173.662L168.763 178.324L176.06 173.662L183.361 178.324L190.659 173.662L197.959 178.324L205.259 173.662L212.56 178.324M139.569 178.324L132.272 173.662M0.916046 192.331L8.21124 196.993L15.509 192.331L22.8068 196.993L30.1046 192.331L37.3998 196.993L44.6976 192.331L51.9954 196.993L59.2931 192.331L66.5909 196.993L73.8887 192.331L81.1839 196.993L88.4817 192.331L95.7795 196.993L103.08 192.331L110.378 196.993L117.675 192.331L124.973 196.993L132.271 192.331L139.569 196.993M139.569 196.993L146.869 192.331L154.167 196.993L161.465 192.331L168.763 196.993L176.06 192.331L183.361 196.993L190.659 192.331L197.959 196.993L205.259 192.331L212.56 196.993M139.569 196.993L132.272 192.331M0.916046 10.3241L8.21124 15.0071L15.509 10.3241L22.8068 15.0071L30.1046 10.3241L37.3998 15.0071L44.6976 10.3241L51.9954 15.0071L59.2931 10.3241L66.5909 15.0071L73.8887 10.3241L81.1839 15.0071L88.4817 10.3241L95.7795 15.0071L103.08 10.3241L110.378 15.0071L117.675 10.3241L124.973 15.0071L132.271 10.3241L139.569 15.0071M139.569 15.0071L146.869 10.3241L154.167 15.0071L161.465 10.3241L168.763 15.0071L176.06 10.3241L183.361 15.0071L190.659 10.3241L197.959 15.0071L205.259 10.3241L212.56 15.0071M139.569 15.0071L132.272 10.3241M0.916046 47.662L8.21124 52.324L15.509 47.662L22.8068 52.324L30.1046 47.662L37.3998 52.324L44.6976 47.662L51.9954 52.324L59.2931 47.662L66.5909 52.324L73.8887 47.662L81.1839 52.324L88.4817 47.662L95.7795 52.324L103.08 47.662L110.378 52.324L117.675 47.662L124.973 52.324L132.271 47.662L139.569 52.324M139.569 52.324L146.869 47.662L154.167 52.324L161.465 47.662L168.763 52.324L176.06 47.662L183.361 52.324L190.659 47.662L197.959 52.324L205.259 47.662L212.56 52.324M139.569 52.324L132.272 47.662M0.916046 127L8.21124 131.662L15.509 127L22.8068 131.662L30.1046 127L37.3998 131.662L44.6976 127L51.9954 131.662L59.2931 127L66.5909 131.662L73.8887 127L81.1839 131.662L88.4817 127L95.7795 131.662L103.08 127L110.378 131.662L117.675 127L124.973 131.662L132.271 127L139.569 131.662M139.569 131.662L146.869 127L154.167 131.662L161.465 127L168.763 131.662L176.06 127L183.361 131.662L190.659 127L197.959 131.662L205.259 127L212.56 131.662M139.569 131.662L132.272 127M0.916046 85.0002L8.21124 89.6622L15.509 85.0002L22.8068 89.6622L30.1046 85.0002L37.3998 89.6622L44.6976 85.0002L51.9954 89.6622L59.2931 85.0002L66.5909 89.6622L73.8887 85.0002L81.1839 89.6622L88.4817 85.0002L95.7795 89.6622L103.08 85.0002L110.378 89.6622L117.675 85.0002L124.973 89.6622L132.271 85.0002L139.569 89.6622M139.569 89.6622L146.869 85.0002L154.167 89.6622L161.465 85.0002L168.763 89.6622L176.06 85.0002L183.361 89.6622L190.659 85.0002L197.959 89.6622L205.259 85.0002L212.56 89.6622M139.569 89.6622L132.272 85.0002M0.916046 164.338L8.21124 169L15.509 164.338L22.8068 169L30.1046 164.338L37.3998 169L44.6976 164.338L51.9954 169L59.2931 164.338L66.5909 169L73.8887 164.338L81.1839 169L88.4817 164.338L95.7795 169L103.08 164.338L110.378 169L117.675 164.338L124.973 169L132.271 164.338L139.569 169M139.569 169L146.869 164.338L154.167 169L161.465 164.338L168.763 169L176.06 164.338L183.361 169L190.659 164.338L197.959 169L205.259 164.338L212.56 169M139.569 169L132.272 164.338M0.916046 28.9931L8.21124 33.6761L15.509 28.9931L22.8068 33.6761L30.1046 28.9931L37.3998 33.6761L44.6976 28.9931L51.9954 33.6761L59.2931 28.9931L66.5909 33.6761L73.8887 28.9931L81.1839 33.6761L88.4817 28.9931L95.7795 33.6761L103.08 28.9931L110.378 33.6761L117.675 28.9931L124.973 33.6761L132.271 28.9931L139.569 33.6761M139.569 33.6761L146.869 28.9931L154.167 33.6761L161.465 28.9931L168.763 33.6761L176.06 28.9931L183.361 33.6761L190.659 28.9931L197.959 33.6761L205.259 28.9931L212.56 33.6761M139.569 33.6761L132.272 28.9931M0.916046 66.3312L8.21124 70.9932L15.509 66.3312L22.8068 70.9932L30.1046 66.3312L37.3998 70.9932L44.6976 66.3312L51.9954 70.9932L59.2931 66.3312L66.5909 70.9932L73.8887 66.3312L81.1839 70.9932L88.4817 66.3312L95.7795 70.9932L103.08 66.3312L110.378 70.9932L117.675 66.3312L124.973 70.9932L132.271 66.3312L139.569 70.9932M139.569 70.9932L146.869 66.3312L154.167 70.9932L161.465 66.3312L168.763 70.9932L176.06 66.3312L183.361 70.9932L190.659 66.3312L197.959 70.9932L205.259 66.3312L212.56 70.9932M139.569 70.9932L132.272 66.3312M0.916046 145.669L8.21124 150.331L15.509 145.669L22.8068 150.331L30.1046 145.669L37.3998 150.331L44.6976 145.669L51.9954 150.331L59.2931 145.669L66.5909 150.331L73.8887 145.669L81.1839 150.331L88.4817 145.669L95.7795 150.331L103.08 145.669L110.378 150.331L117.675 145.669L124.973 150.331L132.271 145.669L139.569 150.331M139.569 150.331L146.869 145.669L154.167 150.331L161.465 145.669L168.763 150.331L176.06 145.669L183.361 150.331L190.659 145.669L197.959 150.331L205.259 145.669L212.56 150.331M139.569 150.331L132.272 145.669M0.916046 103.669L8.21124 108.331L15.509 103.669L22.8068 108.331L30.1046 103.669L37.3998 108.331L44.6976 103.669L51.9954 108.331L59.2931 103.669L66.5909 108.331L73.8887 103.669L81.1839 108.331L88.4817 103.669L95.7795 108.331L103.08 103.669L110.378 108.331L117.675 103.669L124.973 108.331L132.271 103.669L139.569 108.331M139.569 108.331L146.869 103.669L154.167 108.331L161.465 103.669L168.763 108.331L176.06 103.669L183.361 108.331L190.659 103.669L197.959 108.331L205.259 103.669L212.56 108.331M139.569 108.331L132.272 103.669M0.916046 183.007L8.21124 187.669L15.509 183.007L22.8068 187.669L30.1046 183.007L37.3998 187.669L44.6976 183.007L51.9954 187.669L59.2931 183.007L66.5909 187.669L73.8887 183.007L81.1839 187.669L88.4817 183.007L95.7795 187.669L103.08 183.007L110.378 187.669L117.675 183.007L124.973 187.669L132.271 183.007L139.569 187.669M139.569 187.669L146.869 183.007L154.167 187.669L161.465 183.007L168.763 187.669L176.06 183.007L183.361 187.669L190.659 183.007L197.959 187.669L205.259 183.007L212.56 187.669M139.569 187.669L132.272 183.007M0.916046 201.676L8.21124 206.338L15.509 201.676L22.8068 206.338L30.1046 201.676L37.3998 206.338L44.6976 201.676L51.9954 206.338L59.2931 201.676L66.5909 206.338L73.8887 201.676L81.1839 206.338L88.4817 201.676L95.7795 206.338L103.08 201.676L110.378 206.338L117.675 201.676L124.973 206.338L132.271 201.676L139.569 206.338M139.569 206.338L146.869 201.676L154.167 206.338L161.465 201.676L168.763 206.338L176.06 201.676L183.361 206.338L190.659 201.676L197.959 206.338L205.259 201.676L212.56 206.338M139.569 206.338L132.272 201.676M0.916046 5.66211L8.21124 10.3241L15.509 5.66211L22.8068 10.3241L30.1046 5.66211L37.3998 10.3241L44.6976 5.66211L51.9954 10.3241L59.2931 5.66211L66.5909 10.3241L73.8887 5.66211L81.1839 10.3241L88.4817 5.66211L95.7795 10.3241L103.08 5.66211L110.378 10.3241L117.675 5.66211L124.973 10.3241L132.271 5.66211L139.569 10.3241M139.569 10.3241L146.869 5.66211L154.167 10.3241L161.465 5.66211L168.763 10.3241L176.06 5.66211L183.361 10.3241L190.659 5.66211L197.959 10.3241L205.259 5.66211L212.56 10.3241M139.569 10.3241L132.272 5.66211M0.916046 43L8.21124 47.662L15.509 43L22.8068 47.662L30.1046 43L37.3998 47.662L44.6976 43L51.9954 47.662L59.2931 43L66.5909 47.662L73.8887 43L81.1839 47.662L88.4817 43L95.7795 47.662L103.08 43L110.378 47.662L117.675 43L124.973 47.662L132.271 43L139.569 47.662M139.569 47.662L146.869 43L154.167 47.662L161.465 43L168.763 47.662L176.06 43L183.361 47.662L190.659 43L197.959 47.662L205.259 43L212.56 47.662M139.569 47.662L132.272 43M0.916046 122.338L8.21124 127L15.509 122.338L22.8068 127L30.1046 122.338L37.3998 127L44.6976 122.338L51.9954 127L59.2931 122.338L66.5909 127L73.8887 122.338L81.1839 127L88.4817 122.338L95.7795 127L103.08 122.338L110.378 127L117.675 122.338L124.973 127L132.271 122.338L139.569 127M139.569 127L146.869 122.338L154.167 127L161.465 122.338L168.763 127L176.06 122.338L183.361 127L190.659 122.338L197.959 127L205.259 122.338L212.56 127M139.569 127L132.272 122.338M0.916046 80.3382L8.21124 85.0002L15.509 80.3382L22.8068 85.0002L30.1046 80.3382L37.3998 85.0002L44.6976 80.3382L51.9954 85.0002L59.2931 80.3382L66.5909 85.0002L73.8887 80.3382L81.1839 85.0002L88.4817 80.3382L95.7795 85.0002L103.08 80.3382L110.378 85.0002L117.675 80.3382L124.973 85.0002L132.271 80.3382L139.569 85.0002M139.569 85.0002L146.869 80.3382L154.167 85.0002L161.465 80.3382L168.763 85.0002L176.06 80.3382L183.361 85.0002L190.659 80.3382L197.959 85.0002L205.259 80.3382L212.56 85.0002M139.569 85.0002L132.272 80.3382M0.916046 159.676L8.21124 164.338L15.509 159.676L22.8068 164.338L30.1046 159.676L37.3998 164.338L44.6976 159.676L51.9954 164.338L59.2931 159.676L66.5909 164.338L73.8887 159.676L81.1839 164.338L88.4817 159.676L95.7795 164.338L103.08 159.676L110.378 164.338L117.675 159.676L124.973 164.338L132.271 159.676L139.569 164.338M139.569 164.338L146.869 159.676L154.167 164.338L161.465 159.676L168.763 164.338L176.06 159.676L183.361 164.338L190.659 159.676L197.959 164.338L205.259 159.676L212.56 164.338M139.569 164.338L132.272 159.676M0.916046 24.3311L8.21124 28.9931L15.509 24.3311L22.8068 28.9931L30.1046 24.3311L37.3998 28.9931L44.6976 24.3311L51.9954 28.9931L59.2931 24.3311L66.5909 28.9931L73.8887 24.3311L81.1839 28.9931L88.4817 24.3311L95.7795 28.9931L103.08 24.3311L110.378 28.9931L117.675 24.3311L124.973 28.9931L132.271 24.3311L139.569 28.9931M139.569 28.9931L146.869 24.3311L154.167 28.9931L161.465 24.3311L168.763 28.9931L176.06 24.3311L183.361 28.9931L190.659 24.3311L197.959 28.9931L205.259 24.3311L212.56 28.9931M139.569 28.9931L132.272 24.3311M0.916046 61.6692L8.21124 66.3312L15.509 61.6692L22.8068 66.3312L30.1046 61.6692L37.3998 66.3312L44.6976 61.6692L51.9954 66.3312L59.2931 61.6692L66.5909 66.3312L73.8887 61.6692L81.1839 66.3312L88.4817 61.6692L95.7795 66.3312L103.08 61.6692L110.378 66.3312L117.675 61.6692L124.973 66.3312L132.271 61.6692L139.569 66.3312M139.569 66.3312L146.869 61.6692L154.167 66.3312L161.465 61.6692L168.763 66.3312L176.06 61.6692L183.361 66.3312L190.659 61.6692L197.959 66.3312L205.259 61.6692L212.56 66.3312M139.569 66.3312L132.272 61.6692M0.916046 141.007L8.21124 145.669L15.509 141.007L22.8068 145.669L30.1046 141.007L37.3998 145.669L44.6976 141.007L51.9954 145.669L59.2931 141.007L66.5909 145.669L73.8887 141.007L81.1839 145.669L88.4817 141.007L95.7795 145.669L103.08 141.007L110.378 145.669L117.675 141.007L124.973 145.669L132.271 141.007L139.569 145.669M139.569 145.669L146.869 141.007L154.167 145.669L161.465 141.007L168.763 145.669L176.06 141.007L183.361 145.669L190.659 141.007L197.959 145.669L205.259 141.007L212.56 145.669M139.569 145.669L132.272 141.007M0.916046 99.007L8.21124 103.669L15.509 99.007L22.8068 103.669L30.1046 99.007L37.3998 103.669L44.6976 99.007L51.9954 103.669L59.2931 99.007L66.5909 103.669L73.8887 99.007L81.1839 103.669L88.4817 99.007L95.7795 103.669L103.08 99.007L110.378 103.669L117.675 99.007L124.973 103.669L132.271 99.007L139.569 103.669M139.569 103.669L146.869 99.007L154.167 103.669L161.465 99.007L168.763 103.669L176.06 99.007L183.361 103.669L190.659 99.007L197.959 103.669L205.259 99.007L212.56 103.669M139.569 103.669L132.272 99.007M0.916046 178.324L8.21124 183.007L15.509 178.324L22.8068 183.007L30.1046 178.324L37.3998 183.007L44.6976 178.324L51.9954 183.007L59.2931 178.324L66.5909 183.007L73.8887 178.324L81.1839 183.007L88.4817 178.324L95.7795 183.007L103.08 178.324L110.378 183.007L117.675 178.324L124.973 183.007L132.271 178.324L139.569 183.007M139.569 183.007L146.869 178.324L154.167 183.007L161.465 178.324L168.763 183.007L176.06 178.324L183.361 183.007L190.659 178.324L197.959 183.007L205.259 178.324L212.56 183.007M139.569 183.007L132.272 178.324M0.916046 196.993L8.21124 201.676L15.509 196.993L22.8068 201.676L30.1046 196.993L37.3998 201.676L44.6976 196.993L51.9954 201.676L59.2931 196.993L66.5909 201.676L73.8887 196.993L81.1839 201.676L88.4817 196.993L95.7795 201.676L103.08 196.993L110.378 201.676L117.675 196.993L124.973 201.676L132.271 196.993L139.569 201.676M139.569 201.676L146.869 196.993L154.167 201.676L161.465 196.993L168.763 201.676L176.06 196.993L183.361 201.676L190.659 196.993L197.959 201.676L205.259 196.993L212.56 201.676M139.569 201.676L132.272 196.993M0.916046 15.0071L8.21124 19.6691L15.509 15.0071L22.8068 19.6691L30.1046 15.0071L37.3998 19.6691L44.6976 15.0071L51.9954 19.6691L59.2931 15.0071L66.5909 19.6691L73.8887 15.0071L81.1839 19.6691L88.4817 15.0071L95.7795 19.6691L103.08 15.0071L110.378 19.6691L117.675 15.0071L124.973 19.6691L132.271 15.0071L139.569 19.6691M139.569 19.6691L146.869 15.0071L154.167 19.6691L161.465 15.0071L168.763 19.6691L176.06 15.0071L183.361 19.6691L190.659 15.0071L197.959 19.6691L205.259 15.0071L212.56 19.6691M139.569 19.6691L132.272 15.0071M0.916046 52.324L8.21124 57.007L15.509 52.324L22.8068 57.007L30.1046 52.324L37.3998 57.007L44.6976 52.324L51.9954 57.007L59.2931 52.324L66.5909 57.007L73.8887 52.324L81.1839 57.007L88.4817 52.324L95.7795 57.007L103.08 52.324L110.378 57.007L117.675 52.324L124.973 57.007L132.271 52.324L139.569 57.007M139.569 57.007L146.869 52.324L154.167 57.007L161.465 52.324L168.763 57.007L176.06 52.324L183.361 57.007L190.659 52.324L197.959 57.007L205.259 52.324L212.56 57.007M139.569 57.007L132.272 52.324M0.916046 131.662L8.21124 136.324L15.509 131.662L22.8068 136.324L30.1046 131.662L37.3998 136.324L44.6976 131.662L51.9954 136.324L59.2931 131.662L66.5909 136.324L73.8887 131.662L81.1839 136.324L88.4817 131.662L95.7795 136.324L103.08 131.662L110.378 136.324L117.675 131.662L124.973 136.324L132.271 131.662L139.569 136.324M139.569 136.324L146.869 131.662L154.167 136.324L161.465 131.662L168.763 136.324L176.06 131.662L183.361 136.324L190.659 131.662L197.959 136.324L205.259 131.662L212.56 136.324M139.569 136.324L132.272 131.662M0.916046 89.6622L8.21124 94.3242L15.509 89.6622L22.8068 94.3242L30.1046 89.6622L37.3998 94.3242L44.6976 89.6622L51.9954 94.3242L59.2931 89.6622L66.5909 94.3242L73.8887 89.6622L81.1839 94.3242L88.4817 89.6622L95.7795 94.3242L103.08 89.6622L110.378 94.3242L117.675 89.6622L124.973 94.3242L132.271 89.6622L139.569 94.3242M139.569 94.3242L146.869 89.6622L154.167 94.3242L161.465 89.6622L168.763 94.3242L176.06 89.6622L183.361 94.3242L190.659 89.6622L197.959 94.3242L205.259 89.6622L212.56 94.3242M139.569 94.3242L132.272 89.6622M0.916046 169L8.21124 173.662L15.509 169L22.8068 173.662L30.1046 169L37.3998 173.662L44.6976 169L51.9954 173.662L59.2931 169L66.5909 173.662L73.8887 169L81.1839 173.662L88.4817 169L95.7795 173.662L103.08 169L110.378 173.662L117.675 169L124.973 173.662L132.271 169L139.569 173.662M139.569 173.662L146.869 169L154.167 173.662L161.465 169L168.763 173.662L176.06 169L183.361 173.662L190.659 169L197.959 173.662L205.259 169L212.56 173.662M139.569 173.662L132.272 169M0.916046 33.676L8.21124 38.338L15.509 33.676L22.8068 38.338L30.1046 33.676L37.3998 38.338L44.6976 33.676L51.9954 38.338L59.2931 33.676L66.5909 38.338L73.8887 33.676L81.1839 38.338L88.4817 33.676L95.7795 38.338L103.08 33.676L110.378 38.338L117.675 33.676L124.973 38.338L132.271 33.676L139.569 38.338M139.569 38.338L146.869 33.676L154.167 38.338L161.465 33.676L168.763 38.338L176.06 33.676L183.361 38.338L190.659 33.676L197.959 38.338L205.259 33.676L212.56 38.338M139.569 38.338L132.272 33.676M0.916046 112.993L8.21124 117.676L15.509 112.993L22.8068 117.676L30.1046 112.993L37.3998 117.676L44.6976 112.993L51.9954 117.676L59.2931 112.993L66.5909 117.676L73.8887 112.993L81.1839 117.676L88.4817 112.993L95.7795 117.676L103.08 112.993L110.378 117.676L117.675 112.993L124.973 117.676L132.271 112.993L139.569 117.676M139.569 117.676L146.869 112.993L154.167 117.676L161.465 112.993L168.763 117.676L176.06 112.993L183.361 117.676L190.659 112.993L197.959 117.676L205.259 112.993L212.56 117.676M139.569 117.676L132.272 112.993M0.916046 70.9932L8.21124 75.6762L15.509 70.9932L22.8068 75.6762L30.1046 70.9932L37.3998 75.6762L44.6976 70.9932L51.9954 75.6762L59.2931 70.9932L66.5909 75.6762L73.8887 70.9932L81.1839 75.6762L88.4817 70.9932L95.7795 75.6762L103.08 70.9932L110.378 75.6762L117.675 70.9932L124.973 75.6762L132.271 70.9932L139.569 75.6762M139.569 75.6762L146.869 70.9932L154.167 75.6762L161.465 70.9932L168.763 75.6762L176.06 70.9932L183.361 75.6762L190.659 70.9932L197.959 75.6762L205.259 70.9932L212.56 75.6762M139.569 75.6762L132.272 70.9932M0.916046 150.331L8.21124 154.993L15.509 150.331L22.8068 154.993L30.1046 150.331L37.3998 154.993L44.6976 150.331L51.9954 154.993L59.2931 150.331L66.5909 154.993L73.8887 150.331L81.1839 154.993L88.4817 150.331L95.7795 154.993L103.08 150.331L110.378 154.993L117.675 150.331L124.973 154.993L132.271 150.331L139.569 154.993M139.569 154.993L146.869 150.331L154.167 154.993L161.465 150.331L168.763 154.993L176.06 150.331L183.361 154.993L190.659 150.331L197.959 154.993L205.259 150.331L212.56 154.993M139.569 154.993L132.272 150.331M0.916046 108.331L8.21124 112.993L15.509 108.331L22.8068 112.993L30.1046 108.331L37.3998 112.993L44.6976 108.331L51.9954 112.993L59.2931 108.331L66.5909 112.993L73.8887 108.331L81.1839 112.993L88.4817 108.331L95.7795 112.993L103.08 108.331L110.378 112.993L117.675 108.331L124.973 112.993L132.271 108.331L139.569 112.993M139.569 112.993L146.869 108.331L154.167 112.993L161.465 108.331L168.763 112.993L176.06 108.331L183.361 112.993L190.659 108.331L197.959 112.993L205.259 108.331L212.56 112.993M139.569 112.993L132.272 108.331M0.916046 187.669L8.21124 192.331L15.509 187.669L22.8068 192.331L30.1046 187.669L37.3998 192.331L44.6976 187.669L51.9954 192.331L59.2931 187.669L66.5909 192.331L73.8887 187.669L81.1839 192.331L88.4817 187.669L95.7795 192.331L103.08 187.669L110.378 192.331L117.675 187.669L124.973 192.331L132.271 187.669L139.569 192.331M139.569 192.331L146.869 187.669L154.167 192.331L161.465 187.669L168.763 192.331L176.06 187.669L183.361 192.331L190.659 187.669L197.959 192.331L205.259 187.669L212.56 192.331M139.569 192.331L132.272 187.669M0.916046 206.338L8.21124 211L15.509 206.338L22.8068 211L30.1046 206.338L37.3998 211L44.6976 206.338L51.9954 211L59.2931 206.338L66.5909 211L73.8887 206.338L81.1839 211L88.4817 206.338L95.7795 211L103.08 206.338L110.378 211L117.675 206.338L124.973 211L132.271 206.338L139.569 211M139.569 211L146.869 206.338L154.167 211L161.465 206.338L168.763 211L176.06 206.338L183.361 211L190.659 206.338L197.959 211L205.259 206.338L212.56 211M139.569 211L132.272 206.338" stroke="#181C25" stroke-width="0.597907" stroke-miterlimit="10" stroke-linecap="round"/>
</svg>
