<svg width="375" height="300" viewBox="0 0 375 300" fill="none" xmlns="http://www.w3.org/2000/svg">
<g clip-path="url(#clip0_712_17150)">
<path d="M-354.233 299.985L-366.521 283.319L-354.233 266.646L-366.521 249.98L-354.233 233.308L-366.521 216.636L-354.233 199.963M-255.817 299.985L-268.105 283.319L-255.817 266.646L-268.105 249.98L-255.817 233.308L-268.105 216.636L-255.817 199.963M-46.6967 299.985L-58.9848 283.319L-46.6967 266.646L-58.9848 249.98L-46.6967 233.308L-58.9848 216.636L-46.6967 199.963M-157.4 299.985L-169.689 283.319L-157.4 266.646L-169.689 249.98L-157.4 233.308L-169.689 216.636L-157.4 199.963M51.7194 299.985L39.3759 283.319L51.7194 266.646L39.3759 249.98L51.7194 233.308L39.3759 216.636L51.7194 199.963M-305.025 299.985L-317.313 283.319L-305.025 266.646L-317.313 249.98L-305.025 233.308L-317.313 216.636L-305.025 199.963M-206.608 299.985L-218.897 283.319L-206.608 266.646L-218.897 249.98L-206.608 233.308L-218.897 216.636L-206.608 199.963M2.51139 299.985L-9.83215 283.319L2.51139 266.646L-9.83215 249.98L2.51139 233.308L-9.83215 216.636L2.51138 199.963M-108.192 299.985L-120.536 283.319L-108.192 266.646L-120.536 249.98L-108.192 233.308L-120.536 216.636L-108.192 199.963M100.872 299.985L88.5839 283.319L100.872 266.646L88.5839 249.98L100.872 233.308L88.5839 216.636L100.872 199.963M150.08 299.985L137.792 283.319L150.08 266.646L137.792 249.98L150.08 233.308L137.792 216.636L150.08 199.963M-329.601 299.985L-341.944 283.319L-329.601 266.646L-341.944 249.98L-329.601 233.308L-341.944 216.636L-329.601 199.963M-231.24 299.985L-243.529 283.319L-231.24 266.646L-243.529 249.98L-231.241 233.308L-243.529 216.636L-231.241 199.963M-22.1199 299.985L-34.4081 283.319L-22.1199 266.646L-34.4081 249.98L-22.1199 233.308L-34.4081 216.636L-22.1199 199.963M-132.824 299.985L-145.112 283.319L-132.824 266.646L-145.112 249.98L-132.824 233.308L-145.112 216.636L-132.824 199.963M76.2957 299.985L64.0075 283.319L76.2957 266.646L64.0075 249.98L76.2957 233.308L64.0075 216.636L76.2957 199.963M-280.393 299.985L-292.736 283.319L-280.393 266.646L-292.736 249.98L-280.393 233.308L-292.736 216.636L-280.393 199.963M-182.032 299.985L-194.32 283.319L-182.032 266.646L-194.32 249.98L-182.032 233.308L-194.32 216.636L-182.032 199.963M27.0877 299.985L14.7995 283.319L27.0877 266.646L14.7995 249.98L27.0877 233.308L14.7995 216.636L27.0877 199.963M-83.6161 299.985L-95.9042 283.319L-83.6161 266.646L-95.9042 249.98L-83.6161 233.308L-95.9042 216.636L-83.6161 199.963M125.504 299.985L113.216 283.319L125.504 266.646L113.216 249.98L125.504 233.308L113.216 216.636L125.504 199.963M174.712 299.985L162.424 283.319L174.712 266.646L162.424 249.98L174.712 233.308L162.424 216.636L174.712 199.963M-341.944 299.985L-354.233 283.319L-341.944 266.646L-354.233 249.98L-341.944 233.308L-354.233 216.636L-341.944 199.963M-243.529 299.985L-255.817 283.319L-243.529 266.646L-255.817 249.98L-243.529 233.308L-255.817 216.636L-243.529 199.963M-34.4081 299.985L-46.6962 283.319L-34.4081 266.646L-46.6962 249.98L-34.4081 233.308L-46.6962 216.636L-34.4081 199.963M-145.112 299.985L-157.4 283.319L-145.112 266.646L-157.4 249.98L-145.112 233.308L-157.4 216.636L-145.112 199.963M64.0075 299.985L51.7194 283.319L64.0075 266.646L51.7194 249.98L64.0075 233.308L51.7194 216.636L64.0075 199.963M-292.736 299.985L-305.025 283.319L-292.736 266.646L-305.025 249.98L-292.736 233.308L-305.025 216.636L-292.736 199.963M-194.32 299.985L-206.608 283.319L-194.32 266.646L-206.608 249.98L-194.32 233.308L-206.608 216.636L-194.32 199.963M14.7995 299.985L2.51136 283.319L14.7995 266.646L2.51135 249.98L14.7995 233.308L2.51135 216.636L14.7995 199.963M-95.9046 299.985L-108.193 283.319L-95.9046 266.646L-108.193 249.98L-95.9046 233.308L-108.193 216.636L-95.9046 199.963M113.216 299.985L100.872 283.319L113.216 266.646L100.872 249.98L113.216 233.308L100.872 216.636L113.216 199.963M162.424 299.985L150.08 283.319L162.424 266.646L150.08 249.98L162.424 233.308L150.08 216.636L162.424 199.963M-317.313 299.985L-329.601 283.319L-317.313 266.646L-329.601 249.98L-317.313 233.308L-329.601 216.636L-317.313 199.963M-218.897 299.985L-231.24 283.319L-218.897 266.646L-231.24 249.98L-218.897 233.308L-231.24 216.636L-218.897 199.963M-9.83215 299.985L-22.1203 283.319L-9.83215 266.646L-22.1203 249.98L-9.83215 233.308L-22.1203 216.636L-9.83215 199.963M-120.536 299.985L-132.824 283.319L-120.536 266.646L-132.824 249.98L-120.536 233.308L-132.824 216.636L-120.536 199.963M88.5839 299.985L76.2957 283.319L88.5839 266.646L76.2957 249.98L88.5839 233.308L76.2957 216.636L88.5839 199.963M-268.105 299.985L-280.393 283.319L-268.105 266.646L-280.393 249.98L-268.105 233.308L-280.393 216.636L-268.105 199.963M-58.9848 299.985L-71.3283 283.319L-58.9848 266.646L-71.3283 249.98L-58.9848 233.308L-71.3283 216.636L-58.9848 199.963M-169.689 299.985L-182.032 283.319L-169.689 266.646L-182.032 249.98L-169.689 233.308L-182.032 216.636L-169.689 199.963M39.3759 299.985L27.0877 283.319L39.3759 266.646L27.0877 249.98L39.3759 233.308L27.0877 216.636L39.3759 199.963M-71.3283 299.985L-83.6165 283.319L-71.3283 266.646L-83.6165 249.98L-71.3283 233.308L-83.6165 216.636L-71.3283 199.963M137.792 299.985L125.504 283.319L137.792 266.646L125.504 249.98L137.792 233.308L125.504 216.636L137.792 199.963M187 299.985L174.712 283.319L187 266.646L174.712 249.98L187 233.308L174.712 216.636L187 199.963M-354.233 299.999L-366.521 283.333L-354.233 266.667L-366.521 250.001L-354.233 233.334L-366.521 216.668L-354.233 200.008L-366.521 183.341L-354.233 166.675L-366.521 150.003L-354.233 133.337L-366.521 116.67L-354.233 100.004L-366.521 83.3377L-354.233 66.6714L-366.521 49.9991L-354.233 33.3328L-366.521 16.6663L-354.233 1.11898e-05M-255.817 299.999L-268.105 283.333L-255.817 266.667L-268.105 250.001L-255.817 233.334L-268.105 216.668L-255.817 200.008L-268.105 183.341L-255.817 166.675L-268.105 150.003L-255.817 133.337L-268.105 116.67L-255.817 100.004L-268.105 83.3377L-255.817 66.6714L-268.105 49.9991L-255.817 33.3328L-268.105 16.6663L-255.817 6.88788e-06M-46.6967 299.999L-58.9848 283.333L-46.6967 266.667L-58.9848 250.001L-46.6967 233.334L-58.9848 216.668L-46.6967 200.008L-58.9848 183.341L-46.6967 166.675L-58.9848 150.003L-46.6967 133.337L-58.9848 116.67L-46.6967 100.004L-58.9848 83.3376L-46.6967 66.6713L-58.9848 49.9991L-46.6967 33.3328L-58.9848 16.6663L-46.6967 -2.25306e-06M-157.4 299.999L-169.689 283.333L-157.4 266.667L-169.689 250.001L-157.4 233.334L-169.689 216.668L-157.4 200.008L-169.689 183.341L-157.4 166.675L-169.689 150.003L-157.4 133.337L-169.689 116.67L-157.4 100.004L-169.689 83.3376L-157.4 66.6714L-169.689 49.9991L-157.4 33.3328L-169.689 16.6663L-157.4 2.58596e-06M51.7194 299.999L39.3759 283.333L51.7194 266.667L39.3759 250.001L51.7194 233.334L39.3759 216.668L51.7194 200.008L39.3759 183.341L51.7194 166.675L39.3759 150.003L51.7194 133.337L39.3758 116.67L51.7194 100.004L39.3758 83.3376L51.7194 66.6713L39.3758 49.9991L51.7194 33.3328L39.3758 16.6663L51.7194 -6.55496e-06M-305.025 299.999L-317.313 283.333L-305.025 266.667L-317.313 250.001L-305.025 233.334L-317.313 216.668L-305.025 200.008L-317.313 183.341L-305.025 166.675L-317.313 150.003L-305.025 133.337L-317.313 116.67L-305.025 100.004L-317.313 83.3377L-305.025 66.6714L-317.313 49.9991L-305.025 33.3328L-317.313 16.6663L-305.025 9.03882e-06M-206.608 299.999L-218.897 283.333L-206.608 266.667L-218.897 250.001L-206.608 233.334L-218.897 216.668L-206.608 200.008L-218.897 183.341L-206.608 166.675L-218.897 150.003L-206.608 133.337L-218.897 116.67L-206.608 100.004L-218.897 83.3376L-206.608 66.6714L-218.897 49.9991L-206.608 33.3328L-218.897 16.6663L-206.608 4.73691e-06M2.51139 299.999L-9.83215 283.333L2.51139 266.667L-9.83215 250.001L2.51139 233.334L-9.83215 216.668L2.51138 200.008L-9.83216 183.341L2.51138 166.675L-9.83216 150.003L2.51138 133.337L-9.83216 116.67L2.51138 100.004L-9.83216 83.3376L2.51138 66.6713L-9.83216 49.9991L2.51138 33.3328L-9.83216 16.6663L2.51138 -4.40401e-06M-108.192 299.999L-120.536 283.333L-108.192 266.667L-120.536 250.001L-108.192 233.334L-120.536 216.668L-108.192 200.008L-120.536 183.341L-108.192 166.675L-120.536 150.003L-108.192 133.337L-120.536 116.67L-108.192 100.004L-120.536 83.3376L-108.192 66.6713L-120.536 49.9991L-108.192 33.3328L-120.536 16.6663L-108.192 4.35005e-07M100.872 299.999L88.5839 283.333L100.872 266.667L88.5839 250.001L100.872 233.334L88.5839 216.668L100.872 200.008L88.5839 183.341L100.872 166.675L88.5839 150.003L100.872 133.337L88.5839 116.67L100.872 100.004L88.5839 83.3376L100.872 66.6713L88.5839 49.9991L100.872 33.3328L88.5839 16.6663L100.872 -8.70349e-06M150.08 299.999L137.792 283.333L150.08 266.667L137.792 250.001L150.08 233.334L137.792 216.668L150.08 200.008L137.792 183.341L150.08 166.675L137.792 150.003L150.08 133.337L137.792 116.67L150.08 100.004L137.792 83.3376L150.08 66.6713L137.792 49.9991L150.08 33.3328L137.792 16.6663L150.08 -1.08544e-05M-329.601 299.999L-341.944 283.333L-329.601 266.667L-341.944 250.001L-329.601 233.334L-341.944 216.668L-329.601 200.008L-341.944 183.341L-329.601 166.675L-341.944 150.003L-329.601 133.337L-341.944 116.67L-329.601 100.004L-341.944 83.3377L-329.601 66.6714L-341.944 49.9991L-329.601 33.3328L-341.944 16.6663L-329.601 1.01131e-05M-231.24 299.999L-243.529 283.333L-231.24 266.667L-243.529 250.001L-231.241 233.334L-243.529 216.668L-231.241 200.008L-243.529 183.341L-231.241 166.675L-243.529 150.003L-231.241 133.337L-243.529 116.67L-231.241 100.004L-243.529 83.3376L-231.241 66.6714L-243.529 49.9991L-231.241 33.3328L-243.529 16.6663L-231.241 5.81361e-06M-22.1199 299.999L-34.4081 283.333L-22.1199 266.667L-34.4081 250.001L-22.1199 233.334L-34.4081 216.668L-22.1199 200.008L-34.4081 183.341L-22.1199 166.675L-34.4081 150.003L-22.1199 133.337L-34.4081 116.67L-22.1199 100.004L-34.4081 83.3376L-22.1199 66.6713L-34.4081 49.9991L-22.1199 33.3328L-34.4081 16.6663L-22.1199 -3.32734e-06M-132.824 299.999L-145.112 283.333L-132.824 266.667L-145.112 250.001L-132.824 233.334L-145.112 216.668L-132.824 200.008L-145.112 183.341L-132.824 166.675L-145.112 150.003L-132.824 133.337L-145.112 116.67L-132.824 100.004L-145.112 83.3376L-132.824 66.6714L-145.112 49.9991L-132.824 33.3328L-145.112 16.6663L-132.824 1.51169e-06M76.2957 299.999L64.0075 283.333L76.2957 266.667L64.0075 250.001L76.2957 233.334L64.0075 216.668L76.2957 200.008L64.0075 183.341L76.2957 166.675L64.0075 150.003L76.2957 133.337L64.0075 116.67L76.2957 100.004L64.0075 83.3376L76.2957 66.6713L64.0075 49.9991L76.2957 33.3328L64.0075 16.6663L76.2957 -7.62922e-06M-280.393 299.999L-292.736 283.333L-280.393 266.667L-292.736 250.001L-280.393 233.334L-292.736 216.668L-280.393 200.008L-292.736 183.341L-280.393 166.675L-292.736 150.003L-280.393 133.337L-292.736 116.67L-280.393 100.004L-292.736 83.3377L-280.393 66.6714L-292.736 49.9991L-280.393 33.3328L-292.736 16.6663L-280.393 7.96213e-06M-182.032 299.999L-194.32 283.333L-182.032 266.667L-194.32 250.001L-182.032 233.334L-194.32 216.668L-182.032 200.008L-194.32 183.341L-182.032 166.675L-194.32 150.003L-182.032 133.337L-194.32 116.67L-182.032 100.004L-194.32 83.3376L-182.032 66.6714L-194.32 49.9991L-182.032 33.3328L-194.32 16.6663L-182.032 3.66264e-06M27.0877 299.999L14.7995 283.333L27.0877 266.667L14.7995 250.001L27.0877 233.334L14.7995 216.668L27.0877 200.008L14.7995 183.341L27.0877 166.675L14.7995 150.003L27.0877 133.337L14.7995 116.67L27.0877 100.004L14.7995 83.3376L27.0877 66.6713L14.7995 49.9991L27.0877 33.3328L14.7995 16.6663L27.0877 -5.47827e-06M-83.6161 299.999L-95.9042 283.333L-83.6161 266.667L-95.9042 250.001L-83.6161 233.334L-95.9042 216.668L-83.6161 200.008L-95.9042 183.341L-83.6161 166.675L-95.9042 150.003L-83.6161 133.337L-95.9042 116.67L-83.6161 100.004L-95.9042 83.3376L-83.6161 66.6713L-95.9042 49.9991L-83.6161 33.3328L-95.9042 16.6663L-83.6161 -6.39259e-07M125.504 299.999L113.216 283.333L125.504 266.667L113.216 250.001L125.504 233.334L113.216 216.668L125.504 200.008L113.216 183.341L125.504 166.675L113.216 150.003L125.504 133.337L113.216 116.67L125.504 100.004L113.216 83.3376L125.504 66.6713L113.216 49.9991L125.504 33.3328L113.216 16.6663L125.504 -9.78017e-06M174.712 299.999L162.424 283.333L174.712 266.667L162.424 250.001L174.712 233.334L162.424 216.668L174.712 200.008L162.424 183.341L174.712 166.675L162.424 150.003L174.712 133.337L162.424 116.67L174.712 100.004L162.424 83.3376L174.712 66.6713L162.424 49.9991L174.712 33.3328L162.424 16.6663L174.712 -1.19311e-05M-341.944 299.999L-354.233 283.333L-341.944 266.667L-354.233 250.001L-341.944 233.334L-354.233 216.668L-341.944 200.008L-354.233 183.341L-341.944 166.675L-354.233 150.003L-341.944 133.337L-354.233 116.67L-341.944 100.004L-354.233 83.3377L-341.944 66.6714L-354.233 49.9991L-341.944 33.3328L-354.233 16.6663L-341.944 1.06526e-05M-243.529 299.999L-255.817 283.333L-243.529 266.667L-255.817 250.001L-243.529 233.334L-255.817 216.668L-243.529 200.008L-255.817 183.341L-243.529 166.675L-255.817 150.003L-243.529 133.337L-255.817 116.67L-243.529 100.004L-255.817 83.3376L-243.529 66.6714L-255.817 49.9991L-243.529 33.3328L-255.817 16.6663L-243.529 6.35074e-06M-34.4081 299.999L-46.6962 283.333L-34.4081 266.667L-46.6962 250.001L-34.4081 233.334L-46.6962 216.668L-34.4081 200.008L-46.6962 183.341L-34.4081 166.675L-46.6962 150.003L-34.4081 133.337L-46.6962 116.67L-34.4081 100.004L-46.6962 83.3376L-34.4081 66.6713L-46.6962 49.9991L-34.4081 33.3328L-46.6962 16.6663L-34.4081 -2.79021e-06M-145.112 299.999L-157.4 283.333L-145.112 266.667L-157.4 250.001L-145.112 233.334L-157.4 216.668L-145.112 200.008L-157.4 183.341L-145.112 166.675L-157.4 150.003L-145.112 133.337L-157.4 116.67L-145.112 100.004L-157.4 83.3376L-145.112 66.6714L-157.4 49.9991L-145.112 33.3328L-157.4 16.6663L-145.112 2.04882e-06M64.0075 299.999L51.7194 283.333L64.0075 266.667L51.7194 250.001L64.0075 233.334L51.7194 216.668L64.0075 200.008L51.7194 183.341L64.0075 166.675L51.7194 150.003L64.0075 133.337L51.7194 116.67L64.0075 100.004L51.7194 83.3376L64.0075 66.6713L51.7194 49.9991L64.0075 33.3328L51.7194 16.6663L64.0075 -7.09209e-06M-292.736 299.999L-305.025 283.333L-292.736 266.667L-305.025 250.001L-292.736 233.334L-305.025 216.668L-292.736 200.008L-305.025 183.341L-292.736 166.675L-305.025 150.003L-292.736 133.337L-305.025 116.67L-292.736 100.004L-305.025 83.3377L-292.736 66.6714L-305.025 49.9991L-292.736 33.3328L-305.025 16.6663L-292.736 8.50168e-06M-194.32 299.999L-206.608 283.333L-194.32 266.667L-206.608 250.001L-194.32 233.334L-206.608 216.668L-194.32 200.008L-206.608 183.341L-194.32 166.675L-206.608 150.003L-194.32 133.337L-206.608 116.67L-194.32 100.004L-206.608 83.3376L-194.32 66.6714L-206.608 49.9991L-194.32 33.3328L-206.608 16.6663L-194.32 4.19977e-06M14.7995 299.999L2.51136 283.333L14.7995 266.667L2.51135 250.001L14.7995 233.334L2.51135 216.668L14.7995 200.008L2.51135 183.341L14.7995 166.675L2.51135 150.003L14.7995 133.337L2.51135 116.67L14.7995 100.004L2.51135 83.3376L14.7995 66.6713L2.51135 49.9991L14.7995 33.3328L2.51134 16.6663L14.7995 -4.94114e-06M-95.9046 299.999L-108.193 283.333L-95.9046 266.667L-108.193 250.001L-95.9046 233.334L-108.193 216.668L-95.9046 200.008L-108.193 183.341L-95.9046 166.675L-108.193 150.003L-95.9046 133.337L-108.193 116.67L-95.9047 100.004L-108.193 83.3376L-95.9047 66.6713L-108.193 49.9991L-95.9047 33.3328L-108.193 16.6663L-95.9047 -1.02108e-07M113.216 299.999L100.872 283.333L113.216 266.667L100.872 250.001L113.216 233.334L100.872 216.668L113.216 200.008L100.872 183.341L113.216 166.675L100.872 150.003L113.216 133.337L100.872 116.67L113.216 100.004L100.872 83.3376L113.216 66.6713L100.872 49.9991L113.216 33.3328L100.872 16.6663L113.216 -9.24304e-06M162.424 299.999L150.08 283.333L162.424 266.667L150.08 250.001L162.424 233.334L150.08 216.668L162.424 200.008L150.08 183.341L162.424 166.675L150.08 150.003L162.424 133.337L150.08 116.67L162.424 100.004L150.08 83.3376L162.424 66.6713L150.08 49.9991L162.424 33.3328L150.08 16.6663L162.424 -1.1394e-05M-317.313 299.999L-329.601 283.333L-317.313 266.667L-329.601 250.001L-317.313 233.334L-329.601 216.668L-317.313 200.008L-329.601 183.341L-317.313 166.675L-329.601 150.003L-317.313 133.337L-329.601 116.67L-317.313 100.004L-329.601 83.3377L-317.313 66.6714L-329.601 49.9991L-317.313 33.3328L-329.601 16.6663L-317.313 9.57595e-06M-218.897 299.999L-231.24 283.333L-218.897 266.667L-231.24 250.001L-218.897 233.334L-231.24 216.668L-218.897 200.008L-231.24 183.341L-218.897 166.675L-231.24 150.003L-218.897 133.337L-231.24 116.67L-218.897 100.004L-231.24 83.3376L-218.897 66.6714L-231.24 49.9991L-218.897 33.3328L-231.24 16.6663L-218.897 5.27406e-06M-9.83215 299.999L-22.1203 283.333L-9.83215 266.667L-22.1203 250.001L-9.83215 233.334L-22.1203 216.668L-9.83215 200.008L-22.1203 183.341L-9.83216 166.675L-22.1203 150.003L-9.83216 133.337L-22.1203 116.67L-9.83216 100.004L-22.1203 83.3376L-9.83216 66.6713L-22.1203 49.9991L-9.83216 33.3328L-22.1203 16.6663L-9.83216 -3.86446e-06M-120.536 299.999L-132.824 283.333L-120.536 266.667L-132.824 250.001L-120.536 233.334L-132.824 216.668L-120.536 200.008L-132.824 183.341L-120.536 166.675L-132.824 150.003L-120.536 133.337L-132.824 116.67L-120.536 100.004L-132.824 83.3376L-120.536 66.6713L-132.824 49.9991L-120.536 33.3328L-132.824 16.6663L-120.536 9.74558e-07M88.5839 299.999L76.2957 283.333L88.5839 266.667L76.2957 250.001L88.5839 233.334L76.2957 216.668L88.5839 200.008L76.2957 183.341L88.5839 166.675L76.2957 150.003L88.5839 133.337L76.2957 116.67L88.5839 100.004L76.2957 83.3376L88.5839 66.6713L76.2957 49.9991L88.5839 33.3328L76.2957 16.6663L88.5839 -8.16636e-06M-268.105 299.999L-280.393 283.333L-268.105 266.667L-280.393 250.001L-268.105 233.334L-280.393 216.668L-268.105 200.008L-280.393 183.341L-268.105 166.675L-280.393 150.003L-268.105 133.337L-280.393 116.67L-268.105 100.004L-280.393 83.3377L-268.105 66.6714L-280.393 49.9991L-268.105 33.3328L-280.393 16.6663L-268.105 7.42501e-06M-58.9848 299.999L-71.3283 283.333L-58.9848 266.667L-71.3283 250.001L-58.9848 233.334L-71.3283 216.668L-58.9848 200.008L-71.3283 183.341L-58.9848 166.675L-71.3283 150.003L-58.9848 133.337L-71.3283 116.67L-58.9848 100.004L-71.3283 83.3376L-58.9848 66.6713L-71.3283 49.9991L-58.9848 33.3328L-71.3283 16.6663L-58.9848 -1.71593e-06M-169.689 299.999L-182.032 283.333L-169.689 266.667L-182.032 250.001L-169.689 233.334L-182.032 216.668L-169.689 200.008L-182.032 183.341L-169.689 166.675L-182.032 150.003L-169.689 133.337L-182.032 116.67L-169.689 100.004L-182.032 83.3376L-169.689 66.6714L-182.032 49.9991L-169.689 33.3328L-182.032 16.6663L-169.689 3.12309e-06M39.3759 299.999L27.0877 283.333L39.3759 266.667L27.0877 250.001L39.3759 233.334L27.0877 216.668L39.3759 200.008L27.0877 183.341L39.3759 166.675L27.0877 150.003L39.3758 133.337L27.0877 116.67L39.3758 100.004L27.0877 83.3376L39.3758 66.6713L27.0877 49.9991L39.3758 33.3328L27.0877 16.6663L39.3758 -6.01541e-06M-71.3283 299.999L-83.6165 283.333L-71.3283 266.667L-83.6165 250.001L-71.3283 233.334L-83.6165 216.668L-71.3283 200.008L-83.6165 183.341L-71.3283 166.675L-83.6165 150.003L-71.3283 133.337L-83.6165 116.67L-71.3283 100.004L-83.6165 83.3376L-71.3283 66.6713L-83.6165 49.9991L-71.3283 33.3328L-83.6165 16.6663L-71.3283 -1.17637e-06M137.792 299.999L125.504 283.333L137.792 266.667L125.504 250.001L137.792 233.334L125.504 216.668L137.792 200.008L125.504 183.341L137.792 166.675L125.504 150.003L137.792 133.337L125.504 116.67L137.792 100.004L125.504 83.3376L137.792 66.6713L125.504 49.9991L137.792 33.3328L125.504 16.6663L137.792 -1.03173e-05M187 299.999L174.712 283.333L187 266.667L174.712 250.001L187 233.334L174.712 216.668L187 200.008L174.712 183.341L187 166.675L174.712 150.003L187 133.337L174.712 116.67L187 100.004L174.712 83.3376L187 66.6713L174.712 49.9991L187 33.3328L174.712 16.6663L187 -1.24683e-05M199.289 299.985L187.001 283.319L199.289 266.647L187.001 249.981L199.289 233.308L187.001 216.636L199.289 199.964M297.705 299.985L285.417 283.319L297.705 266.647L285.417 249.981L297.705 233.308L285.417 216.636L297.705 199.964M506.825 299.985L494.537 283.319L506.825 266.647L494.537 249.981L506.825 233.308L494.537 216.636L506.825 199.964M396.121 299.985L383.833 283.319L396.121 266.647L383.833 249.981L396.121 233.308L383.833 216.636L396.121 199.964M605.241 299.985L592.897 283.319L605.241 266.647L592.897 249.981L605.241 233.308L592.897 216.636L605.241 199.964M248.497 299.985L236.209 283.319L248.497 266.647L236.209 249.981L248.497 233.308L236.209 216.636L248.497 199.964M346.913 299.985L334.625 283.319L346.913 266.647L334.625 249.981L346.913 233.308L334.625 216.636L346.913 199.964M556.033 299.985L543.689 283.319L556.033 266.647L543.689 249.981L556.033 233.308L543.689 216.636L556.033 199.964M445.329 299.985L432.986 283.319L445.329 266.647L432.986 249.981L445.329 233.308L432.986 216.636L445.329 199.964M654.394 299.985L642.105 283.319L654.394 266.647L642.105 249.981L654.394 233.308L642.105 216.636L654.394 199.964M703.602 299.985L691.313 283.319L703.602 266.647L691.313 249.981L703.602 233.308L691.313 216.636L703.602 199.964M223.921 299.985L211.577 283.319L223.921 266.647L211.577 249.981L223.921 233.308L211.577 216.636L223.921 199.964M322.281 299.985L309.993 283.319L322.281 266.647L309.993 249.981L322.281 233.308L309.993 216.636L322.281 199.964M531.402 299.985L519.113 283.319L531.402 266.647L519.113 249.981L531.402 233.308L519.113 216.636L531.402 199.964M420.697 299.985L408.409 283.319L420.697 266.647L408.409 249.981L420.697 233.308L408.409 216.636L420.697 199.964M629.817 299.985L617.529 283.319L629.817 266.647L617.529 249.981L629.817 233.308L617.529 216.636L629.817 199.964M273.129 299.985L260.785 283.319L273.129 266.647L260.785 249.981L273.129 233.308L260.785 216.636L273.129 199.964M371.489 299.985L359.201 283.319L371.489 266.647L359.201 249.981L371.489 233.308L359.201 216.636L371.489 199.964M580.609 299.985L568.321 283.319L580.609 266.647L568.321 249.981L580.609 233.308L568.321 216.636L580.609 199.964M469.905 299.985L457.617 283.319L469.905 266.647L457.617 249.981L469.905 233.308L457.617 216.636L469.905 199.964M679.025 299.985L666.737 283.319L679.025 266.647L666.737 249.981L679.025 233.308L666.737 216.636L679.025 199.964M728.233 299.985L715.945 283.319L728.233 266.647L715.945 249.981L728.233 233.308L715.945 216.636L728.233 199.964M211.577 299.985L199.289 283.319L211.577 266.647L199.289 249.981L211.577 233.308L199.289 216.636L211.577 199.964M309.993 299.985L297.705 283.319L309.993 266.647L297.705 249.981L309.993 233.308L297.705 216.636L309.993 199.964M519.113 299.985L506.825 283.319L519.113 266.647L506.825 249.981L519.113 233.308L506.825 216.636L519.113 199.964M408.409 299.985L396.121 283.319L408.409 266.647L396.121 249.981L408.409 233.308L396.121 216.636L408.409 199.964M617.529 299.985L605.241 283.319L617.529 266.647L605.241 249.981L617.529 233.308L605.241 216.636L617.529 199.964M260.785 299.985L248.497 283.319L260.785 266.647L248.497 249.981L260.785 233.308L248.497 216.636L260.785 199.964M359.201 299.985L346.913 283.319L359.201 266.647L346.913 249.981L359.201 233.308L346.913 216.636L359.201 199.964M568.321 299.985L556.033 283.319L568.321 266.647L556.033 249.981L568.321 233.308L556.033 216.636L568.321 199.964M457.617 299.985L445.329 283.319L457.617 266.647L445.329 249.981L457.617 233.308L445.329 216.636L457.617 199.964M666.737 299.985L654.394 283.319L666.737 266.647L654.394 249.981L666.737 233.308L654.394 216.636L666.737 199.964M715.945 299.985L703.602 283.319L715.945 266.647L703.602 249.981L715.945 233.308L703.602 216.636L715.945 199.964M236.209 299.985L223.921 283.319L236.209 266.647L223.921 249.981L236.209 233.308L223.921 216.636L236.209 199.964M334.625 299.985L322.281 283.319L334.625 266.647L322.281 249.981L334.625 233.308L322.281 216.636L334.625 199.964M543.689 299.985L531.401 283.319L543.689 266.647L531.401 249.981L543.689 233.308L531.401 216.636L543.689 199.964M432.986 299.985L420.697 283.319L432.986 266.647L420.697 249.981L432.986 233.308L420.697 216.636L432.986 199.964M642.105 299.985L629.817 283.319L642.105 266.647L629.817 249.981L642.105 233.308L629.817 216.636L642.105 199.964M285.417 299.985L273.128 283.319L285.417 266.647L273.128 249.981L285.417 233.308L273.128 216.636L285.417 199.964M494.537 299.985L482.193 283.319L494.537 266.647L482.193 249.981L494.537 233.308L482.193 216.636L494.537 199.964M383.833 299.985L371.489 283.319L383.833 266.647L371.489 249.981L383.833 233.308L371.489 216.636L383.833 199.964M592.897 299.985L580.609 283.319L592.897 266.647L580.609 249.981L592.897 233.308L580.609 216.636L592.897 199.964M482.193 299.985L469.905 283.319L482.193 266.647L469.905 249.981L482.193 233.308L469.905 216.636L482.193 199.964M691.313 299.985L679.025 283.319L691.313 266.647L679.025 249.981L691.313 233.308L679.025 216.636L691.313 199.964M740.521 299.985L728.233 283.319L740.521 266.647L728.233 249.981L740.521 233.308L728.233 216.636L740.521 199.964M199.289 300L187.001 283.334L199.289 266.667L187.001 250.001L199.289 233.335L187.001 216.668L199.289 200.008L187.001 183.342L199.289 166.676L187.001 150.003L199.289 133.337L187.001 116.671L199.289 100.004L187.001 83.3381L199.289 66.6718L187.001 49.9996L199.289 33.3333L187.001 16.667L199.289 0.000705457M297.705 300L285.417 283.334L297.705 266.667L285.417 250.001L297.705 233.335L285.417 216.668L297.705 200.008L285.417 183.342L297.705 166.676L285.417 150.003L297.705 133.337L285.417 116.671L297.705 100.004L285.417 83.3381L297.705 66.6718L285.417 49.9996L297.705 33.3333L285.417 16.667L297.705 0.000701155M506.825 300L494.537 283.334L506.825 266.667L494.537 250.001L506.825 233.335L494.537 216.668L506.825 200.008L494.537 183.342L506.825 166.676L494.537 150.003L506.825 133.337L494.537 116.671L506.825 100.004L494.537 83.3381L506.825 66.6718L494.537 49.9996L506.825 33.3333L494.537 16.667L506.825 0.000692014M396.121 300L383.833 283.334L396.121 266.667L383.833 250.001L396.121 233.335L383.833 216.668L396.121 200.008L383.833 183.342L396.121 166.676L383.833 150.003L396.121 133.337L383.833 116.671L396.121 100.004L383.833 83.3381L396.121 66.6718L383.833 49.9996L396.121 33.3333L383.833 16.667L396.121 0.000696853M605.241 300L592.897 283.334L605.241 266.667L592.897 250.001L605.241 233.335L592.897 216.668L605.241 200.008L592.897 183.342L605.241 166.676L592.897 150.003L605.241 133.337L592.897 116.671L605.241 100.004L592.897 83.3381L605.241 66.6718L592.897 49.9996L605.241 33.3333L592.897 16.667L605.241 0.000687712M248.497 300L236.209 283.334L248.497 266.667L236.209 250.001L248.497 233.335L236.209 216.668L248.497 200.008L236.209 183.342L248.497 166.676L236.209 150.003L248.497 133.337L236.209 116.671L248.497 100.004L236.209 83.3381L248.497 66.6718L236.209 49.9996L248.497 33.3333L236.209 16.667L248.497 0.000703306M346.913 300L334.625 283.334L346.913 266.667L334.625 250.001L346.913 233.335L334.625 216.668L346.913 200.008L334.625 183.342L346.913 166.676L334.625 150.003L346.913 133.337L334.625 116.671L346.913 100.004L334.625 83.3381L346.913 66.6718L334.625 49.9996L346.913 33.3333L334.625 16.667L346.913 0.000699004M556.033 300L543.689 283.334L556.033 266.667L543.689 250.001L556.033 233.335L543.689 216.668L556.033 200.008L543.689 183.342L556.033 166.676L543.689 150.003L556.033 133.337L543.689 116.671L556.033 100.004L543.689 83.3381L556.033 66.6718L543.689 49.9996L556.033 33.3333L543.689 16.667L556.033 0.000689863M445.329 300L432.986 283.334L445.329 266.667L432.986 250.001L445.329 233.335L432.986 216.668L445.329 200.008L432.986 183.342L445.329 166.676L432.986 150.003L445.329 133.337L432.986 116.671L445.329 100.004L432.986 83.3381L445.329 66.6718L432.986 49.9996L445.329 33.3333L432.986 16.667L445.329 0.000694702M654.394 300L642.105 283.334L654.394 266.667L642.105 250.001L654.394 233.335L642.105 216.668L654.394 200.008L642.105 183.342L654.394 166.676L642.105 150.003L654.394 133.337L642.105 116.671L654.394 100.004L642.105 83.3381L654.394 66.6718L642.105 49.9996L654.394 33.3333L642.105 16.667L654.394 0.000685563M703.602 300L691.313 283.334L703.602 266.667L691.313 250.001L703.602 233.335L691.313 216.668L703.602 200.008L691.313 183.342L703.602 166.676L691.313 150.003L703.602 133.337L691.313 116.671L703.602 100.004L691.313 83.3381L703.602 66.6718L691.313 49.9995L703.602 33.3333L691.313 16.667L703.602 0.000683412M223.921 300L211.577 283.334L223.921 266.667L211.577 250.001L223.921 233.335L211.577 216.668L223.921 200.008L211.577 183.342L223.921 166.676L211.577 150.003L223.921 133.337L211.577 116.671L223.921 100.004L211.577 83.3381L223.921 66.6718L211.577 49.9996L223.921 33.3333L211.577 16.667L223.921 0.00070438M322.281 300L309.993 283.334L322.281 266.667L309.993 250.001L322.281 233.335L309.993 216.668L322.281 200.008L309.993 183.342L322.281 166.676L309.993 150.003L322.281 133.337L309.993 116.671L322.281 100.004L309.993 83.3381L322.281 66.6718L309.993 49.9996L322.281 33.3333L309.993 16.667L322.281 0.00070008M531.402 300L519.113 283.334L531.402 266.667L519.113 250.001L531.402 233.335L519.113 216.668L531.402 200.008L519.113 183.342L531.402 166.676L519.113 150.003L531.402 133.337L519.113 116.671L531.402 100.004L519.113 83.3381L531.402 66.6718L519.113 49.9996L531.402 33.3333L519.113 16.667L531.402 0.000690939M420.697 300L408.409 283.334L420.697 266.667L408.409 250.001L420.697 233.335L408.409 216.668L420.697 200.008L408.409 183.342L420.697 166.676L408.409 150.003L420.697 133.337L408.409 116.671L420.697 100.004L408.409 83.3381L420.697 66.6718L408.409 49.9996L420.697 33.3333L408.409 16.667L420.697 0.000695779M629.817 300L617.529 283.334L629.817 266.667L617.529 250.001L629.817 233.335L617.529 216.668L629.817 200.008L617.529 183.342L629.817 166.676L617.529 150.003L629.817 133.337L617.529 116.671L629.817 100.004L617.529 83.3381L629.817 66.6718L617.529 49.9996L629.817 33.3333L617.529 16.667L629.817 0.000686638M273.129 300L260.785 283.334L273.129 266.667L260.785 250.001L273.129 233.335L260.785 216.668L273.129 200.008L260.785 183.342L273.129 166.676L260.785 150.003L273.129 133.337L260.785 116.671L273.129 100.004L260.785 83.3381L273.129 66.6718L260.785 49.9996L273.129 33.3333L260.785 16.667L273.129 0.000702229M371.489 300L359.201 283.334L371.489 266.667L359.201 250.001L371.489 233.335L359.201 216.668L371.489 200.008L359.201 183.342L371.489 166.676L359.201 150.003L371.489 133.337L359.201 116.671L371.489 100.004L359.201 83.3381L371.489 66.6718L359.201 49.9996L371.489 33.3333L359.201 16.667L371.489 0.000697929M580.609 300L568.321 283.334L580.609 266.667L568.321 250.001L580.609 233.335L568.321 216.668L580.609 200.008L568.321 183.342L580.609 166.676L568.321 150.003L580.609 133.337L568.321 116.671L580.609 100.004L568.321 83.3381L580.609 66.6718L568.321 49.9996L580.609 33.3333L568.321 16.667L580.609 0.000688789M469.905 300L457.617 283.334L469.905 266.667L457.617 250.001L469.905 233.335L457.617 216.668L469.905 200.008L457.617 183.342L469.905 166.676L457.617 150.003L469.905 133.337L457.617 116.671L469.905 100.004L457.617 83.3381L469.905 66.6718L457.617 49.9996L469.905 33.3333L457.617 16.667L469.905 0.000693628M679.025 300L666.737 283.334L679.025 266.667L666.737 250.001L679.025 233.335L666.737 216.668L679.025 200.008L666.737 183.342L679.025 166.676L666.737 150.003L679.025 133.337L666.737 116.671L679.025 100.004L666.737 83.3381L679.025 66.6718L666.737 49.9996L679.025 33.3333L666.737 16.667L679.025 0.000684487M728.233 300L715.945 283.334L728.233 266.667L715.945 250.001L728.233 233.335L715.945 216.668L728.233 200.008L715.945 183.342L728.233 166.676L715.945 150.003L728.233 133.337L715.945 116.671L728.233 100.004L715.945 83.3381L728.233 66.6718L715.945 49.9995L728.233 33.3333L715.945 16.667L728.233 0.000682336M211.577 300L199.289 283.334L211.577 266.667L199.289 250.001L211.577 233.335L199.289 216.668L211.577 200.008L199.289 183.342L211.577 166.676L199.289 150.003L211.577 133.337L199.289 116.671L211.577 100.004L199.289 83.3381L211.577 66.6718L199.289 49.9996L211.577 33.3333L199.289 16.667L211.577 0.000704919M309.993 300L297.705 283.334L309.993 266.667L297.705 250.001L309.993 233.335L297.705 216.668L309.993 200.008L297.705 183.342L309.993 166.676L297.705 150.003L309.993 133.337L297.705 116.671L309.993 100.004L297.705 83.3381L309.993 66.6718L297.705 49.9996L309.993 33.3333L297.705 16.667L309.993 0.000700618M519.113 300L506.825 283.334L519.113 266.667L506.825 250.001L519.113 233.335L506.825 216.668L519.113 200.008L506.825 183.342L519.113 166.676L506.825 150.003L519.113 133.337L506.825 116.671L519.113 100.004L506.825 83.3381L519.113 66.6718L506.825 49.9996L519.113 33.3333L506.825 16.667L519.113 0.000691477M408.409 300L396.121 283.334L408.409 266.667L396.121 250.001L408.409 233.335L396.121 216.668L408.409 200.008L396.121 183.342L408.409 166.676L396.121 150.003L408.409 133.337L396.121 116.671L408.409 100.004L396.121 83.3381L408.409 66.6718L396.121 49.9996L408.409 33.3333L396.121 16.667L408.409 0.000696316M617.529 300L605.241 283.334L617.529 266.667L605.241 250.001L617.529 233.335L605.241 216.668L617.529 200.008L605.241 183.342L617.529 166.676L605.241 150.003L617.529 133.337L605.241 116.671L617.529 100.004L605.241 83.3381L617.529 66.6718L605.241 49.9996L617.529 33.3333L605.241 16.667L617.529 0.000687175M260.785 300L248.497 283.334L260.785 266.667L248.497 250.001L260.785 233.335L248.497 216.668L260.785 200.008L248.497 183.342L260.785 166.676L248.497 150.003L260.785 133.337L248.497 116.671L260.785 100.004L248.497 83.3381L260.785 66.6718L248.497 49.9996L260.785 33.3333L248.497 16.667L260.785 0.000702769M359.201 300L346.913 283.334L359.201 266.667L346.913 250.001L359.201 233.335L346.913 216.668L359.201 200.008L346.913 183.342L359.201 166.676L346.913 150.003L359.201 133.337L346.913 116.671L359.201 100.004L346.913 83.3381L359.201 66.6718L346.913 49.9996L359.201 33.3333L346.913 16.667L359.201 0.000698467M568.321 300L556.033 283.334L568.321 266.667L556.033 250.001L568.321 233.335L556.033 216.668L568.321 200.008L556.033 183.342L568.321 166.676L556.033 150.003L568.321 133.337L556.033 116.671L568.321 100.004L556.033 83.3381L568.321 66.6718L556.033 49.9996L568.321 33.3333L556.033 16.667L568.321 0.000689326M457.617 300L445.329 283.334L457.617 266.667L445.329 250.001L457.617 233.335L445.329 216.668L457.617 200.008L445.329 183.342L457.617 166.676L445.329 150.003L457.617 133.337L445.329 116.671L457.617 100.004L445.329 83.3381L457.617 66.6718L445.329 49.9996L457.617 33.3333L445.329 16.667L457.617 0.000694165M666.737 300L654.394 283.334L666.737 266.667L654.394 250.001L666.737 233.335L654.394 216.668L666.737 200.008L654.394 183.342L666.737 166.676L654.394 150.003L666.737 133.337L654.394 116.671L666.737 100.004L654.394 83.3381L666.737 66.6718L654.394 49.9996L666.737 33.3333L654.394 16.667L666.737 0.000685024M715.945 300L703.602 283.334L715.945 266.667L703.602 250.001L715.945 233.335L703.602 216.668L715.945 200.008L703.602 183.342L715.945 166.676L703.602 150.003L715.945 133.337L703.602 116.671L715.945 100.004L703.602 83.3381L715.945 66.6718L703.602 49.9995L715.945 33.3333L703.602 16.667L715.945 0.000682873M236.209 300L223.921 283.334L236.209 266.667L223.921 250.001L236.209 233.335L223.921 216.668L236.209 200.008L223.921 183.342L236.209 166.676L223.921 150.003L236.209 133.337L223.921 116.671L236.209 100.004L223.921 83.3381L236.209 66.6718L223.921 49.9996L236.209 33.3333L223.921 16.667L236.209 0.000703843M334.625 300L322.281 283.334L334.625 266.667L322.281 250.001L334.625 233.335L322.281 216.668L334.625 200.008L322.281 183.342L334.625 166.676L322.281 150.003L334.625 133.337L322.281 116.671L334.625 100.004L322.281 83.3381L334.625 66.6718L322.281 49.9996L334.625 33.3333L322.281 16.667L334.625 0.000699541M543.689 300L531.401 283.334L543.689 266.667L531.401 250.001L543.689 233.335L531.401 216.668L543.689 200.008L531.401 183.342L543.689 166.676L531.401 150.003L543.689 133.337L531.401 116.671L543.689 100.004L531.401 83.3381L543.689 66.6718L531.401 49.9996L543.689 33.3333L531.401 16.667L543.689 0.000690402M432.986 300L420.697 283.334L432.986 266.667L420.697 250.001L432.986 233.335L420.697 216.668L432.986 200.008L420.697 183.342L432.986 166.676L420.697 150.003L432.986 133.337L420.697 116.671L432.986 100.004L420.697 83.3381L432.986 66.6718L420.697 49.9996L432.986 33.3333L420.697 16.667L432.986 0.000695241M642.105 300L629.817 283.334L642.105 266.667L629.817 250.001L642.105 233.335L629.817 216.668L642.105 200.008L629.817 183.342L642.105 166.676L629.817 150.003L642.105 133.337L629.817 116.671L642.105 100.004L629.817 83.3381L642.105 66.6718L629.817 49.9996L642.105 33.3333L629.817 16.667L642.105 0.0006861M285.417 300L273.128 283.334L285.417 266.667L273.128 250.001L285.417 233.335L273.128 216.668L285.417 200.008L273.128 183.342L285.417 166.676L273.128 150.003L285.417 133.337L273.128 116.671L285.417 100.004L273.128 83.3381L285.417 66.6718L273.128 49.9996L285.417 33.3333L273.128 16.667L285.417 0.000701692M494.537 300L482.193 283.334L494.537 266.667L482.193 250.001L494.537 233.335L482.193 216.668L494.537 200.008L482.193 183.342L494.537 166.676L482.193 150.003L494.537 133.337L482.193 116.671L494.537 100.004L482.193 83.3381L494.537 66.6718L482.193 49.9996L494.537 33.3333L482.193 16.667L494.537 0.000692551M383.833 300L371.489 283.334L383.833 266.667L371.489 250.001L383.833 233.335L371.489 216.668L383.833 200.008L371.489 183.342L383.833 166.676L371.489 150.003L383.833 133.337L371.489 116.671L383.833 100.004L371.489 83.3381L383.833 66.6718L371.489 49.9996L383.833 33.3333L371.489 16.667L383.833 0.00069739M592.897 300L580.609 283.334L592.897 266.667L580.609 250.001L592.897 233.335L580.609 216.668L592.897 200.008L580.609 183.342L592.897 166.676L580.609 150.003L592.897 133.337L580.609 116.671L592.897 100.004L580.609 83.3381L592.897 66.6718L580.609 49.9996L592.897 33.3333L580.609 16.667L592.897 0.000688251M482.193 300L469.905 283.334L482.193 266.667L469.905 250.001L482.193 233.335L469.905 216.668L482.193 200.008L469.905 183.342L482.193 166.676L469.905 150.003L482.193 133.337L469.905 116.671L482.193 100.004L469.905 83.3381L482.193 66.6718L469.905 49.9996L482.193 33.3333L469.905 16.667L482.193 0.00069309M691.313 300L679.025 283.334L691.313 266.667L679.025 250.001L691.313 233.335L679.025 216.668L691.313 200.008L679.025 183.342L691.313 166.676L679.025 150.003L691.313 133.337L679.025 116.671L691.313 100.004L679.025 83.3381L691.313 66.6718L679.025 49.9996L691.313 33.3333L679.025 16.667L691.313 0.00068395M740.521 300L728.233 283.334L740.521 266.667L728.233 250.001L740.521 233.335L728.233 216.668L740.521 200.008L728.233 183.342L740.521 166.676L728.233 150.003L740.521 133.337L728.233 116.671L740.521 100.004L728.233 83.3381L740.521 66.6718L728.233 49.9995L740.521 33.3333L728.233 16.667L740.521 0.000681799" stroke="white" stroke-opacity="0.14" stroke-width="2" stroke-miterlimit="10" stroke-linecap="round"/>
</g>
<defs>
<clipPath id="clip0_712_17150">
<rect width="375" height="300" fill="white"/>
</clipPath>
</defs>
</svg>
