<svg width="375" height="300" viewBox="0 0 375 300" fill="none" xmlns="http://www.w3.org/2000/svg">
<g clip-path="url(#clip0_712_18061)">
<path d="M-99.5244 75.5215C-42.172 75.5215 -42.172 100.298 15.1803 100.298C72.5327 100.298 72.5327 75.5215 129.871 75.5215C187.21 75.5215 187.224 100.298 244.576 100.298C301.928 100.298 301.942 75.5215 359.295 75.5215C416.647 75.5215 416.647 100.298 473.999 100.298" stroke="white" stroke-opacity="0.14" stroke-width="2" stroke-miterlimit="10"/>
<path d="M-99.5244 125.08C-42.172 125.08 -42.172 149.856 15.1803 149.856C72.5327 149.856 72.5327 125.08 129.871 125.08C187.21 125.08 187.224 149.856 244.576 149.856C301.928 149.856 301.942 125.08 359.295 125.08C416.647 125.08 416.647 149.856 473.999 149.856" stroke="white" stroke-opacity="0.14" stroke-width="2" stroke-miterlimit="10"/>
<path d="M-99.5244 187.023C-42.172 187.023 -42.172 211.8 15.1803 211.8C72.5327 211.8 72.5327 187.023 129.871 187.023C187.21 187.023 187.224 211.8 244.576 211.8C301.928 211.8 301.942 187.023 359.295 187.023C416.647 187.023 416.647 211.8 473.999 211.8" stroke="white" stroke-opacity="0.14" stroke-width="2" stroke-miterlimit="10"/>
<path d="M-99.5244 25.9766C-42.172 25.9766 -42.172 50.7528 15.1803 50.7528C72.5327 50.7528 72.5327 25.9766 129.871 25.9766C187.21 25.9766 187.224 50.7528 244.576 50.7528C301.928 50.7528 301.942 25.9766 359.295 25.9766C416.647 25.9766 416.647 50.7528 473.999 50.7528" stroke="white" stroke-opacity="0.14" stroke-width="2" stroke-miterlimit="10"/>
<path d="M-99.5244 261.346C-42.172 261.346 -42.172 286.122 15.1803 286.122C72.5327 286.122 72.5327 261.346 129.871 261.346C187.21 261.346 187.224 286.122 244.576 286.122C301.928 286.122 301.942 261.346 359.295 261.346C416.647 261.346 416.647 286.122 473.999 286.122" stroke="white" stroke-opacity="0.14" stroke-width="2" stroke-miterlimit="10"/>
<path d="M-99.5244 100.305C-42.172 100.305 -42.172 125.081 15.1803 125.081C72.5327 125.081 72.5327 100.305 129.871 100.305C187.21 100.305 187.224 125.081 244.576 125.081C301.928 125.081 301.942 100.305 359.295 100.305C416.647 100.305 416.647 125.081 473.999 125.081" stroke="white" stroke-opacity="0.14" stroke-width="2" stroke-miterlimit="10"/>
<path d="M-99.5244 149.855C-42.172 149.855 -42.172 174.632 15.1803 174.632C72.5327 174.632 72.5327 149.855 129.871 149.855C187.21 149.855 187.224 174.632 244.576 174.632C301.928 174.632 301.942 149.855 359.295 149.855C416.647 149.855 416.647 174.632 473.999 174.632" stroke="white" stroke-opacity="0.14" stroke-width="2" stroke-miterlimit="10"/>
<path d="M-99.5244 -23.5762C-42.172 -23.5762 -42.172 1.20006 15.1803 1.20006C72.5327 1.20006 72.5327 -23.5762 129.871 -23.5762C187.21 -23.5762 187.224 1.20006 244.576 1.20006C301.928 1.20006 301.942 -23.5762 359.295 -23.5762C416.647 -23.5762 416.647 1.20006 473.999 1.20006" stroke="white" stroke-opacity="0.14" stroke-width="2" stroke-miterlimit="10"/>
<path d="M-99.5244 211.793C-42.172 211.793 -42.172 236.569 15.1803 236.569C72.5327 236.569 72.5327 211.793 129.871 211.793C187.21 211.793 187.224 236.569 244.576 236.569C301.928 236.569 301.942 211.793 359.295 211.793C416.647 211.793 416.647 236.569 473.999 236.569" stroke="white" stroke-opacity="0.14" stroke-width="2" stroke-miterlimit="10"/>
<path d="M-99.5244 50.752C-42.172 50.752 -42.172 75.5282 15.1803 75.5282C72.5327 75.5282 72.5327 50.752 129.871 50.752C187.21 50.752 187.224 75.5282 244.576 75.5282C301.928 75.5282 301.942 50.752 359.295 50.752C416.647 50.752 416.647 75.5282 473.999 75.5282" stroke="white" stroke-opacity="0.14" stroke-width="2" stroke-miterlimit="10"/>
<path d="M-99.5244 286.127C-42.172 286.127 -42.172 310.903 15.1803 310.903C72.5327 310.903 72.5327 286.127 129.871 286.127C187.21 286.127 187.224 310.903 244.576 310.903C301.928 310.903 301.942 286.127 359.295 286.127C416.647 286.127 416.647 310.903 473.999 310.903" stroke="white" stroke-opacity="0.14" stroke-width="2" stroke-miterlimit="10"/>
<path d="M-99.5244 87.9121C-42.172 87.9121 -42.172 112.688 15.1803 112.688C72.5327 112.688 72.5327 87.9121 129.871 87.9121C187.21 87.9121 187.224 112.688 244.576 112.688C301.928 112.688 301.942 87.9121 359.295 87.9121C416.647 87.9121 416.647 112.688 473.999 112.688" stroke="white" stroke-opacity="0.14" stroke-width="2" stroke-miterlimit="10"/>
<path d="M-99.5244 137.465C-42.172 137.465 -42.172 162.241 15.1803 162.241C72.5327 162.241 72.5327 137.465 129.871 137.465C187.21 137.465 187.224 162.241 244.576 162.241C301.928 162.241 301.942 137.465 359.295 137.465C416.647 137.465 416.647 162.241 473.999 162.241" stroke="white" stroke-opacity="0.14" stroke-width="2" stroke-miterlimit="10"/>
<path d="M-99.5244 199.408C-42.172 199.408 -42.172 224.184 15.1803 224.184C72.5327 224.184 72.5327 199.408 129.871 199.408C187.21 199.408 187.224 224.184 244.576 224.184C301.928 224.184 301.942 199.408 359.295 199.408C416.647 199.408 416.647 224.184 473.999 224.184" stroke="white" stroke-opacity="0.14" stroke-width="2" stroke-miterlimit="10"/>
<path d="M-99.5244 38.3613C-42.172 38.3613 -42.172 63.1376 15.1803 63.1376C72.5327 63.1376 72.5327 38.3613 129.871 38.3613C187.21 38.3613 187.224 63.1376 244.576 63.1376C301.928 63.1376 301.942 38.3613 359.295 38.3613C416.647 38.3613 416.647 63.1376 473.999 63.1376" stroke="white" stroke-opacity="0.14" stroke-width="2" stroke-miterlimit="10"/>
<path d="M-99.5244 273.736C-42.172 273.736 -42.172 298.513 15.1803 298.513C72.5327 298.513 72.5327 273.736 129.871 273.736C187.21 273.736 187.224 298.513 244.576 298.513C301.928 298.513 301.942 273.736 359.295 273.736C416.647 273.736 416.647 298.513 473.999 298.513" stroke="white" stroke-opacity="0.14" stroke-width="2" stroke-miterlimit="10"/>
<path d="M-99.5244 112.689C-42.172 112.689 -42.172 137.466 15.1803 137.466C72.5327 137.466 72.5327 112.689 129.871 112.689C187.21 112.689 187.224 137.466 244.576 137.466C301.928 137.466 301.942 112.689 359.295 112.689C416.647 112.689 416.647 137.466 473.999 137.466" stroke="white" stroke-opacity="0.14" stroke-width="2" stroke-miterlimit="10"/>
<path d="M-99.5244 174.633C-42.172 174.633 -42.172 199.409 15.1803 199.409C72.5327 199.409 72.5327 174.633 129.871 174.633C187.21 174.633 187.224 199.409 244.576 199.409C301.928 199.409 301.942 174.633 359.295 174.633C416.647 174.633 416.647 199.409 473.999 199.409" stroke="white" stroke-opacity="0.14" stroke-width="2" stroke-miterlimit="10"/>
<path d="M-99.5244 13.5898C-42.172 13.5898 -42.172 38.3661 15.1803 38.3661C72.5327 38.3661 72.5327 13.5898 129.871 13.5898C187.21 13.5898 187.224 38.3661 244.576 38.3661C301.928 38.3661 301.942 13.5898 359.295 13.5898C416.647 13.5898 416.647 38.3661 473.999 38.3661" stroke="white" stroke-opacity="0.14" stroke-width="2" stroke-miterlimit="10"/>
<path d="M-99.5244 248.961C-42.172 248.961 -42.172 273.737 15.1803 273.737C72.5327 273.737 72.5327 248.961 129.871 248.961C187.21 248.961 187.224 273.737 244.576 273.737C301.928 273.737 301.942 248.961 359.295 248.961C416.647 248.961 416.647 273.737 473.999 273.737" stroke="white" stroke-opacity="0.14" stroke-width="2" stroke-miterlimit="10"/>
<path d="M-99.5244 162.246C-42.172 162.246 -42.172 187.022 15.1803 187.022C72.5327 187.022 72.5327 162.246 129.871 162.246C187.21 162.246 187.224 187.022 244.576 187.022C301.928 187.022 301.942 162.246 359.295 162.246C416.647 162.246 416.647 187.022 473.999 187.022" stroke="white" stroke-opacity="0.14" stroke-width="2" stroke-miterlimit="10"/>
<path d="M-99.5244 1.20508C-42.172 1.20508 -42.172 25.9813 15.1803 25.9813C72.5327 25.9813 72.5327 1.20508 129.871 1.20508C187.21 1.20508 187.224 25.9813 244.576 25.9813C301.928 25.9813 301.942 1.20508 359.295 1.20508C416.647 1.20508 416.647 25.9813 473.999 25.9813" stroke="white" stroke-opacity="0.14" stroke-width="2" stroke-miterlimit="10"/>
<path d="M-99.5244 236.57C-42.172 236.57 -42.172 261.347 15.1803 261.347C72.5327 261.347 72.5327 236.57 129.871 236.57C187.21 236.57 187.224 261.347 244.576 261.347C301.928 261.347 301.942 236.57 359.295 236.57C416.647 236.57 416.647 261.347 473.999 261.347" stroke="white" stroke-opacity="0.14" stroke-width="2" stroke-miterlimit="10"/>
<path d="M-99.5244 -11.1914C-42.172 -11.1914 -42.172 13.5848 15.1803 13.5848C72.5327 13.5848 72.5327 -11.1914 129.871 -11.1914C187.21 -11.1914 187.224 13.5848 244.576 13.5848C301.928 13.5848 301.942 -11.1914 359.295 -11.1914C416.647 -11.1914 416.647 13.5848 473.999 13.5848" stroke="white" stroke-opacity="0.14" stroke-width="2" stroke-miterlimit="10"/>
<path d="M-99.5244 224.178C-42.172 224.178 -42.172 248.954 15.1803 248.954C72.5327 248.954 72.5327 224.178 129.871 224.178C187.21 224.178 187.224 248.954 244.576 248.954C301.928 248.954 301.942 224.178 359.295 224.178C416.647 224.178 416.647 248.954 473.999 248.954" stroke="white" stroke-opacity="0.14" stroke-width="2" stroke-miterlimit="10"/>
<path d="M-99.5244 63.1367C-42.172 63.1367 -42.172 87.913 15.1803 87.913C72.5327 87.913 72.5327 63.1367 129.871 63.1367C187.21 63.1367 187.224 87.913 244.576 87.913C301.928 87.913 301.942 63.1367 359.295 63.1367C416.647 63.1367 416.647 87.913 473.999 87.913" stroke="white" stroke-opacity="0.14" stroke-width="2" stroke-miterlimit="10"/>
<path d="M-99.5244 298.512C-42.172 298.512 -42.172 323.288 15.1803 323.288C72.5327 323.288 72.5327 298.512 129.871 298.512C187.21 298.512 187.224 323.288 244.576 323.288C301.928 323.288 301.942 298.512 359.295 298.512C416.647 298.512 416.647 323.288 473.999 323.288" stroke="white" stroke-opacity="0.14" stroke-width="2" stroke-miterlimit="10"/>
</g>
<defs>
<clipPath id="clip0_712_18061">
<rect width="375" height="300" fill="white"/>
</clipPath>
</defs>
</svg>
