<svg width="25" height="25" viewBox="0 0 25 25" fill="none" xmlns="http://www.w3.org/2000/svg">
<path d="M12.866 23.6162C12.086 23.6162 11.326 23.2162 10.806 22.5162L9.79598 21.1662C9.58598 20.8862 9.30599 20.7262 9.00599 20.7062C8.70599 20.6962 8.40599 20.8262 8.16599 21.0762L7.61599 20.5662L8.16599 21.0762C6.72599 22.6162 5.61599 22.4962 5.08599 22.2862C4.54599 22.0762 3.63599 21.3862 3.63599 19.1662V7.90621C3.63599 3.46621 4.91599 2.11621 9.10599 2.11621H16.666C20.856 2.11621 22.136 3.46621 22.136 7.90621V19.1662C22.136 21.3762 21.226 22.0662 20.686 22.2862C20.156 22.4962 19.056 22.6162 17.606 21.0762C17.366 20.8162 17.066 20.6862 16.756 20.7062C16.456 20.7262 16.166 20.8862 15.956 21.1662L14.946 22.5162C14.406 23.2162 13.646 23.6162 12.866 23.6162ZM8.94599 19.1962C8.98599 19.1962 9.03599 19.1962 9.07599 19.1962C9.81599 19.2362 10.516 19.6262 10.986 20.2562L11.996 21.6062C12.486 22.2562 13.236 22.2562 13.726 21.6062L14.736 20.2562C15.216 19.6262 15.906 19.2362 16.656 19.1962C17.406 19.1562 18.136 19.4662 18.676 20.0462C19.436 20.8562 19.926 20.9562 20.106 20.8862C20.346 20.7862 20.606 20.2062 20.606 19.1662V7.90621C20.606 4.29621 19.976 3.61621 16.636 3.61621H9.07599C5.73599 3.61621 5.10599 4.29621 5.10599 7.90621V19.1662C5.10599 20.2162 5.36599 20.7962 5.60599 20.8862C5.77599 20.9562 6.27598 20.8562 7.03598 20.0462C7.58598 19.4962 8.25599 19.1962 8.94599 19.1962Z" fill="#A9B1C6"/>
<path d="M15.616 11.6162H10.116C9.70597 11.6162 9.36597 11.2762 9.36597 10.8662C9.36597 10.4562 9.70597 10.1162 10.116 10.1162H15.616C16.026 10.1162 16.366 10.4562 16.366 10.8662C16.366 11.2762 16.026 11.6162 15.616 11.6162Z" fill="#A9B1C6"/>
</svg>
