<svg width="133" height="101" viewBox="0 0 133 101" fill="none" xmlns="http://www.w3.org/2000/svg">
<g filter="url(#filter0_d_722_27262)">
<rect x="46.063" y="24.8848" width="40.0176" height="34.8725" transform="rotate(-12.9538 46.063 24.8848)" fill="#E7E9EF"/>
</g>
<rect x="50.7306" y="27.3301" width="32.0141" height="3.43008" transform="rotate(-12.9538 50.7306 27.3301)" fill="#D0D4DD"/>
<path d="M44.0336 20.6893C43.2061 18.7639 44.0961 16.5323 46.0215 15.7048L75.8149 2.90001C77.7402 2.07251 79.9719 2.96252 80.7994 4.88789L82.6871 9.28007L45.9213 25.0815L44.0336 20.6893Z" fill="#D0D4DD"/>
<path fill-rule="evenodd" clip-rule="evenodd" d="M43.3372 20.9881C42.3442 18.6777 43.4122 15.9997 45.7226 15.0067L75.516 2.20191C77.8265 1.20891 80.5044 2.27691 81.4974 4.58736L83.6848 9.67679L45.5245 26.0775L43.3372 20.9881ZM46.3219 16.4012C44.7816 17.0632 44.0696 18.8485 44.7316 20.3888L46.3197 24.0837L81.691 8.88164L80.1029 5.18669C79.4409 3.64639 77.6556 2.93439 76.1153 3.59639L46.3219 16.4012Z" fill="#D0D4DD"/>
<path d="M45.7634 15.8146L45.1612 16.0734C44.1205 16.5207 43.4813 17.5126 43.4336 18.5731L49.7599 23.4305L53.557 21.7986L45.7634 15.8146Z" fill="#E7E9EF"/>
<path d="M60.8434 18.667L57.0463 20.299L49.2527 14.3149L53.0497 12.683L60.8434 18.667Z" fill="#E7E9EF"/>
<path d="M68.1298 15.5354L64.3327 17.1674L56.5391 11.1833L60.3362 9.55139L68.1298 15.5354Z" fill="#E7E9EF"/>
<path d="M75.4162 12.4038L71.6191 14.0358L63.8255 8.05172L67.6226 6.41978L75.4162 12.4038Z" fill="#E7E9EF"/>
<path d="M82.6749 9.25103L82.6869 9.27899L78.9055 10.9042L71.1118 4.92015L74.9089 3.28821L82.6749 9.25103Z" fill="#E7E9EF"/>
<g filter="url(#filter1_d_722_27262)">
<path d="M103.446 90.362L68.0864 70.8954L92.0354 27.394C92.815 25.9778 94.5914 25.45 96.0139 26.2332L121.439 40.2302L124.738 51.6867L103.446 90.362Z" fill="white"/>
</g>
<path d="M83.594 69.8423L78.2454 66.8977C78.0458 66.7878 78.0832 66.342 78.3196 65.9125C78.5561 65.4829 78.9128 65.2129 79.1124 65.3228L84.4611 68.2674C84.6606 68.3773 84.6232 68.8231 84.3868 69.2526C84.1109 69.7537 83.7936 69.9522 83.594 69.8423Z" fill="#E7E9EF"/>
<path d="M108.34 44.2618L95.0238 36.9306C94.7141 36.7601 94.6487 36.2505 94.8822 35.8265C95.1156 35.4025 95.5811 35.1852 95.8908 35.3557L109.207 42.6868C109.517 42.8573 109.582 43.3669 109.349 43.7909C109.115 44.2149 108.65 44.4322 108.34 44.2618Z" fill="#D0D4DD"/>
<path d="M97.4959 43.0812L92.9364 40.5711C92.6613 40.4196 92.6255 39.9263 92.859 39.5023C93.0924 39.0783 93.5283 38.8447 93.8035 38.9962L98.3237 41.4847C98.5988 41.6362 98.6345 42.1294 98.4011 42.5534C98.1677 42.9775 97.7318 43.2111 97.4959 43.0812Z" fill="#D0D4DD"/>
<path d="M106.273 70.698L90.3093 61.9097L88.5499 60.9411L83.2288 58.0116C83.0142 57.8935 82.619 58.1035 82.3662 58.5628C82.1494 58.9566 82.1043 59.4448 82.3618 59.5866L87.6829 62.516L89.4422 63.4846L105.406 72.2729C105.62 72.3911 106.015 72.1811 106.268 71.7217C106.478 71.2387 106.487 70.8161 106.273 70.698Z" fill="#D0D4DD"/>
<path d="M108.583 66.4984L102.65 63.2323L100.63 62.12L85.5404 53.8128C85.3254 53.6945 84.9298 53.9043 84.677 54.3636C84.4602 54.7574 84.4154 55.2458 84.6733 55.3878L99.7625 63.6949L101.783 64.8072L107.716 68.0733C107.931 68.1916 108.326 67.9819 108.579 67.5225C108.789 67.0395 108.798 66.6167 108.583 66.4984Z" fill="#D0D4DD"/>
<path d="M110.645 62.844L109.103 61.9953L107.561 61.1465L87.5619 50.1362C87.3478 50.0183 86.953 50.2285 86.7001 50.6878C86.4834 51.0816 86.4379 51.5696 86.6949 51.7111L106.694 62.7214L108.407 63.6645L109.735 64.3954C109.949 64.5133 110.344 64.303 110.597 63.8437C110.856 63.4735 110.859 62.9619 110.645 62.844Z" fill="#D0D4DD"/>
<path d="M112.924 58.6263L107.956 55.8917L106.725 55.2139L89.8706 45.9349C89.6583 45.818 89.2654 46.0293 89.0125 46.4886C88.7958 46.8824 88.7488 47.3696 89.0035 47.5098L105.858 56.7888L107.089 57.4666L112.014 60.1779C112.311 60.3415 112.662 60.1069 112.915 59.6475C113.131 59.2538 113.178 58.7666 112.924 58.6263Z" fill="#D0D4DD"/>
<path d="M121.27 40.5391L119.393 43.948C118.18 46.151 118.983 48.9201 121.186 50.1329L124.569 51.9956" fill="#E7E9EF"/>
<g filter="url(#filter2_d_722_27262)">
<path d="M64.1498 74.6092L26.3113 88.6625L9.02209 42.1114C8.45927 40.5959 9.22021 38.9062 10.7424 38.3408L37.9494 28.2361L48.7787 33.2226L64.1498 74.6092Z" fill="white"/>
</g>
<path d="M38.0717 28.5664L39.4265 32.2143C40.3021 34.5718 42.9229 35.7731 45.2804 34.8975L48.9009 33.5529" fill="#E7E9EF"/>
<path d="M50.1651 59.0376L41.8613 54.6039C40.2881 53.764 38.3308 54.5091 37.6669 56.2007L34.739 63.6605L33.1415 62.8137C31.559 61.9747 29.5955 62.7363 28.9445 64.4415L27.6938 67.7172C26.7574 70.1698 29.0945 72.5662 31.5153 71.6357L42.105 67.5652L49.7927 64.5756C52.209 63.6359 52.4366 60.2505 50.1651 59.0376Z" fill="#D0D4DD"/>
<path d="M28.5405 57.8182C30.4969 56.7888 31.3098 54.5273 30.3879 52.6783C29.4661 50.8293 27.2045 50.1853 25.2481 51.2146C23.2916 52.244 22.4787 54.5055 23.4006 56.3545C24.3225 58.2035 26.584 58.8475 28.5405 57.8182Z" fill="#D0D4DD"/>
<circle cx="71.748" cy="65.2665" r="18.2138" fill="white"/>
<g filter="url(#filter3_d_722_27262)">
<path d="M65.0135 55.0545C66.945 53.7991 69.1661 53.123 71.677 53.123C78.3405 53.123 83.7486 58.5311 83.7486 65.1946C83.7486 71.8581 78.3405 77.2662 71.677 77.2662C65.0135 77.2662 59.6055 71.8581 59.6055 65.1946C59.6055 60.9454 61.7301 57.2757 65.0135 55.0545Z" fill="#006ADC"/>
</g>
<path d="M72.5806 59.2991L76.199 62.845C76.6879 63.3242 76.6879 63.995 76.199 64.4742C75.71 64.9534 75.0254 64.9534 74.5365 64.4742L72.8739 62.845V70.5118C72.8739 71.0868 72.385 71.6619 71.7004 71.6619C71.1136 71.6619 70.5269 71.1827 70.5269 70.5118V62.845L68.8643 64.4742C68.3754 64.9534 67.6908 64.9534 67.2018 64.4742C67.0062 64.2825 66.9084 63.995 66.9084 63.7075C66.9084 63.42 67.0062 63.1325 67.2018 62.9408L70.8202 59.3949C71.0158 59.2033 71.3092 59.1074 71.6026 59.1074C71.896 59.1074 72.385 59.1074 72.5806 59.2991Z" fill="#E7E9EF"/>
<defs>
<filter id="filter0_d_722_27262" x="29.367" y="7.56608" width="80.2083" height="76.347" filterUnits="userSpaceOnUse" color-interpolation-filters="sRGB">
<feFlood flood-opacity="0" result="BackgroundImageFix"/>
<feColorMatrix in="SourceAlpha" type="matrix" values="0 0 0 0 0 0 0 0 0 0 0 0 0 0 0 0 0 0 127 0" result="hardAlpha"/>
<feOffset dy="8.34798"/>
<feGaussianBlur stdDeviation="8.34798"/>
<feColorMatrix type="matrix" values="0 0 0 0 0.397708 0 0 0 0 0.47749 0 0 0 0 0.575 0 0 0 0.27 0"/>
<feBlend mode="normal" in2="BackgroundImageFix" result="effect1_dropShadow_722_27262"/>
<feBlend mode="normal" in="SourceGraphic" in2="effect1_dropShadow_722_27262" result="shape"/>
</filter>
<filter id="filter1_d_722_27262" x="60.0863" y="20.3911" width="72.6516" height="80.4902" filterUnits="userSpaceOnUse" color-interpolation-filters="sRGB">
<feFlood flood-opacity="0" result="BackgroundImageFix"/>
<feColorMatrix in="SourceAlpha" type="matrix" values="0 0 0 0 0 0 0 0 0 0 0 0 0 0 0 0 0 0 127 0" result="hardAlpha"/>
<feOffset dy="2.52"/>
<feGaussianBlur stdDeviation="4"/>
<feColorMatrix type="matrix" values="0 0 0 0 0 0 0 0 0 0 0 0 0 0 0 0 0 0 0.14 0"/>
<feBlend mode="normal" in2="BackgroundImageFix" result="effect1_dropShadow_722_27262"/>
<feBlend mode="normal" in="SourceGraphic" in2="effect1_dropShadow_722_27262" result="shape"/>
</filter>
<filter id="filter2_d_722_27262" x="0.836792" y="22.7563" width="71.313" height="76.4258" filterUnits="userSpaceOnUse" color-interpolation-filters="sRGB">
<feFlood flood-opacity="0" result="BackgroundImageFix"/>
<feColorMatrix in="SourceAlpha" type="matrix" values="0 0 0 0 0 0 0 0 0 0 0 0 0 0 0 0 0 0 127 0" result="hardAlpha"/>
<feOffset dy="2.52"/>
<feGaussianBlur stdDeviation="4"/>
<feColorMatrix type="matrix" values="0 0 0 0 0 0 0 0 0 0 0 0 0 0 0 0 0 0 0.14 0"/>
<feBlend mode="normal" in2="BackgroundImageFix" result="effect1_dropShadow_722_27262"/>
<feBlend mode="normal" in="SourceGraphic" in2="effect1_dropShadow_722_27262" result="shape"/>
</filter>
<filter id="filter3_d_722_27262" x="56.5698" y="50.1274" width="30.2144" height="30.2138" filterUnits="userSpaceOnUse" color-interpolation-filters="sRGB">
<feFlood flood-opacity="0" result="BackgroundImageFix"/>
<feColorMatrix in="SourceAlpha" type="matrix" values="0 0 0 0 0 0 0 0 0 0 0 0 0 0 0 0 0 0 127 0" result="hardAlpha"/>
<feOffset dy="0.04"/>
<feGaussianBlur stdDeviation="1.51781"/>
<feComposite in2="hardAlpha" operator="out"/>
<feColorMatrix type="matrix" values="0 0 0 0 0 0 0 0 0 0 0 0 0 0 0 0 0 0 0.14 0"/>
<feBlend mode="normal" in2="BackgroundImageFix" result="effect1_dropShadow_722_27262"/>
<feBlend mode="normal" in="SourceGraphic" in2="effect1_dropShadow_722_27262" result="shape"/>
</filter>
</defs>
</svg>
