<svg width="150" height="109" viewBox="0 0 150 109" fill="none" xmlns="http://www.w3.org/2000/svg">
<g filter="url(#filter0_d_690_22616)">
<rect width="40.0154" height="34.8707" transform="matrix(0.974551 -0.224167 0.224165 0.974551 54.0625 24.8848)" fill="#101218"/>
</g>
<rect width="32.0123" height="3.42991" transform="matrix(0.974551 -0.224167 0.224165 0.974551 58.7285 27.3301)" fill="#22262F"/>
<path d="M52.0334 20.6891C51.2059 18.7639 52.0959 16.5323 54.0212 15.7049L83.8129 2.90073C85.7382 2.07327 87.9697 2.96323 88.7972 4.8885L90.6848 9.28047L53.921 25.0811L52.0334 20.6891Z" fill="#22262F"/>
<path fill-rule="evenodd" clip-rule="evenodd" d="M51.3369 20.9879C50.344 18.6776 51.4119 15.9997 53.7223 15.0068L83.514 2.20264C85.8243 1.20969 88.5022 2.27764 89.4951 4.58797L91.6824 9.67714L53.5242 26.0771L51.3369 20.9879ZM54.3216 16.4012C52.7813 17.0632 52.0694 18.8484 52.7313 20.3886L54.3193 24.0834L89.6887 8.88203L88.1007 5.18727C87.4387 3.64705 85.6535 2.93508 84.1133 3.59705L54.3216 16.4012Z" fill="#22262F"/>
<path d="M53.762 15.8146L53.1599 16.0734C52.1192 16.5207 51.48 17.5125 51.4324 18.573L57.7583 23.4302L61.5552 21.7984L53.762 15.8146Z" fill="#101218"/>
<path d="M68.8412 18.667L65.0443 20.2988L57.2511 14.3151L61.048 12.6832L68.8412 18.667Z" fill="#101218"/>
<path d="M76.1272 15.5355L72.3303 17.1674L64.5371 11.1836L68.334 9.55176L76.1272 15.5355Z" fill="#101218"/>
<path d="M83.4132 12.4041L79.6163 14.0359L71.8231 8.05217L75.62 6.42032L83.4132 12.4041Z" fill="#101218"/>
<path d="M90.6715 9.25142L90.6835 9.27938L86.9023 10.9045L79.1091 4.92075L82.9059 3.2889L90.6715 9.25142Z" fill="#101218"/>
<g filter="url(#filter1_d_690_22616)">
<path d="M111.441 90.3607L76.0838 70.895L100.032 27.3958C100.811 25.9797 102.587 25.4519 104.01 26.235L129.433 40.2314L132.732 51.6874L111.441 90.3607Z" fill="#101218"/>
</g>
<path d="M91.5906 69.8421L86.2422 66.8976C86.0427 66.7877 86.08 66.3419 86.3165 65.9124C86.553 65.4829 86.9097 65.2129 87.1092 65.3228L92.4576 68.2672C92.6571 68.3771 92.6197 68.8229 92.3833 69.2524C92.1074 69.7535 91.7901 69.9519 91.5906 69.8421Z" fill="#101218"/>
<path d="M116.336 44.2632L103.021 36.9325C102.711 36.762 102.646 36.2524 102.879 35.8284C103.112 35.4044 103.578 35.1871 103.888 35.3576L117.203 42.6884C117.513 42.8589 117.578 43.3684 117.345 43.7924C117.111 44.2164 116.646 44.4337 116.336 44.2632Z" fill="#22262F"/>
<path d="M105.49 43.081L100.931 40.571C100.656 40.4195 100.62 39.9263 100.854 39.5023C101.087 39.0783 101.523 38.8447 101.798 38.9961L106.318 41.4845C106.593 41.636 106.629 42.1293 106.395 42.5533C106.162 42.9772 105.726 43.2108 105.49 43.081Z" fill="#22262F"/>
<path d="M114.267 70.6974L98.3041 61.9095L96.5448 60.9409L91.224 58.0116C91.0095 57.8935 90.6143 58.1035 90.3614 58.5628C90.1447 58.9565 90.0996 59.4447 90.357 59.5865L95.6778 62.5158L97.4371 63.4843L113.4 72.2722C113.614 72.3903 114.009 72.1804 114.262 71.721C114.472 71.2381 114.481 70.8155 114.267 70.6974Z" fill="#22262F"/>
<path d="M116.578 66.4958L110.646 63.2299L108.626 62.1176L93.5373 53.8109C93.3224 53.6925 92.9268 53.9023 92.6739 54.3616C92.4572 54.7553 92.4124 55.2437 92.6703 55.3857L107.759 63.6924L109.779 64.8047L115.711 68.0706C115.926 68.1889 116.322 67.9792 116.575 67.5199C116.785 67.0369 116.793 66.6141 116.578 66.4958Z" fill="#22262F"/>
<path d="M118.639 62.8434L117.097 61.9947L115.555 61.1459L95.5571 50.1361C95.343 50.0183 94.9483 50.2285 94.6954 50.6878C94.4787 51.0815 94.4332 51.5695 94.6901 51.711L114.688 62.7208L116.401 63.6638L117.729 64.3947C117.943 64.5125 118.338 64.3023 118.591 63.843C118.85 63.4729 118.853 62.9613 118.639 62.8434Z" fill="#22262F"/>
<path d="M120.92 58.6237L115.953 55.8892L114.721 55.2115L97.8679 45.9329C97.6556 45.8161 97.2627 46.0273 97.0099 46.4866C96.7931 46.8803 96.7462 47.3675 97.0009 47.5078L113.854 56.7863L115.086 57.4641L120.01 60.1752C120.307 60.3388 120.658 60.1042 120.911 59.6449C121.127 59.2511 121.174 58.764 120.92 58.6237Z" fill="#22262F"/>
<path d="M129.264 40.5391L127.387 43.9478C126.174 46.1507 126.977 48.9197 129.18 50.1325L132.563 51.995" fill="#101218"/>
<g filter="url(#filter2_d_690_22616)">
<path d="M72.1467 74.6075L34.3103 88.6601L17.022 42.1112C16.4592 40.5959 17.2201 38.9062 18.7423 38.3409L45.9478 28.2367L56.7765 33.2229L72.1467 74.6075Z" fill="#101218"/>
</g>
<path d="M46.0703 28.5664L47.4251 32.2142C48.3006 34.5715 50.9213 35.7727 53.2787 34.8972L56.899 33.5526" fill="#101218"/>
<path d="M58.1605 59.0359L49.8571 54.6024C48.2841 53.7625 46.3269 54.5076 45.663 56.1991L42.7353 63.6585L41.1379 62.8117C39.5554 61.9729 37.592 62.7344 36.941 64.4395L35.6904 67.7151C34.7541 70.1675 37.091 72.5638 39.5117 71.6333L50.1008 67.5631L57.7882 64.5736C60.2043 63.6339 60.4319 60.2487 58.1605 59.0359Z" fill="#22262F"/>
<path d="M36.5376 57.816C38.494 56.7867 39.3068 54.5252 38.385 52.6763C37.4632 50.8274 35.2018 50.1835 33.2454 51.2128C31.2891 52.242 30.4762 54.5035 31.3981 56.3524C32.3199 58.2013 34.5813 58.8453 36.5376 57.816Z" fill="#22262F"/>
<ellipse cx="79.7461" cy="65.2636" rx="18.2128" ry="18.2129" fill="black"/>
<g filter="url(#filter3_d_690_22616)">
<path d="M73.0113 55.0524C74.9426 53.7971 77.1637 53.1211 79.6744 53.1211C86.3376 53.1211 91.7453 58.5289 91.7453 65.1921C91.7453 71.8552 86.3376 77.263 79.6744 77.263C73.0113 77.263 67.6035 71.8552 67.6035 65.1921C67.6035 60.9431 69.728 57.2735 73.0113 55.0524Z" fill="url(#paint0_linear_690_22616)"/>
</g>
<path d="M80.578 59.2971L84.1963 62.8429C84.6852 63.322 84.6852 63.9928 84.1963 64.472C83.7073 64.9511 83.0228 64.9511 82.5338 64.472L80.8714 62.8429V70.5093C80.8714 71.0843 80.3825 71.6593 79.6979 71.6593C79.1112 71.6593 78.5245 71.1801 78.5245 70.5093V62.8429L76.862 64.472C76.3731 64.9511 75.6886 64.9511 75.1996 64.472C75.004 64.2803 74.9062 63.9928 74.9062 63.7053C74.9062 63.4178 75.004 63.1304 75.1996 62.9387L78.8178 59.393C79.0134 59.2013 79.3068 59.1055 79.6001 59.1055C79.8935 59.1055 80.3825 59.1055 80.578 59.2971Z" fill="#101218"/>
<defs>
<filter id="filter0_d_690_22616" x="37.3674" y="7.56652" width="80.204" height="76.3433" filterUnits="userSpaceOnUse" color-interpolation-filters="sRGB">
<feFlood flood-opacity="0" result="BackgroundImageFix"/>
<feColorMatrix in="SourceAlpha" type="matrix" values="0 0 0 0 0 0 0 0 0 0 0 0 0 0 0 0 0 0 127 0" result="hardAlpha"/>
<feOffset dy="8.34754"/>
<feGaussianBlur stdDeviation="8.34754"/>
<feColorMatrix type="matrix" values="0 0 0 0 0.397708 0 0 0 0 0.47749 0 0 0 0 0.575 0 0 0 0.27 0"/>
<feBlend mode="normal" in2="BackgroundImageFix" result="effect1_dropShadow_690_22616"/>
<feBlend mode="normal" in="SourceGraphic" in2="effect1_dropShadow_690_22616" result="shape"/>
</filter>
<filter id="filter1_d_690_22616" x="59.3888" y="10.6937" width="90.0386" height="97.8804" filterUnits="userSpaceOnUse" color-interpolation-filters="sRGB">
<feFlood flood-opacity="0" result="BackgroundImageFix"/>
<feColorMatrix in="SourceAlpha" type="matrix" values="0 0 0 0 0 0 0 0 0 0 0 0 0 0 0 0 0 0 127 0" result="hardAlpha"/>
<feOffset dy="1.51774"/>
<feGaussianBlur stdDeviation="8.34754"/>
<feColorMatrix type="matrix" values="0 0 0 0 0 0 0 0 0 0 0 0 0 0 0 0 0 0 1 0"/>
<feBlend mode="normal" in2="BackgroundImageFix" result="effect1_dropShadow_690_22616"/>
<feBlend mode="normal" in="SourceGraphic" in2="effect1_dropShadow_690_22616" result="shape"/>
</filter>
<filter id="filter2_d_690_22616" x="0.141703" y="13.059" width="88.7001" height="93.814" filterUnits="userSpaceOnUse" color-interpolation-filters="sRGB">
<feFlood flood-opacity="0" result="BackgroundImageFix"/>
<feColorMatrix in="SourceAlpha" type="matrix" values="0 0 0 0 0 0 0 0 0 0 0 0 0 0 0 0 0 0 127 0" result="hardAlpha"/>
<feOffset dy="1.51774"/>
<feGaussianBlur stdDeviation="8.34754"/>
<feColorMatrix type="matrix" values="0 0 0 0 0 0 0 0 0 0 0 0 0 0 0 0 0 0 1 0"/>
<feBlend mode="normal" in2="BackgroundImageFix" result="effect1_dropShadow_690_22616"/>
<feBlend mode="normal" in="SourceGraphic" in2="effect1_dropShadow_690_22616" result="shape"/>
</filter>
<filter id="filter3_d_690_22616" x="64.568" y="53.1211" width="30.2128" height="30.2135" filterUnits="userSpaceOnUse" color-interpolation-filters="sRGB">
<feFlood flood-opacity="0" result="BackgroundImageFix"/>
<feColorMatrix in="SourceAlpha" type="matrix" values="0 0 0 0 0 0 0 0 0 0 0 0 0 0 0 0 0 0 127 0" result="hardAlpha"/>
<feOffset dy="3.03547"/>
<feGaussianBlur stdDeviation="1.51774"/>
<feComposite in2="hardAlpha" operator="out"/>
<feColorMatrix type="matrix" values="0 0 0 0 0 0 0 0 0 0 0 0 0 0 0 0 0 0 0.25 0"/>
<feBlend mode="normal" in2="BackgroundImageFix" result="effect1_dropShadow_690_22616"/>
<feBlend mode="normal" in="SourceGraphic" in2="effect1_dropShadow_690_22616" result="shape"/>
</filter>
<linearGradient id="paint0_linear_690_22616" x1="73.1413" y1="59.4583" x2="83.5271" y2="77.0411" gradientUnits="userSpaceOnUse">
<stop stop-color="#DADEE7"/>
<stop offset="1" stop-color="#626F93"/>
</linearGradient>
</defs>
</svg>
