<svg width="339" height="60" viewBox="0 0 339 60" fill="none" xmlns="http://www.w3.org/2000/svg">
<path opacity="0.1" d="M0 -64L7.29519 -59.338L14.593 -64L21.8908 -59.338L29.1885 -64L36.4837 -59.338L43.7815 -64L51.0793 -59.338L58.3771 -64L65.6749 -59.338L72.9727 -64L80.2679 -59.338L87.5656 -64L94.8634 -59.338L102.164 -64L109.462 -59.338L116.759 -64L124.057 -59.338L131.355 -64L138.653 -59.338M138.653 -59.338L145.953 -64L153.251 -59.338L160.549 -64L167.846 -59.338L175.144 -64L182.445 -59.338L189.742 -64L197.043 -59.338L204.343 -64L211.644 -59.338M138.653 -59.338L131.356 -64M138.653 -59.338L145.949 -64L153.247 -59.338L160.545 -64L167.84 -59.338L175.138 -64L182.436 -59.338L189.734 -64L197.031 -59.338L204.329 -64L211.624 -59.338L218.922 -64L226.22 -59.338L233.52 -64L240.818 -59.338L248.116 -64L255.414 -59.338L262.711 -64L270.009 -59.338L277.31 -64L284.607 -59.338L291.905 -64L299.203 -59.338L306.501 -64L313.801 -59.338L321.099 -64L328.399 -59.338L335.7 -64L343 -59.338M0 -26.662L7.29519 -22L14.593 -26.662L21.8908 -22L29.1885 -26.662L36.4837 -22L43.7815 -26.662L51.0793 -22L58.3771 -26.662L65.6749 -22L72.9727 -26.662L80.2679 -22L87.5656 -26.662L94.8634 -22L102.164 -26.662L109.462 -22L116.759 -26.662L124.057 -22L131.355 -26.662L138.653 -22M138.653 -22L145.953 -26.662L153.251 -22L160.549 -26.662L167.846 -22L175.144 -26.662L182.445 -22L189.742 -26.662L197.043 -22L204.343 -26.662L211.644 -22M138.653 -22L131.356 -26.662M138.653 -22L145.949 -26.662L153.247 -22L160.545 -26.662L167.84 -22L175.138 -26.662L182.436 -22L189.734 -26.662L197.031 -22L204.329 -26.662L211.624 -22L218.922 -26.662L226.22 -22L233.52 -26.662L240.818 -22L248.116 -26.662L255.414 -22L262.711 -26.662L270.009 -22L277.31 -26.662L284.607 -22L291.905 -26.662L299.203 -22L306.501 -26.662L313.801 -22L321.099 -26.662L328.399 -22L335.7 -26.662L343 -22M0 52.676L7.29519 57.338L14.593 52.676L21.8908 57.338L29.1885 52.676L36.4837 57.338L43.7815 52.676L51.0793 57.338L58.3771 52.676L65.6749 57.338L72.9727 52.676L80.2679 57.338L87.5656 52.676L94.8634 57.338L102.164 52.676L109.462 57.338L116.759 52.676L124.057 57.338L131.355 52.676L138.653 57.338M138.653 57.338L145.953 52.676L153.251 57.338L160.549 52.676L167.846 57.338L175.144 52.676L182.445 57.338L189.742 52.676L197.043 57.338L204.343 52.676L211.644 57.338M138.653 57.338L131.356 52.676M138.653 57.338L145.949 52.676L153.247 57.338L160.545 52.676L167.84 57.338L175.138 52.676L182.436 57.338L189.734 52.676L197.031 57.338L204.329 52.676L211.624 57.338L218.922 52.676L226.22 57.338L233.52 52.676L240.818 57.338L248.116 52.676L255.414 57.338L262.711 52.676L270.009 57.338L277.31 52.676L284.607 57.338L291.905 52.676L299.203 57.338L306.501 52.676L313.801 57.338L321.099 52.676L328.399 57.338L335.7 52.676L343 57.338M0 10.6762L7.29519 15.3382L14.593 10.6762L21.8908 15.3382L29.1885 10.6762L36.4837 15.3382L43.7815 10.6762L51.0793 15.3382L58.3771 10.6762L65.6749 15.3382L72.9727 10.6762L80.2679 15.3382L87.5656 10.6762L94.8634 15.3382L102.164 10.6762L109.462 15.3382L116.759 10.6762L124.057 15.3382L131.355 10.6762L138.653 15.3382M138.653 15.3382L145.953 10.6762L153.251 15.3382L160.549 10.6762L167.846 15.3382L175.144 10.6762L182.445 15.3382L189.742 10.6762L197.043 15.3382L204.343 10.6762L211.644 15.3382M138.653 15.3382L131.356 10.6762M138.653 15.3382L145.949 10.6762L153.247 15.3382L160.545 10.6762L167.84 15.3382L175.138 10.6762L182.436 15.3382L189.734 10.6762L197.031 15.3382L204.329 10.6762L211.624 15.3382L218.922 10.6762L226.22 15.3382L233.52 10.6762L240.818 15.3382L248.116 10.6762L255.414 15.3382L262.711 10.6762L270.009 15.3382L277.31 10.6762L284.607 15.3382L291.905 10.6762L299.203 15.3382L306.501 10.6762L313.801 15.3382L321.099 10.6762L328.399 15.3382L335.7 10.6762L343 15.3382M0 89.993L7.29519 94.676L14.593 89.993L21.8908 94.676L29.1885 89.993L36.4837 94.676L43.7815 89.993L51.0793 94.676L58.3771 89.993L65.6749 94.676L72.9727 89.993L80.2679 94.676L87.5656 89.993L94.8634 94.676L102.164 89.993L109.462 94.676L116.759 89.993L124.057 94.676L131.355 89.993L138.653 94.676M138.653 94.676L145.953 89.993L153.251 94.676L160.549 89.993L167.846 94.676L175.144 89.993L182.445 94.676L189.742 89.993L197.043 94.676L204.343 89.993L211.644 94.676M138.653 94.676L131.356 89.993M138.653 94.676L145.949 89.993L153.247 94.676L160.545 89.993L167.84 94.676L175.138 89.993L182.436 94.676L189.734 89.993L197.031 94.676L204.329 89.993L211.624 94.676L218.922 89.993L226.22 94.676L233.52 89.993L240.818 94.676L248.116 89.993L255.414 94.676L262.711 89.993L270.009 94.676L277.31 89.993L284.607 94.676L291.905 89.993L299.203 94.676L306.501 89.993L313.801 94.676L321.099 89.993L328.399 94.676L335.7 89.993L343 94.676M0 -45.3309L7.29519 -40.6689L14.593 -45.3309L21.8908 -40.6689L29.1885 -45.3309L36.4837 -40.6689L43.7815 -45.3309L51.0793 -40.6689L58.3771 -45.3309L65.6749 -40.6689L72.9727 -45.3309L80.2679 -40.6689L87.5656 -45.3309L94.8634 -40.6689L102.164 -45.3309L109.462 -40.6689L116.759 -45.3309L124.057 -40.6689L131.355 -45.3309L138.653 -40.6689M138.653 -40.6689L145.953 -45.3309L153.251 -40.6689L160.549 -45.3309L167.846 -40.6689L175.144 -45.3309L182.445 -40.6689L189.742 -45.3309L197.043 -40.6689L204.343 -45.3309L211.644 -40.6689M138.653 -40.6689L131.356 -45.3309M138.653 -40.6689L145.949 -45.3309L153.247 -40.6689L160.545 -45.3309L167.84 -40.6689L175.138 -45.3309L182.436 -40.6689L189.734 -45.3309L197.031 -40.6689L204.329 -45.3309L211.624 -40.6689L218.922 -45.3309L226.22 -40.6689L233.52 -45.3309L240.818 -40.6689L248.116 -45.3309L255.414 -40.6689L262.711 -45.3309L270.009 -40.6689L277.31 -45.3309L284.607 -40.6689L291.905 -45.3309L299.203 -40.6689L306.501 -45.3309L313.801 -40.6689L321.099 -45.3309L328.399 -40.6689L335.7 -45.3309L343 -40.6689M0 -7.99284L7.29519 -3.33085L14.593 -7.99284L21.8908 -3.33085L29.1885 -7.99284L36.4837 -3.33085L43.7815 -7.99284L51.0793 -3.33085L58.3771 -7.99284L65.6749 -3.33085L72.9727 -7.99284L80.2679 -3.33085L87.5656 -7.99284L94.8634 -3.33085L102.164 -7.99284L109.462 -3.33085L116.759 -7.99284L124.057 -3.33085L131.355 -7.99284L138.653 -3.33085M138.653 -3.33085L145.953 -7.99284L153.251 -3.33085L160.549 -7.99284L167.846 -3.33085L175.144 -7.99284L182.445 -3.33085L189.742 -7.99284L197.043 -3.33085L204.343 -7.99284L211.644 -3.33085M138.653 -3.33085L131.356 -7.99284M138.653 -3.33085L145.949 -7.99284L153.247 -3.33085L160.545 -7.99284L167.84 -3.33085L175.138 -7.99284L182.436 -3.33085L189.734 -7.99284L197.031 -3.33085L204.329 -7.99284L211.624 -3.33085L218.922 -7.99284L226.22 -3.33085L233.52 -7.99284L240.818 -3.33085L248.116 -7.99284L255.414 -3.33085L262.711 -7.99284L270.009 -3.33085L277.31 -7.99284L284.607 -3.33085L291.905 -7.99284L299.203 -3.33085L306.501 -7.99284L313.801 -3.33085L321.099 -7.99284L328.399 -3.33085L335.7 -7.99284L343 -3.33085M0 71.324L7.29519 76.007L14.593 71.324L21.8908 76.007L29.1885 71.324L36.4837 76.007L43.7815 71.324L51.0793 76.007L58.3771 71.324L65.6749 76.007L72.9727 71.324L80.2679 76.007L87.5656 71.324L94.8634 76.007L102.164 71.324L109.462 76.007L116.759 71.324L124.057 76.007L131.355 71.324L138.653 76.007M138.653 76.007L145.953 71.324L153.251 76.007L160.549 71.324L167.846 76.007L175.144 71.324L182.445 76.007L189.742 71.324L197.043 76.007L204.343 71.324L211.644 76.007M138.653 76.007L131.356 71.324M138.653 76.007L145.949 71.324L153.247 76.007L160.545 71.324L167.84 76.007L175.138 71.324L182.436 76.007L189.734 71.324L197.031 76.007L204.329 71.324L211.624 76.007L218.922 71.324L226.22 76.007L233.52 71.324L240.818 76.007L248.116 71.324L255.414 76.007L262.711 71.324L270.009 76.007L277.31 71.324L284.607 76.007L291.905 71.324L299.203 76.007L306.501 71.324L313.801 76.007L321.099 71.324L328.399 76.007L335.7 71.324L343 76.007M0 29.3242L7.29519 34.0072L14.593 29.3242L21.8908 34.0072L29.1885 29.3242L36.4837 34.0072L43.7815 29.3242L51.0793 34.0072L58.3771 29.3242L65.6749 34.0072L72.9727 29.3242L80.2679 34.0072L87.5656 29.3242L94.8634 34.0072L102.164 29.3242L109.462 34.0072L116.759 29.3242L124.057 34.0072L131.355 29.3242L138.653 34.0072M138.653 34.0072L145.953 29.3242L153.251 34.0072L160.549 29.3242L167.846 34.0072L175.144 29.3242L182.445 34.0072L189.742 29.3242L197.043 34.0072L204.343 29.3242L211.644 34.0072M138.653 34.0072L131.356 29.3242M138.653 34.0072L145.949 29.3242L153.247 34.0072L160.545 29.3242L167.84 34.0072L175.138 29.3242L182.436 34.0072L189.734 29.3242L197.031 34.0072L204.329 29.3242L211.624 34.0072L218.922 29.3242L226.22 34.0072L233.52 29.3242L240.818 34.0072L248.116 29.3242L255.414 34.0072L262.711 29.3242L270.009 34.0072L277.31 29.3242L284.607 34.0072L291.905 29.3242L299.203 34.0072L306.501 29.3242L313.801 34.0072L321.099 29.3242L328.399 34.0072L335.7 29.3242L343 34.0072M0 108.662L7.29519 113.324L14.593 108.662L21.8908 113.324L29.1885 108.662L36.4837 113.324L43.7815 108.662L51.0793 113.324L58.3771 108.662L65.6749 113.324L72.9727 108.662L80.2679 113.324L87.5656 108.662L94.8634 113.324L102.164 108.662L109.462 113.324L116.759 108.662L124.057 113.324L131.355 108.662L138.653 113.324M138.653 113.324L145.953 108.662L153.251 113.324L160.549 108.662L167.846 113.324L175.144 108.662L182.445 113.324L189.742 108.662L197.043 113.324L204.343 108.662L211.644 113.324M138.653 113.324L131.356 108.662M138.653 113.324L145.949 108.662L153.247 113.324L160.545 108.662L167.84 113.324L175.138 108.662L182.436 113.324L189.734 108.662L197.031 113.324L204.329 108.662L211.624 113.324L218.922 108.662L226.22 113.324L233.52 108.662L240.818 113.324L248.116 108.662L255.414 113.324L262.711 108.662L270.009 113.324L277.31 108.662L284.607 113.324L291.905 108.662L299.203 113.324L306.501 108.662L313.801 113.324L321.099 108.662L328.399 113.324L335.7 108.662L343 113.324M0 127.331L7.29519 131.993L14.593 127.331L21.8908 131.993L29.1885 127.331L36.4837 131.993L43.7815 127.331L51.0793 131.993L58.3771 127.331L65.6749 131.993L72.9727 127.331L80.2679 131.993L87.5656 127.331L94.8634 131.993L102.164 127.331L109.462 131.993L116.759 127.331L124.057 131.993L131.355 127.331L138.653 131.993M138.653 131.993L145.953 127.331L153.251 131.993L160.549 127.331L167.846 131.993L175.144 127.331L182.445 131.993L189.742 127.331L197.043 131.993L204.343 127.331L211.644 131.993M138.653 131.993L131.356 127.331M138.653 131.993L145.949 127.331L153.247 131.993L160.545 127.331L167.84 131.993L175.138 127.331L182.436 131.993L189.734 127.331L197.031 131.993L204.329 127.331L211.624 131.993L218.922 127.331L226.22 131.993L233.52 127.331L240.818 131.993L248.116 127.331L255.414 131.993L262.711 127.331L270.009 131.993L277.31 127.331L284.607 131.993L291.905 127.331L299.203 131.993L306.501 127.331L313.801 131.993L321.099 127.331L328.399 131.993L335.7 127.331L343 131.993M0 -54.6759L7.29519 -49.9929L14.593 -54.6759L21.8908 -49.9929L29.1885 -54.6759L36.4837 -49.9929L43.7815 -54.6759L51.0793 -49.9929L58.3771 -54.6759L65.6749 -49.9929L72.9727 -54.6759L80.2679 -49.9929L87.5656 -54.6759L94.8634 -49.9929L102.164 -54.6759L109.462 -49.9929L116.759 -54.6759L124.057 -49.9929L131.355 -54.6759L138.653 -49.9929M138.653 -49.9929L145.953 -54.6759L153.251 -49.9929L160.549 -54.6759L167.846 -49.9929L175.144 -54.6759L182.445 -49.9929L189.742 -54.6759L197.043 -49.9929L204.343 -54.6759L211.644 -49.9929M138.653 -49.9929L131.356 -54.6759M138.653 -49.9929L145.949 -54.6759L153.247 -49.9929L160.545 -54.6759L167.84 -49.9929L175.138 -54.6759L182.436 -49.9929L189.734 -54.6759L197.031 -49.9929L204.329 -54.6759L211.624 -49.9929L218.922 -54.6759L226.22 -49.9929L233.52 -54.6759L240.818 -49.9929L248.116 -54.6759L255.414 -49.9929L262.711 -54.6759L270.009 -49.9929L277.31 -54.6759L284.607 -49.9929L291.905 -54.6759L299.203 -49.9929L306.501 -54.6759L313.801 -49.9929L321.099 -54.6759L328.399 -49.9929L335.7 -54.6759L343 -49.9929M0 -17.338L7.29519 -12.676L14.593 -17.338L21.8908 -12.676L29.1885 -17.338L36.4837 -12.676L43.7815 -17.338L51.0793 -12.676L58.3771 -17.338L65.6749 -12.676L72.9727 -17.338L80.2679 -12.676L87.5656 -17.338L94.8634 -12.676L102.164 -17.338L109.462 -12.676L116.759 -17.338L124.057 -12.676L131.355 -17.338L138.653 -12.676M138.653 -12.676L145.953 -17.338L153.251 -12.676L160.549 -17.338L167.846 -12.676L175.144 -17.338L182.445 -12.676L189.742 -17.338L197.043 -12.676L204.343 -17.338L211.644 -12.676M138.653 -12.676L131.356 -17.338M138.653 -12.676L145.949 -17.338L153.247 -12.676L160.545 -17.338L167.84 -12.676L175.138 -17.338L182.436 -12.676L189.734 -17.338L197.031 -12.676L204.329 -17.338L211.624 -12.676L218.922 -17.338L226.22 -12.676L233.52 -17.338L240.818 -12.676L248.116 -17.338L255.414 -12.676L262.711 -17.338L270.009 -12.676L277.31 -17.338L284.607 -12.676L291.905 -17.338L299.203 -12.676L306.501 -17.338L313.801 -12.676L321.099 -17.338L328.399 -12.676L335.7 -17.338L343 -12.676M0 62.0002L7.29519 66.6622L14.593 62.0002L21.8908 66.6622L29.1885 62.0002L36.4837 66.6622L43.7815 62.0002L51.0793 66.6622L58.3771 62.0002L65.6749 66.6622L72.9727 62.0002L80.2679 66.6622L87.5656 62.0002L94.8634 66.6622L102.164 62.0002L109.462 66.6622L116.759 62.0002L124.057 66.6622L131.355 62.0002L138.653 66.6622M138.653 66.6622L145.953 62.0002L153.251 66.6622L160.549 62.0002L167.846 66.6622L175.144 62.0002L182.445 66.6622L189.742 62.0002L197.043 66.6622L204.343 62.0002L211.644 66.6622M138.653 66.6622L131.356 62.0002M138.653 66.6622L145.949 62.0002L153.247 66.6622L160.545 62.0002L167.84 66.6622L175.138 62.0002L182.436 66.6622L189.734 62.0002L197.031 66.6622L204.329 62.0002L211.624 66.6622L218.922 62.0002L226.22 66.6622L233.52 62.0002L240.818 66.6622L248.116 62.0002L255.414 66.6622L262.711 62.0002L270.009 66.6622L277.31 62.0002L284.607 66.6622L291.905 62.0002L299.203 66.6622L306.501 62.0002L313.801 66.6622L321.099 62.0002L328.399 66.6622L335.7 62.0002L343 66.6622M0 20.0002L7.29519 24.6622L14.593 20.0002L21.8908 24.6622L29.1885 20.0002L36.4837 24.6622L43.7815 20.0002L51.0793 24.6622L58.3771 20.0002L65.6749 24.6622L72.9727 20.0002L80.2679 24.6622L87.5656 20.0002L94.8634 24.6622L102.164 20.0002L109.462 24.6622L116.759 20.0002L124.057 24.6622L131.355 20.0002L138.653 24.6622M138.653 24.6622L145.953 20.0002L153.251 24.6622L160.549 20.0002L167.846 24.6622L175.144 20.0002L182.445 24.6622L189.742 20.0002L197.043 24.6622L204.343 20.0002L211.644 24.6622M138.653 24.6622L131.356 20.0002M138.653 24.6622L145.949 20.0002L153.247 24.6622L160.545 20.0002L167.84 24.6622L175.138 20.0002L182.436 24.6622L189.734 20.0002L197.031 24.6622L204.329 20.0002L211.624 24.6622L218.922 20.0002L226.22 24.6622L233.52 20.0002L240.818 24.6622L248.116 20.0002L255.414 24.6622L262.711 20.0002L270.009 24.6622L277.31 20.0002L284.607 24.6622L291.905 20.0002L299.203 24.6622L306.501 20.0002L313.801 24.6622L321.099 20.0002L328.399 24.6622L335.7 20.0002L343 24.6622M0 99.338L7.29519 104L14.593 99.338L21.8908 104L29.1885 99.338L36.4837 104L43.7815 99.338L51.0793 104L58.3771 99.338L65.6749 104L72.9727 99.338L80.2679 104L87.5656 99.338L94.8634 104L102.164 99.338L109.462 104L116.759 99.338L124.057 104L131.355 99.338L138.653 104M138.653 104L145.953 99.338L153.251 104L160.549 99.338L167.846 104L175.144 99.338L182.445 104L189.742 99.338L197.043 104L204.343 99.338L211.644 104M138.653 104L131.356 99.338M138.653 104L145.949 99.338L153.247 104L160.545 99.338L167.84 104L175.138 99.338L182.436 104L189.734 99.338L197.031 104L204.329 99.338L211.624 104L218.922 99.338L226.22 104L233.52 99.338L240.818 104L248.116 99.338L255.414 104L262.711 99.338L270.009 104L277.31 99.338L284.607 104L291.905 99.338L299.203 104L306.501 99.338L313.801 104L321.099 99.338L328.399 104L335.7 99.338L343 104M0 -36.0069L7.29519 -31.3239L14.593 -36.0069L21.8908 -31.3239L29.1885 -36.0069L36.4837 -31.3239L43.7815 -36.0069L51.0793 -31.3239L58.3771 -36.0069L65.6749 -31.3239L72.9727 -36.0069L80.2679 -31.3239L87.5656 -36.0069L94.8634 -31.3239L102.164 -36.0069L109.462 -31.3239L116.759 -36.0069L124.057 -31.3239L131.355 -36.0069L138.653 -31.3239M138.653 -31.3239L145.953 -36.0069L153.251 -31.3239L160.549 -36.0069L167.846 -31.3239L175.144 -36.0069L182.445 -31.3239L189.742 -36.0069L197.043 -31.3239L204.343 -36.0069L211.644 -31.3239M138.653 -31.3239L131.356 -36.0069M138.653 -31.3239L145.949 -36.0069L153.247 -31.3239L160.545 -36.0069L167.84 -31.3239L175.138 -36.0069L182.436 -31.3239L189.734 -36.0069L197.031 -31.3239L204.329 -36.0069L211.624 -31.3239L218.922 -36.0069L226.22 -31.3239L233.52 -36.0069L240.818 -31.3239L248.116 -36.0069L255.414 -31.3239L262.711 -36.0069L270.009 -31.3239L277.31 -36.0069L284.607 -31.3239L291.905 -36.0069L299.203 -31.3239L306.501 -36.0069L313.801 -31.3239L321.099 -36.0069L328.399 -31.3239L335.7 -36.0069L343 -31.3239M0 1.33116L7.29519 5.99316L14.593 1.33116L21.8908 5.99316L29.1885 1.33116L36.4837 5.99316L43.7815 1.33116L51.0793 5.99316L58.3771 1.33116L65.6749 5.99316L72.9727 1.33116L80.2679 5.99316L87.5656 1.33116L94.8634 5.99316L102.164 1.33116L109.462 5.99316L116.759 1.33116L124.057 5.99316L131.355 1.33116L138.653 5.99316M138.653 5.99316L145.953 1.33116L153.251 5.99316L160.549 1.33116L167.846 5.99316L175.144 1.33116L182.445 5.99316L189.742 1.33116L197.043 5.99316L204.343 1.33116L211.644 5.99316M138.653 5.99316L131.356 1.33116M138.653 5.99316L145.949 1.33116L153.247 5.99316L160.545 1.33116L167.84 5.99316L175.138 1.33116L182.436 5.99316L189.734 1.33116L197.031 5.99316L204.329 1.33116L211.624 5.99316L218.922 1.33116L226.22 5.99316L233.52 1.33116L240.818 5.99316L248.116 1.33116L255.414 5.99316L262.711 1.33116L270.009 5.99316L277.31 1.33116L284.607 5.99316L291.905 1.33116L299.203 5.99316L306.501 1.33116L313.801 5.99316L321.099 1.33116L328.399 5.99316L335.7 1.33116L343 5.99316M0 80.669L7.29519 85.331L14.593 80.669L21.8908 85.331L29.1885 80.669L36.4837 85.331L43.7815 80.669L51.0793 85.331L58.3771 80.669L65.6749 85.331L72.9727 80.669L80.2679 85.331L87.5656 80.669L94.8634 85.331L102.164 80.669L109.462 85.331L116.759 80.669L124.057 85.331L131.355 80.669L138.653 85.331M138.653 85.331L145.953 80.669L153.251 85.331L160.549 80.669L167.846 85.331L175.144 80.669L182.445 85.331L189.742 80.669L197.043 85.331L204.343 80.669L211.644 85.331M138.653 85.331L131.356 80.669M138.653 85.331L145.949 80.669L153.247 85.331L160.545 80.669L167.84 85.331L175.138 80.669L182.436 85.331L189.734 80.669L197.031 85.331L204.329 80.669L211.624 85.331L218.922 80.669L226.22 85.331L233.52 80.669L240.818 85.331L248.116 80.669L255.414 85.331L262.711 80.669L270.009 85.331L277.31 80.669L284.607 85.331L291.905 80.669L299.203 85.331L306.501 80.669L313.801 85.331L321.099 80.669L328.399 85.331L335.7 80.669L343 85.331M0 38.6692L7.29519 43.3312L14.593 38.6692L21.8908 43.3312L29.1885 38.6692L36.4837 43.3312L43.7815 38.6692L51.0793 43.3312L58.3771 38.6692L65.6749 43.3312L72.9727 38.6692L80.2679 43.3312L87.5656 38.6692L94.8634 43.3312L102.164 38.6692L109.462 43.3312L116.759 38.6692L124.057 43.3312L131.355 38.6692L138.653 43.3312M138.653 43.3312L145.953 38.6692L153.251 43.3312L160.549 38.6692L167.846 43.3312L175.144 38.6692L182.445 43.3312L189.742 38.6692L197.043 43.3312L204.343 38.6692L211.644 43.3312M138.653 43.3312L131.356 38.6692M138.653 43.3312L145.949 38.6692L153.247 43.3312L160.545 38.6692L167.84 43.3312L175.138 38.6692L182.436 43.3312L189.734 38.6692L197.031 43.3312L204.329 38.6692L211.624 43.3312L218.922 38.6692L226.22 43.3312L233.52 38.6692L240.818 43.3312L248.116 38.6692L255.414 43.3312L262.711 38.6692L270.009 43.3312L277.31 38.6692L284.607 43.3312L291.905 38.6692L299.203 43.3312L306.501 38.6692L313.801 43.3312L321.099 38.6692L328.399 43.3312L335.7 38.6692L343 43.3312M0 118.007L7.29519 122.669L14.593 118.007L21.8908 122.669L29.1885 118.007L36.4837 122.669L43.7815 118.007L51.0793 122.669L58.3771 118.007L65.6749 122.669L72.9727 118.007L80.2679 122.669L87.5656 118.007L94.8634 122.669L102.164 118.007L109.462 122.669L116.759 118.007L124.057 122.669L131.355 118.007L138.653 122.669M138.653 122.669L145.953 118.007L153.251 122.669L160.549 118.007L167.846 122.669L175.144 118.007L182.445 122.669L189.742 118.007L197.043 122.669L204.343 118.007L211.644 122.669M138.653 122.669L131.356 118.007M138.653 122.669L145.949 118.007L153.247 122.669L160.545 118.007L167.84 122.669L175.138 118.007L182.436 122.669L189.734 118.007L197.031 122.669L204.329 118.007L211.624 122.669L218.922 118.007L226.22 122.669L233.52 118.007L240.818 122.669L248.116 118.007L255.414 122.669L262.711 118.007L270.009 122.669L277.31 118.007L284.607 122.669L291.905 118.007L299.203 122.669L306.501 118.007L313.801 122.669L321.099 118.007L328.399 122.669L335.7 118.007L343 122.669M0 136.676L7.29519 141.338L14.593 136.676L21.8908 141.338L29.1885 136.676L36.4837 141.338L43.7815 136.676L51.0793 141.338L58.3771 136.676L65.6749 141.338L72.9727 136.676L80.2679 141.338L87.5656 136.676L94.8634 141.338L102.164 136.676L109.462 141.338L116.759 136.676L124.057 141.338L131.355 136.676L138.653 141.338M138.653 141.338L145.953 136.676L153.251 141.338L160.549 136.676L167.846 141.338L175.144 136.676L182.445 141.338L189.742 136.676L197.043 141.338L204.343 136.676L211.644 141.338M138.653 141.338L131.356 136.676M138.653 141.338L145.949 136.676L153.247 141.338L160.545 136.676L167.84 141.338L175.138 136.676L182.436 141.338L189.734 136.676L197.031 141.338L204.329 136.676L211.624 141.338L218.922 136.676L226.22 141.338L233.52 136.676L240.818 141.338L248.116 136.676L255.414 141.338L262.711 136.676L270.009 141.338L277.31 136.676L284.607 141.338L291.905 136.676L299.203 141.338L306.501 136.676L313.801 141.338L321.099 136.676L328.399 141.338L335.7 136.676L343 141.338M0 -59.3379L7.29519 -54.6759L14.593 -59.3379L21.8908 -54.6759L29.1885 -59.3379L36.4837 -54.6759L43.7815 -59.3379L51.0793 -54.6759L58.3771 -59.3379L65.6749 -54.6759L72.9727 -59.3379L80.2679 -54.6759L87.5656 -59.3379L94.8634 -54.6759L102.164 -59.3379L109.462 -54.6759L116.759 -59.3379L124.057 -54.6759L131.355 -59.3379L138.653 -54.6759M138.653 -54.6759L145.953 -59.3379L153.251 -54.6759L160.549 -59.3379L167.846 -54.6759L175.144 -59.3379L182.445 -54.6759L189.742 -59.3379L197.043 -54.6759L204.343 -59.3379L211.644 -54.6759M138.653 -54.6759L131.356 -59.3379M138.653 -54.6759L145.949 -59.3379L153.247 -54.6759L160.545 -59.3379L167.84 -54.6759L175.138 -59.3379L182.436 -54.6759L189.734 -59.3379L197.031 -54.6759L204.329 -59.3379L211.624 -54.6759L218.922 -59.3379L226.22 -54.6759L233.52 -59.3379L240.818 -54.6759L248.116 -59.3379L255.414 -54.6759L262.711 -59.3379L270.009 -54.6759L277.31 -59.3379L284.607 -54.6759L291.905 -59.3379L299.203 -54.6759L306.501 -59.3379L313.801 -54.6759L321.099 -59.3379L328.399 -54.6759L335.7 -59.3379L343 -54.6759M0 -22L7.29519 -17.338L14.593 -22L21.8908 -17.338L29.1885 -22L36.4837 -17.338L43.7815 -22L51.0793 -17.338L58.3771 -22L65.6749 -17.338L72.9727 -22L80.2679 -17.338L87.5656 -22L94.8634 -17.338L102.164 -22L109.462 -17.338L116.759 -22L124.057 -17.338L131.355 -22L138.653 -17.338M138.653 -17.338L145.953 -22L153.251 -17.338L160.549 -22L167.846 -17.338L175.144 -22L182.445 -17.338L189.742 -22L197.043 -17.338L204.343 -22L211.644 -17.338M138.653 -17.338L131.356 -22M138.653 -17.338L145.949 -22L153.247 -17.338L160.545 -22L167.84 -17.338L175.138 -22L182.436 -17.338L189.734 -22L197.031 -17.338L204.329 -22L211.624 -17.338L218.922 -22L226.22 -17.338L233.52 -22L240.818 -17.338L248.116 -22L255.414 -17.338L262.711 -22L270.009 -17.338L277.31 -22L284.607 -17.338L291.905 -22L299.203 -17.338L306.501 -22L313.801 -17.338L321.099 -22L328.399 -17.338L335.7 -22L343 -17.338M0 57.3382L7.29519 62.0002L14.593 57.3382L21.8908 62.0002L29.1885 57.3382L36.4837 62.0002L43.7815 57.3382L51.0793 62.0002L58.3771 57.3382L65.6749 62.0002L72.9727 57.3382L80.2679 62.0002L87.5656 57.3382L94.8634 62.0002L102.164 57.3382L109.462 62.0002L116.759 57.3382L124.057 62.0002L131.355 57.3382L138.653 62.0002M138.653 62.0002L145.953 57.3382L153.251 62.0002L160.549 57.3382L167.846 62.0002L175.144 57.3382L182.445 62.0002L189.742 57.3382L197.043 62.0002L204.343 57.3382L211.644 62.0002M138.653 62.0002L131.356 57.3382M138.653 62.0002L145.949 57.3382L153.247 62.0002L160.545 57.3382L167.84 62.0002L175.138 57.3382L182.436 62.0002L189.734 57.3382L197.031 62.0002L204.329 57.3382L211.624 62.0002L218.922 57.3382L226.22 62.0002L233.52 57.3382L240.818 62.0002L248.116 57.3382L255.414 62.0002L262.711 57.3382L270.009 62.0002L277.31 57.3382L284.607 62.0002L291.905 57.3382L299.203 62.0002L306.501 57.3382L313.801 62.0002L321.099 57.3382L328.399 62.0002L335.7 57.3382L343 62.0002M0 15.3382L7.29519 20.0002L14.593 15.3382L21.8908 20.0002L29.1885 15.3382L36.4837 20.0002L43.7815 15.3382L51.0793 20.0002L58.3771 15.3382L65.6749 20.0002L72.9727 15.3382L80.2679 20.0002L87.5656 15.3382L94.8634 20.0002L102.164 15.3382L109.462 20.0002L116.759 15.3382L124.057 20.0002L131.355 15.3382L138.653 20.0002M138.653 20.0002L145.953 15.3382L153.251 20.0002L160.549 15.3382L167.846 20.0002L175.144 15.3382L182.445 20.0002L189.742 15.3382L197.043 20.0002L204.343 15.3382L211.644 20.0002M138.653 20.0002L131.356 15.3382M138.653 20.0002L145.949 15.3382L153.247 20.0002L160.545 15.3382L167.84 20.0002L175.138 15.3382L182.436 20.0002L189.734 15.3382L197.031 20.0002L204.329 15.3382L211.624 20.0002L218.922 15.3382L226.22 20.0002L233.52 15.3382L240.818 20.0002L248.116 15.3382L255.414 20.0002L262.711 15.3382L270.009 20.0002L277.31 15.3382L284.607 20.0002L291.905 15.3382L299.203 20.0002L306.501 15.3382L313.801 20.0002L321.099 15.3382L328.399 20.0002L335.7 15.3382L343 20.0002M0 94.676L7.29519 99.338L14.593 94.676L21.8908 99.338L29.1885 94.676L36.4837 99.338L43.7815 94.676L51.0793 99.338L58.3771 94.676L65.6749 99.338L72.9727 94.676L80.2679 99.338L87.5656 94.676L94.8634 99.338L102.164 94.676L109.462 99.338L116.759 94.676L124.057 99.338L131.355 94.676L138.653 99.338M138.653 99.338L145.953 94.676L153.251 99.338L160.549 94.676L167.846 99.338L175.144 94.676L182.445 99.338L189.742 94.676L197.043 99.338L204.343 94.676L211.644 99.338M138.653 99.338L131.356 94.676M138.653 99.338L145.949 94.676L153.247 99.338L160.545 94.676L167.84 99.338L175.138 94.676L182.436 99.338L189.734 94.676L197.031 99.338L204.329 94.676L211.624 99.338L218.922 94.676L226.22 99.338L233.52 94.676L240.818 99.338L248.116 94.676L255.414 99.338L262.711 94.676L270.009 99.338L277.31 94.676L284.607 99.338L291.905 94.676L299.203 99.338L306.501 94.676L313.801 99.338L321.099 94.676L328.399 99.338L335.7 94.676L343 99.338M0 -40.6689L7.29519 -36.0069L14.593 -40.6689L21.8908 -36.0069L29.1885 -40.6689L36.4837 -36.0069L43.7815 -40.6689L51.0793 -36.0069L58.3771 -40.6689L65.6749 -36.0069L72.9727 -40.6689L80.2679 -36.0069L87.5656 -40.6689L94.8634 -36.0069L102.164 -40.6689L109.462 -36.0069L116.759 -40.6689L124.057 -36.0069L131.355 -40.6689L138.653 -36.0069M138.653 -36.0069L145.953 -40.6689L153.251 -36.0069L160.549 -40.6689L167.846 -36.0069L175.144 -40.6689L182.445 -36.0069L189.742 -40.6689L197.043 -36.0069L204.343 -40.6689L211.644 -36.0069M138.653 -36.0069L131.356 -40.6689M138.653 -36.0069L145.949 -40.6689L153.247 -36.0069L160.545 -40.6689L167.84 -36.0069L175.138 -40.6689L182.436 -36.0069L189.734 -40.6689L197.031 -36.0069L204.329 -40.6689L211.624 -36.0069L218.922 -40.6689L226.22 -36.0069L233.52 -40.6689L240.818 -36.0069L248.116 -40.6689L255.414 -36.0069L262.711 -40.6689L270.009 -36.0069L277.31 -40.6689L284.607 -36.0069L291.905 -40.6689L299.203 -36.0069L306.501 -40.6689L313.801 -36.0069L321.099 -40.6689L328.399 -36.0069L335.7 -40.6689L343 -36.0069M0 -3.33084L7.29519 1.33116L14.593 -3.33084L21.8908 1.33116L29.1885 -3.33084L36.4837 1.33116L43.7815 -3.33084L51.0793 1.33116L58.3771 -3.33084L65.6749 1.33116L72.9727 -3.33084L80.2679 1.33116L87.5656 -3.33084L94.8634 1.33116L102.164 -3.33084L109.462 1.33116L116.759 -3.33084L124.057 1.33116L131.355 -3.33084L138.653 1.33116M138.653 1.33116L145.953 -3.33084L153.251 1.33116L160.549 -3.33084L167.846 1.33116L175.144 -3.33084L182.445 1.33116L189.742 -3.33084L197.043 1.33116L204.343 -3.33084L211.644 1.33116M138.653 1.33116L131.356 -3.33084M138.653 1.33116L145.949 -3.33084L153.247 1.33116L160.545 -3.33084L167.84 1.33116L175.138 -3.33084L182.436 1.33116L189.734 -3.33084L197.031 1.33116L204.329 -3.33084L211.624 1.33116L218.922 -3.33084L226.22 1.33116L233.52 -3.33084L240.818 1.33116L248.116 -3.33084L255.414 1.33116L262.711 -3.33084L270.009 1.33116L277.31 -3.33084L284.607 1.33116L291.905 -3.33084L299.203 1.33116L306.501 -3.33084L313.801 1.33116L321.099 -3.33084L328.399 1.33116L335.7 -3.33084L343 1.33116M0 76.007L7.29519 80.669L14.593 76.007L21.8908 80.669L29.1885 76.007L36.4837 80.669L43.7815 76.007L51.0793 80.669L58.3771 76.007L65.6749 80.669L72.9727 76.007L80.2679 80.669L87.5656 76.007L94.8634 80.669L102.164 76.007L109.462 80.669L116.759 76.007L124.057 80.669L131.355 76.007L138.653 80.669M138.653 80.669L145.953 76.007L153.251 80.669L160.549 76.007L167.846 80.669L175.144 76.007L182.445 80.669L189.742 76.007L197.043 80.669L204.343 76.007L211.644 80.669M138.653 80.669L131.356 76.007M138.653 80.669L145.949 76.007L153.247 80.669L160.545 76.007L167.84 80.669L175.138 76.007L182.436 80.669L189.734 76.007L197.031 80.669L204.329 76.007L211.624 80.669L218.922 76.007L226.22 80.669L233.52 76.007L240.818 80.669L248.116 76.007L255.414 80.669L262.711 76.007L270.009 80.669L277.31 76.007L284.607 80.669L291.905 76.007L299.203 80.669L306.501 76.007L313.801 80.669L321.099 76.007L328.399 80.669L335.7 76.007L343 80.669M0 34.007L7.29519 38.669L14.593 34.007L21.8908 38.669L29.1885 34.007L36.4837 38.669L43.7815 34.007L51.0793 38.669L58.3771 34.007L65.6749 38.669L72.9727 34.007L80.2679 38.669L87.5656 34.007L94.8634 38.669L102.164 34.007L109.462 38.669L116.759 34.007L124.057 38.669L131.355 34.007L138.653 38.669M138.653 38.669L145.953 34.007L153.251 38.669L160.549 34.007L167.846 38.669L175.144 34.007L182.445 38.669L189.742 34.007L197.043 38.669L204.343 34.007L211.644 38.669M138.653 38.669L131.356 34.007M138.653 38.669L145.949 34.007L153.247 38.669L160.545 34.007L167.84 38.669L175.138 34.007L182.436 38.669L189.734 34.007L197.031 38.669L204.329 34.007L211.624 38.669L218.922 34.007L226.22 38.669L233.52 34.007L240.818 38.669L248.116 34.007L255.414 38.669L262.711 34.007L270.009 38.669L277.31 34.007L284.607 38.669L291.905 34.007L299.203 38.669L306.501 34.007L313.801 38.669L321.099 34.007L328.399 38.669L335.7 34.007L343 38.669M0 113.324L7.29519 118.007L14.593 113.324L21.8908 118.007L29.1885 113.324L36.4837 118.007L43.7815 113.324L51.0793 118.007L58.3771 113.324L65.6749 118.007L72.9727 113.324L80.2679 118.007L87.5656 113.324L94.8634 118.007L102.164 113.324L109.462 118.007L116.759 113.324L124.057 118.007L131.355 113.324L138.653 118.007M138.653 118.007L145.953 113.324L153.251 118.007L160.549 113.324L167.846 118.007L175.144 113.324L182.445 118.007L189.742 113.324L197.043 118.007L204.343 113.324L211.644 118.007M138.653 118.007L131.356 113.324M138.653 118.007L145.949 113.324L153.247 118.007L160.545 113.324L167.84 118.007L175.138 113.324L182.436 118.007L189.734 113.324L197.031 118.007L204.329 113.324L211.624 118.007L218.922 113.324L226.22 118.007L233.52 113.324L240.818 118.007L248.116 113.324L255.414 118.007L262.711 113.324L270.009 118.007L277.31 113.324L284.607 118.007L291.905 113.324L299.203 118.007L306.501 113.324L313.801 118.007L321.099 113.324L328.399 118.007L335.7 113.324L343 118.007M0 131.993L7.29519 136.676L14.593 131.993L21.8908 136.676L29.1885 131.993L36.4837 136.676L43.7815 131.993L51.0793 136.676L58.3771 131.993L65.6749 136.676L72.9727 131.993L80.2679 136.676L87.5656 131.993L94.8634 136.676L102.164 131.993L109.462 136.676L116.759 131.993L124.057 136.676L131.355 131.993L138.653 136.676M138.653 136.676L145.953 131.993L153.251 136.676L160.549 131.993L167.846 136.676L175.144 131.993L182.445 136.676L189.742 131.993L197.043 136.676L204.343 131.993L211.644 136.676M138.653 136.676L131.356 131.993M138.653 136.676L145.949 131.993L153.247 136.676L160.545 131.993L167.84 136.676L175.138 131.993L182.436 136.676L189.734 131.993L197.031 136.676L204.329 131.993L211.624 136.676L218.922 131.993L226.22 136.676L233.52 131.993L240.818 136.676L248.116 131.993L255.414 136.676L262.711 131.993L270.009 136.676L277.31 131.993L284.607 136.676L291.905 131.993L299.203 136.676L306.501 131.993L313.801 136.676L321.099 131.993L328.399 136.676L335.7 131.993L343 136.676M0 -49.9929L7.29519 -45.3309L14.593 -49.9929L21.8908 -45.3309L29.1885 -49.9929L36.4837 -45.3309L43.7815 -49.9929L51.0793 -45.3309L58.3771 -49.9929L65.6749 -45.3309L72.9727 -49.9929L80.2679 -45.3309L87.5656 -49.9929L94.8634 -45.3309L102.164 -49.9929L109.462 -45.3309L116.759 -49.9929L124.057 -45.3309L131.355 -49.9929L138.653 -45.3309M138.653 -45.3309L145.953 -49.9929L153.251 -45.3309L160.549 -49.9929L167.846 -45.3309L175.144 -49.9929L182.445 -45.3309L189.742 -49.9929L197.043 -45.3309L204.343 -49.9929L211.644 -45.3309M138.653 -45.3309L131.356 -49.9929M138.653 -45.3309L145.949 -49.9929L153.247 -45.3309L160.545 -49.9929L167.84 -45.3309L175.138 -49.9929L182.436 -45.3309L189.734 -49.9929L197.031 -45.3309L204.329 -49.9929L211.624 -45.3309L218.922 -49.9929L226.22 -45.3309L233.52 -49.9929L240.818 -45.3309L248.116 -49.9929L255.414 -45.3309L262.711 -49.9929L270.009 -45.3309L277.31 -49.9929L284.607 -45.3309L291.905 -49.9929L299.203 -45.3309L306.501 -49.9929L313.801 -45.3309L321.099 -49.9929L328.399 -45.3309L335.7 -49.9929L343 -45.3309M0 -12.676L7.29519 -7.99299L14.593 -12.676L21.8908 -7.99299L29.1885 -12.676L36.4837 -7.99299L43.7815 -12.676L51.0793 -7.99299L58.3771 -12.676L65.6749 -7.99299L72.9727 -12.676L80.2679 -7.99299L87.5656 -12.676L94.8634 -7.99299L102.164 -12.676L109.462 -7.99299L116.759 -12.676L124.057 -7.99299L131.355 -12.676L138.653 -7.99299M138.653 -7.99299L145.953 -12.676L153.251 -7.99299L160.549 -12.676L167.846 -7.99299L175.144 -12.676L182.445 -7.99299L189.742 -12.676L197.043 -7.99299L204.343 -12.676L211.644 -7.99299M138.653 -7.99299L131.356 -12.676M138.653 -7.99299L145.949 -12.676L153.247 -7.99299L160.545 -12.676L167.84 -7.99299L175.138 -12.676L182.436 -7.99299L189.734 -12.676L197.031 -7.99299L204.329 -12.676L211.624 -7.99299L218.922 -12.676L226.22 -7.99299L233.52 -12.676L240.818 -7.99299L248.116 -12.676L255.414 -7.99299L262.711 -12.676L270.009 -7.99299L277.31 -12.676L284.607 -7.99299L291.905 -12.676L299.203 -7.99299L306.501 -12.676L313.801 -7.99299L321.099 -12.676L328.399 -7.99299L335.7 -12.676L343 -7.99299M0 66.662L7.29519 71.324L14.593 66.662L21.8908 71.324L29.1885 66.662L36.4837 71.324L43.7815 66.662L51.0793 71.324L58.3771 66.662L65.6749 71.324L72.9727 66.662L80.2679 71.324L87.5656 66.662L94.8634 71.324L102.164 66.662L109.462 71.324L116.759 66.662L124.057 71.324L131.355 66.662L138.653 71.324M138.653 71.324L145.953 66.662L153.251 71.324L160.549 66.662L167.846 71.324L175.144 66.662L182.445 71.324L189.742 66.662L197.043 71.324L204.343 66.662L211.644 71.324M138.653 71.324L131.356 66.662M138.653 71.324L145.949 66.662L153.247 71.324L160.545 66.662L167.84 71.324L175.138 66.662L182.436 71.324L189.734 66.662L197.031 71.324L204.329 66.662L211.624 71.324L218.922 66.662L226.22 71.324L233.52 66.662L240.818 71.324L248.116 66.662L255.414 71.324L262.711 66.662L270.009 71.324L277.31 66.662L284.607 71.324L291.905 66.662L299.203 71.324L306.501 66.662L313.801 71.324L321.099 66.662L328.399 71.324L335.7 66.662L343 71.324M0 24.6622L7.29519 29.3242L14.593 24.6622L21.8908 29.3242L29.1885 24.6622L36.4837 29.3242L43.7815 24.6622L51.0793 29.3242L58.3771 24.6622L65.6749 29.3242L72.9727 24.6622L80.2679 29.3242L87.5656 24.6622L94.8634 29.3242L102.164 24.6622L109.462 29.3242L116.759 24.6622L124.057 29.3242L131.355 24.6622L138.653 29.3242M138.653 29.3242L145.953 24.6622L153.251 29.3242L160.549 24.6622L167.846 29.3242L175.144 24.6622L182.445 29.3242L189.742 24.6622L197.043 29.3242L204.343 24.6622L211.644 29.3242M138.653 29.3242L131.356 24.6622M138.653 29.3242L145.949 24.6622L153.247 29.3242L160.545 24.6622L167.84 29.3242L175.138 24.6622L182.436 29.3242L189.734 24.6622L197.031 29.3242L204.329 24.6622L211.624 29.3242L218.922 24.6622L226.22 29.3242L233.52 24.6622L240.818 29.3242L248.116 24.6622L255.414 29.3242L262.711 24.6622L270.009 29.3242L277.31 24.6622L284.607 29.3242L291.905 24.6622L299.203 29.3242L306.501 24.6622L313.801 29.3242L321.099 24.6622L328.399 29.3242L335.7 24.6622L343 29.3242M0 104L7.29519 108.662L14.593 104L21.8908 108.662L29.1885 104L36.4837 108.662L43.7815 104L51.0793 108.662L58.3771 104L65.6749 108.662L72.9727 104L80.2679 108.662L87.5656 104L94.8634 108.662L102.164 104L109.462 108.662L116.759 104L124.057 108.662L131.355 104L138.653 108.662M138.653 108.662L145.953 104L153.251 108.662L160.549 104L167.846 108.662L175.144 104L182.445 108.662L189.742 104L197.043 108.662L204.343 104L211.644 108.662M138.653 108.662L131.356 104M138.653 108.662L145.949 104L153.247 108.662L160.545 104L167.84 108.662L175.138 104L182.436 108.662L189.734 104L197.031 108.662L204.329 104L211.624 108.662L218.922 104L226.22 108.662L233.52 104L240.818 108.662L248.116 104L255.414 108.662L262.711 104L270.009 108.662L277.31 104L284.607 108.662L291.905 104L299.203 108.662L306.501 104L313.801 108.662L321.099 104L328.399 108.662L335.7 104L343 108.662M0 -31.324L7.29519 -26.662L14.593 -31.324L21.8908 -26.662L29.1885 -31.324L36.4837 -26.662L43.7815 -31.324L51.0793 -26.662L58.3771 -31.324L65.6749 -26.662L72.9727 -31.324L80.2679 -26.662L87.5656 -31.324L94.8634 -26.662L102.164 -31.324L109.462 -26.662L116.759 -31.324L124.057 -26.662L131.355 -31.324L138.653 -26.662M138.653 -26.662L145.953 -31.324L153.251 -26.662L160.549 -31.324L167.846 -26.662L175.144 -31.324L182.445 -26.662L189.742 -31.324L197.043 -26.662L204.343 -31.324L211.644 -26.662M138.653 -26.662L131.356 -31.324M138.653 -26.662L145.949 -31.324L153.247 -26.662L160.545 -31.324L167.84 -26.662L175.138 -31.324L182.436 -26.662L189.734 -31.324L197.031 -26.662L204.329 -31.324L211.624 -26.662L218.922 -31.324L226.22 -26.662L233.52 -31.324L240.818 -26.662L248.116 -31.324L255.414 -26.662L262.711 -31.324L270.009 -26.662L277.31 -31.324L284.607 -26.662L291.905 -31.324L299.203 -26.662L306.501 -31.324L313.801 -26.662L321.099 -31.324L328.399 -26.662L335.7 -31.324L343 -26.662M0 47.993L7.29519 52.676L14.593 47.993L21.8908 52.676L29.1885 47.993L36.4837 52.676L43.7815 47.993L51.0793 52.676L58.3771 47.993L65.6749 52.676L72.9727 47.993L80.2679 52.676L87.5656 47.993L94.8634 52.676L102.164 47.993L109.462 52.676L116.759 47.993L124.057 52.676L131.355 47.993L138.653 52.676M138.653 52.676L145.953 47.993L153.251 52.676L160.549 47.993L167.846 52.676L175.144 47.993L182.445 52.676L189.742 47.993L197.043 52.676L204.343 47.993L211.644 52.676M138.653 52.676L131.356 47.993M138.653 52.676L145.949 47.993L153.247 52.676L160.545 47.993L167.84 52.676L175.138 47.993L182.436 52.676L189.734 47.993L197.031 52.676L204.329 47.993L211.624 52.676L218.922 47.993L226.22 52.676L233.52 47.993L240.818 52.676L248.116 47.993L255.414 52.676L262.711 47.993L270.009 52.676L277.31 47.993L284.607 52.676L291.905 47.993L299.203 52.676L306.501 47.993L313.801 52.676L321.099 47.993L328.399 52.676L335.7 47.993L343 52.676M0 5.99316L7.29519 10.6762L14.593 5.99316L21.8908 10.6762L29.1885 5.99316L36.4837 10.6762L43.7815 5.99316L51.0793 10.6762L58.3771 5.99316L65.6749 10.6762L72.9727 5.99316L80.2679 10.6762L87.5656 5.99316L94.8634 10.6762L102.164 5.99316L109.462 10.6762L116.759 5.99316L124.057 10.6762L131.355 5.99316L138.653 10.6762M138.653 10.6762L145.953 5.99316L153.251 10.6762L160.549 5.99316L167.846 10.6762L175.144 5.99316L182.445 10.6762L189.742 5.99316L197.043 10.6762L204.343 5.99316L211.644 10.6762M138.653 10.6762L131.356 5.99316M138.653 10.6762L145.949 5.99316L153.247 10.6762L160.545 5.99316L167.84 10.6762L175.138 5.99316L182.436 10.6762L189.734 5.99316L197.031 10.6762L204.329 5.99316L211.624 10.6762L218.922 5.99316L226.22 10.6762L233.52 5.99316L240.818 10.6762L248.116 5.99316L255.414 10.6762L262.711 5.99316L270.009 10.6762L277.31 5.99316L284.607 10.6762L291.905 5.99316L299.203 10.6762L306.501 5.99316L313.801 10.6762L321.099 5.99316L328.399 10.6762L335.7 5.99316L343 10.6762M0 85.331L7.29519 89.993L14.593 85.331L21.8908 89.993L29.1885 85.331L36.4837 89.993L43.7815 85.331L51.0793 89.993L58.3771 85.331L65.6749 89.993L72.9727 85.331L80.2679 89.993L87.5656 85.331L94.8634 89.993L102.164 85.331L109.462 89.993L116.759 85.331L124.057 89.993L131.355 85.331L138.653 89.993M138.653 89.993L145.953 85.331L153.251 89.993L160.549 85.331L167.846 89.993L175.144 85.331L182.445 89.993L189.742 85.331L197.043 89.993L204.343 85.331L211.644 89.993M138.653 89.993L131.356 85.331M138.653 89.993L145.949 85.331L153.247 89.993L160.545 85.331L167.84 89.993L175.138 85.331L182.436 89.993L189.734 85.331L197.031 89.993L204.329 85.331L211.624 89.993L218.922 85.331L226.22 89.993L233.52 85.331L240.818 89.993L248.116 85.331L255.414 89.993L262.711 85.331L270.009 89.993L277.31 85.331L284.607 89.993L291.905 85.331L299.203 89.993L306.501 85.331L313.801 89.993L321.099 85.331L328.399 89.993L335.7 85.331L343 89.993M0 43.331L7.29519 47.993L14.593 43.331L21.8908 47.993L29.1885 43.331L36.4837 47.993L43.7815 43.331L51.0793 47.993L58.3771 43.331L65.6749 47.993L72.9727 43.331L80.2679 47.993L87.5656 43.331L94.8634 47.993L102.164 43.331L109.462 47.993L116.759 43.331L124.057 47.993L131.355 43.331L138.653 47.993M138.653 47.993L145.953 43.331L153.251 47.993L160.549 43.331L167.846 47.993L175.144 43.331L182.445 47.993L189.742 43.331L197.043 47.993L204.343 43.331L211.644 47.993M138.653 47.993L131.356 43.331M138.653 47.993L145.949 43.331L153.247 47.993L160.545 43.331L167.84 47.993L175.138 43.331L182.436 47.993L189.734 43.331L197.031 47.993L204.329 43.331L211.624 47.993L218.922 43.331L226.22 47.993L233.52 43.331L240.818 47.993L248.116 43.331L255.414 47.993L262.711 43.331L270.009 47.993L277.31 43.331L284.607 47.993L291.905 43.331L299.203 47.993L306.501 43.331L313.801 47.993L321.099 43.331L328.399 47.993L335.7 43.331L343 47.993M0 122.669L7.29519 127.331L14.593 122.669L21.8908 127.331L29.1885 122.669L36.4837 127.331L43.7815 122.669L51.0793 127.331L58.3771 122.669L65.6749 127.331L72.9727 122.669L80.2679 127.331L87.5656 122.669L94.8634 127.331L102.164 122.669L109.462 127.331L116.759 122.669L124.057 127.331L131.355 122.669L138.653 127.331M138.653 127.331L145.953 122.669L153.251 127.331L160.549 122.669L167.846 127.331L175.144 122.669L182.445 127.331L189.742 122.669L197.043 127.331L204.343 122.669L211.644 127.331M138.653 127.331L131.356 122.669M138.653 127.331L145.949 122.669L153.247 127.331L160.545 122.669L167.84 127.331L175.138 122.669L182.436 127.331L189.734 122.669L197.031 127.331L204.329 122.669L211.624 127.331L218.922 122.669L226.22 127.331L233.52 122.669L240.818 127.331L248.116 122.669L255.414 127.331L262.711 122.669L270.009 127.331L277.31 122.669L284.607 127.331L291.905 122.669L299.203 127.331L306.501 122.669L313.801 127.331L321.099 122.669L328.399 127.331L335.7 122.669L343 127.331M0 141.338L7.29519 146L14.593 141.338L21.8908 146L29.1885 141.338L36.4837 146L43.7815 141.338L51.0793 146L58.3771 141.338L65.6749 146L72.9727 141.338L80.2679 146L87.5656 141.338L94.8634 146L102.164 141.338L109.462 146L116.759 141.338L124.057 146L131.355 141.338L138.653 146M138.653 146L145.953 141.338L153.251 146L160.549 141.338L167.846 146L175.144 141.338L182.445 146L189.742 141.338L197.043 146L204.343 141.338L211.644 146M138.653 146L131.356 141.338M138.653 146L145.949 141.338L153.247 146L160.545 141.338L167.84 146L175.138 141.338L182.436 146L189.734 141.338L197.031 146L204.329 141.338L211.624 146L218.922 141.338L226.22 146L233.52 141.338L240.818 146L248.116 141.338L255.414 146L262.711 141.338L270.009 146L277.31 141.338L284.607 146L291.905 141.338L299.203 146L306.501 141.338L313.801 146L321.099 141.338L328.399 146L335.7 141.338L343 146" stroke="#181C25" stroke-width="0.597907" stroke-miterlimit="10" stroke-linecap="round"/>
</svg>
