<svg width="681" height="212" viewBox="0 0 681 212" fill="none" xmlns="http://www.w3.org/2000/svg">
<path d="M475.352 5.662L468.054 1L460.756 5.662L453.458 1L446.161 5.662L438.863 1L431.563 5.662L424.265 1L416.967 5.662L409.672 1L402.374 5.662L395.076 1L387.778 5.662L380.481 1L373.183 5.662L365.888 1L358.59 5.662L351.292 1L343.994 5.662L336.699 1L329.399 5.66203L322.099 1.00003L314.801 5.66203L307.501 1.00003L300.203 5.66203L292.905 1.00003L285.607 5.66203L278.31 1.00003L271.009 5.66203L263.711 1.00003L256.414 5.66203L249.116 1.00003L241.818 5.66203L234.52 1.00003L227.22 5.66203L219.922 1.00003L212.624 5.66203L205.329 1.00003L198.031 5.66203L190.734 1.00003L183.436 5.66203L176.138 1.00003L168.84 5.66203L161.545 1.00003L154.247 5.66203L146.949 1.00003L139.653 5.66203M475.352 5.662L482.652 1L489.95 5.662L497.248 1L504.546 5.662L511.843 1L519.144 5.662L526.442 1L533.742 5.662L541.042 1L548.343 5.662M475.352 5.662L468.056 1M475.352 5.662L482.648 1L489.946 5.662L497.244 1L504.539 5.662L511.837 1L519.135 5.662L526.433 1L533.73 5.662L541.028 1L548.323 5.662L555.621 1L562.919 5.662L570.219 1L577.517 5.662L584.815 1L592.113 5.662L599.411 1L606.708 5.662L614.009 1L621.307 5.662L628.604 1L635.902 5.662L643.2 1L650.5 5.662L657.798 1L665.098 5.662L672.399 1L679.699 5.662M475.352 43L468.054 38.338L460.756 43L453.458 38.338L446.161 43L438.863 38.338L431.563 43L424.265 38.338L416.967 43L409.672 38.338L402.374 43L395.076 38.338L387.778 43L380.481 38.338L373.183 43L365.888 38.338L358.59 43L351.292 38.338L343.994 43L336.699 38.338L329.399 43L322.099 38.338L314.801 43L307.501 38.338L300.203 43L292.905 38.338L285.607 43L278.31 38.338L271.009 43L263.711 38.338L256.414 43L249.116 38.338L241.818 43L234.52 38.338L227.22 43L219.922 38.338L212.624 43L205.329 38.338L198.031 43L190.734 38.338L183.436 43L176.138 38.338L168.84 43L161.545 38.338L154.247 43L146.949 38.338L139.653 43M475.352 43L482.652 38.338L489.95 43L497.248 38.338L504.546 43L511.843 38.338L519.144 43L526.442 38.338L533.742 43L541.042 38.338L548.343 43M475.352 43L468.056 38.338M475.352 43L482.648 38.338L489.946 43L497.244 38.338L504.539 43L511.837 38.338L519.135 43L526.433 38.338L533.73 43L541.028 38.338L548.323 43L555.621 38.338L562.919 43L570.219 38.338L577.517 43L584.815 38.338L592.113 43L599.411 38.338L606.708 43L614.009 38.338L621.307 43L628.604 38.338L635.902 43L643.2 38.338L650.5 43L657.798 38.338L665.098 43L672.399 38.338L679.699 43M475.352 122.338L468.054 117.676L460.756 122.338L453.458 117.676L446.161 122.338L438.863 117.676L431.563 122.338L424.265 117.676L416.967 122.338L409.672 117.676L402.374 122.338L395.076 117.676L387.778 122.338L380.481 117.676L373.183 122.338L365.888 117.676L358.59 122.338L351.292 117.676L343.994 122.338L336.699 117.676L329.399 122.338L322.099 117.676L314.801 122.338L307.501 117.676L300.203 122.338L292.905 117.676L285.607 122.338L278.31 117.676L271.009 122.338L263.711 117.676L256.414 122.338L249.116 117.676L241.818 122.338L234.52 117.676L227.22 122.338L219.922 117.676L212.624 122.338L205.329 117.676L198.031 122.338L190.734 117.676L183.436 122.338L176.138 117.676L168.84 122.338L161.545 117.676L154.247 122.338L146.949 117.676L139.653 122.338M475.352 122.338L482.652 117.676L489.95 122.338L497.248 117.676L504.546 122.338L511.843 117.676L519.144 122.338L526.442 117.676L533.742 122.338L541.042 117.676L548.343 122.338M475.352 122.338L468.056 117.676M475.352 122.338L482.648 117.676L489.946 122.338L497.244 117.676L504.539 122.338L511.837 117.676L519.135 122.338L526.433 117.676L533.73 122.338L541.028 117.676L548.323 122.338L555.621 117.676L562.919 122.338L570.219 117.676L577.517 122.338L584.815 117.676L592.113 122.338L599.411 117.676L606.708 122.338L614.009 117.676L621.307 122.338L628.604 117.676L635.902 122.338L643.2 117.676L650.5 122.338L657.798 117.676L665.098 122.338L672.399 117.676L679.699 122.338M475.352 80.3382L468.054 75.6762L460.756 80.3382L453.458 75.6762L446.161 80.3382L438.863 75.6762L431.563 80.3382L424.265 75.6762L416.967 80.3382L409.672 75.6762L402.374 80.3382L395.076 75.6762L387.778 80.3382L380.481 75.6762L373.183 80.3382L365.888 75.6762L358.59 80.3382L351.292 75.6762L343.994 80.3382L336.699 75.6762L329.399 80.3382L322.099 75.6762L314.801 80.3382L307.501 75.6762L300.203 80.3382L292.905 75.6762L285.607 80.3382L278.31 75.6762L271.009 80.3382L263.711 75.6762L256.414 80.3382L249.116 75.6762L241.818 80.3382L234.52 75.6762L227.22 80.3382L219.922 75.6762L212.624 80.3382L205.329 75.6762L198.031 80.3382L190.734 75.6762L183.436 80.3382L176.138 75.6762L168.84 80.3382L161.545 75.6762L154.247 80.3382L146.949 75.6762L139.653 80.3382M475.352 80.3382L482.652 75.6762L489.95 80.3382L497.248 75.6762L504.546 80.3382L511.843 75.6762L519.144 80.3382L526.442 75.6762L533.742 80.3382L541.042 75.6762L548.343 80.3382M475.352 80.3382L468.056 75.6762M475.352 80.3382L482.648 75.6762L489.946 80.3382L497.244 75.6762L504.539 80.3382L511.837 75.6762L519.135 80.3382L526.433 75.6762L533.73 80.3382L541.028 75.6762L548.323 80.3382L555.621 75.6762L562.919 80.3382L570.219 75.6762L577.517 80.3382L584.815 75.6762L592.113 80.3382L599.411 75.6762L606.708 80.3382L614.009 75.6762L621.307 80.3382L628.604 75.6762L635.902 80.3382L643.2 75.6762L650.5 80.3382L657.798 75.6762L665.098 80.3382L672.399 75.6762L679.699 80.3382M475.352 159.676L468.054 154.993L460.756 159.676L453.458 154.993L446.161 159.676L438.863 154.993L431.563 159.676L424.265 154.993L416.967 159.676L409.672 154.993L402.374 159.676L395.076 154.993L387.778 159.676L380.481 154.993L373.183 159.676L365.888 154.993L358.59 159.676L351.292 154.993L343.994 159.676L336.699 154.993L329.399 159.676L322.099 154.993L314.801 159.676L307.501 154.993L300.203 159.676L292.905 154.993L285.607 159.676L278.31 154.993L271.009 159.676L263.711 154.993L256.414 159.676L249.116 154.993L241.818 159.676L234.52 154.993L227.22 159.676L219.922 154.993L212.624 159.676L205.329 154.993L198.031 159.676L190.734 154.993L183.436 159.676L176.138 154.993L168.84 159.676L161.545 154.993L154.247 159.676L146.949 154.993L139.653 159.676M475.352 159.676L482.652 154.993L489.95 159.676L497.248 154.993L504.546 159.676L511.843 154.993L519.144 159.676L526.442 154.993L533.742 159.676L541.042 154.993L548.343 159.676M475.352 159.676L468.056 154.993M475.352 159.676L482.648 154.993L489.946 159.676L497.244 154.993L504.539 159.676L511.837 154.993L519.135 159.676L526.433 154.993L533.73 159.676L541.028 154.993L548.323 159.676L555.621 154.993L562.919 159.676L570.219 154.993L577.517 159.676L584.815 154.993L592.113 159.676L599.411 154.993L606.708 159.676L614.009 154.993L621.307 159.676L628.604 154.993L635.902 159.676L643.2 154.993L650.5 159.676L657.798 154.993L665.098 159.676L672.399 154.993L679.699 159.676M475.352 24.3311L468.054 19.6691L460.756 24.3311L453.458 19.6691L446.161 24.3311L438.863 19.6691L431.563 24.3311L424.265 19.6691L416.967 24.3311L409.672 19.6691L402.374 24.3311L395.076 19.6691L387.778 24.3311L380.481 19.6691L373.183 24.3311L365.888 19.6691L358.59 24.3311L351.292 19.6691L343.994 24.3311L336.699 19.6691L329.399 24.3311L322.099 19.6691L314.801 24.3311L307.501 19.6691L300.203 24.3311L292.905 19.6691L285.607 24.3311L278.31 19.6691L271.009 24.3311L263.711 19.6691L256.414 24.3311L249.116 19.6691L241.818 24.3311L234.52 19.6691L227.22 24.3311L219.922 19.6691L212.624 24.3311L205.329 19.6691L198.031 24.3311L190.734 19.6691L183.436 24.3311L176.138 19.6691L168.84 24.3311L161.545 19.6691L154.247 24.3311L146.949 19.6691L139.653 24.3311M475.352 24.3311L482.652 19.6691L489.95 24.3311L497.248 19.6691L504.546 24.3311L511.843 19.6691L519.144 24.3311L526.442 19.6691L533.742 24.3311L541.042 19.6691L548.343 24.3311M475.352 24.3311L468.056 19.6691M475.352 24.3311L482.648 19.6691L489.946 24.3311L497.244 19.6691L504.539 24.3311L511.837 19.6691L519.135 24.3311L526.433 19.6691L533.73 24.3311L541.028 19.6691L548.323 24.3311L555.621 19.6691L562.919 24.3311L570.219 19.6691L577.517 24.3311L584.815 19.6691L592.113 24.3311L599.411 19.6691L606.708 24.3311L614.009 19.6691L621.307 24.3311L628.604 19.6691L635.902 24.3311L643.2 19.6691L650.5 24.3311L657.798 19.6691L665.098 24.3311L672.399 19.6691L679.699 24.3311M475.352 61.6692L468.054 57.0072L460.756 61.6692L453.458 57.0072L446.161 61.6692L438.863 57.0072L431.563 61.6692L424.265 57.0072L416.967 61.6692L409.672 57.0072L402.374 61.6692L395.076 57.0072L387.778 61.6692L380.481 57.0072L373.183 61.6692L365.888 57.0072L358.59 61.6692L351.292 57.0072L343.994 61.6692L336.699 57.0072L329.399 61.6692L322.099 57.0072L314.801 61.6692L307.501 57.0072L300.203 61.6692L292.905 57.0072L285.607 61.6692L278.31 57.0072L271.009 61.6692L263.711 57.0072L256.414 61.6692L249.116 57.0072L241.818 61.6692L234.52 57.0072L227.22 61.6692L219.922 57.0072L212.624 61.6692L205.329 57.0072L198.031 61.6692L190.734 57.0072L183.436 61.6692L176.138 57.0072L168.84 61.6692L161.545 57.0072L154.247 61.6692L146.949 57.0072L139.653 61.6692M475.352 61.6692L482.652 57.0072L489.95 61.6692L497.248 57.0072L504.546 61.6692L511.843 57.0072L519.144 61.6692L526.442 57.0072L533.742 61.6692L541.042 57.0072L548.343 61.6692M475.352 61.6692L468.056 57.0072M475.352 61.6692L482.648 57.0072L489.946 61.6692L497.244 57.0072L504.539 61.6692L511.837 57.0072L519.135 61.6692L526.433 57.0072L533.73 61.6692L541.028 57.0072L548.323 61.6692L555.621 57.0072L562.919 61.6692L570.219 57.0072L577.517 61.6692L584.815 57.0072L592.113 61.6692L599.411 57.0072L606.708 61.6692L614.009 57.0072L621.307 61.6692L628.604 57.0072L635.902 61.6692L643.2 57.0072L650.5 61.6692L657.798 57.0072L665.098 61.6692L672.399 57.0072L679.699 61.6692M475.352 141.007L468.054 136.324L460.756 141.007L453.458 136.324L446.161 141.007L438.863 136.324L431.563 141.007L424.265 136.324L416.967 141.007L409.672 136.324L402.374 141.007L395.076 136.324L387.778 141.007L380.481 136.324L373.183 141.007L365.888 136.324L358.59 141.007L351.292 136.324L343.994 141.007L336.699 136.324L329.399 141.007L322.099 136.324L314.801 141.007L307.501 136.324L300.203 141.007L292.905 136.324L285.607 141.007L278.31 136.324L271.009 141.007L263.711 136.324L256.414 141.007L249.116 136.324L241.818 141.007L234.52 136.324L227.22 141.007L219.922 136.324L212.624 141.007L205.329 136.324L198.031 141.007L190.734 136.324L183.436 141.007L176.138 136.324L168.84 141.007L161.545 136.324L154.247 141.007L146.949 136.324L139.653 141.007M475.352 141.007L482.652 136.324L489.95 141.007L497.248 136.324L504.546 141.007L511.843 136.324L519.144 141.007L526.442 136.324L533.742 141.007L541.042 136.324L548.343 141.007M475.352 141.007L468.056 136.324M475.352 141.007L482.648 136.324L489.946 141.007L497.244 136.324L504.539 141.007L511.837 136.324L519.135 141.007L526.433 136.324L533.73 141.007L541.028 136.324L548.323 141.007L555.621 136.324L562.919 141.007L570.219 136.324L577.517 141.007L584.815 136.324L592.113 141.007L599.411 136.324L606.708 141.007L614.009 136.324L621.307 141.007L628.604 136.324L635.902 141.007L643.2 136.324L650.5 141.007L657.798 136.324L665.098 141.007L672.399 136.324L679.699 141.007M475.352 99.0072L468.054 94.3242L460.756 99.0072L453.458 94.3242L446.161 99.0072L438.863 94.3242L431.563 99.0072L424.265 94.3242L416.967 99.0072L409.672 94.3242L402.374 99.0072L395.076 94.3242L387.778 99.0072L380.481 94.3242L373.183 99.0072L365.888 94.3242L358.59 99.0072L351.292 94.3242L343.994 99.0072L336.699 94.3242L329.399 99.0072L322.099 94.3242L314.801 99.0072L307.501 94.3242L300.203 99.0072L292.905 94.3242L285.607 99.0072L278.31 94.3242L271.009 99.0072L263.711 94.3242L256.414 99.0072L249.116 94.3242L241.818 99.0072L234.52 94.3242L227.22 99.0072L219.922 94.3242L212.624 99.0072L205.329 94.3242L198.031 99.0072L190.734 94.3242L183.436 99.0072L176.138 94.3242L168.84 99.0072L161.545 94.3242L154.247 99.0072L146.949 94.3242L139.653 99.0072M475.352 99.0072L482.652 94.3242L489.95 99.0072L497.248 94.3242L504.546 99.0072L511.843 94.3242L519.144 99.0072L526.442 94.3242L533.742 99.0072L541.042 94.3242L548.343 99.0072M475.352 99.0072L468.056 94.3242M475.352 99.0072L482.648 94.3242L489.946 99.0072L497.244 94.3242L504.539 99.0072L511.837 94.3242L519.135 99.0072L526.433 94.3242L533.73 99.0072L541.028 94.3242L548.323 99.0072L555.621 94.3242L562.919 99.0072L570.219 94.3242L577.517 99.0072L584.815 94.3242L592.113 99.0072L599.411 94.3242L606.708 99.0072L614.009 94.3242L621.307 99.0072L628.604 94.3242L635.902 99.0072L643.2 94.3242L650.5 99.0072L657.798 94.3242L665.098 99.0072L672.399 94.3242L679.699 99.0072M475.352 178.324L468.054 173.662L460.756 178.324L453.458 173.662L446.161 178.324L438.863 173.662L431.563 178.324L424.265 173.662L416.967 178.324L409.672 173.662L402.374 178.324L395.076 173.662L387.778 178.324L380.481 173.662L373.183 178.324L365.888 173.662L358.59 178.324L351.292 173.662L343.994 178.324L336.699 173.662L329.399 178.324L322.099 173.662L314.801 178.324L307.501 173.662L300.203 178.324L292.905 173.662L285.607 178.324L278.31 173.662L271.009 178.324L263.711 173.662L256.414 178.324L249.116 173.662L241.818 178.324L234.52 173.662L227.22 178.324L219.922 173.662L212.624 178.324L205.329 173.662L198.031 178.324L190.734 173.662L183.436 178.324L176.138 173.662L168.84 178.324L161.545 173.662L154.247 178.324L146.949 173.662L139.653 178.324M475.352 178.324L482.652 173.662L489.95 178.324L497.248 173.662L504.546 178.324L511.843 173.662L519.144 178.324L526.442 173.662L533.742 178.324L541.042 173.662L548.343 178.324M475.352 178.324L468.056 173.662M475.352 178.324L482.648 173.662L489.946 178.324L497.244 173.662L504.539 178.324L511.837 173.662L519.135 178.324L526.433 173.662L533.73 178.324L541.028 173.662L548.323 178.324L555.621 173.662L562.919 178.324L570.219 173.662L577.517 178.324L584.815 173.662L592.113 178.324L599.411 173.662L606.708 178.324L614.009 173.662L621.307 178.324L628.604 173.662L635.902 178.324L643.2 173.662L650.5 178.324L657.798 173.662L665.098 178.324L672.399 173.662L679.699 178.324M475.352 196.993L468.054 192.331L460.756 196.993L453.458 192.331L446.161 196.993L438.863 192.331L431.563 196.993L424.265 192.331L416.967 196.993L409.672 192.331L402.374 196.993L395.076 192.331L387.778 196.993L380.481 192.331L373.183 196.993L365.888 192.331L358.59 196.993L351.292 192.331L343.994 196.993L336.699 192.331L329.399 196.993L322.099 192.331L314.801 196.993L307.501 192.331L300.203 196.993L292.905 192.331L285.607 196.993L278.31 192.331L271.009 196.993L263.711 192.331L256.414 196.993L249.116 192.331L241.818 196.993L234.52 192.331L227.22 196.993L219.922 192.331L212.624 196.993L205.329 192.331L198.031 196.993L190.734 192.331L183.436 196.993L176.138 192.331L168.84 196.993L161.545 192.331L154.247 196.993L146.949 192.331L139.653 196.993M475.352 196.993L482.652 192.331L489.95 196.993L497.248 192.331L504.546 196.993L511.843 192.331L519.144 196.993L526.442 192.331L533.742 196.993L541.042 192.331L548.343 196.993M475.352 196.993L468.056 192.331M475.352 196.993L482.648 192.331L489.946 196.993L497.244 192.331L504.539 196.993L511.837 192.331L519.135 196.993L526.433 192.331L533.73 196.993L541.028 192.331L548.323 196.993L555.621 192.331L562.919 196.993L570.219 192.331L577.517 196.993L584.815 192.331L592.113 196.993L599.411 192.331L606.708 196.993L614.009 192.331L621.307 196.993L628.604 192.331L635.902 196.993L643.2 192.331L650.5 196.993L657.798 192.331L665.098 196.993L672.399 192.331L679.699 196.993M475.352 15.0071L468.054 10.3241L460.756 15.0071L453.458 10.3241L446.161 15.0071L438.863 10.3241L431.563 15.0071L424.265 10.3241L416.967 15.0071L409.672 10.3241L402.374 15.0071L395.076 10.3241L387.778 15.0071L380.481 10.3241L373.183 15.0071L365.888 10.3241L358.59 15.0071L351.292 10.3241L343.994 15.0071L336.699 10.3241L329.399 15.0071L322.099 10.3241L314.801 15.0071L307.501 10.3241L300.203 15.0071L292.905 10.3241L285.607 15.0071L278.31 10.3241L271.009 15.0071L263.711 10.3241L256.414 15.0071L249.116 10.3241L241.818 15.0071L234.52 10.3241L227.22 15.0071L219.922 10.3241L212.624 15.0071L205.329 10.3241L198.031 15.0071L190.734 10.3241L183.436 15.0071L176.138 10.3241L168.84 15.0071L161.545 10.3241L154.247 15.0071L146.949 10.3241L139.653 15.0071M475.352 15.0071L482.652 10.3241L489.95 15.0071L497.248 10.3241L504.546 15.0071L511.843 10.3241L519.144 15.0071L526.442 10.3241L533.742 15.0071L541.042 10.3241L548.343 15.0071M475.352 15.0071L468.056 10.3241M475.352 15.0071L482.648 10.3241L489.946 15.0071L497.244 10.3241L504.539 15.0071L511.837 10.3241L519.135 15.0071L526.433 10.3241L533.73 15.0071L541.028 10.3241L548.323 15.0071L555.621 10.3241L562.919 15.0071L570.219 10.3241L577.517 15.0071L584.815 10.3241L592.113 15.0071L599.411 10.3241L606.708 15.0071L614.009 10.3241L621.307 15.0071L628.604 10.3241L635.902 15.0071L643.2 10.3241L650.5 15.0071L657.798 10.3241L665.098 15.0071L672.399 10.3241L679.699 15.0071M475.352 52.324L468.054 47.662L460.756 52.324L453.458 47.662L446.161 52.324L438.863 47.662L431.563 52.324L424.265 47.662L416.967 52.324L409.672 47.662L402.374 52.324L395.076 47.662L387.778 52.324L380.481 47.662L373.183 52.324L365.888 47.662L358.59 52.324L351.292 47.662L343.994 52.324L336.699 47.662L329.399 52.324L322.099 47.662L314.801 52.324L307.501 47.662L300.203 52.324L292.905 47.662L285.607 52.324L278.31 47.662L271.009 52.324L263.711 47.662L256.414 52.324L249.116 47.662L241.818 52.324L234.52 47.662L227.22 52.324L219.922 47.662L212.624 52.324L205.329 47.662L198.031 52.324L190.734 47.662L183.436 52.324L176.138 47.662L168.84 52.324L161.545 47.662L154.247 52.324L146.949 47.662L139.653 52.324M475.352 52.324L482.652 47.662L489.95 52.324L497.248 47.662L504.546 52.324L511.843 47.662L519.144 52.324L526.442 47.662L533.742 52.324L541.042 47.662L548.343 52.324M475.352 52.324L468.056 47.662M475.352 52.324L482.648 47.662L489.946 52.324L497.244 47.662L504.539 52.324L511.837 47.662L519.135 52.324L526.433 47.662L533.73 52.324L541.028 47.662L548.323 52.324L555.621 47.662L562.919 52.324L570.219 47.662L577.517 52.324L584.815 47.662L592.113 52.324L599.411 47.662L606.708 52.324L614.009 47.662L621.307 52.324L628.604 47.662L635.902 52.324L643.2 47.662L650.5 52.324L657.798 47.662L665.098 52.324L672.399 47.662L679.699 52.324M475.352 131.662L468.054 127L460.756 131.662L453.458 127L446.161 131.662L438.863 127L431.563 131.662L424.265 127L416.967 131.662L409.672 127L402.374 131.662L395.076 127L387.778 131.662L380.481 127L373.183 131.662L365.888 127L358.59 131.662L351.292 127L343.994 131.662L336.699 127L329.399 131.662L322.099 127L314.801 131.662L307.501 127L300.203 131.662L292.905 127L285.607 131.662L278.31 127L271.009 131.662L263.711 127L256.414 131.662L249.116 127L241.818 131.662L234.52 127L227.22 131.662L219.922 127L212.624 131.662L205.329 127L198.031 131.662L190.734 127L183.436 131.662L176.138 127L168.84 131.662L161.545 127L154.247 131.662L146.949 127L139.653 131.662M475.352 131.662L482.652 127L489.95 131.662L497.248 127L504.546 131.662L511.843 127L519.144 131.662L526.442 127L533.742 131.662L541.042 127L548.343 131.662M475.352 131.662L468.056 127M475.352 131.662L482.648 127L489.946 131.662L497.244 127L504.539 131.662L511.837 127L519.135 131.662L526.433 127L533.73 131.662L541.028 127L548.323 131.662L555.621 127L562.919 131.662L570.219 127L577.517 131.662L584.815 127L592.113 131.662L599.411 127L606.708 131.662L614.009 127L621.307 131.662L628.604 127L635.902 131.662L643.2 127L650.5 131.662L657.798 127L665.098 131.662L672.399 127L679.699 131.662M475.352 89.6622L468.054 85.0002L460.756 89.6622L453.458 85.0002L446.161 89.6622L438.863 85.0002L431.563 89.6622L424.265 85.0002L416.967 89.6622L409.672 85.0002L402.374 89.6622L395.076 85.0002L387.778 89.6622L380.481 85.0002L373.183 89.6622L365.888 85.0002L358.59 89.6622L351.292 85.0002L343.994 89.6622L336.699 85.0002L329.399 89.6622L322.099 85.0002L314.801 89.6622L307.501 85.0002L300.203 89.6622L292.905 85.0002L285.607 89.6622L278.31 85.0002L271.009 89.6622L263.711 85.0002L256.414 89.6622L249.116 85.0002L241.818 89.6622L234.52 85.0002L227.22 89.6622L219.922 85.0002L212.624 89.6622L205.329 85.0002L198.031 89.6622L190.734 85.0002L183.436 89.6622L176.138 85.0002L168.84 89.6622L161.545 85.0002L154.247 89.6622L146.949 85.0002L139.653 89.6622M475.352 89.6622L482.652 85.0002L489.95 89.6622L497.248 85.0002L504.546 89.6622L511.843 85.0002L519.144 89.6622L526.442 85.0002L533.742 89.6622L541.042 85.0002L548.343 89.6622M475.352 89.6622L468.056 85.0002M475.352 89.6622L482.648 85.0002L489.946 89.6622L497.244 85.0002L504.539 89.6622L511.837 85.0002L519.135 89.6622L526.433 85.0002L533.73 89.6622L541.028 85.0002L548.323 89.6622L555.621 85.0002L562.919 89.6622L570.219 85.0002L577.517 89.6622L584.815 85.0002L592.113 89.6622L599.411 85.0002L606.708 89.6622L614.009 85.0002L621.307 89.6622L628.604 85.0002L635.902 89.6622L643.2 85.0002L650.5 89.6622L657.798 85.0002L665.098 89.6622L672.399 85.0002L679.699 89.6622M475.352 169L468.054 164.338L460.756 169L453.458 164.338L446.161 169L438.863 164.338L431.563 169L424.265 164.338L416.967 169L409.672 164.338L402.374 169L395.076 164.338L387.778 169L380.481 164.338L373.183 169L365.888 164.338L358.59 169L351.292 164.338L343.994 169L336.699 164.338L329.399 169L322.099 164.338L314.801 169L307.501 164.338L300.203 169L292.905 164.338L285.607 169L278.31 164.338L271.009 169L263.711 164.338L256.414 169L249.116 164.338L241.818 169L234.52 164.338L227.22 169L219.922 164.338L212.624 169L205.329 164.338L198.031 169L190.734 164.338L183.436 169L176.138 164.338L168.84 169L161.545 164.338L154.247 169L146.949 164.338L139.653 169M475.352 169L482.652 164.338L489.95 169L497.248 164.338L504.546 169L511.843 164.338L519.144 169L526.442 164.338L533.742 169L541.042 164.338L548.343 169M475.352 169L468.056 164.338M475.352 169L482.648 164.338L489.946 169L497.244 164.338L504.539 169L511.837 164.338L519.135 169L526.433 164.338L533.73 169L541.028 164.338L548.323 169L555.621 164.338L562.919 169L570.219 164.338L577.517 169L584.815 164.338L592.113 169L599.411 164.338L606.708 169L614.009 164.338L621.307 169L628.604 164.338L635.902 169L643.2 164.338L650.5 169L657.798 164.338L665.098 169L672.399 164.338L679.699 169M475.352 33.6761L468.054 28.9931L460.756 33.6761L453.458 28.9931L446.161 33.6761L438.863 28.9931L431.563 33.6761L424.265 28.9931L416.967 33.6761L409.672 28.9931L402.374 33.6761L395.076 28.9931L387.778 33.6761L380.481 28.9931L373.183 33.6761L365.888 28.9931L358.59 33.6761L351.292 28.9931L343.994 33.6761L336.699 28.9931L329.399 33.6761L322.099 28.9931L314.801 33.6761L307.501 28.9931L300.203 33.6761L292.905 28.9931L285.607 33.6761L278.31 28.9931L271.009 33.6761L263.711 28.9931L256.414 33.6761L249.116 28.9931L241.818 33.6761L234.52 28.9931L227.22 33.6761L219.922 28.9931L212.624 33.6761L205.329 28.9931L198.031 33.6761L190.734 28.9931L183.436 33.6761L176.138 28.9931L168.84 33.6761L161.545 28.9931L154.247 33.6761L146.949 28.9931L139.653 33.6761M475.352 33.6761L482.652 28.9931L489.95 33.6761L497.248 28.9931L504.546 33.6761L511.843 28.9931L519.144 33.6761L526.442 28.9931L533.742 33.6761L541.042 28.9931L548.343 33.6761M475.352 33.6761L468.056 28.9931M475.352 33.6761L482.648 28.9931L489.946 33.6761L497.244 28.9931L504.539 33.6761L511.837 28.9931L519.135 33.6761L526.433 28.9931L533.73 33.6761L541.028 28.9931L548.323 33.6761L555.621 28.9931L562.919 33.6761L570.219 28.9931L577.517 33.6761L584.815 28.9931L592.113 33.6761L599.411 28.9931L606.708 33.6761L614.009 28.9931L621.307 33.6761L628.604 28.9931L635.902 33.6761L643.2 28.9931L650.5 33.6761L657.798 28.9931L665.098 33.6761L672.399 28.9931L679.699 33.6761M475.352 70.9932L468.054 66.3312L460.756 70.9932L453.458 66.3312L446.161 70.9932L438.863 66.3312L431.563 70.9932L424.265 66.3312L416.967 70.9932L409.672 66.3312L402.374 70.9932L395.076 66.3312L387.778 70.9932L380.481 66.3312L373.183 70.9932L365.888 66.3312L358.59 70.9932L351.292 66.3312L343.994 70.9932L336.699 66.3312L329.399 70.9932L322.099 66.3312L314.801 70.9932L307.501 66.3312L300.203 70.9932L292.905 66.3312L285.607 70.9932L278.31 66.3312L271.009 70.9932L263.711 66.3312L256.414 70.9932L249.116 66.3312L241.818 70.9932L234.52 66.3312L227.22 70.9932L219.922 66.3312L212.624 70.9932L205.329 66.3312L198.031 70.9932L190.734 66.3312L183.436 70.9932L176.138 66.3312L168.84 70.9932L161.545 66.3312L154.247 70.9932L146.949 66.3312L139.653 70.9932M475.352 70.9932L482.652 66.3312L489.95 70.9932L497.248 66.3312L504.546 70.9932L511.843 66.3312L519.144 70.9932L526.442 66.3312L533.742 70.9932L541.042 66.3312L548.343 70.9932M475.352 70.9932L468.056 66.3312M475.352 70.9932L482.648 66.3312L489.946 70.9932L497.244 66.3312L504.539 70.9932L511.837 66.3312L519.135 70.9932L526.433 66.3312L533.73 70.9932L541.028 66.3312L548.323 70.9932L555.621 66.3312L562.919 70.9932L570.219 66.3312L577.517 70.9932L584.815 66.3312L592.113 70.9932L599.411 66.3312L606.708 70.9932L614.009 66.3312L621.307 70.9932L628.604 66.3312L635.902 70.9932L643.2 66.3312L650.5 70.9932L657.798 66.3312L665.098 70.9932L672.399 66.3312L679.699 70.9932M475.352 150.331L468.054 145.669L460.756 150.331L453.458 145.669L446.161 150.331L438.863 145.669L431.563 150.331L424.265 145.669L416.967 150.331L409.672 145.669L402.374 150.331L395.076 145.669L387.778 150.331L380.481 145.669L373.183 150.331L365.888 145.669L358.59 150.331L351.292 145.669L343.994 150.331L336.699 145.669L329.399 150.331L322.099 145.669L314.801 150.331L307.501 145.669L300.203 150.331L292.905 145.669L285.607 150.331L278.31 145.669L271.009 150.331L263.711 145.669L256.414 150.331L249.116 145.669L241.818 150.331L234.52 145.669L227.22 150.331L219.922 145.669L212.624 150.331L205.329 145.669L198.031 150.331L190.734 145.669L183.436 150.331L176.138 145.669L168.84 150.331L161.545 145.669L154.247 150.331L146.949 145.669L139.653 150.331M475.352 150.331L482.652 145.669L489.95 150.331L497.248 145.669L504.546 150.331L511.843 145.669L519.144 150.331L526.442 145.669L533.742 150.331L541.042 145.669L548.343 150.331M475.352 150.331L468.056 145.669M475.352 150.331L482.648 145.669L489.946 150.331L497.244 145.669L504.539 150.331L511.837 145.669L519.135 150.331L526.433 145.669L533.73 150.331L541.028 145.669L548.323 150.331L555.621 145.669L562.919 150.331L570.219 145.669L577.517 150.331L584.815 145.669L592.113 150.331L599.411 145.669L606.708 150.331L614.009 145.669L621.307 150.331L628.604 145.669L635.902 150.331L643.2 145.669L650.5 150.331L657.798 145.669L665.098 150.331L672.399 145.669L679.699 150.331M475.352 108.331L468.054 103.669L460.756 108.331L453.458 103.669L446.161 108.331L438.863 103.669L431.563 108.331L424.265 103.669L416.967 108.331L409.672 103.669L402.374 108.331L395.076 103.669L387.778 108.331L380.481 103.669L373.183 108.331L365.888 103.669L358.59 108.331L351.292 103.669L343.994 108.331L336.699 103.669L329.399 108.331L322.099 103.669L314.801 108.331L307.501 103.669L300.203 108.331L292.905 103.669L285.607 108.331L278.31 103.669L271.009 108.331L263.711 103.669L256.414 108.331L249.116 103.669L241.818 108.331L234.52 103.669L227.22 108.331L219.922 103.669L212.624 108.331L205.329 103.669L198.031 108.331L190.734 103.669L183.436 108.331L176.138 103.669L168.84 108.331L161.545 103.669L154.247 108.331L146.949 103.669L139.653 108.331M475.352 108.331L482.652 103.669L489.95 108.331L497.248 103.669L504.546 108.331L511.843 103.669L519.144 108.331L526.442 103.669L533.742 108.331L541.042 103.669L548.343 108.331M475.352 108.331L468.056 103.669M475.352 108.331L482.648 103.669L489.946 108.331L497.244 103.669L504.539 108.331L511.837 103.669L519.135 108.331L526.433 103.669L533.73 108.331L541.028 103.669L548.323 108.331L555.621 103.669L562.919 108.331L570.219 103.669L577.517 108.331L584.815 103.669L592.113 108.331L599.411 103.669L606.708 108.331L614.009 103.669L621.307 108.331L628.604 103.669L635.902 108.331L643.2 103.669L650.5 108.331L657.798 103.669L665.098 108.331L672.399 103.669L679.699 108.331M475.352 187.669L468.054 183.007L460.756 187.669L453.458 183.007L446.161 187.669L438.863 183.007L431.563 187.669L424.265 183.007L416.967 187.669L409.672 183.007L402.374 187.669L395.076 183.007L387.778 187.669L380.481 183.007L373.183 187.669L365.888 183.007L358.59 187.669L351.292 183.007L343.994 187.669L336.699 183.007L329.399 187.669L322.099 183.007L314.801 187.669L307.501 183.007L300.203 187.669L292.905 183.007L285.607 187.669L278.31 183.007L271.009 187.669L263.711 183.007L256.414 187.669L249.116 183.007L241.818 187.669L234.52 183.007L227.22 187.669L219.922 183.007L212.624 187.669L205.329 183.007L198.031 187.669L190.734 183.007L183.436 187.669L176.138 183.007L168.84 187.669L161.545 183.007L154.247 187.669L146.949 183.007L139.653 187.669M475.352 187.669L482.652 183.007L489.95 187.669L497.248 183.007L504.546 187.669L511.843 183.007L519.144 187.669L526.442 183.007L533.742 187.669L541.042 183.007L548.343 187.669M475.352 187.669L468.056 183.007M475.352 187.669L482.648 183.007L489.946 187.669L497.244 183.007L504.539 187.669L511.837 183.007L519.135 187.669L526.433 183.007L533.73 187.669L541.028 183.007L548.323 187.669L555.621 183.007L562.919 187.669L570.219 183.007L577.517 187.669L584.815 183.007L592.113 187.669L599.411 183.007L606.708 187.669L614.009 183.007L621.307 187.669L628.604 183.007L635.902 187.669L643.2 183.007L650.5 187.669L657.798 183.007L665.098 187.669L672.399 183.007L679.699 187.669M475.352 206.338L468.054 201.676L460.756 206.338L453.458 201.676L446.161 206.338L438.863 201.676L431.563 206.338L424.265 201.676L416.967 206.338L409.672 201.676L402.374 206.338L395.076 201.676L387.778 206.338L380.481 201.676L373.183 206.338L365.888 201.676L358.59 206.338L351.292 201.676L343.994 206.338L336.699 201.676L329.399 206.338L322.099 201.676L314.801 206.338L307.501 201.676L300.203 206.338L292.905 201.676L285.607 206.338L278.31 201.676L271.009 206.338L263.711 201.676L256.414 206.338L249.116 201.676L241.818 206.338L234.52 201.676L227.22 206.338L219.922 201.676L212.624 206.338L205.329 201.676L198.031 206.338L190.734 201.676L183.436 206.338L176.138 201.676L168.84 206.338L161.545 201.676L154.247 206.338L146.949 201.676L139.653 206.338M475.352 206.338L482.652 201.676L489.95 206.338L497.248 201.676L504.546 206.338L511.843 201.676L519.144 206.338L526.442 201.676L533.742 206.338L541.042 201.676L548.343 206.338M475.352 206.338L468.056 201.676M475.352 206.338L482.648 201.676L489.946 206.338L497.244 201.676L504.539 206.338L511.837 201.676L519.135 206.338L526.433 201.676L533.73 206.338L541.028 201.676L548.323 206.338L555.621 201.676L562.919 206.338L570.219 201.676L577.517 206.338L584.815 201.676L592.113 206.338L599.411 201.676L606.708 206.338L614.009 201.676L621.307 206.338L628.604 201.676L635.902 206.338L643.2 201.676L650.5 206.338L657.798 201.676L665.098 206.338L672.399 201.676L679.699 206.338M475.352 10.3241L468.054 5.66208L460.756 10.3241L453.458 5.66208L446.161 10.3241L438.863 5.66208L431.563 10.3241L424.265 5.66208L416.967 10.3241L409.672 5.66208L402.374 10.3241L395.076 5.66208L387.778 10.3241L380.481 5.66208L373.183 10.3241L365.888 5.66208L358.59 10.3241L351.292 5.66208L343.994 10.3241L336.699 5.66208L329.399 10.3241L322.099 5.66211L314.801 10.3241L307.501 5.66211L300.203 10.3241L292.905 5.66211L285.607 10.3241L278.31 5.66211L271.009 10.3241L263.711 5.66211L256.414 10.3241L249.116 5.66211L241.818 10.3241L234.52 5.66211L227.22 10.3241L219.922 5.66211L212.624 10.3241L205.329 5.66211L198.031 10.3241L190.734 5.66211L183.436 10.3241L176.138 5.66211L168.84 10.3241L161.545 5.66211L154.247 10.3241L146.949 5.66211L139.653 10.3241M475.352 10.3241L482.652 5.66208L489.95 10.3241L497.248 5.66208L504.546 10.3241L511.843 5.66208L519.144 10.3241L526.442 5.66208L533.742 10.3241L541.042 5.66208L548.343 10.3241M475.352 10.3241L468.056 5.66208M475.352 10.3241L482.648 5.66208L489.946 10.3241L497.244 5.66208L504.539 10.3241L511.837 5.66208L519.135 10.3241L526.433 5.66208L533.73 10.3241L541.028 5.66208L548.323 10.3241L555.621 5.66208L562.919 10.3241L570.219 5.66208L577.517 10.3241L584.815 5.66208L592.113 10.3241L599.411 5.66208L606.708 10.3241L614.009 5.66208L621.307 10.3241L628.604 5.66208L635.902 10.3241L643.2 5.66208L650.5 10.3241L657.798 5.66208L665.098 10.3241L672.399 5.66208L679.699 10.3241M475.352 47.662L468.054 43L460.756 47.662L453.458 43L446.161 47.662L438.863 43L431.563 47.662L424.265 43L416.967 47.662L409.672 43L402.374 47.662L395.076 43L387.778 47.662L380.481 43L373.183 47.662L365.888 43L358.59 47.662L351.292 43L343.994 47.662L336.699 43L329.399 47.662L322.099 43L314.801 47.662L307.501 43L300.203 47.662L292.905 43L285.607 47.662L278.31 43L271.009 47.662L263.711 43L256.414 47.662L249.116 43L241.818 47.662L234.52 43L227.22 47.662L219.922 43L212.624 47.662L205.329 43L198.031 47.662L190.734 43L183.436 47.662L176.138 43L168.84 47.662L161.545 43L154.247 47.662L146.949 43L139.653 47.662M475.352 47.662L482.652 43L489.95 47.662L497.248 43L504.546 47.662L511.843 43L519.144 47.662L526.442 43L533.742 47.662L541.042 43L548.343 47.662M475.352 47.662L468.056 43M475.352 47.662L482.648 43L489.946 47.662L497.244 43L504.539 47.662L511.837 43L519.135 47.662L526.433 43L533.73 47.662L541.028 43L548.323 47.662L555.621 43L562.919 47.662L570.219 43L577.517 47.662L584.815 43L592.113 47.662L599.411 43L606.708 47.662L614.009 43L621.307 47.662L628.604 43L635.902 47.662L643.2 43L650.5 47.662L657.798 43L665.098 47.662L672.399 43L679.699 47.662M475.352 127L468.054 122.338L460.756 127L453.458 122.338L446.161 127L438.863 122.338L431.563 127L424.265 122.338L416.967 127L409.672 122.338L402.374 127L395.076 122.338L387.778 127L380.481 122.338L373.183 127L365.888 122.338L358.59 127L351.292 122.338L343.994 127L336.699 122.338L329.399 127L322.099 122.338L314.801 127L307.501 122.338L300.203 127L292.905 122.338L285.607 127L278.31 122.338L271.009 127L263.711 122.338L256.414 127L249.116 122.338L241.818 127L234.52 122.338L227.22 127L219.922 122.338L212.624 127L205.329 122.338L198.031 127L190.734 122.338L183.436 127L176.138 122.338L168.84 127L161.545 122.338L154.247 127L146.949 122.338L139.653 127M475.352 127L482.652 122.338L489.95 127L497.248 122.338L504.546 127L511.843 122.338L519.144 127L526.442 122.338L533.742 127L541.042 122.338L548.343 127M475.352 127L468.056 122.338M475.352 127L482.648 122.338L489.946 127L497.244 122.338L504.539 127L511.837 122.338L519.135 127L526.433 122.338L533.73 127L541.028 122.338L548.323 127L555.621 122.338L562.919 127L570.219 122.338L577.517 127L584.815 122.338L592.113 127L599.411 122.338L606.708 127L614.009 122.338L621.307 127L628.604 122.338L635.902 127L643.2 122.338L650.5 127L657.798 122.338L665.098 127L672.399 122.338L679.699 127M475.352 85.0002L468.054 80.3382L460.756 85.0002L453.458 80.3382L446.161 85.0002L438.863 80.3382L431.563 85.0002L424.265 80.3382L416.967 85.0002L409.672 80.3382L402.374 85.0002L395.076 80.3382L387.778 85.0002L380.481 80.3382L373.183 85.0002L365.888 80.3382L358.59 85.0002L351.292 80.3382L343.994 85.0002L336.699 80.3382L329.399 85.0002L322.099 80.3382L314.801 85.0002L307.501 80.3382L300.203 85.0002L292.905 80.3382L285.607 85.0002L278.31 80.3382L271.009 85.0002L263.711 80.3382L256.414 85.0002L249.116 80.3382L241.818 85.0002L234.52 80.3382L227.22 85.0002L219.922 80.3382L212.624 85.0002L205.329 80.3382L198.031 85.0002L190.734 80.3382L183.436 85.0002L176.138 80.3382L168.84 85.0002L161.545 80.3382L154.247 85.0002L146.949 80.3382L139.653 85.0002M475.352 85.0002L482.652 80.3382L489.95 85.0002L497.248 80.3382L504.546 85.0002L511.843 80.3382L519.144 85.0002L526.442 80.3382L533.742 85.0002L541.042 80.3382L548.343 85.0002M475.352 85.0002L468.056 80.3382M475.352 85.0002L482.648 80.3382L489.946 85.0002L497.244 80.3382L504.539 85.0002L511.837 80.3382L519.135 85.0002L526.433 80.3382L533.73 85.0002L541.028 80.3382L548.323 85.0002L555.621 80.3382L562.919 85.0002L570.219 80.3382L577.517 85.0002L584.815 80.3382L592.113 85.0002L599.411 80.3382L606.708 85.0002L614.009 80.3382L621.307 85.0002L628.604 80.3382L635.902 85.0002L643.2 80.3382L650.5 85.0002L657.798 80.3382L665.098 85.0002L672.399 80.3382L679.699 85.0002M475.352 164.338L468.054 159.676L460.756 164.338L453.458 159.676L446.161 164.338L438.863 159.676L431.563 164.338L424.265 159.676L416.967 164.338L409.672 159.676L402.374 164.338L395.076 159.676L387.778 164.338L380.481 159.676L373.183 164.338L365.888 159.676L358.59 164.338L351.292 159.676L343.994 164.338L336.699 159.676L329.399 164.338L322.099 159.676L314.801 164.338L307.501 159.676L300.203 164.338L292.905 159.676L285.607 164.338L278.31 159.676L271.009 164.338L263.711 159.676L256.414 164.338L249.116 159.676L241.818 164.338L234.52 159.676L227.22 164.338L219.922 159.676L212.624 164.338L205.329 159.676L198.031 164.338L190.734 159.676L183.436 164.338L176.138 159.676L168.84 164.338L161.545 159.676L154.247 164.338L146.949 159.676L139.653 164.338M475.352 164.338L482.652 159.676L489.95 164.338L497.248 159.676L504.546 164.338L511.843 159.676L519.144 164.338L526.442 159.676L533.742 164.338L541.042 159.676L548.343 164.338M475.352 164.338L468.056 159.676M475.352 164.338L482.648 159.676L489.946 164.338L497.244 159.676L504.539 164.338L511.837 159.676L519.135 164.338L526.433 159.676L533.73 164.338L541.028 159.676L548.323 164.338L555.621 159.676L562.919 164.338L570.219 159.676L577.517 164.338L584.815 159.676L592.113 164.338L599.411 159.676L606.708 164.338L614.009 159.676L621.307 164.338L628.604 159.676L635.902 164.338L643.2 159.676L650.5 164.338L657.798 159.676L665.098 164.338L672.399 159.676L679.699 164.338M475.352 28.9931L468.054 24.3311L460.756 28.9931L453.458 24.3311L446.161 28.9931L438.863 24.3311L431.563 28.9931L424.265 24.3311L416.967 28.9931L409.672 24.3311L402.374 28.9931L395.076 24.3311L387.778 28.9931L380.481 24.3311L373.183 28.9931L365.888 24.3311L358.59 28.9931L351.292 24.3311L343.994 28.9931L336.699 24.3311L329.399 28.9931L322.099 24.3311L314.801 28.9931L307.501 24.3311L300.203 28.9931L292.905 24.3311L285.607 28.9931L278.31 24.3311L271.009 28.9931L263.711 24.3311L256.414 28.9931L249.116 24.3311L241.818 28.9931L234.52 24.3311L227.22 28.9931L219.922 24.3311L212.624 28.9931L205.329 24.3311L198.031 28.9931L190.734 24.3311L183.436 28.9931L176.138 24.3311L168.84 28.9931L161.545 24.3311L154.247 28.9931L146.949 24.3311L139.653 28.9931M475.352 28.9931L482.652 24.3311L489.95 28.9931L497.248 24.3311L504.546 28.9931L511.843 24.3311L519.144 28.9931L526.442 24.3311L533.742 28.9931L541.042 24.3311L548.343 28.9931M475.352 28.9931L468.056 24.3311M475.352 28.9931L482.648 24.3311L489.946 28.9931L497.244 24.3311L504.539 28.9931L511.837 24.3311L519.135 28.9931L526.433 24.3311L533.73 28.9931L541.028 24.3311L548.323 28.9931L555.621 24.3311L562.919 28.9931L570.219 24.3311L577.517 28.9931L584.815 24.3311L592.113 28.9931L599.411 24.3311L606.708 28.9931L614.009 24.3311L621.307 28.9931L628.604 24.3311L635.902 28.9931L643.2 24.3311L650.5 28.9931L657.798 24.3311L665.098 28.9931L672.399 24.3311L679.699 28.9931M475.352 66.3312L468.054 61.6692L460.756 66.3312L453.458 61.6692L446.161 66.3312L438.863 61.6692L431.563 66.3312L424.265 61.6692L416.967 66.3312L409.672 61.6692L402.374 66.3312L395.076 61.6692L387.778 66.3312L380.481 61.6692L373.183 66.3312L365.888 61.6692L358.59 66.3312L351.292 61.6692L343.994 66.3312L336.699 61.6692L329.399 66.3312L322.099 61.6692L314.801 66.3312L307.501 61.6692L300.203 66.3312L292.905 61.6692L285.607 66.3312L278.31 61.6692L271.009 66.3312L263.711 61.6692L256.414 66.3312L249.116 61.6692L241.818 66.3312L234.52 61.6692L227.22 66.3312L219.922 61.6692L212.624 66.3312L205.329 61.6692L198.031 66.3312L190.734 61.6692L183.436 66.3312L176.138 61.6692L168.84 66.3312L161.545 61.6692L154.247 66.3312L146.949 61.6692L139.653 66.3312M475.352 66.3312L482.652 61.6692L489.95 66.3312L497.248 61.6692L504.546 66.3312L511.843 61.6692L519.144 66.3312L526.442 61.6692L533.742 66.3312L541.042 61.6692L548.343 66.3312M475.352 66.3312L468.056 61.6692M475.352 66.3312L482.648 61.6692L489.946 66.3312L497.244 61.6692L504.539 66.3312L511.837 61.6692L519.135 66.3312L526.433 61.6692L533.73 66.3312L541.028 61.6692L548.323 66.3312L555.621 61.6692L562.919 66.3312L570.219 61.6692L577.517 66.3312L584.815 61.6692L592.113 66.3312L599.411 61.6692L606.708 66.3312L614.009 61.6692L621.307 66.3312L628.604 61.6692L635.902 66.3312L643.2 61.6692L650.5 66.3312L657.798 61.6692L665.098 66.3312L672.399 61.6692L679.699 66.3312M475.352 145.669L468.054 141.007L460.756 145.669L453.458 141.007L446.161 145.669L438.863 141.007L431.563 145.669L424.265 141.007L416.967 145.669L409.672 141.007L402.374 145.669L395.076 141.007L387.778 145.669L380.481 141.007L373.183 145.669L365.888 141.007L358.59 145.669L351.292 141.007L343.994 145.669L336.699 141.007L329.399 145.669L322.099 141.007L314.801 145.669L307.501 141.007L300.203 145.669L292.905 141.007L285.607 145.669L278.31 141.007L271.009 145.669L263.711 141.007L256.414 145.669L249.116 141.007L241.818 145.669L234.52 141.007L227.22 145.669L219.922 141.007L212.624 145.669L205.329 141.007L198.031 145.669L190.734 141.007L183.436 145.669L176.138 141.007L168.84 145.669L161.545 141.007L154.247 145.669L146.949 141.007L139.653 145.669M475.352 145.669L482.652 141.007L489.95 145.669L497.248 141.007L504.546 145.669L511.843 141.007L519.144 145.669L526.442 141.007L533.742 145.669L541.042 141.007L548.343 145.669M475.352 145.669L468.056 141.007M475.352 145.669L482.648 141.007L489.946 145.669L497.244 141.007L504.539 145.669L511.837 141.007L519.135 145.669L526.433 141.007L533.73 145.669L541.028 141.007L548.323 145.669L555.621 141.007L562.919 145.669L570.219 141.007L577.517 145.669L584.815 141.007L592.113 145.669L599.411 141.007L606.708 145.669L614.009 141.007L621.307 145.669L628.604 141.007L635.902 145.669L643.2 141.007L650.5 145.669L657.798 141.007L665.098 145.669L672.399 141.007L679.699 145.669M475.352 103.669L468.054 99.007L460.756 103.669L453.458 99.007L446.161 103.669L438.863 99.007L431.563 103.669L424.265 99.007L416.967 103.669L409.672 99.007L402.374 103.669L395.076 99.007L387.778 103.669L380.481 99.007L373.183 103.669L365.888 99.007L358.59 103.669L351.292 99.007L343.994 103.669L336.699 99.007L329.399 103.669L322.099 99.007L314.801 103.669L307.501 99.007L300.203 103.669L292.905 99.007L285.607 103.669L278.31 99.007L271.009 103.669L263.711 99.007L256.414 103.669L249.116 99.007L241.818 103.669L234.52 99.007L227.22 103.669L219.922 99.007L212.624 103.669L205.329 99.007L198.031 103.669L190.734 99.007L183.436 103.669L176.138 99.007L168.84 103.669L161.545 99.007L154.247 103.669L146.949 99.007L139.653 103.669M475.352 103.669L482.652 99.007L489.95 103.669L497.248 99.007L504.546 103.669L511.843 99.007L519.144 103.669L526.442 99.007L533.742 103.669L541.042 99.007L548.343 103.669M475.352 103.669L468.056 99.007M475.352 103.669L482.648 99.007L489.946 103.669L497.244 99.007L504.539 103.669L511.837 99.007L519.135 103.669L526.433 99.007L533.73 103.669L541.028 99.007L548.323 103.669L555.621 99.007L562.919 103.669L570.219 99.007L577.517 103.669L584.815 99.007L592.113 103.669L599.411 99.007L606.708 103.669L614.009 99.007L621.307 103.669L628.604 99.007L635.902 103.669L643.2 99.007L650.5 103.669L657.798 99.007L665.098 103.669L672.399 99.007L679.699 103.669M475.352 183.007L468.054 178.324L460.756 183.007L453.458 178.324L446.161 183.007L438.863 178.324L431.563 183.007L424.265 178.324L416.967 183.007L409.672 178.324L402.374 183.007L395.076 178.324L387.778 183.007L380.481 178.324L373.183 183.007L365.888 178.324L358.59 183.007L351.292 178.324L343.994 183.007L336.699 178.324L329.399 183.007L322.099 178.324L314.801 183.007L307.501 178.324L300.203 183.007L292.905 178.324L285.607 183.007L278.31 178.324L271.009 183.007L263.711 178.324L256.414 183.007L249.116 178.324L241.818 183.007L234.52 178.324L227.22 183.007L219.922 178.324L212.624 183.007L205.329 178.324L198.031 183.007L190.734 178.324L183.436 183.007L176.138 178.324L168.84 183.007L161.545 178.324L154.247 183.007L146.949 178.324L139.653 183.007M475.352 183.007L482.652 178.324L489.95 183.007L497.248 178.324L504.546 183.007L511.843 178.324L519.144 183.007L526.442 178.324L533.742 183.007L541.042 178.324L548.343 183.007M475.352 183.007L468.056 178.324M475.352 183.007L482.648 178.324L489.946 183.007L497.244 178.324L504.539 183.007L511.837 178.324L519.135 183.007L526.433 178.324L533.73 183.007L541.028 178.324L548.323 183.007L555.621 178.324L562.919 183.007L570.219 178.324L577.517 183.007L584.815 178.324L592.113 183.007L599.411 178.324L606.708 183.007L614.009 178.324L621.307 183.007L628.604 178.324L635.902 183.007L643.2 178.324L650.5 183.007L657.798 178.324L665.098 183.007L672.399 178.324L679.699 183.007M475.352 201.676L468.054 196.993L460.756 201.676L453.458 196.993L446.161 201.676L438.863 196.993L431.563 201.676L424.265 196.993L416.967 201.676L409.672 196.993L402.374 201.676L395.076 196.993L387.778 201.676L380.481 196.993L373.183 201.676L365.888 196.993L358.59 201.676L351.292 196.993L343.994 201.676L336.699 196.993L329.399 201.676L322.099 196.993L314.801 201.676L307.501 196.993L300.203 201.676L292.905 196.993L285.607 201.676L278.31 196.993L271.009 201.676L263.711 196.993L256.414 201.676L249.116 196.993L241.818 201.676L234.52 196.993L227.22 201.676L219.922 196.993L212.624 201.676L205.329 196.993L198.031 201.676L190.734 196.993L183.436 201.676L176.138 196.993L168.84 201.676L161.545 196.993L154.247 201.676L146.949 196.993L139.653 201.676M475.352 201.676L482.652 196.993L489.95 201.676L497.248 196.993L504.546 201.676L511.843 196.993L519.144 201.676L526.442 196.993L533.742 201.676L541.042 196.993L548.343 201.676M475.352 201.676L468.056 196.993M475.352 201.676L482.648 196.993L489.946 201.676L497.244 196.993L504.539 201.676L511.837 196.993L519.135 201.676L526.433 196.993L533.73 201.676L541.028 196.993L548.323 201.676L555.621 196.993L562.919 201.676L570.219 196.993L577.517 201.676L584.815 196.993L592.113 201.676L599.411 196.993L606.708 201.676L614.009 196.993L621.307 201.676L628.604 196.993L635.902 201.676L643.2 196.993L650.5 201.676L657.798 196.993L665.098 201.676L672.399 196.993L679.699 201.676M475.352 19.6691L468.054 15.0071L460.756 19.6691L453.458 15.0071L446.161 19.6691L438.863 15.0071L431.563 19.6691L424.265 15.0071L416.967 19.6691L409.672 15.0071L402.374 19.6691L395.076 15.0071L387.778 19.6691L380.481 15.0071L373.183 19.6691L365.888 15.0071L358.59 19.6691L351.292 15.0071L343.994 19.6691L336.699 15.0071L329.399 19.6691L322.099 15.0071L314.801 19.6691L307.501 15.0071L300.203 19.6691L292.905 15.0071L285.607 19.6691L278.31 15.0071L271.009 19.6691L263.711 15.0071L256.414 19.6691L249.116 15.0071L241.818 19.6691L234.52 15.0071L227.22 19.6691L219.922 15.0071L212.624 19.6691L205.329 15.0071L198.031 19.6691L190.734 15.0071L183.436 19.6691L176.138 15.0071L168.84 19.6691L161.545 15.0071L154.247 19.6691L146.949 15.0071L139.653 19.6691M475.352 19.6691L482.652 15.0071L489.95 19.6691L497.248 15.0071L504.546 19.6691L511.843 15.0071L519.144 19.6691L526.442 15.0071L533.742 19.6691L541.042 15.0071L548.343 19.6691M475.352 19.6691L468.056 15.0071M475.352 19.6691L482.648 15.0071L489.946 19.6691L497.244 15.0071L504.539 19.6691L511.837 15.0071L519.135 19.6691L526.433 15.0071L533.73 19.6691L541.028 15.0071L548.323 19.6691L555.621 15.0071L562.919 19.6691L570.219 15.0071L577.517 19.6691L584.815 15.0071L592.113 19.6691L599.411 15.0071L606.708 19.6691L614.009 15.0071L621.307 19.6691L628.604 15.0071L635.902 19.6691L643.2 15.0071L650.5 19.6691L657.798 15.0071L665.098 19.6691L672.399 15.0071L679.699 19.6691M475.352 57.007L468.054 52.324L460.756 57.007L453.458 52.324L446.161 57.007L438.863 52.324L431.563 57.007L424.265 52.324L416.967 57.007L409.672 52.324L402.374 57.007L395.076 52.324L387.778 57.007L380.481 52.324L373.183 57.007L365.888 52.324L358.59 57.007L351.292 52.324L343.994 57.007L336.699 52.324L329.399 57.007L322.099 52.324L314.801 57.007L307.501 52.324L300.203 57.007L292.905 52.324L285.607 57.007L278.31 52.324L271.009 57.007L263.711 52.324L256.414 57.007L249.116 52.324L241.818 57.007L234.52 52.324L227.22 57.007L219.922 52.324L212.624 57.007L205.329 52.324L198.031 57.007L190.734 52.324L183.436 57.007L176.138 52.324L168.84 57.007L161.545 52.324L154.247 57.007L146.949 52.324L139.653 57.007M475.352 57.007L482.652 52.324L489.95 57.007L497.248 52.324L504.546 57.007L511.843 52.324L519.144 57.007L526.442 52.324L533.742 57.007L541.042 52.324L548.343 57.007M475.352 57.007L468.056 52.324M475.352 57.007L482.648 52.324L489.946 57.007L497.244 52.324L504.539 57.007L511.837 52.324L519.135 57.007L526.433 52.324L533.73 57.007L541.028 52.324L548.323 57.007L555.621 52.324L562.919 57.007L570.219 52.324L577.517 57.007L584.815 52.324L592.113 57.007L599.411 52.324L606.708 57.007L614.009 52.324L621.307 57.007L628.604 52.324L635.902 57.007L643.2 52.324L650.5 57.007L657.798 52.324L665.098 57.007L672.399 52.324L679.699 57.007M475.352 136.324L468.054 131.662L460.756 136.324L453.458 131.662L446.161 136.324L438.863 131.662L431.563 136.324L424.265 131.662L416.967 136.324L409.672 131.662L402.374 136.324L395.076 131.662L387.778 136.324L380.481 131.662L373.183 136.324L365.888 131.662L358.59 136.324L351.292 131.662L343.994 136.324L336.699 131.662L329.399 136.324L322.099 131.662L314.801 136.324L307.501 131.662L300.203 136.324L292.905 131.662L285.607 136.324L278.31 131.662L271.009 136.324L263.711 131.662L256.414 136.324L249.116 131.662L241.818 136.324L234.52 131.662L227.22 136.324L219.922 131.662L212.624 136.324L205.329 131.662L198.031 136.324L190.734 131.662L183.436 136.324L176.138 131.662L168.84 136.324L161.545 131.662L154.247 136.324L146.949 131.662L139.653 136.324M475.352 136.324L482.652 131.662L489.95 136.324L497.248 131.662L504.546 136.324L511.843 131.662L519.144 136.324L526.442 131.662L533.742 136.324L541.042 131.662L548.343 136.324M475.352 136.324L468.056 131.662M475.352 136.324L482.648 131.662L489.946 136.324L497.244 131.662L504.539 136.324L511.837 131.662L519.135 136.324L526.433 131.662L533.73 136.324L541.028 131.662L548.323 136.324L555.621 131.662L562.919 136.324L570.219 131.662L577.517 136.324L584.815 131.662L592.113 136.324L599.411 131.662L606.708 136.324L614.009 131.662L621.307 136.324L628.604 131.662L635.902 136.324L643.2 131.662L650.5 136.324L657.798 131.662L665.098 136.324L672.399 131.662L679.699 136.324M475.352 94.3242L468.054 89.6622L460.756 94.3242L453.458 89.6622L446.161 94.3242L438.863 89.6622L431.563 94.3242L424.265 89.6622L416.967 94.3242L409.672 89.6622L402.374 94.3242L395.076 89.6622L387.778 94.3242L380.481 89.6622L373.183 94.3242L365.888 89.6622L358.59 94.3242L351.292 89.6622L343.994 94.3242L336.699 89.6622L329.399 94.3242L322.099 89.6622L314.801 94.3242L307.501 89.6622L300.203 94.3242L292.905 89.6622L285.607 94.3242L278.31 89.6622L271.009 94.3242L263.711 89.6622L256.414 94.3242L249.116 89.6622L241.818 94.3242L234.52 89.6622L227.22 94.3242L219.922 89.6622L212.624 94.3242L205.329 89.6622L198.031 94.3242L190.734 89.6622L183.436 94.3242L176.138 89.6622L168.84 94.3242L161.545 89.6622L154.247 94.3242L146.949 89.6622L139.653 94.3242M475.352 94.3242L482.652 89.6622L489.95 94.3242L497.248 89.6622L504.546 94.3242L511.843 89.6622L519.144 94.3242L526.442 89.6622L533.742 94.3242L541.042 89.6622L548.343 94.3242M475.352 94.3242L468.056 89.6622M475.352 94.3242L482.648 89.6622L489.946 94.3242L497.244 89.6622L504.539 94.3242L511.837 89.6622L519.135 94.3242L526.433 89.6622L533.73 94.3242L541.028 89.6622L548.323 94.3242L555.621 89.6622L562.919 94.3242L570.219 89.6622L577.517 94.3242L584.815 89.6622L592.113 94.3242L599.411 89.6622L606.708 94.3242L614.009 89.6622L621.307 94.3242L628.604 89.6622L635.902 94.3242L643.2 89.6622L650.5 94.3242L657.798 89.6622L665.098 94.3242L672.399 89.6622L679.699 94.3242M475.352 173.662L468.054 169L460.756 173.662L453.458 169L446.161 173.662L438.863 169L431.563 173.662L424.265 169L416.967 173.662L409.672 169L402.374 173.662L395.076 169L387.778 173.662L380.481 169L373.183 173.662L365.888 169L358.59 173.662L351.292 169L343.994 173.662L336.699 169L329.399 173.662L322.099 169L314.801 173.662L307.501 169L300.203 173.662L292.905 169L285.607 173.662L278.31 169L271.009 173.662L263.711 169L256.414 173.662L249.116 169L241.818 173.662L234.52 169L227.22 173.662L219.922 169L212.624 173.662L205.329 169L198.031 173.662L190.734 169L183.436 173.662L176.138 169L168.84 173.662L161.545 169L154.247 173.662L146.949 169L139.653 173.662M475.352 173.662L482.652 169L489.95 173.662L497.248 169L504.546 173.662L511.843 169L519.144 173.662L526.442 169L533.742 173.662L541.042 169L548.343 173.662M475.352 173.662L468.056 169M475.352 173.662L482.648 169L489.946 173.662L497.244 169L504.539 173.662L511.837 169L519.135 173.662L526.433 169L533.73 173.662L541.028 169L548.323 173.662L555.621 169L562.919 173.662L570.219 169L577.517 173.662L584.815 169L592.113 173.662L599.411 169L606.708 173.662L614.009 169L621.307 173.662L628.604 169L635.902 173.662L643.2 169L650.5 173.662L657.798 169L665.098 173.662L672.399 169L679.699 173.662M475.352 38.338L468.054 33.676L460.756 38.338L453.458 33.676L446.161 38.338L438.863 33.676L431.563 38.338L424.265 33.676L416.967 38.338L409.672 33.676L402.374 38.338L395.076 33.676L387.778 38.338L380.481 33.676L373.183 38.338L365.888 33.676L358.59 38.338L351.292 33.676L343.994 38.338L336.699 33.676L329.399 38.338L322.099 33.676L314.801 38.338L307.501 33.676L300.203 38.338L292.905 33.676L285.607 38.338L278.31 33.676L271.009 38.338L263.711 33.676L256.414 38.338L249.116 33.676L241.818 38.338L234.52 33.676L227.22 38.338L219.922 33.676L212.624 38.338L205.329 33.676L198.031 38.338L190.734 33.676L183.436 38.338L176.138 33.676L168.84 38.338L161.545 33.676L154.247 38.338L146.949 33.676L139.653 38.338M475.352 38.338L482.652 33.676L489.95 38.338L497.248 33.676L504.546 38.338L511.843 33.676L519.144 38.338L526.442 33.676L533.742 38.338L541.042 33.676L548.343 38.338M475.352 38.338L468.056 33.676M475.352 38.338L482.648 33.676L489.946 38.338L497.244 33.676L504.539 38.338L511.837 33.676L519.135 38.338L526.433 33.676L533.73 38.338L541.028 33.676L548.323 38.338L555.621 33.676L562.919 38.338L570.219 33.676L577.517 38.338L584.815 33.676L592.113 38.338L599.411 33.676L606.708 38.338L614.009 33.676L621.307 38.338L628.604 33.676L635.902 38.338L643.2 33.676L650.5 38.338L657.798 33.676L665.098 38.338L672.399 33.676L679.699 38.338M475.352 117.676L468.054 112.993L460.756 117.676L453.458 112.993L446.161 117.676L438.863 112.993L431.563 117.676L424.265 112.993L416.967 117.676L409.672 112.993L402.374 117.676L395.076 112.993L387.778 117.676L380.481 112.993L373.183 117.676L365.888 112.993L358.59 117.676L351.292 112.993L343.994 117.676L336.699 112.993L329.399 117.676L322.099 112.993L314.801 117.676L307.501 112.993L300.203 117.676L292.905 112.993L285.607 117.676L278.31 112.993L271.009 117.676L263.711 112.993L256.414 117.676L249.116 112.993L241.818 117.676L234.52 112.993L227.22 117.676L219.922 112.993L212.624 117.676L205.329 112.993L198.031 117.676L190.734 112.993L183.436 117.676L176.138 112.993L168.84 117.676L161.545 112.993L154.247 117.676L146.949 112.993L139.653 117.676M475.352 117.676L482.652 112.993L489.95 117.676L497.248 112.993L504.546 117.676L511.843 112.993L519.144 117.676L526.442 112.993L533.742 117.676L541.042 112.993L548.343 117.676M475.352 117.676L468.056 112.993M475.352 117.676L482.648 112.993L489.946 117.676L497.244 112.993L504.539 117.676L511.837 112.993L519.135 117.676L526.433 112.993L533.73 117.676L541.028 112.993L548.323 117.676L555.621 112.993L562.919 117.676L570.219 112.993L577.517 117.676L584.815 112.993L592.113 117.676L599.411 112.993L606.708 117.676L614.009 112.993L621.307 117.676L628.604 112.993L635.902 117.676L643.2 112.993L650.5 117.676L657.798 112.993L665.098 117.676L672.399 112.993L679.699 117.676M475.352 75.6762L468.054 70.9932L460.756 75.6762L453.458 70.9932L446.161 75.6762L438.863 70.9932L431.563 75.6762L424.265 70.9932L416.967 75.6762L409.672 70.9932L402.374 75.6762L395.076 70.9932L387.778 75.6762L380.481 70.9932L373.183 75.6762L365.888 70.9932L358.59 75.6762L351.292 70.9932L343.994 75.6762L336.699 70.9932L329.399 75.6762L322.099 70.9932L314.801 75.6762L307.501 70.9932L300.203 75.6762L292.905 70.9932L285.607 75.6762L278.31 70.9932L271.009 75.6762L263.711 70.9932L256.414 75.6762L249.116 70.9932L241.818 75.6762L234.52 70.9932L227.22 75.6762L219.922 70.9932L212.624 75.6762L205.329 70.9932L198.031 75.6762L190.734 70.9932L183.436 75.6762L176.138 70.9932L168.84 75.6762L161.545 70.9932L154.247 75.6762L146.949 70.9932L139.653 75.6762M475.352 75.6762L482.652 70.9932L489.95 75.6762L497.248 70.9932L504.546 75.6762L511.843 70.9932L519.144 75.6762L526.442 70.9932L533.742 75.6762L541.042 70.9932L548.343 75.6762M475.352 75.6762L468.056 70.9932M475.352 75.6762L482.648 70.9932L489.946 75.6762L497.244 70.9932L504.539 75.6762L511.837 70.9932L519.135 75.6762L526.433 70.9932L533.73 75.6762L541.028 70.9932L548.323 75.6762L555.621 70.9932L562.919 75.6762L570.219 70.9932L577.517 75.6762L584.815 70.9932L592.113 75.6762L599.411 70.9932L606.708 75.6762L614.009 70.9932L621.307 75.6762L628.604 70.9932L635.902 75.6762L643.2 70.9932L650.5 75.6762L657.798 70.9932L665.098 75.6762L672.399 70.9932L679.699 75.6762M475.352 154.993L468.054 150.331L460.756 154.993L453.458 150.331L446.161 154.993L438.863 150.331L431.563 154.993L424.265 150.331L416.967 154.993L409.672 150.331L402.374 154.993L395.076 150.331L387.778 154.993L380.481 150.331L373.183 154.993L365.888 150.331L358.59 154.993L351.292 150.331L343.994 154.993L336.699 150.331L329.399 154.993L322.099 150.331L314.801 154.993L307.501 150.331L300.203 154.993L292.905 150.331L285.607 154.993L278.31 150.331L271.009 154.993L263.711 150.331L256.414 154.993L249.116 150.331L241.818 154.993L234.52 150.331L227.22 154.993L219.922 150.331L212.624 154.993L205.329 150.331L198.031 154.993L190.734 150.331L183.436 154.993L176.138 150.331L168.84 154.993L161.545 150.331L154.247 154.993L146.949 150.331L139.653 154.993M475.352 154.993L482.652 150.331L489.95 154.993L497.248 150.331L504.546 154.993L511.843 150.331L519.144 154.993L526.442 150.331L533.742 154.993L541.042 150.331L548.343 154.993M475.352 154.993L468.056 150.331M475.352 154.993L482.648 150.331L489.946 154.993L497.244 150.331L504.539 154.993L511.837 150.331L519.135 154.993L526.433 150.331L533.73 154.993L541.028 150.331L548.323 154.993L555.621 150.331L562.919 154.993L570.219 150.331L577.517 154.993L584.815 150.331L592.113 154.993L599.411 150.331L606.708 154.993L614.009 150.331L621.307 154.993L628.604 150.331L635.902 154.993L643.2 150.331L650.5 154.993L657.798 150.331L665.098 154.993L672.399 150.331L679.699 154.993M475.352 112.993L468.054 108.331L460.756 112.993L453.458 108.331L446.161 112.993L438.863 108.331L431.563 112.993L424.265 108.331L416.967 112.993L409.672 108.331L402.374 112.993L395.076 108.331L387.778 112.993L380.481 108.331L373.183 112.993L365.888 108.331L358.59 112.993L351.292 108.331L343.994 112.993L336.699 108.331L329.399 112.993L322.099 108.331L314.801 112.993L307.501 108.331L300.203 112.993L292.905 108.331L285.607 112.993L278.31 108.331L271.009 112.993L263.711 108.331L256.414 112.993L249.116 108.331L241.818 112.993L234.52 108.331L227.22 112.993L219.922 108.331L212.624 112.993L205.329 108.331L198.031 112.993L190.734 108.331L183.436 112.993L176.138 108.331L168.84 112.993L161.545 108.331L154.247 112.993L146.949 108.331L139.653 112.993M475.352 112.993L482.652 108.331L489.95 112.993L497.248 108.331L504.546 112.993L511.843 108.331L519.144 112.993L526.442 108.331L533.742 112.993L541.042 108.331L548.343 112.993M475.352 112.993L468.056 108.331M475.352 112.993L482.648 108.331L489.946 112.993L497.244 108.331L504.539 112.993L511.837 108.331L519.135 112.993L526.433 108.331L533.73 112.993L541.028 108.331L548.323 112.993L555.621 108.331L562.919 112.993L570.219 108.331L577.517 112.993L584.815 108.331L592.113 112.993L599.411 108.331L606.708 112.993L614.009 108.331L621.307 112.993L628.604 108.331L635.902 112.993L643.2 108.331L650.5 112.993L657.798 108.331L665.098 112.993L672.399 108.331L679.699 112.993M475.352 192.331L468.054 187.669L460.756 192.331L453.458 187.669L446.161 192.331L438.863 187.669L431.563 192.331L424.265 187.669L416.967 192.331L409.672 187.669L402.374 192.331L395.076 187.669L387.778 192.331L380.481 187.669L373.183 192.331L365.888 187.669L358.59 192.331L351.292 187.669L343.994 192.331L336.699 187.669L329.399 192.331L322.099 187.669L314.801 192.331L307.501 187.669L300.203 192.331L292.905 187.669L285.607 192.331L278.31 187.669L271.009 192.331L263.711 187.669L256.414 192.331L249.116 187.669L241.818 192.331L234.52 187.669L227.22 192.331L219.922 187.669L212.624 192.331L205.329 187.669L198.031 192.331L190.734 187.669L183.436 192.331L176.138 187.669L168.84 192.331L161.545 187.669L154.247 192.331L146.949 187.669L139.653 192.331M475.352 192.331L482.652 187.669L489.95 192.331L497.248 187.669L504.546 192.331L511.843 187.669L519.144 192.331L526.442 187.669L533.742 192.331L541.042 187.669L548.343 192.331M475.352 192.331L468.056 187.669M475.352 192.331L482.648 187.669L489.946 192.331L497.244 187.669L504.539 192.331L511.837 187.669L519.135 192.331L526.433 187.669L533.73 192.331L541.028 187.669L548.323 192.331L555.621 187.669L562.919 192.331L570.219 187.669L577.517 192.331L584.815 187.669L592.113 192.331L599.411 187.669L606.708 192.331L614.009 187.669L621.307 192.331L628.604 187.669L635.902 192.331L643.2 187.669L650.5 192.331L657.798 187.669L665.098 192.331L672.399 187.669L679.699 192.331M475.352 211L468.054 206.338L460.756 211L453.458 206.338L446.161 211L438.863 206.338L431.563 211L424.265 206.338L416.967 211L409.672 206.338L402.374 211L395.076 206.338L387.778 211L380.481 206.338L373.183 211L365.888 206.338L358.59 211L351.292 206.338L343.994 211L336.699 206.338L329.399 211L322.099 206.338L314.801 211L307.501 206.338L300.203 211L292.905 206.338L285.607 211L278.31 206.338L271.009 211L263.711 206.338L256.414 211L249.116 206.338L241.818 211L234.52 206.338L227.22 211L219.922 206.338L212.624 211L205.329 206.338L198.031 211L190.734 206.338L183.436 211L176.138 206.338L168.84 211L161.545 206.338L154.247 211L146.949 206.338L139.653 211M475.352 211L482.652 206.338L489.95 211L497.248 206.338L504.546 211L511.843 206.338L519.144 211L526.442 206.338L533.742 211L541.042 206.338L548.343 211M475.352 211L468.056 206.338M475.352 211L482.648 206.338L489.946 211L497.244 206.338L504.539 211L511.837 206.338L519.135 211L526.433 206.338L533.73 211L541.028 206.338L548.323 211L555.621 206.338L562.919 211L570.219 206.338L577.517 211L584.815 206.338L592.113 211L599.411 206.338L606.708 211L614.009 206.338L621.307 211L628.604 206.338L635.902 211L643.2 206.338L650.5 211L657.798 206.338L665.098 211L672.399 206.338L679.699 211M1.00003 1.00003L8.29522 5.66203L15.593 1.00003L22.8908 5.66203L30.1886 1.00003L37.4838 5.66203L44.7816 1.00003L52.0793 5.66203L59.3771 1.00003L66.6749 5.66203L73.9727 1.00003L81.2679 5.66203L88.5657 1.00003L95.8635 5.66203L103.164 1.00003L110.462 5.66203L117.759 1.00003L125.057 5.66203L132.355 1.00003L139.653 5.66203M139.653 5.66203L146.953 1.00003L154.251 5.66203L161.549 1.00003L168.847 5.66203L176.144 1.00003L183.445 5.66203L190.743 1.00003L198.043 5.66203L205.343 1.00003L212.644 5.66203M139.653 5.66203L132.356 1.00003M1.00003 38.338L8.29522 43L15.593 38.338L22.8908 43L30.1886 38.338L37.4838 43L44.7816 38.338L52.0793 43L59.3771 38.338L66.6749 43L73.9727 38.338L81.2679 43L88.5657 38.338L95.8635 43L103.164 38.338L110.462 43L117.759 38.338L125.057 43L132.355 38.338L139.653 43M139.653 43L146.953 38.338L154.251 43L161.549 38.338L168.847 43L176.144 38.338L183.445 43L190.743 38.338L198.043 43L205.343 38.338L212.644 43M139.653 43L132.356 38.338M1.00003 117.676L8.29522 122.338L15.593 117.676L22.8908 122.338L30.1886 117.676L37.4838 122.338L44.7816 117.676L52.0793 122.338L59.3771 117.676L66.6749 122.338L73.9727 117.676L81.2679 122.338L88.5657 117.676L95.8635 122.338L103.164 117.676L110.462 122.338L117.759 117.676L125.057 122.338L132.355 117.676L139.653 122.338M139.653 122.338L146.953 117.676L154.251 122.338L161.549 117.676L168.847 122.338L176.144 117.676L183.445 122.338L190.743 117.676L198.043 122.338L205.343 117.676L212.644 122.338M139.653 122.338L132.356 117.676M1.00003 75.6762L8.29522 80.3382L15.593 75.6762L22.8908 80.3382L30.1886 75.6762L37.4838 80.3382L44.7816 75.6762L52.0793 80.3382L59.3771 75.6762L66.6749 80.3382L73.9727 75.6762L81.2679 80.3382L88.5657 75.6762L95.8635 80.3382L103.164 75.6762L110.462 80.3382L117.759 75.6762L125.057 80.3382L132.355 75.6762L139.653 80.3382M139.653 80.3382L146.953 75.6762L154.251 80.3382L161.549 75.6762L168.847 80.3382L176.144 75.6762L183.445 80.3382L190.743 75.6762L198.043 80.3382L205.343 75.6762L212.644 80.3382M139.653 80.3382L132.356 75.6762M1.00003 154.993L8.29522 159.676L15.593 154.993L22.8908 159.676L30.1886 154.993L37.4838 159.676L44.7816 154.993L52.0793 159.676L59.3771 154.993L66.6749 159.676L73.9727 154.993L81.2679 159.676L88.5657 154.993L95.8635 159.676L103.164 154.993L110.462 159.676L117.759 154.993L125.057 159.676L132.355 154.993L139.653 159.676M139.653 159.676L146.953 154.993L154.251 159.676L161.549 154.993L168.847 159.676L176.144 154.993L183.445 159.676L190.743 154.993L198.043 159.676L205.343 154.993L212.644 159.676M139.653 159.676L132.356 154.993M1.00003 19.6691L8.29522 24.3311L15.593 19.6691L22.8908 24.3311L30.1886 19.6691L37.4838 24.3311L44.7816 19.6691L52.0793 24.3311L59.3771 19.6691L66.6749 24.3311L73.9727 19.6691L81.2679 24.3311L88.5657 19.6691L95.8635 24.3311L103.164 19.6691L110.462 24.3311L117.759 19.6691L125.057 24.3311L132.355 19.6691L139.653 24.3311M139.653 24.3311L146.953 19.6691L154.251 24.3311L161.549 19.6691L168.847 24.3311L176.144 19.6691L183.445 24.3311L190.743 19.6691L198.043 24.3311L205.343 19.6691L212.644 24.3311M139.653 24.3311L132.356 19.6691M1.00003 57.0072L8.29522 61.6692L15.593 57.0072L22.8908 61.6692L30.1886 57.0072L37.4838 61.6692L44.7816 57.0072L52.0793 61.6692L59.3771 57.0072L66.6749 61.6692L73.9727 57.0072L81.2679 61.6692L88.5657 57.0072L95.8635 61.6692L103.164 57.0072L110.462 61.6692L117.759 57.0072L125.057 61.6692L132.355 57.0072L139.653 61.6692M139.653 61.6692L146.953 57.0072L154.251 61.6692L161.549 57.0072L168.847 61.6692L176.144 57.0072L183.445 61.6692L190.743 57.0072L198.043 61.6692L205.343 57.0072L212.644 61.6692M139.653 61.6692L132.356 57.0072M1.00003 136.324L8.29522 141.007L15.593 136.324L22.8908 141.007L30.1886 136.324L37.4838 141.007L44.7816 136.324L52.0793 141.007L59.3771 136.324L66.6749 141.007L73.9727 136.324L81.2679 141.007L88.5657 136.324L95.8635 141.007L103.164 136.324L110.462 141.007L117.759 136.324L125.057 141.007L132.355 136.324L139.653 141.007M139.653 141.007L146.953 136.324L154.251 141.007L161.549 136.324L168.847 141.007L176.144 136.324L183.445 141.007L190.743 136.324L198.043 141.007L205.343 136.324L212.644 141.007M139.653 141.007L132.356 136.324M1.00003 94.3242L8.29522 99.0072L15.593 94.3242L22.8908 99.0072L30.1886 94.3242L37.4838 99.0072L44.7816 94.3242L52.0793 99.0072L59.3771 94.3242L66.6749 99.0072L73.9727 94.3242L81.2679 99.0072L88.5657 94.3242L95.8635 99.0072L103.164 94.3242L110.462 99.0072L117.759 94.3242L125.057 99.0072L132.355 94.3242L139.653 99.0072M139.653 99.0072L146.953 94.3242L154.251 99.0072L161.549 94.3242L168.847 99.0072L176.144 94.3242L183.445 99.0072L190.743 94.3242L198.043 99.0072L205.343 94.3242L212.644 99.0072M139.653 99.0072L132.356 94.3242M1.00003 173.662L8.29522 178.324L15.593 173.662L22.8908 178.324L30.1886 173.662L37.4838 178.324L44.7816 173.662L52.0793 178.324L59.3771 173.662L66.6749 178.324L73.9727 173.662L81.2679 178.324L88.5657 173.662L95.8635 178.324L103.164 173.662L110.462 178.324L117.759 173.662L125.057 178.324L132.355 173.662L139.653 178.324M139.653 178.324L146.953 173.662L154.251 178.324L161.549 173.662L168.847 178.324L176.144 173.662L183.445 178.324L190.743 173.662L198.043 178.324L205.343 173.662L212.644 178.324M139.653 178.324L132.356 173.662M1.00003 192.331L8.29522 196.993L15.593 192.331L22.8908 196.993L30.1886 192.331L37.4838 196.993L44.7816 192.331L52.0793 196.993L59.3771 192.331L66.6749 196.993L73.9727 192.331L81.2679 196.993L88.5657 192.331L95.8635 196.993L103.164 192.331L110.462 196.993L117.759 192.331L125.057 196.993L132.355 192.331L139.653 196.993M139.653 196.993L146.953 192.331L154.251 196.993L161.549 192.331L168.847 196.993L176.144 192.331L183.445 196.993L190.743 192.331L198.043 196.993L205.343 192.331L212.644 196.993M139.653 196.993L132.356 192.331M1.00003 10.3241L8.29522 15.0071L15.593 10.3241L22.8908 15.0071L30.1886 10.3241L37.4838 15.0071L44.7816 10.3241L52.0793 15.0071L59.3771 10.3241L66.6749 15.0071L73.9727 10.3241L81.2679 15.0071L88.5657 10.3241L95.8635 15.0071L103.164 10.3241L110.462 15.0071L117.759 10.3241L125.057 15.0071L132.355 10.3241L139.653 15.0071M139.653 15.0071L146.953 10.3241L154.251 15.0071L161.549 10.3241L168.847 15.0071L176.144 10.3241L183.445 15.0071L190.743 10.3241L198.043 15.0071L205.343 10.3241L212.644 15.0071M139.653 15.0071L132.356 10.3241M1.00003 47.662L8.29522 52.324L15.593 47.662L22.8908 52.324L30.1886 47.662L37.4838 52.324L44.7816 47.662L52.0793 52.324L59.3771 47.662L66.6749 52.324L73.9727 47.662L81.2679 52.324L88.5657 47.662L95.8635 52.324L103.164 47.662L110.462 52.324L117.759 47.662L125.057 52.324L132.355 47.662L139.653 52.324M139.653 52.324L146.953 47.662L154.251 52.324L161.549 47.662L168.847 52.324L176.144 47.662L183.445 52.324L190.743 47.662L198.043 52.324L205.343 47.662L212.644 52.324M139.653 52.324L132.356 47.662M1.00003 127L8.29522 131.662L15.593 127L22.8908 131.662L30.1886 127L37.4838 131.662L44.7816 127L52.0793 131.662L59.3771 127L66.6749 131.662L73.9727 127L81.2679 131.662L88.5657 127L95.8635 131.662L103.164 127L110.462 131.662L117.759 127L125.057 131.662L132.355 127L139.653 131.662M139.653 131.662L146.953 127L154.251 131.662L161.549 127L168.847 131.662L176.144 127L183.445 131.662L190.743 127L198.043 131.662L205.343 127L212.644 131.662M139.653 131.662L132.356 127M1.00003 85.0002L8.29522 89.6622L15.593 85.0002L22.8908 89.6622L30.1886 85.0002L37.4838 89.6622L44.7816 85.0002L52.0793 89.6622L59.3771 85.0002L66.6749 89.6622L73.9727 85.0002L81.2679 89.6622L88.5657 85.0002L95.8635 89.6622L103.164 85.0002L110.462 89.6622L117.759 85.0002L125.057 89.6622L132.355 85.0002L139.653 89.6622M139.653 89.6622L146.953 85.0002L154.251 89.6622L161.549 85.0002L168.847 89.6622L176.144 85.0002L183.445 89.6622L190.743 85.0002L198.043 89.6622L205.343 85.0002L212.644 89.6622M139.653 89.6622L132.356 85.0002M1.00003 164.338L8.29522 169L15.593 164.338L22.8908 169L30.1886 164.338L37.4838 169L44.7816 164.338L52.0793 169L59.3771 164.338L66.6749 169L73.9727 164.338L81.2679 169L88.5657 164.338L95.8635 169L103.164 164.338L110.462 169L117.759 164.338L125.057 169L132.355 164.338L139.653 169M139.653 169L146.953 164.338L154.251 169L161.549 164.338L168.847 169L176.144 164.338L183.445 169L190.743 164.338L198.043 169L205.343 164.338L212.644 169M139.653 169L132.356 164.338M1.00003 28.9931L8.29522 33.6761L15.593 28.9931L22.8908 33.6761L30.1886 28.9931L37.4838 33.6761L44.7816 28.9931L52.0793 33.6761L59.3771 28.9931L66.6749 33.6761L73.9727 28.9931L81.2679 33.6761L88.5657 28.9931L95.8635 33.6761L103.164 28.9931L110.462 33.6761L117.759 28.9931L125.057 33.6761L132.355 28.9931L139.653 33.6761M139.653 33.6761L146.953 28.9931L154.251 33.6761L161.549 28.9931L168.847 33.6761L176.144 28.9931L183.445 33.6761L190.743 28.9931L198.043 33.6761L205.343 28.9931L212.644 33.6761M139.653 33.6761L132.356 28.9931M1.00003 66.3312L8.29522 70.9932L15.593 66.3312L22.8908 70.9932L30.1886 66.3312L37.4838 70.9932L44.7816 66.3312L52.0793 70.9932L59.3771 66.3312L66.6749 70.9932L73.9727 66.3312L81.2679 70.9932L88.5657 66.3312L95.8635 70.9932L103.164 66.3312L110.462 70.9932L117.759 66.3312L125.057 70.9932L132.355 66.3312L139.653 70.9932M139.653 70.9932L146.953 66.3312L154.251 70.9932L161.549 66.3312L168.847 70.9932L176.144 66.3312L183.445 70.9932L190.743 66.3312L198.043 70.9932L205.343 66.3312L212.644 70.9932M139.653 70.9932L132.356 66.3312M1.00003 145.669L8.29522 150.331L15.593 145.669L22.8908 150.331L30.1886 145.669L37.4838 150.331L44.7816 145.669L52.0793 150.331L59.3771 145.669L66.6749 150.331L73.9727 145.669L81.2679 150.331L88.5657 145.669L95.8635 150.331L103.164 145.669L110.462 150.331L117.759 145.669L125.057 150.331L132.355 145.669L139.653 150.331M139.653 150.331L146.953 145.669L154.251 150.331L161.549 145.669L168.847 150.331L176.144 145.669L183.445 150.331L190.743 145.669L198.043 150.331L205.343 145.669L212.644 150.331M139.653 150.331L132.356 145.669M1.00003 103.669L8.29522 108.331L15.593 103.669L22.8908 108.331L30.1886 103.669L37.4838 108.331L44.7816 103.669L52.0793 108.331L59.3771 103.669L66.6749 108.331L73.9727 103.669L81.2679 108.331L88.5657 103.669L95.8635 108.331L103.164 103.669L110.462 108.331L117.759 103.669L125.057 108.331L132.355 103.669L139.653 108.331M139.653 108.331L146.953 103.669L154.251 108.331L161.549 103.669L168.847 108.331L176.144 103.669L183.445 108.331L190.743 103.669L198.043 108.331L205.343 103.669L212.644 108.331M139.653 108.331L132.356 103.669M1.00003 183.007L8.29522 187.669L15.593 183.007L22.8908 187.669L30.1886 183.007L37.4838 187.669L44.7816 183.007L52.0793 187.669L59.3771 183.007L66.6749 187.669L73.9727 183.007L81.2679 187.669L88.5657 183.007L95.8635 187.669L103.164 183.007L110.462 187.669L117.759 183.007L125.057 187.669L132.355 183.007L139.653 187.669M139.653 187.669L146.953 183.007L154.251 187.669L161.549 183.007L168.847 187.669L176.144 183.007L183.445 187.669L190.743 183.007L198.043 187.669L205.343 183.007L212.644 187.669M139.653 187.669L132.356 183.007M1.00003 201.676L8.29522 206.338L15.593 201.676L22.8908 206.338L30.1886 201.676L37.4838 206.338L44.7816 201.676L52.0793 206.338L59.3771 201.676L66.6749 206.338L73.9727 201.676L81.2679 206.338L88.5657 201.676L95.8635 206.338L103.164 201.676L110.462 206.338L117.759 201.676L125.057 206.338L132.355 201.676L139.653 206.338M139.653 206.338L146.953 201.676L154.251 206.338L161.549 201.676L168.847 206.338L176.144 201.676L183.445 206.338L190.743 201.676L198.043 206.338L205.343 201.676L212.644 206.338M139.653 206.338L132.356 201.676M1.00003 5.66211L8.29522 10.3241L15.593 5.66211L22.8908 10.3241L30.1886 5.66211L37.4838 10.3241L44.7816 5.66211L52.0793 10.3241L59.3771 5.66211L66.6749 10.3241L73.9727 5.66211L81.2679 10.3241L88.5657 5.66211L95.8635 10.3241L103.164 5.66211L110.462 10.3241L117.759 5.66211L125.057 10.3241L132.355 5.66211L139.653 10.3241M139.653 10.3241L146.953 5.66211L154.251 10.3241L161.549 5.66211L168.847 10.3241L176.144 5.66211L183.445 10.3241L190.743 5.66211L198.043 10.3241L205.343 5.66211L212.644 10.3241M139.653 10.3241L132.356 5.66211M1.00003 43L8.29522 47.662L15.593 43L22.8908 47.662L30.1886 43L37.4838 47.662L44.7816 43L52.0793 47.662L59.3771 43L66.6749 47.662L73.9727 43L81.2679 47.662L88.5657 43L95.8635 47.662L103.164 43L110.462 47.662L117.759 43L125.057 47.662L132.355 43L139.653 47.662M139.653 47.662L146.953 43L154.251 47.662L161.549 43L168.847 47.662L176.144 43L183.445 47.662L190.743 43L198.043 47.662L205.343 43L212.644 47.662M139.653 47.662L132.356 43M1.00003 122.338L8.29522 127L15.593 122.338L22.8908 127L30.1886 122.338L37.4838 127L44.7816 122.338L52.0793 127L59.3771 122.338L66.6749 127L73.9727 122.338L81.2679 127L88.5657 122.338L95.8635 127L103.164 122.338L110.462 127L117.759 122.338L125.057 127L132.355 122.338L139.653 127M139.653 127L146.953 122.338L154.251 127L161.549 122.338L168.847 127L176.144 122.338L183.445 127L190.743 122.338L198.043 127L205.343 122.338L212.644 127M139.653 127L132.356 122.338M1.00003 80.3382L8.29522 85.0002L15.593 80.3382L22.8908 85.0002L30.1886 80.3382L37.4838 85.0002L44.7816 80.3382L52.0793 85.0002L59.3771 80.3382L66.6749 85.0002L73.9727 80.3382L81.2679 85.0002L88.5657 80.3382L95.8635 85.0002L103.164 80.3382L110.462 85.0002L117.759 80.3382L125.057 85.0002L132.355 80.3382L139.653 85.0002M139.653 85.0002L146.953 80.3382L154.251 85.0002L161.549 80.3382L168.847 85.0002L176.144 80.3382L183.445 85.0002L190.743 80.3382L198.043 85.0002L205.343 80.3382L212.644 85.0002M139.653 85.0002L132.356 80.3382M1.00003 159.676L8.29522 164.338L15.593 159.676L22.8908 164.338L30.1886 159.676L37.4838 164.338L44.7816 159.676L52.0793 164.338L59.3771 159.676L66.6749 164.338L73.9727 159.676L81.2679 164.338L88.5657 159.676L95.8635 164.338L103.164 159.676L110.462 164.338L117.759 159.676L125.057 164.338L132.355 159.676L139.653 164.338M139.653 164.338L146.953 159.676L154.251 164.338L161.549 159.676L168.847 164.338L176.144 159.676L183.445 164.338L190.743 159.676L198.043 164.338L205.343 159.676L212.644 164.338M139.653 164.338L132.356 159.676M1.00003 24.3311L8.29522 28.9931L15.593 24.3311L22.8908 28.9931L30.1886 24.3311L37.4838 28.9931L44.7816 24.3311L52.0793 28.9931L59.3771 24.3311L66.6749 28.9931L73.9727 24.3311L81.2679 28.9931L88.5657 24.3311L95.8635 28.9931L103.164 24.3311L110.462 28.9931L117.759 24.3311L125.057 28.9931L132.355 24.3311L139.653 28.9931M139.653 28.9931L146.953 24.3311L154.251 28.9931L161.549 24.3311L168.847 28.9931L176.144 24.3311L183.445 28.9931L190.743 24.3311L198.043 28.9931L205.343 24.3311L212.644 28.9931M139.653 28.9931L132.356 24.3311M1.00003 61.6692L8.29522 66.3312L15.593 61.6692L22.8908 66.3312L30.1886 61.6692L37.4838 66.3312L44.7816 61.6692L52.0793 66.3312L59.3771 61.6692L66.6749 66.3312L73.9727 61.6692L81.2679 66.3312L88.5657 61.6692L95.8635 66.3312L103.164 61.6692L110.462 66.3312L117.759 61.6692L125.057 66.3312L132.355 61.6692L139.653 66.3312M139.653 66.3312L146.953 61.6692L154.251 66.3312L161.549 61.6692L168.847 66.3312L176.144 61.6692L183.445 66.3312L190.743 61.6692L198.043 66.3312L205.343 61.6692L212.644 66.3312M139.653 66.3312L132.356 61.6692M1.00003 141.007L8.29522 145.669L15.593 141.007L22.8908 145.669L30.1886 141.007L37.4838 145.669L44.7816 141.007L52.0793 145.669L59.3771 141.007L66.6749 145.669L73.9727 141.007L81.2679 145.669L88.5657 141.007L95.8635 145.669L103.164 141.007L110.462 145.669L117.759 141.007L125.057 145.669L132.355 141.007L139.653 145.669M139.653 145.669L146.953 141.007L154.251 145.669L161.549 141.007L168.847 145.669L176.144 141.007L183.445 145.669L190.743 141.007L198.043 145.669L205.343 141.007L212.644 145.669M139.653 145.669L132.356 141.007M1.00003 99.007L8.29522 103.669L15.593 99.007L22.8908 103.669L30.1886 99.007L37.4838 103.669L44.7816 99.007L52.0793 103.669L59.3771 99.007L66.6749 103.669L73.9727 99.007L81.2679 103.669L88.5657 99.007L95.8635 103.669L103.164 99.007L110.462 103.669L117.759 99.007L125.057 103.669L132.355 99.007L139.653 103.669M139.653 103.669L146.953 99.007L154.251 103.669L161.549 99.007L168.847 103.669L176.144 99.007L183.445 103.669L190.743 99.007L198.043 103.669L205.343 99.007L212.644 103.669M139.653 103.669L132.356 99.007M1.00003 178.324L8.29522 183.007L15.593 178.324L22.8908 183.007L30.1886 178.324L37.4838 183.007L44.7816 178.324L52.0793 183.007L59.3771 178.324L66.6749 183.007L73.9727 178.324L81.2679 183.007L88.5657 178.324L95.8635 183.007L103.164 178.324L110.462 183.007L117.759 178.324L125.057 183.007L132.355 178.324L139.653 183.007M139.653 183.007L146.953 178.324L154.251 183.007L161.549 178.324L168.847 183.007L176.144 178.324L183.445 183.007L190.743 178.324L198.043 183.007L205.343 178.324L212.644 183.007M139.653 183.007L132.356 178.324M1.00003 196.993L8.29522 201.676L15.593 196.993L22.8908 201.676L30.1886 196.993L37.4838 201.676L44.7816 196.993L52.0793 201.676L59.3771 196.993L66.6749 201.676L73.9727 196.993L81.2679 201.676L88.5657 196.993L95.8635 201.676L103.164 196.993L110.462 201.676L117.759 196.993L125.057 201.676L132.355 196.993L139.653 201.676M139.653 201.676L146.953 196.993L154.251 201.676L161.549 196.993L168.847 201.676L176.144 196.993L183.445 201.676L190.743 196.993L198.043 201.676L205.343 196.993L212.644 201.676M139.653 201.676L132.356 196.993M1.00003 15.0071L8.29522 19.6691L15.593 15.0071L22.8908 19.6691L30.1886 15.0071L37.4838 19.6691L44.7816 15.0071L52.0793 19.6691L59.3771 15.0071L66.6749 19.6691L73.9727 15.0071L81.2679 19.6691L88.5657 15.0071L95.8635 19.6691L103.164 15.0071L110.462 19.6691L117.759 15.0071L125.057 19.6691L132.355 15.0071L139.653 19.6691M139.653 19.6691L146.953 15.0071L154.251 19.6691L161.549 15.0071L168.847 19.6691L176.144 15.0071L183.445 19.6691L190.743 15.0071L198.043 19.6691L205.343 15.0071L212.644 19.6691M139.653 19.6691L132.356 15.0071M1.00003 52.324L8.29522 57.007L15.593 52.324L22.8908 57.007L30.1886 52.324L37.4838 57.007L44.7816 52.324L52.0793 57.007L59.3771 52.324L66.6749 57.007L73.9727 52.324L81.2679 57.007L88.5657 52.324L95.8635 57.007L103.164 52.324L110.462 57.007L117.759 52.324L125.057 57.007L132.355 52.324L139.653 57.007M139.653 57.007L146.953 52.324L154.251 57.007L161.549 52.324L168.847 57.007L176.144 52.324L183.445 57.007L190.743 52.324L198.043 57.007L205.343 52.324L212.644 57.007M139.653 57.007L132.356 52.324M1.00003 131.662L8.29522 136.324L15.593 131.662L22.8908 136.324L30.1886 131.662L37.4838 136.324L44.7816 131.662L52.0793 136.324L59.3771 131.662L66.6749 136.324L73.9727 131.662L81.2679 136.324L88.5657 131.662L95.8635 136.324L103.164 131.662L110.462 136.324L117.759 131.662L125.057 136.324L132.355 131.662L139.653 136.324M139.653 136.324L146.953 131.662L154.251 136.324L161.549 131.662L168.847 136.324L176.144 131.662L183.445 136.324L190.743 131.662L198.043 136.324L205.343 131.662L212.644 136.324M139.653 136.324L132.356 131.662M1.00003 89.6622L8.29522 94.3242L15.593 89.6622L22.8908 94.3242L30.1886 89.6622L37.4838 94.3242L44.7816 89.6622L52.0793 94.3242L59.3771 89.6622L66.6749 94.3242L73.9727 89.6622L81.2679 94.3242L88.5657 89.6622L95.8635 94.3242L103.164 89.6622L110.462 94.3242L117.759 89.6622L125.057 94.3242L132.355 89.6622L139.653 94.3242M139.653 94.3242L146.953 89.6622L154.251 94.3242L161.549 89.6622L168.847 94.3242L176.144 89.6622L183.445 94.3242L190.743 89.6622L198.043 94.3242L205.343 89.6622L212.644 94.3242M139.653 94.3242L132.356 89.6622M1.00003 169L8.29522 173.662L15.593 169L22.8908 173.662L30.1886 169L37.4838 173.662L44.7816 169L52.0793 173.662L59.3771 169L66.6749 173.662L73.9727 169L81.2679 173.662L88.5657 169L95.8635 173.662L103.164 169L110.462 173.662L117.759 169L125.057 173.662L132.355 169L139.653 173.662M139.653 173.662L146.953 169L154.251 173.662L161.549 169L168.847 173.662L176.144 169L183.445 173.662L190.743 169L198.043 173.662L205.343 169L212.644 173.662M139.653 173.662L132.356 169M1.00003 33.676L8.29522 38.338L15.593 33.676L22.8908 38.338L30.1886 33.676L37.4838 38.338L44.7816 33.676L52.0793 38.338L59.3771 33.676L66.6749 38.338L73.9727 33.676L81.2679 38.338L88.5657 33.676L95.8635 38.338L103.164 33.676L110.462 38.338L117.759 33.676L125.057 38.338L132.355 33.676L139.653 38.338M139.653 38.338L146.953 33.676L154.251 38.338L161.549 33.676L168.847 38.338L176.144 33.676L183.445 38.338L190.743 33.676L198.043 38.338L205.343 33.676L212.644 38.338M139.653 38.338L132.356 33.676M1.00003 112.993L8.29522 117.676L15.593 112.993L22.8908 117.676L30.1886 112.993L37.4838 117.676L44.7816 112.993L52.0793 117.676L59.3771 112.993L66.6749 117.676L73.9727 112.993L81.2679 117.676L88.5657 112.993L95.8635 117.676L103.164 112.993L110.462 117.676L117.759 112.993L125.057 117.676L132.355 112.993L139.653 117.676M139.653 117.676L146.953 112.993L154.251 117.676L161.549 112.993L168.847 117.676L176.144 112.993L183.445 117.676L190.743 112.993L198.043 117.676L205.343 112.993L212.644 117.676M139.653 117.676L132.356 112.993M1.00003 70.9932L8.29522 75.6762L15.593 70.9932L22.8908 75.6762L30.1886 70.9932L37.4838 75.6762L44.7816 70.9932L52.0793 75.6762L59.3771 70.9932L66.6749 75.6762L73.9727 70.9932L81.2679 75.6762L88.5657 70.9932L95.8635 75.6762L103.164 70.9932L110.462 75.6762L117.759 70.9932L125.057 75.6762L132.355 70.9932L139.653 75.6762M139.653 75.6762L146.953 70.9932L154.251 75.6762L161.549 70.9932L168.847 75.6762L176.144 70.9932L183.445 75.6762L190.743 70.9932L198.043 75.6762L205.343 70.9932L212.644 75.6762M139.653 75.6762L132.356 70.9932M1.00003 150.331L8.29522 154.993L15.593 150.331L22.8908 154.993L30.1886 150.331L37.4838 154.993L44.7816 150.331L52.0793 154.993L59.3771 150.331L66.6749 154.993L73.9727 150.331L81.2679 154.993L88.5657 150.331L95.8635 154.993L103.164 150.331L110.462 154.993L117.759 150.331L125.057 154.993L132.355 150.331L139.653 154.993M139.653 154.993L146.953 150.331L154.251 154.993L161.549 150.331L168.847 154.993L176.144 150.331L183.445 154.993L190.743 150.331L198.043 154.993L205.343 150.331L212.644 154.993M139.653 154.993L132.356 150.331M1.00003 108.331L8.29522 112.993L15.593 108.331L22.8908 112.993L30.1886 108.331L37.4838 112.993L44.7816 108.331L52.0793 112.993L59.3771 108.331L66.6749 112.993L73.9727 108.331L81.2679 112.993L88.5657 108.331L95.8635 112.993L103.164 108.331L110.462 112.993L117.759 108.331L125.057 112.993L132.355 108.331L139.653 112.993M139.653 112.993L146.953 108.331L154.251 112.993L161.549 108.331L168.847 112.993L176.144 108.331L183.445 112.993L190.743 108.331L198.043 112.993L205.343 108.331L212.644 112.993M139.653 112.993L132.356 108.331M1.00003 187.669L8.29522 192.331L15.593 187.669L22.8908 192.331L30.1886 187.669L37.4838 192.331L44.7816 187.669L52.0793 192.331L59.3771 187.669L66.6749 192.331L73.9727 187.669L81.2679 192.331L88.5657 187.669L95.8635 192.331L103.164 187.669L110.462 192.331L117.759 187.669L125.057 192.331L132.355 187.669L139.653 192.331M139.653 192.331L146.953 187.669L154.251 192.331L161.549 187.669L168.847 192.331L176.144 187.669L183.445 192.331L190.743 187.669L198.043 192.331L205.343 187.669L212.644 192.331M139.653 192.331L132.356 187.669M1.00003 206.338L8.29522 211L15.593 206.338L22.8908 211L30.1886 206.338L37.4838 211L44.7816 206.338L52.0793 211L59.3771 206.338L66.6749 211L73.9727 206.338L81.2679 211L88.5657 206.338L95.8635 211L103.164 206.338L110.462 211L117.759 206.338L125.057 211L132.355 206.338L139.653 211M139.653 211L146.953 206.338L154.251 211L161.549 206.338L168.847 211L176.144 206.338L183.445 211L190.743 206.338L198.043 211L205.343 206.338L212.644 211M139.653 211L132.356 206.338" stroke="white" stroke-miterlimit="10" stroke-linecap="round"/>
</svg>
