<svg width="18" height="14" viewBox="0 0 18 14" fill="none" xmlns="http://www.w3.org/2000/svg">
<path fill-rule="evenodd" clip-rule="evenodd" d="M4.09416 0.75H8.92088C10.9392 0.75 12.3484 2.14086 12.3484 4.13409V9.86591C12.3484 11.8591 10.9392 13.25 8.92088 13.25H4.09416C2.07581 13.25 0.666626 11.8591 0.666626 9.86591V4.13409C0.666626 2.14086 2.07581 0.75 4.09416 0.75ZM15.6317 2.73233C15.9975 2.5462 16.4267 2.56566 16.7759 2.78562C17.125 3.00474 17.3334 3.38546 17.3334 3.8017V10.1985C17.3334 10.6156 17.125 10.9954 16.7759 11.2146C16.585 11.3338 16.3717 11.3948 16.1567 11.3948C15.9775 11.3948 15.7984 11.3525 15.6309 11.267L14.3967 10.6443C13.94 10.4125 13.6567 9.94722 13.6567 9.43029V4.56904C13.6567 4.05128 13.94 3.58596 14.3967 3.35584L15.6317 2.73233Z" fill="#919AB6"/>
</svg>
