<svg width="24" height="24" viewBox="0 0 24 24" fill="none" xmlns="http://www.w3.org/2000/svg">
<path d="M11.9421 2.20995L9.53215 7.81995H7.12215C6.72215 7.81995 6.33215 7.84995 5.95215 7.92995L6.95215 5.52995L6.99215 5.43995L7.05215 5.27995C7.08215 5.20995 7.10215 5.14995 7.13215 5.09995C8.29215 2.40995 9.59215 1.56995 11.9421 2.20995Z" fill="#181C25"/>
<path d="M18.7321 8.09002L18.7121 8.08002C18.1121 7.91002 17.5021 7.82002 16.8821 7.82002H10.6221L12.8721 2.59002L12.9021 2.52002C13.0421 2.57002 13.1921 2.64002 13.3421 2.69002L15.5521 3.62002C16.7821 4.13002 17.6421 4.66002 18.1721 5.30002C18.2621 5.42002 18.3421 5.53002 18.4221 5.66002C18.5121 5.80002 18.5821 5.94002 18.6221 6.09002C18.6621 6.18002 18.6921 6.26002 18.7121 6.35002C18.8621 6.86002 18.8721 7.44002 18.7321 8.09002Z" fill="#181C25"/>
<path d="M18.2922 9.51995C17.8422 9.38995 17.3722 9.31995 16.8822 9.31995H7.12219C6.44219 9.31995 5.80219 9.44995 5.20219 9.70995C3.46219 10.4599 2.24219 12.1899 2.24219 14.1999V16.1499C2.24219 16.3899 2.26219 16.6199 2.29219 16.8599C2.51219 20.0399 4.21219 21.7399 7.39219 21.9499C7.62219 21.9799 7.85219 21.9999 8.10219 21.9999H15.9022C19.6022 21.9999 21.5522 20.2399 21.7422 16.7399C21.7522 16.5499 21.7622 16.3499 21.7622 16.1499V14.1999C21.7622 11.9899 20.2922 10.1299 18.2922 9.51995ZM14.5022 16.7499H9.50219C9.09219 16.7499 8.75219 16.4099 8.75219 15.9999C8.75219 15.5899 9.09219 15.2499 9.50219 15.2499H14.5022C14.9122 15.2499 15.2522 15.5899 15.2522 15.9999C15.2522 16.4099 14.9122 16.7499 14.5022 16.7499Z" fill="#181C25"/>
</svg>
