<svg width="24" height="24" viewBox="0 0 24 24" fill="none" xmlns="http://www.w3.org/2000/svg">
<path d="M14.501 16.75H9.50098C9.09098 16.75 8.75098 16.41 8.75098 16C8.75098 15.59 9.09098 15.25 9.50098 15.25H14.501C14.911 15.25 15.251 15.59 15.251 16C15.251 16.41 14.911 16.75 14.501 16.75Z" fill="#49536E"/>
<path d="M5.20116 10.46C5.01116 10.46 4.82116 10.38 4.67116 10.24C4.46116 10.03 4.39116 9.7 4.51116 9.42L6.37116 4.98C6.41116 4.89 6.43116 4.83 6.46116 4.78C7.94116 1.37 9.83116 0.539999 13.1712 1.82C13.3612 1.89 13.5112 2.04 13.5912 2.23C13.6712 2.42 13.6712 2.63 13.5912 2.82L10.6612 9.62C10.5412 9.89 10.2712 10.07 9.97116 10.07H7.12116C6.55116 10.07 6.01116 10.18 5.49116 10.4C5.40116 10.44 5.30116 10.46 5.20116 10.46ZM10.6112 2.75C9.37116 2.75 8.61116 3.56 7.82116 5.4C7.81116 5.43 7.79116 5.46 7.78116 5.49L6.47116 8.6C6.69116 8.58 6.90116 8.57 7.12116 8.57H9.47116L11.8812 2.97C11.4112 2.82 10.9912 2.75 10.6112 2.75Z" fill="#49536E"/>
<path d="M18.2912 10.27C18.2212 10.27 18.1412 10.26 18.0712 10.24C17.7012 10.13 17.2912 10.07 16.8712 10.07H9.9712C9.7212 10.07 9.4812 9.94002 9.3412 9.73002C9.2112 9.52002 9.1812 9.25002 9.2812 9.02002L12.1812 2.29002C12.3312 1.93002 12.7612 1.69002 13.1412 1.81002C13.2612 1.85002 13.3712 1.90002 13.4912 1.95002L15.8512 2.94002C17.2312 3.51002 18.1512 4.11002 18.7512 4.83002C18.8712 4.97002 18.9712 5.12002 19.0612 5.27002C19.1712 5.44002 19.2712 5.65002 19.3412 5.86002C19.3712 5.93002 19.4212 6.06002 19.4512 6.20002C19.7312 7.14002 19.5912 8.31002 18.9912 9.81002C18.8712 10.09 18.5912 10.27 18.2912 10.27ZM11.1112 8.57002H16.8812C17.2012 8.57002 17.5112 8.60002 17.8212 8.65002C18.1012 7.78002 18.1612 7.11002 18.0012 6.57002C17.9812 6.48002 17.9612 6.44002 17.9512 6.40002C17.8912 6.24002 17.8512 6.15002 17.8012 6.07002C17.7312 5.96002 17.6812 5.87002 17.6012 5.78002C17.1712 5.26002 16.4112 4.78002 15.2812 4.32002L13.3012 3.49002L11.1112 8.57002Z" fill="#49536E"/>
<path d="M15.901 22.75H8.10098C7.82098 22.75 7.56098 22.73 7.30098 22.7C3.79098 22.46 1.79098 20.46 1.55098 16.91C1.52098 16.69 1.50098 16.42 1.50098 16.15V14.2C1.50098 11.95 2.84098 9.92001 4.91098 9.02001C5.61098 8.72001 6.36098 8.57001 7.13098 8.57001H16.891C17.461 8.57001 18.011 8.65001 18.521 8.81001C20.871 9.52001 22.521 11.74 22.521 14.2V16.15C22.521 16.37 22.511 16.58 22.501 16.78C22.281 20.69 20.001 22.75 15.901 22.75ZM7.12098 10.07C6.55098 10.07 6.01098 10.18 5.49098 10.4C3.97098 11.06 2.99098 12.55 2.99098 14.2V16.15C2.99098 16.36 3.01098 16.57 3.03098 16.77C3.22098 19.62 4.62098 21.02 7.43098 21.21C7.68098 21.24 7.88098 21.26 8.09098 21.26H15.891C19.191 21.26 20.811 19.81 20.971 16.71C20.981 16.53 20.991 16.35 20.991 16.15V14.2C20.991 12.39 19.781 10.77 18.061 10.24C17.691 10.13 17.281 10.07 16.861 10.07H7.12098Z" fill="#49536E"/>
<path d="M2.24121 14.95C1.83121 14.95 1.49121 14.61 1.49121 14.2V11.27C1.49121 8.11998 3.72121 5.39998 6.80121 4.79998C7.07121 4.74998 7.35121 4.84998 7.53121 5.05998C7.70121 5.26998 7.75121 5.56998 7.64121 5.81998L5.89121 9.99998C5.81121 10.18 5.67121 10.32 5.50121 10.4C3.98121 11.06 3.00121 12.55 3.00121 14.2C2.99121 14.61 2.66121 14.95 2.24121 14.95ZM5.60121 6.81998C4.32121 7.53998 3.39121 8.79998 3.10121 10.27C3.54121 9.81998 4.05121 9.43998 4.63121 9.15998L5.60121 6.81998Z" fill="#49536E"/>
<path d="M21.7611 14.95C21.3511 14.95 21.0111 14.61 21.0111 14.2C21.0111 12.39 19.8011 10.77 18.0811 10.24C17.8811 10.18 17.7111 10.04 17.6211 9.85002C17.5311 9.66002 17.5211 9.44002 17.6011 9.25002C18.0711 8.08002 18.1911 7.23002 18.0011 6.57002C17.9811 6.48002 17.9611 6.44002 17.9511 6.40002C17.8211 6.11002 17.8911 5.77002 18.1211 5.55002C18.3511 5.33002 18.7011 5.28002 18.9811 5.43002C21.1611 6.57002 22.5111 8.81002 22.5111 11.27V14.2C22.5111 14.61 22.1711 14.95 21.7611 14.95ZM19.2511 9.09002C19.8811 9.38002 20.4411 9.79002 20.9111 10.28C20.7211 9.30002 20.2511 8.41002 19.5611 7.71002C19.5111 8.13002 19.4111 8.59002 19.2511 9.09002Z" fill="#49536E"/>
</svg>
