<svg width="375" height="300" viewBox="0 0 375 300" fill="none" xmlns="http://www.w3.org/2000/svg">
<g clip-path="url(#clip0_712_17320)">
<path d="M0 144.504H375" stroke="white" stroke-opacity="0.14" stroke-width="2"/>
<path d="M0 68.748H375" stroke="white" stroke-opacity="0.14" stroke-width="2"/>
<path d="M0 220.246H375" stroke="white" stroke-opacity="0.14" stroke-width="2"/>
<path d="M0 30.875H375" stroke="white" stroke-opacity="0.14" stroke-width="2"/>
<path d="M0 182.375H375" stroke="white" stroke-opacity="0.14" stroke-width="2"/>
<path d="M0 106.629H375" stroke="white" stroke-opacity="0.14" stroke-width="2"/>
<path d="M0 258.129H187.5H375" stroke="white" stroke-opacity="0.14" stroke-width="2"/>
<path d="M0 5.62695H375" stroke="white" stroke-opacity="0.14" stroke-width="2"/>
<path d="M0 157.125H375" stroke="white" stroke-opacity="0.14" stroke-width="2"/>
<path d="M0 81.375H375" stroke="white" stroke-opacity="0.14" stroke-width="2"/>
<path d="M0 232.875H375" stroke="white" stroke-opacity="0.14" stroke-width="2"/>
<path d="M0 43.5H375" stroke="white" stroke-opacity="0.14" stroke-width="2"/>
<path d="M0 194.998H375" stroke="white" stroke-opacity="0.14" stroke-width="2"/>
<path d="M0 119.25H375" stroke="white" stroke-opacity="0.14" stroke-width="2"/>
<path d="M0 270.754H375" stroke="white" stroke-opacity="0.14" stroke-width="2"/>
<path d="M0 18.25H375" stroke="white" stroke-opacity="0.14" stroke-width="2"/>
<path d="M0 169.754H375" stroke="white" stroke-opacity="0.14" stroke-width="2"/>
<path d="M0 94H375" stroke="white" stroke-opacity="0.14" stroke-width="2"/>
<path d="M0 245.506H375" stroke="white" stroke-opacity="0.14" stroke-width="2"/>
<path d="M0 56.125H375" stroke="white" stroke-opacity="0.14" stroke-width="2"/>
<path d="M0 207.625H375" stroke="white" stroke-opacity="0.14" stroke-width="2"/>
<path d="M0 296.004H375" stroke="white" stroke-opacity="0.14" stroke-width="2"/>
<path d="M0 131.877H375" stroke="white" stroke-opacity="0.14" stroke-width="2"/>
<path d="M0 283.375H375" stroke="white" stroke-opacity="0.14" stroke-width="2"/>
</g>
<defs>
<clipPath id="clip0_712_17320">
<rect width="375" height="300" fill="white"/>
</clipPath>
</defs>
</svg>
